<svg width="285" height="190" viewBox="0 0 285 190" fill="none" xmlns="http://www.w3.org/2000/svg">
<rect width="285" height="190" fill="#E5F3FF"/>
<path fill-rule="evenodd" clip-rule="evenodd" d="M230.317 97.3379C231.77 98.7415 233.526 100.647 235.13 100.647C238.54 100.647 241.898 97.1371 242.049 95.8334C242.25 94.0781 240.896 91.5715 241.548 90.6694C242.851 89.065 242.951 92.8253 243.252 94.3298C243.603 93.7284 244.305 92.5745 245.006 91.7723C246.962 89.5165 246.711 91.5715 245.307 93.6275C245.307 93.6275 244.706 94.4297 244.053 95.0312C245.507 94.9812 248.465 94.0781 248.616 95.0312C248.817 96.4848 245.257 95.6826 243.452 96.7355C240.695 98.34 238.388 108.317 228.511 99.8944C227.409 98.9923 229.765 96.8364 230.317 97.3379Z" fill="#313130"/>
<path fill-rule="evenodd" clip-rule="evenodd" d="M170.252 90.4698C168.397 91.2221 166.04 92.325 164.537 91.7236C161.378 90.4699 159.573 85.9582 159.924 84.7044C160.376 82.9492 162.581 81.1449 162.281 80.0919C161.679 78.1368 160.225 81.5455 159.373 82.8492C159.273 82.147 159.022 80.8441 158.67 79.7912C157.717 76.9839 157.166 78.989 157.717 81.3956C157.717 81.4456 158.018 82.3986 158.369 83.1509C157.015 82.5994 154.608 80.6942 154.107 81.4965C153.405 82.7502 157.015 83.3516 158.268 84.9561C160.273 87.5126 158.668 97.6407 171.002 93.4798C172.307 93.0264 170.953 90.1682 170.252 90.4698Z" fill="#313130"/>
<path fill-rule="evenodd" clip-rule="evenodd" d="M229.164 122.407C232.373 122.708 232.573 129.526 231.871 131.783C230.517 136.144 227.609 138.702 231.771 139.805C232.022 139.855 235.581 139.504 234.027 140.758C231.971 142.462 226.606 141.811 228.211 135.895C229.264 132.234 230.717 127.672 227.458 124.714C226.757 124.061 228.662 122.357 229.164 122.407Z" fill="#313130"/>
<path fill-rule="evenodd" clip-rule="evenodd" d="M167.845 124.714C164.537 124.062 162.381 130.881 162.431 133.287C162.531 138.051 164.737 141.459 160.275 141.359C160.024 141.309 156.564 139.956 157.717 141.66C159.322 143.967 164.836 144.819 164.887 138.451C164.937 134.49 164.787 129.577 168.898 127.521C169.751 127.07 168.347 124.814 167.845 124.714Z" fill="#313130"/>
<path d="M223.37 132.409L223.372 132.408C235.647 117.22 231.512 99.0065 221.292 77.6645C219.052 73.0062 217.409 68.6666 216.034 64.7898C215.634 63.6601 215.258 62.5752 214.897 61.5354C214.014 58.9847 213.224 56.7056 212.396 54.7021C211.232 51.8845 210.048 49.761 208.557 48.3276C207.106 46.9332 205.309 46.1407 202.773 46.0947L223.37 132.409ZM223.37 132.409C212.452 145.984 192.752 145.951 178.991 137.645L178.99 137.644M223.37 132.409L178.99 137.644M178.99 137.644C171.112 132.898 165.338 125.522 164.377 116.634L178.99 137.644ZM176.081 78.2372L176.081 78.2375L175.994 78.4335C172.637 86.0682 169.483 93.2398 167.288 99.7149C165.068 106.262 163.875 111.969 164.377 116.634L176.081 78.2372ZM176.081 78.2372C177.605 74.7688 178.846 71.2967 180.02 68.014M176.081 78.2372L180.02 68.014M180.02 68.014C180.26 67.3442 180.497 66.6823 180.732 66.0299M180.02 68.014L180.732 66.0299M180.732 66.0299C182.132 62.1562 183.495 58.6237 185.22 55.628M180.732 66.0299L185.22 55.628M185.22 55.628C186.937 52.6446 188.989 50.2408 191.74 48.5939M185.22 55.628L191.74 48.5939M191.74 48.5939C194.488 46.9491 198.017 46.0096 202.773 46.0947L191.74 48.5939Z" fill="#F0EE60" stroke="#609446" stroke-width="2"/>
<path fill-rule="evenodd" clip-rule="evenodd" d="M178.625 90.0678C177.773 91.1207 178.223 92.6243 179.176 92.8251C179.628 92.8751 180.229 92.925 180.731 92.1228C181.433 91.0199 181.382 90.0169 180.882 89.5154C180.379 89.0648 179.477 88.9648 178.625 90.0678Z" fill="#313130"/>
<path fill-rule="evenodd" clip-rule="evenodd" d="M220.489 89.4663C221.793 91.1207 219.637 94.1288 217.932 91.4714C216.729 89.6671 218.634 87.1097 220.489 89.4663Z" fill="#313130"/>
<path fill-rule="evenodd" clip-rule="evenodd" d="M203.493 90.6696C203.443 92.8754 201.538 94.8814 198.479 94.8814C197.276 94.8315 196.072 94.33 195.22 93.5777C194.267 92.7755 193.615 91.5726 194.017 91.271C194.468 90.9203 194.518 92.1732 195.671 93.1762C196.424 93.8276 197.477 94.2291 198.429 94.1792C199.482 94.1292 200.985 93.7776 201.888 92.7755C202.891 91.7225 203.092 90.0681 203.493 90.6696Z" fill="#313130"/>
<path fill-rule="evenodd" clip-rule="evenodd" d="M185.192 109.722C184.792 113.683 185.945 117.493 187.8 119.699C190.207 122.607 193.565 124.212 196.925 124.562C201.036 125.014 206.602 124.212 209.108 121.755C215.727 115.337 214.172 101.65 204.796 98.241C195.671 94.8813 186.245 99.5938 185.192 109.722Z" fill="#A86E37"/>
<path fill-rule="evenodd" clip-rule="evenodd" d="M220.489 95.7334C223.046 94.7804 225.954 98.6416 221.994 99.6945C219.286 100.447 216.93 97.0371 220.489 95.7334Z" fill="#F86959"/>
<path fill-rule="evenodd" clip-rule="evenodd" d="M174.915 97.6886C177.471 96.7356 180.329 100.547 176.419 101.65C173.712 102.352 171.355 98.9923 174.915 97.6886Z" fill="#F86959"/>
<path fill-rule="evenodd" clip-rule="evenodd" d="M58.2563 91.906C56.4011 92.6582 54.0444 93.7612 52.5408 93.1597C49.3819 91.906 47.5268 87.3943 47.8783 86.1405C48.3798 84.4362 50.5857 82.581 50.285 81.528C49.6836 79.5729 48.1791 83.0325 47.3269 84.3353C47.2769 83.633 47.0262 82.2794 46.6755 81.2264C45.7224 78.4691 45.171 80.4242 45.6725 82.8808C45.7224 82.8808 45.9732 83.8338 46.3239 84.636C45.0202 84.0846 42.6135 82.1295 42.112 82.9816C41.3597 84.2354 45.0201 84.7869 46.273 86.4413C48.2781 88.9978 46.6746 99.076 59.0076 94.9141C60.3123 94.5134 58.9086 91.6053 58.2563 91.906Z" fill="#313130"/>
<path fill-rule="evenodd" clip-rule="evenodd" d="M121.029 94.062C122.884 94.8642 125.241 95.9171 126.745 95.3657C129.904 94.062 131.708 89.5494 131.357 88.2965C130.906 86.5922 128.7 84.787 129 83.734C129.602 81.7289 131.056 85.1876 131.959 86.4913C132.009 85.789 132.259 84.4354 132.61 83.4333C133.563 80.626 134.115 82.6311 133.563 85.0377C133.563 85.0877 133.262 86.0407 132.962 86.793C134.265 86.2415 136.672 84.3363 137.173 85.1386C137.876 86.3923 134.265 86.9937 133.012 88.5982C131.007 91.1556 132.611 101.233 120.278 97.1218C118.973 96.6694 120.327 93.8112 121.029 94.062Z" fill="#313130"/>
<path fill-rule="evenodd" clip-rule="evenodd" d="M117.369 128.255C120.627 128.556 120.778 135.375 120.076 137.631C118.722 141.993 115.814 144.551 119.976 145.653C120.227 145.703 123.786 145.353 122.232 146.607C120.176 148.311 114.811 147.659 116.416 141.743C117.469 138.083 118.922 133.52 115.663 130.562C114.962 129.91 116.867 128.206 117.369 128.255Z" fill="#313130"/>
<path fill-rule="evenodd" clip-rule="evenodd" d="M55.6498 111.911C53.4939 109.504 47.8784 113.415 46.4748 115.32C43.8174 119.031 43.5166 122.941 40.1579 120.184C39.9571 120.033 38.1019 116.975 38.002 118.981C37.902 121.638 41.6115 125.548 45.3718 120.736C47.7285 117.728 50.4859 113.817 54.7977 114.669C55.7498 114.869 55.9506 112.312 55.6498 111.911Z" fill="#313130"/>
<path fill-rule="evenodd" clip-rule="evenodd" d="M67.1307 137.832C74.0499 144.4 82.9243 146.707 91.6478 145.954C108.945 144.4 125.691 130.562 125.24 113.616C124.689 93.2597 109.697 36.2542 87.336 42.4711C76.6065 45.4792 69.3865 58.5654 63.0697 78.0185C54.7976 103.338 41.9622 113.867 67.1307 137.832Z" fill="#609446"/>
<path fill-rule="evenodd" clip-rule="evenodd" d="M74.0999 64.7816C72.947 65.2831 73.0469 67.2382 73.5984 67.489C74.5014 67.8905 75.4536 65.0323 74.0999 64.7816ZM79.114 55.7573C78.1609 56.158 78.2618 57.6625 78.7133 57.8633C79.4147 58.2139 80.1669 55.9581 79.114 55.7573ZM86.6346 60.6706C85.7325 61.0212 85.7825 62.5757 86.234 62.7765C86.9354 63.0772 87.6876 60.8214 86.6346 60.6706ZM70.9919 68.0404C70.0388 68.442 70.1397 69.9456 70.5912 70.1464C71.2926 70.4979 72.0448 68.1912 70.9919 68.0404ZM65.777 82.5303C64.824 82.881 64.9248 84.4354 65.3754 84.6362C66.0277 84.9369 66.83 82.6811 65.777 82.5303ZM69.1866 87.0429C67.9838 87.5444 68.1337 89.4995 68.6851 89.7502C69.5373 90.1518 70.5403 87.2936 69.1866 87.0429ZM77.1588 84.7362C75.956 85.2377 76.0559 87.1428 76.6573 87.4435C77.5095 87.8451 78.4616 84.9869 77.1588 84.7362ZM83.6765 81.5782C82.5236 82.0797 82.6236 84.0348 83.175 84.2855C84.0772 84.6862 85.0302 81.8289 83.6765 81.5782ZM73.3476 80.726C72.1947 81.2275 72.2947 83.1326 72.8461 83.3834C73.7492 83.784 74.7022 80.9259 73.3476 80.726ZM79.7154 78.2685C78.5125 78.77 78.6624 80.6751 79.2139 80.9758C80.0661 81.3774 81.0691 78.5192 79.7154 78.2685ZM69.3874 77.4163C68.1846 77.9178 68.3345 79.8229 68.8859 80.0737C69.7381 80.4752 70.6912 77.6171 69.3874 77.4163ZM86.9354 76.2134C85.7325 76.7149 85.8824 78.62 86.4339 78.8708C87.286 79.2715 88.2391 76.4142 86.9354 76.2134ZM76.6074 75.3103C75.4045 75.8118 75.5045 77.767 76.1059 78.0177C76.9581 78.4193 77.9102 75.5611 76.6074 75.3103ZM81.7214 72.9546C80.5185 73.4061 80.6185 75.3612 81.2199 75.612C82.0721 76.0126 83.0242 73.1553 81.7214 72.9546ZM71.3425 72.0515C70.1896 72.553 70.2896 74.4582 70.8411 74.7089C71.7441 75.1604 72.6962 72.2523 71.3425 72.0515ZM80.7184 65.5338C79.5655 66.0353 79.6654 67.9405 80.2169 68.2412C81.1191 68.6428 82.0721 65.7846 80.7184 65.5338ZM76.9581 69.5949C75.8052 70.0964 75.9051 72.0015 76.4566 72.3022C77.3587 72.7038 78.3117 69.8456 76.9581 69.5949ZM78.2118 61.7235C77.0089 62.225 77.1588 64.1302 77.7103 64.4309C78.5625 64.8325 79.5655 61.9743 78.2118 61.7235Z" fill="#A5C24E"/>
<path fill-rule="evenodd" clip-rule="evenodd" d="M68.3844 92.7085C67.5323 93.8115 68.0338 95.316 68.9859 95.4659C69.4374 95.5658 69.9889 95.5658 70.5403 94.7636C71.1918 93.7106 71.1917 92.7076 70.6403 92.207C70.1896 91.7055 69.2366 91.6556 68.3844 92.7085Z" fill="#313130"/>
<path fill-rule="evenodd" clip-rule="evenodd" d="M110.25 92.1065C111.553 93.8108 109.397 96.8198 107.693 94.1624C106.489 92.3572 108.444 89.7997 110.25 92.1065Z" fill="#313130"/>
<path fill-rule="evenodd" clip-rule="evenodd" d="M93.303 93.3096C93.2031 95.5654 91.2979 97.5714 88.2889 97.5214C87.0352 97.5214 85.8823 96.97 85.0301 96.2677C84.0771 95.4155 83.4257 94.2117 83.7764 93.911C84.2279 93.6103 84.2779 94.8131 85.4308 95.8161C86.183 96.4675 87.286 96.9191 88.2381 96.8691C89.291 96.8191 90.7955 96.4176 91.6477 95.4655C92.6507 94.3625 92.8515 92.7081 93.303 93.3096Z" fill="#313130"/>
<path fill-rule="evenodd" clip-rule="evenodd" d="M110.3 98.424C112.856 97.4709 115.714 101.282 111.753 102.385C109.096 103.087 106.689 99.7277 110.3 98.424Z" fill="#FFA399"/>
<path fill-rule="evenodd" clip-rule="evenodd" d="M64.6741 100.329C67.2815 99.4267 70.1388 103.237 66.1786 104.29C63.4712 105.042 61.1145 101.683 64.6741 100.329Z" fill="#FFA399"/>
</svg>
