<svg width="285" height="190" viewBox="0 0 285 190" fill="none" xmlns="http://www.w3.org/2000/svg">
<rect width="285" height="190" fill="#D9EFE2"/>
<path fill-rule="evenodd" clip-rule="evenodd" d="M118.484 116.016C116.828 116.016 122.199 116.016 118.484 116.016V116.016ZM193.904 105.778C199.167 117.421 184.084 119.433 178.205 107.145C180.009 109.93 183.162 119.381 182.521 128.239C181.612 140.746 172.727 154.8 174.344 159.674C174.571 160.358 176.321 162.33 176.108 163.607C175.306 168.236 161.425 170.26 159.835 162.188C157.884 152.338 152.206 148.702 145.566 149.669C140.409 150.416 133.889 153.627 133.007 160.809C132.793 162.511 133.929 164.393 134.757 165.837C135.305 166.779 135.158 167.965 135.158 167.965C133.942 172.516 120.849 171.536 119.567 163.4C117.643 151.126 114.824 147.722 113.087 139.431C111.15 130.186 113.955 115.655 114.891 108.744C114.957 118.762 98.2569 125.957 94.3023 117.602C92.8326 114.482 94.9836 108.344 101.584 105.83C103.748 105.005 106.233 91.9691 110.896 83.8073C120.168 67.6128 149.293 74.8719 161.812 73.9307C173.609 73.0281 182.721 85.419 185.807 96.3916C187.13 101.072 192.461 102.594 193.904 105.778Z" fill="#A77D51"/>
<path fill-rule="evenodd" clip-rule="evenodd" d="M160.837 142.139C181.625 137.536 172.861 99.2928 146.381 101.768C110.094 104.18 120.742 159.313 160.837 142.139Z" fill="#F2E6BB"/>
<path fill-rule="evenodd" clip-rule="evenodd" d="M122.319 37.6862C122.319 37.6862 129.56 29.4987 138.044 28.119C147.73 26.546 158.9 31.7809 160.543 31.9227C157.63 23.516 164.765 18.8613 167.236 19.0031C175.173 19.4544 194.986 75.568 152.647 84.8773C91.1761 98.4029 107.356 -8.24136 122.319 37.6862Z" fill="#B68E66"/>
<path fill-rule="evenodd" clip-rule="evenodd" d="M130.161 33.2642C129.76 33.5994 129.039 37.7512 131.016 37.4031C131.497 37.3257 131.631 33.9217 130.161 33.2642Z" fill="#FDE1C4"/>
<path fill-rule="evenodd" clip-rule="evenodd" d="M133.194 31.2014C132.9 32.1168 132.219 37.7514 134.103 35.3532C134.69 34.5667 133.274 30.9306 133.194 31.2014Z" fill="#FDE1C4"/>
<path fill-rule="evenodd" clip-rule="evenodd" d="M136.561 30.1693C135.238 28.3641 135.693 37.2866 137.029 33.715C137.269 33.0704 136.788 30.4787 136.561 30.1693Z" fill="#FDE1C4"/>
<path fill-rule="evenodd" clip-rule="evenodd" d="M140.235 29.5503C139.086 28.3641 138.017 36.2293 139.928 34.2049C140.743 33.354 141.117 30.4658 140.235 29.5503Z" fill="#FDE1C4"/>
<path fill-rule="evenodd" clip-rule="evenodd" d="M143.068 29.5379C142.974 29.5508 141.464 34.5664 143.428 33.8573C144.19 33.5736 144.056 29.4734 143.068 29.5379Z" fill="#FDE1C4"/>
<path fill-rule="evenodd" clip-rule="evenodd" d="M146.448 29.8216C145.285 31.0723 145.472 31.7557 145.953 34.3086C145.993 34.4891 146.982 34.9791 146.728 32.4519C146.648 31.6654 146.955 29.2672 146.448 29.8216Z" fill="#FDE1C4"/>
<path fill-rule="evenodd" clip-rule="evenodd" d="M156.254 32.8255C156.388 33.7797 156.067 39.44 154.637 36.771C154.183 35.9071 156.214 32.5418 156.254 32.8255Z" fill="#FDE1C4"/>
<path fill-rule="evenodd" clip-rule="evenodd" d="M153.114 31.2651C154.731 29.692 152.74 38.4211 152.045 34.6819C151.912 33.9985 152.834 31.5358 153.114 31.2651Z" fill="#FDE1C4"/>
<path fill-rule="evenodd" clip-rule="evenodd" d="M149.601 30.0532C150.937 29.0733 150.616 36.9901 149.093 34.6821C148.439 33.7279 148.572 30.8139 149.601 30.0532Z" fill="#FDE1C4"/>
<path fill-rule="evenodd" clip-rule="evenodd" d="M130.736 39.1948C130.335 39.5301 129.614 43.6819 131.591 43.3337C132.072 43.2564 132.206 39.8524 130.736 39.1948Z" fill="#FDE1C4"/>
<path fill-rule="evenodd" clip-rule="evenodd" d="M133.769 37.1315C133.475 38.047 132.794 43.6815 134.664 41.2833C135.265 40.5097 133.849 36.8607 133.769 37.1315Z" fill="#FDE1C4"/>
<path fill-rule="evenodd" clip-rule="evenodd" d="M137.136 36.1004C135.813 34.2953 136.267 43.2178 137.603 39.6462C137.844 39.0015 137.363 36.4228 137.136 36.1004Z" fill="#FDE1C4"/>
<path fill-rule="evenodd" clip-rule="evenodd" d="M140.81 35.4814C139.661 34.2952 138.592 42.1604 140.502 40.1361C141.304 39.2851 141.691 36.3969 140.81 35.4814Z" fill="#FDE1C4"/>
<path fill-rule="evenodd" clip-rule="evenodd" d="M143.642 35.4685C143.548 35.4814 142.039 40.4971 144.003 39.7879C144.764 39.5043 144.617 35.4041 143.642 35.4685Z" fill="#FDE1C4"/>
<path fill-rule="evenodd" clip-rule="evenodd" d="M147.009 35.7528C145.847 37.0034 146.034 37.6868 146.515 40.2398C146.555 40.4203 147.543 40.9103 147.29 38.3831C147.223 37.5966 147.53 35.1983 147.009 35.7528Z" fill="#FDE1C4"/>
<path fill-rule="evenodd" clip-rule="evenodd" d="M153.676 37.1964C155.292 35.6363 153.301 44.3525 152.607 40.6133C152.486 39.9299 153.408 37.4672 153.676 37.1964Z" fill="#FDE1C4"/>
<path fill-rule="evenodd" clip-rule="evenodd" d="M150.162 35.9976C151.498 35.0048 151.191 42.9345 149.654 40.6265C149.013 39.6595 149.147 36.7455 150.162 35.9976Z" fill="#FDE1C4"/>
<path fill-rule="evenodd" clip-rule="evenodd" d="M127.102 35.2758C127.623 36.1783 127.61 37.7643 128.785 38.1253C129.707 33.9735 126.394 34.038 127.102 35.2758Z" fill="#FDE1C4"/>
<path fill-rule="evenodd" clip-rule="evenodd" d="M162.186 56.9496C164.778 59.4897 167.544 60.6501 170.897 58.4066C172.474 57.3493 172.968 56.4468 173.743 54.8608C173.77 54.7835 173.863 54.7319 173.943 54.7577C174.023 54.7835 174.077 54.8737 174.05 54.9511C173.743 55.5829 173.476 56.1244 173.168 56.6015C173.917 57.0012 174.651 57.4009 175.386 57.7877C175.48 57.7877 175.56 57.8522 175.56 57.9295C175.573 58.0198 175.493 58.0972 175.4 58.0972C174.571 57.749 173.77 57.2849 172.981 56.8594C172.567 57.4396 172.06 57.9553 171.298 58.4969C172.327 59.451 171.806 58.9482 172.941 60.0441C172.995 60.1215 172.968 60.2117 172.888 60.2633C172.808 60.3149 172.714 60.2891 172.661 60.2117C171.565 59.1674 172.086 59.6573 171.031 58.6774C170.443 59.0642 169.868 59.3479 169.307 59.5542C169.534 60.4052 169.882 60.9209 170.136 61.8106C170.136 61.9008 170.069 61.9782 169.975 61.9782C169.882 61.9782 169.802 61.9137 169.802 61.8235C169.548 60.9854 169.24 60.5083 169 59.6573C168.319 59.8636 167.677 59.9281 167.036 59.8894C166.943 60.6759 167.049 61.0498 166.889 62.004V62.0427C166.889 62.1329 166.822 62.2103 166.742 62.2103C166.649 62.2103 166.568 62.1458 166.568 62.0684C166.568 62.0684 166.689 60.3923 166.729 59.8507C165.954 59.7476 165.206 59.4897 164.484 59.09C164.043 60.7017 164.284 59.9539 163.749 61.4624C163.749 61.5527 163.683 61.6301 163.589 61.6301C163.496 61.6301 163.429 61.5656 163.415 61.4882C163.963 59.8507 163.696 60.6888 164.19 58.9353C163.83 58.7161 163.455 58.4582 163.108 58.1874C162.333 59.4252 162.707 58.8063 161.932 60.1473C161.892 60.2246 161.799 60.2504 161.719 60.2117C161.638 60.1731 161.612 60.0828 161.652 59.9926C162.453 58.6129 162.053 59.2705 162.868 57.9682C162.547 57.7104 162.24 57.4267 161.932 57.1301C161.879 57.0657 161.879 56.9625 161.946 56.9109C162.026 56.8852 162.119 56.8852 162.186 56.9496Z" fill="#524432"/>
<path fill-rule="evenodd" clip-rule="evenodd" d="M166.742 62.6102C166.461 62.6102 166.221 62.391 166.194 62.1202C166.181 61.9526 166.221 61.5142 166.314 60.1862C165.78 60.083 165.246 59.9154 164.725 59.6575L164.658 59.9799C164.524 60.4698 164.524 60.4698 164.351 60.9727L164.137 61.5529C164.123 61.6561 164.083 61.7592 164.003 61.8366C163.91 61.9397 163.776 62.0042 163.629 62.0042C163.308 62.0042 163.081 61.785 163.055 61.5142V61.4498L163.322 60.6632C163.482 60.1733 163.482 60.1733 163.616 59.6962L163.776 59.1031C163.589 58.9871 163.415 58.8581 163.228 58.7292L163.108 58.9226C162.867 59.3094 162.868 59.3094 162.64 59.6962L162.28 60.328C162.199 60.4956 162.012 60.5988 161.799 60.5988H161.705L161.545 60.5472C161.278 60.4183 161.171 60.0959 161.304 59.838L161.678 59.1805C161.906 58.7808 161.906 58.7808 162.159 58.3682L162.36 58.0458C162.119 57.8395 161.879 57.6203 161.652 57.3882C161.545 57.2722 161.491 57.1304 161.505 56.9885C161.518 56.8467 161.585 56.7178 161.692 56.6275C161.906 56.447 162.266 56.4599 162.453 56.6791C165.406 59.5544 167.851 59.967 170.657 58.0845C172.166 57.0788 172.621 56.2278 173.369 54.6934C173.422 54.5258 173.636 54.3711 173.863 54.3711L174.037 54.3969C174.317 54.4871 174.478 54.7837 174.384 55.0545C174.13 55.5831 173.903 56.0344 173.663 56.447L175.493 57.4269C175.734 57.4785 175.894 57.6719 175.907 57.8911C175.934 58.1876 175.693 58.4326 175.399 58.4455H175.306L175.226 58.4068C174.571 58.1361 173.93 57.775 173.315 57.4398L173.075 57.3109C172.727 57.7493 172.34 58.1232 171.859 58.4971L171.979 58.6002C172.313 58.9097 172.313 58.9097 172.634 59.2191L173.182 59.7478C173.395 60.0572 173.315 60.3796 173.075 60.5343L172.981 60.5988L172.781 60.6246C172.594 60.6246 172.42 60.5343 172.327 60.3796L171.872 59.9541C171.552 59.6446 171.552 59.6446 171.218 59.3481L170.964 59.116C170.563 59.361 170.149 59.5802 169.748 59.7349C169.842 60.0057 169.948 60.2506 170.055 60.5085C170.202 60.8566 170.349 61.2177 170.483 61.669C170.51 61.8753 170.456 62.0171 170.363 62.1202C170.269 62.2234 170.136 62.2879 169.989 62.3007C169.668 62.3007 169.441 62.0816 169.414 61.8108C169.307 61.5013 169.187 61.1919 169.053 60.8824C168.946 60.6246 168.84 60.3667 168.733 60.0572C168.278 60.1604 167.824 60.2249 167.383 60.2249C167.37 60.3925 167.37 60.5472 167.37 60.7019C167.37 61.063 167.357 61.4369 167.263 61.9913C167.25 62.3008 167.036 62.5199 166.755 62.5457L166.742 62.6102Z" fill="#5B5246"/>
<path fill-rule="evenodd" clip-rule="evenodd" d="M118.297 59.7606C120.489 62.6359 123.04 64.1703 126.701 62.4167C128.425 61.5915 129.052 60.7663 130.041 59.3093C130.081 59.232 130.175 59.1933 130.255 59.232C130.335 59.2707 130.375 59.3609 130.335 59.4383C129.934 60.0314 129.587 60.5213 129.213 60.9468C129.894 61.4368 130.562 61.9397 131.23 62.4296C131.324 62.4425 131.391 62.507 131.377 62.5972C131.364 62.6875 131.297 62.752 131.204 62.7391C130.429 62.2878 129.707 61.7076 128.999 61.166C128.505 61.6947 127.93 62.1202 127.089 62.5586C127.97 63.6416 127.516 63.0872 128.478 64.325C128.518 64.4024 128.478 64.4926 128.398 64.5313C128.318 64.57 128.211 64.5313 128.184 64.4539C127.249 63.2677 127.703 63.8221 126.795 62.7004C126.153 62.9969 125.552 63.2032 124.964 63.3322C125.071 64.209 125.325 64.7763 125.445 65.6789C125.432 65.7691 125.352 65.8336 125.272 65.8207C125.178 65.8078 125.111 65.7433 125.125 65.6531C125.004 64.7892 124.764 64.2734 124.657 63.3967C123.962 63.4998 123.308 63.4869 122.68 63.358C122.479 64.1316 122.519 64.5055 122.212 65.4339V65.4726C122.199 65.5628 122.132 65.6273 122.038 65.6144C121.945 65.6015 121.878 65.5241 121.891 65.4468C121.891 65.4468 122.252 63.8093 122.372 63.2806C121.624 63.0743 120.929 62.7133 120.261 62.2233C119.593 63.7577 119.927 63.0485 119.179 64.4668C119.166 64.5571 119.099 64.6216 119.006 64.6087C118.912 64.5958 118.845 64.5313 118.859 64.441C119.647 62.8938 119.259 63.6932 120.008 62.0299C119.674 61.7591 119.353 61.4626 119.046 61.1274C118.084 62.2491 118.551 61.6818 117.589 62.9067C117.536 62.9841 117.429 62.9969 117.362 62.9454C117.295 62.8938 117.269 62.7906 117.322 62.7262C118.311 61.4755 117.83 62.0686 118.832 60.8953C118.565 60.5987 118.297 60.2764 118.03 59.9282C117.977 59.8509 118.003 59.7606 118.084 59.709C118.15 59.6704 118.257 59.6833 118.297 59.7606Z" fill="#524432"/>
<path fill-rule="evenodd" clip-rule="evenodd" d="M125.285 66.2075H125.231C125.098 66.1946 124.964 66.1301 124.871 66.0269C124.777 65.9238 124.737 65.782 124.75 65.6401C124.697 65.3178 124.617 64.9954 124.537 64.686C124.47 64.4152 124.403 64.1445 124.336 63.8221C123.869 63.8608 123.414 63.8608 122.974 63.7963C122.933 63.9639 122.907 64.1187 122.893 64.2605C122.84 64.6215 122.773 64.9826 122.599 65.537C122.546 65.8335 122.332 66.0141 122.065 66.0141C121.878 66.0012 121.744 65.9367 121.651 65.8335C121.557 65.7304 121.517 65.5886 121.531 65.4467C121.531 65.408 121.811 64.1574 121.945 63.5513C121.437 63.3837 120.929 63.1259 120.448 62.8035L120.315 63.113C120.114 63.5771 120.114 63.5771 119.861 64.0542L119.567 64.5957C119.5 64.8149 119.286 64.9826 119.046 64.9826C118.698 64.9568 118.484 64.6989 118.511 64.4152L118.551 64.2863L118.899 63.6029C119.139 63.1387 119.139 63.1387 119.34 62.6875L119.593 62.1201C119.433 61.9783 119.273 61.8365 119.112 61.6689L118.979 61.8236C118.671 62.1717 118.671 62.1717 118.404 62.5198L117.937 63.1001C117.776 63.3064 117.429 63.3708 117.188 63.2161C116.948 63.0485 116.881 62.7261 117.055 62.4941L117.536 61.888C117.83 61.5141 117.83 61.5141 118.137 61.1531L118.378 60.8694C118.177 60.6245 117.963 60.3795 117.763 60.1216C117.669 59.9927 117.643 59.8508 117.669 59.709C117.696 59.5672 117.79 59.4511 117.91 59.3738L118.003 59.3093L118.204 59.2835C118.391 59.2835 118.565 59.3738 118.658 59.5285C121.13 62.7648 123.535 63.5127 126.567 62.0557C128.211 61.2691 128.785 60.4955 129.761 59.0772C129.827 58.9354 130.014 58.8193 130.228 58.8193H130.322L130.469 58.8709C130.736 58.9998 130.843 59.3222 130.709 59.5801C130.388 60.0571 130.095 60.4826 129.787 60.8565L131.444 62.0686C131.671 62.1459 131.818 62.3651 131.805 62.6101C131.778 62.8809 131.537 63.0872 131.27 63.0872H131.163L131.057 63.0356C130.442 62.6746 129.867 62.2362 129.306 61.8107L129.093 61.6431C128.692 62.0299 128.251 62.3522 127.716 62.6488L127.81 62.7648C128.091 63.113 128.091 63.113 128.371 63.474L128.839 64.08C128.999 64.4152 128.879 64.7247 128.612 64.8407L128.384 64.8923C128.171 64.8923 127.97 64.7763 127.89 64.5828L127.463 64.0542C127.209 63.7319 127.209 63.7319 126.901 63.345L126.728 63.1387C126.287 63.3322 125.859 63.4869 125.432 63.59C125.485 63.8737 125.552 64.1316 125.619 64.4023C125.712 64.7634 125.806 65.1373 125.873 65.6143C125.806 65.9883 125.565 66.2075 125.285 66.2075Z" fill="#5B5246"/>
<path fill-rule="evenodd" clip-rule="evenodd" d="M140.275 71.2361C143.936 76.8578 145.7 71.3521 146.715 69.6373C146.715 69.6115 146.702 69.5986 146.702 69.5728H146.755C147.022 69.1344 147.25 68.9926 147.437 69.4439C148.105 71.0943 149.935 74.7819 152.326 72.461C153.168 71.6358 153.382 70.5269 153.609 69.4568C153.636 69.2633 153.836 69.1215 154.037 69.1602C154.237 69.186 154.384 69.3794 154.344 69.5728C153.035 75.62 148.612 74.6271 147.009 70.5914C145.192 74.6529 142.654 76.2776 139.594 71.5713C139.501 71.3908 139.581 71.1716 139.754 71.0814C139.955 70.9911 140.182 71.0556 140.275 71.2361Z" fill="#524432"/>
<path fill-rule="evenodd" clip-rule="evenodd" d="M145.593 69.5336C141.424 68.8244 136.654 51.3147 150.402 55.9307C157.483 58.3031 151.404 70.5135 145.593 69.5336Z" fill="#524432"/>
<path fill-rule="evenodd" clip-rule="evenodd" d="M134.824 96.4565C134.37 96.1986 132.9 92.2402 134.905 92.2402C135.399 92.2402 136.147 95.5668 134.824 96.4565Z" fill="#FDE1C4"/>
<path fill-rule="evenodd" clip-rule="evenodd" d="M138.178 97.977C137.723 97.126 136.027 91.6977 138.311 93.7478C139.046 94.4054 138.325 98.2349 138.178 97.977Z" fill="#FDE1C4"/>
<path fill-rule="evenodd" clip-rule="evenodd" d="M141.678 98.4158C140.716 100.414 139.514 91.5564 141.491 94.8572C141.852 95.4503 141.852 98.0677 141.678 98.4158Z" fill="#FDE1C4"/>
<path fill-rule="evenodd" clip-rule="evenodd" d="M145.419 98.403C144.51 99.7697 142.025 92.214 144.27 93.8773C145.219 94.5735 146.114 97.3586 145.419 98.403Z" fill="#FDE1C4"/>
<path fill-rule="evenodd" clip-rule="evenodd" d="M148.211 97.9387C148.118 97.9516 145.713 93.2711 147.784 93.6322C148.572 93.774 149.187 97.8355 148.211 97.9387Z" fill="#FDE1C4"/>
<path fill-rule="evenodd" clip-rule="evenodd" d="M151.471 97.0882C150.095 96.0567 150.162 95.3475 150.162 92.7559C150.162 92.5625 151.057 91.9178 151.271 94.445C151.351 95.2315 152.086 97.5395 151.471 97.0882Z" fill="#FDE1C4"/>
<path fill-rule="evenodd" clip-rule="evenodd" d="M160.583 92.4587C160.543 91.4916 159.193 85.986 158.285 88.8484C157.991 89.7768 160.596 92.7423 160.583 92.4587Z" fill="#FDE1C4"/>
<path fill-rule="evenodd" clip-rule="evenodd" d="M157.777 94.5218C159.648 95.7854 156.107 87.5334 156.094 91.3371C156.094 92.0333 157.457 94.3026 157.777 94.5218Z" fill="#FDE1C4"/>
<path fill-rule="evenodd" clip-rule="evenodd" d="M154.531 96.3144C156.027 97.0622 154.277 89.3131 153.181 91.8403C152.727 92.8975 153.395 95.7342 154.531 96.3144Z" fill="#FDE1C4"/>
<path fill-rule="evenodd" clip-rule="evenodd" d="M134.303 90.5254C133.849 90.2675 132.379 86.3091 134.383 86.3091C134.878 86.2962 135.626 89.6228 134.303 90.5254Z" fill="#FDE1C4"/>
<path fill-rule="evenodd" clip-rule="evenodd" d="M137.657 92.0336C137.202 91.1826 135.506 85.7544 137.79 87.8045C138.525 88.462 137.804 92.2915 137.657 92.0336Z" fill="#FDE1C4"/>
<path fill-rule="evenodd" clip-rule="evenodd" d="M141.157 92.472C140.195 94.4705 138.993 85.6125 140.97 88.9133C141.331 89.5064 141.331 92.1239 141.157 92.472Z" fill="#FDE1C4"/>
<path fill-rule="evenodd" clip-rule="evenodd" d="M144.898 92.4591C143.989 93.8259 141.504 86.2701 143.749 87.9334C144.697 88.6297 145.593 91.4147 144.898 92.4591Z" fill="#FDE1C4"/>
<path fill-rule="evenodd" clip-rule="evenodd" d="M147.69 91.9948C147.597 92.0077 145.192 87.3273 147.263 87.6883C148.051 87.8302 148.665 91.8917 147.69 91.9948Z" fill="#FDE1C4"/>
<path fill-rule="evenodd" clip-rule="evenodd" d="M150.964 91.1439C149.588 90.1124 149.654 89.4032 149.654 86.8115C149.654 86.6181 150.536 85.9734 150.763 88.5006C150.83 89.2872 151.565 91.5951 150.964 91.1439Z" fill="#FDE1C4"/>
<path fill-rule="evenodd" clip-rule="evenodd" d="M157.256 88.578C159.127 89.8416 155.573 81.5896 155.573 85.3932C155.573 86.0895 156.936 88.3588 157.256 88.578Z" fill="#FDE1C4"/>
<path fill-rule="evenodd" clip-rule="evenodd" d="M154.01 90.3705C155.506 91.1184 153.756 83.3692 152.66 85.8964C152.206 86.9537 152.874 89.8032 154.01 90.3705Z" fill="#FDE1C4"/>
<path fill-rule="evenodd" clip-rule="evenodd" d="M131.444 94.9988C131.791 94.0318 131.497 92.4716 132.58 91.9043C134.25 95.8369 130.976 96.3398 131.444 94.9988Z" fill="#FDE1C4"/>
<path fill-rule="evenodd" clip-rule="evenodd" d="M151.284 134.17C150.817 134.235 150.269 132.172 151.832 132.675C152.42 132.868 152.032 133.616 151.712 133.913C151.538 134.054 151.538 134.132 151.284 134.17Z" fill="black"/>
<path fill-rule="evenodd" clip-rule="evenodd" d="M151.257 134.532C150.71 134.532 150.416 133.771 150.416 133.255C150.416 132.984 150.482 132.752 150.629 132.572C150.75 132.417 150.99 132.224 151.404 132.224V132.959C151.284 132.959 151.257 132.997 151.244 133.01C151.204 133.062 151.177 133.152 151.177 133.255C151.177 133.539 151.311 133.784 151.364 133.822C151.351 133.81 151.324 133.797 151.271 133.797V134.532H151.257Z" fill="black"/>
<path fill-rule="evenodd" clip-rule="evenodd" d="M129.293 68.4899C128.692 67.51 121.771 67.4713 121.771 68.8251C121.771 76.0843 131.244 71.6747 129.293 68.4899Z" fill="#F6B2B6"/>
<path fill-rule="evenodd" clip-rule="evenodd" d="M170.416 66.1173C169.815 65.1374 162.894 65.0987 162.894 66.4526C162.894 73.7247 172.367 69.315 170.416 66.1173Z" fill="#F6B2B6"/>
<path fill-rule="evenodd" clip-rule="evenodd" d="M99.9672 105.404C99.8737 105.585 99.7802 105.778 99.6733 105.959C99.513 105.933 99.3794 105.92 99.2324 105.92C99.7 103.47 99.4061 99.6665 99.4862 99.7438C100.809 101.111 100.996 102.387 100.649 103.715C99.7668 103.999 99.5263 104.888 99.9672 105.404ZM98.3239 105.701C96.9745 104.888 94.5296 104.012 93.6077 104.063C93.5543 106.552 95.9992 107.132 97.6559 107.106C97.6559 106.694 97.9097 106.268 98.4308 106.049C98.5109 106.01 98.6045 105.984 98.7113 105.959C100.208 100.878 92.5923 100.363 90.0939 101.227C90.0939 101.24 89.7466 102.271 90.3879 101.91C92.3785 100.788 95.4781 101.33 97.3219 102.529C99.0988 103.676 98.2304 104.85 98.3239 105.701ZM97.9765 107.79C98.4708 107.996 95.5182 109.092 94.0085 107.957C89.8401 104.785 96.9478 107.377 97.9765 107.79Z" fill="#5FA851"/>
<path fill-rule="evenodd" clip-rule="evenodd" d="M94.7966 110.149C94.7833 110.227 95.3577 112.38 96.9877 111.864C100.555 110.729 95.144 106.732 94.7966 110.149ZM107.516 115.178C107.997 111.58 101.918 114.585 104.964 116.351C105.031 116.39 107.288 116.828 107.516 115.178ZM106.487 104.076C103.828 103.56 105.752 107.931 107.235 105.907C107.262 105.868 107.703 104.321 106.487 104.076ZM97.6423 113.863C96.1727 115.887 94.2488 111.516 96.8942 112.032C98.1233 112.264 97.6824 113.811 97.6423 113.863ZM99.78 114.211C99.7934 114.211 99.8067 114.211 99.8067 114.198C99.8201 114.185 99.8334 114.185 99.8468 114.172C99.8334 114.198 99.8067 114.198 99.78 114.211ZM99.593 114.249C99.6063 114.249 99.6197 114.249 99.633 114.236C99.6197 114.249 99.6063 114.249 99.593 114.249ZM98.8448 114.236C99.0051 114.249 99.1521 114.249 99.2857 114.262C97.6557 114.095 96.3998 110.768 99.78 110.897C101.851 110.974 100.969 112.973 100.929 113.063C100.809 113.308 100.675 113.502 100.542 113.669C100.582 113.643 100.608 113.63 100.622 113.63C100.715 113.682 100.782 114.391 100.956 114.907C100.996 115.036 101.156 115.139 101.263 115.229C100.421 114.198 100.608 112.109 103.174 111.877C103.254 111.864 105.405 112.883 104.483 114.288C103.294 116.106 102.065 116.054 101.383 115.358C101.397 115.384 101.41 115.41 101.41 115.436C101.37 116.222 99.967 116.364 99.2055 115.642C98.8715 115.332 98.778 114.778 98.8448 114.236ZM98.7112 105.959C98.8715 105.933 99.0452 105.907 99.2322 105.92C99.3658 105.92 99.5128 105.933 99.6731 105.959C99.7132 105.972 99.7533 105.972 99.7934 105.972C99.78 106.191 99.7934 106.384 99.8067 106.565C100.127 105.224 101.41 105.275 102.372 105.843C101.998 105.52 101.878 105.043 101.837 104.631C101.864 105.688 102.038 105.482 100.929 105.314C100.689 105.275 100.395 105.714 100.234 105.623C100.127 105.559 100.034 105.495 99.967 105.404C99.5262 104.888 99.7666 103.999 100.648 103.715C100.969 103.612 101.37 103.586 101.864 103.689C101.851 103.87 101.851 104.025 101.837 104.166C101.851 103.921 101.891 103.754 101.904 103.741C103.548 101.356 106.26 105.314 104.576 106.139C106.18 105.752 108.571 108.473 105.325 109.492C104.763 109.672 104.376 109.621 104.095 109.466C104.322 109.775 104.443 110.123 104.416 110.471C104.71 109.969 105.258 109.582 106.139 109.492C106.193 109.492 107.075 109.891 107.462 110.575C107.315 110.214 107.088 109.956 106.901 109.788C106.5 109.414 106.019 109.401 106.019 109.298C106.019 109.247 106.447 109.105 106.701 108.782C106.968 108.434 107.075 107.88 107.088 107.88C108.384 108.035 108.384 110.497 107.449 110.562C107.649 110.923 107.716 111.374 107.435 111.877C105.725 115.062 103.788 112.805 104.176 111.026C103.935 111.361 103.508 111.671 102.799 111.89C100.809 112.522 100.916 110.33 100.929 110.227C100.942 110.123 100.956 110.033 100.969 109.943C100.822 110.278 100.475 110.575 99.8334 110.781C98.2035 111.297 97.6423 109.143 97.6423 109.066C97.8962 106.462 101.129 108.176 101.036 109.646C101.463 108.176 102.813 108.318 103.668 109.015C103.401 108.512 103.427 107.88 103.441 107.828C103.534 106.926 103.868 106.436 104.309 106.217C104.002 106.294 103.614 106.294 103.107 106.191C102.933 106.152 102.786 106.101 102.652 106.023C103.628 106.758 104.002 107.996 101.944 108.486C100.902 108.731 100.301 108.022 99.9938 107.441C100.114 107.79 100.234 107.983 100.167 108.035C100.114 108.073 99.4326 107.686 98.8715 107.635C98.5108 107.609 98.2035 107.931 98.15 107.893C97.8294 107.712 97.6691 107.416 97.6691 107.106C97.6691 106.694 97.9229 106.268 98.444 106.049C98.5241 106.01 98.6177 105.984 98.7112 105.959Z" fill="#ED6857"/>
</svg>
