<svg width="700" height="1024" viewBox="0 0 700 1024" fill="none" xmlns="http://www.w3.org/2000/svg">
<rect width="700" height="1024" fill="#FFE0E0"/>
<path d="M560.32 1089.88C499.653 1081.54 431.731 1062.39 436.079 995.446C439.223 947.032 494.458 940.795 510.831 894.286C523.453 858.433 498.678 819.622 506.333 774.415C517.338 709.423 604.746 682.553 670.359 704.217C731.977 724.561 779.261 817.895 785.76 851.027C795.91 902.764 773.018 949.915 740.651 1002.2C697.394 1072.07 633.472 1099.94 560.32 1089.88Z" fill="#EBF5CA"/>
<path d="M730.816 96.0144C776.912 119.275 824.552 153.761 793.923 210.217C771.773 251.044 724.209 241.768 692.044 277.448C667.247 304.953 671.749 344.918 647.219 381.79C611.953 434.798 529.807 434.746 485.068 398.708C443.053 364.865 442.254 272.015 450.357 241.782C463.01 194.57 500.752 160.066 548.295 123.659C611.835 75.0008 675.234 67.9658 730.816 96.0144Z" fill="#FFF2CC"/>
<path opacity="0.8" d="M-65.8494 329.546C-10.8069 283.943 59.3334 242.598 114 312.727C153.533 363.442 115.421 418.652 142.877 479.225C164.042 525.919 217.243 542.342 250.439 593.886C298.163 667.989 252.601 772.185 182.099 808.991C115.89 843.556 -2.35977 793.145 -36.2315 766.12C-89.1249 723.918 -112 656.922 -131.862 576.437C-158.407 468.869 -132.221 384.534 -65.8494 329.546Z" fill="#E3D7F2"/>
</svg>
