<svg width="285" height="190" viewBox="0 0 285 190" fill="none" xmlns="http://www.w3.org/2000/svg">
<rect width="285" height="190" fill="#C84EE1"/>
<path d="M92.2103 124.017C95.8769 140.133 138.603 165.535 158.586 148.497C178.578 131.467 172.338 103.927 167.814 75.1995C167.814 75.1995 164.335 61.2031 148.972 68.5215C126.199 79.3814 88.7322 108.721 92.2103 124.017ZM135.785 81.9528C142.6 70.669 163.129 68.9454 163.129 68.9454C163.129 68.9454 174.242 87.2179 160.282 99.1138C146.323 111.01 128.97 93.2365 135.785 81.9528Z" fill="#FF8F9D"/>
<path d="M167.22 73.5418C167.446 74.0881 167.644 74.6438 167.786 75.209C171.33 101.563 177.72 128.99 159.632 146.321C152.318 152.462 142.77 156.578 124.258 149.627C108.319 143.608 92.3331 129.989 93.0118 121.832C92.5405 105.057 140.347 70.2264 154.062 67.0617L155.042 66.845C155.419 66.8827 163.176 64.8012 167.22 73.5418C164.873 67.9094 160.462 65.3569 153.939 66.4965C139.952 69.2845 90.7402 103.107 91.0229 121.813C89.8259 137.232 135.776 167.918 159.368 149.052C159.745 148.525 170.132 141.188 172.451 123.81C174.657 107.365 168.332 75.9719 167.22 73.5418Z" fill="#FFC392"/>
<path d="M163.129 68.9453C143.571 69.9249 125.643 81.8774 136.379 96.6084C150.555 116.52 179.388 94.0936 163.129 68.9453C174.628 92.4265 155.504 108.203 142.581 99.5942C129.31 91.1361 133.108 73.8055 163.129 68.9453Z" fill="#FFC392"/>
<path d="M134.56 52.001C139.744 59.4983 151.677 63.9063 160.858 65.5075L162.149 65.6959L162.799 65.7807L163.129 65.8089L163.289 65.8278L163.374 65.8372C163.336 65.8184 163.553 65.8937 163.676 65.8655C163.827 65.8466 163.949 65.7713 164.025 65.7148C160.217 35.3391 146.596 35 146.596 35C141.13 35.7535 124.333 35.0659 134.56 52.001ZM141.45 45.8976C142.053 44.918 146.87 43.929 146.974 43.9008C146.86 43.9196 148.114 43.6182 149.066 43.7124C151.234 43.9385 154.071 45.5962 154.882 47.3669C157.681 52.7639 158.954 56.5879 162.827 64.1607C163.308 64.4715 138.17 52.698 141.45 45.8976Z" fill="#FFCB97"/>
<path d="M164.194 65.63C155.654 61.627 145.107 59.9222 135.653 61.627C129.649 62.5406 112.956 69.9061 108.394 72.7318C108.272 72.826 107.951 73.0803 108.064 72.9861C107.961 73.0803 107.668 73.3534 107.772 73.2592L114.182 79.4945L114.021 79.6452L113.974 79.6923L113.927 79.73C113.823 79.8053 113.984 79.551 116.057 78.1194C119.931 75.5103 132.147 67.8905 136.869 66.4965C145.22 63.7462 155.306 64.0194 163.761 66.6378L164.194 65.63Z" fill="#DDAC80"/>
<path d="M167.87 71.7994C173.356 79.2591 179.982 91.513 178.917 100.725L183.036 101.054C183.262 90.7406 175.533 78.7881 168.709 71.1118L167.87 71.7994Z" fill="#DDAC80"/>
<path d="M164.1 67.1182C164.279 68.3709 174.808 81.7268 182.537 84.4771C183.375 84.8538 184.422 85.0422 185.43 85.2306C191.02 85.758 194.894 81.0015 195.6 75.3314C197.297 61.1467 180.105 52.0858 165.212 65.8843C164.194 66.7791 164.166 66.9015 164.1 67.1182ZM165.561 67.2595C178.248 60.1294 184.629 63.8781 184.629 63.8781C194.573 68.8042 191.123 83.1961 183.979 80.314C178.088 78.5715 167.653 69.0961 165.561 67.2595Z" fill="#FFCB97"/>
<path d="M161.734 66.9486C161.857 69.4352 163.695 71.3566 165.835 71.253C167.974 71.1494 169.605 69.0396 169.473 66.5624C169.35 64.0759 167.512 62.1544 165.373 62.258C163.242 62.3617 161.612 64.4621 161.734 66.9486Z" fill="#DDAC80"/>
<path d="M125.361 126.57L134.805 119.958L144.023 126.89L140.64 115.87L150.084 109.258L138.557 109.06L135.182 98.0402L131.431 108.938L119.903 108.74L129.112 115.672L125.361 126.57Z" fill="#F7E8A1"/>
<path d="M133.25 137.279L138.01 139.577L137.284 144.814L140.951 140.999L145.711 143.298L143.213 138.645L146.87 134.83L141.667 135.763L139.169 131.11L138.453 136.337L133.25 137.279Z" fill="#F7E8A1"/>
<path d="M110.864 118.639L115.464 117.839L117.641 121.964L118.301 117.349L122.901 116.548L118.716 114.495L119.376 109.889L116.124 113.233L111.939 111.179L114.116 115.295L110.864 118.639Z" fill="#F7E8A1"/>
<path d="M128.151 121.427L127.407 123.593L129.282 122.284C129.433 122.181 129.584 122.407 129.433 122.51L126.879 124.3L127.897 121.352C127.953 121.163 128.208 121.257 128.151 121.427Z" fill="white"/>
<path d="M137.002 120.316C136.898 120.325 136.898 120.268 134.825 118.724C132.826 120.061 132.647 120.4 132.496 120.184C132.346 119.976 132.685 119.958 134.825 118.385C135.739 119.176 137.671 120.278 137.002 120.316Z" fill="white"/>
<path d="M140.254 122.463L142.082 123.838C141.526 121.851 141.253 121.559 141.498 121.484C141.743 121.389 141.668 121.757 142.582 124.554L140.084 122.68C139.952 122.567 140.112 122.35 140.254 122.463Z" fill="white"/>
<path d="M139.745 115.277C140.404 117.622 140.668 117.867 140.414 117.942C140.188 118.027 140.273 117.81 139.424 115.173C141.573 113.732 141.762 113.383 141.913 113.6C142.054 113.798 141.715 113.826 139.745 115.277Z" fill="white"/>
<path d="M144.947 111.471C144.797 111.264 145.174 111.208 146.861 109.974C144.768 109.889 144.438 110.049 144.438 109.795C144.448 109.531 144.665 109.719 147.7 109.71L145.145 111.5C145.07 111.547 144.985 111.528 144.947 111.471Z" fill="white"/>
<path d="M140.593 109.861L137.793 109.814C137.077 107.289 136.813 107.035 137.058 106.969C137.294 106.875 137.237 107.271 137.991 109.55C138.858 109.578 141.403 109.493 140.593 109.861Z" fill="white"/>
<path d="M135.965 103.418C135.955 103.418 135.946 103.428 135.937 103.428C135.88 103.428 135.814 103.39 135.805 103.333L135.135 101.148L134.391 103.315C134.362 103.381 134.287 103.418 134.221 103.399C134.155 103.371 134.117 103.296 134.136 103.23L135.154 100.282L136.068 103.268C136.078 103.324 136.04 103.399 135.965 103.418Z" fill="white"/>
<path d="M129.245 109.531C129.254 109.277 129.471 109.456 131.987 109.446C132.826 107.157 132.76 106.818 133.005 106.894C133.26 106.979 132.968 107.261 132.176 109.719C129.509 109.616 129.235 109.785 129.245 109.531Z" fill="white"/>
<path d="M125.531 109.465C125.521 109.719 125.239 109.54 123.099 109.559L124.928 110.934C125.069 111.038 124.909 111.255 124.767 111.151L122.27 109.277C125.276 109.38 125.54 109.211 125.531 109.465Z" fill="white"/>
<path d="M130.036 115.116L127.953 113.543C127.812 113.44 127.972 113.223 128.113 113.327L130.356 115.013C129.423 117.565 129.518 117.82 129.273 117.744C129.197 117.725 129.301 117.405 130.036 115.116Z" fill="white"/>
<path d="M133.806 136.751L131.553 137.156C133.391 138.098 133.787 138.098 133.674 138.334C133.561 138.569 133.391 138.287 130.686 137.034L133.759 136.478C133.948 136.459 133.976 136.723 133.806 136.751Z" fill="white"/>
<path d="M137.322 139.944C136.907 142.657 137.03 142.827 136.813 142.836C136.804 142.836 136.794 142.836 136.785 142.836C136.53 142.798 136.747 142.488 137.021 140.105C134.853 138.993 134.494 139.021 134.608 138.786C134.645 138.72 134.947 138.852 137.322 139.944Z" fill="white"/>
<path d="M136.766 144.013L136.455 146.283L138.038 144.635C138.161 144.503 138.359 144.691 138.236 144.823L136.078 147.074L136.502 143.985C136.521 143.806 136.785 143.834 136.766 144.013Z" fill="white"/>
<path d="M140.885 141.668C143.26 142.883 143.58 142.836 143.477 143.071C143.364 143.307 143.166 143.015 140.951 141.998C139.132 143.872 139.103 144.023 138.952 143.881C138.764 143.703 139.075 143.627 140.885 141.668Z" fill="white"/>
<path d="M146.654 144.456C145.721 142.61 145.4 142.374 145.626 142.252C145.862 142.13 145.815 142.431 147.285 145.059C144.608 143.703 144.297 143.75 144.41 143.524C144.523 143.288 144.769 143.599 146.654 144.456Z" fill="white"/>
<path d="M145.767 136.977L143.958 138.861C145.061 141.028 145.362 141.216 145.136 141.338C145.07 141.376 144.985 141.348 144.957 141.282C144.9 141.178 143.552 138.654 143.637 138.814L145.579 136.789C145.692 136.657 145.89 136.846 145.767 136.977Z" fill="white"/>
<path d="M146.475 136.036C146.286 135.857 146.644 135.734 148.058 134.189L145.806 134.595C145.626 134.623 145.579 134.359 145.758 134.331L148.831 133.775L146.673 136.026C146.616 136.083 146.531 136.083 146.475 136.036Z" fill="white"/>
<path d="M141.761 135.329C140.583 133.022 140.263 132.796 140.489 132.673C140.715 132.551 140.706 132.909 141.903 135.028C144.269 134.66 144.58 134.425 144.627 134.679C144.674 134.924 144.344 134.802 141.761 135.329Z" fill="white"/>
<path d="M138.576 128.821C139.943 131.486 140.225 131.637 139.999 131.75C139.773 131.872 139.773 131.505 138.736 129.678C138.397 131.807 138.51 132.051 138.293 132.061C138.284 132.061 138.274 132.061 138.265 132.061C138.01 132.033 138.227 131.788 138.576 128.821Z" fill="white"/>
<path d="M137.624 135.791C138.001 133.427 137.878 133.05 138.133 133.097C138.208 133.106 138.255 133.172 138.246 133.248C138.227 133.361 137.841 136.205 137.86 136.026L135.098 136.525C134.118 136.243 136.917 135.979 137.624 135.791Z" fill="white"/>
<path d="M111.373 117.481C111.552 117.659 111.213 117.763 109.78 119.317L112.033 118.922C112.212 118.893 112.25 119.157 112.08 119.185L109.007 119.722C111.156 117.594 111.194 117.302 111.373 117.481Z" fill="white"/>
<path d="M115.2 118.375C116.36 120.692 116.68 120.918 116.454 121.041C116.228 121.154 116.265 120.862 115.05 118.677C112.655 119.035 112.373 119.27 112.326 119.016C112.278 118.752 112.599 118.884 115.2 118.375Z" fill="white"/>
<path d="M117.773 123.235C118.122 121.144 118 120.824 118.254 120.852C118.509 120.89 118.292 121.135 117.924 124.093C116.576 121.418 116.294 121.276 116.52 121.154C116.746 121.031 116.755 121.427 117.773 123.235Z" fill="white"/>
<path d="M118.264 120.721C118 120.683 118.235 120.353 118.546 117.791C121.11 117.405 121.421 117.17 121.468 117.424C121.515 117.669 121.185 117.556 118.791 118.027C118.386 120.551 118.509 120.711 118.292 120.721C118.282 120.721 118.273 120.721 118.264 120.721Z" fill="white"/>
<path d="M123.966 116.849L121.911 115.842C121.751 115.766 121.864 115.521 122.034 115.597L124.842 116.972C121.657 117.528 121.647 117.594 121.609 117.396C121.553 117.151 121.939 117.254 123.966 116.849Z" fill="white"/>
<path d="M119.036 114.429L119.432 111.65C119.46 111.471 119.724 111.509 119.705 111.688L119.338 114.269C121.506 115.39 121.854 115.371 121.741 115.597C121.609 115.842 121.279 115.456 119.036 114.429Z" fill="white"/>
<path d="M119.63 111.405C119.461 110.416 119.508 111.584 119.819 108.985C118.33 110.445 118.217 110.812 118.028 110.633C117.84 110.454 118.151 110.388 120.205 108.203C119.725 111.227 119.847 111.396 119.63 111.405Z" fill="white"/>
<path d="M115.982 112.931C113.635 111.716 113.286 111.744 113.399 111.518C113.513 111.283 113.71 111.575 115.926 112.602C117.679 110.878 117.745 110.558 117.933 110.727C118.122 110.906 117.782 111 115.982 112.931Z" fill="white"/>
<path d="M111.043 110.511C111.977 112.385 112.288 112.592 112.061 112.715C111.835 112.837 111.845 112.479 110.421 109.898C113.089 111.264 113.4 111.226 113.287 111.452C113.174 111.688 112.938 111.377 111.043 110.511Z" fill="white"/>
<path d="M112.306 112.894L113.617 115.371C111.807 117.113 111.675 117.575 111.467 117.386C111.279 117.207 111.628 117.104 113.287 115.324L112.071 113.016C111.986 112.856 112.222 112.733 112.306 112.894Z" fill="white"/>
</svg>
