<svg width="285" height="190" viewBox="0 0 285 190" fill="none" xmlns="http://www.w3.org/2000/svg">
<rect width="285" height="190" fill="#FFC7E0"/>
<path d="M211.373 71.3355C211.935 72.2922 212.441 73.2488 212.905 74.2124C212.905 74.2124 196.642 94.9477 189.813 95.8628L187.234 93.0274C194.971 89.6929 211.373 71.3355 211.373 71.3355Z" fill="#E14991"/>
<path d="M96.8893 63.4116C96.8893 63.4116 88.0364 66.4064 82.0952 66.6976C75.7935 49.9277 77.3742 36.2082 77.3742 36.2082L77.3048 36.0696C88.2097 30.6206 115.711 25.6014 123.067 24.3189C123.067 24.3189 124.106 43.7716 142.901 49.8099C167.192 57.6229 175.816 38.2741 175.816 38.2741C182.042 42.2187 202.417 55.9105 211.367 71.3355C211.367 71.3355 194.964 89.6929 187.22 93.0274L176.316 81.0341C174.374 97.5752 165.889 134.99 164.932 138.914C164.204 141.895 160.475 135.385 144.46 145.119C131.864 152.772 127.517 165.112 127.517 165.112C113.063 170.201 99.8703 158.36 99.8703 158.36C100.758 122.962 81.4851 119.551 80.8127 115.219C79.8283 108.778 92.3277 75.3078 96.8893 63.4116Z" fill="#F772AE"/>
<path d="M173.986 37.1372C173.986 37.1372 174.652 37.5323 175.823 38.2741C175.823 38.2741 167.192 57.6229 142.908 49.8099C124.113 43.7716 123.073 24.3189 123.073 24.3189C124.252 24.1109 124.918 24 124.918 24C126.048 25.8579 133.341 42.4337 146.623 45.6781C159.906 48.9225 173.986 37.1372 173.986 37.1372Z" fill="#E14991"/>
<path d="M82.0953 66.6976C80.889 66.76 79.7937 66.7045 78.9271 66.4966C73.7762 65.2418 69.8663 43.8133 73.291 38.9813C73.9773 38.0038 75.3846 37.0332 77.3118 36.0696L77.3812 36.2082C77.3812 36.2082 75.7936 49.9277 82.0953 66.6976Z" fill="#E14991"/>
<path d="M164.496 139.177C164.496 139.177 165.3 135.295 166.506 129.472C167.109 126.56 167.809 123.163 168.558 119.524C168.932 117.7 169.321 115.822 169.716 113.915C170.097 112.002 170.492 110.061 170.88 108.113C171.692 104.23 172.42 100.334 173.14 96.6947C173.473 94.8715 173.799 93.1037 174.104 91.426C174.416 89.7552 174.721 88.1677 174.922 86.7049C175.151 85.2421 175.366 83.8972 175.553 82.7048C175.643 82.1155 175.754 81.5332 175.803 81.0549C175.858 80.535 175.907 80.0566 175.948 79.6268C176.135 77.9006 176.239 76.9161 176.239 76.9161V76.9092C176.26 76.7082 176.44 76.5626 176.641 76.5834C176.836 76.6042 176.981 76.7775 176.967 76.9716C176.967 76.9716 176.905 77.963 176.794 79.6961C176.766 80.1329 176.732 80.6112 176.697 81.1312C176.662 81.6927 176.572 82.2265 176.503 82.8365C176.35 84.0428 176.177 85.3947 175.99 86.8782C175.816 88.3618 175.546 89.9563 175.269 91.6409C174.991 93.3255 174.7 95.1002 174.395 96.9443C173.695 100.598 173.002 104.515 172.218 108.404C171.428 112.293 170.61 116.182 169.813 119.815C169.043 123.454 168.225 126.831 167.56 129.735C166.894 132.64 166.27 135.046 165.861 136.73C165.425 138.408 165.175 139.372 165.175 139.372C165.126 139.566 164.925 139.683 164.731 139.635C164.572 139.566 164.461 139.372 164.496 139.177Z" fill="#A0084D"/>
<path d="M98.761 59.7026C98.761 59.7026 97.5131 63.1689 95.6483 68.3614C94.7193 70.9611 93.6309 73.9906 92.4662 77.2351C91.2946 80.4795 90.0814 83.9527 88.8821 87.4259C87.662 90.8922 86.4904 94.3793 85.4297 97.6584C84.9167 99.3014 84.3898 100.882 83.9323 102.393C83.4678 103.898 83.0588 105.333 82.6913 106.657C82.3378 107.988 82.0119 109.201 81.7693 110.283C81.5128 111.364 81.3464 112.314 81.2216 113.097C81.1731 113.485 81.1384 113.839 81.0968 114.137C81.083 114.435 81.0691 114.692 81.0553 114.9C81.076 115.302 81.083 115.51 81.083 115.51V115.565C81.0899 115.766 80.9374 115.939 80.7364 115.946C80.5422 115.953 80.3759 115.815 80.3551 115.621C80.3551 115.621 80.3273 115.378 80.2788 114.913C80.2788 114.692 80.2788 114.414 80.2788 114.089C80.2927 113.77 80.3204 113.402 80.3551 112.986C80.5353 111.357 80.9513 109.069 81.6168 106.373C82.2892 103.683 83.1558 100.563 84.1749 97.2632C85.2079 93.9633 86.3587 90.4554 87.558 86.9684C88.7643 83.4882 90.026 80.0219 91.2253 76.7844C92.4108 73.54 93.6032 70.5452 94.6015 67.9663C95.5998 65.3943 96.4941 63.266 97.0972 61.7686C97.7142 60.2781 98.0677 59.4323 98.0677 59.4323C98.144 59.2451 98.3589 59.155 98.5461 59.2382C98.7402 59.3144 98.8303 59.5224 98.761 59.7026Z" fill="#A0084D"/>
<path d="M124.89 71.5851C124.89 71.5851 121.493 59.0441 115.274 62.8223C109.056 66.6005 112.987 86.6564 121.68 86.5316C130.374 86.4069 142.034 75.4534 138.374 69.4221C134.713 63.3977 124.89 71.5851 124.89 71.5851Z" fill="#DF3A79"/>
<path d="M120.162 73.332C120.328 72.8329 120.065 72.2922 119.566 72.1258C119.067 71.9525 118.526 72.2228 118.353 72.722C118.186 73.2211 118.45 73.7619 118.949 73.9352C119.448 74.0946 119.996 73.8312 120.162 73.332Z" fill="#3D0010"/>
<path d="M130.02 76.7221C130.193 76.2229 129.923 75.6822 129.424 75.5158C128.925 75.3425 128.384 75.6129 128.21 76.112C128.044 76.6111 128.308 77.1519 128.807 77.3252C129.313 77.4846 129.853 77.2143 130.02 76.7221Z" fill="#3D0010"/>
<path d="M121.382 74.9265C121.382 74.9335 121.403 75.0167 121.451 75.2039C121.5 75.3841 121.576 75.6336 121.687 75.904C121.749 76.0357 121.812 76.1813 121.895 76.313C121.971 76.4517 122.068 76.5696 122.172 76.6805C122.276 76.7914 122.394 76.8746 122.519 76.9508C122.581 76.9855 122.658 77.0132 122.72 77.0479C122.796 77.0756 122.872 77.0825 122.949 77.1172L122.963 77.1241C122.845 77.1033 122.928 77.1172 122.907 77.1172H122.921L122.963 77.1241L123.046 77.138L123.212 77.1657C123.261 77.1519 123.295 77.1588 123.365 77.1519C123.503 77.1311 123.656 77.1033 123.795 77.034C124.086 76.9092 124.37 76.7082 124.606 76.5141C124.841 76.32 125.028 76.1328 125.16 75.9941C125.285 75.8624 125.361 75.7862 125.361 75.7862L125.382 75.7654C125.528 75.6198 125.763 75.6198 125.909 75.7584C126.013 75.8555 126.041 76.0011 126.006 76.1328C126.006 76.1328 125.964 76.2645 125.874 76.4655C125.784 76.6666 125.639 76.9439 125.41 77.2559C125.292 77.4084 125.16 77.5748 124.987 77.7342C124.814 77.8937 124.626 78.0601 124.384 78.1848C124.148 78.3235 123.871 78.4275 123.566 78.4899C123.413 78.5176 123.212 78.5176 123.039 78.5245L122.866 78.5037L122.782 78.4968L122.741 78.4899L122.658 78.476L122.63 78.4691C122.339 78.3997 122.054 78.2819 121.791 78.1224C121.535 77.956 121.313 77.7481 121.146 77.5193C120.807 77.0687 120.668 76.5904 120.606 76.2021C120.543 75.807 120.557 75.4881 120.585 75.2662C120.612 75.0513 120.647 74.9057 120.647 74.9127C120.654 74.7116 120.827 74.5522 121.028 74.5591C121.236 74.5522 121.389 74.7255 121.382 74.9265Z" fill="#3D0010"/>
<path d="M138.124 93.5474C138.124 93.5474 137.341 88.1885 141.701 88.6044C146.062 89.0204 144.46 93.9009 144.46 93.9009C144.46 93.9009 147.136 90.2544 150.415 92.757C153.695 95.2597 150.048 98.9131 150.048 98.9131C150.048 98.9131 155.206 98.3863 155.76 102.74C156.322 107.094 151.643 107.329 151.643 107.329C151.643 107.329 155.081 109.465 152.502 112.73C149.923 115.995 147.046 112.536 147.046 112.536C147.046 112.536 147.719 116.744 144.495 117.687C141.285 118.629 139.081 114.962 139.081 114.962C139.081 114.962 137.576 119.135 133.361 116.806C129.146 114.477 131.892 109.846 131.892 109.846C131.892 109.846 126.935 111.988 125.784 107.981C124.793 104.522 128.571 103.087 128.571 103.087C128.571 103.087 125.396 100.868 127.115 97.7138C129.306 93.7068 132.176 96.0778 132.176 96.0778C132.176 96.0778 130.373 93.3324 133.375 91.5022C135.871 89.984 138.124 93.5474 138.124 93.5474Z" fill="#DF3A79"/>
<path d="M150.201 105.887C151.483 100.646 148.266 95.3637 143.032 94.0812C137.791 92.8056 132.509 96.0153 131.226 101.249C129.951 106.49 133.16 111.773 138.401 113.056C143.636 114.338 148.918 111.128 150.201 105.887Z" fill="#FFEF00"/>
<path d="M137.563 101.236C137.673 100.778 137.396 100.32 136.939 100.21C136.481 100.099 136.024 100.376 135.913 100.833C135.802 101.291 136.079 101.749 136.537 101.859C136.994 101.97 137.452 101.686 137.563 101.236Z" fill="#44000E"/>
<path d="M145.951 103.01C146.062 102.553 145.785 102.095 145.327 101.984C144.869 101.873 144.412 102.151 144.301 102.608C144.19 103.066 144.467 103.523 144.925 103.634C145.382 103.745 145.84 103.468 145.951 103.01Z" fill="#44000E"/>
<path d="M148.253 107.683C148.585 106.331 147.753 104.965 146.402 104.639C145.05 104.307 143.684 105.139 143.358 106.49C143.025 107.842 143.857 109.208 145.209 109.534C146.554 109.86 147.92 109.035 148.253 107.683Z" fill="#ED88A0"/>
<path d="M137.181 104.979C137.514 103.627 136.682 102.262 135.33 101.936C133.978 101.603 132.613 102.435 132.28 103.787C131.947 105.139 132.779 106.504 134.131 106.83C135.49 107.156 136.849 106.331 137.181 104.979Z" fill="#ED88A0"/>
<path d="M139.123 102.296C139.123 102.296 139.136 102.386 139.171 102.511C139.199 102.65 139.282 102.837 139.372 103.045C139.428 103.149 139.497 103.246 139.566 103.357C139.656 103.447 139.746 103.544 139.844 103.641C139.961 103.71 140.072 103.801 140.197 103.87C140.336 103.918 140.481 103.96 140.613 104.016C140.772 104.036 140.932 104.064 141.084 104.085C141.244 104.092 141.341 104.05 141.473 104.043C141.597 104.009 141.722 103.96 141.84 103.925C141.951 103.856 142.055 103.801 142.152 103.731C142.332 103.586 142.478 103.447 142.568 103.336C142.651 103.232 142.7 103.17 142.7 103.17L142.714 103.149C142.776 103.073 142.894 103.059 142.97 103.121C143.033 103.17 143.053 103.253 143.026 103.322C143.026 103.322 142.991 103.419 142.915 103.572C142.831 103.717 142.707 103.925 142.506 104.14C142.395 104.237 142.263 104.341 142.131 104.445C141.972 104.515 141.812 104.619 141.625 104.674C141.431 104.702 141.188 104.757 141.008 104.75L140.752 104.723L140.62 104.709L140.558 104.702H140.523H140.509L140.461 104.695H140.454H140.447C140.253 104.626 140.072 104.549 139.885 104.473C139.712 104.369 139.559 104.244 139.407 104.126C139.275 103.988 139.164 103.835 139.067 103.697C138.998 103.537 138.921 103.392 138.873 103.26C138.783 102.976 138.762 102.74 138.755 102.567C138.755 102.386 138.769 102.303 138.769 102.303V102.296C138.79 102.192 138.88 102.13 138.984 102.144C139.053 102.165 139.109 102.22 139.123 102.296Z" fill="#44000E"/>
<path d="M87.9464 108.154C86.9481 108.612 86.0816 110.151 85.4923 111.017C84.8961 111.891 84.286 112.73 83.9533 113.742C83.6829 114.567 84.7713 115.378 85.4784 114.858C86.3381 114.234 87.0452 113.472 87.7939 112.723C88.6327 111.884 89.7766 110.92 90.1856 109.79C90.6917 108.411 88.9794 107.69 87.9464 108.154Z" fill="#E561A3"/>
<path d="M92.3554 111.149C92.2583 111.073 92.1613 111.004 92.0642 110.927C91.5304 110.56 90.7887 110.775 90.3588 111.177C89.6725 111.822 89.2011 112.674 88.6604 113.437C88.1681 114.13 87.6759 114.816 87.2323 115.544C86.6222 116.543 87.981 117.347 88.7643 116.681C90.0815 115.565 91.7939 114.401 92.605 112.848C92.8823 112.335 92.8545 111.537 92.3554 111.149Z" fill="#E561A3"/>
<path d="M96.0227 117.291C96.0505 116.633 95.4335 116.224 94.8511 116.189C93.9638 116.127 93.2982 116.751 92.6812 117.305C92.0781 117.846 91.4958 118.373 90.9828 119.011C90.2202 119.953 91.2393 121.465 92.3623 120.737C93.7073 119.877 95.9534 119.142 96.0227 117.291Z" fill="#E561A3"/>
<path d="M98.8028 121.028C97.9293 120.979 97.139 121.652 96.3764 122.026C95.7733 122.324 95.1147 122.574 94.463 122.74C93.2845 123.038 93.6796 124.688 94.7819 124.737C95.5999 124.772 96.4041 124.661 97.2014 124.494C98.2343 124.279 99.4614 124.016 100.016 123.038C100.557 122.075 99.7941 121.083 98.8028 121.028Z" fill="#E561A3"/>
<path d="M101.25 125.756C100.931 125.486 100.577 125.292 100.141 125.354C99.7109 125.416 99.3781 125.555 98.9829 125.728C98.5739 125.909 98.1788 126.13 97.7975 126.359C97.1805 126.72 96.9933 127.552 97.3607 128.162C97.7281 128.765 98.5531 128.98 99.1632 128.598C99.4821 128.397 99.801 128.21 100.134 128.037C100.161 128.023 100.369 127.926 100.328 127.947C100.466 127.891 100.612 127.836 100.751 127.766C101.063 127.614 101.319 127.399 101.451 127.073C101.624 126.643 101.652 126.096 101.25 125.756Z" fill="#E561A3"/>
<path d="M103.552 132.744C103.517 131.524 102.123 131.42 101.257 131.753C100.681 131.974 100.113 132.217 99.5237 132.404C99.0246 132.564 98.678 133.021 98.6988 133.548C98.7126 134.117 99.2672 134.768 99.8912 134.671C100.501 134.574 101.104 134.442 101.707 134.304C102.539 134.131 103.579 133.805 103.552 132.744Z" fill="#E561A3"/>
<path d="M103.045 137.444C102.865 137.451 102.699 137.5 102.532 137.548C102.117 137.278 101.59 137.222 101.118 137.507C100.55 137.853 100.224 138.761 100.675 139.337C101.132 139.926 101.624 140.176 102.366 140.217C102.9 140.245 103.628 139.995 104.002 139.614C104.792 138.789 104.169 137.41 103.045 137.444Z" fill="#E561A3"/>
<path d="M104.439 145.264C103.968 144.259 102.373 144.335 101.597 144.897C101.181 145.202 100.945 145.673 101.098 146.193C101.257 146.734 101.943 147.205 102.512 146.956C102.546 146.942 102.623 146.921 102.671 146.907C103.136 147.004 103.663 147.081 104.065 146.769C104.585 146.373 104.716 145.853 104.439 145.264Z" fill="#E561A3"/>
<path d="M103.94 150.852C103.357 150.311 102.643 150.173 101.902 149.985C101.299 149.833 100.675 150.221 100.529 150.817C100.383 151.413 100.758 152.051 101.361 152.19C102.11 152.363 102.81 152.564 103.572 152.356C104.217 152.183 104.432 151.303 103.94 150.852Z" fill="#E561A3"/>
<path d="M126.227 153.978C126.221 153.964 126.214 153.957 126.207 153.943C126.159 153.84 126.138 153.874 126.227 153.978Z" fill="#E561A3"/>
<path d="M129.271 153.708C129.043 153.403 128.793 153.195 128.502 152.952C128.114 152.62 127.587 152.231 127.053 152.224C126.692 152.224 126.304 152.453 126.138 152.779C125.916 153.216 125.985 153.736 126.339 154.082H126.332C126.283 154.048 126.256 154.013 126.228 153.985C126.249 154.027 126.276 154.069 126.304 154.11C126.408 154.297 126.505 154.478 126.63 154.651C127.164 155.386 127.788 156.065 128.793 155.864C129.16 155.788 129.562 155.386 129.604 155.004C129.673 154.491 129.576 154.11 129.271 153.708Z" fill="#E561A3"/>
<path d="M134.055 150.11C133.895 149.576 133.424 149.341 132.98 149.077C132.245 148.654 131.615 148.211 131.095 147.524C130.284 146.47 128.703 147.393 129.32 148.606C129.93 149.805 132.155 152.925 133.757 151.351C134.083 151.025 134.187 150.561 134.055 150.11Z" fill="#E561A3"/>
<path d="M138.679 144.328C138.006 143.559 137.202 142.928 136.474 142.214C136.051 141.798 135.351 141.819 134.942 142.242C134.499 142.699 134.589 143.323 134.97 143.774C135.629 144.55 136.315 145.313 137.036 146.027C137.493 146.477 138.263 146.457 138.707 145.999C139.185 145.507 139.102 144.814 138.679 144.328Z" fill="#E561A3"/>
<path d="M143.85 140.384C143.178 139.51 142.256 138.872 141.59 137.999C140.814 136.98 139.303 137.874 139.885 139.032C140.391 140.037 141.098 141.16 141.923 141.923C142.332 142.304 142.942 142.387 143.428 142.089C143.968 141.763 144.266 140.917 143.85 140.384Z" fill="#E561A3"/>
<path d="M148.315 137.146C147.67 136.64 147.324 136.002 147.206 135.177C147.13 134.63 146.762 134.172 146.159 134.193C145.611 134.207 145.147 134.685 145.175 135.24C145.244 136.703 145.75 138.103 146.956 138.99C148.003 139.753 149.334 137.95 148.315 137.146Z" fill="#E561A3"/>
<path d="M154.818 136.446C154.748 135.579 154.166 134.949 153.681 134.269C153.265 133.687 152.849 133.098 152.35 132.592C151.553 131.78 150.041 132.938 150.769 133.853C151.15 134.325 151.428 134.817 151.643 135.385C151.969 136.238 152.17 137.042 152.953 137.583C153.736 138.124 154.887 137.347 154.818 136.446Z" fill="#E561A3"/>
<path d="M158.444 134.942C158.312 134.2 158.18 133.472 157.896 132.765C157.3 131.274 155.019 131.884 155.47 133.486C155.643 134.11 155.712 134.734 155.705 135.378C155.698 136.113 155.587 136.89 156.031 137.534C156.593 138.332 157.924 138.477 158.409 137.493C158.825 136.647 158.603 135.822 158.444 134.942Z" fill="#E561A3"/>
<path d="M84.5703 36.8252C84.4871 36.5756 84.3762 36.4023 84.2029 36.2151C83.7384 35.7229 83.0521 35.7646 82.4906 36.028C81.8736 36.3122 81.312 36.6797 80.7228 37.0193C80.1681 37.3382 79.6135 37.6225 79.1629 38.0869C78.539 38.7247 79.0936 39.5705 79.8493 39.6468C80.5079 39.7092 81.1387 39.5428 81.7626 39.3695C82.5322 39.1615 83.2878 38.8911 83.9464 38.4336C84.4663 38.08 84.7783 37.4422 84.5703 36.8252Z" fill="#E561A3"/>
<path d="M84.078 41.9484C84.1196 41.4908 83.669 40.9501 83.2184 40.8877C82.3587 40.7629 81.8527 41.0887 81.1525 41.5047C80.7851 41.7196 80.5355 41.7057 80.3552 41.5532C79.3916 40.7144 78.1992 42.0038 78.9964 42.9536C79.6481 43.7301 80.376 44.1321 81.402 44.1599C82.7054 44.1945 83.9671 43.2309 84.078 41.9484Z" fill="#E561A3"/>
<path d="M83.5234 47.3973C82.9272 46.7179 82.0398 46.8358 81.2218 46.9467C80.3483 47.0646 79.4679 47.1825 78.5944 47.2934C77.804 47.3904 77.5129 48.7076 78.4349 48.8116C79.2876 48.9087 80.1403 49.0057 80.993 49.1166C81.8873 49.2276 82.8856 49.4216 83.5442 48.6591C83.8769 48.257 83.8561 47.7786 83.5234 47.3973Z" fill="#E561A3"/>
<path d="M83.7938 51.855C83.3224 51.3212 82.6985 51.4876 82.0745 51.5846C81.4645 51.6748 80.8613 51.7163 80.2443 51.6193C79.3154 51.4737 78.9687 52.7909 79.8977 53.0474C80.5494 53.2276 81.2218 53.3108 81.8943 53.3663C82.6707 53.4287 83.468 53.5049 83.9255 52.7701C84.1127 52.472 84.0087 52.1045 83.7938 51.855Z" fill="#E561A3"/>
<path d="M84.5564 56.7424C84.598 56.2086 84.0573 55.862 83.5998 55.8412C83.0382 55.8134 82.6639 56.2225 82.1994 56.3958C81.9845 56.4721 81.9775 56.4582 81.7626 56.4582C81.9151 56.4582 81.7349 56.4235 81.721 56.4374C81.6517 56.4027 81.5824 56.3611 81.52 56.3195C80.5772 55.6471 79.4402 57.2069 80.3137 57.9418C80.9723 58.4894 81.728 58.6489 82.5668 58.5102C83.5166 58.3508 84.4733 57.7754 84.5564 56.7424Z" fill="#E561A3"/>
<path d="M84.882 61.2278C84.7087 60.6454 84.0294 60.2156 83.4262 60.4444C83.1281 60.5553 82.9063 60.6871 82.629 60.7702C82.5943 60.7772 82.5735 60.7841 82.5527 60.791C82.5458 60.791 82.5389 60.7841 82.5181 60.7841C82.5111 60.7841 82.4834 60.7772 82.4487 60.7633C81.9496 60.4305 81.3326 60.3751 80.875 60.8465C80.466 61.2694 80.4036 62.1082 80.9028 62.5034C81.4296 62.9193 81.9496 63.1342 82.629 63.1412C83.1974 63.1481 83.9184 62.8985 84.369 62.5658C84.7919 62.2399 85.0415 61.7685 84.882 61.2278Z" fill="#E561A3"/>
<path d="M189.675 87.1139C188.482 86.4831 187.484 85.5749 186.659 84.5142C185.986 83.6477 184.711 84.3964 185.196 85.4016C185.945 86.9545 186.929 88.4311 188.441 89.3254C189.848 90.1573 191.117 87.8765 189.675 87.1139Z" fill="#E561A3"/>
<path d="M193.626 83.8002C193.522 83.71 193.134 83.3357 193.127 83.3288C192.829 83.1624 192.517 83.1555 192.184 83.1347C191.408 83.1 190.61 82.3374 190.056 81.8591C189.203 81.1173 187.893 82.1017 188.496 83.1069C189.314 84.4657 190.638 86.2682 192.468 86.0325C193.162 85.9424 193.598 85.5957 193.827 84.9302C193.966 84.5281 193.883 84.1329 193.626 83.8002Z" fill="#E561A3"/>
<path d="M193.571 83.7239C193.591 83.7515 193.605 83.779 193.626 83.8065C193.667 83.8341 193.667 83.8272 193.571 83.7239Z" fill="#E561A3"/>
<path d="M196.905 80.2507C196.406 79.9526 196.177 80.0358 195.761 79.6337C195.318 79.2039 194.923 78.7394 194.527 78.268C193.862 77.4777 192.392 78.3651 192.787 79.3218C193.397 80.7984 194.562 83.4189 196.628 82.7672C197.793 82.4137 197.924 80.8677 196.905 80.2507Z" fill="#E561A3"/>
<path d="M201.612 76.4378C200.864 75.9941 200.219 75.6198 199.782 74.8225C199.255 73.8589 197.841 74.573 198.091 75.5712C198.375 76.7151 199.228 78.1848 200.371 78.6562C201.009 78.9197 201.73 78.8226 202.098 78.164C202.444 77.547 202.209 76.7844 201.612 76.4378Z" fill="#E561A3"/>
<path d="M205.204 75.0513C204.739 74.0045 203.353 73.1934 202.354 72.7497C201.481 72.3546 200.517 73.4499 201.307 74.164C201.682 74.5037 202.008 74.8642 202.292 75.2801C202.611 75.7307 202.84 76.2368 203.221 76.6389C203.616 77.0548 204.302 77.1034 204.774 76.8122C205.425 76.4101 205.488 75.6891 205.204 75.0513Z" fill="#E561A3"/>
<path d="M208.046 72.5002C207.678 71.1899 206.472 70.4689 205.55 69.5885C204.587 68.6734 203.332 70.0668 204.15 71.0374C204.496 71.4464 204.871 71.8277 205.224 72.2298C205.543 72.5903 205.772 73.0062 206.035 73.4014C206.237 73.7064 206.625 73.9907 207.02 73.9352C207.221 73.9075 207.387 73.8867 207.568 73.7758C207.984 73.4915 208.185 72.9924 208.046 72.5002Z" fill="#E561A3"/>
<path d="M118.346 28.721C118.02 28.6171 117.583 28.6518 117.237 28.6726C116.717 28.7072 116.19 28.6101 115.67 28.6587C114.02 28.8043 114.075 31.2168 115.746 31.2376C116.71 31.2514 118.346 30.8424 118.88 29.9551C119.178 29.449 118.845 28.8805 118.346 28.721Z" fill="#E561A3"/>
<path d="M120.079 32.8113C119.455 32.9915 118.789 33.0401 118.158 33.2203C117.514 33.4006 116.758 33.6224 116.183 33.9621C114.761 34.8078 115.794 36.8599 117.313 36.5063C117.985 36.3538 118.602 35.8755 119.171 35.5011C119.711 35.1475 120.176 34.6137 120.758 34.3364C121.645 33.9205 120.973 32.5548 120.079 32.8113Z" fill="#E561A3"/>
<path d="M122.644 37.4492C121.846 37.9691 121.243 38.5792 120.619 39.2863C119.947 40.0558 118.761 41.269 119.794 42.2742C121.583 44.0074 123.191 39.6815 123.905 38.6693C124.453 37.9067 123.372 36.9778 122.644 37.4492Z" fill="#E561A3"/>
<path d="M127.303 44.0143C126.9 44.7768 126.478 45.5325 126.048 46.2743C125.632 47.0022 125.036 47.7093 125.063 48.5759C125.084 49.2276 125.847 49.6782 126.415 49.3107C127.081 48.8809 127.296 48.1807 127.614 47.4875C128.017 46.607 128.398 45.7197 128.765 44.8254C129.154 43.8618 127.816 43.0437 127.303 44.0143Z" fill="#E561A3"/>
<path d="M133.972 52.0214C133.805 50.9469 133.833 49.8654 133.618 48.7978C133.528 48.3333 133.001 48.0213 132.557 48.0352C131.927 48.056 131.559 48.5551 131.517 49.1374C131.448 50.1357 131.15 51.1133 131.053 52.1115C130.97 52.9019 131.843 53.5466 132.557 53.5258C133.278 53.505 134.096 52.8117 133.972 52.0214Z" fill="#E561A3"/>
<path d="M142.512 55.3559C142.45 55.1064 142.346 54.8706 142.214 54.6488C142.187 54.6003 142.159 54.5448 142.131 54.4894C142.131 54.4755 142.117 54.4408 142.09 54.3715C142.062 54.2883 142.041 54.2121 142.02 54.1289C142.034 54.2467 142.027 54.2328 142.013 54.0734C141.992 53.9209 141.999 53.6228 142.006 53.5465C142.09 52.9018 141.812 52.271 141.133 52.1046C140.467 51.9382 139.892 52.3611 139.691 52.9781C139.289 54.1913 139.344 55.7441 140.266 56.7147C141.258 57.7407 142.831 56.6107 142.512 55.3559Z" fill="#E561A3"/>
<path d="M149.563 54.0596C148.967 52.7008 146.915 53.2207 147.303 54.732C147.428 55.2242 147.414 55.6055 147.344 56.0007C147.213 56.7771 146.977 57.4288 147.414 58.1706C147.719 58.6905 148.433 58.8638 148.946 58.5449C150.339 57.6714 150.138 55.3698 149.563 54.0596Z" fill="#E561A3"/>
<path d="M160.468 57.4565C160.329 56.8672 159.858 56.5622 159.456 56.167C159.282 55.9937 159.144 55.8343 159.06 55.7233C158.991 55.6263 158.929 55.5223 158.866 55.4253C158.852 55.3975 158.845 55.3836 158.832 55.3698C158.832 55.3559 158.825 55.3282 158.804 55.2866C158.617 54.7251 158.027 54.3784 157.445 54.5517C156.835 54.732 156.592 55.3282 156.71 55.9105C156.828 56.5067 157.154 57.0613 157.508 57.5536C157.715 57.8378 157.944 58.1082 158.18 58.3716C158.52 58.7459 158.915 58.8708 159.407 58.9123C160.19 58.9817 160.613 58.1012 160.468 57.4565Z" fill="#E561A3"/>
<path d="M168.537 54.5933C167.92 53.5812 166.776 53.1098 165.958 52.2917C164.891 51.2241 163.366 52.8533 164.35 53.9556C165.043 54.732 165.695 55.5362 166.374 56.3265C167.428 57.5674 169.341 55.9244 168.537 54.5933Z" fill="#E561A3"/>
<path d="M174.18 50.316C173.73 50.0179 173.203 49.8307 172.738 49.5465C172.239 49.2484 171.816 48.8948 171.394 48.4927C170.527 47.6539 169.411 48.9156 170.132 49.803C170.95 50.8082 171.636 52.1254 172.822 52.7493C174.43 53.5882 175.65 51.3004 174.18 50.316Z" fill="#E561A3"/>
<path d="M179.602 44.4164C178.694 43.9519 177.827 43.4805 176.87 43.1061C175.83 42.704 175.158 44.2361 175.872 44.9224C176.524 45.5533 177.161 46.1842 177.862 46.7596C178.479 47.2726 179.352 47.335 179.941 46.7249C180.586 46.0663 180.454 44.8531 179.602 44.4164Z" fill="#E561A3"/>
</svg>
