<svg width="285" height="190" viewBox="0 0 285 190" fill="none" xmlns="http://www.w3.org/2000/svg">
<rect width="285" height="190" fill="#DFC8F7"/>
<path d="M230.287 92.8786C230.171 96.5268 229.94 100.117 229.708 103.592V103.649C229.303 108.803 228.782 113.667 228.202 118.126C227.681 122.296 227.102 126.118 226.581 129.361C226.176 131.677 225.828 133.704 225.539 135.383C224.902 138.915 224.438 140.942 224.438 140.942C193.631 138.278 154.428 112.22 154.428 112.22C138.156 115.636 126.69 114.594 126.69 114.594C126.4 114.826 126.111 115.057 125.821 115.289C117.309 122.354 104.222 127.276 92.756 130.461C91.482 130.808 90.2659 131.156 89.1078 131.445C77.8737 134.341 68.9559 135.615 68.9559 135.615C68.6084 134.63 68.261 133.646 67.9136 132.661C64.6707 123.338 62.2386 114.073 60.3855 105.387C59.4011 100.638 58.5903 96.0056 57.8955 91.6625C56.6794 83.7291 55.9845 76.4907 55.5792 70.2945C55.1159 63.9826 55.0001 58.7709 55.0001 54.9489C55.0001 50.49 55.1159 48 55.1159 48C64.1495 48.2316 72.3145 49.9689 79.6109 52.5168C81.3481 53.0959 83.0275 53.7908 84.6489 54.4278C93.2772 58.076 100.516 62.8244 106.191 67.3412C108.391 69.0785 110.302 70.8157 112.039 72.3792C116.209 76.259 118.988 79.5598 120.32 81.297C121.073 82.2235 121.478 82.8026 121.478 82.8026C139.546 78.0542 153.791 80.8337 156.165 81.4128C156.397 81.4707 156.512 81.5286 156.512 81.5286C157.729 80.4863 159.003 79.5019 160.392 78.5174C161.956 77.3593 163.577 76.259 165.257 75.1588C180.371 65.2565 200.407 56.8599 212.799 52.1694C215.463 51.127 217.837 50.3163 219.632 49.6793C222.527 48.637 224.265 48.0579 224.265 48.0579C229.65 60.1606 230.808 76.9539 230.287 92.8786Z" fill="url(#paint0_radial)"/>
<path d="M71.1566 82.6864L66.9294 67.9199H75.0943L71.1566 82.6864Z" fill="#D8A4A4"/>
<path d="M72.2564 124.96L67.7974 112.394H76.831L72.2564 124.96Z" fill="#D8A4A4"/>
<g opacity="0.7">
<path opacity="0.7" d="M86.7333 99.6547L83.0272 85.1199H92.2345L86.7333 99.6547Z" fill="#D8A4A4"/>
<path opacity="0.7" d="M211.583 92.3576L208.282 76.9541H218.184L211.583 92.3576Z" fill="#D8A4A4"/>
<path opacity="0.7" d="M188.014 81.3548L184.308 67.9202H192.01L188.014 81.3548Z" fill="#D8A4A4"/>
<path opacity="0.7" d="M201.681 128.724L197.685 113.726H208.282L201.681 128.724Z" fill="#D8A4A4"/>
<path opacity="0.7" d="M105.032 118.358L100.4 104.286H109.201L105.032 118.358Z" fill="#D8A4A4"/>
<path opacity="0.7" d="M192.184 104.808L187.609 90.7368H196.411L192.184 104.808Z" fill="#D8A4A4"/>
<path opacity="0.7" d="M174.696 118.648L171.047 106.487L178.344 103.36L174.696 118.648Z" fill="#D8A4A4"/>
<g opacity="0.7">
<path opacity="0.7" d="M95.8827 122.18L92.6978 130.519C91.4238 130.867 90.2077 131.214 89.0496 131.504L86.6174 122.123H95.8827V122.18Z" fill="#D8A4A4"/>
<path opacity="0.7" d="M165.314 75.1587L161.898 84.1923L160.45 78.5173C161.956 77.4171 163.577 76.2589 165.314 75.1587Z" fill="#D8A4A4"/>
<path opacity="0.7" d="M64.439 91.7788L60.3855 105.503C59.401 100.755 58.5903 96.1219 57.8954 91.7788H64.439Z" fill="#D8A4A4"/>
<path opacity="0.7" d="M112.039 72.4958L109.202 82.6876L103.701 67.9211L106.191 67.3999C108.391 69.195 110.302 70.8744 112.039 72.4958Z" fill="#D8A4A4"/>
<path opacity="0.7" d="M60.0959 54.0227L55.5791 70.3527C55.1159 64.0408 55 58.8291 55 55.0071L60.0959 54.0227Z" fill="#D8A4A4"/>
<path opacity="0.7" d="M230.287 92.8787C230.171 96.5269 229.94 100.117 229.708 103.592V103.65L228.839 107.24L225.191 95.0213L230.287 92.8787Z" fill="#D8A4A4"/>
<path opacity="0.7" d="M84.6489 54.486L82.9695 61.6086L79.6108 52.5171C81.3481 53.1541 83.0275 53.849 84.6489 54.486Z" fill="#D8A4A4"/>
<path opacity="0.7" d="M219.748 49.6797L215.984 63.3459L212.915 52.1697C215.579 51.1274 217.895 50.3167 219.748 49.6797Z" fill="#D8A4A4"/>
<path opacity="0.7" d="M228.144 118.184C227.623 122.354 227.044 126.176 226.523 129.418C225.017 124.554 223.28 118.648 223.685 118.358C223.975 118.184 226.002 118.126 228.144 118.184Z" fill="#D8A4A4"/>
</g>
</g>
<path d="M124.084 93.2265C124.084 93.2265 112.097 90.5627 99.1258 95.1953C99.1258 95.1953 115.34 98.6119 125.011 98.4961L124.084 93.2265Z" fill="#841212"/>
<path d="M157.903 93.7474C157.903 93.7474 182.05 92.4734 183.73 93.7474C186.046 95.4846 156.745 98.7853 156.745 98.7853L157.903 93.7474Z" fill="#841212"/>
<path opacity="0.3" d="M225.423 135.441C224.786 138.974 224.322 141 224.322 141C193.515 138.337 154.312 112.278 154.312 112.278C138.04 115.695 126.574 114.652 126.574 114.652C126.284 114.884 125.995 115.116 125.705 115.347C107.638 130.287 68.8397 135.731 68.8397 135.731C68.4923 134.746 68.1449 133.762 67.7974 132.778C78.4525 130.577 118.872 116.158 125.01 103.36C125.01 103.36 139.835 113.784 156.686 105.155C156.686 105.155 161.319 109.035 182.165 121.196C198.669 130.867 214.768 136.484 225.423 135.441Z" fill="url(#paint1_radial)"/>
<path d="M157.844 98.8436C157.034 106.835 154.312 112.336 154.312 112.336C152.922 112.626 151.532 112.915 150.201 113.147C148.811 113.378 147.479 113.61 146.147 113.784C140.704 114.537 136.129 114.826 132.77 114.884C131.612 114.884 130.57 114.884 129.643 114.884C127.616 114.826 126.516 114.768 126.516 114.768C126.227 115 125.937 115.232 125.648 115.463C125.532 112.336 125.184 108.225 124.605 103.94C123.447 94.7322 121.536 84.6562 120.204 81.5292C120.957 82.4557 121.362 83.0348 121.362 83.0348C122.115 82.8032 122.926 82.6294 123.679 82.4557C126.053 81.8766 128.369 81.4713 130.57 81.1238C138.735 79.9078 145.626 80.1973 150.201 80.6606C152.343 80.8922 154.022 81.1238 155.065 81.3555C155.47 81.4713 155.876 81.5292 156.107 81.5871C158.192 87.7253 158.424 93.8056 157.844 98.8436Z" fill="#AA3030"/>
<path d="M130.628 81.0085L126.343 92.3585L123.737 82.3404C126.169 81.7613 128.427 81.356 130.628 81.0085Z" fill="#D8A4A4"/>
<path d="M138.329 103.244L134.565 88.7095H143.831L138.329 103.244Z" fill="#D8A4A4"/>
<path d="M155.122 81.2977L152.343 88.652L150.258 80.6028C152.401 80.8344 154.08 81.0661 155.122 81.2977Z" fill="#D8A4A4"/>
<path d="M153.212 105.098L150.2 113.031C148.811 113.263 147.479 113.494 146.147 113.668L143.946 105.098H153.212Z" fill="#D8A4A4"/>
<path d="M136.476 105.098L132.828 114.768C131.67 114.768 130.628 114.768 129.701 114.768L127.211 105.098H136.476Z" fill="#D8A4A4"/>
<path opacity="0.3" d="M157.845 98.8433C157.034 106.835 154.312 112.336 154.312 112.336C138.04 115.752 126.574 114.71 126.574 114.71C126.285 114.942 125.995 115.173 125.706 115.405C125.59 112.278 125.242 108.166 124.663 103.881C124.895 103.592 125.011 103.476 125.011 103.476C125.011 103.476 133.465 111.351 141.051 111.12C148.521 110.772 155.239 108.398 157.845 98.8433Z" fill="url(#paint2_radial)"/>
<defs>
<radialGradient id="paint0_radial" cx="0" cy="0" r="1" gradientUnits="userSpaceOnUse" gradientTransform="translate(136.437 92.5873) scale(95.7651)">
<stop offset="0.00518176" stop-color="#9E2B2B"/>
<stop offset="0.9948" stop-color="#9D1E27"/>
</radialGradient>
<radialGradient id="paint1_radial" cx="0" cy="0" r="1" gradientUnits="userSpaceOnUse" gradientTransform="translate(146.667 122.193) scale(57.2749)">
<stop offset="0.00518176" stop-color="#9E2B2B"/>
<stop offset="0.9948" stop-color="#9D1E27"/>
</radialGradient>
<radialGradient id="paint2_radial" cx="0" cy="0" r="1" gradientUnits="userSpaceOnUse" gradientTransform="translate(141.294 107.092) scale(13.0889)">
<stop offset="0.00518176" stop-color="#9E2B2B"/>
<stop offset="0.9948" stop-color="#9D1E27"/>
</radialGradient>
</defs>
</svg>
