<svg width="285" height="190" viewBox="0 0 285 190" fill="none" xmlns="http://www.w3.org/2000/svg">
<rect width="285" height="190" fill="#E1CEFA"/>
<path fill-rule="evenodd" clip-rule="evenodd" d="M78.6935 53.4454C79.1309 59.3827 76.9066 55.7119 80.0902 63.5952C81.7778 67.773 85.5728 80.0751 87.9313 82.7617C89.5666 84.6257 95.6556 92.7277 93.2249 87.603C92.5142 86.1094 85.8188 81.1786 84.8123 72.9126C84.2357 68.1856 77.8833 61.53 79.8069 54.4668C79.8144 54.442 78.6687 53.085 78.6935 53.4454Z" fill="#414042"/>
<path fill-rule="evenodd" clip-rule="evenodd" d="M81.8249 56.8279C87.6106 58.237 84.3549 55.4361 91.607 59.8773C95.4517 62.2309 106.959 68.0017 109.22 70.7703C110.786 72.6889 117.774 80.0329 113.125 76.7896C111.768 75.8427 108.007 68.4242 100.02 66.0706C95.4542 64.7236 89.9368 57.3597 82.6525 58.0954C82.6251 58.0979 81.4745 56.7434 81.8249 56.8279Z" fill="#414042"/>
<path fill-rule="evenodd" clip-rule="evenodd" d="M109.3 81.8124C110.754 82.0957 111.641 83.2712 112.173 84.4095C114.847 90.1281 107.702 92.7898 104.796 89.6286C102.348 86.9643 103.725 80.7114 109.3 81.8124Z" fill="#686252"/>
<path fill-rule="evenodd" clip-rule="evenodd" d="M113.686 69.873C115.14 70.1588 116.028 71.3318 116.559 72.4701C119.234 78.1862 112.088 80.8504 109.183 77.6892C106.735 75.0274 108.114 68.7745 113.686 69.873Z" fill="#686252"/>
<path fill-rule="evenodd" clip-rule="evenodd" d="M111.338 87.5831C111.594 87.6328 111.753 87.8416 111.847 88.0429C112.319 89.0569 111.054 89.5266 110.54 88.9674C110.105 88.4952 110.348 87.3868 111.338 87.5831Z" fill="#686252"/>
<path fill-rule="evenodd" clip-rule="evenodd" d="M115.466 75.5867C115.722 75.6364 115.881 75.8451 115.975 76.0464C116.45 77.0605 115.182 77.5302 114.668 76.971C114.233 76.4988 114.479 75.3903 115.466 75.5867Z" fill="#686252"/>
<path fill-rule="evenodd" clip-rule="evenodd" d="M119.825 80.7213C113.249 79.9633 74.1378 41.603 72.4056 40.666C70.7007 40.6089 68.2179 45.3384 72.0228 49.5509C76.5908 54.606 114.949 85.9627 117.675 83.1221C118.883 81.862 121.177 80.8779 119.825 80.7213Z" fill="#414042"/>
<path fill-rule="evenodd" clip-rule="evenodd" d="M151.159 144.884C151.396 145.485 151.572 145.975 151.751 146.375C152.019 147.963 153.433 150.988 154.39 151.06C154.462 151.065 153.841 149.352 153.177 147.826C153.324 147.883 153.488 147.931 153.67 147.975C154.925 149.121 156.96 150.381 157.681 150.031C157.892 149.926 154.773 147.799 153.814 147.058C155.36 147.779 158.051 148.403 158.653 147.779C158.732 147.695 154.497 146.246 153.14 146.146C150.836 142.018 152.062 131.868 150.826 131.61C150.797 131.605 150.019 130.742 149.241 131.205C149.599 135.84 149.544 140.798 151.159 144.884Z" fill="#414042"/>
<path fill-rule="evenodd" clip-rule="evenodd" d="M214.611 63.8959C211.112 65.0018 218.319 135.186 155.906 135.049C128.073 134.987 111.258 116.832 109.757 89.9267C109.086 77.9104 47.1677 58.4506 70.087 45.6465C70.2063 45.5794 85.8586 59.661 87.5138 61.2764C98.5708 72.0625 115.801 86.405 131.834 78.4546C146.686 71.0883 153.182 69.9997 166.734 58.4979C194.845 34.6392 215.27 63.6871 214.611 63.8959Z" fill="#F26339"/>
<path fill-rule="evenodd" clip-rule="evenodd" d="M195.959 109.322C197.838 109.141 199.244 104.99 199.771 103.387C198.086 104.329 193.459 106.702 194.917 108.74C195.149 109.066 195.392 109.377 195.959 109.322ZM196.071 116.154C195.504 116.209 195.26 115.898 195.029 115.572C193.57 113.535 198.198 111.161 199.883 110.219C199.356 111.825 197.949 115.975 196.071 116.154ZM190.367 116.649C192.246 116.467 193.652 112.317 194.179 110.714C192.494 111.656 187.867 114.029 189.326 116.067C189.557 116.39 189.798 116.703 190.367 116.649ZM188.846 122.636C188.282 122.556 188.12 122.193 187.971 121.823C187.037 119.497 192.094 118.286 193.953 117.769C193.063 119.203 190.715 122.904 188.846 122.636ZM183.667 121.922C185.545 121.743 186.952 117.59 187.476 115.987C185.791 116.929 181.166 119.303 182.623 121.341C182.856 121.666 183.1 121.977 183.667 121.922ZM182.62 126.291C182.242 126.12 182.203 125.837 182.175 125.546C181.999 123.734 185.772 123.918 187.176 123.938C186.264 124.758 183.87 126.861 182.62 126.291ZM177.466 124.596C178.716 125.166 181.107 123.063 182.021 122.243C180.617 122.223 176.842 122.039 177.021 123.853C177.048 124.139 177.088 124.425 177.466 124.596ZM176.089 129.995C175.711 129.823 175.671 129.54 175.644 129.251C175.465 127.437 179.24 127.624 180.644 127.643C179.732 128.461 177.339 130.564 176.089 129.995ZM170.793 128.449C170.415 128.277 170.375 127.994 170.348 127.706C170.171 125.891 173.947 126.078 175.348 126.095C174.436 126.913 172.043 129.018 170.793 128.449ZM169.003 131.433C170.082 132.281 172.905 130.805 173.986 130.226C172.627 129.875 169.003 128.802 168.747 130.606C168.705 130.892 168.678 131.18 169.003 131.433ZM164.659 129.338C164.281 129.167 164.242 128.884 164.214 128.593C164.035 126.779 167.813 126.965 169.215 126.985C168.303 127.802 165.909 129.908 164.659 129.338ZM188.466 108.576C189.716 109.146 192.107 107.043 193.021 106.223C191.619 106.205 187.844 106.019 188.021 107.833C188.051 108.122 188.09 108.405 188.466 108.576ZM187.141 112.453C186.738 112.354 186.646 112.083 186.564 111.805C186.05 110.058 189.793 109.533 191.175 109.29C190.429 110.264 188.473 112.779 187.141 112.453ZM181.728 117.506C181.325 117.409 181.233 117.136 181.151 116.857C180.637 115.11 184.38 114.586 185.762 114.34C185.019 115.316 183.063 117.832 181.728 117.506ZM177.506 120.921C177.187 120.844 177.113 120.627 177.048 120.406C176.641 119.02 179.608 118.604 180.704 118.411C180.115 119.186 178.562 121.179 177.506 120.921ZM172.94 124.949C172.622 124.872 172.547 124.656 172.483 124.435C172.075 123.051 175.043 122.633 176.139 122.439C175.55 123.212 173.999 125.208 172.94 124.949ZM164.247 132.795C163.926 132.718 163.854 132.502 163.789 132.281C163.382 130.897 166.349 130.479 167.445 130.285C166.854 131.058 165.303 133.054 164.247 132.795ZM205.703 100.78C205.298 100.862 205.1 100.656 204.906 100.44C203.698 99.0776 206.859 97.0074 208.005 96.1997C207.749 97.3976 207.048 100.507 205.703 100.78ZM201.252 101.295C202.597 101.019 203.298 97.912 203.554 96.7141C202.408 97.5243 199.244 99.5921 200.455 100.954C200.648 101.17 200.847 101.377 201.252 101.295ZM194.577 104.409C194.164 104.359 194.043 104.1 193.928 103.834C193.21 102.159 196.866 101.195 198.205 100.788C197.584 101.846 195.941 104.575 194.577 104.409ZM197.83 98.8565C197.418 98.8067 197.293 98.5483 197.181 98.2824C196.463 96.6073 200.119 95.643 201.459 95.2354C200.837 96.2916 199.192 99.0205 197.83 98.8565ZM206.737 95.3969C208.015 94.8949 208.166 91.7113 208.211 90.486C207.222 91.4826 204.466 94.0673 205.892 95.2006C206.119 95.3795 206.352 95.5485 206.737 95.3969ZM177.294 112.523C176.917 112.352 176.877 112.066 176.847 111.777C176.67 109.963 180.446 110.15 181.847 110.169C180.938 110.987 178.544 113.09 177.294 112.523ZM176.879 115.98C176.559 115.903 176.487 115.687 176.422 115.466C176.014 114.081 178.982 113.664 180.078 113.47C179.489 114.243 177.938 116.236 176.879 115.98ZM189.087 100.673C190.335 101.242 192.728 99.1373 193.642 98.3196C192.238 98.2997 188.463 98.1134 188.642 99.9276C188.669 100.218 188.709 100.502 189.087 100.673ZM188.672 104.13C188.351 104.053 188.279 103.837 188.215 103.616C187.807 102.229 190.774 101.816 191.87 101.62C191.281 102.395 189.728 104.389 188.672 104.13ZM182.252 108.47C181.934 108.392 181.86 108.176 181.795 107.955C181.388 106.571 184.357 106.153 185.451 105.959C184.862 106.732 183.311 108.725 182.252 108.47ZM172.018 120.523C171.7 120.446 171.625 120.23 171.561 120.009C171.153 118.622 174.121 118.207 175.217 118.013C174.628 118.786 173.077 120.779 172.018 120.523ZM158.697 134.249C158.379 134.172 158.304 133.956 158.24 133.735C157.832 132.351 160.799 131.933 161.895 131.739C161.306 132.512 159.756 134.508 158.697 134.249ZM181.062 102.214C180.744 102.137 180.669 101.921 180.605 101.7C180.197 100.315 183.167 99.8978 184.261 99.7039C183.672 100.479 182.118 102.473 181.062 102.214ZM196.215 93.0011C195.894 92.9241 195.822 92.7079 195.757 92.4867C195.35 91.0999 198.317 90.6848 199.413 90.491C198.824 91.2664 197.273 93.2596 196.215 93.0011ZM170.542 114.101C170.221 114.024 170.149 113.808 170.085 113.587C169.677 112.2 172.644 111.785 173.74 111.591C173.149 112.364 171.598 114.357 170.542 114.101ZM164.945 123.565C164.627 123.488 164.552 123.272 164.488 123.051C164.08 121.664 167.047 121.249 168.143 121.055C167.554 121.83 166.004 123.824 164.945 123.565ZM157.705 126.617C158.955 127.186 161.346 125.084 162.258 124.263C160.857 124.246 157.082 124.06 157.258 125.874C157.288 126.162 157.328 126.446 157.705 126.617ZM158.225 129.627C157.899 129.371 157.927 129.085 157.969 128.797C158.225 126.992 161.848 128.068 163.208 128.419C162.127 128.998 159.303 130.477 158.225 129.627ZM151.572 127.507C151.194 127.333 151.154 127.049 151.127 126.761C150.95 124.947 154.723 125.133 156.127 125.153C155.213 125.971 152.822 128.076 151.572 127.507ZM151.157 130.964C150.839 130.887 150.764 130.671 150.699 130.449C150.292 129.063 153.259 128.647 154.355 128.454C153.766 129.229 152.215 131.222 151.157 130.964ZM144.523 131.6C144.205 131.523 144.131 131.307 144.066 131.086C143.659 129.699 146.626 129.284 147.722 129.09C147.133 129.865 145.58 131.858 144.523 131.6ZM150.893 134.381C150.515 134.21 150.476 133.926 150.448 133.635C150.269 131.821 154.047 132.008 155.449 132.027C154.534 132.848 152.143 134.95 150.893 134.381ZM159.09 119.566C158.772 119.489 158.697 119.273 158.632 119.052C158.225 117.665 161.192 117.25 162.288 117.056C161.699 117.832 160.146 119.825 159.09 119.566ZM203.656 90.7967C203.452 90.747 203.405 90.6103 203.365 90.4686C203.106 89.5864 204.995 89.3204 205.694 89.1987C205.318 89.6932 204.329 90.9607 203.656 90.7967ZM209.516 87.9809C209.315 88.0405 209.205 87.9436 209.098 87.8417C208.435 87.2055 209.941 86.0349 210.485 85.5801C210.406 86.1964 210.179 87.7895 209.516 87.9809ZM163.603 111.872C163.399 111.822 163.352 111.685 163.312 111.544C163.054 110.662 164.942 110.396 165.641 110.274C165.266 110.766 164.276 112.036 163.603 111.872ZM174.314 107.331C174.111 107.282 174.063 107.145 174.024 107.003C173.765 106.121 175.654 105.855 176.352 105.733C175.975 106.225 174.988 107.495 174.314 107.331ZM151.723 121.187C151.519 121.137 151.472 121 151.432 120.859C151.174 119.976 153.063 119.71 153.761 119.589C153.386 120.081 152.397 121.351 151.723 121.187ZM138.591 128.461C138.449 128.307 138.487 128.165 138.534 128.026C138.812 127.149 140.527 127.989 141.176 128.277C140.587 128.474 139.056 128.973 138.591 128.461ZM201.29 108.196C200.723 108.251 200.479 107.94 200.246 107.615C198.787 105.574 203.415 103.203 205.1 102.261C204.578 103.864 203.171 108.015 201.29 108.196Z" fill="#F48067"/>
<path fill-rule="evenodd" clip-rule="evenodd" d="M142.525 143.094C142.761 143.696 142.938 144.183 143.117 144.585C143.385 146.174 144.799 149.198 145.756 149.27C145.831 149.275 145.207 147.563 144.541 146.037C144.687 146.094 144.851 146.141 145.033 146.188C146.288 147.334 148.323 148.597 149.044 148.244C149.255 148.139 146.134 146.01 145.177 145.271C146.72 145.992 149.414 146.616 150.016 145.992C150.095 145.91 145.86 144.461 144.503 144.359C142.2 140.231 143.425 130.081 142.19 129.823C142.16 129.818 141.382 128.956 140.604 129.418C140.964 134.048 140.91 139.006 142.525 143.094Z" fill="#414042"/>
<path fill-rule="evenodd" clip-rule="evenodd" d="M189.713 125.081C181.432 131.747 167.557 135.452 156.309 135.599C143.502 135.768 132.321 131.453 124.331 124.05C114.959 115.366 109.871 102.607 110.16 90.4735C110.366 81.8148 129.338 76.7995 133.767 77.5029C134.093 118.813 164.247 132.795 189.713 125.081Z" fill="#C3AD88"/>
<path fill-rule="evenodd" clip-rule="evenodd" d="M213.853 64.5843C204.871 23.0578 147.812 45.4005 108.333 63.2373C104.414 65.0093 82.4562 71.3865 77.6845 69.3685C75.9324 68.6279 68.4865 66.5054 72.8904 71.8687C83.7287 85.0655 98.1607 97.0545 116.052 95.7745C123.563 95.2352 145.326 70.5738 179.265 61.8281C189.597 59.1664 201.322 58.9825 213.853 64.5843Z" fill="#4A1600"/>
<path fill-rule="evenodd" clip-rule="evenodd" d="M211.663 59.9294C209.265 61.8232 209.658 68.1383 213.383 69.545C213.403 69.5201 223.814 61.6691 221.44 60.9981C219.012 60.3146 213.003 58.8707 211.663 59.9294Z" fill="#2D250E"/>
<path fill-rule="evenodd" clip-rule="evenodd" d="M128.894 85.9553C129.005 86.9146 122.424 91.1346 120.384 92.6208C116.047 95.7771 106.392 93.9132 106.683 93.7566C110.319 91.8106 130.541 84.2281 128.953 85.7341C128.948 85.7391 128.884 85.8733 128.894 85.9553Z" fill="#686252"/>
<path fill-rule="evenodd" clip-rule="evenodd" d="M98.8117 90.5406C102.445 88.5947 123.558 83.8801 121.989 85.406C116.79 90.4536 95.9313 92.084 98.8117 90.5406Z" fill="#686252"/>
<path fill-rule="evenodd" clip-rule="evenodd" d="M93.1602 88.3786C95.7822 86.9744 111.012 83.5745 109.879 84.6755C106.133 88.3165 91.085 89.492 93.1602 88.3786Z" fill="#686252"/>
<path fill-rule="evenodd" clip-rule="evenodd" d="M89.3602 85.3538C91.9822 83.9496 107.212 80.5498 106.079 81.6483C102.331 85.2892 87.2825 86.4647 89.3602 85.3538Z" fill="#686252"/>
<path fill-rule="evenodd" clip-rule="evenodd" d="M111.313 84.4666C113.413 83.3433 125.603 80.6219 124.698 81.5017C121.696 84.4169 109.648 85.3564 111.313 84.4666Z" fill="#686252"/>
<path fill-rule="evenodd" clip-rule="evenodd" d="M106.943 81.8421C108.74 80.8803 119.186 78.5466 118.408 79.3021C115.838 81.7998 105.517 82.6075 106.943 81.8421Z" fill="#686252"/>
<path fill-rule="evenodd" clip-rule="evenodd" d="M99.4009 79.8565C101.498 78.7332 113.691 76.0118 112.784 76.8916C109.784 79.8068 97.7382 80.7462 99.4009 79.8565Z" fill="#686252"/>
<path fill-rule="evenodd" clip-rule="evenodd" d="M102.353 67.082C101.953 70.6832 88.2592 74.3242 83.9597 74.011C74.9928 73.3599 73.4047 70.0346 73.6558 70.0868C86.3307 72.6938 104.004 65.3523 102.415 66.8609C102.408 66.8633 102.363 67 102.353 67.082Z" fill="#686252"/>
<path fill-rule="evenodd" clip-rule="evenodd" d="M103.213 70.4819C103.887 76.2701 91.6618 79.1928 84.3476 78.6983C78.1245 78.2783 76.5563 74.7765 77.774 74.9977C88.4831 76.961 104.864 68.7497 103.275 70.2582C103.268 70.2632 103.203 70.3999 103.213 70.4819Z" fill="#686252"/>
<path fill-rule="evenodd" clip-rule="evenodd" d="M100.4 77.7315C100.405 78.4349 95.3176 80.9748 93.7271 81.8869C90.3446 83.8329 83.5076 81.7303 83.7288 81.6409C86.5098 80.515 101.727 76.6082 100.462 77.5749C100.457 77.5799 100.4 77.6719 100.4 77.7315Z" fill="#686252"/>
<path fill-rule="evenodd" clip-rule="evenodd" d="M123.856 84.5138C124.912 83.5744 131.68 81.2656 131.289 81.9988C130 84.4194 123.018 85.2569 123.856 84.5138Z" fill="#686252"/>
<path fill-rule="evenodd" clip-rule="evenodd" d="M121.41 78.9294C122.467 77.99 129.234 75.6812 128.844 76.4143C127.554 78.8375 120.573 79.6725 121.41 78.9294Z" fill="#686252"/>
<path fill-rule="evenodd" clip-rule="evenodd" d="M103.651 75.2065C104.707 74.2671 111.475 71.9583 111.084 72.6914C109.795 75.1121 102.816 75.9496 103.651 75.2065Z" fill="#686252"/>
<path fill-rule="evenodd" clip-rule="evenodd" d="M115.212 75.3381C116.268 74.3987 123.036 72.0898 122.646 72.823C121.356 75.2461 114.375 76.0812 115.212 75.3381Z" fill="#686252"/>
<path fill-rule="evenodd" clip-rule="evenodd" d="M108.504 68.4141C109.561 67.4747 116.331 65.1659 115.938 65.899C114.648 68.3222 107.667 69.1572 108.504 68.4141Z" fill="#686252"/>
<path fill-rule="evenodd" clip-rule="evenodd" d="M189.378 66.9155C189.07 66.1724 188.565 63.4436 190.2 61.4976C192.469 58.7961 197.41 57.295 199.756 61.9922C202.86 68.2128 192.989 75.619 189.378 66.9155Z" fill="white"/>
<path fill-rule="evenodd" clip-rule="evenodd" d="M190.839 65.991C190.548 65.3175 190.014 62.867 191.329 61.1994C193.155 58.8807 197.303 57.7374 199.483 62.0096C202.366 67.6661 194.249 73.8793 190.839 65.991Z" fill="#400000"/>
<path fill-rule="evenodd" clip-rule="evenodd" d="M195.479 65.325C195.365 65.0616 195.156 64.1023 195.671 63.4511C196.386 62.544 198.007 62.0967 198.859 63.7693C199.987 65.9812 196.814 68.4092 195.479 65.325Z" fill="white"/>
<path fill-rule="evenodd" clip-rule="evenodd" d="M189.644 58.329C193.404 51.7952 196.938 56.1245 193.784 56.2687C193.419 56.2861 190.016 57.899 189.644 58.329Z" fill="#2D250E"/>
<path fill-rule="evenodd" clip-rule="evenodd" d="M171.024 46.1685C164.582 43.3825 162.343 49.5186 166.571 47.8659C167.798 47.3837 171.151 46.2231 171.024 46.1685ZM152.427 50.8184C147.827 50.2319 147.769 55.8039 150.031 53.3584C150.69 52.6476 152.516 50.8308 152.427 50.8184ZM160.656 46.9464C155.832 44.8612 154.157 49.4565 157.32 48.2163C158.24 47.8584 160.75 46.9886 160.656 46.9464ZM160.365 51.2061C160.492 51.2608 157.139 52.4214 155.911 52.9036C151.684 54.5588 153.921 48.4226 160.365 51.2061ZM207.568 49.9958C204.861 47.6397 202.617 49.2055 205.033 49.5832C205.734 49.6926 207.622 50.043 207.568 49.9958ZM204.859 51.4248C204.911 51.472 203.025 51.1216 202.324 51.0123C199.908 50.6345 202.152 49.0688 204.859 51.4248ZM201.837 45.7808C199.133 43.4247 196.886 44.9904 199.302 45.3682C200.005 45.4775 201.891 45.828 201.837 45.7808ZM196.896 47.1626C196.948 47.2098 195.062 46.8594 194.361 46.75C191.945 46.3747 194.189 44.8065 196.896 47.1626ZM196.961 42.8705C192.519 39.0009 188.836 41.5732 192.798 42.192C193.951 42.3709 197.05 42.945 196.961 42.8705ZM190.919 44.6002C191.011 44.6624 188.101 44.6947 187.022 44.7444C183.316 44.9084 186.217 41.4141 190.919 44.6002ZM183.644 40.3454C178.945 37.1593 176.044 40.6536 179.748 40.4896C180.826 40.4424 183.736 40.4101 183.644 40.3454ZM182.618 45.3433C177.792 43.2582 176.117 47.8535 179.283 46.6133C180.202 46.253 182.712 45.3856 182.618 45.3433ZM172.528 39.585C167.701 37.4998 166.026 42.0951 169.193 40.8549C170.112 40.497 172.622 39.6272 172.528 39.585ZM155.265 57.5858C155.36 57.6256 152.849 58.4954 151.93 58.8558C148.766 60.096 150.441 55.5007 155.265 57.5858ZM165.847 43.1265C165.974 43.1812 162.621 44.3418 161.394 44.8239C157.166 46.4766 159.403 40.3405 165.847 43.1265ZM176.937 42.9724C177.063 43.0271 173.711 44.1877 172.483 44.6698C168.256 46.3225 170.492 40.1864 176.937 42.9724Z" fill="#7B7463"/>
<path fill-rule="evenodd" clip-rule="evenodd" d="M133.419 123.587C126.403 123.789 126.597 117.26 129.91 120.361C130.874 121.263 133.558 123.585 133.419 123.587ZM117.866 112.379C113.375 111.22 115.386 106.024 116.581 109.133C116.932 110.037 117.956 112.401 117.866 112.379ZM124.077 119.024C118.823 119.173 118.97 114.285 121.45 116.609C122.171 117.285 124.181 119.022 124.077 119.024ZM125.384 114.958C125.523 114.953 122.839 112.635 121.875 111.732C118.562 108.631 118.366 115.16 125.384 114.958ZM168.782 133.568C165.397 134.756 163.891 132.47 166.274 133.014C166.965 133.17 168.849 133.543 168.782 133.568ZM166.794 131.237C163.409 132.425 161.903 130.138 164.286 130.683C164.98 130.839 166.861 131.215 166.794 131.237ZM161.898 135.36C158.513 136.548 157.007 134.262 159.39 134.806C160.081 134.962 161.965 135.338 161.898 135.36ZM157.819 132.246C154.435 133.434 152.928 131.145 155.312 131.689C156.003 131.848 157.884 132.224 157.819 132.246ZM156.291 136.257C150.734 138.206 148.264 134.453 152.173 135.345C153.309 135.606 156.4 136.22 156.291 136.257ZM151.318 132.412C145.771 133.63 144.372 129.311 147.752 130.837C148.733 131.279 151.427 132.39 151.318 132.412ZM142.985 133.67C137.44 134.888 136.039 130.568 139.418 132.094C140.403 132.537 143.094 133.645 142.985 133.67ZM143.882 128.647C138.628 128.796 138.775 123.908 141.255 126.232C141.976 126.908 143.986 128.645 143.882 128.647ZM132.378 130.258C127.124 130.407 127.27 125.518 129.751 127.842C130.471 128.518 132.482 130.255 132.378 130.258ZM123.011 107.145C123.115 107.142 121.104 105.405 120.384 104.729C117.901 102.408 117.754 107.296 123.011 107.145ZM127.482 124.497C127.621 124.492 124.937 122.173 123.972 121.271C120.662 118.169 120.466 124.698 127.482 124.497ZM137.726 128.747C137.865 128.744 135.181 126.423 134.217 125.521C130.904 122.419 130.71 128.945 137.726 128.747Z" fill="#AE9F80"/>
</svg>
