<svg width="285" height="190" viewBox="0 0 285 190" fill="none" xmlns="http://www.w3.org/2000/svg">
<rect width="285" height="190" fill="#F2FAFF"/>
<path fill-rule="evenodd" clip-rule="evenodd" d="M131.42 71.8553C145.359 68.3983 195.522 95.9345 133.37 136.778C129.804 139.113 81.4861 174.465 73.1941 167.658C64.1231 160.172 109.099 78.4099 128.259 73.326C128.488 73.2588 131.117 71.9461 131.42 71.8553Z" fill="#FB8D16"/>
<path fill-rule="evenodd" clip-rule="evenodd" d="M128.11 78.4136C125.007 78.9583 120.041 86.2118 124.043 85.0697C126.171 84.4415 129.225 80.2329 129.125 78.7749L128.11 78.4136ZM96.28 153.482C93.1499 154.075 88.2113 161.28 92.213 160.138C94.3409 159.51 97.3949 155.301 97.295 153.843L96.28 153.482ZM88.9793 138.986C85.8764 139.53 80.9106 146.784 84.9395 145.593C87.0402 145.014 90.0959 140.805 89.9943 139.347L88.9793 138.986ZM110.442 128.965C107.312 129.559 102.397 136.838 106.375 135.621C108.503 134.993 111.557 130.784 111.457 129.326L110.442 128.965ZM108.347 106.071C105.217 106.665 100.251 113.919 104.28 112.728C106.381 112.148 109.436 107.94 109.362 106.433L108.347 106.071ZM133.626 122.817C130.523 123.362 125.606 130.641 129.586 129.424C131.687 128.845 134.743 124.636 134.641 123.178L133.626 122.817ZM155.924 100.94C152.821 101.485 147.904 108.764 151.906 107.624C153.985 106.968 157.039 102.76 156.939 101.302L155.924 100.94ZM130.162 95.9891C127.01 96.5066 122.093 103.787 126.095 102.645C128.174 101.99 131.277 97.8084 131.177 96.3504L130.162 95.9891ZM148.378 82.6731C145.199 83.2414 140.282 90.5203 144.311 89.3293C146.363 88.7228 149.493 84.4924 149.393 83.0344L148.378 82.6731Z" fill="#9D570D"/>
<path fill-rule="evenodd" clip-rule="evenodd" d="M150.94 81.8325C150.895 81.68 150.8 81.502 150.757 81.3495C150.61 81.2696 150.488 81.1389 150.39 81.0863C150.537 81.1661 150.61 81.2696 150.784 81.3005C147.641 72.0625 162.33 35.9037 166.958 27.51C174.843 13.3606 181.982 23.8151 173.384 44.0833C172.156 46.9248 167.922 54.1274 163.641 61.1776C178.542 44.3356 202.249 23.7352 209.421 28.8481C215.298 32.9388 189.456 55.1206 184.274 57.7261C180.572 59.6053 169.355 70.7298 160.926 77.3115C170.606 73.7074 187.09 67.6795 191.84 66.6899C213.457 62.3687 222.27 71.5014 206.755 76.3329C198.211 79.0237 164.135 85.373 152.859 82.1757C152.001 82.3463 151.356 82.123 151.051 81.5111C150.953 81.4584 150.855 81.404 150.804 81.3767C150.8 81.502 150.846 81.6545 150.94 81.8325ZM151.006 81.3586C150.96 81.2061 150.893 80.9791 150.826 80.7503C150.795 80.9246 150.764 81.099 150.782 81.3005C150.88 81.355 150.931 81.3804 151.006 81.3586Z" fill="#1A7743"/>
</svg>
