<svg width="285" height="190" viewBox="0 0 285 190" fill="none" xmlns="http://www.w3.org/2000/svg">
<rect width="285" height="190" fill="#EEE0FF"/>
<path fill-rule="evenodd" clip-rule="evenodd" d="M136.275 127.206C137.059 130.484 138.847 147.6 137.784 148.496C130.733 149.806 133.723 149.806 137.406 149.578C138.021 149.539 131.484 151.74 133.002 152.545C133.551 152.838 137.941 149.872 138.139 149.688C138.414 149.43 135.936 153.22 136.747 153.382C137.97 152.306 139.815 148.953 139.88 148.678C140.144 147.611 142.147 126.256 141.232 126.049C141.197 126.041 141.504 129.227 140.794 129.152C140.484 129.119 139.654 125.521 139.32 125.698C138.913 125.911 139.983 129.184 139.529 129.248C139.111 129.307 138.639 126.706 138.308 126.832C137.745 127.047 138.484 129.037 138.021 129.113C137.231 129.245 136.184 126.819 136.275 127.206Z" fill="#522626"/>
<path fill-rule="evenodd" clip-rule="evenodd" d="M157.543 115.255C156.473 126.312 163.704 163.305 157.289 164.607C149.594 166.168 145.696 120.124 149.348 113.362C152.747 107.059 157.545 115.222 157.543 115.255Z" fill="#FFD78F"/>
<path fill-rule="evenodd" clip-rule="evenodd" d="M144.682 118.722C145.281 121.011 144.862 142.346 144.581 144.26C143.724 150.066 136.113 167.141 143.928 165.912C148.78 165.15 151.801 154.468 151.888 150.619C152.02 144.817 153.003 115.456 150.184 111.78C145.824 106.098 144.674 118.689 144.682 118.722Z" fill="#522626"/>
<path fill-rule="evenodd" clip-rule="evenodd" d="M160.708 116.895C160.479 119.25 164.274 140.25 164.856 142.096C166.623 147.693 176.845 163.344 168.932 163.371C164.02 163.387 159.345 153.32 158.649 149.533C157.599 143.824 151.976 114.991 154.177 110.915C157.58 104.61 160.712 116.86 160.708 116.895Z" fill="#522626"/>
<path fill-rule="evenodd" clip-rule="evenodd" d="M150.038 131.195C151.109 142.251 142.851 162.59 149.268 163.891C156.963 165.452 156.166 124.707 152.517 117.947C149.115 111.644 150.036 131.163 150.038 131.195Z" fill="#B2A180"/>
<path fill-rule="evenodd" clip-rule="evenodd" d="M155.297 130.288C156.184 141.361 170.523 159.381 164.435 161.787C157.134 164.673 150.769 124.422 153.176 117.124C155.42 110.323 155.296 130.255 155.297 130.288Z" fill="#B2A180"/>
<path fill-rule="evenodd" clip-rule="evenodd" d="M106.234 83.3734C106.234 117.306 144.845 137.512 155.007 132.336C169.068 125.172 180.96 90.8376 177.713 73.2389C175.786 62.7882 169.287 59.7494 165.407 49.483C157.561 28.7311 147.288 24.7673 138.752 25.9095C132.952 26.6852 127.882 27.3407 122.914 33.1817C120.936 35.5088 115.531 47.0823 116.359 55.4559C108.017 65.9104 106.234 79.7528 106.234 83.3734Z" fill="#FCAF20"/>
<path fill-rule="evenodd" clip-rule="evenodd" d="M137.445 46.6886C137.784 46.1747 138.556 44.1986 137.61 42.5017C136.295 40.1455 132.802 38.3071 130.363 41.4972C127.134 45.719 133.477 52.7022 137.445 46.6886Z" fill="white"/>
<path fill-rule="evenodd" clip-rule="evenodd" d="M136.481 45.7809C136.797 45.3174 137.552 43.5546 136.805 42.1118C135.767 40.1067 132.818 38.6503 130.564 41.5456C127.584 45.3775 132.783 51.2147 136.481 45.7809Z" fill="#400000"/>
<path fill-rule="evenodd" clip-rule="evenodd" d="M133.093 44.6136C133.217 44.4313 133.512 43.7428 133.219 43.1785C132.814 42.3951 131.66 41.8249 130.78 42.9574C129.612 44.4545 131.646 46.7371 133.093 44.6136Z" fill="white"/>
<path fill-rule="evenodd" clip-rule="evenodd" d="M140.934 39.5016C138.432 32.2527 134.069 35.8985 137.191 36.649C137.553 36.7343 140.645 38.9974 140.934 39.5016Z" fill="#4A1600"/>
<path fill-rule="evenodd" clip-rule="evenodd" d="M120.467 43.3007C120.467 42.461 120.005 39.2534 119.639 39.3058C118.417 39.4823 108.742 42.3601 108.724 42.397C113.416 46.0331 119.105 44.4972 120.467 43.3007Z" fill="#7C462A"/>
<path fill-rule="evenodd" clip-rule="evenodd" d="M108.724 42.3989C110.065 45.6064 117.612 51.1527 120.467 43.4616C120.505 43.3608 120.399 43.3763 119.895 43.6168C118.838 44.119 111.436 43.6459 108.724 42.3989Z" fill="#4A1600"/>
<path fill-rule="evenodd" clip-rule="evenodd" d="M120.771 36.7984C120.856 37.7719 120.024 39.1041 121.748 38.3401C122.163 38.1558 123.552 37.0466 122.871 38.4875C122.516 39.2399 121.589 40.3317 121.799 40.3181C121.927 40.3103 122.262 39.6529 124.033 38.9451C125.782 38.247 121.785 43.832 126.354 39.1158C129.866 35.4913 148.421 30.0362 147.925 35.3963C147.787 36.8837 145.45 37.481 150.818 38.3032C152.257 38.5243 149.79 40.8107 149.79 41.8288C149.79 43.4791 153.548 41.6504 150.868 45.3C148.268 48.845 154.237 46.6905 149.455 50.0124C149.422 50.0357 145.72 53.0571 143.567 56.794C147.219 56.794 148.382 56.0803 151.745 55.8651C151.9 55.8554 152.055 55.8457 152.208 55.836C155.941 55.5955 169.96 57.9032 169.549 57.3292C165.737 52.0215 163.7 41.4603 158.585 35.2373C154.502 30.2708 148.863 26.5068 142.925 25.7989C139.021 25.3335 133.609 26.0122 129.54 28.0504C124.944 30.3542 121.857 34.2172 120.771 36.7984Z" fill="#8B79B8"/>
<path fill-rule="evenodd" clip-rule="evenodd" d="M159.409 38.5437C163.7 39.9109 162.197 43.8224 160.85 41.2412C160.456 40.4908 159.323 38.5166 159.409 38.5437ZM166.448 48.6279C168.921 50.282 166.601 53.0009 166.537 50.8658C166.518 50.2433 166.398 48.5949 166.448 48.6279ZM164.096 43.2872C167.309 44.3111 166.184 47.2393 165.174 45.3079C164.881 44.7455 164.034 43.2678 164.096 43.2872ZM162.444 45.4727C162.36 45.4455 163.493 47.4197 163.885 48.1702C165.232 50.7494 166.735 46.8379 162.444 45.4727ZM140.115 25C142.417 25 142.844 26.7027 141.515 25.8688C141.129 25.6264 140.069 25.0019 140.115 25ZM140.823 26.8345C143.125 26.8345 143.551 28.5372 142.223 27.7033C141.839 27.459 140.778 26.8345 140.823 26.8345ZM144.663 25.3762C146.965 25.3762 147.389 27.0789 146.063 26.245C145.677 26.0007 144.618 25.3762 144.663 25.3762ZM146.472 28.1261C148.774 28.1261 149.199 29.8287 147.872 28.9949C147.486 28.7525 146.427 28.1261 146.472 28.1261ZM148.248 26.022C148.175 26.022 149.914 27.0498 150.548 27.4473C152.726 28.8165 152.026 26.0201 148.248 26.022ZM150.444 29.404C154.06 29.8423 153.99 32.7551 152.268 31.1145C151.768 30.6374 150.372 29.3963 150.444 29.404ZM155.755 30.4105C159.372 30.8488 159.302 33.7615 157.58 32.1209C157.078 31.6439 155.683 30.4008 155.755 30.4105ZM154.146 33.2612C154.082 33.2418 154.931 34.7195 155.224 35.2819C156.234 37.2134 157.361 34.2851 154.146 33.2612ZM161.453 34.7254C161.389 34.706 162.238 36.1837 162.531 36.7461C163.541 38.6776 164.668 35.7493 161.453 34.7254ZM162.223 50.7067C165.436 51.7307 164.311 54.6589 163.301 52.7274C163.008 52.1631 162.161 50.6854 162.223 50.7067ZM163.196 39.2516C163.111 39.2244 164.245 41.1986 164.637 41.9491C165.983 44.5302 167.486 40.6187 163.196 39.2516ZM157.894 34.5062C157.809 34.4791 158.941 36.4532 159.335 37.2037C160.683 39.7849 162.186 35.8734 157.894 34.5062Z" fill="#7368AF"/>
<path fill-rule="evenodd" clip-rule="evenodd" d="M112.605 77.7165C112.882 92.1426 152.817 139.726 158.497 133.038C171.211 118.068 195.688 67.4772 170.606 54.6239C163.44 50.9529 151.758 53.0046 145.689 59.3731C144.756 60.3524 111.99 45.8139 112.605 77.7165Z" fill="#E3781F"/>
<path fill-rule="evenodd" clip-rule="evenodd" d="M124.318 82.1787C125.997 86.6758 138.213 103.658 142.409 107.802C143.732 109.109 163.128 118.584 156.845 111.264C149.005 102.13 123.723 85.9331 124.318 82.1787Z" fill="#814C33"/>
<path fill-rule="evenodd" clip-rule="evenodd" d="M122.955 88.9934C123.385 93.4905 136.849 110.473 141.046 114.617C142.369 115.924 158.598 127.208 155.482 118.078C150.967 104.851 123.554 91.3283 122.955 88.9934Z" fill="#FFD78F"/>
<path fill-rule="evenodd" clip-rule="evenodd" d="M124.469 96.7156C124.9 101.213 138.364 118.193 142.561 122.339C143.883 123.646 160.113 134.929 156.996 125.8C152.48 112.573 125.068 99.0504 124.469 96.7156Z" fill="#522626"/>
<path fill-rule="evenodd" clip-rule="evenodd" d="M134.365 86.7031C139.13 99.4615 153.455 104.692 150.067 100.741C148.153 98.5112 143.897 96.4304 140.476 93.5177C137.129 90.6728 134.598 86.9707 134.365 86.7031Z" fill="#FFD78F"/>
<path fill-rule="evenodd" clip-rule="evenodd" d="M129.998 80.5635C134.763 93.3218 149.088 98.552 145.7 94.6037C143.786 92.3735 139.53 90.2927 136.109 87.3799C132.76 84.5331 130.229 80.8311 129.998 80.5635Z" fill="#814C33"/>
<path fill-rule="evenodd" clip-rule="evenodd" d="M176.078 75.0754C175.704 79.8615 168.645 99.5527 165.754 104.694C164.842 106.315 148.813 120.77 152.833 112.001C157.85 101.059 177.684 78.5196 176.078 75.0754Z" fill="#814C33"/>
<path fill-rule="evenodd" clip-rule="evenodd" d="M179.267 81.248C180.093 85.6889 171.834 105.725 168.942 110.866C168.031 112.487 155.542 127.81 156.021 118.173C156.715 104.217 179.335 83.6585 179.267 81.248Z" fill="#FFD78F"/>
<path fill-rule="evenodd" clip-rule="evenodd" d="M179.942 89.0884C180.768 93.5293 172.508 113.566 169.617 118.707C168.706 120.328 156.217 135.65 156.696 126.014C157.388 112.057 180.008 91.4989 179.942 89.0884Z" fill="#522626"/>
<path fill-rule="evenodd" clip-rule="evenodd" d="M167.666 82.1943C166.603 95.7711 154.276 104.75 156.446 100.018C157.669 97.3477 161.187 94.1731 163.673 90.4304C166.105 86.771 167.517 82.5143 167.666 82.1943Z" fill="#FFD78F"/>
<path fill-rule="evenodd" clip-rule="evenodd" d="M170.174 75.0889C169.111 88.6656 156.783 97.6443 158.953 92.9145C160.177 90.2441 163.696 87.0696 166.181 83.3268C168.611 79.6655 170.022 75.4088 170.174 75.0889Z" fill="#814C33"/>
<path fill-rule="evenodd" clip-rule="evenodd" d="M109.952 78.8764C107.096 82.7239 110.825 85.1673 110.384 82.1014C110.257 81.2093 110.008 78.7988 109.952 78.8764ZM110.142 91.9605C109.033 94.9257 112.727 95.8332 111.455 93.9483C111.087 93.3995 110.163 91.9024 110.142 91.9605ZM108.852 85.8868C106.713 88.7685 109.506 90.5972 109.176 88.3012C109.081 87.6341 108.895 85.8306 108.852 85.8868ZM111.637 86.7459C111.693 86.6703 111.942 89.0788 112.07 89.9709C112.51 93.0368 108.781 90.5934 111.637 86.7459ZM118.198 55.1884C116.21 56.6196 116.9 58.3552 117.527 56.8097C117.711 56.3597 118.237 55.1613 118.198 55.1884ZM118.725 57.213C118.764 57.1839 118.237 58.3843 118.054 58.8342C117.428 60.3779 116.737 58.6423 118.725 57.213ZM114.503 58.3397C112.516 59.769 113.206 61.5046 113.832 59.959C114.015 59.511 114.542 58.3106 114.503 58.3397ZM114.651 61.8401C112.663 63.2693 113.353 65.0069 113.982 63.4613C114.162 63.0114 114.69 61.811 114.651 61.8401ZM111.808 61.1264C108.544 63.4729 109.679 66.3236 110.708 63.7871C111.007 63.0482 111.872 61.0799 111.808 61.1264ZM112.013 65.4122C112.07 65.3598 111.637 67.2991 111.502 68.0243C111.034 70.5105 109.163 68.0379 112.013 65.4122ZM108.054 69.5816C105.203 72.2073 107.072 74.6799 107.542 72.1937C107.677 71.4685 108.11 69.5292 108.054 69.5816ZM111.214 71.0438C109.075 73.9255 111.868 75.7542 111.538 73.4581C111.441 72.791 111.255 70.9875 111.214 71.0438ZM105.814 76.8499C103.675 79.7316 106.467 81.5603 106.138 79.2643C106.043 78.5972 105.856 76.7936 105.814 76.8499ZM115.081 91.1286C112.942 94.0103 115.735 95.839 115.405 93.543C115.31 92.8759 115.124 91.0724 115.081 91.1286ZM107.123 81.8415C107.179 81.7659 107.427 84.1744 107.555 85.0665C107.995 88.1325 104.266 85.689 107.123 81.8415ZM108.752 74.4491C108.808 74.3735 109.056 76.782 109.184 77.6741C109.624 80.74 105.895 78.2966 108.752 74.4491Z" fill="#FBAD52"/>
<path fill-rule="evenodd" clip-rule="evenodd" d="M115.845 112.652C116.138 117.434 120.566 116.903 118.254 114.84C117.581 114.241 115.84 112.559 115.845 112.652ZM124.419 122.539C125.482 125.521 128.891 123.834 126.703 123.213C126.067 123.031 124.397 122.48 124.419 122.539ZM119.52 118.724C119.739 122.306 123.056 121.906 121.324 120.363C120.82 119.913 119.514 118.654 119.52 118.724ZM122.204 117.588C122.198 117.493 123.94 119.176 124.613 119.775C126.922 121.838 122.497 122.37 122.204 117.588ZM106.894 89.2242C106.295 91.5978 107.941 92.4821 107.425 90.8958C107.276 90.4343 106.905 89.1776 106.894 89.2242ZM108.6 90.4323C108.001 92.806 109.648 93.6903 109.132 92.104C108.982 91.6424 108.612 90.3858 108.6 90.4323ZM106.097 94.0141C105.498 96.3878 107.144 97.2721 106.628 95.6857C106.479 95.2242 106.108 93.9676 106.097 94.0141ZM108.465 96.5953C107.865 98.9689 109.512 99.8532 108.996 98.2669C108.847 97.8073 108.476 96.5507 108.465 96.5953ZM105.831 97.881C104.846 101.779 107.549 103.228 106.704 100.623C106.456 99.8668 105.849 97.8034 105.831 97.881ZM108.75 101.026C108.261 104.872 111.284 105.558 110.039 103.354C109.677 102.712 108.759 100.951 108.75 101.026ZM108.404 106.767C107.916 110.612 110.939 111.299 109.694 109.094C109.333 108.454 108.414 106.691 108.404 106.767ZM111.765 105.849C111.984 109.431 115.3 109.032 113.569 107.488C113.064 107.04 111.759 105.78 111.765 105.849ZM111.373 113.769C111.593 117.351 114.909 116.952 113.177 115.408C112.675 114.96 111.37 113.699 111.373 113.769ZM127.661 118.722C127.88 122.304 131.197 121.904 129.465 120.361C128.961 119.911 127.655 118.652 127.661 118.722ZM115.591 116.744C115.586 116.649 117.327 118.332 118 118.932C120.311 120.995 115.884 121.526 115.591 116.744ZM112.075 110.04C112.07 109.945 113.811 111.628 114.484 112.228C116.794 114.291 112.368 114.822 112.075 110.04Z" fill="#FBAD52"/>
<path fill-rule="evenodd" clip-rule="evenodd" d="M175.344 83.2784C174.729 82.2603 178.334 76.4522 178.795 76.1303C178.477 79.0586 178.035 82.5492 175.344 83.2784ZM178.474 62.986C177.882 62.9085 176.736 59.6777 176.753 59.3965C177.801 60.4379 179.03 61.7042 178.474 62.986ZM175.859 68.9337C175.336 68.6486 175.429 65.222 175.549 64.966C176.15 66.3138 176.841 67.9369 175.859 68.9337ZM167.16 76.4832C166.749 76.0508 167.891 72.82 168.083 72.6125C168.242 74.0805 168.401 75.8375 167.16 76.4832ZM164.222 83.61C163.949 83.0806 165.946 80.2958 166.188 80.1504C165.932 81.6048 165.593 83.3346 164.222 83.61ZM172.078 74.1775C171.304 73.7663 171.391 68.732 171.562 68.3539C172.468 70.3261 173.505 72.6998 172.078 74.1775ZM179.924 71.0029C179.15 70.5918 179.238 65.5575 179.408 65.1793C180.312 67.1515 181.351 69.5252 179.924 71.0029ZM180.421 77.5576C179.74 77.0049 180.787 72.0811 181.026 71.7418C181.538 73.8517 182.102 76.3805 180.421 77.5576ZM177.12 75.2344C176.439 74.6817 177.486 69.7579 177.725 69.4185C178.237 71.5284 178.803 74.0572 177.12 75.2344ZM174.616 76.9254C176.3 75.7483 175.733 73.2195 175.221 71.1096C174.983 71.4489 173.936 76.3746 174.616 76.9254ZM170.74 82.7703C170.21 82.0722 172.402 77.5401 172.716 77.2667C172.708 79.4367 172.654 82.0276 170.74 82.7703Z" fill="#F78F2D"/>
<path fill-rule="evenodd" clip-rule="evenodd" d="M123.174 92.4433C123.451 91.2875 118.258 86.8408 117.721 86.674C118.909 89.3695 120.387 92.5635 123.174 92.4433ZM114.052 74.0494C114.593 73.7973 114.707 70.3707 114.604 70.1089C113.922 71.4179 113.134 72.9945 114.052 74.0494ZM118.343 78.9286C118.756 78.4981 117.63 75.2615 117.44 75.052C117.275 76.5201 117.108 78.2751 118.343 78.9286ZM128.918 83.4917C129.178 82.9545 127.113 80.2202 126.868 80.0805C127.161 81.5291 127.541 83.2512 128.918 83.4917ZM133.875 89.3947C133.976 88.8072 131.228 86.7574 130.954 86.6914C131.639 88.0004 132.484 89.5479 133.875 89.3947ZM123.533 82.7819C124.145 82.1555 122.54 77.383 122.262 77.0747C121.997 79.2292 121.725 81.8045 123.533 82.7819ZM115.095 82.1303C115.708 81.5039 114.102 76.7314 113.825 76.4231C113.559 78.5776 113.288 81.1529 115.095 82.1303ZM116.606 88.5279C117.087 87.7968 114.6 83.418 114.269 83.1678C114.418 85.332 114.645 87.9132 116.606 88.5279ZM119.047 85.3146C117.087 84.7018 116.862 82.1187 116.71 79.9545C117.042 80.2066 119.528 84.5835 119.047 85.3146ZM121.946 86.1698C119.986 85.557 119.761 82.9739 119.61 80.8097C119.939 81.0598 122.427 85.4387 121.946 86.1698ZM127.409 90.568C127.702 89.7419 124.242 86.0844 123.862 85.9216C124.524 87.9869 125.359 90.4381 127.409 90.568Z" fill="#F78F2D"/>
</svg>
