<svg width="285" height="190" viewBox="0 0 285 190" fill="none" xmlns="http://www.w3.org/2000/svg">
<rect width="285" height="190" fill="#A783D6"/>
<path d="M98.3937 123.177C88.8524 133.149 87 141.105 87 141.105L106.596 145.555L128.984 140.173L123.871 42.8575L118.301 41C118.301 41 107.935 113.211 98.3937 123.177Z" fill="#F7C874"/>
<path d="M99.1042 155.19L109.337 151.425C134.465 138.359 178.721 160.034 178.797 160.053C178.822 159.875 180.066 153.929 180.656 147.723C180.656 147.716 180.656 147.716 180.656 147.716C181.353 141.916 181.874 132.705 181.677 123.912C181.208 102.929 194.822 52.1951 194.822 52.1951L198 45.8622C186.695 45.1712 127.157 41.545 118.301 41.0062C118.301 41.0062 110.771 100.083 114.482 117.674C118.187 135.253 99.1042 155.19 99.1042 155.19Z" fill="#FCF79A"/>
<path d="M177.554 57.7801L174.299 66.4396L182.026 61.3428L189.264 67.118L186.803 58.1985L194.543 53.1017L185.293 52.6833L183.168 44.9556L182.4 44.9112L179.571 52.4233L170.321 52.005L177.554 57.7801Z" fill="#CEB2F2"/>
<path d="M175.891 64.189C177.553 63.0479 177.769 63.0542 177.674 62.9084C177.579 62.7626 177.445 62.9908 176.259 63.7325L176.798 62.2871C176.843 62.173 176.671 62.1096 176.627 62.2237L175.891 64.189Z" fill="white"/>
<path d="M183.586 61.1905C183.694 61.0574 183.478 61.0384 182.095 59.8846L180.522 60.9243C180.421 60.9877 180.522 61.1398 180.624 61.0764L182.089 60.1128C183.377 61.0891 183.478 61.3237 183.586 61.1905Z" fill="white"/>
<path d="M187.881 64.7342C187.317 62.8261 187.374 62.5915 187.209 62.6486C187.044 62.693 187.215 62.8895 187.558 64.2461L186.352 63.2825C186.257 63.2065 186.143 63.3523 186.238 63.422L187.881 64.7342Z" fill="white"/>
<path d="M186.314 59.3902C186.479 59.3458 186.321 59.2 185.915 57.5898L187.38 56.6262C187.482 56.5629 187.38 56.4107 187.279 56.4741L185.705 57.5138L186.206 59.3331C186.219 59.3775 186.27 59.4028 186.314 59.3902Z" fill="white"/>
<path d="M192.106 53.5072C190.089 53.4502 189.918 53.3234 189.911 53.5009C189.905 53.672 190.121 53.5643 191.535 53.6657C190.381 54.4644 190.127 54.4961 190.222 54.6419C190.254 54.6736 190.425 54.5659 192.106 53.5072Z" fill="white"/>
<path d="M184.696 53.1649L184.233 51.4723C184.202 51.3518 184.024 51.4025 184.056 51.523L184.557 53.3424L186.441 53.4248C187.025 53.1903 185.528 53.222 184.696 53.1649Z" fill="white"/>
<path d="M183.218 48.1568C183.39 48.1124 183.218 47.9666 182.723 46.0204C182.051 47.9222 181.873 48.0427 182.038 48.1061C182.203 48.1631 182.159 47.9476 182.698 46.61L183.104 48.0934C183.123 48.1441 183.18 48.1695 183.218 48.1568Z" fill="white"/>
<path d="M180.237 53.1459C180.827 51.4723 181.011 51.3264 180.846 51.263C180.687 51.206 180.732 51.4152 180.11 52.9621C178.435 52.924 178.27 52.7972 178.257 52.9684C178.257 53.0191 178.296 53.0635 178.346 53.0635L180.237 53.1459Z" fill="white"/>
<path d="M174.477 53.9193C174.584 53.7862 174.324 53.7291 173.259 52.829L174.8 52.8987C174.908 52.9177 174.94 52.7212 174.807 52.7149L172.707 52.6198L174.35 53.932C174.388 53.9637 174.445 53.9573 174.477 53.9193Z" fill="white"/>
<path d="M178.721 57.1904C177.338 56.1317 177.224 55.8908 177.116 56.0303C177.008 56.1634 177.224 56.1888 178.505 57.2538C177.96 58.8005 177.776 58.9527 177.94 59.0161C178.124 59.0731 178.188 58.4519 178.721 57.1904Z" fill="white"/>
<path d="M131.287 80.9123L139.021 75.8218L146.253 81.597L143.798 72.6712L151.531 67.5807L142.275 67.1559L139.82 58.2365L136.559 66.896L127.31 66.4776L134.548 72.2528L131.287 80.9123Z" fill="#CEB2F2"/>
<path d="M132.88 78.6681C134.542 77.527 134.758 77.5333 134.663 77.3875C134.567 77.2417 134.434 77.4699 133.248 78.2117L133.794 76.7663C133.838 76.6522 133.667 76.5888 133.622 76.7029L132.88 78.6681Z" fill="white"/>
<path d="M140.575 75.6633C140.683 75.5301 140.467 75.5111 139.084 74.3574L137.511 75.397C137.41 75.4604 137.511 75.6125 137.613 75.5491L139.078 74.5856C140.366 75.5682 140.467 75.8027 140.575 75.6633Z" fill="white"/>
<path d="M144.87 79.2132C144.305 77.3051 144.363 77.0706 144.198 77.1276C144.033 77.172 144.204 77.3685 144.54 78.7251L143.335 77.7616C143.24 77.6855 143.125 77.8313 143.221 77.901L144.87 79.2132Z" fill="white"/>
<path d="M143.303 73.8692C143.468 73.8248 143.31 73.679 142.904 72.0688L144.369 71.1052C144.471 71.0419 144.369 70.8897 144.268 70.9531L142.694 71.9927L143.195 73.8121C143.208 73.8565 143.265 73.8818 143.303 73.8692Z" fill="white"/>
<path d="M149.095 67.9799C147.078 67.9292 146.907 67.7961 146.9 67.9736C146.894 68.1448 147.11 68.037 148.524 68.1384C147.37 68.9372 147.116 68.9689 147.211 69.1147C147.243 69.1528 147.414 69.045 149.095 67.9799Z" fill="white"/>
<path d="M141.686 67.644L141.223 65.9514C141.191 65.831 141.013 65.8817 141.045 66.0021L141.546 67.8215L143.43 67.9039C144.014 67.6694 142.517 67.7011 141.686 67.644Z" fill="white"/>
<path d="M140.208 62.6359C140.379 62.5915 140.208 62.4457 139.713 60.4995C139.04 62.4013 138.863 62.5218 139.028 62.5852C139.193 62.6422 139.148 62.4267 139.687 61.0891L140.093 62.5725C140.112 62.6232 140.169 62.6486 140.208 62.6359Z" fill="white"/>
<path d="M137.226 67.6249C137.816 65.9513 138 65.8055 137.835 65.7421C137.676 65.6851 137.72 65.8942 137.099 67.4347C135.424 67.3967 135.259 67.2699 135.253 67.4411C135.253 67.4918 135.291 67.5362 135.342 67.5362L137.226 67.6249Z" fill="white"/>
<path d="M131.465 68.3984C131.573 68.2652 131.313 68.2082 130.247 67.308L131.789 67.3777C131.897 67.3967 131.929 67.2002 131.795 67.1939L129.695 67.0988L131.339 68.4111C131.377 68.4428 131.434 68.4364 131.465 68.3984Z" fill="white"/>
<path d="M135.709 71.6631C134.326 70.6044 134.212 70.3635 134.104 70.503C133.997 70.6361 134.212 70.6615 135.494 71.7265C134.948 73.2732 134.764 73.4254 134.929 73.4888C135.113 73.5521 135.177 72.9246 135.709 71.6631Z" fill="white"/>
<path d="M155.591 108.539L163.324 103.442L170.556 109.218L168.101 100.298L175.835 95.2012L166.579 94.7828L164.124 85.8634L160.863 94.523L151.613 94.1045L158.845 99.8734L155.591 108.539Z" fill="#CEB2F2"/>
<path d="M157.183 106.289C158.846 105.148 159.061 105.154 158.966 105.008C158.871 104.862 158.738 105.091 157.551 105.832L158.091 104.393C158.135 104.279 157.964 104.216 157.919 104.33L157.183 106.289Z" fill="white"/>
<path d="M164.879 103.29C164.986 103.157 164.771 103.138 163.388 101.984L161.815 103.024C161.713 103.087 161.814 103.24 161.916 103.176L163.381 102.213C164.669 103.189 164.771 103.423 164.879 103.29Z" fill="white"/>
<path d="M169.173 106.834C168.608 104.926 168.666 104.691 168.501 104.748C168.336 104.793 168.507 104.989 168.843 106.346L167.638 105.382C167.543 105.306 167.429 105.452 167.524 105.522L169.173 106.834Z" fill="white"/>
<path d="M167.606 101.49C167.771 101.445 167.613 101.3 167.207 99.6895L168.672 98.7259C168.773 98.6625 168.672 98.5103 168.57 98.5737L166.997 99.6134L167.498 101.433C167.511 101.477 167.568 101.503 167.606 101.49Z" fill="white"/>
<path d="M173.398 95.607C171.381 95.5499 171.21 95.4231 171.203 95.6006C171.197 95.7718 171.413 95.664 172.827 95.7654C171.673 96.5705 171.419 96.5959 171.514 96.7417C171.546 96.7798 171.717 96.6656 173.398 95.607Z" fill="white"/>
<path d="M165.989 95.2709L165.526 93.5783C165.494 93.4579 165.316 93.5086 165.348 93.6291L165.849 95.4484L167.733 95.5372C168.317 95.29 166.82 95.3217 165.989 95.2709Z" fill="white"/>
<path d="M164.511 90.2565C164.682 90.2122 164.51 90.0664 164.016 88.1202C163.343 90.022 163.166 90.1425 163.331 90.2059C163.495 90.2629 163.451 90.0473 163.99 88.7097L164.396 90.1932C164.415 90.2439 164.472 90.2692 164.511 90.2565Z" fill="white"/>
<path d="M161.529 95.2456C162.119 93.572 162.303 93.4262 162.138 93.3628C161.979 93.3057 162.024 93.5149 161.402 95.0554C159.727 95.0174 159.562 94.8906 159.55 95.0617C159.55 95.1125 159.588 95.1568 159.638 95.1568L161.529 95.2456Z" fill="white"/>
<path d="M155.768 96.019C155.876 95.8859 155.616 95.8288 154.55 94.9286L156.092 94.9984C156.2 95.0174 156.231 94.8209 156.098 94.8145L153.998 94.7195L155.641 96.0317C155.68 96.0634 155.737 96.0571 155.768 96.019Z" fill="white"/>
<path d="M160.013 99.2901C158.63 98.2314 158.515 97.9905 158.408 98.13C158.3 98.2631 158.515 98.2885 159.797 99.3535C159.251 100.9 159.067 101.052 159.232 101.116C159.416 101.173 159.48 100.552 160.013 99.2901Z" fill="white"/>
<path d="M118.796 130.429L126.523 125.332L133.761 131.107L131.306 122.188L139.033 117.091L129.784 116.673L127.329 107.747L124.068 116.413L114.818 115.988L122.05 121.763L118.796 130.429Z" fill="#CEB2F2"/>
<path d="M120.388 128.178C122.05 127.037 122.266 127.044 122.171 126.898C122.075 126.752 121.942 126.98 120.756 127.722L121.295 126.283C121.34 126.169 121.168 126.105 121.124 126.219L120.388 128.178Z" fill="white"/>
<path d="M128.083 125.18C128.191 125.047 127.975 125.028 126.592 123.874L125.019 124.914C124.917 124.977 125.019 125.129 125.12 125.066L126.586 124.102C127.874 125.078 127.975 125.313 128.083 125.18Z" fill="white"/>
<path d="M132.378 128.723C131.813 126.815 131.87 126.581 131.706 126.638C131.541 126.682 131.712 126.879 132.048 128.235L130.843 127.272C130.748 127.196 130.633 127.341 130.729 127.411L132.378 128.723Z" fill="white"/>
<path d="M130.811 123.379C130.976 123.335 130.818 123.189 130.412 121.579L131.877 120.615C131.978 120.552 131.877 120.4 131.775 120.463L130.202 121.503L130.703 123.322C130.716 123.367 130.767 123.392 130.811 123.379Z" fill="white"/>
<path d="M136.603 117.496C134.579 117.439 134.414 117.313 134.408 117.49C134.402 117.661 134.617 117.554 136.032 117.655C134.878 118.454 134.624 118.485 134.719 118.631C134.751 118.669 134.922 118.555 136.603 117.496Z" fill="white"/>
<path d="M129.193 117.16L128.73 115.468C128.699 115.347 128.521 115.398 128.553 115.519L129.054 117.338L130.938 117.427C131.515 117.179 130.024 117.211 129.193 117.16Z" fill="white"/>
<path d="M127.715 112.146C127.886 112.102 127.715 111.956 127.22 110.01C126.548 111.912 126.37 112.032 126.535 112.095C126.7 112.152 126.656 111.937 127.195 110.599L127.601 112.083C127.62 112.133 127.677 112.159 127.715 112.146Z" fill="white"/>
<path d="M124.734 117.135C125.324 115.462 125.508 115.316 125.343 115.252C125.184 115.195 125.228 115.404 124.607 116.945C122.932 116.907 122.767 116.78 122.761 116.951C122.761 117.002 122.799 117.046 122.849 117.046L124.734 117.135Z" fill="white"/>
<path d="M118.973 117.908C119.081 117.775 118.821 117.718 117.755 116.818L119.297 116.888C119.405 116.907 119.436 116.71 119.303 116.704L117.203 116.609L118.846 117.921C118.885 117.953 118.942 117.947 118.973 117.908Z" fill="white"/>
<path d="M123.218 121.18C121.835 120.121 121.72 119.88 121.613 120.019C121.505 120.153 121.72 120.178 123.002 121.243C122.456 122.79 122.272 122.942 122.437 123.005C122.621 123.062 122.685 122.441 123.218 121.18Z" fill="white"/>
<path d="M170.785 141.77L167.53 150.43L175.257 145.333L180.453 149.479C180.592 148.426 180.878 145.548 180.897 145.333L180.034 142.188L181.227 141.402C181.335 139.944 181.43 138.404 181.506 136.806L178.524 136.667L176.069 127.747L172.808 136.407L163.559 135.989L170.785 141.77Z" fill="#CEB2F2"/>
<path d="M169.123 148.186C170.785 147.044 171 147.051 170.905 146.905C170.81 146.759 170.677 146.987 169.491 147.729L170.03 146.284C170.074 146.17 169.903 146.106 169.858 146.22L169.123 148.186Z" fill="white"/>
<path d="M176.818 145.181C176.926 145.048 176.71 145.029 175.327 143.875L173.754 144.914C173.652 144.978 173.754 145.13 173.855 145.067L175.321 144.103C176.608 145.086 176.71 145.32 176.818 145.181Z" fill="white"/>
<path d="M180.656 147.71C180.713 147.254 180.694 147.323 180.707 147.247C180.561 146.683 180.555 146.601 180.447 146.632C180.295 146.677 180.409 146.829 180.656 147.71Z" fill="white"/>
<path d="M179.476 147.419L180.599 148.312C180.605 148.236 180.612 148.173 180.624 148.103L179.59 147.279C179.495 147.203 179.381 147.342 179.476 147.419Z" fill="white"/>
<path d="M179.546 143.38C179.711 143.336 179.552 143.19 179.146 141.58L180.612 140.616C180.713 140.553 180.612 140.401 180.51 140.464L178.937 141.504L179.438 143.323C179.451 143.374 179.508 143.399 179.546 143.38Z" fill="white"/>
<path d="M177.928 137.161L177.465 135.469C177.433 135.348 177.256 135.399 177.287 135.52L177.788 137.339L179.673 137.421C180.256 137.187 178.759 137.218 177.928 137.161Z" fill="white"/>
<path d="M176.45 132.153C176.621 132.109 176.45 131.963 175.955 130.017C175.282 131.919 175.105 132.039 175.27 132.103C175.435 132.16 175.39 131.944 175.93 130.607L176.336 132.09C176.355 132.141 176.412 132.166 176.45 132.153Z" fill="white"/>
<path d="M173.468 137.142C174.058 135.469 174.242 135.323 174.077 135.26C173.918 135.203 173.963 135.412 173.341 136.959C171.666 136.921 171.501 136.794 171.489 136.965C171.489 137.016 171.527 137.06 171.578 137.06L173.468 137.142Z" fill="white"/>
<path d="M167.708 137.916C167.816 137.783 167.556 137.726 166.49 136.825L168.031 136.895C168.139 136.914 168.171 136.718 168.038 136.711L165.938 136.616L167.581 137.928C167.619 137.96 167.676 137.954 167.708 137.916Z" fill="white"/>
<path d="M171.952 141.181C170.569 140.122 170.455 139.881 170.347 140.02C170.239 140.154 170.455 140.179 171.736 141.244C171.191 142.791 171.007 142.943 171.172 143.006C171.356 143.07 171.419 142.442 171.952 141.181Z" fill="white"/>
<path d="M141.399 147.463L141.12 148.211C142.732 148.426 147.014 149.206 151.315 150.271L150.655 147.881L158.395 142.784L149.145 142.366L146.69 133.447L143.43 142.106L134.18 141.688L141.399 147.463Z" fill="#CEB2F2"/>
<path d="M150.161 149.079C150.325 149.035 150.167 148.889 149.761 147.279L151.226 146.315C151.328 146.252 151.226 146.1 151.125 146.163L149.552 147.203L150.053 149.022C150.065 149.067 150.116 149.092 150.161 149.079Z" fill="white"/>
<path d="M155.952 143.196C153.929 143.146 153.764 143.013 153.757 143.19C153.751 143.361 153.967 143.253 155.382 143.355C154.227 144.16 153.973 144.185 154.068 144.331C154.1 144.363 154.271 144.255 155.952 143.196Z" fill="white"/>
<path d="M148.543 142.854L148.079 141.162C148.048 141.041 147.87 141.092 147.902 141.212L148.403 143.032L150.287 143.114C150.864 142.88 149.374 142.911 148.543 142.854Z" fill="white"/>
<path d="M147.064 137.846C147.236 137.802 147.064 137.656 146.57 135.71C145.897 137.612 145.719 137.732 145.884 137.795C146.049 137.852 146.005 137.637 146.544 136.299L146.95 137.783C146.969 137.833 147.02 137.859 147.064 137.846Z" fill="white"/>
<path d="M144.083 142.835C144.673 141.161 144.857 141.016 144.692 140.952C144.533 140.895 144.578 141.104 143.956 142.645C142.281 142.607 142.116 142.48 142.104 142.651C142.104 142.702 142.142 142.746 142.192 142.746L144.083 142.835Z" fill="white"/>
<path d="M138.316 143.609C138.424 143.475 138.164 143.418 137.098 142.518L138.64 142.588C138.748 142.607 138.779 142.41 138.646 142.404L136.546 142.309L138.189 143.621C138.234 143.653 138.291 143.647 138.316 143.609Z" fill="white"/>
<path d="M142.351 146.937C142.097 147.653 141.92 148.084 141.818 148.325C141.882 148.331 141.952 148.338 142.021 148.357C142.123 148.059 142.281 147.558 142.567 146.873C141.178 145.821 141.063 145.574 140.962 145.713C140.854 145.846 141.07 145.878 142.351 146.937Z" fill="white"/>
</svg>
