<svg width="285" height="190" viewBox="0 0 285 190" fill="none" xmlns="http://www.w3.org/2000/svg">
<rect width="285" height="190" fill="#FFF8EF"/>
<path fill-rule="evenodd" clip-rule="evenodd" d="M93.4367 112.715C83.0005 113.744 60.0276 114.289 58.6001 128.463C57.6132 138.081 78.4019 138.06 94.0247 137.598C103.453 137.325 146.353 141.798 167.709 141.798C184.823 141.798 191.732 133.084 208.803 135.813C240.763 140.916 241.876 111.832 200.992 114.017C196.015 114.289 202.356 99.5693 169.914 99.5693C158.448 99.5693 102.277 95.0966 95.2217 99.2964C78.129 109.46 101.815 111.896 93.4367 112.715ZM206.305 111.937C217.917 109.333 228.668 115.15 225.791 115.045C224.091 114.982 221.234 113.429 217.014 112.736C211.512 111.832 206.2 111.958 206.305 111.937ZM87.5783 111.854C75.9661 109.271 65.2148 115.067 68.0917 114.962C69.7925 114.92 72.6485 113.345 76.8693 112.652C82.3707 111.749 87.6833 111.896 87.5783 111.854Z" fill="#D3F2F2"/>
<path fill-rule="evenodd" clip-rule="evenodd" d="M97.5315 132.432C96.9644 132.411 73.1729 128.946 66.2644 133.44C61.9595 136.233 68.49 144.464 77.6037 145.703C82.6436 146.396 81.8036 149.819 75.4408 152.486C73.5931 153.242 62.3797 155.951 70.758 160.507C75.5036 163.09 101.941 158.26 111.096 160.003C114.519 160.654 115.737 160.885 111.999 165.442C107.275 169.138 117.018 175.248 131.801 175.332C150.679 175.458 158.931 168.088 155.592 166.345C147.97 162.334 163.425 162.208 175.877 162.733C218.82 164.518 189.631 148.979 194.713 148.307C198.766 147.783 226.337 144.675 223.166 135.582C222.011 132.223 209.601 131.046 179.174 128.38C174.155 127.939 179.468 127.036 181.253 124.264C182.492 122.353 181.274 118.489 176.97 117.628C150.28 112.274 118.068 114.058 99.9887 120.988C87.5574 125.755 102.235 132.621 97.5315 132.432Z" fill="#FFE469"/>
<path fill-rule="evenodd" clip-rule="evenodd" d="M105.205 68.4613C106.575 65.3483 90.7094 66.6182 92.1293 71.3505C92.802 73.6169 97.4343 74.9868 100.049 74.3391C104.009 73.3181 105.105 68.6357 105.205 68.4613Z" fill="#CF4E32"/>
<path fill-rule="evenodd" clip-rule="evenodd" d="M109.488 53.5679C104.93 60.0933 102.963 61.6371 102.49 72.0477C102.465 73.0937 97.5089 75.1113 95.3174 72.471C91.98 68.3864 93.4743 49.3339 97.6583 50.5043C98.9532 50.8532 109.488 53.5679 109.488 53.5679Z" fill="#F76848"/>
<path fill-rule="evenodd" clip-rule="evenodd" d="M105.205 68.461C101.518 80.4654 106.848 85.0732 105.279 85.7704C100.223 88.0119 95.7155 81.0881 92.2781 71.5741C92.0543 70.9513 95.79 73.4422 99.2019 72.6201C103.61 71.5241 105.702 66.7673 105.205 68.461Z" fill="#FF8063"/>
<path fill-rule="evenodd" clip-rule="evenodd" d="M122.24 34.4402C115.017 46.0712 106.948 43.1321 109.189 42.7088C114.345 41.7373 106.176 39.5958 111.53 39.6452C113.124 39.6702 109.588 37.4288 111.456 37.1549C113.598 36.8561 113.473 37.6282 111.879 35.2868C111.157 34.2408 117.657 36.009 112.975 32.1988C112.452 31.7755 114.345 32.3732 115.416 31.3766C115.814 31.1028 113.847 30.1812 113.548 29.6829C112.975 28.7364 116.212 30.0068 116.412 28.8858C116.486 28.3625 115.141 27.6154 115.117 27.5659C114.743 27.0427 119.45 25.8972 118.629 25.4739C105.105 18.4507 91.4571 33.2942 93.4242 44.9503C94.769 52.895 103.66 56.5063 110.883 55.4109C114.469 54.8876 117.558 52.3473 119.251 50.2553C124.432 43.9043 123.56 40.268 122.24 34.4402Z" fill="#FF7C5E"/>
<path fill-rule="evenodd" clip-rule="evenodd" d="M105.727 26.6946C98.7787 28.4633 96.7862 35.0882 97.4339 35.7604C97.8572 36.1837 98.9282 33.2201 101.369 30.8042C103.461 28.7122 106.848 27.1929 108.766 26.7696C109.015 26.6946 107.446 26.2463 105.727 26.6946Z" fill="#FFAC99"/>
<path fill-rule="evenodd" clip-rule="evenodd" d="M81.9175 76.1073C81.3198 73.0192 69.2404 80.4907 72.8767 83.8032C74.6199 85.3969 79.3522 84.4259 81.0459 82.8816C83.5862 80.5407 81.9425 76.2817 81.9175 76.1073Z" fill="#CF4E32"/>
<path fill-rule="evenodd" clip-rule="evenodd" d="M78.7296 82.8563C82.5898 73.915 70.1121 63.6043 69.7388 64.5259C64.3343 78.0496 78.1569 84.2012 78.7296 82.8563Z" fill="#FF8063"/>
<path fill-rule="evenodd" clip-rule="evenodd" d="M91.7306 86.3686C89.9374 83.8033 82.2165 95.1355 86.9238 96.6548C89.1653 97.377 92.8515 94.9861 93.7481 92.8941C95.093 89.7061 91.83 86.518 91.7306 86.3686Z" fill="#CF4E32"/>
<path fill-rule="evenodd" clip-rule="evenodd" d="M81.7933 75.7334C84.6824 82.1839 84.8813 84.3259 93.2249 90.0542C94.047 90.6269 93.0005 95.0104 89.6136 95.0853C84.3835 95.2098 72.8025 86.9661 72.2048 82.4832C73.5496 82.8071 76.3888 82.4088 78.3064 81.0634C80.6723 79.3947 81.7933 75.7334 81.7933 75.7334Z" fill="#F76848"/>
<path fill-rule="evenodd" clip-rule="evenodd" d="M91.7305 86.3682C99.6258 95.0852 106.375 93.9147 106.076 95.3341C105.155 99.9169 96.961 99.3192 87.1976 96.6789C86.5499 96.4795 90.0368 95.1347 91.2072 92.4199C92.7515 88.9086 90.6345 85.1478 91.7305 86.3682Z" fill="#FF8063"/>
<path fill-rule="evenodd" clip-rule="evenodd" d="M90.9584 128.932C90.0368 131.323 77.858 128.384 80.1244 124.026C81.2204 121.933 86.0022 121.211 88.1192 122.083C91.3072 123.403 91.0333 128.757 90.9584 128.932Z" fill="#CF4E32"/>
<path fill-rule="evenodd" clip-rule="evenodd" d="M85.9028 122.755C93.3499 129.031 86.7744 143.825 86.0272 143.178C75.1683 133.465 84.7818 121.809 85.9028 122.755Z" fill="#FF8063"/>
<path fill-rule="evenodd" clip-rule="evenodd" d="M95.2422 116.554C92.9258 118.671 87.8202 105.969 92.7269 105.496C95.0678 105.247 98.1813 108.385 98.6046 110.626C99.2518 114.038 95.3666 116.429 95.2422 116.554Z" fill="#CF4E32"/>
<path fill-rule="evenodd" clip-rule="evenodd" d="M90.9335 129.156C92.0545 122.183 91.6807 120.066 98.2556 112.37C98.9033 111.598 96.7613 107.638 93.4738 108.435C88.3932 109.68 79.3274 120.639 79.9002 125.097C81.1206 124.449 83.9598 124.101 86.1762 124.922C88.8915 125.918 90.9335 129.156 90.9335 129.156Z" fill="#F76848"/>
<path fill-rule="evenodd" clip-rule="evenodd" d="M95.2425 116.554C104.806 109.73 111.157 112.32 111.182 110.876C111.232 106.218 103.113 105.048 93.001 105.521C92.3283 105.571 95.4419 107.638 96.0396 110.552C96.7617 114.312 93.8976 117.525 95.2425 116.554Z" fill="#FF8063"/>
<path fill-rule="evenodd" clip-rule="evenodd" d="M110.958 131.996C111.207 134.461 101.568 137.176 101.543 132.469C101.519 130.202 104.458 126.317 106.3 126.517C109.115 126.765 110.958 131.821 110.958 131.996Z" fill="#CF4E32"/>
<path fill-rule="evenodd" clip-rule="evenodd" d="M107.396 126.939C114.918 132.369 108.492 146.49 107.745 145.917C96.7618 137.474 106.275 126.118 107.396 126.939Z" fill="#FF8063"/>
<path fill-rule="evenodd" clip-rule="evenodd" d="M110.684 124.374C109.364 127.213 101.817 116.753 104.134 115.11C106.051 113.74 111.082 115.383 111.531 117.625C111.879 119.368 110.759 124.225 110.684 124.374Z" fill="#CF4E32"/>
<path fill-rule="evenodd" clip-rule="evenodd" d="M110.883 132.12C109.738 127.014 108.866 125.669 111.506 118.397C111.755 117.674 109.065 115.582 106.874 117.151C103.511 119.542 99.9748 129.803 101.669 132.692C102.366 131.87 104.358 130.775 106.201 130.675C108.467 130.525 110.883 132.145 110.883 132.12Z" fill="#F76848"/>
<path fill-rule="evenodd" clip-rule="evenodd" d="M110.808 123.951C113.772 115.333 117.558 116.953 117.01 115.607C115.267 111.274 110.036 112.095 104.333 114.985C104.333 114.985 106.599 116.081 108.293 118.247C109.538 119.841 110.236 122.233 110.808 123.951Z" fill="#FF8063"/>
<path fill-rule="evenodd" clip-rule="evenodd" d="M209.534 82.6325C210.754 79.7684 220.965 89.6312 216.706 92.0965C214.664 93.267 210.231 91.2994 208.936 89.4318C206.944 86.6171 209.459 82.8064 209.534 82.6325Z" fill="#CF4E32"/>
<path fill-rule="evenodd" clip-rule="evenodd" d="M183.433 71.6986C182.96 68.3362 197.903 73.8406 195.263 78.0246C193.993 80.0172 189.161 80.0917 186.82 78.7468C183.259 76.7048 183.483 71.8981 183.433 71.6986Z" fill="#CF4E32"/>
<path fill-rule="evenodd" clip-rule="evenodd" d="M183.333 56.2322C185.948 63.7287 187.443 65.7463 185.076 75.8826C184.827 76.9036 189.036 80.191 191.876 78.2235C196.184 75.2099 199.895 56.4561 195.561 56.4561C194.217 56.4566 183.333 56.2072 183.333 56.2322Z" fill="#F76848"/>
<path fill-rule="evenodd" clip-rule="evenodd" d="M183.433 71.6985C183.732 84.2512 177.381 87.2647 178.676 88.3352C182.96 91.8716 189.136 86.4176 195.039 78.1985C195.438 77.6507 191.154 79.0451 188.09 77.3269C184.155 75.0859 183.408 69.9553 183.433 71.6985Z" fill="#FF8063"/>
<path fill-rule="evenodd" clip-rule="evenodd" d="M176.235 34.3407C180.021 47.5155 188.614 46.8683 186.547 45.8473C181.839 43.5064 190.307 43.6558 185.127 42.261C183.583 41.8377 187.593 40.6422 185.849 39.8701C183.881 39.0235 183.807 39.7956 185.973 37.9775C186.945 37.1554 180.22 37.1059 185.749 34.69C186.372 34.4412 184.379 34.4906 183.632 33.2207C183.308 32.8719 185.45 32.5236 185.898 32.1247C186.696 31.3776 183.234 31.7014 183.358 30.5805C183.408 30.0572 184.902 29.6839 184.952 29.6589C185.425 29.2606 181.216 26.8697 182.113 26.6953C197.031 23.5822 206.171 41.5638 201.116 52.2483C197.679 59.5209 188.14 60.6164 181.49 57.6028C178.203 56.1335 175.886 52.846 174.815 50.4052C171.553 42.8582 173.371 39.5957 176.235 34.3407Z" fill="#FF7C5E"/>
<path fill-rule="evenodd" clip-rule="evenodd" d="M194.217 31.3518C200.419 34.9381 200.568 41.8619 199.771 42.3102C199.223 42.634 198.999 39.471 197.305 36.4824C195.836 33.9171 193.021 31.5262 191.278 30.6046C191.054 30.4802 192.698 30.4552 194.217 31.3518Z" fill="#FFAC99"/>
<path fill-rule="evenodd" clip-rule="evenodd" d="M211.178 89.9047C209.309 80.3411 223.73 72.9441 223.88 73.9401C226.271 88.3109 211.452 91.3495 211.178 89.9047Z" fill="#FF8063"/>
<path fill-rule="evenodd" clip-rule="evenodd" d="M197.729 90.5523C200.045 88.4603 205.151 101.162 200.244 101.635C197.903 101.884 194.79 98.746 194.366 96.5045C193.719 93.0926 197.604 90.6768 197.729 90.5523Z" fill="#CF4E32"/>
<path fill-rule="evenodd" clip-rule="evenodd" d="M209.708 82.3087C205.524 87.9871 204.877 90.0296 195.512 93.8398C194.565 94.2131 194.64 98.7215 197.953 99.5432C203.033 100.764 216.109 95.1847 217.653 90.9507C216.258 90.9757 213.594 89.9791 212 88.2359C210.032 86.1189 209.708 82.2837 209.708 82.3087Z" fill="#F76848"/>
<path fill-rule="evenodd" clip-rule="evenodd" d="M197.729 90.5526C188.165 97.4019 181.814 94.8116 181.814 96.2559C181.739 100.913 189.859 102.084 199.97 101.586C200.643 101.561 197.529 99.4939 196.957 96.5797C196.21 92.819 199.074 89.606 197.729 90.5526Z" fill="#FF8063"/>
<path fill-rule="evenodd" clip-rule="evenodd" d="M194.541 128.01C195.462 130.401 207.641 127.463 205.375 123.104C204.279 121.012 199.497 120.29 197.38 121.162C194.192 122.481 194.466 127.861 194.541 128.01Z" fill="#CF4E32"/>
<path fill-rule="evenodd" clip-rule="evenodd" d="M199.596 121.834C192.15 128.11 198.725 142.904 199.472 142.256C210.331 132.543 200.717 120.887 199.596 121.834Z" fill="#FF8063"/>
<path fill-rule="evenodd" clip-rule="evenodd" d="M190.257 115.632C192.573 117.749 197.679 105.047 192.772 104.574C190.431 104.325 187.318 107.463 186.894 109.705C186.272 113.117 190.132 115.508 190.257 115.632Z" fill="#CF4E32"/>
<path fill-rule="evenodd" clip-rule="evenodd" d="M194.566 128.235C193.445 121.261 193.819 119.144 187.244 111.449C186.596 110.702 188.738 106.716 192.051 107.514C197.106 108.759 206.172 119.717 205.599 124.175C204.379 123.528 201.54 123.204 199.323 124.001C196.608 124.997 194.566 128.235 194.566 128.235Z" fill="#F76848"/>
<path fill-rule="evenodd" clip-rule="evenodd" d="M190.257 115.632C180.693 108.808 174.367 111.398 174.342 109.954C174.267 105.297 182.412 104.126 192.498 104.624C193.171 104.649 190.058 106.716 189.485 109.63C188.738 113.391 191.602 116.604 190.257 115.632Z" fill="#FF8063"/>
<path fill-rule="evenodd" clip-rule="evenodd" d="M174.542 131.074C174.293 133.54 183.931 136.255 183.956 131.547C183.981 129.281 181.042 125.396 179.199 125.595C176.385 125.844 174.542 130.9 174.542 131.074Z" fill="#CF4E32"/>
<path fill-rule="evenodd" clip-rule="evenodd" d="M178.103 126.018C170.582 131.447 177.032 145.569 177.779 144.996C188.763 136.553 179.249 125.196 178.103 126.018Z" fill="#FF8063"/>
<path fill-rule="evenodd" clip-rule="evenodd" d="M174.816 123.478C176.16 126.292 183.682 115.857 181.366 114.188C179.448 112.818 174.417 114.462 173.969 116.703C173.62 118.447 174.741 123.303 174.816 123.478Z" fill="#CF4E32"/>
<path fill-rule="evenodd" clip-rule="evenodd" d="M174.616 131.223C175.762 126.093 176.634 124.748 173.993 117.475C173.745 116.753 176.434 114.661 178.626 116.23C182.013 118.621 185.55 128.882 183.856 131.771C183.159 130.949 181.141 129.853 179.298 129.754C177.032 129.605 174.616 131.223 174.616 131.223Z" fill="#F76848"/>
<path fill-rule="evenodd" clip-rule="evenodd" d="M174.716 123.055C171.728 114.412 167.942 116.031 168.49 114.686C170.233 110.353 175.488 111.175 181.167 114.064C181.192 114.064 178.925 115.16 177.206 117.326C175.961 118.92 175.289 121.311 174.716 123.055Z" fill="#FF8063"/>
<path fill-rule="evenodd" clip-rule="evenodd" d="M174.018 111.324C174.89 116.529 180.892 113.79 178.676 108.709C178.551 108.41 181.839 113.142 184.578 105.695C188.264 95.6334 180.319 77.5268 174.542 69.7814C165.949 58.2748 154.866 57.5032 142.139 57.8265C110.982 58.6486 102.938 69.1837 101.942 102.507C101.892 104.375 103.535 108.011 106.25 104.898C106.001 106.243 105.852 107.264 105.827 108.086C105.752 109.68 106.275 112.594 108.491 111.672C109.139 111.399 109.712 110.502 109.961 111.025C116.96 125.097 173.172 124.325 174.018 111.324Z" fill="#F76848"/>
<path fill-rule="evenodd" clip-rule="evenodd" d="M164.43 67.0664C161.89 67.2658 159.249 69.5073 159.05 73.268C159.05 73.243 159.997 71.201 161.391 69.6317C162.711 68.1124 164.48 67.0664 164.43 67.0664ZM160.246 77.5515C159.399 74.8118 166.547 62.1347 173.147 70.9516C174.99 73.4174 179.622 70.2544 178.277 72.2715C177.929 72.7947 176.385 74.4385 174.89 74.4879C173.52 74.5129 171.503 70.5278 167.891 70.9761C163.782 71.4998 160.271 77.5515 160.246 77.5515Z" fill="#313130"/>
<path fill-rule="evenodd" clip-rule="evenodd" d="M121.044 69.8314C123.585 69.7069 126.499 71.6245 127.146 75.3108C127.146 75.2858 125.951 73.3932 124.381 71.9984C122.863 70.653 120.995 69.8314 121.044 69.8314ZM126.449 79.7188C126.972 76.9046 118.355 65.174 112.875 74.7376C111.331 77.4023 106.35 74.837 107.944 76.6802C108.342 77.1285 110.086 78.5978 111.555 78.4484C112.925 78.3239 114.445 74.1149 118.081 74.1399C122.24 74.1399 126.449 79.7438 126.449 79.7188Z" fill="#313130"/>
<path fill-rule="evenodd" clip-rule="evenodd" d="M145.252 77.7257C146.622 76.5552 147.245 74.6377 147.942 74.986C148.639 75.3348 146.622 79.22 143.683 79.4439C142.239 79.5433 140.346 78.9956 138.876 76.2309C138.478 75.5087 138.727 74.9605 139.175 75.4338C139.648 75.932 140.171 76.7042 140.844 77.3264C142.164 78.5228 143.833 78.9211 145.252 77.7257Z" fill="#313130"/>
<path fill-rule="evenodd" clip-rule="evenodd" d="M171.13 83.031C172.773 85.5963 182.785 84.5503 180.27 77.9504C179.199 75.1607 167.07 76.655 171.13 83.031Z" fill="#FFA399"/>
<path fill-rule="evenodd" clip-rule="evenodd" d="M116.86 86.7176C115.242 89.2829 105.204 88.2619 107.72 81.637C108.791 78.8472 120.92 80.3415 116.86 86.7176Z" fill="#FFA399"/>
<path fill-rule="evenodd" clip-rule="evenodd" d="M164.081 82.5826C164.106 82.757 163.907 82.9314 163.707 82.9564C163.558 82.9564 163.409 82.9064 163.334 82.6076C163.284 82.4581 163.433 82.2587 163.607 82.1843C163.807 82.0843 164.032 82.1343 164.081 82.5826ZM159.823 82.9559C159.848 83.1303 159.623 83.3047 159.424 83.3297C159.275 83.3297 159.126 83.3047 159.051 82.9809C159.026 82.8315 159.15 82.632 159.325 82.5576C159.524 82.4581 159.773 82.5326 159.823 82.9559ZM164.081 85.5712C164.106 85.7456 163.882 85.92 163.683 85.945C163.534 85.945 163.384 85.92 163.31 85.5962C163.285 85.4467 163.409 85.2473 163.583 85.1729C163.782 85.0729 164.032 85.1479 164.081 85.5712ZM161.69 84.4007C161.715 84.6001 161.491 84.7746 161.292 84.7746C161.143 84.7995 160.993 84.7496 160.919 84.4257C160.894 84.2763 161.018 84.1019 161.193 84.0024C161.392 83.9274 161.641 83.9774 161.69 84.4007ZM166.223 84.874C166.248 85.0484 166.049 85.2228 165.849 85.2478C165.7 85.2478 165.551 85.2228 165.476 84.899C165.426 84.7496 165.575 84.5502 165.749 84.4757C165.949 84.3757 166.173 84.4257 166.223 84.874ZM161.591 81.1627C161.616 81.3621 161.392 81.5361 161.193 81.5361C161.043 81.561 160.894 81.5111 160.819 81.2122C160.794 81.0628 160.918 80.8634 161.093 80.7889C161.292 80.69 161.541 80.7394 161.591 81.1627ZM167.618 79.7934C167.643 79.9928 167.419 80.1672 167.22 80.1917C167.07 80.1917 166.921 80.1417 166.846 79.8429C166.821 79.6934 166.945 79.494 167.12 79.4195C167.319 79.3201 167.568 79.3696 167.618 79.7934ZM167.12 82.4082C167.145 82.5826 166.92 82.757 166.721 82.7815C166.572 82.7815 166.423 82.7315 166.348 82.4326C166.323 82.2832 166.448 82.0838 166.622 82.0093C166.821 81.9099 167.07 81.9599 167.12 82.4082ZM164.903 80.1917C164.928 80.3911 164.729 80.5655 164.505 80.5655C164.356 80.5905 164.231 80.5405 164.131 80.2417C164.106 80.0922 164.256 79.8928 164.405 79.8184C164.604 79.7184 164.853 79.7684 164.903 80.1917Z" fill="#CF4E32"/>
<path fill-rule="evenodd" clip-rule="evenodd" d="M124.481 83.5544C124.431 83.7538 124.158 83.8532 123.934 83.7788C123.784 83.7288 123.66 83.6044 123.685 83.2555C123.685 83.1061 123.909 82.9567 124.108 82.9567C124.332 82.9562 124.581 83.1061 124.481 83.5544ZM119.899 82.1096C119.874 82.309 119.6 82.4084 119.376 82.334C119.201 82.284 119.077 82.1845 119.102 81.8357C119.102 81.6613 119.326 81.5368 119.525 81.5118C119.775 81.5118 119.999 81.6613 119.899 82.1096ZM123.435 86.5925C123.385 86.7919 123.112 86.8663 122.888 86.7919C122.738 86.7419 122.614 86.6424 122.639 86.2936C122.639 86.1192 122.863 85.9947 123.062 85.9697C123.311 85.9697 123.535 86.1192 123.435 86.5925ZM121.343 84.376C121.293 84.6004 121.02 84.6749 120.82 84.6004C120.646 84.5504 120.521 84.451 120.546 84.1021C120.546 83.9277 120.771 83.8033 120.97 83.7783C121.219 83.7783 121.443 83.9277 121.343 84.376ZM125.926 86.7919C125.876 86.9913 125.602 87.0907 125.379 87.0163C125.229 86.9663 125.08 86.8668 125.105 86.493C125.13 86.3436 125.329 86.1941 125.553 86.1941C125.777 86.1941 126.001 86.3436 125.926 86.7919ZM122.364 81.0885C122.314 81.2879 122.041 81.3624 121.817 81.2879C121.667 81.238 121.518 81.1385 121.543 80.7897C121.568 80.6152 121.767 80.4908 121.991 80.4658C122.215 80.4658 122.439 80.6152 122.364 81.0885ZM129.089 82.259C129.039 82.4584 128.765 82.5578 128.542 82.4834C128.392 82.4334 128.268 82.309 128.293 81.9601C128.293 81.8107 128.517 81.6613 128.716 81.6613C128.94 81.6613 129.189 81.8107 129.089 82.259ZM127.669 84.6749C127.644 84.8743 127.371 84.9487 127.146 84.8993C126.997 84.8248 126.847 84.7248 126.872 84.376C126.897 84.2016 127.097 84.0771 127.321 84.0771C127.545 84.0521 127.769 84.2266 127.669 84.6749ZM126.125 81.5118C126.1 81.7112 125.826 81.7857 125.602 81.7112C125.427 81.6613 125.303 81.5618 125.328 81.213C125.328 81.0386 125.552 80.9141 125.751 80.9141C126.001 80.8891 126.225 81.0386 126.125 81.5118Z" fill="#CF4E32"/>
<path fill-rule="evenodd" clip-rule="evenodd" d="M109.663 64.6506C108.741 59.9184 113.847 56.1331 115.441 58.8723C117.309 62.0604 111.88 64.1274 109.887 64.7501L109.663 64.6506Z" fill="#CF4E32"/>
<path fill-rule="evenodd" clip-rule="evenodd" d="M167.643 60.0432C167.17 55.2364 161.193 53.0694 160.445 56.133C159.574 59.7444 165.377 60.1677 167.469 60.1926L167.643 60.0432Z" fill="#CF4E32"/>
<path fill-rule="evenodd" clip-rule="evenodd" d="M144.162 167.912C144.85 168.378 147.07 168.356 146.16 167.113C145.627 166.402 143.119 167.224 144.162 167.912ZM139.012 161.164C139.367 161.452 140.122 161.075 139.745 160.631C139.412 160.231 138.479 160.72 139.012 161.164ZM135.571 165.514C135.926 165.803 136.681 165.426 136.304 164.96C135.971 164.56 135.038 165.071 135.571 165.514ZM142.32 169.666C142.675 169.976 143.452 169.577 143.052 169.133C142.719 168.734 141.787 169.222 142.32 169.666ZM146.737 167.202C147.026 167.446 147.625 167.135 147.315 166.757C147.048 166.447 146.315 166.847 146.737 167.202ZM139.367 165.493C139.656 165.737 140.278 165.426 139.967 165.071C139.7 164.738 138.945 165.137 139.367 165.493ZM138.768 167.513C139.345 167.957 140.566 167.38 139.945 166.669C139.412 166.047 137.924 166.824 138.768 167.513ZM139.167 164.538C139.722 165.004 140.966 164.405 140.344 163.717C139.789 163.095 138.302 163.85 139.167 164.538ZM143.74 163.451C144.428 163.917 145.916 163.317 145.161 162.629C144.517 162.007 142.719 162.762 143.74 163.451ZM146.493 162.185C146.782 162.429 147.403 162.118 147.092 161.763C146.826 161.43 146.071 161.83 146.493 162.185ZM142.541 166.58C142.83 166.825 143.429 166.514 143.119 166.159C142.852 165.826 142.12 166.225 142.541 166.58ZM143.629 165.204C143.918 165.448 144.517 165.137 144.207 164.76C143.94 164.449 143.208 164.849 143.629 165.204ZM141.853 165.093C142.142 165.337 142.741 165.026 142.453 164.648C142.164 164.338 141.432 164.738 141.853 165.093ZM148.246 168.267C148.535 168.512 149.134 168.201 148.824 167.823C148.557 167.513 147.825 167.912 148.246 168.267ZM147.758 165.537C148.446 166.003 149.934 165.404 149.179 164.693C148.535 164.094 146.715 164.849 147.758 165.537Z" fill="#F9AD02"/>
<path fill-rule="evenodd" clip-rule="evenodd" d="M120.232 146.291C120.854 145.736 123.052 145.425 122.341 146.757C121.919 147.556 119.3 147.112 120.232 146.291ZM116.148 153.728C116.458 153.373 117.258 153.639 116.947 154.149C116.68 154.594 115.682 154.238 116.148 153.728ZM112.108 149.932C112.396 149.577 113.217 149.843 112.907 150.353C112.618 150.798 111.641 150.442 112.108 149.932ZM118.168 144.826C118.478 144.471 119.278 144.737 118.967 145.248C118.7 145.692 117.702 145.336 118.168 144.826ZM122.896 146.602C123.14 146.336 123.784 146.535 123.54 146.957C123.318 147.312 122.519 147.024 122.896 146.602ZM115.859 149.377C116.103 149.088 116.747 149.31 116.503 149.71C116.281 150.087 115.482 149.798 115.859 149.377ZM114.971 147.468C115.46 146.935 116.769 147.335 116.258 148.134C115.815 148.822 114.216 148.289 114.971 147.468ZM115.792 150.353C116.281 149.82 117.591 150.22 117.08 150.997C116.636 151.685 115.038 151.175 115.792 150.353ZM120.499 150.753C121.098 150.198 122.652 150.553 122.03 151.375C121.475 152.063 119.566 151.597 120.499 150.753ZM123.407 151.597C123.651 151.308 124.294 151.53 124.05 151.93C123.828 152.285 123.029 152.018 123.407 151.597ZM118.833 147.823C119.078 147.556 119.721 147.756 119.477 148.178C119.255 148.533 118.457 148.244 118.833 147.823ZM120.099 149.044C120.365 148.755 121.009 148.977 120.742 149.377C120.543 149.732 119.744 149.465 120.099 149.044ZM118.39 149.421C118.634 149.132 119.278 149.354 119.033 149.754C118.812 150.109 118.012 149.843 118.39 149.421ZM124.228 145.336C124.472 145.048 125.116 145.27 124.871 145.669C124.649 146.025 123.85 145.758 124.228 145.336ZM124.139 148.111C124.761 147.534 126.315 147.911 125.67 148.711C125.116 149.421 123.229 148.933 124.139 148.111Z" fill="#F9AD02"/>
<path fill-rule="evenodd" clip-rule="evenodd" d="M162.675 132.95C163.386 133.416 165.605 133.394 164.695 132.173C164.162 131.44 161.654 132.262 162.675 132.95ZM157.548 126.201C157.903 126.49 158.657 126.113 158.28 125.668C157.947 125.269 157.015 125.757 157.548 126.201ZM154.107 130.552C154.462 130.841 155.216 130.463 154.839 130.019C154.506 129.62 153.574 130.108 154.107 130.552ZM160.855 134.703C161.21 135.014 161.965 134.614 161.587 134.17C161.254 133.771 160.322 134.259 160.855 134.703ZM165.273 132.239C165.561 132.484 166.16 132.172 165.85 131.795C165.583 131.484 164.851 131.884 165.273 132.239ZM157.903 130.53C158.191 130.775 158.79 130.463 158.502 130.108C158.213 129.775 157.481 130.175 157.903 130.53ZM157.303 132.55C157.881 133.016 159.102 132.417 158.48 131.706C157.947 131.107 156.437 131.862 157.303 132.55ZM157.681 129.576C158.258 130.042 159.479 129.442 158.857 128.754C158.324 128.133 156.837 128.888 157.681 129.576ZM162.276 128.488C162.964 128.954 164.451 128.355 163.697 127.667C163.052 127.045 161.232 127.8 162.276 128.488ZM165.028 127.222C165.317 127.467 165.939 127.156 165.627 126.801C165.339 126.468 164.606 126.867 165.028 127.222ZM161.077 131.618C161.343 131.862 161.965 131.551 161.654 131.196C161.388 130.863 160.633 131.263 161.077 131.618ZM162.165 130.242C162.431 130.486 163.052 130.175 162.742 129.797C162.475 129.487 161.721 129.886 162.165 130.242ZM160.389 130.13C160.677 130.375 161.277 130.064 160.966 129.686C160.699 129.376 159.967 129.775 160.389 130.13ZM166.782 133.305C167.07 133.549 167.669 133.238 167.359 132.86C167.093 132.55 166.338 132.95 166.782 133.305ZM166.294 130.575C166.982 131.041 168.469 130.441 167.714 129.731C167.048 129.131 165.25 129.886 166.294 130.575Z" fill="#F9AD02"/>
<path fill-rule="evenodd" clip-rule="evenodd" d="M189.158 149.798C179.968 148.843 181.456 157.767 187.782 158.056C189.691 158.145 192.843 158.233 194.13 155.592C196.35 151.019 189.291 149.82 189.158 149.798Z" fill="#BF8037"/>
<path fill-rule="evenodd" clip-rule="evenodd" d="M178.68 159.166C173.907 159.676 174.684 155.015 177.969 154.859C178.969 154.815 180.611 154.771 181.299 156.147C182.432 158.544 178.769 159.166 178.68 159.166Z" fill="#FFA845"/>
<path fill-rule="evenodd" clip-rule="evenodd" d="M184.03 158.921C180.833 158.611 181.344 161.696 183.541 161.807C184.207 161.829 185.317 161.874 185.761 160.941C186.516 159.343 184.074 158.944 184.03 158.921Z" fill="#825F37"/>
<path fill-rule="evenodd" clip-rule="evenodd" d="M98.0117 148.91C88.8215 147.978 90.3311 156.88 96.6352 157.19C98.5442 157.279 101.718 157.368 103.006 154.704C105.204 150.131 98.1673 148.933 98.0117 148.91Z" fill="#BF8037"/>
<path fill-rule="evenodd" clip-rule="evenodd" d="M205.895 143.405C201.122 143.915 201.899 139.254 205.185 139.099C206.184 139.054 207.826 139.01 208.492 140.386C209.647 142.783 205.984 143.405 205.895 143.405Z" fill="#BF8037"/>
<path fill-rule="evenodd" clip-rule="evenodd" d="M211.245 143.161C208.048 142.851 208.559 145.936 210.756 146.047C211.423 146.069 212.51 146.113 212.977 145.181C213.731 143.583 211.289 143.183 211.245 143.161Z" fill="#825F37"/>
<path fill-rule="evenodd" clip-rule="evenodd" d="M88.844 151.019C85.6698 150.686 86.1803 153.772 88.3779 153.883C89.044 153.927 90.1318 153.95 90.5755 153.017C91.3522 151.441 88.9103 151.019 88.844 151.019Z" fill="#825F37"/>
<path fill-rule="evenodd" clip-rule="evenodd" d="M116.747 133.882C114.816 133.682 115.127 135.481 116.458 135.547C116.858 135.569 117.524 135.591 117.791 135.058C118.257 134.127 116.77 133.882 116.747 133.882Z" fill="#825F37"/>
<path fill-rule="evenodd" clip-rule="evenodd" d="M73.416 137.035C71.4846 136.835 71.7957 138.633 73.1273 138.699C73.5267 138.722 74.1927 138.744 74.4594 138.189C74.9256 137.278 73.4384 137.035 73.416 137.035Z" fill="#825F37"/>
<path fill-rule="evenodd" clip-rule="evenodd" d="M102.784 166.003C100.831 165.803 101.164 167.601 102.496 167.668C102.895 167.69 103.561 167.712 103.828 167.179C104.294 166.247 102.807 166.003 102.784 166.003Z" fill="#825F37"/>
<path fill-rule="evenodd" clip-rule="evenodd" d="M97.457 167.024C92.6844 167.513 93.4612 162.873 96.7466 162.718C97.7457 162.673 99.3884 162.607 100.054 164.005C101.209 166.381 97.5458 167.002 97.457 167.024Z" fill="#FFA845"/>
<path fill-rule="evenodd" clip-rule="evenodd" d="M103.584 171.752C100.387 172.085 100.897 168.978 103.095 168.867C103.761 168.844 104.871 168.8 105.315 169.733C106.092 171.331 103.628 171.752 103.584 171.752Z" fill="#FFA845"/>
<path fill-rule="evenodd" clip-rule="evenodd" d="M143.94 139.232C141.498 139.476 141.898 137.123 143.585 137.034C144.073 137.012 144.917 136.99 145.25 137.7C145.849 138.899 143.984 139.232 143.94 139.232Z" fill="#BF8037"/>
<path fill-rule="evenodd" clip-rule="evenodd" d="M146.648 139.099C145.028 138.943 145.294 140.52 146.404 140.564C146.737 140.586 147.292 140.586 147.514 140.12C147.913 139.321 146.671 139.121 146.648 139.099Z" fill="#825F37"/>
<path fill-rule="evenodd" clip-rule="evenodd" d="M136.082 141.829C133.663 142.095 134.062 139.72 135.727 139.653C136.216 139.631 137.059 139.609 137.414 140.297C137.991 141.519 136.126 141.829 136.082 141.829Z" fill="#BF8037"/>
<path fill-rule="evenodd" clip-rule="evenodd" d="M138.79 141.719C137.169 141.541 137.436 143.117 138.545 143.161C138.878 143.184 139.433 143.206 139.678 142.74C140.055 141.918 138.812 141.719 138.79 141.719Z" fill="#825F37"/>
<path fill-rule="evenodd" clip-rule="evenodd" d="M143.43 141.74C140.277 141.429 140.81 144.471 142.963 144.581C143.607 144.604 144.695 144.648 145.139 143.738C145.894 142.162 143.474 141.74 143.43 141.74Z" fill="#825F37"/>
<path fill-rule="evenodd" clip-rule="evenodd" d="M117.613 166.003C117.391 163.783 125.338 158.7 126.026 161.963C126.27 163.161 124.45 163.783 124.694 163.717C124.738 163.694 124.938 163.65 125.316 163.539C127.402 162.984 128.645 164.205 128.623 165.093C128.556 166.713 124.938 166.58 125.071 166.603C126.381 166.847 127.38 167.18 127.491 168.29C127.535 168.778 127.402 169.666 124.916 169.666C122.874 169.666 118.301 169.822 117.701 167.114C117.235 167.469 116.769 167.824 116.347 167.824C116.014 167.824 116.059 167.269 116.258 167.092C116.392 166.959 115.659 167.069 115.637 166.626C115.592 166.204 116.258 166.16 116.147 166.093C115.925 165.96 115.881 165.715 115.881 165.671C115.859 165.138 116.503 165.294 117.08 165.627C117.28 165.737 117.457 165.892 117.613 166.003Z" fill="#FF8063"/>
<path fill-rule="evenodd" clip-rule="evenodd" d="M125.138 161.94C124.961 161.23 124.161 161.208 123.607 161.474C123.318 161.585 122.896 161.741 122.696 161.829C121.875 162.184 123.806 161.741 124.117 161.741C124.516 161.741 125.138 161.962 125.138 161.94Z" fill="#FFB09E"/>
<path fill-rule="evenodd" clip-rule="evenodd" d="M127.78 164.737C127.713 164.005 126.914 163.894 126.337 164.049C126.048 164.161 125.604 164.227 125.382 164.294C124.516 164.538 126.492 164.361 126.803 164.405C127.203 164.449 127.78 164.737 127.78 164.737Z" fill="#FFB09E"/>
<path fill-rule="evenodd" clip-rule="evenodd" d="M126.648 168.401C126.759 167.668 126.026 167.379 125.427 167.424C125.094 167.446 124.65 167.446 124.428 167.446C123.518 167.513 125.493 167.757 125.782 167.868C126.159 168.001 126.648 168.401 126.648 168.401Z" fill="#FFB09E"/>
<path fill-rule="evenodd" clip-rule="evenodd" d="M164.296 155.081C164.496 152.839 156.571 147.756 155.883 151.041C155.639 152.218 157.459 152.839 157.215 152.773C157.148 152.773 156.971 152.706 156.572 152.595C154.507 152.04 153.242 153.261 153.286 154.149C153.331 155.792 156.971 155.636 156.838 155.681C155.506 155.902 154.529 156.235 154.418 157.368C154.374 157.834 154.507 158.744 156.993 158.744C159.013 158.744 163.608 158.9 164.185 156.169C164.674 156.546 165.14 156.901 165.539 156.901C165.894 156.879 165.85 156.324 165.65 156.147C165.517 156.035 166.25 156.147 166.272 155.702C166.295 155.258 165.629 155.214 165.762 155.148C165.984 155.036 166.028 154.77 166.028 154.748C166.05 154.215 165.384 154.371 164.829 154.681C164.628 154.793 164.451 154.948 164.296 155.081Z" fill="#FFA845"/>
<path fill-rule="evenodd" clip-rule="evenodd" d="M156.77 151.019C156.948 150.309 157.747 150.287 158.28 150.53C158.569 150.663 158.99 150.797 159.212 150.885C160.033 151.24 158.103 150.818 157.769 150.818C157.37 150.819 156.77 151.019 156.77 151.019Z" fill="#FFC88A"/>
<path fill-rule="evenodd" clip-rule="evenodd" d="M154.129 153.794C154.196 153.062 154.973 152.95 155.55 153.128C155.86 153.217 156.305 153.305 156.526 153.372C157.392 153.616 155.394 153.439 155.084 153.483C154.706 153.527 154.107 153.816 154.129 153.794Z" fill="#FFC88A"/>
<path fill-rule="evenodd" clip-rule="evenodd" d="M155.261 157.456C155.128 156.724 155.883 156.457 156.482 156.502C156.792 156.524 157.237 156.502 157.481 156.524C158.391 156.569 156.416 156.835 156.104 156.924C155.749 157.057 155.261 157.478 155.261 157.456Z" fill="#FFC88A"/>
<path fill-rule="evenodd" clip-rule="evenodd" d="M219.592 139.431C220.036 138.898 219.814 137.567 219.925 136.435C220.036 136.057 220.125 135.724 220.213 135.391C220.857 133.771 222.189 132.616 223.233 131.817C225.253 130.285 225.83 129.997 227.006 129.042C227.228 129.131 227.561 129.175 228.094 129.175C229.137 129.198 230.27 127.022 230.713 125.934C231.601 125.646 231.513 124.114 231.002 124.047C229.825 123.87 229.515 124.402 229.537 125.002C229.537 125.312 229.604 125.69 229.892 125.868C229.426 126.778 228.848 128.221 227.672 128.354C227.938 127.732 228.56 125.846 228.582 124.669C230.247 124.492 230.158 121.806 229.337 121.695C227.494 121.429 227.006 122.25 227.051 123.16C227.051 123.582 227.117 124.048 227.428 124.359C226.984 125.358 226.629 127.2 226.296 128.088C225.252 127.599 225.119 126.09 224.942 125.091C225.519 125.002 225.563 123.16 224.342 123.16C223.588 123.16 223.476 123.693 223.476 124.136C223.454 124.558 223.61 124.958 224.164 125.091C224.276 126.312 224.742 128.51 225.696 128.776C223.41 130.485 221.634 131.462 220.435 132.727C220.257 130.463 218.925 128.976 217.061 126.601L217.172 126.578C218.859 126.467 219.281 125.002 219.836 123.803C219.991 123.426 220.08 123.093 220.102 122.804C221.789 122.538 220.901 119.453 219.214 120.807C218.948 121.007 218.859 121.34 218.859 121.695C218.881 121.939 218.903 122.205 219.036 122.427C218.526 123.603 217.904 125.69 216.484 125.579C216.417 125.557 216.351 125.535 216.262 125.557C216.084 125.291 215.885 125.024 215.685 124.758C215.418 124.358 215.64 122.538 215.618 121.139C216.794 120.562 216.639 118.409 215.884 118.298C214.064 118.032 213.575 118.875 213.598 119.763C213.62 120.229 213.686 120.762 214.086 121.051C213.776 122.272 213.931 123.67 214.286 124.625C214.375 124.869 214.464 125.091 214.575 125.291H214.53C213.198 125.38 212.067 123.027 212.067 122.516C212.067 122.427 212.067 122.316 212.067 122.228C212.999 121.473 212.133 119.253 210.646 120.429C210.38 120.651 210.313 120.984 210.313 121.317C210.335 121.85 210.446 122.449 211.289 122.449C211.289 122.582 211.312 122.738 211.334 122.871C211.644 124.625 212.799 126.068 214.464 126.312C214.819 126.356 215.085 126.356 215.285 126.335C215.951 127.178 216.75 127.866 217.371 128.732C218.192 129.864 219.191 131.485 219.236 133.371C219.236 133.749 219.169 134.215 219.08 134.704C219.013 134.704 218.925 134.704 218.836 134.704C218.148 134.748 216.971 134.592 216.238 133.949C215.106 132.95 214.529 131.218 214.529 130.819C214.529 130.264 214.485 129.82 214.441 129.421C215.395 128.666 214.552 126.424 213.042 127.622C212.776 127.822 212.687 128.155 212.709 128.51C212.732 128.954 212.798 129.442 213.375 129.598C213.398 130.064 213.442 130.641 213.553 131.285C213.952 133.638 215.506 135.569 217.748 135.88C218.147 135.925 218.48 135.947 218.747 135.947C218.592 136.768 218.503 137.701 218.503 138.855C218.504 139.343 219.103 139.987 219.592 139.431Z" fill="#A86E37"/>
<path fill-rule="evenodd" clip-rule="evenodd" d="M67.9555 139.276C67.7999 139.054 67.7556 138.699 67.7556 138.277C66.6014 138.454 65.4024 138.055 64.4482 137.212C64.0708 136.901 63.7821 136.612 63.5603 136.368C63.1829 136.545 62.8942 136.301 62.6943 136.057C62.5168 135.88 62.4281 135.658 62.4725 135.414C62.7611 134.06 64.2707 134.925 64.0708 135.769C64.2707 135.969 64.515 136.213 64.7588 136.501C64.9363 136.745 66.0685 137.433 67.1339 137.456C67.3338 137.478 67.5332 137.433 67.7331 137.389C67.7331 137.3 67.7107 137.212 67.7107 137.1C67.6219 136.834 67.5776 136.59 67.5108 136.346C67.0446 135.191 66.0899 134.37 65.3351 133.793C63.8699 132.683 63.4705 132.483 62.6046 131.773C62.449 131.84 62.2052 131.884 61.8278 131.884C61.073 131.884 60.2519 130.33 59.9408 129.553C59.2972 129.332 59.3635 128.244 59.719 128.177C60.585 128.066 60.8068 128.443 60.7844 128.865C60.7844 129.109 60.74 129.353 60.5401 129.487C60.8731 130.153 61.2724 131.196 62.116 131.285C61.9385 130.841 61.4943 129.487 61.4724 128.643C60.2739 128.487 60.3402 126.579 60.9394 126.49C62.2491 126.29 62.604 126.889 62.5821 127.533C62.5821 127.844 62.5153 128.199 62.2935 128.399C62.6265 129.132 62.8708 130.464 63.137 131.085C63.8694 130.752 63.9805 129.665 64.0917 128.932C63.6924 128.888 63.6475 127.534 64.5359 127.534C65.0689 127.534 65.1576 127.911 65.1576 128.244C65.1801 128.555 65.0464 128.843 64.669 128.932C64.5803 129.82 64.2473 131.396 63.5593 131.596C65.202 132.817 66.4673 133.527 67.3552 134.437C67.4883 132.794 68.443 131.751 69.7746 130.019H69.6859C68.4874 129.931 68.1763 128.887 67.777 127.999C67.6658 127.733 67.5995 127.489 67.5995 127.289C66.3786 127.111 67.0002 124.87 68.2212 125.846C68.4211 126.002 68.4874 126.245 68.4655 126.49C68.4655 126.667 68.443 126.867 68.3543 127C68.7317 127.866 69.1754 129.375 70.1969 129.287C70.2413 129.264 70.2857 129.264 70.3525 129.264C70.4856 129.087 70.6187 128.887 70.7742 128.687C70.9742 128.421 70.7967 127.089 70.8186 126.089C69.9751 125.668 70.0863 124.114 70.6187 124.047C71.9508 123.847 72.2833 124.447 72.2614 125.113C72.2614 125.446 72.1946 125.801 71.9284 126.023C72.1502 126.911 72.0396 127.91 71.7728 128.598C71.706 128.776 71.6397 128.931 71.5729 129.087H71.6173C72.572 129.154 73.3712 127.444 73.3712 127.089C73.3712 127 73.3936 126.933 73.3936 126.867C72.7056 126.334 73.3268 124.736 74.3927 125.579C74.5926 125.735 74.6589 125.979 74.637 126.223C74.637 126.6 74.5482 127.022 73.949 127.044C73.9266 127.133 73.9266 127.244 73.9046 127.333C73.6828 128.598 72.8612 129.642 71.6402 129.819C71.3959 129.842 71.2185 129.841 71.0629 129.841C70.5743 130.441 69.9975 130.929 69.5533 131.551C68.976 132.372 68.2436 133.549 68.2212 134.903C68.2212 135.169 68.2656 135.524 68.3324 135.879C68.3767 135.857 68.4435 135.857 68.4879 135.879C68.9984 135.902 69.842 135.791 70.3749 135.325C71.196 134.592 71.6178 133.349 71.6178 133.06C71.6178 132.661 71.6402 132.328 71.6622 132.039C70.9742 131.529 71.5953 129.886 72.6612 130.752C72.8612 130.907 72.9275 131.151 72.9055 131.395C72.9055 131.706 72.8387 132.083 72.4394 132.172C72.417 132.527 72.3726 132.927 72.3063 133.393C72.0176 135.08 70.9079 136.479 69.2871 136.701C68.9984 136.745 68.7541 136.767 68.5547 136.767C68.6878 137.345 68.7546 138.033 68.7546 138.854C68.7546 139.209 68.3104 139.675 67.9555 139.276Z" fill="#A86E37"/>
</svg>
