<svg width="285" height="190" viewBox="0 0 285 190" fill="none" xmlns="http://www.w3.org/2000/svg">
<rect width="285" height="190" fill="#E6FBFF"/>
<path fill-rule="evenodd" clip-rule="evenodd" d="M105.408 130.292C109.088 145.321 156.043 156.834 174.29 156.267C217.053 154.938 220.913 124.245 225.022 114.004C192.732 129.254 167.747 130.223 153.054 115.499C136.799 110.559 104.965 128.493 105.408 130.292Z" fill="#5F833E"/>
<path fill-rule="evenodd" clip-rule="evenodd" d="M150.619 116.952C165.104 127.012 193.271 130.541 208.669 121.851C209.79 121.366 210.26 121.103 211.699 120.674C214.314 119.886 217.025 118.28 219.682 117.478C219.944 117.395 220.387 117.173 220.636 117.035C220.996 116.883 224.759 115.097 224.067 114.627C223.154 114.018 222.518 115.028 221.688 114.253C220.138 112.8 220.014 114.613 220.152 115.969C219.695 115.651 219.363 115.374 218.672 114.724C216.306 112.496 216.444 116.08 216.735 117.782C216.112 117.284 215.836 117.021 215.047 116.135C212.806 113.603 212.695 117.575 212.861 119.207C211.92 118.585 211.561 118.322 210.426 117.256C207.493 114.502 207.673 118.931 208.033 121.048C207.258 120.425 206.912 120.107 205.944 119.014C203.371 116.121 203.066 120.121 203.205 122.321C202.776 121.864 202.444 121.449 201.793 120.55C199.511 117.353 198.791 121.449 198.708 123.636C198.058 122.971 197.726 122.584 196.882 121.408C194.572 118.183 193.811 122.141 193.7 124.438C193.271 123.926 192.953 123.484 192.344 122.501C190.214 119.083 189.245 123.414 189.066 125.545C188.485 124.743 188.236 124.355 187.571 123.041C185.828 119.581 184.514 123.373 184.071 125.532C183.781 124.978 183.559 124.494 183.172 123.456C181.789 119.775 180.045 123.553 179.409 125.642C178.939 124.84 178.717 124.369 178.219 123.027C176.628 118.792 174.678 123.705 174.249 125.532C173.64 124.314 173.363 124.369 172.865 122.722C171.675 118.765 169.448 122.335 168.673 124.411C168.41 123.373 168.424 123.331 168.286 121.795C167.912 117.505 165.076 120.993 163.997 122.805C163.9 121.588 163.596 121.615 163.748 119.982C164.191 115.236 159.875 118.958 158.975 120.19C159.003 118.529 158.657 119.055 159.003 117.229C159.971 112.288 151.048 116.218 150.619 116.952Z" fill="#B6C97E"/>
<path fill-rule="evenodd" clip-rule="evenodd" d="M92.3893 95.2116C92.583 103.515 90.5631 110.24 91.0612 117.187C91.6699 125.711 94.7827 134.568 94.7135 147.023C94.7135 159.463 89.318 159.131 82.041 161.885C81.0449 162.259 81.7781 162.964 80.6299 163.49C84.8079 168.638 103.568 167.407 106.376 164.431C111.08 156.543 106.182 142.331 111.343 142.788C119.934 144.615 122.922 144.781 130.946 142.719C130.946 155.796 130.435 161.276 122.023 165.621C120.847 166.23 122.231 171.918 120.653 172.665C123.365 175.931 140.645 165.179 142.609 161.069C143.356 159.311 149.623 146.87 152.279 134.886C154.05 126.86 152.418 118.668 153.068 115.499C154.825 107.002 152.57 97.0383 148.945 87.7666C158.74 89.9254 170.126 85.4002 173.557 80.709C183.31 67.3965 164.883 71.1051 157.509 71.1051C144.823 71.1051 138.957 66.5938 136.868 64.4074C134.958 61.4044 133.395 59.1488 132.551 57.9587C124.209 54.9142 122.065 56.7132 112.948 58.0279C109.364 58.5399 103.332 60.7125 96.7195 65.7358C84.8771 74.7308 87.9622 90.1606 67.8743 99.4185C43.0273 110.863 93.6206 113.866 92.3893 95.2116Z" fill="#76A052"/>
<path fill-rule="evenodd" clip-rule="evenodd" d="M125.343 66.151C143.826 62.5945 178.039 46.113 175.508 39.7611C175.715 39.2768 175.826 39.2906 175.826 38.0867C175.826 30.8354 174.553 32.5928 172.063 35.5681C171.482 34.5441 170.61 32.8004 169.365 32.8004C168.134 32.8004 166.875 35.319 166.529 37.2564C145.542 37.1318 134.184 32.3299 125.966 26.8914C56.931 -18.7753 52.2964 95.8205 125.343 66.151Z" fill="#76A052"/>
<path fill-rule="evenodd" clip-rule="evenodd" d="M160.995 52.6722C143.411 56.7684 129.217 59.1901 113.888 54.3051C113.888 54.3051 112.657 53.7378 111.799 53.1842C111.647 53.1981 111.495 53.1981 111.356 53.1704C111.509 53.1842 111.647 53.1842 111.785 53.1704C110.845 52.5892 110.333 52.0356 112.214 52.2571C112.449 52.2986 112.615 52.3816 112.685 52.4923C113.003 52.6722 113.667 52.9351 113.86 53.0182C127.571 58.4013 143.854 55.6751 160.317 51.8419C160.801 51.7035 161.341 51.7727 161.535 51.9941C161.714 52.2432 161.479 52.5338 160.995 52.6722Z" fill="#5B5246"/>
<path fill-rule="evenodd" clip-rule="evenodd" d="M112.436 72.3091C122.466 91.8766 142.125 137.875 130.946 142.733C128.484 143.798 112.505 145.929 104.232 138.083C89.9127 124.535 87.215 97.6057 112.436 72.3091Z" fill="#F2E6BB"/>
<path fill-rule="evenodd" clip-rule="evenodd" d="M88.4877 39.6923C91.0886 36.4679 95.2943 36.7447 98.2135 39.3463L99.3479 40.5918C99.5139 40.827 99.4586 41.1453 99.2373 41.3114C99.0021 41.4774 98.6839 41.4221 98.504 41.2007L97.5217 40.1213C95.1145 37.9625 91.5175 37.575 89.3455 40.2873C89.1795 40.5226 88.8612 40.5779 88.6261 40.4257C88.3909 40.2458 88.3355 39.9275 88.4877 39.6923Z" fill="#5B5246"/>
<path fill-rule="evenodd" clip-rule="evenodd" d="M73.6708 32.7176C83.3273 31.9565 100.87 34.8626 109.918 39.1801C109.959 39.0833 153.068 58.7476 166.515 37.2566C129.881 49.5174 107.649 -2.22437 78.9003 23.349C75.6906 26.1997 74.3902 30.545 73.6708 32.7176Z" fill="#8AB26C"/>
<path fill-rule="evenodd" clip-rule="evenodd" d="M100.621 48.9635C99.8875 46.4725 94.3536 46.3757 92.2508 46.9569C91.7665 47.0953 91.3377 47.2337 90.9641 47.4136C90.9503 47.4136 90.9503 47.4274 90.9365 47.4274C90.9227 47.4412 90.895 47.4412 90.8811 47.4412C89.6775 47.9948 88.9028 48.7836 87.9759 50.0567C87.9482 50.112 87.879 50.1259 87.8237 50.0982C87.7684 50.0705 87.7545 50.0013 87.7822 49.946C88.0866 49.5308 88.3771 49.1572 88.6676 48.8389C87.9897 48.147 87.298 47.4966 86.6754 46.7493C86.6616 46.694 86.6893 46.6386 86.7446 46.6109C86.7999 46.5971 86.8691 46.6248 86.883 46.6801C87.5055 47.3582 88.1696 48.0086 88.8059 48.659C89.3732 48.064 89.9542 47.6211 90.7013 47.2613C90.1617 46.4864 89.5945 45.7391 89.1103 44.9226C89.0965 44.8673 89.1518 44.8119 89.2072 44.7981C89.2625 44.7843 89.3178 44.8396 89.3317 44.895C89.8435 45.6699 90.3831 46.4172 90.9088 47.1645C91.2823 46.9984 91.7112 46.8462 92.1816 46.7216C92.4168 46.6524 92.7073 46.5971 93.0255 46.5417C92.7903 45.5039 92.6105 44.6044 92.32 43.5803C92.3061 43.525 92.3338 43.4558 92.3891 43.4419C92.4444 43.4281 92.5136 43.4558 92.5275 43.5111C92.818 44.549 93.0117 45.4623 93.2468 46.5002C93.8971 46.4172 94.6442 46.3757 95.4189 46.4033C95.7094 45.3655 95.9584 44.4936 96.1521 43.4143C96.166 43.3589 96.2075 43.3174 96.2766 43.3174C96.332 43.3312 96.3735 43.3866 96.3735 43.4419C96.1798 44.5213 95.9308 45.3793 95.6403 46.4172C96.5257 46.4587 97.4249 46.5832 98.2273 46.8185C98.6562 45.8083 99.0712 44.8811 99.4309 43.8571C99.4448 43.8017 99.5001 43.7602 99.5693 43.7879C99.6246 43.8017 99.6661 43.8571 99.6523 43.9263C99.2926 44.9642 98.8776 45.8913 98.4487 46.9015C99.1819 47.1368 99.8183 47.4689 100.261 47.9256L100.275 47.9117C100.897 47.1783 101.506 46.4449 102.129 45.7114C102.156 45.6561 102.226 45.6422 102.281 45.6699C102.336 45.6976 102.35 45.7668 102.322 45.8083C101.7 46.5694 101.063 47.3305 100.427 48.064L100.413 48.0778C100.621 48.313 100.759 48.5898 100.856 48.8943C100.87 48.9496 100.828 49.005 100.773 49.0188C100.69 49.0603 100.635 49.0188 100.621 48.9635Z" fill="#5B5246"/>
<path fill-rule="evenodd" clip-rule="evenodd" d="M87.879 50.5001H87.7683L87.4778 50.3479L87.3533 49.9604L87.4501 49.739C87.6992 49.393 87.9205 49.1024 88.1281 48.8533L87.9205 48.6457C87.3948 48.1199 86.8691 47.5802 86.371 47.0128L86.3019 46.8744L86.2604 46.7222L86.3434 46.5008C86.4126 46.3763 86.5232 46.2932 86.6477 46.2655L86.7861 46.2517C86.9659 46.2517 87.132 46.3486 87.215 46.5008C87.6577 46.9713 88.1004 47.428 88.5569 47.8846L88.8198 48.1476C89.2348 47.7463 89.6498 47.4418 90.1341 47.165L90.0234 47.0128C89.5945 46.4178 89.1657 45.8089 88.7783 45.1723L88.7229 45.0201L88.7091 44.854L88.8336 44.6464C88.9166 44.5496 89.0411 44.4804 89.1657 44.4666C89.4285 44.4942 89.6084 44.5911 89.6914 44.7848C90.0511 45.3245 90.4107 45.8504 90.7843 46.3624L91.0471 46.736C91.3653 46.6115 91.6974 46.5008 92.0847 46.3901C92.2369 46.3486 92.3891 46.3071 92.5551 46.2794V46.2517C92.3753 45.4076 92.1954 44.6049 91.9464 43.747C91.8634 43.4979 92.0156 43.2211 92.2784 43.1242L92.4306 43.0965C92.652 43.0965 92.8456 43.2349 92.901 43.4425C93.1638 44.3697 93.3437 45.1861 93.5374 46.0718L93.5512 46.141C94.0492 46.0995 94.575 46.0718 95.1284 46.0718C95.3774 45.1585 95.5987 44.3697 95.7786 43.401C95.8201 43.1657 96.0276 42.9858 96.2766 42.9858L96.4426 43.0135L96.6778 43.1934C96.7608 43.3041 96.7885 43.4287 96.7747 43.5671C96.5948 44.5081 96.4012 45.2692 96.166 46.1133C96.83 46.1687 97.4526 46.2655 98.0198 46.4039L98.0751 46.2655C98.4348 45.4352 98.7669 44.6465 99.0712 43.7746C99.1266 43.5809 99.3203 43.4287 99.5416 43.4287L99.6661 43.4425C99.8045 43.484 99.9151 43.5671 99.9705 43.6778L100.053 43.8161L100.012 44.0514C99.68 44.9924 99.3341 45.8089 98.9605 46.6807V46.6945C99.4448 46.8883 99.8736 47.1235 100.219 47.3865C100.773 46.736 101.299 46.1133 101.824 45.4768C101.866 45.3799 102.032 45.283 102.226 45.283H102.322L102.461 45.3384C102.571 45.3937 102.668 45.5044 102.71 45.629L102.765 45.7812L102.682 46.0165C102.087 46.7637 101.506 47.4556 100.925 48.1199C101.063 48.3275 101.174 48.5627 101.243 48.798C101.299 49.1163 101.119 49.3653 100.856 49.4207C100.51 49.4069 100.316 49.2546 100.275 49.0194C99.846 47.5802 97.1482 47.0405 94.9762 47.0405C93.9939 47.0405 93.0255 47.1512 92.4029 47.3173C91.9464 47.4418 91.559 47.5802 91.2131 47.7324L91.0471 47.8154C89.885 48.369 89.1795 49.1439 88.3494 50.2787C88.2249 50.4171 88.0589 50.5001 87.879 50.5001Z" fill="#5B5246"/>
<path fill-rule="evenodd" clip-rule="evenodd" d="M173.806 38.7505C174.304 38.7505 174.705 38.1831 174.705 37.4912C174.705 36.7993 174.304 36.2319 173.806 36.2319C173.308 36.2319 172.907 36.7993 172.907 37.4912C172.907 38.1831 173.308 38.7505 173.806 38.7505Z" fill="#F6E7C2"/>
<path fill-rule="evenodd" clip-rule="evenodd" d="M169.697 38.6402C170.347 38.6402 170.873 37.9068 170.873 36.9934C170.873 36.094 170.347 35.3467 169.697 35.3467C169.047 35.3467 168.521 36.0801 168.521 36.9934C168.521 37.9068 169.061 38.6402 169.697 38.6402Z" fill="#F6E7C2"/>
<path fill-rule="evenodd" clip-rule="evenodd" d="M162.088 41.1175C161.853 41.1175 161.272 41.7263 160.94 41.9616C159.888 42.7089 160.013 42.1553 159.128 41.9062C157.094 41.325 161.562 41.1175 162.088 41.1175ZM158.809 40.218C158.284 40.218 154.189 39.7059 155.849 41.0206C156.278 41.3665 156.969 41.8509 158.021 41.1036C158.353 40.8684 159.031 40.218 158.809 40.218ZM158.27 42.9441C157.744 42.9441 153.649 42.4321 155.309 43.7606C155.738 44.1066 156.43 44.5909 157.481 43.8436C157.813 43.5945 158.491 42.9441 158.27 42.9441ZM154.078 40.0242C154.313 40.0242 153.621 40.6746 153.289 40.9237C152.238 41.671 151.546 41.1866 151.117 40.8407C149.471 39.526 153.552 40.0242 154.078 40.0242ZM154.894 42.1968C154.659 42.1968 154.078 42.8057 153.746 43.041C152.694 43.7883 152.819 43.2347 151.933 42.9856C149.9 42.4044 154.368 42.1968 154.894 42.1968ZM154.119 44.4248C153.884 44.4248 153.303 45.0337 152.971 45.269C151.92 46.0163 152.044 45.4627 151.159 45.2136C149.125 44.6186 153.607 44.4248 154.119 44.4248ZM149.761 45.0752C149.236 45.0752 144.767 45.2828 146.801 45.864C147.686 46.1131 147.562 46.6805 148.613 45.9194C148.945 45.6841 149.54 45.0752 149.761 45.0752ZM150.675 42.4044C150.149 42.4044 145.68 42.612 147.714 43.1932C148.599 43.4423 148.475 44.0097 149.526 43.2486C149.858 43.0133 150.439 42.4044 150.675 42.4044ZM146.925 40.6054C147.161 40.6054 146.469 41.2558 146.137 41.5049C145.085 42.2522 144.394 41.7679 143.965 41.4219C142.318 40.0934 146.413 40.6054 146.925 40.6054ZM146.386 43.3316C146.621 43.3316 145.929 43.982 145.597 44.2311C144.546 44.9784 143.854 44.494 143.425 44.1481C141.765 42.8196 145.86 43.3316 146.386 43.3316ZM141.461 38.2944C140.963 38.1284 137.255 36.3432 138.403 38.1145C138.708 38.585 139.206 39.2631 140.437 38.8895C140.824 38.7649 141.682 38.3636 141.461 38.2944ZM142.415 40.6331C141.917 40.4532 137.642 39.1386 139.372 40.384C140.119 40.9237 139.814 41.4081 141.046 41.0483C141.433 40.9376 142.194 40.5639 142.415 40.6331ZM142.443 42.3767C141.917 42.3767 137.449 42.5843 139.482 43.1655C140.368 43.4146 140.243 43.982 141.295 43.2209C141.627 42.9995 142.208 42.3767 142.443 42.3767ZM149.734 39.4984C149.305 39.4984 145.943 39.0832 147.313 40.1626C147.672 40.4394 148.226 40.8407 149.097 40.2318C149.36 40.0381 149.927 39.4984 149.734 39.4984ZM144.781 45.8917C144.56 45.8502 143.868 46.3345 143.494 46.5144C142.318 47.0541 142.554 46.5283 141.724 46.1131C139.828 45.1583 144.255 45.7948 144.781 45.8917ZM140.492 45.6011C139.98 45.4904 135.581 44.7016 137.435 45.7118C138.237 46.1546 138.002 46.6667 139.192 46.1685C139.552 46.0163 140.257 45.5596 140.492 45.6011ZM136.881 44.3833C137.103 44.4387 136.273 44.9092 135.899 45.0614C134.696 45.5319 134.156 44.8953 133.81 44.4525C132.537 42.7642 136.383 44.2588 136.881 44.3833ZM132.122 35.1669C132.33 35.2638 131.444 35.5821 131.043 35.6651C129.784 35.9281 129.355 35.1946 129.093 34.6964C128.124 32.8144 131.652 34.9594 132.122 35.1669ZM132.607 37.99C132.385 37.9208 131.638 38.2944 131.237 38.419C130.006 38.7788 130.296 38.2944 129.549 37.7686C127.82 36.5508 132.108 37.8239 132.607 37.99ZM130.614 40.3563C130.393 40.2871 129.646 40.6885 129.259 40.813C128.027 41.2005 128.318 40.7023 127.557 40.1903C125.8 39.0002 130.116 40.1903 130.614 40.3563ZM133.921 42.958C133.437 42.7642 129.203 41.3112 130.877 42.5982C131.61 43.1655 131.292 43.636 132.537 43.3178C132.939 43.2209 133.713 42.8749 133.921 42.958ZM129.784 42.9995C129.563 42.9303 128.816 43.3316 128.428 43.4561C127.197 43.8436 127.488 43.3593 126.727 42.8334C124.984 41.6433 129.286 42.8334 129.784 42.9995ZM126.187 41.7955C125.703 41.6156 122.037 39.7198 123.13 41.5326C123.42 42.0031 123.891 42.7089 125.136 42.3629C125.523 42.2522 126.395 41.8786 126.187 41.7955ZM138.721 41.6433C138.5 41.6018 137.808 42.1 137.435 42.2799C136.273 42.8334 136.494 42.3076 135.664 41.8924C133.769 40.9514 138.21 41.5464 138.721 41.6433ZM136.162 39.2078C135.65 39.0832 131.804 37.6025 133.091 39.2769C133.423 39.7198 133.976 40.3563 135.18 39.8858C135.567 39.7336 136.383 39.2631 136.162 39.2078ZM136.992 36.1218C136.508 35.9281 132.869 33.9768 133.935 35.8035C134.211 36.274 134.682 36.9798 135.927 36.6615C136.328 36.5646 137.2 36.2048 136.992 36.1218ZM129.314 32.5653C128.83 32.3577 125.288 30.2543 126.284 32.1225C126.547 32.6068 126.976 33.3403 128.235 33.0635C128.636 32.9805 129.535 32.6622 129.314 32.5653ZM125.592 36.8967C125.094 36.7307 120.806 35.4575 122.535 36.6753C123.282 37.2012 122.991 37.6855 124.223 37.3257C124.624 37.2012 125.371 36.8275 125.592 36.8967ZM162.572 38.7649C162.337 38.7649 161.756 39.3738 161.424 39.6091C160.373 40.3563 160.497 39.8028 159.612 39.5537C157.578 38.9725 162.06 38.7649 162.572 38.7649Z" fill="#D0DF94"/>
<path fill-rule="evenodd" clip-rule="evenodd" d="M111.924 70.6621C111.052 70.8143 110.499 71.8522 110.679 72.9869C110.872 74.1217 111.73 74.9243 112.602 74.7859C113.473 74.6475 114.04 73.6097 113.847 72.4611C113.653 71.3125 112.795 70.5099 111.924 70.6621Z" fill="#A1DAF8"/>
<path fill-rule="evenodd" clip-rule="evenodd" d="M110.457 71.2986C110.236 71.949 110.18 72.6824 110.319 73.1391C110.969 75.1457 112.242 74.9519 106.583 77.941C105.656 78.4392 102.89 79.4356 101.907 76.4603C101.893 76.4326 102.654 75.5055 102.544 74.9934C102.419 74.4537 101.382 73.6373 101.423 73.0146C101.451 72.5856 102.461 71.8798 102.488 71.4647C102.516 71.091 101.658 70.8558 101.727 70.5098C102.281 67.7421 104.494 66.2614 110.457 71.2986Z" fill="#A1DAF8"/>
<path fill-rule="evenodd" clip-rule="evenodd" d="M113.626 70.9391C114.041 71.4926 114.317 72.1707 114.303 72.655C114.29 74.7723 113.031 74.966 119.312 76.1008C120.349 76.2945 123.282 76.4052 123.324 73.2777C123.324 73.2501 122.314 72.5858 122.272 72.0738C122.231 71.5203 122.964 70.427 122.743 69.8458C122.577 69.4445 121.401 69.0709 121.262 68.6972C121.124 68.3513 121.871 67.8669 121.705 67.5625C120.349 65.0716 117.79 64.3243 113.626 70.9391Z" fill="#A1DAF8"/>
</svg>
