<svg width="285" height="190" viewBox="0 0 285 190" fill="none" xmlns="http://www.w3.org/2000/svg">
<rect width="285" height="190" fill="#ECDBC7"/>
<path d="M181.853 93.2433C182.925 95.2461 183.701 96.081 183.701 96.081C183.701 96.081 181.958 95.5632 181.187 94.1046C180.474 92.7518 181.853 93.2433 181.853 93.2433Z" fill="#DB2C3D"/>
<path d="M184.029 92.1808C185.069 94.0726 185.798 94.7332 185.798 94.7332C185.798 94.7332 184.219 94.8019 183.469 93.4226C182.772 92.1438 184.029 92.1808 184.029 92.1808Z" fill="#DB2C3D"/>
<path d="M179.465 89.8241C181.472 91.1716 182.703 93.111 183.136 93.1375C183.574 93.1692 184.018 92.8838 183.817 92.3342C183.606 91.7582 180.733 89.3379 180.733 89.3379L179.465 89.8241Z" fill="#DB2C3D"/>
<path d="M177.706 90.3369C179.571 91.6104 180.812 93.7136 181.266 93.7136C181.71 93.7083 181.895 93.3807 181.631 92.7836C181.377 92.2023 178.958 89.9458 178.958 89.9458L177.706 90.3369Z" fill="#DB2C3D"/>
<path d="M182.317 90.1306C184.187 90.6908 185.534 91.8533 185.946 91.7001C186.358 91.5468 186.696 91.066 186.395 90.5798C186.094 90.0936 183.368 88.894 183.368 88.894L182.317 90.1306Z" fill="#DB2C3D"/>
<path d="M127.904 133.067C126.721 137.01 128.443 140.836 128.443 140.836C128.443 140.836 124.54 138.965 124.867 136.412C125.195 133.86 127.904 133.067 127.904 133.067Z" fill="#7A2E39"/>
<path d="M147.463 134.959C146.121 139.44 147.965 143.752 147.965 143.752C147.965 143.752 143.718 141.676 144.103 138.785C144.489 135.889 147.463 134.959 147.463 134.959Z" fill="#7A2E39"/>
<path d="M114.045 63.4966C107.839 69.4839 104.247 81.9764 104.247 81.9764L105.446 89.9084C105.446 89.9084 113.3 74.6468 116.886 74.1977C120.473 73.7485 114.045 63.4966 114.045 63.4966Z" fill="#DB2C3D"/>
<path d="M109.275 77.1679C107.538 84.8568 105.499 83.3349 104.849 86.1357L105.462 89.9035C105.462 89.9035 113.649 75.2655 117.283 74.9696C119.95 74.7476 117.209 68.8977 115.598 65.8433C113.173 68.2847 114.494 74.9273 109.275 77.1679Z" fill="#BC1B32"/>
<path d="M133.334 59.5332C145.223 68.7335 154.35 76.5175 154.35 76.5175L152.855 80.3329C152.855 80.3329 140.517 72.0257 138.42 72.8501C136.329 73.6745 133.334 59.5332 133.334 59.5332Z" fill="#DB2C3D"/>
<path d="M152.877 80.2749C150.431 76.5652 144.949 74.1977 144.088 70.9636C140.237 70.4933 139.873 67.5657 137.771 65.7795C136.799 65.0133 135.41 65.1348 134.39 64.3422C134.153 64.1784 133.926 64.0251 133.709 63.8877C133.952 65.0186 136.276 74.3087 138.278 73.5266C140.369 72.7022 152.861 80.333 152.861 80.333L152.877 80.2749Z" fill="#BC1B32"/>
<path d="M149.042 82.8748C152.332 88.8621 170.206 88.0378 175.213 89.0101L176.333 88.2597C176.333 88.2597 153.896 74.4197 150.685 73.4473C147.468 72.475 149.575 76.0737 151.207 79.2814C153.378 83.546 149.042 82.8748 149.042 82.8748Z" fill="#DB2C3D"/>
<path d="M157.678 84.0164C153.009 81.353 149.311 76.3487 150.463 78.6104C152.634 82.875 149.042 82.875 149.042 82.875C152.333 88.8623 170.206 88.0379 175.213 89.0103L175.831 88.5981C170.613 88.1753 161.761 86.3416 157.678 84.0164Z" fill="#BC1B32"/>
<path d="M116.284 143.33C120.922 139.736 119.427 132.106 119.427 132.106L116.284 127.017C117.399 132.761 117.768 138.299 116.284 143.33Z" fill="#7A2E39"/>
<path d="M135.182 139.007C140.808 139.033 141.816 132.216 141.816 132.216L139.096 126.424C138.621 132.438 137.496 136.734 135.182 139.007Z" fill="#7A2E39"/>
<path d="M114.937 136.988C119.575 133.395 118.08 125.764 118.08 125.764L114.937 120.675C116.052 126.419 116.422 131.957 114.937 136.988Z" fill="#7A2E39"/>
<path d="M208.166 30.1675L196.135 57.298L198.664 58.0642L208.166 30.1675Z" fill="#3F1C22"/>
<path d="M206.772 60.0147C205.573 60.6647 199.869 61.5578 196.436 60.4322C192.918 59.2801 190.568 54.2757 190.187 52.9018C189.437 50.1803 200.804 30.7915 200.804 30.7915C200.804 30.7915 191.043 51.2266 192.284 53.0392C193.525 54.8517 201.929 59.946 205.283 58.4082C208.631 56.8757 214.563 35.2516 214.563 35.2516C214.563 35.2516 211.156 57.6472 206.772 60.0147Z" fill="#3F1C22"/>
<path d="M196.99 56.8013L154.762 164.467L156.347 165.101L197.835 57.5992L196.99 56.8013Z" fill="#3F1C22"/>
<path d="M91.5336 70.34C90.0389 68.9925 86.4473 68.4323 86.0353 67.312C85.6233 66.1917 85.8874 62.2601 86.2994 62.334C86.7113 62.408 88.0212 65.6633 89.067 65.5523C90.1128 65.4413 90.9368 64.7649 91.9086 65.1031C92.8805 65.4413 91.4597 68.0201 92.5794 69.3677C93.6992 70.7152 91.5336 70.34 91.5336 70.34Z" fill="#DB2C3D"/>
<path d="M82 97.0376C87.4403 101.973 88.729 107.025 88.729 107.025C88.729 107.025 89.347 102.533 88.1692 100.911C88.1692 100.911 90.7467 102.09 93.9475 101.249C89.421 99.1672 86.0934 98.8872 82 97.0376Z" fill="#DB2C3D"/>
<path d="M129.336 94.0991C99.6096 108.991 119.501 153.919 106.191 152.757C91.4386 151.473 86.1093 138.166 88.766 129.489C90.5618 123.618 100.47 108.166 85.8135 99.7852C85.8135 99.7852 98.4581 106.534 89.2519 125.563C84.2025 136 86.1621 151.267 105.594 154.332C127.429 157.772 99.3877 104.129 136.218 94.5483L129.336 94.0991Z" fill="#DB2C3D"/>
<path d="M86.0835 99.9447C85.9141 99.8387 85.8135 99.7856 85.8135 99.7856C85.9035 99.8386 85.9935 99.8917 86.0835 99.9447Z" fill="#BC1B32"/>
<path d="M86.4631 100.172C86.3363 100.092 86.2096 100.018 86.0775 99.9443C86.1779 100.008 86.3046 100.092 86.4578 100.193C86.4631 100.187 86.4631 100.182 86.4631 100.172Z" fill="#BC1B32"/>
<path d="M129.336 94.0996C99.6096 108.991 119.501 153.92 106.191 152.757C104.406 152.604 102.763 152.266 101.252 151.79C101.189 152.303 101.12 152.805 101.046 153.302C102.441 153.724 103.957 154.068 105.594 154.327C127.429 157.767 99.3878 104.124 136.218 94.5435L129.336 94.0996Z" fill="#BC1B32"/>
<path d="M117.8 60.0567C119.258 56.7433 120.885 49.3398 120.885 49.3398L127.392 48.4414C127.392 48.4414 128.348 53.7153 131.881 58.2071C127.281 63.0847 117.8 60.0567 117.8 60.0567Z" fill="#BC1B32"/>
<path d="M134.459 141.644C143.211 149.386 149.042 158.966 150.5 166H161.158C161.158 166 159.59 160.948 151.963 159.157C151.963 159.157 142.788 151.906 146.802 137.385C151.176 121.558 135.473 122.794 135.473 122.794C140.068 130.087 141.748 139.176 134.459 141.644Z" fill="#54393D"/>
<path d="M150.051 164.034C150.051 162.216 151.213 160.589 153.056 159.447C152.702 159.341 152.338 159.241 151.957 159.151C151.957 159.151 142.783 151.901 146.797 137.379C151.17 121.552 135.468 122.789 135.468 122.789C140.068 130.081 141.748 139.176 134.459 141.644C142.519 148.778 148.096 157.46 150.072 164.282C150.061 164.203 150.051 164.119 150.051 164.034Z" fill="#382428"/>
<path d="M150.479 165.91C150.484 165.942 150.494 165.969 150.5 166.001H150.526C150.51 165.969 150.495 165.942 150.479 165.91Z" fill="#382428"/>
<path d="M126.045 118.192C135.019 124.813 138.162 127.17 139.17 131.662L140.068 128.296L141.077 132.787L142.535 128.296V136.603L144.669 132.111L144.891 135.815L146.348 134.917C146.348 134.917 146.01 141.316 146.01 140.978C146.01 140.64 156.986 117.848 156.669 113.372C156.558 111.803 146.797 92.3875 137.485 85.766C128.174 79.134 126.045 118.192 126.045 118.192Z" fill="#8E3A43"/>
<path d="M146.01 140.973C146.01 140.995 146.01 140.99 146.016 140.957C146.016 140.962 146.01 140.973 146.01 140.973Z" fill="#7A2E39"/>
<path d="M156.669 113.367C156.658 113.208 156.547 112.87 156.352 112.384C156.637 114.587 156.289 116.236 155.211 117.066C151.799 119.692 142.376 113.15 134.163 102.465C132.272 100.002 130.614 97.5344 129.219 95.1616C126.769 104.922 126.045 118.191 126.045 118.191C135.019 124.813 138.162 127.17 139.17 131.662L140.068 128.295L141.077 132.787L142.535 128.295V136.603L144.669 132.111L144.891 135.815L146.348 134.917C146.348 134.917 146.053 140.513 146.016 140.962C146.19 140.27 156.986 117.806 156.669 113.367Z" fill="#7A2E39"/>
<path d="M145.112 112.521C141.843 101.423 136.419 90.7383 130.984 89.6655C127.101 98.8077 126.045 118.191 126.045 118.191C134.374 124.337 137.676 126.81 138.917 130.721C139.968 122.641 143.612 117.589 145.112 112.521Z" fill="#601E2B"/>
<path d="M142.16 115.015C141.88 114.323 142.044 115.618 142.334 117.367C142.355 116.241 142.308 115.38 142.16 115.015Z" fill="#601E2B"/>
<path d="M143.396 123.238C143.396 123.238 142.741 119.84 142.334 117.367C142.26 121.341 141.378 128.57 141.378 128.57C141.378 128.57 141.711 126.181 143.396 123.238Z" fill="#601E2B"/>
<path d="M116.96 126.044C116.96 126.044 121.059 149.359 115.355 158.216L119.881 164.05C118.714 150.765 121.011 143.631 126.314 140.259C126.314 140.259 128.316 128.406 130.989 125.595L116.96 126.044Z" fill="#382428"/>
<path d="M121.07 165.625H107.31C107.31 165.625 108.578 158.538 116.358 157.096C118.381 156.72 121.07 165.625 121.07 165.625Z" fill="#54393D"/>
<path d="M117.969 134.351C113.147 118.973 111.124 112.69 111.573 111.232C112.022 109.773 121.107 92.6037 121.445 91.029C121.783 89.4595 121.555 83.6201 121.555 83.6201C121.555 83.6201 148.926 91.8111 146.459 106.402C143.993 120.992 128.512 129.859 126.943 136.592L127.614 130.869L124.698 136.143L126.716 126.377L123.351 134.119L122.902 131.202L121.334 134.119L118.867 127.946L117.969 134.351Z" fill="#8E3A43"/>
<path d="M139.096 99.3361C141.304 94.6805 140.406 88.2229 140.406 88.2229L136.033 83.6782L139.096 99.3361Z" fill="#7A2E39"/>
<path d="M115.159 108.241C122.348 90.3579 131.691 100.039 139.096 99.3363C132.515 95.3993 121.561 83.6255 121.561 83.6255C121.561 83.6255 121.783 89.4595 121.45 91.0343C121.112 92.6038 112.027 109.778 111.578 111.237C111.367 111.929 111.71 113.705 112.64 117.013C113.105 114.143 113.971 111.2 115.159 108.241Z" fill="#7A2E39"/>
<path d="M146.797 108.875C139.735 119.972 127.64 125.785 119.612 122.228C115.228 120.284 112.629 115.871 111.98 110.296C111.768 110.751 111.62 111.083 111.573 111.231C111.124 112.69 113.142 118.973 117.969 134.351L118.867 127.951L121.334 134.124L122.902 131.207L123.351 134.124L126.716 126.382L124.698 136.148L127.614 130.874L126.943 136.597C128.427 130.224 143.211 122.107 146.797 108.875Z" fill="#7A2E39"/>
<path d="M118.006 72.1002C119.501 81.8289 125.258 96.5673 139.17 99.4844C139.17 99.4844 140.591 89.6817 137.079 80.7033C137.079 80.7033 139.25 70.6787 138.721 69.4791C138.352 68.6283 127.983 66.3665 122.416 67.0852C120.135 67.3811 118.006 72.1002 118.006 72.1002Z" fill="#DB2C3D"/>
<path d="M128.549 77.4111C131.681 76.2802 135.822 80.0798 138.832 87.1345C138.468 85.0419 137.913 82.8488 137.073 80.7033C137.073 80.7033 139.244 70.6787 138.716 69.4791C138.346 68.6283 127.978 66.3665 122.411 67.0852C120.124 67.3811 115.682 70.6787 115.682 70.6787C116.606 76.703 121.492 86.0723 126.61 91.9434C124.36 84.4289 125.369 78.5631 128.549 77.4111Z" fill="#BC1B32"/>
<path d="M112.175 65.9648C112.566 68.9453 119.205 77.7122 120.029 77.7862C120.853 77.8602 127.582 76.0635 127.883 75.6143C128.184 75.1651 128.406 73.4424 128.406 73.4424C128.406 73.4424 128.929 75.0119 129.304 75.461C129.679 75.9102 135.811 76.5074 136.709 76.2114C137.607 75.9102 140.57 66.7417 140.221 65.3624C139.397 62.0702 128.258 55.1105 125.939 54.6613C123.615 54.2174 111.853 63.534 112.175 65.9648Z" fill="#DB2C3D"/>
<path d="M116.39 61.5786C119.638 60.9233 122.422 60.0725 122.464 60.3262C122.506 60.5745 118.513 62.3026 117.837 62.4505C117.166 62.6038 116.39 61.5786 116.39 61.5786Z" fill="#BC1B32"/>
<path d="M134.966 62.1813C131.681 61.1984 128.659 60.5906 128.802 60.3687C128.945 60.1467 133.154 60.3264 133.846 60.5167C134.538 60.7069 134.966 62.1813 134.966 62.1813Z" fill="#BC1B32"/>
<path d="M108.06 92.3027C98.4158 90.0568 96.3189 83.8475 95.3471 78.9118C94.3752 73.9761 90.9368 69.6322 90.9368 69.6322L91.6076 68.7339C91.6076 68.7339 100.882 73.8228 104.173 79.0598C107.464 84.2967 106.64 88.5718 106.714 89.6816C106.787 90.8072 108.06 92.3027 108.06 92.3027Z" fill="#DB2C3D"/>
<path d="M106.714 89.6818C106.677 89.1269 106.867 87.7688 106.645 85.8981C106.56 86.1148 106.434 86.2945 106.265 86.416C104.664 87.5892 100.803 85.9193 96.6464 76.4812C95.1623 73.1097 92.5636 70.9483 91.4122 68.9878L90.9315 69.6325C90.9315 69.6325 94.37 73.9711 95.3418 78.912C96.3137 83.8477 98.4053 90.0623 108.055 92.3029C108.06 92.3029 106.788 90.8074 106.714 89.6818Z" fill="#BC1B32"/>
<path d="M136.55 110.782C136.55 110.782 136.175 118.936 130.344 124.622L136.028 120.506C137.675 117.065 136.55 110.782 136.55 110.782Z" fill="#7A2E39"/>
<path d="M149.898 109.007C149.898 109.007 152.301 116.807 148.73 124.131L152.692 118.339C153.077 114.545 149.898 109.007 149.898 109.007Z" fill="#7A2E39"/>
<path d="M154.572 111.829C154.572 111.829 154.197 119.983 148.366 125.669L154.049 121.552C155.697 118.117 154.572 111.829 154.572 111.829Z" fill="#7A2E39"/>
<path d="M133.931 115.824C133.931 115.824 131.079 123.47 123.784 127.096L130.455 124.924C133.075 122.155 133.931 115.824 133.931 115.824Z" fill="#7A2E39"/>
<path d="M116.918 111.639C116.918 111.639 116.242 119.771 120.694 126.06L116.179 121.352C115.149 117.748 116.918 111.639 116.918 111.639Z" fill="#7A2E39"/>
<path d="M123.129 94.9077C123.129 94.9077 118.682 101.873 118.708 110.851L117.863 103.273C118.909 99.2357 123.129 94.9077 123.129 94.9077Z" fill="#7A2E39"/>
<path d="M130.249 102.28C130.249 102.28 128.11 97.2174 122.596 95.9756L127.64 96.2768C129.621 97.804 130.249 102.28 130.249 102.28Z" fill="#7A2E39"/>
<path d="M120.177 75.5031C119.506 76.3645 120.066 77.2999 120.066 77.2999L120.251 76.9986L120.774 77.4108L120.885 76.9986L121.555 77.3369L121.703 76.8877L122.3 77.1519L122.337 76.6287L122.712 76.7027C122.712 76.7027 122.976 75.1702 121.777 75.2072C120.584 75.2442 120.177 75.5031 120.177 75.5031Z" fill="#7A2E39"/>
<path d="M122.126 75.8571C122.084 75.5718 121.614 75.4027 121.075 75.482C120.536 75.5612 120.135 75.8624 120.182 76.1531C120.23 76.4437 120.7 76.6075 121.233 76.5283C121.767 76.4437 122.168 76.1425 122.126 75.8571Z" fill="#BC1B32"/>
<path d="M121.677 75.9261C121.656 75.7729 121.402 75.683 121.112 75.7253C120.821 75.7676 120.605 75.9314 120.631 76.0846C120.652 76.2379 120.906 76.3277 121.196 76.2854C121.482 76.2379 121.698 76.0793 121.677 75.9261Z" fill="#DB2C3D"/>
<path d="M134.58 73.9969C133.751 74.7103 134.121 75.7355 134.121 75.7355L134.364 75.4765L134.797 75.9839L134.987 75.6034L135.579 76.0631L135.811 75.6509L136.344 76.0261L136.482 75.5188L136.836 75.6668C136.836 75.6668 137.39 74.2136 136.212 74.018C135.035 73.8225 134.58 73.9969 134.58 73.9969Z" fill="#7A2E39"/>
<path d="M136.429 74.7213C136.445 74.4307 136.012 74.1718 135.468 74.1506C134.924 74.1242 134.475 74.3409 134.459 74.6315C134.443 74.9221 134.876 75.1811 135.42 75.2022C135.964 75.2286 136.413 75.012 136.429 74.7213Z" fill="#BC1B32"/>
<path d="M135.975 74.7001C135.98 74.5415 135.753 74.4041 135.457 74.3935C135.167 74.3777 134.924 74.4939 134.913 74.6525C134.908 74.811 135.135 74.9484 135.431 74.959C135.721 74.9748 135.964 74.8586 135.975 74.7001Z" fill="#DB2C3D"/>
<path d="M139.223 99.5053C126.267 95.6635 128.343 84.6348 128.343 84.6348C128.343 84.6348 126.04 90.0461 129.742 94.9025C132.552 98.5805 139.223 99.5053 139.223 99.5053Z" fill="#BC1B32"/>
<path d="M134.374 84.3813C140.375 90.0199 139.096 99.3364 139.096 99.3364C139.096 99.3364 140.237 91.9857 138.33 88.3394C136.418 84.6879 134.374 84.3813 134.374 84.3813Z" fill="#BC1B32"/>
<path d="M133.334 88.1279C133.535 88.8096 133.719 89.3275 133.719 89.3275C133.603 88.8678 133.471 88.4714 133.334 88.1279Z" fill="#BC1B32"/>
<path d="M130.936 82.2357C130.804 81.7126 130.614 81.1313 130.339 80.5024C130.529 81.1577 130.73 81.7337 130.936 82.2357Z" fill="#BC1B32"/>
<path d="M133.218 84.7565C132.383 84.7724 131.623 83.9216 130.936 82.2358C131.522 84.5504 130.931 85.824 130.931 85.824C130.931 85.824 132.373 85.7712 133.334 88.128C132.959 86.8598 132.547 85.0049 133.218 84.7565Z" fill="#BC1B32"/>
<path d="M125.258 106.444C125.073 105.699 125.184 107.126 125.374 109.05C125.39 107.797 125.358 106.841 125.258 106.444Z" fill="#7A2E39"/>
<path d="M126.082 115.497C126.082 115.497 125.643 111.771 125.374 109.05C125.327 113.489 124.735 121.632 124.735 121.632C124.735 121.632 124.962 118.937 126.082 115.497Z" fill="#7A2E39"/>
<path d="M122.865 134.277L122.718 138.991L121.07 142.135L121.371 137.268L122.865 134.277Z" fill="#7A2E39"/>
<path d="M141.547 134.045L141.737 137.353L140.338 140.561L140.57 135.244L141.547 134.045Z" fill="#7A2E39"/>
<path d="M121.07 132.032L120.024 134.727L119.876 127.466L121.07 132.032Z" fill="#7A2E39"/>
<path opacity="0.78" d="M127.112 62.9737C129.837 61.8745 132.52 58.1754 131.279 57.3986C128.237 53.1076 127.392 48.4414 127.392 48.4414L120.885 49.3398C120.885 49.3398 119.517 55.5754 118.165 59.1636C115.355 61.4254 112.777 63.9778 112.265 65.4099C116.115 66.7997 121.186 65.3676 127.112 62.9737Z" fill="#931414"/>
<path d="M130.656 50.2436C133.714 51.2106 135.251 45.3185 136.63 42.3327C137.918 39.5425 137.602 37.7722 136.952 37.6084C136.297 37.4446 135.906 40.7685 135.219 42.0896C134.147 44.1506 130.809 45.3607 130.313 46.9355C129.827 48.5103 129.769 49.9635 130.656 50.2436Z" fill="#DB2C3D"/>
<path d="M133.329 44.7633C132.568 45.2177 131.808 45.5929 131.058 45.8889C130.704 46.2271 130.434 46.5706 130.318 46.9352C129.827 48.51 129.769 49.9632 130.661 50.2433C133.72 51.2103 135.257 45.3182 136.635 42.3324C136.714 42.158 136.788 41.9836 136.857 41.8198C135.985 42.8609 134.776 43.8913 133.329 44.7633Z" fill="#BC1B32"/>
<path opacity="0.78" d="M135.019 44.4941C134.084 48.0506 132.383 50.2331 131.543 49.3928C129.932 47.7864 135.019 44.4941 135.019 44.4941Z" fill="#931414"/>
<path d="M133.635 47.1465C133.012 48.827 131.924 49.8944 131.327 49.4505C129.88 48.3883 133.635 47.1465 133.635 47.1465Z" fill="#BC1B32"/>
<path d="M119.348 50.2436C116.29 51.2106 114.753 45.3185 113.374 42.3327C112.085 39.5425 112.402 37.7722 113.052 37.6084C113.707 37.4446 114.098 40.7685 114.784 42.0896C115.856 44.1506 119.195 45.3607 119.691 46.9355C120.182 48.5103 120.24 49.9635 119.348 50.2436Z" fill="#DB2C3D"/>
<path d="M116.675 44.7633C117.436 45.2177 118.196 45.5929 118.946 45.8889C119.3 46.2271 119.57 46.5706 119.686 46.9352C120.177 48.51 120.235 49.9632 119.342 50.2433C116.284 51.2103 114.747 45.3182 113.369 42.3324C113.289 42.158 113.216 41.9836 113.147 41.8198C114.018 42.8609 115.228 43.8913 116.675 44.7633Z" fill="#BC1B32"/>
<path opacity="0.78" d="M114.985 44.4941C115.92 48.0506 117.621 50.2331 118.46 49.3928C120.071 47.7864 114.985 44.4941 114.985 44.4941Z" fill="#931414"/>
<path d="M116.369 47.1465C116.992 48.827 118.08 49.8944 118.677 49.4505C120.124 48.3883 116.369 47.1465 116.369 47.1465Z" fill="#BC1B32"/>
<path d="M131.005 38.9185C133.075 42.9717 132.346 52.2723 129.637 52.2723L131.005 38.9185Z" fill="#4C141F"/>
<path d="M118.117 39.8174C116.511 43.5958 118.043 52.2359 120.51 52.2359L118.117 39.8174Z" fill="#4C141F"/>
<path d="M118.191 39.6853C117.235 43.1097 120.156 51.977 120.156 51.977L125.427 59.4387H126.774L130.307 50.8514C130.307 50.8514 131.654 43.2735 131.036 38.8979L127.334 37.4394C127.334 37.4394 126.858 39.4052 124.809 39.4052C122.76 39.4052 122.564 36.9902 122.564 36.9902L118.191 39.6853Z" fill="#DB2C3D"/>
<path d="M121.223 48.5364C119.76 42.2109 126.679 40.5991 122.464 37.0532L118.191 39.6849C117.235 43.1092 120.156 51.9766 120.156 51.9766L122.047 54.6558C121.651 52.838 121.725 50.703 121.223 48.5364Z" fill="#BC1B32"/>
<path d="M131.036 38.7866L127.334 37.3281C127.334 37.3281 127.265 37.6135 127.07 37.9623C123.842 40.6785 128.829 43.9073 129.071 47.9499C129.198 50.0743 129.172 52.0877 129.013 53.8844L130.307 50.7401C130.307 50.7401 131.654 43.1622 131.036 38.7866Z" fill="#BC1B32"/>
<path d="M119.163 47.9551C121.74 50.3384 129.351 49.4242 130.809 47.0938L130.788 47.4689L126.658 56.3257L123.716 56.4948L119.105 48.3462L119.163 47.9551Z" fill="#BC1B32"/>
<path d="M125.617 49.2448L126.848 50.4391L129.579 50.048L130.899 46.8984L125.617 49.2448Z" fill="#A0122D"/>
<path d="M125.797 49.1233L126.642 49.8843L130.814 46.9937L125.797 49.1233Z" fill="#6B0C23"/>
<path d="M124.603 49.3715L123.261 50.7138L120.293 50.6504L118.994 47.9077L124.603 49.3715Z" fill="#A0122D"/>
<path d="M124.36 49.3293L123.156 50.2223L119.062 48.0874L124.36 49.3293Z" fill="#6B0C23"/>
<path d="M119.818 51.3587C122.395 59.6078 125.195 63.159 126.827 64.2951C128.844 65.6955 130.582 64.0415 130.867 63.1431C130.867 63.1431 128.681 64.2634 128.29 62.1338C127.899 59.9988 130.476 50.5185 130.476 50.5185L130.983 46.7031C130.983 46.7031 126.684 53.0709 125.374 53.0709C124.413 53.0709 118.825 47.6966 118.825 47.6966L119.818 51.3587Z" fill="#5B1822"/>
<path d="M128.29 62.1336C128.031 60.7385 129.05 56.1991 129.779 53.2239C128.76 55.882 127.254 57.7686 125.717 57.8901C123.04 58.1015 120.108 53.5727 119.221 48.0769C118.973 47.8391 118.825 47.7017 118.825 47.7017L119.818 51.3638C122.395 59.6129 125.195 63.164 126.827 64.3002C128.844 65.7006 130.582 64.0466 130.867 63.1482C130.867 63.1429 128.681 64.2632 128.29 62.1336Z" fill="#4C141F"/>
<path d="M121.26 51.3955L124.941 53.8475L125.897 53.6943L128.232 52.0613L124.925 54.9467L121.26 51.3955Z" fill="#FFF7D4"/>
<path opacity="0.78" d="M125.707 55.5862C125.004 55.5334 123.573 52.0509 123.573 52.0509L125.031 52.722L126.267 52.685L127.276 51.5806C127.281 51.5806 126.225 55.6232 125.707 55.5862Z" fill="#931414"/>
<path d="M128.29 62.1338C127.899 59.9989 130.788 50.4604 130.788 50.4604L130.983 46.7031C130.983 46.7031 130.698 47.2844 130.26 48.1352L130.17 50.3494C130.17 50.3494 127.392 60.1151 127.788 62.2448C128.179 64.3797 130.202 63.7614 130.202 63.7614C130.133 63.9781 129.975 64.2212 129.753 64.4484C130.344 64.0838 130.751 63.5395 130.878 63.1431C130.867 63.1431 128.681 64.2634 128.29 62.1338Z" fill="#4C141F"/>
<path d="M128.739 64.2631C125.686 64.2631 120.943 56.6852 120.256 49.4666C119.416 48.4467 118.825 47.6963 118.825 47.6963L119.818 51.3584C122.395 59.6075 125.195 63.1587 126.827 64.2948C128.422 65.3993 129.837 64.6066 130.503 63.777C129.948 64.094 129.351 64.2631 128.739 64.2631Z" fill="#4C141F"/>
<path d="M154.06 26.8916C156.685 33.4338 150.928 37.7195 147.273 36.8106C141.901 35.4789 142.836 26.305 137.491 28.0595C132.145 29.8139 131.691 41.3658 131.691 41.3658C131.691 41.3658 130.836 43.1308 128.628 42.2007C126.42 41.2707 125.982 39.5691 126.135 38.454C126.293 37.339 129.341 24.0433 136.841 23.0921C147.331 21.7604 144.732 36.1553 150.215 34.1948C155.491 32.3029 152.776 27.1453 154.06 26.8916Z" fill="#3F1C22"/>
<path d="M124.851 48.0399C124.27 51.4696 124.133 52.3098 124.133 52.3098C124.133 52.3098 125.327 54.6667 125.617 54.6085C125.913 54.5504 126.552 52.4366 126.573 52.1407C126.589 51.8395 125.58 47.9395 125.385 47.7916C125.195 47.6436 124.941 47.5115 124.851 48.0399Z" fill="#DB2C3D"/>
<path d="M121.149 48.6846L122.644 49.4138L123.615 49.2447L121.149 48.6846Z" fill="#FFC943"/>
<path d="M128.512 48.3096L127.049 49.2819L126.251 49.1023L128.512 48.3096Z" fill="#FFC943"/>
<path d="M125.876 49.1494C127.513 46.6657 133.186 44.0815 133.186 44.0815L131.681 46.6551L125.876 49.1494Z" fill="#4C141F"/>
<path d="M124.529 49.3346C122.612 47.2631 116.427 45.7676 116.427 45.7676L118.312 48.0241L124.529 49.3346Z" fill="#4C141F"/>
<path d="M125.089 78.6846C125.089 78.6846 121.344 79.8366 118.904 80.0215C119.633 81.5276 120.452 83.0495 121.334 84.5292C121.371 80.9675 125.089 78.6846 125.089 78.6846Z" fill="#A0122D"/>
<path d="M137.121 80.8303C137.105 80.7881 137.089 80.7458 137.074 80.7088C137.074 80.7088 137.396 79.2239 137.76 77.332C137.01 78.4048 133.176 77.6227 133.054 77.6227C135.785 78.743 136.065 78.9649 137.121 80.8303Z" fill="#A0122D"/>
<path d="M126.943 58.3707C127.73 54.0797 129.325 51.0781 129.325 51.0781L128.681 56.7484L126.943 58.3707Z" fill="#4C141F"/>
<path d="M125.089 58.3445C123.726 55.734 121.809 54.1328 121.809 54.1328L123.246 57.6628L125.089 58.3445Z" fill="#4C141F"/>
<path d="M126.885 59.4703C126.05 57.2561 124.503 55.9297 124.503 55.9297L125.242 58.9366L126.885 59.4703Z" fill="#4C141F"/>
<path d="M126.177 59.5866C126.019 57.7476 127.006 55.3062 127.006 55.3062L127.202 59.1004L126.177 59.5866Z" fill="#4C141F"/>
<path d="M120.959 45.1647C124.397 46.6602 127.091 45.5399 128.438 44.3403C128.438 44.3403 126.568 46.285 124.735 46.6232C122.902 46.9614 120.959 45.1647 120.959 45.1647Z" fill="#A0122D"/>
<path d="M121.133 43.7539C124.614 44.7685 127.27 43.8173 128.586 42.8608C128.586 42.8608 126.769 44.4039 124.946 44.7263C123.124 45.0486 121.133 43.7539 121.133 43.7539Z" fill="#A0122D"/>
<path d="M154.06 26.8913C152.776 27.1397 155.491 32.3026 150.22 34.1892C144.737 36.155 147.341 21.7601 136.846 23.0865C129.346 24.0377 126.299 37.3335 126.14 38.4485C125.982 39.5635 126.425 41.2651 128.633 42.1952C129.225 42.4436 129.716 42.4964 130.123 42.4436C129.642 40.9216 129.378 39.2306 129.378 37.4497C129.378 30.7543 133.144 25.3271 137.792 25.3271C142.186 25.3271 145.788 30.1783 146.169 36.3664C146.507 36.5461 146.871 36.6993 147.278 36.7997C150.928 37.7192 156.685 33.4388 154.06 26.8913Z" fill="#51262C"/>
<path d="M152.834 34.8451C152.502 34.3113 152.163 33.7776 151.884 33.3179C151.82 33.3654 151.752 33.413 151.683 33.4606C151.894 34.0049 152.137 34.6337 152.375 35.2943C152.533 35.1516 152.686 35.0036 152.834 34.8451Z" fill="#3F1C22"/>
<path d="M128.58 31.0508C128.432 31.3678 128.29 31.6849 128.158 32.002C128.633 33.1646 129.145 34.3166 129.7 35.4475C129.198 34.0259 128.828 32.5516 128.58 31.0508Z" fill="#3F1C22"/>
<path d="M132.425 25.354C132.219 25.5495 132.019 25.7556 131.823 25.967C131.924 26.9605 132.13 27.9381 132.468 28.884C132.811 29.8458 133.318 30.7706 133.957 31.5791C134.073 31.3466 134.195 31.1247 134.322 30.908C133.83 30.2104 133.413 29.4706 133.101 28.6727C132.684 27.6158 132.452 26.4849 132.425 25.354Z" fill="#3F1C22"/>
<path d="M135.584 26.1415C135.959 25.0159 136.952 24.2126 137.987 23.6314C138.346 23.4305 138.721 23.2509 139.091 23.0659C138.526 23.0025 137.913 22.9972 137.242 23.0606C136.397 23.8903 135.795 24.9736 135.584 26.1415Z" fill="#3F1C22"/>
<path d="M147.885 33.8149C147.204 34.6023 146.427 35.3369 145.799 36.1665C145.968 36.2775 146.137 36.3779 146.322 36.4678C146.892 35.6222 147.473 34.7873 148.044 33.9471C147.996 33.9048 147.938 33.8625 147.885 33.8149Z" fill="#3F1C22"/>
<path d="M144.436 26.8706C144.362 26.7385 144.288 26.6117 144.209 26.4849C143.464 26.5377 142.72 26.5906 141.975 26.6434C142.794 26.654 143.649 26.6751 144.436 26.8706Z" fill="#3F1C22"/>
<path d="M143.855 152.097C144.204 152.588 144.542 153.08 144.864 153.571C145.234 152.155 145.609 150.738 145.979 149.322C145.239 150.221 144.537 151.151 143.855 152.097Z" fill="#7A2E39"/>
<path d="M142.45 148.942C142.392 148.72 142.329 148.498 142.271 148.276C141.996 148.508 141.769 148.794 141.589 149.105C141.811 149.375 142.028 149.65 142.239 149.919C142.714 148.73 143.179 147.541 143.602 146.336C143.216 147.203 142.836 148.075 142.45 148.942Z" fill="#7A2E39"/>
<path d="M147.421 155.299C147.352 155.626 147.283 155.954 147.225 156.282C147.167 156.594 147.114 156.9 147.072 157.212C147.178 157.402 147.273 157.592 147.373 157.777C147.331 156.953 147.352 156.128 147.421 155.299Z" fill="#7A2E39"/>
<path d="M141.119 148.529C141.246 148.682 141.373 148.836 141.5 148.994C141.537 148.519 141.637 148.043 141.806 147.594C141.573 147.9 141.346 148.212 141.119 148.529Z" fill="#7A2E39"/>
<path d="M146.713 156.583C146.871 155.304 147.125 154.041 147.384 152.778C147.389 152.747 147.394 152.715 147.405 152.688C147.077 151.922 146.781 151.087 146.533 150.184C145.984 151.325 145.44 152.472 144.891 153.613C145.551 154.612 146.158 155.605 146.713 156.583Z" fill="#7A2E39"/>
<path d="M152.94 160.726C156.569 161.735 157.577 165.947 157.577 165.947H159.141C158.111 163.3 156.315 161.323 152.94 160.726Z" fill="#382428"/>
<path d="M153.352 160.779C153.262 160.763 153.178 160.742 153.088 160.726C153.215 160.763 153.336 160.811 153.458 160.853C153.426 160.827 153.389 160.805 153.352 160.779Z" fill="#FFA436"/>
<path d="M155.211 161.366C156.806 162.481 157.863 164.061 158.586 165.942H159.289C158.502 163.918 157.26 162.29 155.211 161.366Z" fill="#FFA436"/>
<path d="M155.359 83.2871C150.162 78.3884 150.537 74.1978 150.537 74.1978C150.537 74.1978 149.343 77.1148 151.25 80.1851C152.105 81.5643 155.359 83.2871 155.359 83.2871Z" fill="#BC1B32"/>
<path d="M141.748 27.5097L139.926 25.5703L139.587 23.7207L138.357 25.8556L138.859 26.8914L141.748 27.5097Z" fill="#3F1C22"/>
<path d="M95.6113 26.8916C92.9862 33.4338 98.7434 37.7195 102.398 36.8106C107.77 35.4789 106.835 26.305 112.18 28.0595C117.525 29.8139 117.98 41.3658 117.98 41.3658C117.98 41.3658 118.835 43.1308 121.043 42.2007C123.251 41.2707 123.689 39.5691 123.536 38.454C123.378 37.339 120.33 24.0433 112.83 23.0921C102.34 21.7604 104.939 36.1553 99.4564 34.1948C94.1852 32.3029 96.8947 27.1453 95.6113 26.8916Z" fill="#3F1C22"/>
<path d="M95.6112 26.8913C96.8947 27.1397 94.1798 32.3026 99.451 34.1892C104.934 36.155 102.33 21.7601 112.825 23.0865C120.325 24.0377 123.372 37.3335 123.531 38.4485C123.689 39.5635 123.251 41.2651 121.038 42.1952C120.446 42.4436 119.955 42.4964 119.548 42.4436C120.029 40.9216 120.293 39.2306 120.293 37.4497C120.293 30.7543 116.527 25.3271 111.879 25.3271C107.485 25.3271 103.882 30.1783 103.502 36.3664C103.164 36.5461 102.8 36.6993 102.393 36.7997C98.7433 37.7192 92.9861 33.4388 95.6112 26.8913Z" fill="#51262C"/>
<path d="M96.8365 34.8451C97.1693 34.3113 97.5073 33.7776 97.7873 33.3179C97.8506 33.3654 97.9193 33.413 97.988 33.4606C97.7767 34.0049 97.5337 34.6337 97.2961 35.2943C97.1429 35.1516 96.9844 35.0036 96.8365 34.8451Z" fill="#3F1C22"/>
<path d="M121.091 31.0508C121.238 31.3678 121.381 31.6849 121.513 32.002C121.038 33.1646 120.525 34.3166 119.971 35.4475C120.478 34.0259 120.842 32.5516 121.091 31.0508Z" fill="#3F1C22"/>
<path d="M117.251 25.354C117.457 25.5495 117.657 25.7556 117.853 25.967C117.752 26.9605 117.546 27.9381 117.208 28.884C116.865 29.8458 116.358 30.7706 115.719 31.5791C115.603 31.3466 115.481 31.1247 115.354 30.908C115.846 30.2104 116.263 29.4706 116.575 28.6727C116.987 27.6158 117.219 26.4849 117.251 25.354Z" fill="#3F1C22"/>
<path d="M114.087 26.1415C113.712 25.0159 112.719 24.2126 111.684 23.6314C111.325 23.4305 110.95 23.2509 110.58 23.0659C111.145 23.0025 111.758 22.9972 112.428 23.0606C113.274 23.8903 113.876 24.9736 114.087 26.1415Z" fill="#3F1C22"/>
<path d="M101.786 33.8149C102.467 34.6023 103.243 35.3369 103.872 36.1665C103.703 36.2775 103.534 36.3779 103.349 36.4678C102.779 35.6222 102.198 34.7873 101.627 33.9471C101.68 33.9048 101.733 33.8625 101.786 33.8149Z" fill="#3F1C22"/>
<path d="M105.235 26.8706C105.309 26.7385 105.383 26.6117 105.462 26.4849C106.206 26.5377 106.951 26.5906 107.696 26.6434C106.877 26.654 106.027 26.6751 105.235 26.8706Z" fill="#3F1C22"/>
<path d="M107.923 27.5097L109.745 25.5703L110.083 23.7207L111.314 25.8556L110.812 26.8914L107.923 27.5097Z" fill="#3F1C22"/>
<path d="M116.062 158.232C116.004 158.221 115.951 158.216 115.899 158.226C110.707 159.479 109.856 165.625 109.856 165.625H111.969C111.969 165.625 111.964 160.176 116.062 158.232Z" fill="#382428"/>
<path d="M113.664 159.199C110.448 161.339 109.851 165.625 109.851 165.625H110.522C110.527 165.625 111.034 161.635 113.664 159.199Z" fill="#FFA436"/>
<path d="M115.899 158.227C115.825 158.242 115.756 158.269 115.682 158.285C115.502 158.427 115.339 158.586 115.18 158.744C115.45 158.554 115.74 158.38 116.062 158.232C116.004 158.216 115.951 158.216 115.899 158.227Z" fill="#FFA436"/>
<path d="M91.4386 57.8691C90.7097 59.8878 92.1675 62.5829 92.1675 62.5829C92.1675 62.5829 91.6076 64.2105 90.3188 65.3308L91.9615 67.7088C92.3365 65.9438 93.5091 62.2024 93.5091 62.2024C92.4421 61.5049 91.4386 57.8691 91.4386 57.8691Z" fill="#DB2C3D"/>
<path d="M86.2254 64.3954C84.9895 61.5417 84.6356 60.1519 84.6356 60.1519C84.6356 60.1519 85.1216 56.5056 84.9525 55.1211C84.9525 55.1211 85.8504 55.7764 85.5124 60.1361C85.5124 60.1361 86.4473 62.345 87.0071 63.3173C87.567 64.2844 86.2254 64.3954 86.2254 64.3954Z" fill="#DB2C3D"/>
<path d="M85.5178 57.4516C85.5495 57.2825 85.5812 57.1081 85.6076 56.939C85.5759 57.0816 85.5442 57.2613 85.5178 57.4516Z" fill="#FFC84D"/>
<path d="M92.4738 58.9734C92.2044 58.0433 91.935 57.1079 91.4808 56.2519C91.3699 56.0458 91.2484 55.8344 91.2114 55.6019C91.185 55.4328 91.2062 55.2584 91.1639 55.0893C91.1111 54.8779 90.9579 54.7194 90.8259 54.545C86.8012 49.1495 88.4174 45.8414 88.2853 45.8256C88.6445 45.0752 89.141 44.3935 89.7431 43.8228C88.7871 44.3988 88.1163 45.3658 87.6938 46.3963C87.2712 47.4268 87.0758 48.5365 86.8804 49.6357C86.5054 51.7653 86.1304 53.9901 86.7695 56.051C86.6057 56.088 86.442 56.1197 86.273 56.1567C86.4631 56.5055 86.5899 56.886 86.648 57.2718C86.4103 57.7209 86.3152 58.2441 86.3839 58.7461C86.1673 58.9417 85.7923 58.799 85.6444 58.5506C85.4754 58.26 85.4701 57.8319 85.5177 57.4409C85.3592 58.2547 85.1479 59.0526 85.1691 59.914C85.1955 61.2668 85.6497 62.6514 86.611 63.6026C87.5723 64.5538 89.0829 64.9924 90.3399 64.4904C91.09 64.1891 91.6921 63.5973 92.1358 62.9209C92.4738 62.4083 92.7379 61.8376 92.8118 61.2246C92.9016 60.4742 92.6851 59.7132 92.4738 58.9734Z" fill="#FFC84D"/>
<path d="M85.8293 57.9589C85.8558 57.811 85.8875 57.663 85.9086 57.5098C85.8769 57.6419 85.8505 57.7951 85.8293 57.9589Z" fill="#FFA436"/>
<path d="M90.9738 59.7133C90.7943 59.5706 90.5777 59.4279 90.5513 59.2007C90.5302 58.9734 90.7256 58.7621 90.6939 58.5295C90.6569 58.2495 90.3242 58.1173 90.1763 57.8795C90.0865 57.7316 90.0706 57.5519 90.0231 57.3828C89.9544 57.1186 89.8013 56.8861 89.6534 56.6588C89.1833 55.9296 88.053 54.6137 87.9157 54.582C88.2326 55.454 88.4808 56.347 88.6604 57.256C88.7185 57.5466 88.766 57.8478 88.7027 58.1385C88.6393 58.4291 88.4333 58.7039 88.1481 58.7673C88.0213 59.0157 88.185 59.3381 88.0583 59.5864C87.9843 59.7344 87.8312 59.8189 87.715 59.9352C87.5988 60.0515 87.5354 60.2628 87.6621 60.3685C86.9332 60.6539 86.5371 61.4835 86.5001 62.2656C86.4843 62.5616 86.5213 62.8628 86.6111 63.1429C86.6639 63.2063 86.7167 63.2697 86.7748 63.3278C87.1392 63.6925 87.4773 63.925 87.8048 64.316C88.6076 64.6701 89.6217 64.7494 90.2449 64.3689C90.921 63.9567 91.6129 62.9579 91.9615 62.0649C91.9457 61.1771 91.6605 60.2576 90.9738 59.7133Z" fill="#FFA436"/>
<path d="M89.7907 64.1943C87.3346 64.596 86.9332 62.5403 88.1164 61.6208C89.3048 60.7066 89.0671 59.6074 89.0671 59.6074C89.0671 59.6074 90.6622 60.6273 90.8048 61.9537C90.9421 63.2801 90.6252 64.057 89.7907 64.1943Z" fill="#FFF39F"/>
<path d="M86.3099 65.7537C85.0211 64.1842 84.3767 63.2277 84.3767 63.2277C84.3767 63.2277 86.0616 60.1416 86.1989 59.2168C86.1989 59.2168 86.7852 61.0135 85.2746 63.0058L86.6479 64.607L86.3099 65.7537Z" fill="#DB2C3D"/>
<path d="M86.2783 67.6876C85.4385 66.9002 84.736 65.9754 84.736 65.9754C84.736 65.9754 84.567 65.1352 84.7941 65.077C85.0159 65.0189 87.3452 64.6543 87.3452 64.6543C87.3452 64.6543 86.9544 65.299 85.6339 65.7746L86.4473 66.4457L86.2783 67.6876Z" fill="#DB2C3D"/>
<path d="M180.955 87.6097L177.532 86.9914C177.532 86.9914 175.567 87.2715 173.212 86.3203L173.83 88.6191C176.576 89.2373 178.652 91.145 178.652 91.145L182.523 90.2467L183.59 89.0101L180.955 87.6097Z" fill="#DB2C3D"/>
<path d="M185.756 91.7635C183.823 91.6578 182.993 92.0383 182.993 92.0383C182.993 92.0383 183.743 90.3948 184.927 90.4212C186.11 90.4529 185.756 91.7635 185.756 91.7635Z" fill="#DB2C3D"/>
<path d="M180.363 87.6151C182.418 87.7789 183.622 87.1025 183.622 87.1025C183.622 87.1025 186.3 89.0367 187.325 88.9045C187.325 88.9045 186.089 90.3789 184.557 89.2058C182.814 87.8741 181.256 89.8082 179.872 89.7183C178.488 89.6338 177.643 87.4038 180.363 87.6151Z" fill="#DB2C3D"/>
</svg>
