<svg width="285" height="190" viewBox="0 0 285 190" fill="none" xmlns="http://www.w3.org/2000/svg">
<rect width="285" height="190" fill="#3091BE"/>
<path d="M210.112 56.9688C212.024 62.6599 213.622 69.5833 214.937 75.9614C205.892 82.3172 182.814 83.8109 177.616 82.9072C172.418 82.0035 174.412 72.2421 174.972 69.0082C175.54 65.7668 181.881 65.2141 192.628 63.2349C203.39 61.2558 210.112 56.9688 210.112 56.9688Z" fill="#79C5E8"/>
<path d="M114.021 70.6587C116.284 73.8777 112.58 84.0798 109.525 86.2307C106.478 88.3742 77.2386 86.8506 69.4937 82.8325C70.6214 76.3125 72.2346 69.404 73.8105 63.6606H73.818C74.7739 63.825 88.6207 66.2373 96.993 67.6937C105.365 69.1575 111.751 67.4397 114.021 70.6587Z" fill="#79C5E8"/>
<path d="M137.502 53.6453C165.435 53.7573 200.044 43.9436 202.927 45.0938C202.927 45.0938 178.333 54.8701 146.51 56.6701C95.544 59.5604 78.5156 50.8072 78.5156 50.8072C78.5156 50.8072 109.563 53.5258 137.502 53.6453Z" fill="#96D3EF"/>
<path d="M68 97.807C68 97.807 114.171 103.774 116.516 138.488C115.635 138.115 114.761 137.734 113.887 137.331C107.33 107.464 68.0672 99.2634 68.0672 99.2634C68.0299 98.8004 68.0075 98.3149 68 97.807Z" fill="#79C5E8"/>
<path d="M216.796 89.7484C215.773 90.1368 192.382 99.4277 187.945 131.177C187.027 131.856 186.071 132.528 185.107 133.178C184.809 99.6293 213.675 88.6057 216.938 87.4705C216.961 88.1875 216.908 88.9493 216.796 89.7484Z" fill="#79C5E8"/>
<path d="M68.0671 99.2634C68.0671 99.2634 107.329 107.464 113.887 137.331C90.5924 126.703 72.623 108.666 69.277 103.909C68.5899 102.945 68.209 101.34 68.0671 99.2634Z" fill="#96D3EF"/>
<path d="M216.796 89.7484C215.445 100.496 205.048 118.555 187.945 131.177C192.382 99.4277 215.773 90.1368 216.796 89.7484Z" fill="#96D3EF"/>
<path d="M78.5158 50.8006C78.5158 50.8006 95.5516 59.5538 146.51 56.6635C178.333 54.8635 202.927 45.0872 202.927 45.0872C205.691 46.185 208.073 50.8753 210.112 56.9697C210.112 56.9697 203.39 61.2566 192.636 63.2358C181.881 65.2224 175.54 65.7677 174.98 69.009C174.42 72.2429 172.418 82.0044 177.624 82.9081C182.822 83.8118 205.892 82.318 214.944 75.9623C215.631 79.2933 216.236 82.4749 216.774 85.2607C216.901 85.9328 216.961 86.6722 216.961 87.4713C213.697 88.6066 184.831 99.6302 185.13 133.179C176.362 139.072 166.018 143.478 154.352 144.89C141.267 146.466 128.279 143.486 116.531 138.497C114.186 103.783 68.0149 97.8154 68.0149 97.8154H68.0075C67.9253 93.8047 68.5378 88.4721 69.5087 82.8408C77.2536 86.8664 106.493 88.3825 109.54 86.2391C112.587 84.0881 116.299 73.886 114.036 70.667C111.773 67.4481 105.38 69.1584 97.008 67.702C88.6357 66.2457 74.7964 63.8408 73.833 63.669H73.8255C75.7375 56.6784 77.6195 51.428 78.5158 50.8006Z" fill="#ECF9FF"/>
<path d="M92.2131 97.0751C91.8397 96.6793 91.1451 96.7614 90.8016 97.1348C90.2862 97.6875 90.2862 98.3149 90.107 99.002C89.9502 99.592 89.7186 100.16 89.4274 100.69C89.0763 101.34 89.8755 102.116 90.5028 101.676C91.8322 100.735 93.6994 98.6584 92.2131 97.0751Z" fill="#96D3EF"/>
<path d="M85.1703 94.4088C84.7371 94.0802 84.0649 94.2744 83.7886 94.7075C83.3778 95.3424 83.4824 95.9548 83.4151 96.6643C83.3629 97.2693 83.2284 97.8668 83.0342 98.4418C82.7953 99.1439 83.7214 99.7712 84.2591 99.2335C85.4093 98.0833 86.8955 95.7233 85.1703 94.4088Z" fill="#96D3EF"/>
<path d="M97.7846 99.1514C96.7689 99.0991 96.1789 99.9057 95.671 100.66C95.1781 101.377 94.8495 102.176 94.6553 103.02C94.379 104.2 96.0519 105.081 96.6718 103.924C96.993 103.326 97.3813 102.766 97.7772 102.221C98.2402 101.586 98.8676 101.108 98.8302 100.249C98.8004 99.6443 98.3896 99.1887 97.7846 99.1514Z" fill="#96D3EF"/>
<path d="M103.483 102.512C102.221 103.132 101.19 104.469 100.884 105.828C100.705 106.627 101.706 106.919 102.206 106.441C102.557 106.097 102.96 105.783 103.356 105.492C103.857 105.126 104.402 104.887 104.85 104.447C105.709 103.61 104.574 101.975 103.483 102.512Z" fill="#96D3EF"/>
<path d="M107.18 106.284C106.314 106.426 105.881 107.098 105.283 107.666C105.559 107.404 104.88 108.061 105.052 107.875C105.014 107.912 104.984 107.949 104.947 107.987C104.902 108.024 104.865 108.054 104.828 108.091C104.506 108.196 104.252 108.48 104.193 108.816C104.096 109.353 104.462 109.764 104.954 109.906C105.052 109.936 105.164 109.936 105.268 109.936C105.754 110.011 106.276 109.824 106.725 109.563C107.456 109.144 108.338 108.577 108.472 107.68C108.577 106.956 107.972 106.157 107.18 106.284Z" fill="#96D3EF"/>
<path d="M110.601 110.227C110.078 110.451 109.69 110.84 109.227 111.153C109.174 111.183 109.159 111.198 109.144 111.206C109.077 111.236 109.01 111.258 108.943 111.28C108.935 111.28 108.771 111.318 108.749 111.325C108.651 111.333 108.547 111.333 108.442 111.333C107.979 111.325 107.583 111.781 107.509 112.199C107.404 112.811 107.815 113.26 108.368 113.416C109.712 113.797 111.504 113.185 112.117 111.87C112.543 110.952 111.594 109.802 110.601 110.227Z" fill="#96D3EF"/>
<path d="M112.61 114.88C112.304 114.977 112.042 115.186 111.773 115.358C111.766 115.358 111.497 115.493 111.46 115.508C111.288 115.582 111.101 115.642 110.922 115.694C110.257 115.903 109.944 116.71 110.175 117.33C110.429 118.002 111.153 118.286 111.811 118.077C112.55 117.845 113.499 117.472 113.999 116.844C114.791 115.859 113.805 114.477 112.61 114.88Z" fill="#96D3EF"/>
<path d="M182.292 125.717C181.859 125.515 181.485 125.687 181.037 125.717C180.716 125.74 180.417 125.725 180.096 125.695C179.155 125.613 178.931 126.897 179.842 127.129C180.245 127.233 180.664 127.353 181.082 127.345C181.575 127.33 182.239 127.271 182.531 126.822C182.785 126.449 182.747 125.926 182.292 125.717Z" fill="#96D3EF"/>
<path d="M184.555 121.811C184.286 121.087 183.569 120.885 182.882 121.049C181.978 121.266 181.089 121.453 180.156 121.423C179.7 121.408 179.304 121.871 179.23 122.282C179.125 122.879 179.528 123.335 180.074 123.484C181.306 123.82 182.553 123.828 183.785 123.491C184.473 123.29 184.786 122.423 184.555 121.811Z" fill="#96D3EF"/>
<path d="M184.271 114.066C183.845 113.849 183.33 113.82 182.867 113.737L181.418 113.484C180.006 113.237 179.625 115.433 181.037 115.672L182.314 115.896C182.829 115.986 183.39 116.157 183.92 116.09C184.973 115.971 185.219 114.544 184.271 114.066Z" fill="#96D3EF"/>
<path d="M187.497 107.173C186.295 106.896 185.055 106.732 183.838 106.523C182.725 106.329 182.419 108.061 183.539 108.248C184.756 108.457 185.974 108.726 187.206 108.875C188.304 109.01 188.58 107.419 187.497 107.173Z" fill="#96D3EF"/>
<path d="M190.171 102.557C189.79 102.281 189.469 102.139 188.998 102.086C188.61 102.042 188.222 101.997 187.833 101.952C186.646 101.81 186.347 103.513 187.512 103.782C187.856 103.864 188.192 103.939 188.535 104.021C189.036 104.14 189.409 104.14 189.917 103.998C190.507 103.819 190.671 102.916 190.171 102.557Z" fill="#96D3EF"/>
<path d="M194.57 98.0908C194.144 97.6651 193.659 97.4261 193.166 97.0825C192.718 96.7689 192.292 96.4403 191.814 96.1714C191.179 95.8204 190.746 96.7091 191.179 97.1647C191.553 97.5456 191.844 98.0012 192.18 98.4194C192.673 99.0244 193.106 99.3978 193.868 99.5845C194.764 99.8086 195.123 98.636 194.57 98.0908Z" fill="#96D3EF"/>
<path d="M199.656 95.6934C199.507 95.0287 199.268 94.5433 198.767 94.0802C198.312 93.6545 197.677 93.5574 197.08 93.5425C196.146 93.5275 195.937 94.9989 196.766 95.3275C196.796 95.3424 196.997 95.447 197.02 95.447L197.027 95.4544C197.027 95.4544 197.109 95.5441 197.132 95.5739C197.139 95.5814 197.139 95.5814 197.139 95.5889C197.162 95.6337 197.177 95.6785 197.192 95.7233C197.251 95.8876 197.319 96.0519 197.393 96.2162C197.61 96.7017 198.05 97.0228 198.603 96.9706C199.178 96.9108 199.798 96.3133 199.656 95.6934Z" fill="#96D3EF"/>
<path d="M80.9206 54.1756C80.6816 53.7424 80.0543 53.6154 79.6211 53.7722C79.1207 53.959 78.8966 54.4146 78.9041 54.9224C78.9116 55.5871 78.5755 56.1099 78.3066 56.7896C77.7166 58.2908 79.636 59.665 80.7414 58.3505C81.7571 57.1331 81.6525 55.505 80.9206 54.1756Z" fill="#96D3EF"/>
<path d="M85.7378 55.8186C85.3719 55.027 84.1769 55.251 84.2292 56.1622C84.2292 56.1996 84.2292 56.2294 84.2292 56.2518C84.1918 56.3564 84.162 56.4684 84.1246 56.5804C84.0798 56.8418 84.0126 57.0958 83.9454 57.3497C83.7736 57.9622 83.4823 58.5895 83.4002 59.2243C83.1612 61.0616 85.8424 61.5321 86.2308 59.7173C86.5071 58.4476 86.2756 56.9688 85.7378 55.8186Z" fill="#96D3EF"/>
<path d="M93.3409 59.65C93.2363 59.0152 93.184 58.3355 93.1915 57.6858C93.199 56.8568 91.8472 56.6178 91.5708 57.402C91.0256 58.948 90.3012 60.9944 91.7725 62.2864C92.3774 62.8242 93.5873 62.4881 93.6471 61.6068C93.6919 60.8898 93.4604 60.3297 93.3409 59.65Z" fill="#96D3EF"/>
<path d="M103.08 61.9653C102.863 61.1363 102.632 60.4492 102.886 59.6052C103.117 58.8285 101.922 58.3057 101.459 58.9405C100.645 60.0459 100.541 61.196 100.63 62.5329C100.675 63.22 101.34 63.7353 102.019 63.6756C102.893 63.586 103.289 62.742 103.08 61.9653Z" fill="#96D3EF"/>
<path d="M111.064 62.8391C110.929 61.8308 110.69 60.7927 110.773 59.7695C110.892 58.3729 108.905 57.992 108.607 59.3886C108.345 60.606 108.383 61.8533 108.577 63.0781C108.659 63.6009 109.032 64.1312 109.607 64.1909C109.839 64.2133 110.041 64.2208 110.257 64.1312C110.765 63.922 111.146 63.4067 111.064 62.8391Z" fill="#96D3EF"/>
<path d="M116.792 61.1213C116.747 60.3595 116.725 59.6052 116.568 58.8583C116.269 57.4318 114.208 57.5663 114.283 59.0824C114.35 60.5238 113.738 62.0848 114.253 63.4814C114.701 64.6988 116.725 64.6241 116.867 63.2349C116.934 62.5329 116.83 61.8308 116.792 61.1213Z" fill="#96D3EF"/>
<path d="M123.708 61.6217C123.275 60.7703 122.737 60.2176 122.08 59.5529C121.617 59.0824 120.781 59.6949 121.042 60.2849C121.318 60.9048 121.43 61.6815 121.512 62.3536C121.639 63.347 121.557 64.3328 122.528 64.8855C122.834 65.0647 123.342 65.0199 123.619 64.7884C124.612 63.9669 124.224 62.6449 123.708 61.6217Z" fill="#96D3EF"/>
<path d="M129.646 59.2169C128.921 58.3505 127.696 59.2393 128.234 60.2102C128.451 60.606 128.593 61.0168 128.63 61.4724C128.682 62.0923 128.436 62.6449 128.847 63.1976C129.16 63.6159 129.758 63.7428 130.191 63.4291C131.558 62.4582 130.475 60.2027 129.646 59.2169Z" fill="#96D3EF"/>
<path d="M138.347 62.1819C138.055 61.5844 137.637 61.0765 137.256 60.5388C136.905 60.0459 136.554 59.5529 136.151 59.0899C135.344 58.1638 134.052 59.1048 134.612 60.1728C135.143 61.1811 135.359 62.4881 136.106 63.3619C136.479 63.8026 137.017 64.0416 137.592 63.825C138.197 63.6009 138.645 62.8093 138.347 62.1819Z" fill="#96D3EF"/>
<path d="M145.561 60.9944C145.098 60.1878 144.635 59.3812 144.194 58.5671C143.739 57.7157 142.432 58.4775 142.738 59.3364C143.022 60.1355 143.336 60.9197 143.642 61.7114C143.963 62.5329 144.209 63.6009 144.934 64.1685C145.464 64.5793 146.472 64.3702 146.525 63.586C146.592 62.5927 146.032 61.8234 145.561 60.9944Z" fill="#96D3EF"/>
<path d="M151.394 61.1214C151.08 60.2699 150.774 59.411 150.408 58.582C149.945 57.5215 148.257 58.1339 148.72 59.2094C149.079 60.0459 149.378 60.9048 149.676 61.7636C149.953 62.5404 150.117 63.4814 150.894 63.8922C151.372 64.1461 151.85 63.7876 151.977 63.332C152.178 62.6001 151.648 61.7861 151.394 61.1214Z" fill="#96D3EF"/>
<path d="M159.147 59.904C158.945 59.3364 158.855 58.7015 158.885 58.104C158.93 57.163 157.668 56.9091 157.421 57.8501C157.07 59.187 156.943 61.435 158.086 62.4284C158.594 62.8615 159.617 62.6076 159.654 61.8533C159.699 61.1064 159.386 60.5911 159.147 59.904Z" fill="#96D3EF"/>
<path d="M167.026 58.7016C166.645 57.8576 166.309 56.9912 165.995 56.1249C165.644 55.1465 164.263 55.7066 164.509 56.6776C164.711 57.4842 164.95 58.2758 165.196 59.0675C165.458 59.9115 165.495 60.9496 166.077 61.6367C166.555 62.2118 167.676 62.1446 167.773 61.2558C167.87 60.3148 167.399 59.538 167.026 58.7016Z" fill="#96D3EF"/>
<path d="M172.889 59.0152C172.665 58.0592 172.433 57.1107 172.239 56.1547C172 54.9971 170.252 55.1017 170.372 56.334C170.484 57.4841 170.559 58.6493 170.872 59.7695C171.037 60.3372 171.739 60.5985 172.261 60.4044C172.851 60.1803 173.023 59.5903 172.889 59.0152Z" fill="#96D3EF"/>
<path d="M180.895 58.0443C180.664 57.4244 180.23 56.8941 179.842 56.3639C179.394 55.7365 178.983 55.0643 178.632 54.3772C178.251 53.6304 177.049 54.0262 177.377 54.8403C177.661 55.5348 178.02 56.1921 178.341 56.8643C178.662 57.5364 178.879 58.2609 179.259 58.9032C179.431 59.1944 179.79 59.299 180.103 59.2915C180.372 59.2841 180.544 59.1571 180.723 58.9704C180.962 58.7239 181.007 58.3431 180.895 58.0443Z" fill="#96D3EF"/>
<path d="M186.482 55.6992C186.205 54.9449 185.802 54.2129 185.339 53.5557C184.6 52.4952 182.986 53.6304 183.703 54.7058C184.062 55.2436 184.338 55.8038 184.562 56.4162C184.824 57.1182 184.786 58.0144 185.57 58.3505C185.951 58.5148 186.287 58.4028 186.571 58.1339C187.236 57.5066 186.743 56.4236 186.482 55.6992Z" fill="#96D3EF"/>
<path d="M193.144 55.7888C193.121 55.0345 192.374 54.4818 191.934 53.9216C191.433 53.2793 191 52.5847 190.656 51.8454C190.096 50.628 188.132 51.3375 188.685 52.5773C189.058 53.4138 189.514 54.2129 190.052 54.9598C190.612 55.7515 191.276 56.7672 192.337 56.7672C192.845 56.7746 193.151 56.2444 193.144 55.7888Z" fill="#96D3EF"/>
<path d="M198.723 53.5557C198.745 52.8014 197.908 52.3308 197.46 51.823C197.027 51.3301 196.691 50.7251 196.407 50.1351C195.929 49.1492 194.353 49.6944 194.787 50.74C195.1 51.4944 195.481 52.2114 195.937 52.8985C196.415 53.6154 196.96 54.5863 197.938 54.5191C198.454 54.4743 198.715 54.0262 198.723 53.5557Z" fill="#96D3EF"/>
<path d="M203.271 51.9425C203.114 51.3226 202.651 50.6952 202.27 50.1799C201.942 49.7467 201.553 49.3359 201.113 49.0148C200.201 48.3576 199.089 49.6347 199.977 50.3591C200.291 50.6131 200.537 50.9043 200.769 51.2404C201.113 51.7333 201.292 52.3234 201.643 52.8014C202.293 53.7125 203.525 52.9283 203.271 51.9425Z" fill="#96D3EF"/>
</svg>
