<svg width="285" height="190" viewBox="0 0 285 190" fill="none" xmlns="http://www.w3.org/2000/svg">
<rect width="285" height="190" fill="#DDEAF2"/>
<path fill-rule="evenodd" clip-rule="evenodd" d="M135.365 17.6968C150.677 20.657 144.461 36.8312 176.028 32.1213C188.623 30.2374 208.591 41.3791 210.852 58.683C212.816 73.9152 201.783 66.9988 219.544 83.3073C236.795 99.1044 237.279 141.518 211.928 146.873C190.237 151.448 192.767 180.566 145.295 180.566C129.82 180.566 118.544 175.56 109.69 176.906C84.3933 180.727 76.7238 170.071 69.7265 156.668C67.0625 151.582 65.9856 138.933 68.9194 130.51C76.3742 109.035 54.5758 100.854 55.0063 88.3942C55.9213 63.3664 70.669 62.7206 93.7056 48.2421C111.575 37.0464 102.909 11.4267 135.365 17.6968Z" fill="#F7FCFF"/>
<path fill-rule="evenodd" clip-rule="evenodd" d="M231.021 98.3747C231.021 89.2992 213.147 92.1624 224.832 91.4697C231.761 91.0769 235.294 82.0247 222.638 82.1169C209.221 82.2092 189.361 88.4905 190.146 94.7261C190.909 100.615 231.021 107.704 231.021 98.3747Z" fill="#87ADCF"/>
<path fill-rule="evenodd" clip-rule="evenodd" d="M85.3489 77.5449C78.0516 80.2467 66.6893 101.885 69.8534 106.065C71.8393 108.698 80.8921 108.651 86.6885 104.587C87.5889 99.8526 86.573 87.4976 85.4643 82.8331C85.187 81.6322 84.7252 77.7758 85.3489 77.5449Z" fill="#87ADCF"/>
<path fill-rule="evenodd" clip-rule="evenodd" d="M167.146 66.0211C165.113 62.9498 163.843 60.5021 158.255 61.1252C154.467 61.5406 145.045 62.5802 142.898 58.5156C129.434 32.9515 77.728 48.4238 82.2312 95.2571C86.1571 135.855 132.552 150.866 160.01 133.638C179.339 121.491 185.782 105.279 197.305 98.4671C202.293 95.5112 220.791 93.9175 200.469 89.5071C174.789 83.9416 166.822 102.67 143.336 102.67C137.285 102.67 128.995 99.183 124.815 94.0335C123.337 92.2321 132.759 95.0958 142.089 90.8467C149.894 87.2671 157.469 76.6212 160.217 73.9652C163.543 70.7552 168.023 67.3607 167.146 66.0211Z" fill="#9BC0E0"/>
<path fill-rule="evenodd" clip-rule="evenodd" d="M95.2789 128.05C93.4084 130.937 92.0921 135.509 96.3179 136.34C109.712 138.95 116.455 129.066 116.271 116.734C116.248 115.995 113.292 108.282 108.627 103.524C105.255 100.083 101.698 98.0976 99.0429 98.1208C100.105 107.751 98.6739 122.854 95.2789 128.05Z" fill="#87ADCF"/>
<path fill-rule="evenodd" clip-rule="evenodd" d="M138.51 92.1622C127.24 72.4403 98.7204 87.2436 116.664 104.933C138.464 126.455 171.395 99.8291 172.919 93.1091C160.055 99.9909 144.214 106.341 131.813 99.5291C129.18 98.0741 126.617 96.3887 124.746 93.5709C124.815 93.5714 132.76 94.0791 138.51 92.1622Z" fill="#C1D8E3"/>
<path fill-rule="evenodd" clip-rule="evenodd" d="M97.4956 58.9775C93.2465 59.9934 92.7151 65.582 94.401 66.1135C95.371 66.4134 97.6342 64.8435 99.1351 60.617C99.5743 59.3703 98.1656 58.8162 97.4956 58.9775ZM86.1111 75.628C84.7257 76.7594 85.5338 78.9303 86.2497 78.8381C86.6652 78.769 87.2198 77.7758 87.012 75.9285C86.9419 75.3739 86.3188 75.443 86.1111 75.628ZM87.5197 94.7031C86.0188 96.6431 87.7274 99.2985 88.6742 98.929C89.2056 98.7445 89.6443 97.243 88.8129 94.8644C88.582 94.149 87.7506 94.4031 87.5197 94.7031ZM84.5865 91.7008C83.201 92.8321 84.0092 95.003 84.7483 94.9108C85.1637 94.8417 85.7183 93.8485 85.5106 92.0013C85.441 91.4467 84.8174 91.5163 84.5865 91.7008ZM86.9883 85.6044C84.402 87.7522 85.926 91.7936 87.2883 91.5859C88.0506 91.4704 89.0897 89.6232 88.6969 86.1822C88.582 85.1426 87.4043 85.2349 86.9883 85.6044ZM92.9001 69.8549C90.0365 71.2635 90.5215 75.3281 91.8147 75.4435C92.5538 75.5126 93.916 74.0349 94.332 70.7785C94.4474 69.8085 93.3619 69.6466 92.9001 69.8549ZM91.2142 64.7048C88.951 65.2362 88.651 68.238 89.5747 68.5153C90.0829 68.6771 91.2838 67.8458 92.092 65.5826C92.3229 64.9125 91.5838 64.6126 91.2142 64.7048Z" fill="#C1D8E3"/>
<path fill-rule="evenodd" clip-rule="evenodd" d="M123.245 134.793C125 137.518 129.041 136.548 129.018 135.232C129.018 134.493 127.355 133.269 124.007 133.246C123.014 133.223 122.968 134.355 123.245 134.793ZM137.725 138.765C138.856 139.458 140.195 138.372 139.941 137.887C139.803 137.61 138.971 137.472 137.725 138.049C137.355 138.234 137.54 138.673 137.725 138.765ZM150.819 133.154C152.528 133.754 153.982 131.907 153.497 131.329C153.243 131.006 152.089 131.052 150.61 132.207C150.149 132.553 150.541 133.061 150.819 133.154ZM149.387 135.948C150.541 136.64 151.881 135.555 151.627 135.047C151.488 134.793 150.634 134.631 149.387 135.232C149.017 135.417 149.202 135.832 149.387 135.948ZM144.514 135.74C146.662 137.033 149.133 134.978 148.671 134.077C148.417 133.569 146.846 133.292 144.514 134.4C143.821 134.724 144.168 135.509 144.514 135.74ZM132.02 135.394C133.706 137.056 136.431 135.74 136.2 134.793C136.085 134.262 134.7 133.662 132.321 134.169C131.605 134.308 131.766 135.116 132.02 135.394ZM128.788 137.818C129.735 139.273 131.906 138.765 131.882 138.049C131.882 137.656 130.982 137.01 129.204 136.987C128.672 136.987 128.649 137.587 128.788 137.818Z" fill="#C1D8E3"/>
<path fill-rule="evenodd" clip-rule="evenodd" d="M162.942 71.4481C162.758 71.379 155.137 77.7526 148.324 72.6722C147.354 71.9563 146.892 70.8249 146.615 70.6863C144.814 69.9013 149.294 78.9536 159.825 74.3581C161.118 73.1108 161.441 72.8108 162.942 71.4481Z" fill="#6690B5"/>
<path fill-rule="evenodd" clip-rule="evenodd" d="M162.411 66.0901C162.319 66.8525 160.494 67.0138 160.425 66.0901C160.287 64.6583 162.55 64.8434 162.411 66.0901Z" fill="#6690B5"/>
<path fill-rule="evenodd" clip-rule="evenodd" d="M136.616 71.6784C135.923 68.8844 133.244 62.7875 128.926 64.5889C124.538 66.4135 123.384 71.6094 123.822 71.9325C127.032 74.1957 133.152 74.4034 136.616 71.6784Z" fill="#FEFEFE"/>
<path fill-rule="evenodd" clip-rule="evenodd" d="M132.575 64.9123C128.626 63.3186 126.317 73.0873 130.681 73.6646C132.598 73.9187 134.561 72.6714 135.508 71.286C136.732 69.531 134.122 65.5592 132.575 64.9123Z" fill="#313130"/>
<path fill-rule="evenodd" clip-rule="evenodd" d="M133.268 66.9218C131.905 66.5064 131.097 69.0464 132.621 69.2082C133.268 69.2773 133.868 69.116 134.006 68.5387C134.099 68.0305 133.96 67.1527 133.268 66.9218Z" fill="#FEFEFE"/>
<path fill-rule="evenodd" clip-rule="evenodd" d="M122.853 59.4161C123.015 57.5688 124.261 55.6752 125.486 54.9361C127.495 53.6893 129.504 55.1902 128.349 56.2757C127.264 57.2915 123.222 58.9543 122.968 59.9939C122.783 60.7325 122.83 59.4619 122.853 59.4161Z" fill="#87ADCF"/>
<path fill-rule="evenodd" clip-rule="evenodd" d="M136.616 71.6788C136.431 70.0625 135.507 67.8452 135.115 67.2447C130.75 60.8015 125.993 65.0738 124.03 68.3534C123.383 69.4388 123.175 70.7088 122.321 70.4779C121.859 70.3625 121.397 69.6929 121.351 69.7852C121.097 70.1548 121.489 70.9397 121.951 71.2861C122.39 71.6093 122.944 71.7943 123.591 71.7479C125.508 71.5402 125.785 63.9883 131.212 64.797C132.505 64.9815 133.706 66.067 134.606 67.522C135.946 69.7161 136.685 72.418 136.616 71.6788Z" fill="#313130"/>
<path fill-rule="evenodd" clip-rule="evenodd" d="M125.993 76.297C123.06 75.7429 121.328 79.1607 124.584 79.3684C126.016 79.4606 127.309 79.2529 127.587 78.4447C127.818 77.7984 127.517 76.5975 125.993 76.297Z" fill="#F86959"/>
<path fill-rule="evenodd" clip-rule="evenodd" d="M199.931 61.6451C200.369 63.5156 204.549 64.4165 204.087 63.3769C203.348 61.7606 201.662 60.005 200 61.5755L199.931 61.6451Z" fill="#C1D8E3"/>
<path fill-rule="evenodd" clip-rule="evenodd" d="M187.022 40.3529C185.797 38.2051 188.869 33.7483 189.331 35.1106C190.07 37.2583 190.047 40.3529 187.16 40.3529H187.022Z" fill="#C1D8E3"/>
<path fill-rule="evenodd" clip-rule="evenodd" d="M177.438 57.8807C177.022 56.4256 178.5 57.1648 180.325 53.5393C181.826 50.5834 180.232 43.9789 184.828 40.9075C187.692 38.9675 195.197 37.5821 200.439 41.4389C200.647 41.6008 205.797 43.5635 206.327 42.7553C206.743 38.3676 209.561 37.1898 210.415 37.4898C211.847 37.9516 209.376 42.9862 209.607 43.0785C210.069 43.2403 215.727 41.8543 215.242 44.6948C215.034 45.9648 212.193 47.743 207.505 46.0112C201.108 48.3898 209.376 72.6608 183.442 60.7217C180.371 59.3125 177.576 58.3657 177.438 57.8807Z" fill="#FFE469"/>
<path fill-rule="evenodd" clip-rule="evenodd" d="M181.641 45.7568C188.476 48.6895 190.462 62.9614 188.245 62.6609C185.174 61.3214 177.368 59.1968 177.299 57.465C177.276 56.9336 177.23 56.3337 178.661 55.7332C181.248 54.6251 181.341 47.2583 181.641 45.7568Z" fill="#FCD015"/>
<path fill-rule="evenodd" clip-rule="evenodd" d="M182.842 55.6406C182.68 54.9015 182.611 53.1233 183.835 53.0543C185.105 52.962 185.982 54.0702 185.913 54.2088C185.428 55.1092 183.996 55.8947 182.842 55.6406Z" fill="#FEFEFE"/>
<path fill-rule="evenodd" clip-rule="evenodd" d="M183.026 53.5627C183.765 52.7081 185.474 54.7636 184.504 55.4099C184.066 55.7099 183.465 55.6408 183.049 55.4099C182.564 55.1326 182.726 53.8859 183.026 53.5627Z" fill="#313130"/>
<path fill-rule="evenodd" clip-rule="evenodd" d="M183.096 54.1165C183.35 53.8624 183.858 54.3706 183.512 54.5783C183.35 54.6705 183.188 54.7169 183.096 54.5783C183.003 54.486 182.934 54.2551 183.096 54.1165Z" fill="#FEFEFE"/>
<path fill-rule="evenodd" clip-rule="evenodd" d="M182.842 55.6406C182.703 55.2479 182.657 54.6015 182.68 54.4165C182.957 52.361 184.597 52.8228 185.451 53.3774C185.728 53.5619 185.936 53.8392 186.121 53.6774C186.213 53.5851 186.236 53.3774 186.259 53.4001C186.375 53.4465 186.375 53.6774 186.306 53.8155C186.237 53.9541 186.121 54.0696 185.959 54.1155C185.474 54.3 184.527 52.5218 183.327 53.3763C183.049 53.5609 182.888 53.9536 182.842 54.4154C182.773 55.0866 182.911 55.8251 182.842 55.6406Z" fill="#313130"/>
<path fill-rule="evenodd" clip-rule="evenodd" d="M181.502 60.1439C181.525 60.1207 183.419 60.5367 184.181 58.8276C184.273 58.5735 184.227 58.2962 184.273 58.2503C184.642 58.0194 184.92 60.3749 182.148 60.398C181.872 60.3285 181.733 60.2362 181.502 60.1439Z" fill="#313130"/>
<path fill-rule="evenodd" clip-rule="evenodd" d="M183.996 50.1439C183.696 49.7744 183.165 49.5203 182.795 49.5435C182.195 49.5435 181.964 50.1439 182.38 50.213C182.749 50.282 183.835 50.0975 184.042 50.282C184.181 50.4212 183.996 50.1671 183.996 50.1439Z" fill="#FCD015"/>
<path fill-rule="evenodd" clip-rule="evenodd" d="M183.211 42.4312C187.391 43.1471 189.308 45.3871 190.162 49.7058C191.594 44.4867 188.591 42.039 186.328 40.653C185.012 39.8448 183.234 42.4312 183.211 42.4312Z" fill="#FCD015"/>
<path fill-rule="evenodd" clip-rule="evenodd" d="M192.541 47.8812C193.857 45.5258 193.603 41.7385 191.963 39.6371C191.34 38.829 189.4 38.9676 188.268 39.5908C187.507 39.9835 193.326 41.9003 192.541 47.8812Z" fill="#FCD015"/>
<path fill-rule="evenodd" clip-rule="evenodd" d="M194.827 45.6639C196.282 44.4398 197.067 41.8534 196.536 40.052C196.328 39.3593 194.989 38.9665 194.088 39.082C193.487 39.1516 196.859 41.8998 194.827 45.6639Z" fill="#FCD015"/>
<path fill-rule="evenodd" clip-rule="evenodd" d="M83.2317 27.1869C82.3826 29.2688 84 31.3108 85.981 31.9377C87.7398 32.5036 89.6804 30.7249 90.3882 28.7438C91.9851 24.2957 85.4761 21.7487 83.2317 27.1869Z" fill="#E5F3FF"/>
<path fill-rule="evenodd" clip-rule="evenodd" d="M87.1333 26.6806C86.8501 27.4084 87.4166 28.1362 88.1039 28.3385C88.7308 28.5408 89.4181 27.9139 89.6603 27.2266C90.2263 25.6496 87.942 24.76 87.1333 26.6806Z" fill="#FEFEFE"/>
<path fill-rule="evenodd" clip-rule="evenodd" d="M88.3468 35.9796C86.9522 39.3963 89.6205 42.7719 92.8748 43.8029C95.7859 44.733 98.9797 41.8013 100.152 38.5266C102.76 31.2293 92.0461 27.004 88.3468 35.9796Z" fill="#E5F3FF"/>
<path fill-rule="evenodd" clip-rule="evenodd" d="M94.7954 35.1318C94.2898 36.3446 95.2399 37.5374 96.3923 37.901C97.4033 38.2247 98.5352 37.1937 98.9392 36.0414C99.8693 33.4539 96.0891 31.9779 94.7954 35.1318Z" fill="#FEFEFE"/>
<path fill-rule="evenodd" clip-rule="evenodd" d="M76.1767 38.0821C76.0354 40.3059 78.1982 41.7005 80.2402 41.6601C82.0594 41.6196 83.3332 39.3354 83.3531 37.2734C83.4341 32.624 76.5409 32.3009 76.1767 38.0821Z" fill="#E5F3FF"/>
<path fill-rule="evenodd" clip-rule="evenodd" d="M79.6744 36.3639C79.6139 37.1521 80.3817 37.6376 81.0895 37.6376C81.7363 37.6177 82.1809 36.8089 82.2014 36.0812C82.2213 34.4438 79.7958 34.3224 79.6744 36.3639Z" fill="#FEFEFE"/>
<path fill-rule="evenodd" clip-rule="evenodd" d="M83.4141 19.0397C83.3332 20.2121 84.4651 20.9398 85.5365 20.9199C86.5071 20.8999 87.1539 19.7071 87.1739 18.6151C87.2144 16.1691 83.5959 16.0077 83.4141 19.0397Z" fill="#E5F3FF"/>
<path fill-rule="evenodd" clip-rule="evenodd" d="M85.2333 18.1506C85.2133 18.5547 85.6174 18.8179 86.0015 18.7974C86.3252 18.7974 86.5674 18.3728 86.5674 17.9887C86.5879 17.1401 85.3142 17.0791 85.2333 18.1506Z" fill="#FEFEFE"/>
<path fill-rule="evenodd" clip-rule="evenodd" d="M89.2967 12.0655C89.2363 13.1165 90.2673 13.7838 91.2373 13.7639C92.1064 13.7639 92.7128 12.6725 92.7333 11.6819C92.7533 9.45758 89.4785 9.29573 89.2967 12.0655Z" fill="#E5F3FF"/>
<path fill-rule="evenodd" clip-rule="evenodd" d="M90.9746 11.2568C90.9342 11.6205 91.2983 11.8632 91.642 11.8433C91.9657 11.8433 92.1675 11.4591 92.1675 11.1155C92.1874 10.3267 91.0351 10.2863 90.9746 11.2568Z" fill="#FEFEFE"/>
<path fill-rule="evenodd" clip-rule="evenodd" d="M83.9191 48.0078C83.8381 49.0587 84.8896 49.7261 85.8596 49.7061C86.7288 49.6862 87.3152 48.5942 87.3352 47.6037C87.3762 45.4004 84.0809 45.2386 83.9191 48.0078Z" fill="#E5F3FF"/>
<path fill-rule="evenodd" clip-rule="evenodd" d="M85.5768 47.1791C85.5569 47.5633 85.9205 47.7855 86.2642 47.7855C86.5674 47.7855 86.7697 47.4014 86.7896 47.0378C86.7896 46.2695 85.6373 46.2086 85.5768 47.1791Z" fill="#FEFEFE"/>
<path fill-rule="evenodd" clip-rule="evenodd" d="M73.7511 55.6494C72.882 57.7313 74.5194 59.7733 76.4805 60.4002C78.2592 60.9661 80.2003 59.1874 80.9076 57.2063C82.484 52.7587 75.9949 50.2118 73.7511 55.6494Z" fill="#E5F3FF"/>
<path fill-rule="evenodd" clip-rule="evenodd" d="M77.6527 55.1437C77.3495 55.8714 77.936 56.5992 78.6233 56.8215C79.2502 57.0033 79.9375 56.377 80.1797 55.6896C80.7252 54.1332 78.4409 53.2236 77.6527 55.1437Z" fill="#FEFEFE"/>
<path fill-rule="evenodd" clip-rule="evenodd" d="M182.551 105.115C181.701 107.197 183.319 109.239 185.3 109.866C187.059 110.432 188.999 108.653 189.707 106.672C191.303 102.225 184.794 99.6773 182.551 105.115Z" fill="#E5F3FF"/>
<path fill-rule="evenodd" clip-rule="evenodd" d="M186.452 104.609C186.169 105.337 186.735 106.065 187.422 106.267C188.049 106.47 188.737 105.843 188.979 105.155C189.545 103.578 187.261 102.689 186.452 104.609Z" fill="#FEFEFE"/>
<path fill-rule="evenodd" clip-rule="evenodd" d="M187.665 113.909C186.27 117.325 188.939 120.701 192.193 121.732C195.104 122.662 198.298 119.73 199.47 116.456C202.078 109.158 191.364 104.933 187.665 113.909Z" fill="#E5F3FF"/>
<path fill-rule="evenodd" clip-rule="evenodd" d="M194.114 113.06C193.608 114.273 194.558 115.466 195.711 115.83C196.722 116.153 197.854 115.122 198.258 113.97C199.188 111.383 195.407 109.907 194.114 113.06Z" fill="#FEFEFE"/>
<path fill-rule="evenodd" clip-rule="evenodd" d="M175.495 116.011C175.354 118.235 177.516 119.629 179.558 119.589C181.378 119.548 182.651 117.264 182.671 115.202C182.752 110.553 175.859 110.23 175.495 116.011Z" fill="#E5F3FF"/>
<path fill-rule="evenodd" clip-rule="evenodd" d="M178.993 114.293C178.932 115.081 179.7 115.566 180.408 115.566C181.055 115.546 181.499 114.738 181.52 114.01C181.54 112.372 179.114 112.251 178.993 114.293Z" fill="#FEFEFE"/>
<path fill-rule="evenodd" clip-rule="evenodd" d="M182.732 96.9684C182.652 98.1408 183.783 98.8685 184.855 98.8486C185.825 98.8286 186.472 97.6358 186.492 96.5439C186.533 94.0978 182.914 93.9365 182.732 96.9684Z" fill="#E5F3FF"/>
<path fill-rule="evenodd" clip-rule="evenodd" d="M184.552 96.0791C184.532 96.4832 184.936 96.7465 185.32 96.726C185.644 96.726 185.886 96.3014 185.886 95.9172C185.906 95.0686 184.633 95.0082 184.552 96.0791Z" fill="#FEFEFE"/>
<path fill-rule="evenodd" clip-rule="evenodd" d="M188.615 89.9942C188.555 91.0452 189.586 91.7125 190.556 91.6926C191.425 91.6926 192.031 90.6012 192.052 89.6106C192.072 87.3863 188.797 87.2244 188.615 89.9942Z" fill="#E5F3FF"/>
<path fill-rule="evenodd" clip-rule="evenodd" d="M190.293 89.1855C190.252 89.5492 190.617 89.7919 190.96 89.772C191.284 89.772 191.486 89.3879 191.486 89.0442C191.506 88.2555 190.353 88.215 190.293 89.1855Z" fill="#FEFEFE"/>
<path fill-rule="evenodd" clip-rule="evenodd" d="M183.238 125.937C183.157 126.987 184.208 127.655 185.178 127.635C186.048 127.615 186.634 126.523 186.654 125.532C186.694 123.329 183.399 123.167 183.238 125.937Z" fill="#E5F3FF"/>
<path fill-rule="evenodd" clip-rule="evenodd" d="M184.895 125.108C184.875 125.492 185.239 125.715 185.583 125.715C185.886 125.715 186.088 125.33 186.108 124.967C186.108 124.199 184.956 124.138 184.895 125.108Z" fill="#FEFEFE"/>
<path fill-rule="evenodd" clip-rule="evenodd" d="M173.069 133.578C172.2 135.66 173.838 137.702 175.799 138.329C177.578 138.895 179.519 137.116 180.226 135.135C181.802 130.687 175.313 128.14 173.069 133.578Z" fill="#E5F3FF"/>
<path fill-rule="evenodd" clip-rule="evenodd" d="M176.971 133.073C176.668 133.801 177.254 134.528 177.942 134.751C178.569 134.932 179.256 134.306 179.498 133.619C180.044 132.062 177.759 131.152 176.971 133.073Z" fill="#FEFEFE"/>
<path fill-rule="evenodd" clip-rule="evenodd" d="M159.005 37.5104C158.548 39.1958 159.997 40.6292 161.588 40.9281C163.006 41.18 164.344 39.6365 164.691 38.0299C165.494 34.4547 160.233 33.0843 159.005 37.5104Z" fill="#E5F3FF"/>
<path fill-rule="evenodd" clip-rule="evenodd" d="M161.982 36.7384C161.824 37.3367 162.328 37.8411 162.895 37.9512C163.399 38.0456 163.856 37.4942 163.998 36.9272C164.266 35.6675 162.423 35.1792 161.982 36.7384Z" fill="#FEFEFE"/>
<path fill-rule="evenodd" clip-rule="evenodd" d="M163.809 43.8263C163.037 46.5983 165.431 48.9613 168.046 49.4495C170.377 49.8747 172.582 47.3234 173.165 44.6771C174.488 38.7863 165.809 36.5339 163.809 43.8263Z" fill="#E5F3FF"/>
<path fill-rule="evenodd" clip-rule="evenodd" d="M168.707 42.5663C168.439 43.5428 169.274 44.3774 170.204 44.5349C171.023 44.6924 171.795 43.7947 171.999 42.8651C172.472 40.7865 169.416 39.9993 168.707 42.5663Z" fill="#FEFEFE"/>
<path fill-rule="evenodd" clip-rule="evenodd" d="M154.594 46.6145C154.689 48.3312 156.5 49.2133 158.075 48.977C159.477 48.7881 160.233 46.8977 160.06 45.2911C159.682 41.7002 154.327 42.0941 154.594 46.6145Z" fill="#E5F3FF"/>
<path fill-rule="evenodd" clip-rule="evenodd" d="M157.131 44.9448C157.162 45.5593 157.792 45.8744 158.359 45.7956C158.847 45.7168 159.115 45.0554 159.052 44.4884C158.91 43.2281 157.036 43.3538 157.131 44.9448Z" fill="#FEFEFE"/>
<path fill-rule="evenodd" clip-rule="evenodd" d="M158.375 31.1943C158.422 32.1076 159.383 32.5646 160.202 32.4545C160.942 32.3445 161.336 31.3518 161.257 30.5015C161.052 28.6111 158.233 28.8161 158.375 31.1943Z" fill="#E5F3FF"/>
<path fill-rule="evenodd" clip-rule="evenodd" d="M159.698 30.3281C159.729 30.6432 160.06 30.8007 160.343 30.7689C160.611 30.7214 160.753 30.3751 160.722 30.0756C160.643 29.4142 159.651 29.493 159.698 30.3281Z" fill="#FEFEFE"/>
<path fill-rule="evenodd" clip-rule="evenodd" d="M162.265 25.2409C162.313 26.0598 163.178 26.4849 163.935 26.3749C164.596 26.2805 164.959 25.3827 164.88 24.6107C164.691 22.894 162.139 23.0829 162.265 25.2409Z" fill="#E5F3FF"/>
<path fill-rule="evenodd" clip-rule="evenodd" d="M163.478 24.4533C163.493 24.7371 163.793 24.8941 164.061 24.8471C164.297 24.8158 164.423 24.5008 164.391 24.2326C164.329 23.6343 163.431 23.6975 163.478 24.4533Z" fill="#FEFEFE"/>
<path fill-rule="evenodd" clip-rule="evenodd" d="M161.509 53.5451C161.557 54.364 162.423 54.7891 163.179 54.6791C163.84 54.5847 164.203 53.6869 164.124 52.9149C163.935 51.1982 161.383 51.3871 161.509 53.5451Z" fill="#E5F3FF"/>
<path fill-rule="evenodd" clip-rule="evenodd" d="M162.722 52.7571C162.738 53.0409 163.037 53.1822 163.305 53.1509C163.541 53.1196 163.667 52.8046 163.635 52.5364C163.572 51.9225 162.675 51.9851 162.722 52.7571Z" fill="#FEFEFE"/>
<path fill-rule="evenodd" clip-rule="evenodd" d="M118.738 142.212C117.855 145.452 120.653 148.214 123.691 148.784C126.434 149.3 128.993 146.299 129.693 143.206C131.239 136.32 121.076 133.687 118.738 142.212Z" fill="#E5F3FF"/>
<path fill-rule="evenodd" clip-rule="evenodd" d="M124.464 140.739C124.151 141.881 125.145 142.857 126.213 143.059C127.171 143.225 128.073 142.175 128.331 141.089C128.864 138.658 125.293 137.738 124.464 140.739Z" fill="#FEFEFE"/>
<path fill-rule="evenodd" clip-rule="evenodd" d="M117.21 130.318C116.676 132.289 118.37 133.964 120.229 134.313C121.886 134.626 123.433 132.804 123.857 130.926C124.795 126.747 118.646 125.145 117.21 130.318Z" fill="#E5F3FF"/>
<path fill-rule="evenodd" clip-rule="evenodd" d="M120.69 129.435C120.506 130.116 121.095 130.705 121.757 130.834C122.328 130.945 122.881 130.3 123.028 129.637C123.359 128.164 121.187 127.612 120.69 129.435Z" fill="#FEFEFE"/>
<path fill-rule="evenodd" clip-rule="evenodd" d="M126.084 125.789C126.139 126.747 127.152 127.244 128.035 127.115C128.827 127.004 129.232 125.955 129.14 125.053C128.938 123.046 125.937 123.267 126.084 125.789Z" fill="#E5F3FF"/>
<path fill-rule="evenodd" clip-rule="evenodd" d="M127.502 124.869C127.52 125.201 127.889 125.385 128.183 125.33C128.46 125.293 128.607 124.924 128.589 124.612C128.515 123.912 127.446 123.986 127.502 124.869Z" fill="#FEFEFE"/>
<path fill-rule="evenodd" clip-rule="evenodd" d="M102.702 148.196C102.757 149.172 103.77 149.65 104.654 149.521C105.445 149.411 105.85 148.361 105.759 147.477C105.556 145.452 102.555 145.692 102.702 148.196Z" fill="#E5F3FF"/>
<path fill-rule="evenodd" clip-rule="evenodd" d="M104.119 147.275C104.138 147.607 104.506 147.791 104.801 147.736C105.077 147.699 105.224 147.33 105.206 147.017C105.132 146.318 104.064 146.391 104.119 147.275Z" fill="#FEFEFE"/>
<path fill-rule="evenodd" clip-rule="evenodd" d="M109.293 153.922C109.348 154.879 110.361 155.376 111.226 155.247C112.018 155.136 112.441 154.087 112.35 153.185C112.128 151.178 109.146 151.399 109.293 153.922Z" fill="#E5F3FF"/>
<path fill-rule="evenodd" clip-rule="evenodd" d="M110.711 153.001C110.729 153.332 111.079 153.517 111.392 153.461C111.668 153.424 111.815 153.056 111.779 152.743C111.705 152.025 110.656 152.117 110.711 153.001Z" fill="#FEFEFE"/>
</svg>
