<svg width="285" height="190" viewBox="0 0 285 190" fill="none" xmlns="http://www.w3.org/2000/svg">
<rect width="285" height="190" fill="#E9DBFB"/>
<path fill-rule="evenodd" clip-rule="evenodd" d="M111.219 46.7023C105.433 48.6762 92.5858 59.0207 89.9267 65.7428C82.0311 85.7127 76.1161 119.758 94.9192 134.301C112.963 148.261 130.979 153.172 155.127 150.94C173.177 149.272 191.16 135.101 198.859 118.808C205.94 103.831 203.885 85.9501 194.734 70.9998C171.977 33.8413 152.441 32.6271 111.219 46.7023ZM137.362 74.4864C153.391 74.4525 160.052 77.1793 163.565 92.8147C164.976 99.1027 163.565 105.574 159.319 109.956C154.7 114.725 146.757 117.533 140.265 115.986C131.589 113.911 125.898 110.071 121.272 103.078C116.449 95.7857 122.554 84.6273 127.682 78.6038C129.405 76.5756 135.11 74.4932 137.362 74.4864Z" fill="#F9BA75"/>
<path d="M144.444 151.87C125.43 151.87 110.08 146.552 94.6684 134.627C75.0716 119.467 82.2279 84.0988 89.547 65.5942C92.2467 58.7567 105.318 48.2834 111.091 46.3162C128.171 40.4827 139.567 38 149.205 38C167.527 38 180.815 47.5033 195.08 70.7969C204.591 86.3305 206.144 104.347 199.225 118.985C191.126 136.126 172.594 149.733 155.161 151.348C151.444 151.7 147.835 151.87 144.444 151.87ZM149.205 38.814C139.661 38.814 128.34 41.2899 111.355 47.0895C105.711 49.016 92.9386 59.2315 90.3067 65.8994C83.069 84.1938 75.9534 119.121 95.1703 133.989C110.433 145.792 125.627 151.056 144.444 151.063C144.444 151.063 144.444 151.063 144.45 151.063C147.822 151.063 151.396 150.886 155.093 150.547C172.255 148.96 190.509 135.543 198.492 118.646C205.296 104.252 203.756 86.5272 194.389 71.2242C180.286 48.202 167.201 38.814 149.205 38.814ZM144.03 116.821C142.687 116.821 141.384 116.672 140.17 116.38C131.359 114.271 125.6 110.363 120.933 103.302C115.825 95.5828 122.575 83.9767 127.37 78.3399C129.195 76.1896 135.015 74.08 137.362 74.08H137.667C153.262 74.08 160.364 76.6712 163.966 92.7271C165.451 99.3475 163.823 105.893 159.618 110.235C155.738 114.237 149.619 116.821 144.03 116.821ZM137.66 74.894H137.362C135.266 74.9008 129.629 76.9425 127.988 78.8689C123.341 84.3294 116.768 95.5354 121.611 102.854C126.156 109.726 131.766 113.538 140.36 115.593C141.513 115.871 142.755 116.007 144.03 116.007C149.409 116.007 155.297 113.524 159.021 109.672C163.043 105.527 164.59 99.2525 163.165 92.9034C159.733 77.614 153.499 74.894 137.66 74.894Z" fill="#9E7954"/>
<path fill-rule="evenodd" clip-rule="evenodd" d="M107.285 56.3008C100.393 56.0906 103.629 66.8352 98.2702 68.6735C93.8068 70.2065 90.0693 73.9915 93.4948 78.6245C96.7575 83.0336 84.2968 82.7079 90.2185 92.6996C93.4745 98.1873 84.7648 102.264 85.4635 107.948C85.7348 110.166 92.1449 108.274 86.5352 113.341C83.2589 116.299 85.5923 119.975 88.5837 121.827C94.5123 125.483 93.9425 120.992 96.1606 127.654C97.8564 132.748 102.042 131.791 102.082 131.825C105.962 135.407 105.006 140.962 114.251 140.962C123.572 140.962 116.49 141.457 122.737 146.647C124.793 148.356 136.677 148.566 137.416 144.225C140.211 144.951 141.547 146.572 146.987 147.305C153.241 148.152 157.956 141.335 163.749 138.683C168.137 136.675 174.127 138.839 176.237 138.303C181.84 136.872 181.026 137.279 182.925 129.98C185.821 118.856 192.917 128.563 197.299 112.012C198.269 108.335 190.746 103.315 195.711 95.1619C200.738 86.9 189.138 78.8958 188.358 70.2946C187.3 58.5868 179.221 63.4368 177.993 61.9649C175.409 58.8514 172.852 50.6708 167.31 48.5748C163.552 47.1503 163.498 52.5565 159.095 45.7122C155.378 39.9329 135.693 51.9257 124.345 48.0796C116.612 45.4613 119.576 56.6739 107.285 56.3008ZM118.966 69.9759C127.018 70.22 125.078 62.8806 130.151 64.5968C137.586 67.1133 150.481 59.2583 152.916 63.0434C155.799 67.5271 155.833 63.9862 158.295 64.9156C161.924 66.2858 163.599 71.6513 165.295 73.6863C166.096 74.6563 171.393 71.475 172.085 79.1468C172.594 84.7836 180.191 90.0271 176.901 95.4401C173.652 100.785 178.577 104.068 177.946 106.483C175.077 117.323 170.423 110.967 168.531 118.252C167.283 123.041 167.819 122.77 164.149 123.706C162.765 124.059 158.844 122.641 155.968 123.957C152.176 125.693 149.083 130.157 144.986 129.6C141.418 129.119 140.543 128.061 138.712 127.579C138.223 130.421 130.443 130.285 129.093 129.166C125.003 125.768 129.643 125.442 123.531 125.442C117.474 125.442 118.098 121.8 115.561 119.453C115.534 119.432 112.793 120.056 111.681 116.719C110.229 112.351 110.595 115.295 106.715 112.9C104.755 111.693 103.229 109.278 105.372 107.345C109.049 104.021 104.85 105.262 104.667 103.811C104.212 100.087 109.917 97.4208 107.78 93.8189C103.9 87.2731 112.067 87.4901 109.924 84.6005C107.678 81.5684 110.127 79.0925 113.051 78.0818C116.571 76.8744 114.455 69.8334 118.966 69.9759Z" fill="#8B6133"/>
<path d="M128.659 148.194C125.803 148.194 123.375 147.712 122.479 146.966C119.644 144.612 119.434 143.141 119.305 142.265C119.196 141.492 119.176 141.377 114.251 141.377C107.617 141.377 105.969 138.487 104.375 135.692C103.704 134.512 103.012 133.291 101.933 132.253C101.777 132.267 101.567 132.287 101.316 132.287C99.8032 132.287 97.0831 131.704 95.7739 127.783C94.5394 124.086 94.3088 124.066 93.1828 123.951C92.2602 123.856 90.8629 123.713 88.3666 122.174C86.6573 121.115 84.758 119.189 84.5545 116.944C84.4256 115.519 85.0158 114.169 86.2639 113.043C88.2717 111.232 88.4752 110.534 88.4141 110.276C88.3531 109.998 87.729 109.815 87.1796 109.652C86.291 109.387 85.1853 109.062 85.0564 107.997C84.7241 105.297 86.3588 102.991 87.9393 100.766C89.7843 98.1677 91.5276 95.7122 89.8658 92.9107C86.1825 86.6973 89.3706 84.1943 91.6972 82.3696C93.4337 81.0062 94.2206 80.2939 93.1692 78.8694C91.8465 77.0787 91.4462 75.3015 91.9821 73.5785C92.674 71.3604 94.9803 69.3865 98.1413 68.3012C100.38 67.5347 100.983 65.0317 101.628 62.3862C102.401 59.1981 103.202 55.9014 107.095 55.9014H107.305C107.502 55.9082 107.699 55.9082 107.889 55.9082C113.77 55.9082 115.778 53.1135 117.548 50.6444C118.783 48.9215 119.949 47.2935 122.256 47.2935C122.934 47.2935 123.667 47.4292 124.501 47.7141C126 48.2228 127.696 48.467 129.676 48.467C134.364 48.467 139.777 47.0426 144.552 45.7809C148.568 44.7227 152.366 43.7188 155.141 43.7188C157.271 43.7188 158.682 44.3021 159.455 45.5095C161.395 48.5281 162.345 48.874 162.894 48.874C163.267 48.874 163.633 48.6977 164.061 48.4942C164.61 48.2296 165.234 47.9311 166.062 47.9311C166.516 47.9311 166.977 48.0193 167.473 48.2092C171.448 49.7151 173.917 54.1921 175.897 57.7939C176.745 59.3337 177.553 60.7922 178.319 61.7215C178.475 61.9114 179.228 61.9046 180.157 61.8436C180.632 61.8096 181.148 61.7757 181.683 61.7757C184.397 61.7757 188.08 62.6575 188.772 70.2819C189.077 73.626 191.112 76.9701 193.086 80.199C196.098 85.1304 199.211 90.2314 196.064 95.4002C192.991 100.447 194.89 104.252 196.41 107.311C197.305 109.116 198.085 110.676 197.699 112.141C195.236 121.434 191.879 122.655 188.914 123.727C186.588 124.568 184.58 125.301 183.325 130.103C183.101 130.971 182.911 131.731 182.748 132.403C181.534 137.314 181.426 137.429 176.813 138.603L176.345 138.725C175.579 138.921 174.276 138.786 172.675 138.589C171.38 138.426 169.915 138.25 168.429 138.25C166.625 138.25 165.146 138.521 163.925 139.084C161.876 140.02 159.923 141.519 158.037 142.978C154.944 145.359 151.742 147.814 148.066 147.814C147.693 147.814 147.313 147.787 146.94 147.74C143.399 147.258 141.574 146.417 139.96 145.671C139.187 145.311 138.508 144.999 137.715 144.755C136.853 147.278 132.553 148.194 128.659 148.194ZM102.076 131.419H102.238L102.36 131.534C103.595 132.674 104.355 134.003 105.08 135.286C106.695 138.114 108.085 140.563 114.245 140.563C119.454 140.563 119.888 140.678 120.105 142.15C120.214 142.91 120.404 144.192 122.995 146.342C123.721 146.946 126.102 147.387 128.652 147.387C132.539 147.387 136.629 146.39 137.009 144.165L137.084 143.731L137.511 143.846C138.549 144.117 139.397 144.504 140.292 144.918C141.852 145.637 143.616 146.458 147.035 146.919C147.367 146.966 147.713 146.987 148.045 146.987C151.444 146.987 154.395 144.721 157.522 142.32C159.448 140.841 161.442 139.308 163.572 138.331C164.909 137.721 166.496 137.422 168.422 137.422C169.955 137.422 171.448 137.605 172.764 137.768C174.263 137.951 175.511 138.087 176.135 137.924L176.603 137.802C180.829 136.73 180.829 136.73 181.948 132.192C182.111 131.521 182.301 130.761 182.531 129.886C183.888 124.663 186.194 123.829 188.63 122.947C191.404 121.943 194.551 120.797 196.905 111.917C197.217 110.751 196.498 109.313 195.677 107.657C194.151 104.591 192.062 100.393 195.365 94.9593C198.255 90.2178 195.406 85.5441 192.387 80.6059C190.366 77.2957 188.277 73.877 187.958 70.3429C187.212 62.0809 182.938 62.454 180.212 62.644C179.811 62.6711 179.445 62.6982 179.126 62.6982C178.604 62.6982 178.027 62.644 177.688 62.2302C176.867 61.2466 176.087 59.8221 175.178 58.1806C173.259 54.7008 170.871 50.3663 167.174 48.969C166.062 48.5484 165.173 48.8604 164.407 49.2267C163.939 49.4506 163.45 49.688 162.887 49.688C161.666 49.688 160.472 48.6027 158.763 45.9505C158.146 44.994 156.959 44.5327 155.134 44.5327C152.461 44.5327 148.717 45.5231 144.749 46.5677C139.926 47.843 134.459 49.281 129.663 49.281C127.587 49.281 125.803 49.0233 124.223 48.4874C123.47 48.2296 122.825 48.1075 122.235 48.1075C120.35 48.1075 119.4 49.437 118.193 51.1193C116.402 53.6155 114.177 56.7222 107.868 56.7222C107.672 56.7222 107.468 56.7222 107.265 56.7154H107.082C103.826 56.7154 103.168 59.4355 102.408 62.5761C101.743 65.3165 101.058 68.1519 98.3991 69.0677C95.4755 70.0716 93.3659 71.8488 92.7486 73.8227C92.2942 75.2879 92.6537 76.8209 93.8136 78.3946C95.3805 80.511 93.7593 81.7863 92.1924 83.014C89.8725 84.8319 87.2339 86.9008 90.5577 92.5037C92.4909 95.7597 90.5102 98.5476 88.5973 101.247C87.105 103.35 85.5652 105.521 85.8568 107.908C85.9179 108.404 86.5081 108.614 87.4034 108.885C88.2039 109.123 89.0314 109.367 89.201 110.113C89.3842 110.913 88.6651 111.972 86.7997 113.661C85.7348 114.624 85.2464 115.709 85.3549 116.889C85.5313 118.836 87.2406 120.546 88.7872 121.502C91.1274 122.947 92.4095 123.076 93.2574 123.164C94.8582 123.327 95.2516 123.666 96.5404 127.553C97.6868 130.985 100.02 131.501 101.309 131.501C101.608 131.501 101.825 131.473 101.94 131.46L102.076 131.419ZM132.973 130.32C131.528 130.32 129.582 130.103 128.835 129.479C126.936 127.905 126.794 126.908 126.705 126.311C126.651 125.925 126.638 125.85 123.538 125.85C119.115 125.85 118.009 123.917 116.944 122.051C116.517 121.305 116.076 120.532 115.418 119.881C114.604 119.962 112.305 119.867 111.301 116.849C110.521 114.515 110.385 114.502 109.72 114.434C109.103 114.373 108.174 114.278 106.505 113.247C105.359 112.535 104.083 111.239 103.941 109.713C103.853 108.736 104.253 107.807 105.108 107.04C106.519 105.765 106.485 105.399 106.478 105.365C106.451 105.263 105.989 105.127 105.766 105.06C105.175 104.883 104.368 104.646 104.273 103.859C104.049 102.034 105.135 100.501 106.186 99.0224C107.421 97.2859 108.486 95.7868 107.441 94.03C104.965 89.8515 107.197 88.1014 108.676 86.9414C109.869 86.0054 110.202 85.6391 109.612 84.8387C108.73 83.6448 108.452 82.4035 108.811 81.2436C109.279 79.7513 110.819 78.4218 112.936 77.6959C114.326 77.2143 114.719 75.6135 115.126 73.9177C115.622 71.8759 116.185 69.5629 118.844 69.5629H118.986C123.029 69.6985 124.399 67.8195 125.579 66.178C126.414 65.0181 127.194 63.926 128.774 63.926C129.236 63.926 129.731 64.021 130.294 64.2109C131.25 64.5365 132.376 64.6993 133.645 64.6993C136.697 64.6993 140.231 63.7632 143.351 62.9424C145.99 62.2438 148.486 61.5858 150.325 61.5858C151.769 61.5858 152.733 61.9928 153.269 62.8203C154.198 64.2652 154.897 64.9638 155.405 64.9638C155.616 64.9638 155.846 64.8553 156.111 64.7264C156.66 64.4619 157.501 64.1702 158.458 64.5365C161.11 65.5404 162.738 68.4979 164.047 70.8788C164.603 71.8827 165.126 72.8323 165.621 73.4293C165.621 73.4293 165.689 73.4903 166.041 73.4903C166.238 73.4903 166.462 73.4768 166.706 73.4564C167.018 73.4361 167.357 73.4089 167.717 73.4089C169.548 73.4089 172.038 73.9991 172.499 79.1069C172.696 81.2639 174.018 83.4413 175.307 85.5441C177.302 88.8137 179.364 92.1917 177.261 95.6444C175.287 98.8868 176.46 101.234 177.491 103.316C178.095 104.524 178.611 105.568 178.346 106.579C176.711 112.738 174.48 113.552 172.499 114.264C170.952 114.827 169.725 115.268 168.924 118.348C168.775 118.918 168.653 119.413 168.544 119.854C167.737 123.123 167.629 123.239 164.556 124.019L164.251 124.093C163.728 124.222 162.86 124.134 161.795 124.005C160.954 123.903 159.991 123.781 159.034 123.781C157.868 123.781 156.925 123.958 156.138 124.317C154.815 124.921 153.54 125.904 152.305 126.847C150.053 128.577 147.706 130.354 144.932 129.995C142.592 129.676 141.384 129.12 140.319 128.631C139.858 128.421 139.451 128.231 138.99 128.082C138.305 129.723 135.51 130.32 132.973 130.32ZM115.554 119.047H115.71L115.832 119.148C116.666 119.922 117.168 120.797 117.65 121.644C118.688 123.462 119.576 125.029 123.531 125.029C126.794 125.029 127.343 125.063 127.506 126.189C127.574 126.671 127.696 127.471 129.351 128.848C129.738 129.174 131.108 129.499 132.966 129.499C135.456 129.499 138.067 128.882 138.305 127.505L138.379 127.071L138.807 127.186C139.499 127.37 140.062 127.627 140.652 127.899C141.662 128.367 142.809 128.896 145.034 129.194C147.503 129.527 149.572 127.919 151.803 126.21C153.072 125.233 154.381 124.229 155.792 123.584C156.687 123.177 157.745 122.974 159.028 122.974C160.038 122.974 161.022 123.096 161.89 123.205C162.853 123.327 163.667 123.408 164.04 123.313L164.346 123.232C167.032 122.547 167.032 122.547 167.751 119.657C167.859 119.216 167.981 118.714 168.131 118.144C169.04 114.651 170.654 114.068 172.214 113.505C174.086 112.826 176.026 112.128 177.546 106.375C177.736 105.663 177.281 104.741 176.752 103.682C175.741 101.641 174.351 98.8529 176.555 95.2306C178.4 92.1985 176.555 89.1732 174.602 85.9715C173.272 83.7873 171.895 81.5353 171.678 79.1883C171.285 74.8199 169.447 74.2297 167.71 74.2297C167.378 74.2297 167.052 74.2501 166.754 74.2704C166.489 74.2908 166.245 74.3043 166.035 74.3043C165.682 74.3043 165.241 74.2636 164.983 73.9516C164.441 73.2936 163.925 72.3575 163.321 71.2722C162.073 69.0134 160.527 66.1984 158.153 65.2962C157.467 65.0384 156.952 65.2216 156.45 65.4658C156.124 65.6218 155.792 65.7778 155.392 65.7778C154.537 65.7778 153.723 65.0452 152.57 63.2612C152.197 62.6779 151.457 62.393 150.311 62.393C148.581 62.393 146.133 63.0374 143.548 63.7225C140.38 64.5568 136.792 65.5065 133.631 65.5065C132.254 65.5065 131.074 65.3301 130.022 64.9774C129.548 64.8146 129.134 64.74 128.768 64.74C127.608 64.74 127.031 65.5404 126.231 66.6528C125.003 68.369 123.49 70.5328 118.952 70.3768H118.837C116.951 70.3768 116.47 71.7877 115.907 74.1144C115.466 75.9459 115.004 77.8452 113.186 78.4692C111.314 79.1137 109.964 80.2396 109.578 81.4877C109.293 82.4035 109.524 83.3667 110.256 84.3571C111.369 85.8562 110.202 86.7719 109.171 87.5791C107.692 88.739 106.023 90.0482 108.14 93.6162C109.449 95.8275 108.126 97.6929 106.844 99.4972C105.881 100.854 104.891 102.251 105.074 103.764C105.101 104.001 105.474 104.13 105.99 104.286C106.525 104.449 107.136 104.625 107.265 105.195C107.4 105.785 106.932 106.498 105.65 107.657C104.986 108.254 104.687 108.933 104.755 109.652C104.85 110.676 105.684 111.795 106.939 112.568C108.438 113.498 109.266 113.579 109.802 113.634C110.914 113.749 111.206 113.993 112.074 116.605C112.759 118.66 114.075 119.094 115.059 119.094C115.249 119.094 115.391 119.08 115.459 119.067L115.554 119.047Z" fill="#66343B"/>
<path fill-rule="evenodd" clip-rule="evenodd" d="M92.0568 89.3907C95.7468 94.7223 94.6887 88.8278 94.3563 88.2783C93.4677 88.2783 91.8058 89.0244 92.0568 89.3907Z" fill="#F4AECE"/>
<path d="M94.2748 92.0157C93.861 92.0157 93.1895 91.7444 91.7243 89.6212C91.6022 89.4449 91.5955 89.2278 91.6972 89.0243C92.0228 88.407 93.5829 87.8711 94.3562 87.8711H94.5868L94.7022 88.0678C94.9192 88.4341 95.4415 90.7268 94.9531 91.5951C94.8039 91.8664 94.5597 92.0157 94.2748 92.0157ZM92.5112 89.3227C93.6643 90.9643 94.1459 91.1745 94.2545 91.2017C94.4851 90.8897 94.2952 89.3567 94.0985 88.7055C93.5015 88.7937 92.7757 89.1124 92.5112 89.3227Z" fill="#D87BB0"/>
<path fill-rule="evenodd" clip-rule="evenodd" d="M92.233 97.0685C89.3094 102.855 93.9967 99.0966 94.3155 98.5472C93.8881 97.7671 92.4297 96.6683 92.233 97.0685Z" fill="#B8E1F1"/>
<path d="M91.6972 100.657C91.3988 100.657 91.1478 100.528 91.0053 100.297C90.7679 99.9174 90.6865 99.2119 91.8668 96.8853C91.9618 96.6954 92.1585 96.5801 92.3891 96.5801C93.0403 96.5801 94.2613 97.6111 94.6683 98.3505L94.7768 98.5539L94.6615 98.7507C94.458 99.1102 92.6944 100.657 91.6972 100.657ZM92.5112 97.428C91.5073 99.4629 91.6972 99.8564 91.704 99.8767L91.6972 99.8496C92.1924 99.8496 93.3659 98.9474 93.8068 98.5133C93.4541 98.0385 92.8164 97.5569 92.5112 97.428Z" fill="#5AB7DA"/>
<path fill-rule="evenodd" clip-rule="evenodd" d="M99.8846 92.4699C103.575 97.8015 102.517 91.9069 102.184 91.3574C101.289 91.3574 99.6269 92.1036 99.8846 92.4699Z" fill="#F4AECE"/>
<path d="M102.096 95.0948C101.682 95.0948 101.011 94.8234 99.5454 92.7071C99.4233 92.5307 99.4165 92.3136 99.5182 92.1101C99.8438 91.4929 101.404 90.957 102.177 90.957H102.408L102.53 91.1538C102.747 91.5201 103.269 93.8128 102.774 94.681C102.625 94.9456 102.381 95.0948 102.096 95.0948ZM100.325 92.4019C101.485 94.0434 101.96 94.2537 102.069 94.2808C102.299 93.9688 102.109 92.4358 101.913 91.7846C101.323 91.8727 100.597 92.1916 100.325 92.4019Z" fill="#D87BB0"/>
<path fill-rule="evenodd" clip-rule="evenodd" d="M100.719 85.7205C95.3398 89.3495 101.262 88.3524 101.818 88.02C101.825 87.1382 101.092 85.4763 100.719 85.7205Z" fill="#F4AECE"/>
<path d="M99.6064 88.8066C99.2876 88.8066 98.3108 88.8066 98.1073 88.1351C97.9038 87.4771 98.6161 86.6496 100.495 85.3879L100.597 85.32L100.8 85.293C100.977 85.293 101.146 85.3744 101.302 85.5304C101.763 85.9984 102.232 87.2533 102.225 88.0266V88.2572L102.028 88.3725C101.702 88.5692 100.495 88.8066 99.6064 88.8066ZM98.8874 87.9113C98.9145 87.9113 99.118 87.9927 99.5996 87.9927C100.258 87.9927 101.011 87.8502 101.39 87.7485C101.309 87.1584 100.99 86.4325 100.787 86.1679C98.9145 87.4568 98.8874 87.8977 98.8874 87.9113Z" fill="#D87BB0"/>
<path fill-rule="evenodd" clip-rule="evenodd" d="M97.4426 72.6691C101.133 78.0007 100.074 72.1061 99.7421 71.5566C98.8535 71.5566 97.1916 72.3028 97.4426 72.6691Z" fill="#5AB7DA"/>
<path d="M99.6606 75.294C99.2469 75.294 98.5754 75.0227 97.1102 72.9063C96.9881 72.73 96.9813 72.5129 97.0831 72.3094C97.4087 71.6921 98.9688 71.1562 99.742 71.1562H99.9727L100.095 71.3529C100.319 71.7125 100.834 74.0052 100.346 74.8802C100.19 75.1448 99.9455 75.294 99.6606 75.294ZM97.8903 72.6011C99.0502 74.2426 99.525 74.4529 99.6336 74.48C99.8642 74.168 99.6742 72.635 99.4775 71.9906C98.8874 72.0652 98.1548 72.3908 97.8903 72.6011Z" fill="#2C87A8"/>
<path fill-rule="evenodd" clip-rule="evenodd" d="M97.6189 80.3472C94.6953 86.1333 99.3825 82.3754 99.7013 81.8259C99.274 81.0391 97.8156 79.947 97.6189 80.3472Z" fill="#F4AECE"/>
<path d="M97.0831 83.9361C96.7846 83.9361 96.5336 83.8072 96.3912 83.5766C96.1538 83.1967 96.0724 82.4913 97.2527 80.1646C97.3476 79.9747 97.5443 79.8594 97.775 79.8594C98.4261 79.8594 99.6472 80.8904 100.054 81.6298L100.163 81.8333L100.047 82.03C99.8439 82.3895 98.0802 83.9361 97.0831 83.9361ZM97.8971 80.7005C96.8931 82.7355 97.0831 83.1289 97.0898 83.1492L97.0831 83.1221C97.5783 83.1221 98.7518 82.2199 99.1995 81.7858C98.8332 81.311 98.2023 80.8362 97.8971 80.7005Z" fill="#D87BB0"/>
<path fill-rule="evenodd" clip-rule="evenodd" d="M105.264 75.7482C108.954 81.0798 107.896 75.1852 107.563 74.6357C106.675 74.6357 105.013 75.3819 105.264 75.7482Z" fill="#5AB7DA"/>
<path d="M107.482 78.374C107.068 78.374 106.397 78.1027 104.931 75.9795C104.809 75.8032 104.803 75.5861 104.904 75.3826C105.23 74.7653 106.79 74.2295 107.563 74.2295H107.794L107.909 74.4262C108.133 74.7925 108.649 77.0852 108.153 77.9535C108.011 78.2248 107.767 78.374 107.482 78.374ZM105.712 75.6811C106.865 77.3226 107.346 77.5329 107.455 77.56C107.685 77.248 107.496 75.715 107.299 75.0638C106.709 75.1452 105.983 75.4708 105.712 75.6811Z" fill="#2C87A8"/>
<path fill-rule="evenodd" clip-rule="evenodd" d="M106.105 69C100.726 72.6291 106.647 71.6319 107.204 71.2996C107.21 70.4177 106.478 68.7491 106.105 69Z" fill="#5AB7DA"/>
<path d="M104.992 72.086C104.674 72.086 103.697 72.086 103.493 71.4144C103.29 70.7565 104.002 69.9289 105.881 68.6672L105.983 68.5994L106.186 68.5723C106.362 68.5723 106.532 68.6536 106.695 68.8097C107.156 69.2777 107.617 70.5326 107.611 71.3059V71.5365L107.414 71.6518C107.088 71.8418 105.881 72.086 104.992 72.086ZM104.273 71.1906C104.3 71.1906 104.504 71.272 104.986 71.272C105.644 71.272 106.396 71.1295 106.776 71.0278C106.695 70.4376 106.376 69.7118 106.173 69.4473C104.3 70.7293 104.273 71.1702 104.273 71.1906Z" fill="#2C87A8"/>
<path fill-rule="evenodd" clip-rule="evenodd" d="M111.511 70.9267C115.201 65.595 114.143 71.4897 113.811 72.0391C112.922 72.0391 111.26 71.2929 111.511 70.9267Z" fill="#EA4E51"/>
<path d="M114.041 72.4454H113.811C113.037 72.4454 111.477 71.9095 111.152 71.2923C111.043 71.0888 111.057 70.8717 111.179 70.6953C112.644 68.579 113.309 68.3076 113.729 68.3076C114.014 68.3076 114.258 68.4568 114.414 68.7214C114.903 69.5896 114.387 71.8824 114.17 72.2487L114.041 72.4454ZM111.959 70.9938C112.223 71.2041 112.956 71.5229 113.546 71.611C113.743 70.9531 113.946 69.359 113.682 69.0945C113.695 69.1148 113.254 69.1555 111.959 70.9938Z" fill="#D24138"/>
<path fill-rule="evenodd" clip-rule="evenodd" d="M111.681 63.2472C108.757 57.4611 113.444 61.219 113.763 61.7684C113.343 62.5485 111.884 63.6474 111.681 63.2472Z" fill="#EA4E51"/>
<path d="M111.843 63.7359C111.613 63.7359 111.416 63.6206 111.321 63.4307C110.148 61.104 110.229 60.3986 110.46 60.0187C110.602 59.7881 110.846 59.6592 111.152 59.6592C112.149 59.6592 113.912 61.2058 114.123 61.5653L114.238 61.762L114.129 61.9655C113.716 62.7049 112.495 63.7359 111.843 63.7359ZM111.152 60.4664C111.145 60.4664 110.968 60.8734 111.959 62.888C112.271 62.7591 112.902 62.2775 113.261 61.8027C112.82 61.3754 111.647 60.4664 111.152 60.4664Z" fill="#D24138"/>
<path fill-rule="evenodd" clip-rule="evenodd" d="M119.332 67.8466C123.022 62.515 121.964 68.4096 121.632 68.959C120.743 68.959 119.081 68.2129 119.332 67.8466Z" fill="#B8E1F1"/>
<path d="M121.862 69.3652H121.632C120.858 69.3652 119.298 68.8294 118.973 68.2121C118.864 68.0086 118.878 67.7916 119 67.6152C120.465 65.4921 121.13 65.2207 121.55 65.2207C121.835 65.2207 122.079 65.3699 122.235 65.6413C122.724 66.5095 122.208 68.8023 121.984 69.1685L121.862 69.3652ZM119.78 67.9137C120.044 68.1239 120.777 68.4427 121.367 68.5309C121.564 67.8729 121.767 66.2789 121.503 66.0143C121.516 66.0347 121.075 66.0754 119.78 67.9137Z" fill="#5AB7DA"/>
<path fill-rule="evenodd" clip-rule="evenodd" d="M120.173 74.5955C114.794 70.9665 120.716 71.9704 121.272 72.2892C121.279 73.1778 120.54 74.8397 120.173 74.5955Z" fill="#EA4E51"/>
<path d="M120.255 75.0235H120.126L119.943 74.9285C118.064 73.66 117.351 72.8393 117.555 72.1813C117.758 71.5098 118.735 71.5098 119.054 71.5098C119.949 71.5098 121.15 71.7539 121.476 71.9439L121.672 72.0592V72.2898C121.679 73.0631 121.218 74.3248 120.757 74.786C120.601 74.942 120.431 75.0235 120.255 75.0235ZM118.321 72.4459C118.342 72.4459 118.41 72.8935 120.241 74.1484C120.445 73.8839 120.763 73.1581 120.845 72.5679C120.472 72.4662 119.719 72.3238 119.054 72.3238C118.552 72.3238 118.355 72.4119 118.321 72.4459Z" fill="#D24138"/>
<path fill-rule="evenodd" clip-rule="evenodd" d="M128.869 57.5556C125.179 52.2239 126.237 58.1186 126.57 58.668C127.465 58.668 129.127 57.9219 128.869 57.5556Z" fill="#FEE7D1"/>
<path d="M126.57 59.0752H126.339L126.224 58.8785C126.007 58.5122 125.484 56.2195 125.973 55.3512C126.129 55.0799 126.366 54.9307 126.658 54.9307C127.072 54.9307 127.743 55.202 129.208 57.3251C129.331 57.5015 129.337 57.7186 129.236 57.922C128.91 58.5393 127.343 59.0752 126.57 59.0752ZM126.658 55.7447C126.434 55.9889 126.638 57.5829 126.841 58.2409C127.431 58.1595 128.164 57.8339 128.428 57.6236C127.119 55.7718 126.678 55.7447 126.658 55.7447Z" fill="#9E7954"/>
<path fill-rule="evenodd" clip-rule="evenodd" d="M128.7 49.8849C131.623 44.0988 126.936 47.8567 126.617 48.4061C127.045 49.1862 128.496 50.2783 128.7 49.8849Z" fill="#FEE7D1"/>
<path d="M128.537 50.3735C127.893 50.3735 126.665 49.3425 126.258 48.6031L126.149 48.3996L126.265 48.2029C126.475 47.8434 128.232 46.29 129.236 46.29C129.534 46.29 129.785 46.4189 129.928 46.6495C130.165 47.0294 130.246 47.7349 129.066 50.0615C128.964 50.2582 128.768 50.3735 128.537 50.3735ZM127.119 48.4403C127.479 48.9151 128.11 49.3967 128.422 49.5256C129.426 47.4906 129.236 47.0972 129.229 47.0769C128.734 47.0972 127.56 48.0062 127.119 48.4403Z" fill="#9E7954"/>
<path fill-rule="evenodd" clip-rule="evenodd" d="M121.048 54.4765C117.358 49.1448 118.417 55.0395 118.749 55.5889C119.644 55.5889 121.306 54.8428 121.048 54.4765Z" fill="#EA4E51"/>
<path d="M118.749 55.9961H118.518L118.403 55.7994C118.179 55.4331 117.664 53.1404 118.152 52.2721C118.308 52.0008 118.545 51.8516 118.837 51.8516C119.251 51.8516 119.922 52.1229 121.388 54.2393C121.51 54.4156 121.516 54.6327 121.415 54.8362C121.089 55.4603 119.522 55.9961 118.749 55.9961ZM118.837 52.6656C118.613 52.9098 118.817 54.5038 119.02 55.1618C119.61 55.0804 120.343 54.7548 120.607 54.5445C119.298 52.6927 118.857 52.6656 118.837 52.6656Z" fill="#D24138"/>
<path fill-rule="evenodd" clip-rule="evenodd" d="M120.214 61.2263C125.593 57.5973 119.671 58.5944 119.115 58.92C119.108 59.8154 119.841 61.4773 120.214 61.2263Z" fill="#B8E1F1"/>
<path d="M120.126 61.6601C119.949 61.6601 119.78 61.5788 119.624 61.4227C119.162 60.9547 118.701 59.693 118.708 58.9197V58.6891L118.905 58.5738C119.23 58.3839 120.431 58.1396 121.326 58.1396C121.645 58.1396 122.622 58.1396 122.825 58.8112C123.029 59.4759 122.317 60.2967 120.438 61.5584L120.336 61.6262L120.126 61.6601ZM119.542 59.1978C119.624 59.788 119.936 60.5138 120.146 60.7783C122.018 59.4895 122.045 59.0554 122.045 59.035C122.011 59.0283 121.828 58.9536 121.326 58.9536C120.668 58.9536 119.915 59.0961 119.542 59.1978Z" fill="#5AB7DA"/>
<path fill-rule="evenodd" clip-rule="evenodd" d="M168.253 134.099C161.788 133.441 167.486 131.528 168.124 131.555C168.551 132.335 168.694 134.146 168.253 134.099Z" fill="#B8E1F1"/>
<path d="M168.266 134.505H168.205C165.77 134.254 164.746 133.813 164.787 133.033C164.848 131.887 167.697 131.154 168.11 131.154H168.348L168.477 131.365C168.877 132.084 169.094 133.657 168.762 134.214C168.653 134.397 168.47 134.505 168.266 134.505ZM165.601 133.081C165.621 133.081 165.919 133.433 168.097 133.678C168.151 133.345 168.083 132.552 167.873 131.995C167.201 132.138 165.702 132.728 165.601 133.081Z" fill="#5AB7DA"/>
<path fill-rule="evenodd" clip-rule="evenodd" d="M161.415 137.639C157.732 142.977 158.783 137.076 159.116 136.526C160.004 136.533 161.673 137.272 161.415 137.639Z" fill="#EA4E51"/>
<path d="M159.204 140.264C158.919 140.264 158.675 140.114 158.519 139.843C158.03 138.975 158.546 136.682 158.763 136.316L158.885 136.119H159.116C159.889 136.119 161.456 136.655 161.775 137.272C161.883 137.476 161.87 137.693 161.748 137.869C160.289 139.992 159.624 140.264 159.204 140.264ZM159.38 136.96C159.184 137.605 158.994 139.138 159.224 139.457C159.333 139.429 159.808 139.219 160.967 137.578C160.703 137.36 159.977 137.042 159.38 136.96Z" fill="#D24138"/>
<path fill-rule="evenodd" clip-rule="evenodd" d="M161.782 128.746C155.317 128.088 161.015 126.175 161.653 126.202C162.08 126.983 162.223 128.794 161.782 128.746Z" fill="#EA4E51"/>
<path d="M161.795 129.154H161.734C159.299 128.903 158.275 128.462 158.315 127.682C158.377 126.535 161.219 125.803 161.639 125.803H161.883L162.012 126.013C162.406 126.732 162.623 128.306 162.297 128.862C162.182 129.045 161.999 129.154 161.795 129.154ZM159.129 127.729C159.15 127.729 159.442 128.082 161.626 128.326C161.68 127.994 161.612 127.2 161.402 126.644C160.73 126.78 159.231 127.376 159.129 127.729Z" fill="#D24138"/>
<path fill-rule="evenodd" clip-rule="evenodd" d="M167.316 124.764C166.713 131.215 164.746 125.551 164.766 124.914C165.539 124.479 167.357 124.323 167.316 124.764Z" fill="#B8E1F1"/>
<path d="M166.299 128.23C166.055 128.23 165.818 128.115 165.594 127.885C164.915 127.179 164.332 125.361 164.346 124.9L164.352 124.669L164.556 124.554C165.098 124.249 166.001 124.086 166.604 124.086C167.086 124.086 167.391 124.174 167.568 124.371C167.676 124.486 167.73 124.642 167.71 124.798C167.493 127.206 167.072 128.23 166.299 128.23ZM165.2 125.158C165.349 125.816 165.926 127.247 166.286 127.41C166.367 127.335 166.686 126.921 166.889 124.927C166.828 124.92 166.74 124.907 166.611 124.907C166.157 124.907 165.594 125.009 165.2 125.158Z" fill="#5AB7DA"/>
<path fill-rule="evenodd" clip-rule="evenodd" d="M180.368 121.353C173.903 120.695 179.601 118.782 180.239 118.809C180.673 119.582 180.815 121.4 180.368 121.353Z" fill="#B8E1F1"/>
<path d="M180.381 121.759H180.327C177.885 121.508 176.868 121.067 176.901 120.28C176.963 119.134 179.811 118.401 180.225 118.401H180.469L180.598 118.612C180.999 119.331 181.216 120.904 180.883 121.461C180.768 121.651 180.592 121.759 180.381 121.759ZM177.715 120.328C177.736 120.328 178.027 120.681 180.212 120.925C180.266 120.592 180.205 119.799 179.988 119.242C179.323 119.385 177.824 119.982 177.715 120.328Z" fill="#5AB7DA"/>
<path fill-rule="evenodd" clip-rule="evenodd" d="M173.537 124.893C169.853 130.231 170.905 124.33 171.237 123.78C172.126 123.78 173.788 124.526 173.537 124.893Z" fill="#B8E1F1"/>
<path d="M171.325 127.519C171.041 127.519 170.796 127.369 170.64 127.098C170.152 126.23 170.667 123.937 170.885 123.571L171.007 123.374H171.237C172.011 123.374 173.577 123.91 173.896 124.527C174.005 124.731 173.991 124.948 173.869 125.124C172.404 127.247 171.739 127.519 171.325 127.519ZM171.502 124.208C171.305 124.853 171.115 126.386 171.346 126.705C171.454 126.677 171.929 126.467 173.082 124.826C172.825 124.615 172.092 124.29 171.502 124.208Z" fill="#5AB7DA"/>
<path fill-rule="evenodd" clip-rule="evenodd" d="M173.896 116.001C167.432 115.343 173.13 113.43 173.767 113.457C174.202 114.231 174.344 116.042 173.896 116.001Z" fill="#F4AECE"/>
<path d="M173.917 116.408H173.862C171.42 116.157 170.396 115.716 170.437 114.936C170.498 113.789 173.347 113.05 173.761 113.05H173.998L174.127 113.26C174.527 113.979 174.744 115.553 174.412 116.109C174.303 116.292 174.12 116.408 173.917 116.408ZM171.251 114.976C171.271 114.976 171.57 115.329 173.747 115.573C173.801 115.241 173.74 114.447 173.53 113.891C172.852 114.033 171.353 114.624 171.251 114.976Z" fill="#D87BB0"/>
<path fill-rule="evenodd" clip-rule="evenodd" d="M179.431 112.018C178.828 118.469 176.854 112.805 176.874 112.167C177.654 111.733 179.472 111.57 179.431 112.018Z" fill="#F4AECE"/>
<path d="M178.421 115.479C178.177 115.479 177.946 115.363 177.722 115.133C177.044 114.434 176.46 112.609 176.474 112.148L176.481 111.917L176.684 111.802C177.234 111.497 178.129 111.334 178.733 111.334C179.214 111.334 179.52 111.422 179.696 111.619C179.804 111.734 179.859 111.89 179.838 112.046C179.615 114.454 179.187 115.479 178.421 115.479ZM177.322 112.412C177.471 113.07 178.054 114.502 178.407 114.664C178.489 114.59 178.807 114.176 179.011 112.182C178.95 112.175 178.862 112.168 178.733 112.168C178.271 112.162 177.708 112.263 177.322 112.412Z" fill="#D87BB0"/>
<path fill-rule="evenodd" clip-rule="evenodd" d="M175.138 108.22C178.054 102.434 173.374 106.192 173.048 106.748C173.483 107.522 174.941 108.62 175.138 108.22Z" fill="#F4AECE"/>
<path d="M174.975 108.709C174.324 108.709 173.103 107.677 172.696 106.938L172.587 106.735L172.703 106.538C172.913 106.172 174.676 104.625 175.674 104.625C175.972 104.625 176.216 104.754 176.359 104.985C176.596 105.364 176.677 106.07 175.504 108.396C175.409 108.593 175.212 108.709 174.975 108.709ZM173.564 106.775C173.923 107.25 174.554 107.732 174.866 107.861C175.87 105.826 175.68 105.425 175.674 105.412C175.178 105.432 174.005 106.341 173.564 106.775Z" fill="#D87BB0"/>
<path fill-rule="evenodd" clip-rule="evenodd" d="M181.806 104.375C188.297 104.144 182.748 101.858 182.104 101.845C181.622 102.591 181.358 104.395 181.806 104.375Z" fill="#F9BA75"/>
<path d="M181.799 104.782C181.589 104.782 181.405 104.666 181.297 104.47C180.985 103.9 181.304 102.34 181.758 101.627L181.88 101.438L182.111 101.444C182.484 101.451 185.326 102.394 185.333 103.527C185.333 104.32 184.288 104.7 181.819 104.788H181.799V104.782ZM182.321 102.299C182.077 102.842 181.955 103.629 181.989 103.961C184.261 103.866 184.519 103.506 184.526 103.486C184.444 103.174 182.986 102.489 182.321 102.299Z" fill="#66343B"/>
<path fill-rule="evenodd" clip-rule="evenodd" d="M174.086 99.9033C177.003 94.1105 172.323 97.8752 171.997 98.4246C172.431 99.2047 173.883 100.297 174.086 99.9033Z" fill="#F9BA75"/>
<path d="M173.924 100.392C173.272 100.392 172.051 99.3611 171.644 98.6217L171.536 98.4182L171.651 98.2214C171.861 97.8619 173.625 96.3086 174.622 96.3086C174.921 96.3086 175.172 96.4375 175.314 96.6681C175.552 97.048 175.633 97.7534 174.459 100.08C174.351 100.277 174.161 100.392 173.924 100.392ZM172.506 98.4589C172.865 98.9337 173.496 99.4153 173.808 99.5442C174.812 97.5092 174.622 97.109 174.609 97.0955C174.12 97.1158 172.947 98.0248 172.506 98.4589Z" fill="#66343B"/>
<path fill-rule="evenodd" clip-rule="evenodd" d="M167.744 102.414C173.523 105.371 169.793 100.677 169.243 100.345C168.456 100.765 167.351 102.21 167.744 102.414Z" fill="#F9BA75"/>
<path d="M170.423 103.791C169.833 103.791 168.897 103.459 167.554 102.773C167.364 102.678 167.249 102.489 167.249 102.258C167.242 101.566 168.361 100.352 169.046 99.9855L169.25 99.877L169.447 99.9922C169.799 100.202 171.583 102.204 171.312 103.208C171.264 103.384 171.081 103.791 170.423 103.791ZM168.11 102.143C169.487 102.834 170.132 102.984 170.43 102.984C170.525 102.984 170.559 102.97 170.559 102.97C170.64 102.651 169.704 101.342 169.216 100.854C168.728 101.2 168.239 101.83 168.11 102.143Z" fill="#66343B"/>
<path fill-rule="evenodd" clip-rule="evenodd" d="M178.55 86.6152C185.014 87.2731 179.316 89.186 178.678 89.1589C178.244 88.3856 178.102 86.5677 178.55 86.6152Z" fill="#EA4E51"/>
<path d="M178.685 89.5666L178.421 89.5599L178.312 89.3564C177.912 88.6374 177.695 87.0636 178.027 86.5074C178.143 86.3175 178.319 86.209 178.529 86.209C181.025 86.46 182.05 86.9009 182.009 87.6878C181.955 88.8341 179.106 89.5666 178.685 89.5666ZM178.699 87.0433C178.645 87.3757 178.706 88.1693 178.916 88.7255C179.594 88.5831 181.087 87.993 181.195 87.6402C181.195 87.6606 181.025 87.3011 178.699 87.0433Z" fill="#D24138"/>
<path fill-rule="evenodd" clip-rule="evenodd" d="M185.38 83.0752C189.064 77.7368 188.012 83.6382 187.68 84.1876C186.791 84.1876 185.13 83.4415 185.38 83.0752Z" fill="#EA4E51"/>
<path d="M187.911 84.5938H187.68C186.907 84.5938 185.34 84.0579 185.021 83.4406C184.913 83.2371 184.926 83.0201 185.041 82.8437C186.507 80.7206 187.171 80.4492 187.592 80.4492C187.877 80.4492 188.121 80.5984 188.277 80.863C188.772 81.7312 188.257 84.0239 188.033 84.3902L187.911 84.5938ZM185.828 83.1421C186.093 83.3524 186.825 83.6713 187.415 83.7594C187.612 83.0947 187.809 81.5074 187.551 81.2428C187.565 81.2632 187.117 81.3107 185.828 83.1421Z" fill="#D24138"/>
<path fill-rule="evenodd" clip-rule="evenodd" d="M185.014 91.9745C191.479 92.6325 185.781 94.5454 185.143 94.5183C184.716 93.7382 184.573 91.9271 185.014 91.9745Z" fill="#F9CDD2"/>
<path d="M185.157 94.925L184.892 94.9183L184.783 94.7148C184.383 93.9958 184.166 92.422 184.499 91.8658C184.614 91.6759 184.79 91.5674 185.001 91.5674C187.497 91.8184 188.521 92.2592 188.48 93.0461C188.419 94.1857 185.577 94.925 185.157 94.925ZM185.17 92.3949C185.116 92.7273 185.177 93.5209 185.387 94.0771C186.065 93.9347 187.558 93.3378 187.666 92.9918C187.666 92.9851 187.497 92.6527 185.17 92.3949Z" fill="#D87BB0"/>
<path fill-rule="evenodd" clip-rule="evenodd" d="M179.486 95.9493C180.09 89.4984 182.057 95.1625 182.036 95.8001C181.256 96.2342 179.445 96.397 179.486 95.9493Z" fill="#F9CDD2"/>
<path d="M180.185 96.6212C179.703 96.6212 179.398 96.533 179.221 96.3363C179.113 96.221 179.059 96.065 179.079 95.909C179.303 93.5077 179.73 92.4834 180.497 92.4834C180.741 92.4834 180.971 92.5987 181.195 92.8293C181.874 93.528 182.457 95.3527 182.443 95.814L182.437 96.0446L182.233 96.1599C181.69 96.4652 180.788 96.6212 180.185 96.6212ZM179.913 95.7936C179.974 95.8004 180.063 95.814 180.191 95.814C180.646 95.814 181.209 95.7122 181.602 95.563C181.453 94.8915 180.843 93.4059 180.49 93.3041C180.503 93.3109 180.137 93.5619 179.913 95.7936Z" fill="#D87BB0"/>
<path fill-rule="evenodd" clip-rule="evenodd" d="M101.974 106.423C97.4155 111.043 103.025 108.892 103.507 108.465C103.337 107.597 102.286 106.111 101.974 106.423Z" fill="#B8E1F1"/>
<path d="M100.827 109.747C100.203 109.747 99.9524 109.476 99.8574 109.245C99.6743 108.811 99.7489 108.106 101.689 106.145C101.797 106.037 101.933 105.982 102.089 105.982C102.815 105.982 103.758 107.604 103.914 108.397L103.955 108.621L103.785 108.777C103.439 109.076 101.791 109.747 100.827 109.747ZM100.617 108.92C100.644 108.92 100.705 108.933 100.827 108.933C101.472 108.933 102.564 108.526 103.039 108.282C102.842 107.719 102.388 107.068 102.137 106.851C100.692 108.329 100.61 108.825 100.617 108.92C100.61 108.92 100.61 108.92 100.617 108.92Z" fill="#5AB7DA"/>
<path fill-rule="evenodd" clip-rule="evenodd" d="M94.4444 108.043C88.1903 106.273 92.7757 110.153 93.3862 110.363C94.0713 109.794 94.8785 108.166 94.4444 108.043Z" fill="#B8E1F1"/>
<path d="M93.4677 110.818L93.2506 110.744C92.8368 110.594 90.6255 108.912 90.8019 107.874C90.8561 107.556 91.1071 107.169 91.9957 107.169C92.5859 107.169 93.4202 107.325 94.553 107.644C94.7632 107.705 94.9057 107.861 94.9532 108.085C95.0956 108.763 94.2342 110.174 93.6372 110.662L93.4677 110.818ZM91.9957 107.99C91.6701 107.99 91.5819 108.051 91.5819 108.051C91.5683 108.383 92.7418 109.475 93.3184 109.862C93.7186 109.421 94.0782 108.709 94.146 108.376C93.1963 108.119 92.4705 107.99 91.9957 107.99Z" fill="#5AB7DA"/>
<path fill-rule="evenodd" clip-rule="evenodd" d="M100.414 114.664C95.8553 119.284 101.465 117.133 101.947 116.706C101.777 115.831 100.732 114.345 100.414 114.664Z" fill="#9E7954"/>
<path d="M99.2672 117.981C98.6432 117.981 98.3922 117.71 98.2972 117.479C98.1141 117.045 98.1887 116.34 100.129 114.38C100.237 114.271 100.373 114.217 100.529 114.217C101.262 114.217 102.204 115.838 102.354 116.632L102.394 116.855L102.225 117.011C101.879 117.31 100.23 117.981 99.2672 117.981ZM99.057 117.154C99.0773 117.154 99.1451 117.167 99.2672 117.167C99.9116 117.167 101.004 116.761 101.479 116.516C101.282 115.953 100.827 115.302 100.57 115.085C99.1316 116.564 99.0502 117.059 99.0502 117.154H99.057Z" fill="#66343B"/>
<path fill-rule="evenodd" clip-rule="evenodd" d="M107.224 114.209C102.632 109.623 104.735 115.24 105.162 115.715C106.037 115.559 107.543 114.528 107.224 114.209Z" fill="#9E7954"/>
<path d="M105.013 116.163L104.863 115.994C104.558 115.648 103.602 113.396 104.016 112.487C104.151 112.188 104.409 112.019 104.735 112.019C105.142 112.019 105.82 112.236 107.516 113.925C107.665 114.074 107.719 114.291 107.651 114.508C107.448 115.173 106.003 115.98 105.243 116.122L105.013 116.163ZM104.728 112.833C104.545 113.111 105.033 114.644 105.345 115.254C105.908 115.064 106.573 114.617 106.79 114.366C105.311 112.907 104.816 112.833 104.728 112.833Z" fill="#66343B"/>
<path fill-rule="evenodd" clip-rule="evenodd" d="M119.468 108.546C114.91 113.165 120.519 111.015 121.001 110.588C120.831 109.713 119.78 108.227 119.468 108.546Z" fill="#F4AECE"/>
<path d="M118.315 111.862C117.691 111.862 117.44 111.591 117.345 111.354C117.161 110.919 117.236 110.214 119.176 108.254C119.285 108.145 119.42 108.091 119.576 108.091C120.309 108.091 121.252 109.712 121.401 110.506L121.442 110.73L121.272 110.886C120.926 111.191 119.278 111.862 118.315 111.862ZM118.104 111.035C118.131 111.035 118.192 111.048 118.315 111.048C118.959 111.048 120.051 110.641 120.526 110.397C120.329 109.834 119.875 109.183 119.624 108.966C118.186 110.445 118.098 110.94 118.104 111.035C118.098 111.035 118.104 111.035 118.104 111.035Z" fill="#D87BB0"/>
<path fill-rule="evenodd" clip-rule="evenodd" d="M111.938 110.161C105.684 108.39 110.27 112.27 110.88 112.48C111.559 111.911 112.366 110.283 111.938 110.161Z" fill="#9E7954"/>
<path d="M110.955 112.941L110.738 112.867C110.324 112.718 108.113 111.035 108.289 109.997C108.343 109.679 108.594 109.292 109.483 109.292C110.073 109.292 110.914 109.448 112.047 109.767C112.25 109.821 112.4 109.984 112.447 110.208C112.59 110.886 111.728 112.297 111.131 112.792L110.955 112.941ZM109.483 110.106C109.157 110.106 109.069 110.174 109.069 110.174C109.055 110.499 110.229 111.598 110.806 111.985C111.206 111.544 111.565 110.832 111.633 110.499C110.683 110.235 109.965 110.106 109.483 110.106Z" fill="#66343B"/>
<path fill-rule="evenodd" clip-rule="evenodd" d="M117.908 116.78C113.349 121.4 118.959 119.25 119.441 118.822C119.271 117.947 118.22 116.462 117.908 116.78Z" fill="#F4AECE"/>
<path d="M116.754 120.098C116.13 120.098 115.879 119.826 115.784 119.596C115.601 119.162 115.676 118.456 117.616 116.496C117.724 116.387 117.86 116.333 118.016 116.333C118.749 116.333 119.692 117.954 119.841 118.748L119.882 118.972L119.712 119.128C119.366 119.433 117.718 120.098 116.754 120.098ZM116.544 119.27C116.571 119.27 116.632 119.284 116.754 119.284C117.399 119.284 118.491 118.877 118.966 118.633C118.769 118.07 118.315 117.418 118.057 117.201C116.626 118.687 116.544 119.182 116.544 119.27Z" fill="#D87BB0"/>
<path fill-rule="evenodd" clip-rule="evenodd" d="M124.711 116.326C120.119 111.741 122.222 117.357 122.649 117.832C123.531 117.676 125.03 116.645 124.711 116.326Z" fill="#F4AECE"/>
<path d="M122.5 118.279L122.344 118.11C122.039 117.764 121.089 115.512 121.496 114.603C121.632 114.311 121.889 114.142 122.215 114.142C122.622 114.142 123.3 114.359 124.996 116.048C125.152 116.197 125.2 116.414 125.125 116.631C124.915 117.296 123.477 118.103 122.717 118.245L122.5 118.279ZM122.222 114.949C122.039 115.227 122.527 116.76 122.839 117.37C123.402 117.18 124.067 116.733 124.291 116.482C122.805 115.023 122.31 114.949 122.222 114.949Z" fill="#D87BB0"/>
<path fill-rule="evenodd" clip-rule="evenodd" d="M123.836 121.983C129.785 124.588 123.775 124.669 123.172 124.445C123.009 123.57 123.429 121.807 123.836 121.983Z" fill="#5AB7DA"/>
<path d="M124.094 124.934C123.857 124.934 123.287 124.92 123.029 124.832L122.812 124.751L122.771 124.527C122.615 123.72 122.887 122.309 123.287 121.827C123.463 121.617 123.653 121.569 123.775 121.569L123.999 121.617C126.136 122.553 126.984 123.252 126.834 123.957C126.665 124.764 125.254 124.934 124.094 124.934ZM123.545 124.099C123.673 124.113 123.863 124.12 124.094 124.12C125.301 124.12 125.959 123.889 126.048 123.767C126.027 123.767 125.871 123.34 123.85 122.438C123.701 122.736 123.517 123.503 123.545 124.099Z" fill="#2C87A8"/>
<path fill-rule="evenodd" clip-rule="evenodd" d="M131.433 120.701C136.582 116.746 133.767 122.044 133.278 122.465C132.431 122.193 131.081 120.979 131.433 120.701Z" fill="#F4AECE"/>
<path d="M133.373 122.926L133.156 122.852C132.417 122.614 131.101 121.624 130.979 120.939C130.938 120.715 131.02 120.511 131.189 120.376C132.987 118.992 133.692 118.836 134.065 118.836C134.432 118.836 134.71 119.019 134.832 119.338C135.184 120.274 133.923 122.445 133.556 122.763L133.373 122.926ZM131.834 120.912C132.023 121.19 132.62 121.719 133.156 121.983C133.55 121.414 134.228 119.955 134.058 119.63C133.889 119.65 133.333 119.779 131.834 120.912Z" fill="#D87BB0"/>
<path fill-rule="evenodd" clip-rule="evenodd" d="M128.347 129.058C134.296 131.663 128.286 131.744 127.682 131.52C127.52 130.652 127.94 128.882 128.347 129.058Z" fill="#F4AECE"/>
<path d="M128.612 132.009C128.374 132.009 127.804 132.002 127.547 131.907L127.33 131.826L127.289 131.602C127.133 130.795 127.404 129.384 127.798 128.902C127.974 128.692 128.164 128.645 128.293 128.645L128.517 128.692C130.653 129.628 131.501 130.327 131.352 131.032C131.176 131.839 129.765 132.009 128.612 132.009ZM128.055 131.175C128.184 131.188 128.374 131.195 128.612 131.195C129.819 131.195 130.47 130.964 130.558 130.842C130.538 130.842 130.382 130.415 128.367 129.513C128.211 129.811 128.028 130.578 128.055 131.175Z" fill="#D87BB0"/>
<path fill-rule="evenodd" clip-rule="evenodd" d="M121.855 131.155C124.42 125.199 124.548 131.189 124.331 131.792C123.456 131.969 121.679 131.562 121.855 131.155Z" fill="#5AB7DA"/>
<path d="M123.843 132.246C123.246 132.246 121.896 132.07 121.537 131.534C121.428 131.371 121.408 131.175 121.483 130.998C122.568 128.475 123.192 128.136 123.66 128.136C123.843 128.136 124.108 128.204 124.331 128.516C124.894 129.316 124.874 131.493 124.718 131.934L124.644 132.151L124.42 132.199C124.243 132.226 124.053 132.246 123.843 132.246ZM122.31 131.134C122.595 131.27 123.348 131.46 123.986 131.426C124.053 130.74 123.931 129.14 123.626 128.936C123.64 128.95 123.212 129.079 122.31 131.134Z" fill="#2C87A8"/>
<path fill-rule="evenodd" clip-rule="evenodd" d="M140.279 136.459C144.837 131.839 139.227 133.989 138.746 134.417C138.922 135.285 139.967 136.777 140.279 136.459Z" fill="#F4AECE"/>
<path d="M140.177 136.906C139.445 136.906 138.502 135.285 138.352 134.491L138.312 134.268L138.481 134.112C138.821 133.806 140.476 133.135 141.439 133.135C142.063 133.135 142.314 133.406 142.409 133.637C142.592 134.071 142.517 134.776 140.577 136.737C140.469 136.852 140.326 136.906 140.177 136.906ZM139.221 134.6C139.417 135.163 139.872 135.814 140.13 136.031C141.568 134.552 141.649 134.057 141.649 133.962C141.629 133.996 141.561 133.949 141.432 133.949C140.788 133.949 139.696 134.362 139.221 134.6Z" fill="#D87BB0"/>
<path fill-rule="evenodd" clip-rule="evenodd" d="M147.808 134.837C154.062 136.608 149.477 132.728 148.873 132.518C148.188 133.087 147.381 134.715 147.808 134.837Z" fill="#F4AECE"/>
<path d="M150.264 135.706C149.673 135.706 148.832 135.55 147.7 135.231C147.489 135.17 147.347 135.007 147.299 134.784C147.157 134.105 148.018 132.694 148.615 132.206L148.792 132.057L149.009 132.131C149.443 132.287 151.641 133.942 151.457 135.001C151.403 135.326 151.145 135.706 150.264 135.706ZM148.107 134.505C149.056 134.77 149.782 134.899 150.257 134.899C150.582 134.899 150.671 134.831 150.671 134.831C150.684 134.505 149.511 133.407 148.934 133.02C148.534 133.461 148.181 134.173 148.107 134.505Z" fill="#D87BB0"/>
<path fill-rule="evenodd" clip-rule="evenodd" d="M141.839 128.217C146.397 123.598 140.787 125.748 140.306 126.176C140.475 127.051 141.527 128.536 141.839 128.217Z" fill="#F4AECE"/>
<path d="M141.73 128.672C141.004 128.672 140.062 127.051 139.906 126.257L139.865 126.033L140.034 125.877C140.374 125.572 142.029 124.9 142.992 124.9C143.616 124.9 143.867 125.172 143.962 125.402C144.145 125.836 144.071 126.542 142.131 128.502C142.022 128.611 141.886 128.672 141.73 128.672ZM140.781 126.359C140.977 126.922 141.432 127.573 141.683 127.79C143.121 126.311 143.202 125.816 143.202 125.721C143.189 125.728 143.121 125.708 142.985 125.708C142.348 125.714 141.255 126.121 140.781 126.359Z" fill="#D87BB0"/>
<path fill-rule="evenodd" clip-rule="evenodd" d="M135.035 128.672C139.628 133.257 137.525 127.641 137.097 127.166C136.216 127.322 134.717 128.353 135.035 128.672Z" fill="#F4AECE"/>
<path d="M137.525 130.87C137.118 130.87 136.439 130.653 134.744 128.964C134.588 128.815 134.54 128.598 134.615 128.381C134.818 127.716 136.263 126.909 137.023 126.766L137.247 126.726L137.403 126.895C137.708 127.241 138.657 129.493 138.25 130.402C138.115 130.701 137.85 130.87 137.525 130.87ZM135.463 128.523C136.948 129.982 137.443 130.056 137.531 130.056V130.463L137.545 130.056C137.721 129.778 137.233 128.245 136.914 127.635C136.344 127.818 135.68 128.265 135.463 128.523Z" fill="#D87BB0"/>
<path fill-rule="evenodd" clip-rule="evenodd" d="M140.625 48.507C136.066 53.1263 141.676 50.9761 142.158 50.5487C141.981 49.6737 140.937 48.1882 140.625 48.507Z" fill="#FEE7D1"/>
<path d="M139.472 51.8243C138.847 51.8243 138.596 51.5529 138.501 51.3223C138.318 50.8882 138.393 50.1827 140.333 48.2224C140.442 48.1138 140.577 48.0596 140.733 48.0596C141.459 48.0596 142.402 49.6808 142.558 50.4744L142.599 50.6983L142.429 50.8543C142.083 51.1527 140.435 51.8243 139.472 51.8243ZM139.261 50.9967C139.288 50.9967 139.349 51.0103 139.472 51.0103C140.116 51.0103 141.208 50.6033 141.683 50.3591C141.486 49.7961 141.032 49.1449 140.781 48.9278C139.343 50.4065 139.254 50.9018 139.261 50.9967C139.254 50.9967 139.261 50.9967 139.261 50.9967Z" fill="#9E7954"/>
<path fill-rule="evenodd" clip-rule="evenodd" d="M133.095 50.1222C126.841 48.3517 131.427 52.225 132.037 52.442C132.722 51.8722 133.523 50.2443 133.095 50.1222Z" fill="#FEE7D1"/>
<path d="M132.112 52.8964L131.895 52.8218C131.481 52.6726 129.27 50.9903 129.446 49.9525C129.5 49.6337 129.751 49.2471 130.64 49.2471C131.23 49.2471 132.071 49.4031 133.204 49.7219C133.414 49.783 133.557 49.9457 133.604 50.1696C133.746 50.8479 132.885 52.2588 132.288 52.7472L132.112 52.8964ZM130.647 50.0678C130.321 50.0678 130.233 50.1289 130.233 50.1357C130.219 50.4613 131.393 51.5601 131.969 51.9468C132.369 51.5059 132.729 50.7936 132.797 50.4613C131.84 50.1967 131.121 50.0678 130.647 50.0678Z" fill="#9E7954"/>
<path fill-rule="evenodd" clip-rule="evenodd" d="M139.064 56.7423C134.506 61.3617 140.116 59.2114 140.597 58.7841C140.428 57.909 139.376 56.4235 139.064 56.7423Z" fill="#FEE7D1"/>
<path d="M137.911 60.0596C137.287 60.0596 137.036 59.7883 136.941 59.5577C136.758 59.1235 136.833 58.4181 138.773 56.4577C138.881 56.3492 139.017 56.2949 139.173 56.2949C139.899 56.2949 140.842 57.9161 140.998 58.7097L141.038 58.9336L140.869 59.0896C140.53 59.3949 138.874 60.0596 137.911 60.0596ZM137.701 59.232C137.728 59.232 137.789 59.2456 137.911 59.2456C138.556 59.2456 139.648 58.8386 140.123 58.5944C139.926 58.0314 139.471 57.3802 139.214 57.1632C137.782 58.6487 137.694 59.1438 137.701 59.232Z" fill="#9E7954"/>
<path fill-rule="evenodd" clip-rule="evenodd" d="M145.868 56.2947C141.276 51.7093 143.379 57.3257 143.806 57.8006C144.688 57.6378 146.187 56.6067 145.868 56.2947Z" fill="#B8E1F1"/>
<path d="M143.657 58.2413L143.508 58.0717C143.202 57.7257 142.246 55.4737 142.66 54.5647C142.795 54.2663 143.053 54.0967 143.379 54.0967C143.786 54.0967 144.464 54.3137 146.16 56.0028C146.316 56.152 146.363 56.3691 146.295 56.5862C146.085 57.2509 144.647 58.0581 143.887 58.2006L143.657 58.2413ZM143.379 54.9107C143.196 55.1888 143.677 56.7218 143.996 57.3323C144.559 57.1424 145.224 56.6947 145.448 56.4437C143.962 54.9853 143.46 54.9107 143.379 54.9107Z" fill="#5AB7DA"/>
<path fill-rule="evenodd" clip-rule="evenodd" d="M158.112 50.6232C153.553 55.2426 159.163 53.0923 159.645 52.6649C159.475 51.7899 158.424 50.3044 158.112 50.6232Z" fill="#EA4E51"/>
<path d="M156.959 53.9405C156.335 53.9405 156.084 53.6691 155.989 53.4385C155.806 53.0044 155.88 52.2989 157.82 50.3386C157.929 50.23 158.064 50.1758 158.22 50.1758C158.953 50.1758 159.896 51.797 160.045 52.5906L160.086 52.8145L159.916 52.9705C159.577 53.2689 157.922 53.9405 156.959 53.9405ZM156.748 53.1129C156.776 53.1129 156.837 53.1265 156.959 53.1265C157.603 53.1265 158.695 52.7195 159.17 52.4753C158.973 51.9123 158.519 51.2611 158.261 51.044C156.83 52.5228 156.748 53.018 156.748 53.1129Z" fill="#A0332C"/>
<path fill-rule="evenodd" clip-rule="evenodd" d="M150.582 52.2378C144.335 50.4674 148.914 54.3474 149.524 54.5577C150.209 53.9879 151.01 52.3599 150.582 52.2378Z" fill="#B8E1F1"/>
<path d="M149.606 55.0195L149.389 54.9448C148.975 54.8024 146.763 53.1202 146.94 52.0756C146.994 51.7567 147.245 51.3701 148.134 51.3701C148.724 51.3701 149.565 51.5261 150.698 51.845C150.901 51.8992 151.05 52.062 151.098 52.2858C151.24 52.9642 150.379 54.3751 149.782 54.8635L149.606 55.0195ZM148.134 52.1841C147.808 52.1841 147.72 52.2519 147.72 52.2519C147.706 52.5843 148.88 53.6764 149.456 54.063C149.857 53.6221 150.216 52.9099 150.284 52.5843C149.327 52.313 148.608 52.1841 148.134 52.1841Z" fill="#5AB7DA"/>
<path fill-rule="evenodd" clip-rule="evenodd" d="M156.552 58.8584C151.993 63.4777 157.603 61.3275 158.085 60.9001C157.915 60.0319 156.864 58.5396 156.552 58.8584Z" fill="#EA4E51"/>
<path d="M155.405 62.1827C154.781 62.1827 154.53 61.9045 154.435 61.6807C154.252 61.2466 154.327 60.5411 156.267 58.5808C156.375 58.4722 156.511 58.418 156.66 58.418C157.393 58.418 158.336 60.0392 158.485 60.8328L158.526 61.0566L158.356 61.2059C158.017 61.5111 156.369 62.1827 155.405 62.1827ZM155.195 61.3483C155.222 61.3483 155.283 61.3619 155.405 61.3619C156.05 61.3619 157.142 60.9549 157.617 60.7107C157.42 60.1477 156.966 59.4965 156.715 59.2794C155.27 60.7649 155.188 61.2601 155.195 61.3483C155.188 61.3483 155.195 61.3483 155.195 61.3483Z" fill="#A0332C"/>
<path fill-rule="evenodd" clip-rule="evenodd" d="M163.362 58.4051C158.77 53.8196 160.873 59.4361 161.3 59.9109C162.175 59.7549 163.674 58.7239 163.362 58.4051Z" fill="#EA4E51"/>
<path d="M161.144 60.3574L160.995 60.1879C160.689 59.8419 159.733 57.5898 160.147 56.6809C160.282 56.3824 160.54 56.2129 160.866 56.2129C161.273 56.2129 161.951 56.43 163.647 58.119C163.803 58.2682 163.85 58.4853 163.776 58.7023C163.565 59.3671 162.127 60.1743 161.368 60.3167L161.144 60.3574ZM160.866 57.0268C160.683 57.305 161.171 58.838 161.483 59.4485C162.046 59.2585 162.711 58.8108 162.935 58.5599C161.449 57.1015 160.954 57.0268 160.866 57.0268Z" fill="#A0332C"/>
<path fill-rule="evenodd" clip-rule="evenodd" d="M162.487 64.0611C168.436 66.6658 162.426 66.7473 161.822 66.5234C161.653 65.6552 162.073 63.8847 162.487 64.0611Z" fill="#B8E1F1"/>
<path d="M162.745 67.012C162.507 67.012 161.938 67.0052 161.68 66.9102L161.463 66.8288L161.422 66.6049C161.266 65.7977 161.537 64.3868 161.931 63.9052C162.107 63.6949 162.297 63.6475 162.426 63.6475L162.65 63.6949C164.787 64.631 165.634 65.3297 165.485 66.0352C165.316 66.8424 163.905 67.012 162.745 67.012ZM162.195 66.1776C162.324 66.1912 162.514 66.198 162.752 66.198C163.959 66.198 164.617 65.9673 164.698 65.8452C164.678 65.8452 164.522 65.4179 162.501 64.5157C162.345 64.8142 162.168 65.5807 162.195 66.1776Z" fill="#5AB7DA"/>
<path fill-rule="evenodd" clip-rule="evenodd" d="M170.077 62.786C175.226 58.8314 172.411 64.1291 171.922 64.5497C171.081 64.2716 169.725 63.0573 170.077 62.786Z" fill="#B8E1F1"/>
<path d="M172.024 65.0043L171.807 64.9297C171.075 64.6923 169.745 63.702 169.63 63.0168C169.589 62.793 169.664 62.5895 169.833 62.4538C171.631 61.07 172.336 60.9141 172.709 60.9141C173.076 60.9141 173.354 61.0972 173.476 61.416C173.829 62.3521 172.567 64.5227 172.201 64.8415L172.024 65.0043ZM170.484 62.9897C170.674 63.2678 171.271 63.7969 171.807 64.0614C172.201 63.4917 172.879 62.0333 172.709 61.7077C172.533 61.728 171.984 61.8569 170.484 62.9897Z" fill="#5AB7DA"/>
<path fill-rule="evenodd" clip-rule="evenodd" d="M166.998 71.1363C172.947 73.741 166.937 73.8224 166.333 73.5986C166.163 72.7303 166.584 70.9599 166.998 71.1363Z" fill="#B8E1F1"/>
<path d="M167.255 74.0872C167.018 74.0872 166.448 74.0736 166.191 73.9854L165.973 73.904L165.933 73.6802C165.777 72.873 166.048 71.462 166.448 70.9804C166.625 70.7701 166.815 70.7227 166.937 70.7227L167.161 70.7701C169.297 71.7062 170.145 72.4049 169.996 73.1104C169.826 73.9176 168.409 74.0872 167.255 74.0872ZM166.699 73.2528C166.828 73.2664 167.018 73.2732 167.249 73.2732C168.456 73.2732 169.114 73.0425 169.202 72.9204C169.182 72.9204 169.026 72.4931 167.005 71.5909C166.855 71.8894 166.672 72.6559 166.699 73.2528Z" fill="#5AB7DA"/>
<path fill-rule="evenodd" clip-rule="evenodd" d="M160.506 73.2328C163.07 67.2772 163.199 73.2668 162.982 73.8705C162.107 74.0468 160.33 73.6466 160.506 73.2328Z" fill="#EA4E51"/>
<path d="M162.494 74.3245C161.897 74.3245 160.54 74.1481 160.188 73.6123C160.079 73.4495 160.059 73.2528 160.133 73.0764C161.219 70.5531 161.843 70.2139 162.311 70.2139C162.494 70.2139 162.758 70.2817 162.982 70.5937C163.545 71.3874 163.525 73.5716 163.369 74.0125L163.294 74.2296L163.07 74.277C162.894 74.3041 162.697 74.3245 162.494 74.3245ZM160.961 73.2121C161.239 73.3477 161.992 73.5377 162.636 73.5038C162.697 72.8187 162.582 71.2178 162.277 71.0143C162.29 71.0278 161.863 71.1635 160.961 73.2121Z" fill="#A0332C"/>
<path fill-rule="evenodd" clip-rule="evenodd" d="M178.93 78.5367C183.488 73.9173 177.878 76.0676 177.396 76.4949C177.566 77.3632 178.617 78.8555 178.93 78.5367Z" fill="#EA4E51"/>
<path d="M178.821 78.9844C178.088 78.9844 177.145 77.3632 176.996 76.5695L176.956 76.3457L177.125 76.1897C177.464 75.8844 179.113 75.2129 180.076 75.2129C180.7 75.2129 180.951 75.4843 181.046 75.7149C181.229 76.149 181.154 76.8544 179.214 78.8148C179.113 78.9301 178.977 78.9844 178.821 78.9844ZM177.871 76.6781C178.068 77.2411 178.522 77.8923 178.773 78.1093C180.211 76.6306 180.293 76.1354 180.293 76.0405C180.273 76.0676 180.205 76.0269 180.076 76.0269C179.431 76.0269 178.346 76.4407 177.871 76.6781Z" fill="#D24138"/>
<path fill-rule="evenodd" clip-rule="evenodd" d="M186.459 76.9224C192.713 78.6928 188.128 74.8128 187.517 74.6025C186.832 75.1655 186.025 76.7935 186.459 76.9224Z" fill="#B8E1F1"/>
<path d="M188.908 77.791C188.318 77.791 187.476 77.635 186.344 77.3161C186.133 77.2551 185.991 77.0923 185.943 76.8684C185.801 76.1901 186.662 74.7792 187.259 74.2908L187.436 74.1416L187.653 74.2162C188.087 74.3654 190.285 76.0273 190.102 77.0855C190.047 77.4043 189.796 77.791 188.908 77.791ZM186.757 76.5835C187.707 76.8481 188.433 76.977 188.908 76.977C189.233 76.977 189.321 76.9159 189.321 76.9159C189.335 76.5903 188.161 75.4915 187.585 75.1048C187.185 75.5389 186.825 76.2512 186.757 76.5835Z" fill="#5AB7DA"/>
<path fill-rule="evenodd" clip-rule="evenodd" d="M180.49 70.2954C185.048 65.6761 179.438 67.8264 178.957 68.2537C179.126 69.1288 180.171 70.6142 180.49 70.2954Z" fill="#B8E1F1"/>
<path d="M180.381 70.75C179.649 70.75 178.706 69.1288 178.556 68.3352L178.516 68.1113L178.685 67.9553C179.024 67.6501 180.673 66.9785 181.636 66.9785C182.26 66.9785 182.511 67.2498 182.606 67.4805C182.789 67.9146 182.715 68.6201 180.775 70.5804C180.673 70.6889 180.53 70.75 180.381 70.75ZM179.432 68.4369C179.628 68.9999 180.083 69.6511 180.334 69.8681C181.772 68.3894 181.853 67.8942 181.853 67.7993C181.84 67.7925 181.772 67.7857 181.636 67.7857C180.992 67.7925 179.9 68.1995 179.432 68.4369Z" fill="#5AB7DA"/>
<path fill-rule="evenodd" clip-rule="evenodd" d="M173.679 70.75C178.272 75.3355 176.169 69.719 175.741 69.2441C174.866 69.4002 173.367 70.438 173.679 70.75Z" fill="#B8E1F1"/>
<path d="M176.176 72.9473C175.769 72.9473 175.09 72.7302 173.394 71.0412C173.238 70.892 173.191 70.6749 173.266 70.4578C173.476 69.7931 174.914 68.9791 175.674 68.8434L175.897 68.8027L176.047 68.9723C176.352 69.3183 177.308 71.5703 176.895 72.4792C176.759 72.7777 176.501 72.9473 176.176 72.9473ZM174.107 70.6003C175.592 72.0587 176.087 72.1333 176.176 72.1333V72.5403L176.182 72.1333C176.359 71.8552 175.87 70.3222 175.551 69.7117C174.988 69.8948 174.331 70.3493 174.107 70.6003Z" fill="#5AB7DA"/>
<path fill-rule="evenodd" clip-rule="evenodd" d="M103.988 126.935C107.678 132.266 106.62 126.372 106.288 125.822C105.399 125.816 103.731 126.562 103.988 126.935Z" fill="#5AB7DA"/>
<path d="M106.2 129.553C105.786 129.553 105.114 129.281 103.649 127.165C103.527 126.989 103.52 126.772 103.622 126.568C103.948 125.951 105.508 125.415 106.281 125.415H106.512L106.634 125.612C106.851 125.978 107.373 128.271 106.878 129.139C106.729 129.404 106.491 129.553 106.2 129.553ZM104.436 126.86C105.596 128.501 106.071 128.712 106.179 128.739C106.41 128.427 106.22 126.894 106.023 126.243C105.433 126.331 104.701 126.65 104.436 126.86Z" fill="#2C87A8"/>
<path fill-rule="evenodd" clip-rule="evenodd" d="M104.158 134.607C101.234 140.393 105.922 136.635 106.241 136.085C105.813 135.305 104.362 134.206 104.158 134.607Z" fill="#5AB7DA"/>
<path d="M103.629 138.202C103.331 138.202 103.08 138.073 102.937 137.842C102.7 137.462 102.618 136.757 103.799 134.43C103.894 134.24 104.09 134.125 104.321 134.125C104.965 134.125 106.193 135.156 106.6 135.895L106.709 136.099L106.593 136.296C106.383 136.648 104.626 138.202 103.629 138.202ZM104.436 134.966C103.432 137.001 103.622 137.394 103.629 137.415L103.622 137.388C104.117 137.388 105.291 136.486 105.732 136.051C105.379 135.577 104.748 135.095 104.436 134.966Z" fill="#2C87A8"/>
<path fill-rule="evenodd" clip-rule="evenodd" d="M111.809 130.014C115.499 135.345 114.441 129.451 114.109 128.901C113.22 128.895 111.552 129.648 111.809 130.014Z" fill="#5AB7DA"/>
<path d="M114.021 132.633C113.607 132.633 112.935 132.362 111.47 130.245C111.348 130.069 111.341 129.852 111.443 129.648C111.769 129.031 113.329 128.495 114.102 128.495H114.333L114.455 128.692C114.672 129.058 115.194 131.351 114.699 132.219C114.55 132.484 114.312 132.633 114.021 132.633ZM112.257 129.94C113.41 131.581 113.892 131.792 114 131.819C114.231 131.507 114.041 129.974 113.844 129.323C113.254 129.411 112.522 129.73 112.257 129.94Z" fill="#2C87A8"/>
<path fill-rule="evenodd" clip-rule="evenodd" d="M112.651 123.266C107.271 126.895 113.193 125.891 113.749 125.565C113.756 124.677 113.017 123.015 112.651 123.266Z" fill="#5AB7DA"/>
<path d="M111.531 126.345C111.212 126.345 110.236 126.345 110.032 125.673C109.829 125.015 110.541 124.188 112.42 122.926L112.522 122.858L112.725 122.831C112.902 122.831 113.071 122.912 113.227 123.068C113.688 123.536 114.156 124.791 114.15 125.565V125.795L113.953 125.911C113.627 126.107 112.427 126.345 111.531 126.345ZM110.819 125.449C110.846 125.449 111.05 125.531 111.531 125.531C112.189 125.531 112.942 125.388 113.322 125.287C113.241 124.696 112.922 123.971 112.718 123.706C110.839 124.995 110.812 125.436 110.819 125.449C110.812 125.449 110.812 125.449 110.819 125.449Z" fill="#2C87A8"/>
<path fill-rule="evenodd" clip-rule="evenodd" d="M109.544 117.887C106.62 123.673 111.301 119.915 111.626 119.366C111.199 118.586 109.747 117.487 109.544 117.887Z" fill="#9E7954"/>
<path d="M109.008 121.475C108.703 121.475 108.459 121.346 108.316 121.116C108.079 120.736 107.997 120.03 109.178 117.704C109.273 117.514 109.469 117.398 109.7 117.398C110.344 117.398 111.572 118.429 111.979 119.169L112.088 119.372L111.972 119.569C111.769 119.929 110.012 121.475 109.008 121.475ZM109.822 118.246C108.818 120.281 109.008 120.675 109.015 120.695L109.008 120.668C109.503 120.668 110.677 119.766 111.118 119.332C110.765 118.857 110.134 118.375 109.822 118.246Z" fill="#66343B"/>
<path fill-rule="evenodd" clip-rule="evenodd" d="M147.896 59.0558C151.586 64.3874 150.528 58.4928 150.196 57.9434C149.3 57.9366 147.639 58.6827 147.896 59.0558Z" fill="#F4AECE"/>
<path d="M150.108 61.6739C149.694 61.6739 149.022 61.4026 147.557 59.2862C147.435 59.1099 147.428 58.8928 147.53 58.6893C147.856 58.072 149.416 57.5361 150.189 57.5361H150.42L150.542 57.7329C150.759 58.0992 151.281 60.3919 150.786 61.2601C150.637 61.5247 150.392 61.6739 150.108 61.6739ZM148.337 58.981C149.497 60.6225 149.972 60.8328 150.08 60.8599C150.311 60.5479 150.121 59.0149 149.924 58.3637C149.334 58.4519 148.608 58.7707 148.337 58.981Z" fill="#D87BB0"/>
<path fill-rule="evenodd" clip-rule="evenodd" d="M148.066 66.7267C145.142 72.5128 149.829 68.7549 150.148 68.2054C149.721 67.4254 148.269 66.3265 148.066 66.7267Z" fill="#F4AECE"/>
<path d="M147.53 70.315C147.232 70.315 146.981 70.1861 146.838 69.9555C146.601 69.5756 146.519 68.8702 147.7 66.5435C147.795 66.3536 147.991 66.2383 148.222 66.2383C148.866 66.2383 150.094 67.2693 150.501 68.0087L150.61 68.2122L150.494 68.4089C150.291 68.7684 148.534 70.315 147.53 70.315ZM148.344 67.0862C147.34 69.1212 147.53 69.5146 147.537 69.5349L147.53 69.5078C148.025 69.5078 149.199 68.6056 149.64 68.1715C149.28 67.6967 148.656 67.2151 148.344 67.0862Z" fill="#D87BB0"/>
<path fill-rule="evenodd" clip-rule="evenodd" d="M169.745 79.6964C173.435 85.0281 172.377 79.1334 172.045 78.584C171.149 78.584 169.487 79.3301 169.745 79.6964Z" fill="#EA4E51"/>
<path d="M171.956 82.3223C171.543 82.3223 170.871 82.051 169.406 79.9278C169.284 79.7515 169.277 79.5344 169.379 79.3309C169.704 78.7136 171.264 78.1777 172.038 78.1777H172.268L172.384 78.3745C172.601 78.7408 173.123 81.0335 172.635 81.9018C172.485 82.1731 172.248 82.3223 171.956 82.3223ZM170.193 79.6226C171.353 81.2641 171.827 81.4744 171.936 81.5015C172.167 81.1895 171.977 79.6497 171.78 79.0053C171.183 79.0935 170.457 79.4191 170.193 79.6226Z" fill="#D24138"/>
<path fill-rule="evenodd" clip-rule="evenodd" d="M169.915 87.3691C166.991 93.1551 171.678 89.3973 171.997 88.8478C171.57 88.0678 170.118 86.9756 169.915 87.3691Z" fill="#B8E1F1"/>
<path d="M169.379 90.9634C169.08 90.9634 168.829 90.8345 168.687 90.6039C168.449 90.2241 168.368 89.5186 169.548 87.1919C169.643 87.002 169.84 86.8867 170.071 86.8867C170.715 86.8867 171.943 87.9178 172.35 88.6571L172.465 88.8607L172.35 89.0641C172.14 89.4168 170.376 90.9634 169.379 90.9634ZM170.193 87.7278C169.189 89.7628 169.379 90.1562 169.386 90.1766L169.379 90.1495C169.874 90.1495 171.047 89.2473 171.488 88.8131C171.136 88.3383 170.505 87.8635 170.193 87.7278Z" fill="#5AB7DA"/>
<path fill-rule="evenodd" clip-rule="evenodd" d="M189.722 103.024C193.412 108.355 192.354 102.461 192.021 101.911C191.133 101.911 189.471 102.657 189.722 103.024Z" fill="#F9BA75"/>
<path d="M191.94 105.643C191.526 105.643 190.854 105.371 189.389 103.255C189.267 103.079 189.26 102.861 189.362 102.658C189.688 102.041 191.248 101.505 192.021 101.505H192.252L192.374 101.702C192.591 102.068 193.113 104.361 192.618 105.229C192.469 105.493 192.225 105.643 191.94 105.643ZM190.169 102.95C191.323 104.591 191.804 104.801 191.913 104.829C192.143 104.517 191.953 102.984 191.757 102.332C191.166 102.421 190.434 102.746 190.169 102.95Z" fill="#66343B"/>
<path fill-rule="evenodd" clip-rule="evenodd" d="M189.898 110.696C186.974 116.482 191.662 112.724 191.981 112.175C191.553 111.395 190.095 110.303 189.898 110.696Z" fill="#F4AECE"/>
<path d="M189.362 114.291C189.057 114.291 188.813 114.162 188.67 113.931C188.433 113.551 188.351 112.846 189.532 110.519C189.627 110.329 189.823 110.214 190.054 110.214C190.705 110.214 191.926 111.245 192.333 111.984L192.442 112.188L192.326 112.384C192.116 112.744 190.359 114.291 189.362 114.291ZM190.169 111.055C189.165 113.09 189.355 113.483 189.362 113.504L189.355 113.477C189.851 113.477 191.024 112.574 191.472 112.14C191.112 111.665 190.481 111.184 190.169 111.055Z" fill="#D87BB0"/>
<path fill-rule="evenodd" clip-rule="evenodd" d="M151.6 118.748C155.29 124.08 154.232 118.185 153.9 117.636C153.011 117.636 151.349 118.382 151.6 118.748Z" fill="#F4AECE"/>
<path d="M153.818 121.373C153.404 121.373 152.733 121.102 151.268 118.985C151.145 118.809 151.139 118.592 151.24 118.388C151.566 117.771 153.126 117.235 153.899 117.235H154.13L154.252 117.432C154.469 117.798 154.992 120.091 154.496 120.959C154.347 121.224 154.103 121.373 153.818 121.373ZM152.048 118.673C153.201 120.315 153.682 120.525 153.791 120.552C154.022 120.24 153.832 118.707 153.635 118.056C153.045 118.144 152.312 118.47 152.048 118.673Z" fill="#D87BB0"/>
<path fill-rule="evenodd" clip-rule="evenodd" d="M151.776 126.42C148.853 132.206 153.54 128.448 153.859 127.899C153.431 127.118 151.973 126.026 151.776 126.42Z" fill="#F4AECE"/>
<path d="M151.24 130.015C150.942 130.015 150.691 129.886 150.549 129.656C150.311 129.276 150.23 128.57 151.41 126.244C151.505 126.054 151.702 125.938 151.932 125.938C152.577 125.938 153.805 126.97 154.212 127.709L154.32 127.912L154.205 128.109C154.001 128.469 152.244 130.015 151.24 130.015ZM152.054 126.78C151.05 128.815 151.24 129.208 151.247 129.228L151.24 129.201C151.736 129.201 152.909 128.299 153.35 127.865C152.991 127.39 152.36 126.915 152.054 126.78Z" fill="#D87BB0"/>
<path fill-rule="evenodd" clip-rule="evenodd" d="M125.586 143.48C129.277 148.811 128.218 142.917 127.886 142.367C126.997 142.367 125.335 143.113 125.586 143.48Z" fill="#5AB7DA"/>
<path d="M127.804 146.105C127.391 146.105 126.719 145.833 125.254 143.717C125.132 143.541 125.125 143.323 125.227 143.12C125.552 142.503 127.113 141.967 127.886 141.967H128.117L128.239 142.164C128.456 142.53 128.978 144.823 128.483 145.691C128.334 145.955 128.089 146.105 127.804 146.105ZM126.034 143.412C127.187 145.053 127.669 145.263 127.777 145.291C128.008 144.979 127.818 143.446 127.621 142.794C127.031 142.876 126.299 143.201 126.034 143.412Z" fill="#2C87A8"/>
<path fill-rule="evenodd" clip-rule="evenodd" d="M134.248 139.81C128.869 143.439 134.791 142.442 135.347 142.109C135.354 141.227 134.615 139.559 134.248 139.81Z" fill="#F4AECE"/>
<path d="M133.129 142.896C132.81 142.896 131.84 142.896 131.63 142.224C131.427 141.566 132.139 140.738 134.018 139.477L134.119 139.409L134.323 139.382C134.499 139.382 134.669 139.463 134.832 139.619C135.293 140.087 135.754 141.342 135.747 142.115V142.346L135.551 142.461C135.232 142.651 134.025 142.896 133.129 142.896ZM132.417 142C132.451 142 132.648 142.082 133.129 142.082C133.787 142.082 134.54 141.939 134.92 141.837C134.839 141.247 134.52 140.521 134.316 140.257C132.444 141.546 132.417 141.98 132.417 142Z" fill="#D87BB0"/>
<path fill-rule="evenodd" clip-rule="evenodd" d="M131.142 134.431C128.218 140.217 132.905 136.459 133.224 135.909C132.804 135.129 131.345 134.037 131.142 134.431Z" fill="#F4AECE"/>
<path d="M130.612 138.026C130.307 138.026 130.063 137.897 129.921 137.666C129.683 137.287 129.602 136.581 130.782 134.254C130.877 134.065 131.074 133.949 131.304 133.949C131.956 133.949 133.177 134.98 133.584 135.72L133.692 135.923L133.577 136.12C133.366 136.479 131.61 138.026 130.612 138.026ZM131.42 134.79C130.416 136.825 130.606 137.219 130.612 137.239L130.606 137.212C131.101 137.212 132.274 136.31 132.722 135.876C132.363 135.401 131.732 134.919 131.42 134.79Z" fill="#D87BB0"/>
<path fill-rule="evenodd" clip-rule="evenodd" d="M104.816 93.6427C108.506 98.9743 107.448 93.0797 107.116 92.5303C106.22 92.5303 104.558 93.2764 104.816 93.6427Z" fill="#F4AECE"/>
<path d="M107.027 96.2608C106.614 96.2608 105.942 95.9895 104.477 93.8732C104.355 93.6968 104.348 93.4797 104.45 93.2762C104.775 92.659 106.336 92.123 107.109 92.123H107.339L107.461 92.3198C107.679 92.6861 108.201 94.9788 107.706 95.847C107.557 96.1184 107.312 96.2608 107.027 96.2608ZM105.264 93.5679C106.424 95.2094 106.899 95.4197 107.007 95.4468C107.238 95.1348 107.048 93.6018 106.851 92.9506C106.254 93.0388 105.528 93.3644 105.264 93.5679Z" fill="#D87BB0"/>
<path fill-rule="evenodd" clip-rule="evenodd" d="M104.986 101.315C102.062 107.101 106.749 103.343 107.068 102.794C106.641 102.014 105.189 100.922 104.986 101.315Z" fill="#B8E1F1"/>
<path d="M104.45 104.911C104.145 104.911 103.9 104.782 103.758 104.551C103.52 104.171 103.439 103.466 104.619 101.139C104.714 100.949 104.911 100.834 105.148 100.834C105.793 100.834 107.021 101.865 107.428 102.604L107.536 102.808L107.421 103.005C107.211 103.364 105.447 104.911 104.45 104.911ZM105.264 101.675C104.26 103.71 104.45 104.11 104.457 104.124L104.45 104.097C104.945 104.097 106.118 103.195 106.559 102.76C106.207 102.286 105.569 101.804 105.264 101.675Z" fill="#5AB7DA"/>
<path fill-rule="evenodd" clip-rule="evenodd" d="M112.637 96.7218C116.327 102.053 115.269 96.1588 114.937 95.6094C114.041 95.6094 112.379 96.3555 112.637 96.7218Z" fill="#5AB7DA"/>
<path d="M114.848 99.3409C114.435 99.3409 113.763 99.0695 112.298 96.9532C112.176 96.7768 112.169 96.5597 112.271 96.3562C112.596 95.739 114.157 95.2031 114.93 95.2031H115.16L115.276 95.3999C115.493 95.7662 116.015 98.0589 115.527 98.9271C115.378 99.1984 115.14 99.3409 114.848 99.3409ZM113.085 96.648C114.245 98.2895 114.72 98.4998 114.828 98.5269C115.059 98.2149 114.869 96.6818 114.672 96.0307C114.075 96.1188 113.349 96.4445 113.085 96.648Z" fill="#2C87A8"/>
<path fill-rule="evenodd" clip-rule="evenodd" d="M113.471 89.9738C108.092 93.6028 114.014 92.6056 114.57 92.2732C114.577 91.3846 113.844 89.7228 113.471 89.9738Z" fill="#5AB7DA"/>
<path d="M112.359 93.0596C112.04 93.0596 111.063 93.0596 110.86 92.388C110.656 91.7301 111.369 90.9026 113.247 89.6409L113.349 89.573L113.553 89.5459C113.729 89.5459 113.899 89.6273 114.055 89.7833C114.516 90.2513 114.977 91.5062 114.97 92.2795V92.5102L114.774 92.6254C114.455 92.8154 113.248 93.0596 112.359 93.0596ZM111.64 92.1642C111.674 92.1642 111.871 92.2456 112.352 92.2456C113.01 92.2456 113.763 92.1032 114.143 92.0014C114.061 91.4113 113.749 90.6854 113.539 90.4209C111.667 91.7029 111.64 92.1439 111.64 92.1642Z" fill="#2C87A8"/>
<path fill-rule="evenodd" clip-rule="evenodd" d="M110.372 84.5939C107.448 90.38 112.135 86.6221 112.454 86.0727C112.027 85.2926 110.575 84.1937 110.372 84.5939Z" fill="#5AB7DA"/>
<path d="M109.836 88.189C109.537 88.189 109.286 88.0601 109.144 87.8295C108.906 87.4496 108.825 86.7442 110.005 84.4175C110.1 84.2276 110.297 84.1123 110.528 84.1123C111.172 84.1123 112.4 85.1433 112.807 85.8827L112.915 86.0862L112.8 86.2829C112.596 86.6356 110.84 88.189 109.836 88.189ZM110.65 84.9534C109.646 86.9884 109.836 87.3818 109.842 87.4022L109.836 87.375C110.331 87.375 111.504 86.4728 111.945 86.0387C111.586 85.5639 110.962 85.0823 110.65 84.9534Z" fill="#2C87A8"/>
</svg>
