<svg width="285" height="190" viewBox="0 0 285 190" fill="none" xmlns="http://www.w3.org/2000/svg">
<g clip-path="url(#clip0)">
<rect width="285" height="190" fill="#C5E6FF"/>
<path d="M158.274 39.0898C158.274 39.0898 152.859 43.7412 153.593 47.7268C154.327 51.7124 149.061 51.9685 148.246 55.4591C147.431 58.954 146.906 64.3265 142.656 64.5484C138.406 64.7703 136.511 63.3706 132.611 66.6095C128.715 69.8483 128.937 65.0647 122.126 66.6095C115.32 68.1542 117.176 78.8267 109.7 79.6374C102.224 80.4482 91.3251 83.6188 94.342 98.8316C94.342 98.8316 100.914 92.2216 111.253 96.1816C121.593 100.142 127.413 104.315 135.88 99.9582C144.346 95.6013 145.571 88.6712 152.607 87.9927C159.644 87.31 166.361 90.519 166.361 90.519C166.361 90.519 167.713 77.6745 159.636 78.0372C151.558 78.3999 146.629 79.1723 148.656 74.4399C150.683 69.7032 151.348 69.8953 149.778 66.3918C148.208 62.8927 146.791 61.6168 149.249 59.5002C151.707 57.3836 153.371 53.3297 153.427 51.4223C153.482 49.5191 160.344 40.4682 160.344 40.4682L158.274 39.0898Z" fill="#E85D58"/>
<path d="M112.636 85.4117C112.636 85.4117 119.242 82.8258 119.34 76.0579C119.438 69.29 125.788 69.1919 130.11 71.0567C134.429 72.9214 137.028 72.627 139.771 69.29C142.515 65.953 145.968 66.3883 145.968 66.3883C145.968 66.3883 144.154 67.1009 143.975 70.4507C143.795 73.8005 144.239 79.0023 148.95 80.0819C153.661 81.1615 156.73 77.7776 159.631 80.8671C162.533 83.9566 162.239 86.0646 162.239 86.0646C162.239 86.0646 139.063 97.3985 128.907 95.6575C118.751 93.9121 112.043 86.2609 112.043 86.2609V85.3605" fill="#E88B68"/>
<path d="M118.614 91.7095C118.614 91.7095 124.465 93.6469 123.701 87.5575C122.933 81.4681 122.237 75.895 127.047 75.5451C131.856 75.1952 132.713 77.4953 135.662 76.0316C138.611 74.5679 140.561 71.7131 140.911 71.504C141.261 71.2949 141.261 71.2949 141.261 71.2949C141.261 71.2949 139.379 73.2451 139.938 74.7087C140.497 76.1724 144.325 80.2562 146.416 82.3258C148.507 84.3954 148.694 87.4465 148.669 87.5575C148.643 87.6684 128.514 95.1874 123.914 94.3168C119.31 93.4506 118.614 91.7095 118.614 91.7095Z" fill="#E8B168"/>
<path d="M151.613 33.5469C151.613 33.5469 149.693 31.0463 149.966 29.4887C150.239 27.9312 152.889 23.8261 153.986 23.9626C155.082 24.0992 155.996 23.9626 155.996 23.9626C155.996 23.9626 153.529 22.9086 152.432 23.0025C151.336 23.0921 146.825 27.8843 146.663 28.2726C146.497 28.6652 147.627 34.8826 147.627 34.8826L151.613 33.5469Z" fill="#ACBF76"/>
<path d="M49.2457 79.3436C49.2457 79.3436 52.988 71.0096 59.0305 73.1817C65.0687 75.3537 59.15 89.0047 61.0831 95.7683C63.0161 102.532 72.0755 115.065 81.6172 108.195C91.1588 101.324 84.5402 86.2267 98.9039 83.3292C113.263 80.4317 116.69 93.3701 125.783 92.7642C134.877 92.1625 143.138 79.4076 157.63 82.5953C172.122 85.7829 168.482 93.6176 182.764 97.8166C197.047 102.016 217.385 102.011 219.173 91.5053C220.961 80.9993 215.516 71.4918 205.53 71.1462L210.207 61.5576C210.207 61.5576 213.13 64.3356 222.988 65.7822C232.845 67.2288 234.146 79.6978 231.104 87.3063C228.061 94.9149 231.582 97.7099 230.814 103.991C229.316 116.217 212.503 126.484 194.559 120.915C176.611 115.347 168.311 94.0187 158.547 93.6688C148.784 93.3189 132.991 112.249 124.584 108.941C116.178 105.639 108.117 97.3813 103.453 101.145C98.7886 104.909 89.5116 122.063 75.6003 122.4C61.689 122.737 55.3094 112.889 56.0349 101.145C56.7603 89.4015 60.2381 79.8386 58.2069 77.2313C56.18 74.624 50.4277 78.9723 49.2457 82.0149C48.0636 85.0575 47.9655 89.8411 49.2457 91.1469C50.5258 92.4526 52.2669 92.7642 52.2669 92.7642C52.2669 92.7642 48.4989 94.7058 47.048 91.9832C45.5971 89.2607 47.3083 82.4331 49.2457 79.3436Z" fill="#A34975"/>
<path d="M216 157.034C216 157.034 233.262 123.582 234.136 123.21C235.011 122.837 236.399 123.343 236.399 123.343L258.484 146.375C258.484 146.375 277.471 111.98 279.396 111.26C281.314 110.541 285 108 285 108V189H225.389L216 157.034Z" fill="#81A37E"/>
<path d="M70.8898 153.803C70.8898 153.803 66.8851 147.884 61.7045 150.532C56.5239 153.18 46.2884 162.777 46.2884 162.777C46.2884 162.777 25.8074 115.11 20.6871 116.013C15.5668 116.915 0 160.527 0 160.527L28.365 188L77 186.517L70.8898 153.803Z" fill="#81A37E"/>
<path d="M105.283 140.775L106.909 104.41H115.337L117.552 137.967L105.283 140.775Z" fill="#B8B0CF"/>
<path d="M123.812 135.488L103.367 137.609V130.935L92.4474 131.695L88.6538 165.069H123.812V135.488Z" fill="#A59DBF"/>
<path d="M128.851 149.353C128.536 149.229 122.933 149.353 122.933 149.353V146.336H120.867V149.353H118.478V146.336H115.964V149.792H114.078L113.639 146.775L111.629 147.091L111.189 150.108H109.679V147.091L107.225 146.967L106.534 150.112H105.275L105.527 146.024H102.13L99.3007 164.382L129.539 163.495L128.851 149.353Z" fill="#6F6787"/>
<path d="M170.001 143.054L168 116.392H163.387L160.382 141.048L170.001 143.054Z" fill="#B8B0CF"/>
<path d="M207.365 156.228L201.92 85.8604H192.937L188.367 160.017H205.726L207.365 156.228Z" fill="#B8B0CF"/>
<path d="M124.175 158.809L122.933 78.2003L127.699 77.6584L128.241 83.6198H130.191V77.0098H133.661V83.2955L135.828 83.4021V77.0098H138.534L139.076 83.0778L140.053 83.1888L140.488 77.0098H144.171L145.545 172.469L124.678 170.343L124.175 158.809Z" fill="#998EBA"/>
<path d="M144.517 112.33L155.227 112.906L156.947 136.88L173.602 136.022V107.594L178.915 106.015L182.218 135.015L201.745 133.867L208.492 160.713L145.404 162.582L144.517 112.33Z" fill="#A59DBF"/>
<path d="M180.071 108.37H173.013L176.504 85.8604L180.071 108.37Z" fill="#A36565"/>
<path d="M203.994 87.8102H191.495L197.747 62.0615L203.994 87.8102Z" fill="#A36565"/>
<path d="M168.601 117.015H162.973L165.192 101.653L168.601 117.015Z" fill="#D99A9A"/>
<path d="M184.595 134.874L187.023 118.624L189.357 134.874L184.595 135.275V134.874Z" fill="#D99A9A"/>
<path d="M144.517 112.33L156.649 112.897L144.342 88.9409L144.517 112.33Z" fill="#A36565"/>
<path d="M106.235 106.015H116.664L110.588 90.5713L106.235 106.015Z" fill="#D99A9A"/>
<path d="M89.8358 134.297H106.235L98.0332 122.08L89.8358 134.297Z" fill="#A36565"/>
<path d="M137.488 117.976L129.538 118.625L130.494 104.423C130.575 103.245 131.019 102.106 131.83 101.248C132.116 100.95 132.449 100.668 132.837 100.459C134.386 99.6225 136.174 101.53 136.533 107.009C136.891 112.488 137.488 117.976 137.488 117.976Z" fill="#494257"/>
<path d="M200.396 110.67H196.39C196.39 110.67 197.52 99.3491 198.391 98.4786C199.266 97.6123 200.222 100.049 200.396 110.67Z" fill="#494257"/>
<path d="M94.9054 150.42H100.043C100.043 150.42 100.555 139.628 98.6307 139.244C96.7019 138.856 95.1614 147.207 94.9054 150.42Z" fill="#494257"/>
<path d="M176.124 147.88H180.255C180.255 147.88 180.69 136.359 178.732 135.851C176.777 135.343 176.124 147.88 176.124 147.88Z" fill="#494257"/>
<path d="M150.401 148.534H154.169C154.169 148.534 155.403 135.856 152.864 135.275C150.329 134.691 150.401 148.534 150.401 148.534Z" fill="#494257"/>
<path d="M164.539 124.56L166.583 124.739L166.86 119.525L165.52 119.367L164.539 124.56Z" fill="#9687B3"/>
<path d="M177.285 114.886H175.548L175.838 122.055L178.211 121.603L177.285 114.886Z" fill="#74688A"/>
<path d="M112.602 114.886H109.35V124.739H113.366L112.602 114.886Z" fill="#9687B3"/>
<path d="M85.2528 157.968H90.5826V162.581H92.298V157.968H97.056V162.581H99.7231V157.968H102.958V162.581H105.817V157.968H109.431V162.581L111.906 161.775V157.968H114.953V162.581H117.428V157.968H120.475V162.581H123.714L124.175 158.809L127.52 157.968V163.49H132.09L132.662 157.968H136.089V162.581H139.136V157.968H142.75V162.581L147.329 162.526V157.968H153.222L154.191 162.321L158.001 162.21V157.968H161.791L162.947 162.061L167.893 161.916V157.968H172.075L173.214 160.729H177.784V157.209H183.114L183.878 160.349H187.497V157.209L191.683 156.253V159.872H197.776L196.825 156.253L210.668 156.219L213.979 182.501L81.0623 186.337L85.2528 157.968Z" fill="#877DA3"/>
<path d="M131.254 126.446H124.789V128.529H131.254V126.446Z" fill="#ACA3C7"/>
<path d="M131.924 123.92H127.614L128.024 125.482H132.445L131.924 123.92Z" fill="#ACA3C7"/>
<path d="M134.241 129.724L128.024 129.344V132.241H134.241V129.724Z" fill="#ACA3C7"/>
<path d="M138.726 184.737C138.726 184.737 138.218 173.416 139.725 170.796C141.231 168.176 142.379 166.089 146.898 166.968C151.417 167.847 153.209 172.277 153.499 175.75C153.789 179.224 153.862 184.238 153.862 184.238L138.726 184.737Z" fill="#A36565"/>
<path d="M142.366 167.45L141.735 184.609H143.629V166.921L142.366 167.45Z" fill="#494257"/>
<path d="M146.254 166.866V184.49H148.02L147.478 167.114L146.254 166.866Z" fill="#494257"/>
<path d="M150.431 168.752L150.73 184.302H152.727L151.746 170.331L150.431 168.752Z" fill="#494257"/>
<path d="M138.79 175.678L153.499 175.755V177.257L138.79 177.01V175.678Z" fill="#494257"/>
<path d="M138.641 179.975V181.583L153.781 181.144V179.667L138.641 179.975Z" fill="#494257"/>
<path d="M138.726 184.738C138.726 184.738 138.607 174.176 139.055 173.19C139.503 172.205 140.877 166.696 145.263 166.973C149.65 167.25 152.543 171.599 153.021 174.078C153.499 176.557 153.499 184.302 153.499 184.302L156.213 184.162C156.213 184.162 155.326 172.154 155.061 170.69C154.797 169.222 150.674 164.268 144.645 165.181C138.615 166.09 137.36 170.34 136.703 172.008C136.046 173.677 135.957 184.836 135.957 184.836L138.726 184.738Z" fill="#784A4A"/>
<path d="M211.82 165.377L205.871 166.03L206.46 168.377H211.82V165.377Z" fill="#998EBA"/>
<path d="M207.365 163.447L201.822 163.857L202.232 165.619L207.574 165.376L207.365 163.447Z" fill="#998EBA"/>
<path d="M203.584 166.324H199.355L199.65 168.027H204.348L203.584 166.324Z" fill="#998EBA"/>
<path d="M172.22 177.009L181.428 176.446L181.753 178.853H172.22V177.009Z" fill="#998EBA"/>
<path d="M177.311 174.355V175.87H182.675L182.892 173.894L177.311 174.355Z" fill="#998EBA"/>
<path d="M163.007 165.62L172.22 166.068V168.377H163.007V165.62Z" fill="#998EBA"/>
<path d="M173.031 169.507H167.615V171.85L173.833 171.278L173.031 169.507Z" fill="#998EBA"/>
<path d="M127.614 170.071H117.599V173.574H126.982L127.614 170.071Z" fill="#998EBA"/>
<path d="M119.98 174.701C119.771 174.556 113.886 174.701 113.886 174.701C113.886 174.701 113.818 178.268 113.886 178.268C113.954 178.268 120.402 177.918 120.402 177.918L119.98 174.701Z" fill="#998EBA"/>
<path d="M199.355 139.047H191.392L192.037 142.325H199.103L199.355 139.047Z" fill="#998EBA"/>
<path d="M200.708 143.481C200.516 143.417 194.798 143.054 194.798 143.054V146.178L200.708 145.986V143.481Z" fill="#998EBA"/>
<path d="M187.283 149.131C187.411 149.131 181.181 149.131 181.181 149.131V152.216L187.927 151.832L187.283 149.131Z" fill="#998EBA"/>
<path d="M170.722 149.631C170.461 149.703 163.007 149.631 163.007 149.631L162.678 152.686H170.722V149.631Z" fill="#998EBA"/>
<path d="M138.649 139.048C138.376 138.847 131.13 138.574 131.13 138.574V142.325H139.2L138.649 139.048Z" fill="#A59DBF"/>
<path d="M139.2 117.365C139.067 117.365 127.068 118.121 127.068 118.121L127.614 120.301H138.564L139.2 117.365Z" fill="#A59DBF"/>
<path d="M155.59 148C155.402 147.983 148.532 147.88 148.532 147.88L148.946 150.675L155.906 150.347L155.59 148Z" fill="#877DA3"/>
<path d="M181.181 147.424H174.533L174.78 149.276L180.741 148.854L181.181 147.424Z" fill="#877DA3"/>
<path d="M100.734 150.1H93.877V151.794H100.734V150.1Z" fill="#877DA3"/>
<path d="M200.704 110.359H195.058V112.198H200.704V110.359Z" fill="#A59DBF"/>
<path opacity="0.32" d="M202.069 87.8101L202.231 89.8882L192.425 94.1726L192.818 87.8101H202.069Z" fill="#A59DBF"/>
<path opacity="0.32" d="M195.058 111.792H200.708V112.198H199.539L197.883 114.191L194.013 113.986L195.058 111.792Z" fill="#A59DBF"/>
<path opacity="0.32" d="M196.573 66.8887L200.397 87.8111H191.495L196.573 66.8887Z" fill="#A59DBF"/>
<path opacity="0.32" d="M186.912 119.367L187.923 135.275L183.763 135.838L186.912 119.367Z" fill="#A59DBF"/>
<path opacity="0.32" d="M176.504 85.8604L175.548 108.37H179.184L179.308 109.446L173.602 112.198V108.37H173.013L176.504 85.8604Z" fill="#A59DBF"/>
<path opacity="0.32" d="M174.533 148.755L180.895 148.35L180.742 148.854L178.736 148.999L178.348 151.158L174.255 151.807L174.533 148.755Z" fill="#A59DBF"/>
<path opacity="0.32" d="M165.191 101.653V117.015H168.046V118.47L162.849 120.796L163.519 117.143L162.972 117.015L165.191 101.653Z" fill="#A59DBF"/>
<path opacity="0.32" d="M144.342 93.2686L155.228 112.907L148.528 112.518L144.517 122.056L144.342 93.2686Z" fill="#A59DBF"/>
<path opacity="0.32" d="M127.379 119.367H138.764L138.564 120.301H134.783L132.444 126.446H123.812L123.637 123.92L127.379 119.367Z" fill="#A59DBF"/>
<path opacity="0.32" d="M155.808 149.631H148.788L148.942 150.676L148.788 153.16L153.862 154.453L154.468 151.159L155.902 150.676L155.808 149.631Z" fill="#A59DBF"/>
<path opacity="0.32" d="M115.444 106.015H106.837L106.598 111.383L115.444 107.124V106.015Z" fill="#A59DBF"/>
<path opacity="0.32" d="M110.588 90.5713L112.03 106.015H106.235L110.588 90.5713Z" fill="#A59DBF"/>
<path opacity="0.32" d="M98.0332 122.08L100.734 134.297H97.3078L95.8441 138.048L91.6665 138.573L92.1529 134.297H89.8358L97.6919 122.592" fill="#A59DBF"/>
<path opacity="0.32" d="M89.4604 157.969H90.5827V162.582L91.9098 163.448L92.2981 157.969H97.0561V162.582H99.7232V157.969H102.958V162.582L106.235 163.448L105.817 157.969H109.431V162.582L111.906 161.775V157.969H114.953V162.582H117.428V157.969H120.475V162.582H123.714L124.175 158.809L127.52 157.969V163.491H132.09L133.516 157.969H136.089V162.582H139.136L139.2 156.219L89.8359 155.199L89.4604 157.969Z" fill="#A59DBF"/>
<path opacity="0.32" d="M94.9053 157.969L99.3049 185.813L81.0623 186.338L85.2528 157.969H90.5826V162.582L92.6565 163.448L92.298 157.969H94.9053Z" fill="#A59DBF"/>
<path d="M205.099 126.95L221.003 125.081V126.591L205.099 129.186V126.95Z" fill="#784A4A"/>
<path d="M204.421 118.202L218.592 126.408L219.919 125.806L204.301 116.627L219.326 117.016V115.368L204.165 114.886L204.421 118.202Z" fill="#784A4A"/>
<path d="M205.099 126.95L214.726 116.627L216.898 116.93L206.153 127.603L205.099 126.95Z" fill="#784A4A"/>
<path d="M216.898 116.93L219.326 125.456L217.73 125.909L215.631 117.596L216.898 116.93Z" fill="#784A4A"/>
<path d="M91.4147 140.776H80.179V142.325H83.2557L81.0623 152.686H90.1858L90.237 151.158H83.0082L84.6084 142.325L91.2867 141.894" fill="#784A4A"/>
<path d="M83.9939 145.721L87.8089 151.794H85.7947L83.0082 146.733L83.9939 145.721Z" fill="#784A4A"/>
<path d="M112.589 185.837C112.589 185.837 118.115 179.291 127.708 182.12C137.301 184.954 148.208 183.106 155.291 181.408C162.375 179.709 171.767 181.758 174.294 185.833C176.82 189.908 185.871 180.452 189.562 179.159C193.253 177.866 202.517 177.759 202.517 177.759C202.517 177.759 197.034 198.827 195.924 199.394C194.815 199.962 147.12 201.66 146.957 201.801C146.791 201.95 112.589 185.837 112.589 185.837Z" fill="#E3E3E3"/>
<path d="M285 136C285 136 277.362 146.533 270.915 143.96C264.463 141.382 256.466 137.235 244.673 142.385C232.885 147.535 232.777 152.169 232.406 157.422C232.036 162.676 217.643 161.342 215.756 170.842C213.87 180.342 212.61 185.853 205.257 184.412C197.904 182.97 190.887 177.588 181.665 183.323C172.442 189.059 172.949 200.335 163.698 197.771C154.447 195.207 149.779 189.824 140.06 190.083C130.342 190.341 125.486 191.619 119.934 188.8C114.382 185.982 108.785 180.694 98.3421 180.264C87.8997 179.83 78.8253 180.591 74.8752 177.265C70.9194 173.935 64.467 169.547 49.191 170.842C33.915 172.137 33.231 168.875 30.5121 159.487C27.7932 150.099 11.6052 139.756 0 139.756V207H285V136Z" fill="white"/>
<path d="M211.218 72.5162C211.218 72.5162 200.499 73.6939 195.242 69.1237C189.984 64.5534 194.354 60.5123 196.56 55.9464C198.766 51.3804 192.323 45.9311 181.928 44.7021C171.533 43.4731 162.512 44.5271 161.138 48.7432C159.764 52.9593 159.764 54.7174 157.481 56.2963C155.198 57.8752 153.393 57.3503 153.393 57.3503C153.393 57.3503 158.035 50.3221 158.547 45.9311C159.06 41.5401 158.646 37.8489 154.814 40.3068C150.982 42.7648 149.573 52.0802 144.832 55.063C140.087 58.0501 126.189 59.4541 126.189 59.4541C126.189 59.4541 117.735 48.3848 126.189 40.3025C134.642 32.2203 142.37 38.1945 146.061 35.7366C149.753 33.2786 150.009 30.8164 153.393 30.8164C156.777 30.8164 156.589 37.3155 171.179 34.1534C185.768 30.9914 198.98 31.3413 203.264 45.3977C207.553 59.454 206.627 60.316 211.218 62.2619C215.806 64.2035 216.71 64.4724 216.71 64.4724L211.218 72.5162Z" fill="#A34975"/>
<path d="M145.012 37.4944C146.456 37.4944 147.628 36.3232 147.628 34.8785C147.628 33.4338 146.456 32.2627 145.012 32.2627C143.567 32.2627 142.396 33.4338 142.396 34.8785C142.396 36.3232 143.567 37.4944 145.012 37.4944Z" fill="white"/>
<path d="M149.275 40.7292C150.719 40.7292 151.891 39.5581 151.891 38.1134C151.891 36.6687 150.719 35.4976 149.275 35.4976C147.83 35.4976 146.659 36.6687 146.659 38.1134C146.659 39.5581 147.83 40.7292 149.275 40.7292Z" fill="white"/>
<path d="M150.589 38.8172C150.589 38.8172 150.704 37.6608 149.842 37.4944C148.984 37.328 148.238 38.3009 148.383 39.0775C148.528 39.8542 150.043 40.3065 150.589 38.8172Z" fill="#141414"/>
<path d="M146.292 35.4967C146.292 35.4967 146.407 34.2891 145.289 34.3744C144.171 34.4598 143.228 36.0344 144.401 36.2947C145.575 36.5507 146.031 36.1624 146.292 35.4967Z" fill="#141414"/>
<path d="M127.251 48.4613C127.251 48.4613 129.044 44.2751 130.9 44.0361C132.752 43.7972 137.536 49.8951 137.595 51.0302C137.655 52.1653 136.819 50.4328 136.819 50.4328C136.819 50.4328 132.692 44.992 131.139 45.231C129.581 45.4742 127.251 48.4613 127.251 48.4613Z" fill="#783656"/>
<path d="M126.172 46.7801C126.172 46.7801 127.136 42.7347 126.172 42.5598C125.207 42.3848 122.433 43.5242 122.433 43.5242C122.433 43.5242 125.122 43.8442 125.382 44.0362C125.642 44.224 126.172 46.7801 126.172 46.7801Z" fill="#783656"/>
<path d="M156.555 32.6254C156.555 32.6254 156.427 34.7035 158.027 35.3735C159.627 36.0435 160.118 35.9837 160.118 35.9837C160.118 35.9837 166.578 30.8758 166.642 28.2301C166.702 25.5844 164.675 21.2787 162.704 20.3527C160.737 19.431 156.922 19 156.922 19C156.922 19 159.384 20.5362 160.058 21.2147C160.732 21.8932 163.075 25.4009 162.951 26.0751C162.828 26.7494 161.663 28.7806 161.599 29.0281C161.535 29.2756 156.555 32.6254 156.555 32.6254Z" fill="#ACBF76"/>
<path d="M146.527 38.2964C146.527 38.2964 146.864 41.4243 147.627 41.7742C148.391 42.1199 151.617 41.3005 151.617 41.3005C151.617 41.3005 148.353 42.8794 147.627 42.5978C146.906 42.3119 146.224 40.8141 146.296 40.7245C146.369 40.6348 146.527 38.2964 146.527 38.2964Z" fill="#783656"/>
<path d="M141.559 35.9839C141.559 35.9839 142.601 37.9895 143.36 38.1133C144.12 38.237 146.108 37.7292 146.108 37.7292C146.108 37.7292 143.138 39.0649 142.537 38.6339C141.935 38.2029 141.559 35.9839 141.559 35.9839Z" fill="#783656"/>
<path d="M145.639 38.6333L143.838 39.3417C143.838 39.3417 144.184 39.5934 144.534 39.5294C144.879 39.4697 145.639 38.6333 145.639 38.6333Z" fill="#783656"/>
<path d="M157.967 31.6653C157.967 31.6653 157.762 33.1845 158.786 33.9142C159.81 34.6439 161.185 35.0962 161.185 35.0962L161.833 34.5287C161.833 34.5287 159.567 33.8246 159.128 33.3808C158.688 32.9413 158.483 31.3154 158.483 31.3154L157.967 31.6653Z" fill="#783656"/>
<path d="M160.361 30.0005C160.361 30.0005 160.66 31.2551 161.206 31.6519C161.752 32.0488 163.25 33.2052 163.25 33.2052L162.896 33.5466C162.896 33.5466 160.98 32.3475 160.754 32.0445C160.527 31.7415 159.985 30.2651 159.985 30.2651L160.361 30.0005Z" fill="#783656"/>
<path d="M161.94 28.3198C161.94 28.3198 162.542 29.3909 163.049 29.711C163.557 30.031 165.972 29.9969 165.972 29.9969L165.601 30.5473C165.601 30.5473 163.331 30.782 162.938 30.5473C162.546 30.3126 161.675 28.8532 161.675 28.8532L161.94 28.3198Z" fill="#783656"/>
<path d="M162.755 26.6509C162.755 26.6509 163.54 27.8329 164.12 27.8713C164.705 27.9097 166.557 27.0947 166.557 27.0947L166.621 27.6281C166.621 27.6281 164.59 28.8144 163.95 28.5882C163.31 28.3621 162.503 27.1971 162.503 27.1971L162.755 26.6509Z" fill="#783656"/>
<path d="M162.209 24.3171C162.209 24.3171 163.314 24.731 163.822 24.6926C164.33 24.6542 165.584 23.9629 165.584 23.9629L165.785 24.428C165.785 24.428 164.667 25.2217 164.231 25.2388C163.8 25.2559 162.469 24.7907 162.469 24.7907L162.209 24.3171Z" fill="#783656"/>
<path d="M136.097 57.9262L140.369 62.2575L140.198 56.9277L144.687 60.222L143.817 55.6134L147.551 58.353L146.471 54.1156L151.08 55.4427L148.754 51.0005L151.886 52.4129L150.29 48.7516L153.738 50.339L151.246 46.7759C151.246 46.7759 155.027 47.1002 154.984 46.9764C154.942 46.8527 153.448 44.0277 153.448 44.0277C153.448 44.0277 156.273 45.3975 156.23 45.2738C156.188 45.15 155.027 41.2882 155.027 41.2882L157.144 42.6281L156.55 39.5386C156.55 39.5386 153.111 39.5428 151.891 42.2824C150.67 45.022 149.552 49.9251 146.62 52.3745C143.693 54.8282 138.803 57.9134 136.097 57.9262Z" fill="white"/>
<path d="M158.594 45.5127L155.624 46.7758L157.109 47.7231L153.922 49.0332L156.256 50.1555L153.107 51.4186L155.543 52.208L151.89 53.7571L154.464 54.6873L151.084 55.4512L153.845 56.6375C153.845 56.6375 156.589 52.3659 157.442 50.3134C158.296 48.2608 158.594 45.5127 158.594 45.5127Z" fill="white"/>
<path d="M146.663 28.2729C146.663 28.2729 146.881 28.832 147.538 29.0837C148.195 29.3355 149.97 29.4891 149.97 29.4891L149.945 29.8348C149.945 29.8348 148.08 29.9415 147.849 30.0012C147.619 30.0652 146.667 29.1349 146.667 29.1349V28.2729H146.663Z" fill="#783656"/>
<path d="M147.585 27.1802C147.585 27.1802 148.327 27.6752 148.575 27.7904C148.827 27.9056 150.397 28.2726 150.397 28.2726L150.243 28.614C150.243 28.614 148.728 28.6012 148.438 28.4049C148.148 28.2129 147.295 27.4917 147.295 27.4917L147.585 27.1802Z" fill="#783656"/>
<path d="M149.889 24.8633C149.889 24.8633 150.124 25.4436 150.401 25.5546C150.679 25.6698 151.541 26.2757 151.541 26.2757L151.323 26.6129C151.323 26.6129 150.256 26.0795 150.158 25.9642C150.06 25.849 149.646 25.0937 149.646 25.0937L149.889 24.8633Z" fill="#783656"/>
<path d="M167.458 34.8788C167.458 34.8788 168.034 37.2343 170.291 37.4733C172.549 37.7165 173.513 33.6797 173.513 33.6797L167.458 34.8788Z" fill="#E88B68"/>
<path d="M168.443 39.3163C168.443 39.3163 167.786 37.81 166.924 38.2965C166.062 38.7829 166.113 39.8497 166.621 40.2594C167.129 40.6691 168.648 39.6961 168.443 39.3163Z" fill="#E88B68"/>
<path d="M166.886 37.0548C166.886 37.0548 166.924 36.1245 166.254 36.4061C165.584 36.6835 166.301 37.5498 166.57 37.49C166.839 37.426 166.886 37.0548 166.886 37.0548Z" fill="#E88B68"/>
<path d="M168.465 38.0749C168.465 38.0749 168.465 37.6567 168.255 37.678C168.046 37.6994 167.999 37.8871 168.162 38.0749C168.328 38.2584 168.465 38.0749 168.465 38.0749Z" fill="#E88B68"/>
<path d="M152.296 33.2056C152.296 33.2056 152.1 32.2156 151.323 32.365C150.546 32.5186 149.727 33.8585 150.401 34.3706C151.075 34.8826 152.168 34.2212 152.296 33.2056Z" fill="#E88B68"/>
<path d="M153.26 34.5502C153.26 34.5502 152.957 34.2942 152.727 34.3752C152.496 34.4563 152.496 35.0367 152.727 35.1007C152.957 35.1604 153.363 34.8233 153.26 34.5502Z" fill="#E88B68"/>
<path d="M149.992 47.215C149.992 47.215 147.299 45.2777 145.639 46.6347C143.979 47.9917 144.073 50.0698 144.478 51.4225C144.884 52.7753 145.639 53.1678 145.639 53.1678C145.639 53.1678 147.329 51.8151 148.362 50.3771C149.398 48.9347 149.992 47.215 149.992 47.215Z" fill="#E88B68"/>
<path d="M148.366 43.7891C148.366 43.7891 147.713 42.7948 147.111 43.4733C146.509 44.1518 146.313 44.3993 147.111 44.6596C147.909 44.9199 148.366 43.7891 148.366 43.7891Z" fill="#E88B68"/>
<path d="M134.979 35.9839C134.979 35.9839 134.996 37.3238 133.686 38.2967C132.376 39.2697 128.672 38.2967 128.672 38.2967C128.672 38.2967 131.224 35.9967 134.979 35.9839Z" fill="#E88B68"/>
<path d="M136.938 36.9185C136.938 36.9185 136.294 36.5515 136.097 36.9185C135.901 37.2855 136.05 38.1688 136.52 38.1133C136.985 38.0536 136.938 36.9185 136.938 36.9185Z" fill="#E88B68"/>
<path d="M136.012 56.347C136.012 56.347 134.753 53.6543 133.674 54.3286C132.598 55.0028 133.336 56.3939 134.416 56.6414C135.496 56.8847 136.012 56.347 136.012 56.347Z" fill="#E88B68"/>
<path d="M131.646 50.3516C131.646 50.3516 130.712 48.7343 129.5 49.208C128.288 49.6817 127.712 51.4995 128.672 52.1055C129.632 52.7114 131.476 52.2207 131.646 50.3516Z" fill="#421E30"/>
<path d="M125.664 48.7555C125.664 48.7555 126.001 46.4341 124.922 46.7755C123.846 47.1169 123.035 48.7598 123.91 49.6559C124.789 50.5563 125.664 48.7555 125.664 48.7555Z" fill="#421E30"/>
<path d="M182.619 42.6319C182.619 42.6319 181.488 39.1669 179.073 39.2821C176.658 39.3973 175.373 44.2321 175.373 44.2321L182.619 44.7912V42.6319Z" fill="#E88B68"/>
<path d="M185.576 36.0735C185.38 36.0948 184.655 35.8516 184.236 36.4917C183.818 37.1275 183.622 39.1075 185.158 39.0435C186.694 38.9795 187.509 38.0749 187.531 37.7676C187.552 37.4604 185.576 36.0735 185.576 36.0735Z" fill="#E88B68"/>
<path d="M187.531 35.5825C187.266 35.6977 186.98 35.7319 187.091 36.0434C187.202 36.3549 187.552 36.7731 187.906 36.5555C188.256 36.3336 187.531 35.5825 187.531 35.5825Z" fill="#E88B68"/>
<path d="M189.805 33.0352C189.805 33.0352 189.818 35.3437 191.29 36.3764C192.762 37.4091 193.71 37.7633 194.499 37.1445C195.289 36.5301 195.651 35.1475 195.651 35.1475C195.651 35.1475 192.233 33.1205 189.805 33.0352Z" fill="#E88B68"/>
<path d="M193.915 46.6348C193.915 46.6348 193.326 44.2494 191.653 44.2836C189.98 44.3134 189.763 45.3376 190.569 46.0801C191.376 46.8183 193.974 47.6547 193.915 46.6348Z" fill="#E88B68"/>
<path d="M195.463 44.2836C195.463 44.2836 194.409 43.3875 194.072 43.8526C193.731 44.3178 193.483 45.2438 194.29 45.3376C195.088 45.4273 195.463 44.2836 195.463 44.2836Z" fill="#E88B68"/>
<path d="M192.728 43.2C192.728 43.2 192.382 42.5812 192.02 42.7988C191.657 43.0165 191.38 43.0762 191.811 43.4176C192.242 43.7547 192.728 43.2 192.728 43.2Z" fill="#E88B68"/>
<path d="M195.336 58.1778L197.094 55.084C197.094 55.084 199.62 56.3983 199.198 58.6087C198.775 60.8192 196.04 62.7651 194.883 62.5048C193.727 62.2402 193.479 61.5574 193.479 61.5574L195.336 58.1778Z" fill="#E88B68"/>
<path d="M201.412 61.0328C201.412 61.0328 200.623 60.4525 200.098 60.7171C199.573 60.9816 197.836 61.8735 198.31 62.9275C198.783 63.9815 199.573 65.1892 200.571 64.9801C201.57 64.771 202.095 61.929 201.412 61.0328Z" fill="#E88B68"/>
<path d="M201.72 57.615C201.72 57.615 200.939 57.2992 200.567 57.615C200.196 57.9307 200.559 59.0872 201.143 59.4584C201.728 59.8254 201.72 57.615 201.72 57.615Z" fill="#E88B68"/>
<path d="M208.171 60.2812L213.288 63.1361C213.288 63.1361 212.204 64.1431 209.887 63.8274C207.57 63.5073 208.171 60.2812 208.171 60.2812Z" fill="#E88B68"/>
<path d="M205.782 59.4961C205.782 59.4961 206.465 59.8417 206.623 60.2813C206.781 60.7165 206.99 62.2912 206.414 62.0821C205.833 61.8772 205.411 60.1148 205.782 59.4961Z" fill="#E88B68"/>
<path d="M217.235 78.3066C217.235 78.3066 219.04 81.8058 219.271 84.396C219.271 84.396 222.07 83.7986 222.206 81.3492C222.343 78.8997 221.187 77.3038 220.576 76.8472C219.962 76.3906 217.235 78.3066 217.235 78.3066Z" fill="#E88B68"/>
<path d="M227.097 80.5852C227.097 80.5852 225.603 79.3775 224.925 79.7829C224.246 80.1883 222.685 82.5012 223.5 83.5168C224.315 84.5367 226.691 84.9933 227.101 84.3916C227.511 83.7899 227.097 80.5852 227.097 80.5852Z" fill="#E88B68"/>
<path d="M224.118 75.9812C224.118 75.9812 222.228 75.3027 222.215 75.9812C222.202 76.6597 222.561 77.8162 223.265 78.0167C223.969 78.2258 224.118 75.9812 224.118 75.9812Z" fill="#E88B68"/>
<path d="M218.652 93.2847C218.652 93.2847 221.524 96.7838 219.168 99.6386C216.813 102.493 214.863 103.091 212.759 102.869C210.655 102.643 209.162 99.6045 209.162 99.6045C209.162 99.6045 213.164 98.5974 215.063 97.3172C216.966 96.0328 218.652 93.2847 218.652 93.2847Z" fill="#E88B68"/>
<path d="M224.118 94.7566C224.118 94.7566 222.586 93.8562 222.215 94.2317C221.844 94.6073 220.568 97.4237 221.695 97.8162C222.821 98.2088 224.118 94.7566 224.118 94.7566Z" fill="#E88B68"/>
<path d="M226.124 104.892C225.898 104.892 223.645 101.964 221.844 102.566C220.043 103.168 216.45 106.167 217.231 108.57C218.012 110.972 217.713 113.298 220.568 113.076C223.423 112.85 226.389 109.347 226.572 109.022C227.912 106.705 226.124 104.892 226.124 104.892Z" fill="#E88B68"/>
<path d="M225.945 101.785C226.909 101.504 226.768 100.023 225.774 99.8692C225.578 99.8393 225.403 99.8564 225.271 99.9588C224.699 100.39 224.417 100.991 225.271 101.666C225.484 101.832 225.719 101.853 225.945 101.785Z" fill="#E88B68"/>
<path d="M238.337 62.0824C238.337 62.0824 234.718 59.0953 230.404 59.1594C226.09 59.2234 228.501 58.2718 224.69 54.7811C220.879 51.2905 217.901 50.0231 215.234 52.8139C212.567 55.6047 214.146 58.9716 210.689 58.8094C207.237 58.6515 203.631 57.6957 201.626 58.8094C199.62 59.9232 196.765 60.2816 196.825 61.5618C196.889 62.842 210.531 62.4366 216.117 62.8292C221.703 63.2218 236.425 63.8576 237.633 63.5418C238.845 63.2218 238.337 62.0824 238.337 62.0824Z" fill="white"/>
<path d="M188.363 76.7783C188.363 76.7783 188.026 74.4356 184.463 74.4356C180.904 74.4356 182.653 74.3203 178.868 73.9832C175.083 73.6461 173.615 73.3602 172.143 74.9988C170.675 76.6375 172.143 78.4468 170.393 78.8394C168.644 79.232 166.438 78.9503 166.438 79.7995C166.438 80.6487 169.092 81.3229 171.861 81.3229C174.631 81.3229 194.136 81.8777 194.555 80.5847C194.973 79.2917 192.02 78.2718 190.586 77.9902C189.152 77.7085 188.363 76.7783 188.363 76.7783Z" fill="white"/>
<path d="M249.364 86.7942C249.364 86.7942 248.352 82.3221 242.822 83.1457C237.291 83.9693 238.823 86.8795 233.997 87.3063C229.171 87.733 227.835 87.4983 225.271 89.1454C222.706 90.7926 223.214 90.1867 219.723 90.4896C216.232 90.7926 212.558 92.3843 214.632 92.7641C216.706 93.1439 249.364 92.7641 249.364 92.7641V86.7942Z" fill="white"/>
<path d="M180.938 97.2271C180.938 97.2271 180.349 102.122 182.389 103.483C184.424 104.84 186.775 104.921 187.77 103.995C188.764 103.065 189.664 99.429 189.664 99.429L180.938 97.2271Z" fill="#E88B68"/>
<path d="M183.43 107.158C183.43 107.158 182.751 105.084 181.394 105.51C180.037 105.937 179.15 106.616 179.252 107.87C179.355 109.125 180.4 110.443 181.394 110.776C182.384 111.109 183.43 107.158 183.43 107.158Z" fill="#E88B68"/>
<path d="M187.522 106.722C187.522 106.722 186.566 106.095 186.302 106.304C186.041 106.513 184.919 107.281 185.141 108.126C185.363 108.967 186.059 109.803 186.912 109.594C187.765 109.385 187.522 106.722 187.522 106.722Z" fill="#E88B68"/>
<path d="M157.622 93.6734C157.622 93.6734 158.3 90.1614 160.442 89.7944C162.584 89.4274 165.196 90.2638 165.874 91.416C166.553 92.5639 165.691 97.228 165.691 97.228C165.691 97.228 162.951 94.1001 157.622 93.6734Z" fill="#E88B68"/>
<path d="M163.954 87.3108C163.954 87.3108 162.849 85.2113 161.487 85.3606C160.13 85.51 159.187 86.4957 159.294 87.3108C159.401 88.1258 159.482 88.5952 161.138 88.8043C162.793 89.0134 163.954 87.3108 163.954 87.3108Z" fill="#E88B68"/>
<path d="M157.254 88.126C157.254 88.126 156.469 87.2896 155.633 87.6566C154.797 88.0236 154.011 88.9624 154.22 89.4318C154.43 89.9012 155.215 90.665 156.439 90.4943C157.668 90.3194 157.929 89.0434 157.929 89.0434L157.254 88.126Z" fill="#E88B68"/>
<path d="M110.959 85.0018C110.959 85.0018 107.208 88.9874 101.396 88.4412C95.5838 87.8907 94.3378 85.0018 94.3378 85.0018C94.3378 85.0018 94.9949 83.1754 100.009 82.4372C105.023 81.6989 110.959 85.0018 110.959 85.0018Z" fill="#E88B68"/>
<path d="M114.829 90.5448C114.829 90.5448 113.498 87.69 112.171 88.4923C110.844 89.2945 111.044 91.2831 111.535 92.3157C112.026 93.3484 113.733 94.6755 114.834 94.2317C115.93 93.7922 114.829 90.5448 114.829 90.5448Z" fill="#E88B68"/>
<path d="M101.396 103.236C101.396 103.236 94.7006 100.65 91.6026 101.678C88.5045 102.711 86.2941 105.732 85.0395 107.87C83.7849 110.008 83.2686 111.975 83.7124 114.382C84.1562 116.789 85.4278 119.311 85.4278 119.311C85.4278 119.311 88.1631 118.513 94.0818 111.903C100.001 105.293 101.396 103.236 101.396 103.236Z" fill="#E88B68"/>
<path d="M101.037 96.5917C101.037 96.5917 97.7047 95.0427 96.1983 95.9302C94.6962 96.8136 93.8855 98.1407 95.2851 98.9515C96.6848 99.7623 99.7828 99.9329 100.299 99.9586C100.815 99.9842 101.037 96.5917 101.037 96.5917Z" fill="#E88B68"/>
<path d="M62.2736 98.832L67.5778 106.27C67.5778 106.27 64.292 108.706 62.2693 106.27C60.2509 103.833 59.918 102.25 59.9863 101.721C60.0546 101.192 62.2736 98.832 62.2736 98.832Z" fill="#E88B68"/>
<path d="M51.0677 65.3344C51.0677 65.3344 53.611 60.4953 57.5924 61.5578C61.5738 62.6204 61.6591 65.5563 63.7799 63.3714C65.9008 61.1823 66.4086 53.642 74.5463 56.0146C82.6839 58.3872 79.6328 61.4042 86.1575 60.4483C92.6822 59.4882 94.6323 57.9648 100.478 59.5735C106.325 61.1823 103.867 62.454 108.445 62.8807C113.02 63.3031 115.819 65.0015 113.698 65.8464C111.578 66.6956 52.0023 67.8819 51.0677 67.2034C50.1375 66.5249 51.0677 65.3344 51.0677 65.3344Z" fill="white"/>
<path d="M36 92.9519C36 92.9519 41.876 92.6916 42.9941 95.0514C44.1078 97.4112 44.829 97.4794 48.5031 97.8037C52.1772 98.1281 53.6196 98.6273 54.473 99.9545C55.3265 101.282 55.9836 100.206 57.2297 101.431C58.4757 102.656 59.4614 102.86 58.3434 103.087C57.2254 103.317 36 103.449 36 103.449V92.9519Z" fill="white"/>
<path d="M151.297 59.9653C151.114 59.9653 149.339 60.0549 149.659 61.7875C149.979 63.52 152.343 63.9723 152.889 66.0206C153.435 68.0689 152.889 69.8441 152.889 69.8441C152.889 69.8441 155.778 68.1158 154.835 66.1102C153.892 64.1046 151.229 63.3279 151.08 62.2611C150.935 61.1943 151.297 59.9653 151.297 59.9653Z" fill="#E85D58"/>
<path d="M112.043 74.2184C112.043 74.2184 112.414 75.7204 107.758 75.8783C103.099 76.0362 99.3092 76.352 96.5483 78.4856C93.7873 80.6193 94.3378 79.9877 94.3378 79.9877C94.3378 79.9877 93.941 74.2226 98.7587 73.4332C103.576 72.6437 106.103 74.7774 108.629 74.6195C111.151 74.4531 112.043 74.2184 112.043 74.2184Z" fill="#E85D58"/>
<path d="M197.247 52.6517C197.247 52.6517 195.604 54.4781 194.994 54.5677C194.384 54.6573 193.501 53.2577 192.801 52.6517C192.101 52.0415 190.846 51.8921 190.117 52.4981C189.391 53.1083 188.478 54.0812 189.084 55.2377C189.694 56.3941 189.814 56.2106 189.814 56.2106C189.814 56.2106 189.937 54.6445 189.997 54.1666C190.057 53.6844 189.784 53.5649 189.784 53.5649C189.784 53.5649 190.181 53.4753 190.637 53.5649C191.094 53.6545 191.99 53.0187 192.016 53.0187C192.041 53.0187 192.493 53.6289 192.493 53.6289C192.493 53.6289 191.367 53.3131 190.91 54.1708C190.454 55.0286 190.027 56.0655 190.364 56.7355C190.697 57.4054 191.218 58.1351 191.218 58.1351C191.218 58.1351 192.237 56.919 192.016 56.4922C191.794 56.0655 191.495 55.3657 191.495 55.3657L192.19 54.8493L193.287 54.7256C193.287 54.7256 192.434 55.0286 192.374 55.4852C192.314 55.9418 192.344 57.1579 192.831 57.6487C193.317 58.1394 193.479 58.1351 193.479 58.1351C193.479 58.1351 193.902 56.3984 193.744 56.0954C193.59 55.7924 193.479 55.4254 193.479 55.4254C193.479 55.4254 194.2 55.7924 194.836 55.6985C195.476 55.6089 197.256 55.6687 198.22 55.0883C199.189 54.508 199.462 54.1751 199.462 54.1751L197.247 52.6517Z" fill="#A34975"/>
<path d="M189.592 46.084C189.592 46.084 189.349 48.2731 188.619 49.2844C187.889 50.2958 185.704 49.4466 185.094 49.0839C184.488 48.7212 183.498 48.0725 182.615 48.4353C181.732 48.798 180.234 49.9331 180.477 50.8249C180.72 51.7168 181.407 52.9714 181.407 52.9714C181.407 52.9714 181.326 51.0255 181.813 50.6201C182.299 50.2147 182.743 49.485 183.029 49.5277C183.315 49.5703 183.934 49.7282 183.934 49.7282C183.934 49.7282 182.623 50.2958 182.299 50.9444C181.975 51.593 181.894 52.2801 182.218 52.8092C182.542 53.3341 183.934 53.9016 183.934 53.9016L183.353 51.7381L184.608 50.7054L185.022 50.7865C185.022 50.7865 184.164 51.5546 184.126 51.9216C184.087 52.2843 184.369 53.5005 184.732 53.9059C185.094 54.3113 185.73 54.2686 185.73 54.2686C185.73 54.2686 185.376 52.4849 185.337 52.3654C185.299 52.2459 185.581 51.7381 185.581 51.7381C185.581 51.7381 187.078 50.3811 187.808 50.5433C188.538 50.7054 188.901 51.1492 189.387 50.3811C189.874 49.613 191.243 47.3556 191.243 47.3556L189.592 46.084Z" fill="#A34975"/>
<path d="M199.974 38.8898C199.974 38.8898 203.866 34.1702 205.594 33.7221C207.322 33.2698 210.437 36.1246 210.399 38.2625C210.361 40.4004 210.361 40.4004 210.361 40.4004C210.361 40.4004 208.632 38.335 208.223 39.2013C207.809 40.0633 207.924 41.2666 207.886 41.3776C207.847 41.4885 206.687 39.8371 205.671 40.1017C204.655 40.3662 204.246 42.0177 204.246 42.0177C204.246 42.0177 203.644 39.9523 203.047 40.0675C202.445 40.1785 200.943 41.1173 200.943 41.1173L199.974 38.8898Z" fill="#A34975"/>
<path d="M199.01 38.8772C199.01 38.8772 199.594 30.923 198.493 28.8875C197.392 26.8521 194.999 26.5448 193.748 27.0612C192.498 27.5775 191.879 28.4395 191.879 28.4395C191.879 28.4395 192.878 28.2005 193.014 28.6102C193.151 29.0198 192.157 30.1592 192.157 30.1592C192.157 30.1592 193.437 29.8818 193.915 30.5731C194.393 31.2601 193.394 32.2971 193.394 32.2971C193.394 32.2971 194.427 31.6442 194.977 32.4678C195.528 33.2914 195.459 34.26 195.459 34.26C195.459 34.26 195.839 33.1932 196.356 33.8802C196.872 34.5673 197.597 37.405 197.559 37.5373C197.529 37.6739 199.01 38.8772 199.01 38.8772Z" fill="#A34975"/>
<path d="M201.246 38.8769C201.276 38.6848 202.219 36.995 202.735 36.7944C203.251 36.5939 204.024 37.3407 204.28 38.3392C204.536 39.3377 204.425 40.6606 204.425 40.6606C204.425 40.6606 203.708 39.517 203.222 39.517C202.735 39.517 202.389 39.662 202.389 39.662L201.246 38.8769Z" fill="#E88B68"/>
<path d="M203.823 36.2825C203.823 36.2825 204.16 36.769 204.45 37.6011C204.741 38.4332 204.911 39.6323 204.911 39.6323C204.911 39.6323 205.769 39.1459 206.23 39.2312C206.691 39.3166 207.463 40.1188 207.463 40.1188C207.463 40.1188 207.834 38.4588 207.608 37.9553C207.378 37.456 205.974 35.4206 205.347 35.3651C204.719 35.3096 203.823 36.2825 203.823 36.2825Z" fill="#E88B68"/>
<path d="M198.092 32.5144C198.092 32.5144 198.13 30.7221 196.914 30.8203C195.702 30.9184 194.828 31.3366 194.828 31.3366C194.828 31.3366 195.519 31.6396 195.647 32.0578C195.775 32.476 195.647 32.8643 195.647 32.8643L198.092 32.5144Z" fill="#E88B68"/>
<path d="M197.217 29.5534C197.217 29.5534 196.505 28.8322 195.647 28.717C194.789 28.6018 193.347 29.3613 193.347 29.3613C193.347 29.3613 194.602 29.7411 194.602 30.2319C194.602 30.7269 194.602 30.7269 194.602 30.7269L197.217 29.5534Z" fill="#E88B68"/>
</g>
<defs>
<clipPath id="clip0">
<rect width="285" height="190" fill="white"/>
</clipPath>
</defs>
</svg>
