<svg width="285" height="190" viewBox="0 0 285 190" fill="none" xmlns="http://www.w3.org/2000/svg">
<rect width="285" height="190" fill="#B2D3C0"/>
<path d="M132.994 90.168C130.564 110.094 112.436 124.308 92.5108 121.879C72.5852 119.449 58.3703 101.321 60.8 81.3957C63.2297 61.47 83.4435 29.9404 103.369 32.3701C123.295 34.7998 135.396 70.2042 132.994 90.168Z" fill="#FFFAF1"/>
<path d="M121.871 88.1804C120.503 99.4349 110.269 107.438 99.0148 106.07C87.7604 104.702 79.7577 94.4685 81.1254 83.214C82.4931 71.9596 92.7269 63.957 103.981 65.3246C115.203 66.6871 123.205 76.9208 121.871 88.1804Z" fill="#FFC942"/>
<path opacity="0.1" d="M132.993 90.1689C134.061 81.4647 132.324 69.7888 128.394 59.1844C114.276 58.6477 100.394 79.5359 97.1965 90.8396C94.3177 100.979 94.1193 111.878 96.5227 122.107C114.802 122.354 130.71 108.735 132.993 90.1689Z" fill="#606060"/>
<path d="M176.815 108.809C167.909 126.803 146.071 134.159 128.076 125.253C110.081 116.347 102.725 94.5088 111.632 76.514C120.538 58.5192 150.098 35.5459 168.093 44.4522C186.088 53.3584 185.721 90.8138 176.815 108.809Z" fill="#FEFEFE"/>
<path d="M166.963 103.242C161.921 113.412 149.631 117.548 139.461 112.506C129.291 107.463 125.155 95.1732 130.197 85.0035C135.24 74.8339 147.53 70.6972 157.7 75.7398C167.841 80.7442 172.006 93.0723 166.963 103.242Z" fill="#FFC942"/>
<path opacity="0.1" d="M176.814 108.809C180.677 100.984 182.953 89.5352 182.798 78.3109C181.206 78.5662 179.489 78.9705 177.637 79.5897C156.295 86.585 138.124 105.145 129.147 125.726C146.932 133.823 168.068 126.425 176.814 108.809Z" fill="#606060"/>
<path d="M212.098 142.669C200.085 158.757 177.296 162.084 161.207 150.071C145.119 138.057 141.792 115.269 153.805 99.18C165.819 83.0914 199.007 65.7834 215.134 77.769C231.184 89.81 224.117 126.547 212.098 142.669Z" fill="#FEFEFE"/>
<path d="M166.463 122.135C165.902 133.458 174.626 143.092 185.949 143.653C197.272 144.214 206.906 135.489 207.467 124.166C208.028 112.843 199.304 103.209 187.98 102.648C176.657 102.087 167.024 110.812 166.463 122.135Z" fill="#FFC942"/>
</svg>
