<svg width="285" height="190" viewBox="0 0 285 190" fill="none" xmlns="http://www.w3.org/2000/svg">
<rect width="285" height="190" fill="#FFF8EF"/>
<path fill-rule="evenodd" clip-rule="evenodd" d="M177.444 142.957C189.928 140.834 185.613 148.468 190.22 152.47C195.322 156.901 200.172 154.466 200.835 155.489C200.436 157.212 192.976 157.874 190.873 157.008C179.411 152.256 189.315 146.627 178.719 146.579C176.47 146.569 177.444 150.425 177.444 143.454C177.444 143.288 177.424 142.957 177.444 142.957Z" fill="#A68F79"/>
<path fill-rule="evenodd" clip-rule="evenodd" d="M114.185 115.019C108.108 124.981 101.429 139.803 102.402 139.88C102.441 139.88 112.063 138.547 114.74 138.594C114.965 138.594 130.448 126.461 130.915 124.747C132.804 117.804 114.614 114.327 114.185 115.019Z" fill="#A68F79"/>
<path fill-rule="evenodd" clip-rule="evenodd" d="M121.82 132.985C107.428 127.883 90.074 142.918 91.1069 163.66C91.1456 164.399 102.062 166.727 102.734 165.773C103.143 165.179 103.192 163.319 105.422 158.324C110.067 147.895 119.366 155.52 128.375 155.52C141.102 155.52 126.095 144.573 121.82 132.985Z" fill="#B89F88"/>
<path fill-rule="evenodd" clip-rule="evenodd" d="M145.571 157.593C154.355 157.593 164.599 160.884 171.785 155.889C176.849 152.363 180.529 141.866 180.529 135.654C180.529 117.92 162.669 97.1012 141.752 102.769C104.935 112.76 108.937 157.593 145.571 157.593Z" fill="#E0CAB6"/>
<path fill-rule="evenodd" clip-rule="evenodd" d="M93.5017 30.7555C115.023 41.9345 108.303 68.0815 110.553 65.3936C117.409 57.2137 124.635 57.2821 124.596 56.3474C124.392 52.4034 130.653 41.2244 130.653 55.5973C130.653 55.5199 143.341 37.2997 136.925 54.3709C140.597 53.338 140.616 53.7189 151.366 53.8157C151.737 37.7774 172.586 13.909 189.471 15.0387C194.847 15.3989 197.535 19.7999 197.252 26.4125C196.785 37.5437 190.191 39.1988 187.913 57.419C187.523 60.5445 187.883 74.6941 181.554 77.1289C176.783 78.9699 175.332 77.5279 173.803 76.5441C177.621 85.2985 173.394 90.5091 172.469 92.1642C171.934 93.1285 174.709 92.0273 177.271 90.6834C186.638 85.7465 193.504 72.4735 203.719 67.3805C206.63 65.9294 198.626 77.1871 201.401 77.2348C206.436 77.3316 212.805 78.491 212.22 79.5625C211.373 81.1401 204.955 80.9839 199.385 84.2851C191.234 89.1057 178.264 124.668 156.245 109.457C144.618 121.114 107.273 129.946 104.176 103.147C92.6174 122.565 86.0628 124.152 78.6227 120.334C70.8611 116.341 77.9901 90.1076 75.7115 82.6093C74.5044 78.6562 58.8456 56.3848 61.2508 39.7036C62.5444 30.6974 74.7277 20.998 93.5017 30.7555Z" fill="#C7AF99"/>
<path fill-rule="evenodd" clip-rule="evenodd" d="M64.6293 48.9849C68.6806 30.9016 90.6783 44.1449 97.5633 61.8874C108.013 88.8426 93.2887 116.323 79.4993 116.148C73.8317 116.079 80.1513 86.8944 77.2981 81.3921C71.0948 69.4553 64.0058 51.1086 64.6293 48.9849Z" fill="#A68F79"/>
<path fill-rule="evenodd" clip-rule="evenodd" d="M163.625 62.1221C162.251 57.5944 164.9 50.3389 168.981 43.8541C174.104 35.7039 176.323 31.166 184.932 27.6312C191.466 24.9536 193.56 25.2067 193.472 27.524C193.345 31.0098 188.349 39.1419 186.13 49.0453C184.815 54.9078 186.159 59.4264 185.078 64.7428C181.98 79.9433 175.116 76.8371 172.778 74.5688C172.671 74.472 170.86 70.5563 168.688 67.6063C166.332 64.4097 163.635 62.1414 163.625 62.1221Z" fill="#A68F79"/>
<path fill-rule="evenodd" clip-rule="evenodd" d="M168.865 76.5337C168.387 78.2959 169.722 79.8348 170.501 79.4359C171.386 78.9582 171.65 76.3104 169.761 75.8236C169.526 75.7643 168.932 76.2716 168.865 76.5337Z" fill="#6E4D39"/>
<path fill-rule="evenodd" clip-rule="evenodd" d="M161.269 69.8928C163.187 73.0377 167.433 72.6091 167.948 70.7203C168.504 68.5101 164.969 64.6345 161.502 67.3701C161.074 67.7019 160.947 69.4254 161.269 69.8928Z" fill="#806851"/>
<path fill-rule="evenodd" clip-rule="evenodd" d="M144.431 103.956C143.72 103.44 143.438 104.083 143.048 105.699C142.249 108.971 138.51 108.368 137.537 106.498C136.768 105.028 137.381 103.587 136.397 103.616C135.861 103.626 135.784 106.031 137.079 107.54C138.403 109.088 141.149 109.916 142.95 107.999C143.789 107.112 144.568 104.055 144.431 103.956Z" fill="#806851"/>
<path fill-rule="evenodd" clip-rule="evenodd" d="M113.514 97.5192C113.046 99.2814 114.38 100.82 115.16 100.411C116.036 99.9334 116.309 97.2855 114.42 96.7988C114.185 96.7497 113.591 97.2468 113.514 97.5192Z" fill="#6E4D39"/>
<path fill-rule="evenodd" clip-rule="evenodd" d="M116.046 88.5223C115.169 92.3102 111.079 93.8 110.056 92.2714C108.897 90.4601 111.069 85.2599 115.101 86.263C115.598 86.3895 116.211 87.9375 116.046 88.5223Z" fill="#806851"/>
<path fill-rule="evenodd" clip-rule="evenodd" d="M122.395 108.777C119.113 112.916 113.806 110.325 113.475 107.667C113.134 104.599 118.802 99.5747 123.018 103.684C124.712 105.116 122.911 108.192 122.395 108.777Z" fill="#FFBABD"/>
<path fill-rule="evenodd" clip-rule="evenodd" d="M177.901 86.3506C175.185 89.7692 170.812 87.6365 170.539 85.4456C170.257 82.9139 174.932 78.7659 178.408 82.1548C179.8 83.3413 178.32 85.873 177.901 86.3506Z" fill="#FFBABD"/>
<path fill-rule="evenodd" clip-rule="evenodd" d="M156.439 114.756C146.244 119.829 143.682 139.548 144.656 139.627C144.695 139.627 154.317 138.294 156.994 138.332C157.217 138.343 172.702 126.208 173.169 124.485C175.058 117.551 157.17 114.395 156.439 114.756Z" fill="#C7AF99"/>
<path fill-rule="evenodd" clip-rule="evenodd" d="M164.58 135.653C159.438 133.355 145.104 133.209 139.397 144.973C136.973 149.959 130.857 162.696 129.241 172.814C129.222 172.902 144.861 174.917 146.827 174.43C152.115 164.994 158.484 161.674 163.762 159.599C181.349 152.646 168.777 135.469 164.58 135.653Z" fill="#B89F88"/>
<path fill-rule="evenodd" clip-rule="evenodd" d="M146.817 174.479C147.441 172.61 147.119 169.425 145.269 169.815C143.205 170.244 141.218 172.522 140.527 174.304C142.328 174.488 145.162 174.518 146.817 174.479Z" fill="#8C7763"/>
<path fill-rule="evenodd" clip-rule="evenodd" d="M140.527 174.304C141.462 172.542 141.706 169.114 139.884 169.114C137.839 169.114 135.852 171.967 134.888 173.633C136.875 173.944 138.871 174.07 140.527 174.304Z" fill="#8C7763"/>
<path fill-rule="evenodd" clip-rule="evenodd" d="M134.888 173.631C135.814 171.859 136.125 168.315 134.303 168.315C132.258 168.315 130.213 171.129 129.249 172.784C131.237 173.106 133.126 173.378 134.888 173.631Z" fill="#8C7763"/>
<path fill-rule="evenodd" clip-rule="evenodd" d="M102.655 166.124C103.073 164.731 102.859 162.288 101.622 162.453C100.24 162.637 98.8465 164.352 98.3895 165.657C99.5876 165.919 101.555 166.037 102.655 166.124Z" fill="#8C7763"/>
<path fill-rule="evenodd" clip-rule="evenodd" d="M98.3908 165.657C99.0144 164.371 99.2377 161.674 98.0203 161.557C96.6673 161.42 95.1672 163.679 94.5242 164.877C95.8488 165.258 97.2806 165.374 98.3908 165.657Z" fill="#8C7763"/>
<path fill-rule="evenodd" clip-rule="evenodd" d="M94.5242 164.877C95.1478 163.591 95.517 160.69 94.3009 160.573C92.9375 160.436 91.7498 162.461 91.1069 163.659C92.1771 164.313 93.3468 164.566 94.5242 164.877Z" fill="#8C7763"/>
</svg>
