<svg width="285" height="190" viewBox="0 0 285 190" fill="none" xmlns="http://www.w3.org/2000/svg">
<rect width="285" height="190" fill="#FFE8CC"/>
<path fill-rule="evenodd" clip-rule="evenodd" d="M137.916 121.771C137.916 121.771 138.999 130.956 140.752 135.298C143.515 142.144 147.788 145.507 148.363 145.871C153.82 144.246 151.599 145.603 148.821 146.996C148.359 147.229 152.856 147.423 152.582 148.557C152.419 149.236 148.47 147.592 148.294 147.461C148.047 147.277 150.513 150.692 149.936 151.257C148.851 150.523 146.928 147.339 146.832 147.04C146.669 146.528 142.595 144.075 139.89 139.358C136.477 133.404 134.325 124.948 134.687 124.579C134.712 124.554 136.021 126.186 136.536 125.774C136.759 125.594 135.666 123.404 135.944 123.463C136.283 123.534 137.182 125.322 137.529 125.19C137.849 125.069 136.987 121.708 137.119 122.068C138.487 125.767 138.071 124.004 137.916 121.771Z" fill="#522626"/>
<path fill-rule="evenodd" clip-rule="evenodd" d="M62.1279 38.0217C61.2913 38.2392 60.6722 41.4811 62.2973 43.5914C64.2508 46.1263 77.7161 71.7371 89.1504 79.139C85.8332 70.3274 65.9345 37.0303 62.1279 38.0217Z" fill="#C3AD88"/>
<path fill-rule="evenodd" clip-rule="evenodd" d="M166.874 120.767C192.185 105.628 180.259 80.5425 183.821 78.8212C192.85 74.4604 192.777 38.1076 155.069 43.8844C139.882 46.2101 89.4369 71.9443 81.4494 69.3152C80.1066 65.6697 55.2468 36.9154 54.0148 46.3858C53.4397 50.8094 69.7243 62.9779 77.9607 74.1445C86.4126 85.6019 95.9039 102.054 107.315 112.022C125.187 127.639 146.573 132.908 166.874 120.767Z" fill="#7C462A"/>
<path fill-rule="evenodd" clip-rule="evenodd" d="M173.447 67.9956C173.878 67.4957 174.972 65.5004 174.198 63.5657C173.125 60.8781 169.662 58.4414 166.629 61.4993C162.613 65.5443 168.398 73.8456 173.447 67.9956Z" fill="white"/>
<path fill-rule="evenodd" clip-rule="evenodd" d="M172.546 66.8992C172.945 66.4496 173.991 64.6781 173.395 63.0404C172.567 60.7648 169.63 58.8092 166.836 61.5784C163.138 65.2427 167.865 72.1657 172.546 66.8992Z" fill="#400000"/>
<path fill-rule="evenodd" clip-rule="evenodd" d="M169.103 65.1886C169.26 65.0129 169.668 64.3206 169.436 63.6785C169.112 62.7875 167.963 62.0241 166.869 63.1075C165.422 64.5402 167.271 67.2487 169.103 65.1886Z" fill="white"/>
<path fill-rule="evenodd" clip-rule="evenodd" d="M166.401 55.6053C169.36 52.2171 172.439 56.2056 169.565 56.5151C168.411 56.6364 163.567 58.8514 166.401 55.6053Z" fill="#7B7463"/>
<path fill-rule="evenodd" clip-rule="evenodd" d="M199.639 70.2501C199.248 70.0473 187.142 66.5481 186.44 67.3743C184.601 69.5328 184.403 75.2008 188.048 75.1799C189.748 75.1694 198.893 72.5655 199.639 70.2501Z" fill="#484336"/>
<path fill-rule="evenodd" clip-rule="evenodd" d="M183.373 79.2937C162.69 76.0477 142.323 79.6368 139.502 101.439C138.069 112.516 151.43 125.979 166.089 121.229C173.719 118.757 179.011 108.876 181.619 103.844C183.507 100.201 183.704 90.1969 183.384 85.9427C183.125 82.4917 183.116 80.3876 183.373 79.2937Z" fill="#F15F3D"/>
<path fill-rule="evenodd" clip-rule="evenodd" d="M157.501 81.904C152.695 81.0172 152.203 85.1689 154.778 83.5647C155.529 83.0983 157.597 81.9208 157.501 81.904ZM145.73 87.3127C142.53 87.5595 143.415 91.065 144.536 89.2265C144.862 88.6932 145.793 87.3086 145.73 87.3127ZM150.639 83.7801C147.039 83.1171 146.671 86.2252 148.6 85.0246C149.16 84.6753 150.71 83.7927 150.639 83.7801ZM151.147 86.4929C151.241 86.5096 149.173 87.6871 148.424 88.1535C145.847 89.7598 146.341 85.6081 151.147 86.4929ZM182.779 79.4151C180.565 78.2982 179.312 79.5824 181.002 79.4946C181.493 79.4716 182.823 79.4381 182.779 79.4151ZM181.19 80.6763C181.234 80.6993 179.904 80.7307 179.412 80.7558C177.72 80.8415 178.975 79.5594 181.19 80.6763ZM178.218 77.5369C176.003 76.42 174.75 77.7042 176.44 77.6164C176.932 77.5913 178.262 77.5578 178.218 77.5369ZM175.112 79.0658C172.897 77.949 171.644 79.2332 173.334 79.1453C173.826 79.1202 175.156 79.0889 175.112 79.0658ZM174.447 76.3615C170.812 74.5272 168.754 76.6355 171.527 76.4933C172.334 76.4514 174.518 76.3991 174.447 76.3615ZM170.657 78.2564C166.959 76.8844 165.583 79.4674 168.053 78.8671C168.772 78.6935 170.73 78.2836 170.657 78.2564ZM165.05 76.5602C161.354 75.1881 159.976 77.7712 162.446 77.1709C163.163 76.9973 165.121 76.5874 165.05 76.5602ZM165.183 79.8355C161.584 79.1725 161.216 82.2805 163.144 81.08C163.705 80.7307 165.255 79.8481 165.183 79.8355ZM157.426 77.5704C153.826 76.9074 153.458 80.0154 155.387 78.8148C155.947 78.4656 157.497 77.5829 157.426 77.5704ZM148.765 91.18C148.836 91.1925 147.286 92.0752 146.726 92.4245C144.797 93.6271 145.165 90.517 148.765 91.18ZM153.506 80.6868C153.601 80.7035 151.532 81.881 150.783 82.3474C148.209 83.9517 148.7 79.8 153.506 80.6868ZM160.959 79.1056C161.053 79.1223 158.984 80.2999 158.235 80.7663C155.661 82.3726 156.154 78.2209 160.959 79.1056Z" fill="#F47A60"/>
<path fill-rule="evenodd" clip-rule="evenodd" d="M139.142 103.34C136.695 106.935 140.363 108.023 139.755 105.743C139.577 105.08 139.19 103.269 139.142 103.34ZM140.15 113.432C139.295 115.967 142.834 115.873 141.514 114.687C141.131 114.344 140.167 113.382 140.15 113.432ZM138.55 109.006C136.718 111.698 139.464 112.514 139.008 110.807C138.876 110.311 138.586 108.954 138.55 109.006ZM141.229 109.071C141.277 109 141.664 110.811 141.842 111.474C142.451 113.756 138.782 112.666 141.229 109.071ZM145.408 83.2154C143.626 84.7527 144.387 85.947 144.879 84.6147C145.023 84.2277 145.444 83.1862 145.408 83.2154ZM146.034 84.6691C146.069 84.6398 145.649 85.6814 145.504 86.0683C145.011 87.4006 144.249 86.2063 146.034 84.6691ZM142.127 86.4531C140.345 87.9883 141.106 89.1847 141.597 87.8523C141.742 87.4654 142.162 86.4238 142.127 86.4531ZM142.486 89.1324C142.522 89.1031 142.101 90.1447 141.957 90.5316C141.466 91.8639 140.704 90.6676 142.486 89.1324ZM139.763 89.193C136.837 91.7154 138.086 93.6773 138.895 91.4895C139.132 90.8537 139.822 89.1428 139.763 89.193ZM140.23 92.4663C140.28 92.414 139.995 94.0098 139.912 94.5996C139.629 96.6284 137.711 95.1162 140.23 92.4663ZM136.762 96.551C134.242 99.1989 136.162 100.711 136.444 98.6844C136.528 98.0946 136.812 96.4987 136.762 96.551ZM139.832 97.0007C138 99.6946 140.746 100.508 140.29 98.8015C140.158 98.3058 139.87 96.9484 139.832 97.0007ZM135.114 102.665C133.282 105.356 136.028 106.172 135.572 104.465C135.438 103.968 135.149 102.61 135.114 102.665ZM144.751 111.723C142.919 114.415 145.668 115.23 145.209 113.524C145.078 113.026 144.789 111.669 144.751 111.723ZM136.663 106.247C136.712 106.176 137.099 107.987 137.276 108.651C137.885 110.93 134.216 109.843 136.663 106.247ZM137.728 100.169C137.776 100.098 138.163 101.91 138.341 102.573C138.95 104.854 135.281 103.765 137.728 100.169Z" fill="#F47A60"/>
<path fill-rule="evenodd" clip-rule="evenodd" d="M156.809 115.831C158.235 119.798 160.821 117.263 158.861 116.577C158.29 116.379 156.78 115.753 156.809 115.831ZM164.658 120.294C166.089 122.356 167.748 119.307 166.24 119.8C165.803 119.943 164.631 120.252 164.658 120.294ZM160.651 119.319C160.63 119.261 161.762 119.729 162.186 119.88C163.655 120.39 161.72 122.291 160.651 119.319ZM162.006 117.081C161.979 117.004 163.489 117.629 164.058 117.83C166.018 118.514 163.433 121.051 162.006 117.081ZM145.197 99.9162C145.446 102.238 146.69 102.221 145.96 101.102C145.747 100.776 145.193 99.8702 145.197 99.9162ZM146.563 100.153C146.558 100.107 147.113 101.012 147.324 101.338C148.056 102.457 146.811 102.472 146.563 100.153ZM145.954 104.405C146.203 106.724 147.447 106.71 146.715 105.591C146.504 105.264 145.95 104.359 145.954 104.405ZM148.085 105.509C148.334 107.828 149.579 107.814 148.847 106.695C148.633 106.371 148.079 105.465 148.085 105.509ZM146.799 107.849C146.791 107.774 147.7 109.261 148.05 109.795C149.248 111.633 147.207 111.66 146.799 107.849ZM149.413 109.18C150.114 112.71 152.153 111.882 150.815 110.573C150.424 110.192 149.399 109.111 149.413 109.18ZM150.698 114.272C151.398 117.803 153.437 116.975 152.097 115.665C151.708 115.283 150.683 114.201 150.698 114.272ZM152.526 111.907C152.505 111.848 153.636 112.317 154.063 112.468C155.529 112.978 153.594 114.879 152.526 111.907ZM154.349 118.891C154.328 118.832 155.458 119.301 155.885 119.451C157.353 119.964 155.416 121.863 154.349 118.891ZM165.66 115.492C166.729 118.464 168.664 116.565 167.195 116.052C166.769 115.904 165.639 115.433 165.66 115.492ZM157.719 119.464C157.692 119.386 159.2 120.012 159.771 120.212C161.728 120.896 159.143 123.433 157.719 119.464ZM153.808 115.358C153.778 115.279 155.288 115.906 155.859 116.105C157.819 116.791 155.234 119.328 153.808 115.358Z" fill="#F47A60"/>
<path fill-rule="evenodd" clip-rule="evenodd" d="M170.379 44.0414C159.442 46.5428 151.35 55.2582 145.247 64.0886C157.043 73.5319 147.356 81.0237 137.91 85.8363C127.829 90.971 95.5568 103.29 74.5432 89.4505C67.7813 84.9976 82.3446 85.2507 82.8612 85.2863C82.6207 85.2883 53.5966 83.5816 76.8941 80.7476C86.9857 79.5199 74.127 81.2141 67.8963 79.5095C65.6438 78.8946 77.8416 77.5999 75.886 76.9829C73.4786 76.2216 66.2754 79.4195 65.6961 77.8111C65.673 77.7505 100.857 62.4761 118.821 55.6744C133.34 50.1779 146.948 41.4834 170.379 44.0414Z" fill="#E3781F"/>
<path fill-rule="evenodd" clip-rule="evenodd" d="M75.5116 88.2204C77.3667 90.1781 96.3536 86.6476 97.826 85.5496C88.5689 88.8353 74.2336 85.0643 75.5116 88.2204Z" fill="#CEB993"/>
<path fill-rule="evenodd" clip-rule="evenodd" d="M79.1548 93.4701C82.1729 96.6555 113.067 90.9101 115.464 89.126C100.401 94.4698 77.0758 88.3375 79.1548 93.4701Z" fill="#CEB993"/>
<path fill-rule="evenodd" clip-rule="evenodd" d="M73.5934 83.5853C76.8688 86.5051 107.173 78.1892 109.409 76.2085C94.8475 82.7989 71.0899 78.643 73.5934 83.5853Z" fill="#CEB993"/>
<path fill-rule="evenodd" clip-rule="evenodd" d="M73.7777 79.4717C75.6601 81.1512 93.0762 76.37 94.3625 75.2322C85.9922 79.0199 72.3387 76.6335 73.7777 79.4717Z" fill="#CEB993"/>
<path fill-rule="evenodd" clip-rule="evenodd" d="M68.6744 76.5183C70.5567 78.1978 87.6486 74.6694 90.1689 73.7888C83.6183 74.4142 67.2354 73.6801 68.6744 76.5183Z" fill="#CEB993"/>
<path fill-rule="evenodd" clip-rule="evenodd" d="M130.609 83.0187C128.153 85.9133 124.7 84.0122 127.584 83.5374C128.423 83.3993 130.657 82.9601 130.609 83.0187ZM118.873 86.1811C116.608 87.6744 114.535 85.4114 116.652 85.7941C117.267 85.9071 118.919 86.1518 118.873 86.1811ZM124.732 85.5243C124.767 85.4825 123.096 85.8088 122.466 85.9134C120.306 86.2668 122.891 87.6912 124.732 85.5243ZM123.012 83.8616C123.06 83.8051 120.829 84.2422 119.988 84.3803C117.104 84.855 120.557 86.7562 123.012 83.8616ZM148.916 71.4985C148.32 73.199 146.536 73.1697 147.699 72.3582C148.037 72.1218 148.928 71.4651 148.916 71.4985ZM146.931 71.6533C146.944 71.6199 146.053 72.2766 145.714 72.5129C144.551 73.3244 146.335 73.3537 146.931 71.6533ZM147.368 74.7843C146.772 76.4847 144.988 76.4555 146.151 75.6439C146.492 75.4076 147.381 74.7509 147.368 74.7843ZM144.197 75.5645C143.601 77.2649 141.817 77.2356 142.98 76.4241C143.319 76.1878 144.208 75.531 144.197 75.5645ZM145.806 77.3025C145.825 77.2482 144.365 78.3253 143.808 78.7143C141.897 80.0445 144.827 80.0947 145.806 77.3025ZM141.911 78.2416C140.544 80.8247 137.699 80.1868 139.757 79.2435C140.357 78.9695 141.939 78.1893 141.911 78.2416ZM139.546 81.9625C138.178 84.5455 135.334 83.9076 137.392 82.9643C137.992 82.6903 139.573 81.9102 139.546 81.9625ZM137.162 80.1972C137.197 80.1554 135.526 80.4816 134.896 80.5862C132.738 80.9418 135.323 82.3661 137.162 80.1972ZM133.828 85.3005C133.863 85.2587 132.192 85.585 131.563 85.6896C129.404 86.0451 131.989 87.4674 133.828 85.3005ZM117.928 82.6401C116.089 84.8069 113.502 83.3847 115.665 83.0291C116.292 82.9267 117.963 82.5983 117.928 82.6401ZM128.929 85.6728C128.977 85.6164 126.744 86.0535 125.905 86.1915C123.021 86.6663 126.474 88.5675 128.929 85.6728ZM134.968 82.7154C135.016 82.6589 132.784 83.0961 131.943 83.2341C129.057 83.7089 132.512 85.608 134.968 82.7154Z" fill="#9C5A3B"/>
<path fill-rule="evenodd" clip-rule="evenodd" d="M176.321 47.7767C174.922 43.6627 171.318 44.9762 173.763 46.3315C174.476 46.7268 176.35 47.8583 176.321 47.7767ZM166.712 40.8015C165.098 38.4046 162.63 40.5296 164.623 40.653C165.202 40.6885 166.744 40.8496 166.712 40.8015ZM171.761 43.1879C170.713 40.1071 168.013 41.0901 169.845 42.1045C170.377 42.4015 171.78 43.2485 171.761 43.1879ZM169.77 44.6959C169.797 44.7774 167.923 43.6438 167.212 43.2506C164.767 41.8932 168.371 40.5798 169.77 44.6959ZM189.512 66.4896C189.445 64.3039 187.845 63.8501 188.661 65.1342C188.899 65.5086 189.514 66.5335 189.512 66.4896ZM187.782 65.7638C187.715 63.5782 186.115 63.1243 186.931 64.4085C187.169 64.7808 187.782 65.8056 187.782 65.7638ZM189.031 62.1601C188.964 59.9745 187.364 59.5206 188.18 60.8048C188.418 61.1792 189.031 62.204 189.031 62.1601ZM186.412 60.3635C186.345 58.1779 184.745 57.724 185.561 59.0082C185.8 59.3805 186.414 60.4053 186.412 60.3635ZM188.324 58.7384C188.326 58.8095 187.318 57.1258 186.927 56.513C185.586 54.4047 188.215 55.1493 188.324 58.7384ZM185.105 56.5548C184.591 53.108 181.876 53.0892 183.457 54.7729C183.917 55.2623 185.116 56.6218 185.105 56.5548ZM184.013 51.4829C183.499 48.0361 180.784 48.0172 182.365 49.7009C182.823 50.1903 184.024 51.5498 184.013 51.4829ZM181.401 52.926C181.422 52.9867 180.019 52.1396 179.485 51.8426C177.653 50.8303 180.353 49.8473 181.401 52.926ZM179.822 45.9466C179.843 46.0073 178.439 45.1581 177.906 44.8632C176.076 43.8488 178.774 42.8658 179.822 45.9466ZM164.897 44.7523C163.849 41.6715 161.149 42.6546 162.981 43.6689C163.514 43.9638 164.918 44.813 164.897 44.7523ZM175.551 44.1625C175.578 44.2441 173.704 43.1105 172.993 42.7173C170.546 41.362 174.152 40.0485 175.551 44.1625ZM180.129 49.3328C180.157 49.4144 178.283 48.2807 177.571 47.8875C175.126 46.5322 178.73 45.2188 180.129 49.3328Z" fill="#DFCAA6"/>
<path fill-rule="evenodd" clip-rule="evenodd" d="M180.514 100.811C184.279 97.8539 181.401 95.1893 180.983 97.9313C180.862 98.7281 180.441 100.87 180.514 100.811ZM183.905 89.3497C185.768 86.9152 182.503 85.5996 183.198 87.4276C183.401 87.9568 183.869 89.3978 183.905 89.3497ZM183.474 94.84C186.293 92.6251 184.137 90.6298 183.825 92.6836C183.733 93.2797 183.42 94.8839 183.474 94.84ZM181.06 93.6938C180.987 93.7524 181.407 91.6128 181.529 90.8138C181.947 88.0718 184.827 90.7364 181.06 93.6938ZM166.213 120.342C168.494 119.374 168.31 117.759 167.292 119.02C166.995 119.386 166.167 120.361 166.213 120.342ZM166.263 118.497C166.219 118.516 167.047 117.544 167.342 117.175C168.361 115.916 168.542 117.531 166.263 118.497ZM170.586 118.112C172.866 117.144 172.684 115.529 171.665 116.791C171.368 117.159 170.54 118.131 170.586 118.112ZM171.4 115.034C173.679 114.065 173.497 112.451 172.479 113.712C172.184 114.078 171.356 115.052 171.4 115.034ZM173.907 116.061C177.651 114.473 177.35 111.821 175.679 113.892C175.194 114.494 173.834 116.092 173.907 116.061ZM174.882 112.285C174.815 112.323 175.754 110.69 176.082 110.077C177.206 107.968 178.308 110.395 174.882 112.285ZM179.787 109.202C183.215 107.312 182.11 104.886 180.987 106.994C180.659 107.607 179.718 109.24 179.787 109.202ZM177.181 107.477C177.124 107.521 177.44 105.919 177.532 105.321C177.844 103.267 180 105.262 177.181 107.477ZM183.898 103.168C183.842 103.212 184.158 101.61 184.25 101.012C184.564 98.9582 186.72 100.954 183.898 103.168ZM178.981 89.3748C181.801 87.1599 179.644 85.1646 179.333 87.2185C179.241 87.8146 178.927 89.4187 178.981 89.3748ZM184.016 98.6215C183.942 98.68 184.363 96.5404 184.484 95.7414C184.902 92.9995 187.782 95.6641 184.016 98.6215ZM180.45 104.85C180.376 104.909 180.797 102.769 180.918 101.97C181.336 99.228 184.216 101.893 180.45 104.85Z" fill="#F47A60"/>
<path fill-rule="evenodd" clip-rule="evenodd" d="M107.573 106.433C103.153 104.593 104.797 102.376 106.138 104.357C106.529 104.932 107.66 106.469 107.573 106.433ZM100.495 98.3016C97.9662 96.6765 100.432 95.4174 100.451 96.8229C100.459 97.2328 100.545 98.333 100.495 98.3016ZM102.816 102.303C99.5077 100.924 100.737 99.2637 101.741 100.747C102.034 101.18 102.881 102.33 102.816 102.303ZM104.578 101.244C104.665 101.28 103.534 99.7427 103.143 99.1675C101.802 97.1868 100.158 99.4038 104.578 101.244ZM127.281 119.529C124.895 119.02 124.491 117.816 125.848 118.652C126.244 118.897 127.329 119.539 127.281 119.529ZM126.587 118.177C126.633 118.188 125.547 117.546 125.154 117.301C123.797 116.464 124.2 117.669 126.587 118.177ZM122.573 118.278C120.187 117.77 119.783 116.565 121.14 117.401C121.536 117.646 122.621 118.288 122.573 118.278ZM120.758 116.086C118.371 115.578 117.967 114.373 119.325 115.209C119.72 115.452 120.806 116.094 120.758 116.086ZM118.871 117.065C118.948 117.081 117.166 116.027 116.518 115.628C114.288 114.252 114.954 116.228 118.871 117.065ZM116.669 114.373C112.929 113.287 113.063 111.403 114.813 112.854C115.322 113.277 116.742 114.394 116.669 114.373ZM111.183 112.543C107.443 111.457 107.577 109.573 109.327 111.024C109.838 111.447 111.256 112.564 111.183 112.543ZM112.912 111.041C112.977 111.068 112.13 109.918 111.837 109.485C110.835 108.002 109.603 109.663 112.912 111.041ZM105.368 108.469C105.433 108.496 104.586 107.345 104.293 106.914C103.289 105.43 102.059 107.09 105.368 108.469ZM104.921 97.8812C101.612 96.5029 102.842 94.8422 103.845 96.3272C104.14 96.758 104.987 97.9084 104.921 97.8812ZM103.661 105.133C103.749 105.168 102.618 103.631 102.227 103.056C100.886 101.075 99.242 103.292 103.661 105.133ZM109.053 109.399C109.141 109.435 108.01 107.898 107.619 107.322C106.28 105.342 104.636 107.559 109.053 109.399Z" fill="#7B7463"/>
<path fill-rule="evenodd" clip-rule="evenodd" d="M119.689 105.89C119.689 105.89 120.536 120.61 122.447 127.503C125.459 138.373 130.489 143.562 131.169 144.119C137.897 141.224 135.122 143.52 131.669 145.905C131.094 146.302 136.097 146.601 136.17 148.22C136.218 149.308 131.213 146.879 131.006 146.676C130.715 146.394 133.541 151.761 132.809 152.7C131.525 151.573 129.347 146.553 129.247 146.076C129.073 145.26 124.24 141.523 121.19 134.075C117.342 124.672 115.156 111.183 115.614 110.568C115.646 110.527 116.602 113.421 117.25 112.731C117.532 112.43 116.869 108.627 117.204 108.709C117.612 108.807 118.099 111.997 118.528 111.771C118.925 111.56 117.681 106.335 117.825 106.906C119.295 112.792 119.762 109.477 119.689 105.89Z" fill="#522626"/>
</svg>
