<svg width="285" height="190" viewBox="0 0 285 190" fill="none" xmlns="http://www.w3.org/2000/svg">
<rect width="285" height="190" fill="#FFE8CC"/>
<path opacity="0.68" d="M181.145 162.599C181.421 162.723 181.691 162.853 181.966 162.988C182.777 163.388 183.647 163.88 183.971 164.755C184.625 166.511 182.707 168.095 181.031 168.776C176.563 170.586 171.726 171.115 166.949 171.461C147.636 172.866 128.15 171.596 109.156 167.695C107.049 167.263 104.53 166.371 104.158 164.155C103.693 161.4 106.913 159.703 109.518 159.081C123.438 155.758 136.937 157.104 150.965 157.574C161.102 157.914 171.732 158.26 181.145 162.599Z" fill="#D3CDA1"/>
<path d="M173.185 163.448C172.002 160.703 172.256 157.558 172.321 154.548C172.58 142.243 169.143 129.879 162.626 119.639C161.578 117.991 160.389 116.122 160.811 114.192C160.983 113.398 161.416 112.701 161.859 112.031C163.912 108.945 166.382 106.162 169.17 103.796C169.97 113.922 173.428 123.595 175.136 133.597C176.557 141.908 176.762 150.392 176.649 158.833C176.633 160.011 176.595 161.248 176.033 162.27C175.466 163.28 174.19 163.972 173.185 163.448Z" fill="#A55520"/>
<path d="M173.083 163.485C172.996 163.394 172.92 163.291 172.85 163.161C172.558 162.621 172.564 162.016 172.521 161.421C172.472 160.713 172.358 160.005 172.304 159.298C172.185 157.86 172.121 156.417 172.083 154.98C172.002 152.094 172.007 149.203 171.813 146.323C171.748 145.372 171.661 144.426 171.542 143.481C171.418 142.492 171.224 141.319 171.807 140.438C172.137 139.941 172.769 139.698 173.326 139.844C173.882 139.99 174.325 140.525 174.39 141.125C174.201 139.428 175.06 137.645 175.493 136.051C175.838 137.504 176.017 138.99 176.173 140.482C176.811 146.626 177.022 152.818 176.806 158.995C176.752 160.47 176.611 162.21 175.487 163.253C174.828 163.875 173.731 164.166 173.083 163.485Z" fill="#34343F"/>
<path d="M138.288 118.926C140.276 132.365 139.082 146.307 134.845 159.168C134.683 159.66 134.483 160.195 134.04 160.438C133.365 160.816 132.489 160.232 132.225 159.481C131.96 158.725 132.122 157.893 132.273 157.104C134.662 144.74 134.3 131.139 127.875 120.466C131.306 119.683 134.786 119.164 138.288 118.926Z" fill="#A55520"/>
<path d="M138.909 139.542C138.812 140.736 138.671 141.908 138.531 143.092C138.207 145.804 137.769 148.501 137.174 151.165C136.569 153.872 135.651 156.428 134.845 159.065C134.689 159.584 134.548 160.162 134.04 160.443C133.365 160.822 132.489 160.238 132.225 159.487C131.96 158.73 132.122 157.898 132.273 157.109C132.76 154.591 133.127 152.046 133.359 149.484C133.473 148.198 133.554 146.912 133.597 145.626C133.597 144.513 133.57 143.4 133.57 142.281C133.57 142.211 133.581 142.125 133.64 142.092C133.667 142.076 133.694 142.081 133.727 142.081C134.3 142.092 134.808 141.946 135.386 142.103C135.975 142.265 136.656 142.611 136.704 143.248C137.077 142.551 137.461 141.865 137.855 141.184C138.05 140.849 138.234 140.503 138.45 140.185C138.547 140.017 138.893 139.72 138.909 139.542Z" fill="#34343F"/>
<path d="M108.762 162.934C112.901 156.455 114.997 147.966 116.181 140.341C117.478 131.971 117.294 123.341 115.565 115.062C114.322 113.744 113.22 112.269 112.317 110.599C111.788 109.626 111.301 108.491 110.874 107.259C108.843 101.38 108.259 93.1988 111.912 88.7785C116.051 83.7692 123.373 84.4555 128.701 86.6764C131.657 87.9085 134.338 89.8106 137.342 90.9184C143.983 93.3717 149.274 89.3189 150.333 82.2129C150.792 79.122 150.192 76.1823 150.079 73.1238C153.51 72.0701 159.373 74.0262 162.74 75.0043C164.615 75.5501 166.587 75.7176 168.489 76.2039C168.727 76.2634 168.97 76.3336 169.154 76.5011C169.327 76.6633 169.413 76.8956 169.494 77.1226C172.666 85.8875 172.85 96.7706 170.564 105.822C168.295 114.814 162.74 120.255 155.25 122.855C155.32 123.854 155.401 124.724 155.434 125.319C156.196 139.606 155.018 155.882 150.3 169.397C150.144 169.84 149.976 170.3 149.668 170.645C148.285 172.186 146.896 171.029 146.523 169.603C146.074 167.89 146.977 164.761 147.107 162.956C147.415 158.703 147.609 154.229 147.706 150.095C147.858 143.665 146.793 137.553 145.458 131.29C144.988 129.096 144.41 126.924 143.848 124.751C139.531 124.913 135.186 124.584 130.993 123.471C129.469 123.065 127.945 122.579 126.443 122.006C124.908 134.705 121.731 147.199 116.154 158.557C115.224 160.449 114.452 162.94 112.571 164.031C111.22 164.826 110.242 164.636 108.988 163.864C108.816 163.756 108.621 163.621 108.594 163.41C108.572 163.242 108.67 163.08 108.762 162.934Z" fill="#BA7D4A"/>
<path d="M108.556 163.005C108.621 162.853 108.713 162.713 108.799 162.578C109.718 161.162 110.523 159.665 111.231 158.125C112.312 155.78 113.166 153.332 113.895 150.841C114.576 148.512 115.403 146.01 115.608 143.589C115.759 141.768 116.429 136.478 119.196 138.569C119.601 138.871 119.872 139.331 120.131 139.774C120.325 140.103 120.52 140.433 120.715 140.757C120.655 140.655 121.563 139.39 121.66 139.228C121.99 138.693 122.309 138.153 122.633 137.612C123.071 136.877 123.497 136.132 124.13 135.553C123.465 139.585 122.228 143.378 120.833 147.182C120.358 148.49 119.92 149.814 119.423 151.116C118.434 153.699 117.337 156.239 116.121 158.714C115.192 160.605 114.419 163.096 112.539 164.188C111.788 164.631 110.966 164.831 110.123 164.577C109.615 164.426 108.394 164.02 108.475 163.302C108.48 163.199 108.513 163.102 108.556 163.005Z" fill="#34343F"/>
<path d="M146.464 167.349C146.62 165.825 147.026 164.118 147.107 162.956C147.415 158.703 147.609 154.229 147.706 150.095C147.771 147.415 146.982 144.308 148.944 142.141C149.268 141.784 149.625 141.406 150.084 141.303C150.543 141.2 151.03 141.389 151.392 141.703C151.759 142.011 152.029 142.427 152.289 142.832C153.013 142.07 153.667 141.233 154.24 140.341C154.467 139.99 154.726 139.655 154.926 139.293C155.072 139.028 155.553 138.309 155.526 138.007C155.731 140.584 155.353 143.265 155.191 145.837C155.034 148.295 154.677 150.743 154.299 153.186C153.445 158.703 152.121 164.15 150.289 169.403C150.133 169.846 149.965 170.305 149.657 170.651C148.274 172.191 146.885 171.035 146.512 169.608C146.366 168.997 146.377 168.203 146.464 167.349Z" fill="#34343F"/>
<path d="M126.68 122.093C126.588 122.049 126.502 122.001 126.416 121.958C126.464 121.028 126.502 120.099 126.588 119.164C126.626 118.71 127.221 114.814 126.999 114.689C129.236 115.976 131.727 116.997 134.246 117.435C136.872 117.894 139.601 117.759 142.162 116.991C142.697 118.386 143.14 119.818 143.481 121.277C143.616 121.86 144.502 124.876 143.729 124.865C137.926 124.811 131.906 124.692 126.68 122.093Z" fill="#D6BAA1"/>
<path d="M155.32 122.844C155.369 119.926 154.915 117.094 155.677 114.187C156.061 112.722 156.671 111.339 157.174 109.913C158.86 105.109 159.233 99.8615 158.649 94.7766C158.098 89.9726 156.704 85.266 156.617 80.4296C156.59 78.9598 156.698 77.4305 157.39 76.1552C158.843 73.475 160.594 74.5395 162.745 75.1609C164.62 75.7067 166.592 75.8742 168.495 76.3606C168.732 76.42 168.976 76.4903 169.159 76.6578C169.332 76.8199 169.419 77.0523 169.5 77.2792C172.672 86.0441 172.855 96.9273 170.57 105.979C169.586 109.869 167.733 113.506 165.117 116.462C162.599 119.31 158.989 122.076 155.32 122.957C155.315 122.919 155.315 122.882 155.32 122.844Z" fill="#D6BAA1"/>
<path opacity="0.31" d="M146.42 168.587C146.636 167.225 147.782 166.15 148.452 164.874C149.328 163.215 149.987 161.443 150.484 159.627C151.5 155.926 151.846 152.046 151.921 148.209C152.089 139.552 151.046 130.922 149.998 122.33C149.587 118.942 149.176 115.554 148.76 112.166C149.987 112.377 151.23 111.663 152.019 110.653C152.802 109.642 153.213 108.373 153.553 107.119C155.369 100.461 155.709 91.3453 152.089 85.2606C151.624 84.4771 150.911 83.6557 150.035 83.7692C150.835 80.273 150.246 76.4525 148.436 73.4048C152.418 71.1622 158.741 74.0532 162.696 75.1988C164.572 75.7446 166.544 75.9121 168.446 76.3985C168.684 76.4579 168.927 76.5282 169.111 76.6957C169.284 76.8578 169.37 77.0901 169.451 77.3171C172.623 86.082 172.807 96.9652 170.521 106.016C168.251 115.008 162.696 120.45 155.207 123.049C155.277 124.049 155.358 124.919 155.391 125.513C156.152 139.801 154.974 156.077 150.257 169.592C150.1 170.035 149.933 170.494 149.625 170.84C148.241 172.38 146.853 171.224 146.48 169.797C146.372 169.365 146.361 168.965 146.42 168.587Z" fill="#BA7D4A"/>
<path opacity="0.31" d="M108.724 163.177C109.534 161.854 110.237 160.47 111.096 159.184C111.139 159.481 111.177 159.784 111.22 160.081C113.798 158.962 115.262 156.131 116.311 153.429C118.083 148.874 119.272 144.091 120.336 139.298C122.703 128.647 124.481 117.716 123.697 106.811C128.183 111.653 134.651 114.549 141.125 113.636C142.513 117.305 143.546 121.12 144.205 125C139.714 124.6 135.418 124.897 130.955 123.714C129.431 123.308 127.907 122.822 126.405 122.249C124.87 134.948 121.693 147.442 116.116 158.8C115.187 160.692 114.414 163.183 112.533 164.274C111.182 165.069 110.204 164.88 108.951 164.107C108.778 163.999 108.583 163.864 108.556 163.653C108.535 163.485 108.632 163.323 108.724 163.177Z" fill="#BA7D4A"/>
<path d="M183.885 54.7131C183.771 51.2061 182.388 47.6018 180.756 44.446C178.319 39.7447 175.249 35.1245 174.823 29.7964C168.83 38.1182 165.874 48.7852 166.69 59.1712C169.078 56.8963 183.004 59.7657 183.009 59.744C183.685 58.1337 183.939 56.4369 183.885 54.7131Z" fill="#BA7D4A"/>
<path d="M180.351 58.7713C181.345 55.3129 180.545 51.5464 179.183 48.2285C177.822 44.9106 175.92 41.8575 174.563 38.5342C175.033 39.6906 171.802 45.4726 171.413 46.8992C170.397 50.644 170.137 54.6158 170.689 58.4687C171.964 57.4473 180.437 58.4579 180.351 58.7713Z" fill="#A55520"/>
<path d="M156.839 59.5333C157.131 59.4738 157.358 59.4522 157.595 59.2685C158.363 58.6795 155.261 52.2274 154.839 51.433C153.483 48.8771 151.721 46.7264 149.868 44.5594C146.123 40.1824 141.238 36.7078 138.796 31.2122C134.3 40.9119 131.295 53.6378 136.218 63.7914C136.904 65.2018 137.953 66.6824 139.46 66.8121C140.806 66.9256 141.973 65.9259 143.043 65.0559C145.259 63.2565 147.852 61.5975 150.538 60.7005C151.132 60.4951 155.131 59.8791 156.839 59.5333Z" fill="#BA7D4A"/>
<path d="M153.294 59.8305C153.964 59.209 153.937 58.1121 153.737 57.2042C152.916 53.4378 150.198 50.4711 147.393 47.9638C144.588 45.4565 141.524 43.1274 139.563 39.8582C139.277 42.1115 138.996 44.3595 138.709 46.6129C138.369 49.2931 138.034 51.9842 138.158 54.6861C138.325 58.2796 139.336 61.8244 141.076 64.9262C144.053 62.4297 147.717 60.8464 151.511 60.4087C152.143 60.3276 152.818 60.2682 153.294 59.8305Z" fill="#A55520"/>
<path d="M134.84 66.877C138.552 65.9854 141.606 63.3105 144.951 61.403C148.512 59.3766 152.462 58.2039 156.434 57.3447C166.122 55.2481 177.033 54.6807 185.689 60.533C187.224 61.5705 188.721 62.8025 190.52 63.1646C192.32 63.5266 194.157 62.9593 195.908 62.3919C195.233 63.8076 194.714 65.4558 193.714 66.6554C194.849 66.4231 195.94 65.9529 196.902 65.2721C195.876 69.8977 191.601 75.3609 187.359 77.1171C189.407 80.6458 192.271 83.7259 195.378 86.2603C191.477 89.7781 186.014 90.9075 180.886 90.4212C175.763 89.9348 170.872 88.0003 166.095 85.9955C161.318 83.9907 156.525 81.8724 151.446 80.997C144.821 79.8568 137.872 79.9541 132.268 75.4528C130.776 74.2585 129.588 72.5023 129.463 70.5407C130.241 70.5624 131.02 70.4759 131.771 70.2706C130.177 70.3192 128.572 69.9463 127.151 69.1898C129.155 67.2931 132.203 67.5092 134.84 66.877Z" fill="#BA7D4A"/>
<path opacity="0.31" d="M134.84 66.8986C138.552 66.007 141.606 63.3321 144.951 61.4246C148.512 59.3982 152.462 58.2255 156.434 57.3663C166.122 55.2697 177.033 54.7023 185.689 60.5546C187.224 61.5921 188.721 62.8242 190.52 63.1862C191.201 63.3213 191.72 63.3753 192.374 63.6401C183.82 65.0559 175.703 57.5231 167.117 58.6849C169.392 60.2628 171.213 62.554 172.288 65.1856C171.072 64.0562 169.657 63.1592 168.133 62.5702C169.262 64.094 169.927 65.9908 170.002 67.9199C168.343 65.8665 166.312 64.2832 164.528 62.3919C162.918 60.6843 160.794 59.8413 158.503 59.8521C157.066 59.8575 155.634 59.8629 154.267 60.3816C149.522 62.1811 145.658 65.9475 140.979 67.9307C137.758 69.2979 134.192 69.768 130.744 69.2816C132.63 69.0709 134.5 68.7359 136.342 68.2819C133.462 67.9037 130.522 68.0658 127.691 68.7467C128.015 68.7467 128.637 68.1793 128.95 68.0442C129.577 67.7848 130.258 67.6713 130.917 67.547C132.225 67.3039 133.549 67.2066 134.84 66.8986Z" fill="#BA7D4A"/>
<path d="M183.744 70.7515C185.441 71.7457 189.083 70.7731 190.661 70.1787C191.958 69.6923 193.168 68.9628 194.276 68.1198C194.854 67.6821 195.378 67.1417 195.849 66.5852C196.167 66.2069 196.924 65.4666 197.005 64.9586C196.578 67.6659 195.324 70.1895 193.617 72.2699C192.693 73.3939 191.639 74.3936 190.504 75.2744C190.131 75.5662 187.478 77.6466 187.186 77.2468C186.414 76.2038 185.522 75.242 184.863 74.118C184.528 73.5506 184.236 72.9508 183.987 72.3348C183.809 71.897 183.679 70.7893 183.377 70.4759C183.485 70.5785 183.609 70.6704 183.744 70.7515Z" fill="#D6BAA1"/>
<path d="M135.256 71.4702C135.986 71.4 136.71 71.3243 137.439 71.2865C145.523 70.8488 153.283 74.4909 160.319 78.6842C164.075 80.9214 167.679 83.4287 171.467 85.6118C175.206 87.7679 179.346 89.9511 183.652 90.378C180.162 91.1777 176.768 89.9727 173.466 88.9189C169.938 87.795 166.463 86.498 163.048 85.0336C161.729 84.4662 160.416 83.8772 159.081 83.3531C157.093 82.5749 155.05 81.9427 152.97 81.4726C149.636 80.716 146.199 80.5539 142.832 80.0135C139.504 79.4786 136.245 79.0571 133.387 76.9928C131.43 75.577 130.058 73.5398 129.436 71.1298C131.058 72.3618 133.462 71.6485 135.256 71.4702Z" fill="#D6BAA1"/>
<path d="M181.129 90.4104C181.41 90.2969 181.696 90.1456 181.837 90.0753C182.269 89.8754 182.588 89.5728 182.874 89.1675C183.75 87.9301 183.95 86.4278 184.944 85.2444C185.857 84.1582 187.078 83.3368 188.435 83.0396C189.786 82.7424 191.153 83.0775 192.363 83.7259C192.963 84.0502 193.53 84.4446 194.071 84.8715C194.384 85.1201 195.427 85.7577 195.4 86.2063C195.389 86.3522 195.324 86.4872 195.249 86.6115C194.422 88.0381 192.979 88.9297 191.531 89.6268C190.72 90.0213 189.883 90.3725 189.024 90.6103C186.927 91.1993 184.717 91.1345 182.555 90.9345C181.853 90.8697 181.14 90.7886 180.486 90.5076C180.621 90.5833 180.875 90.513 181.129 90.4104Z" fill="#34343F"/>
<path d="M190.574 81.5751C190.574 81.5751 190.364 81.3914 190.007 81.0618C189.65 80.7268 189.153 80.2404 188.586 79.619C188.018 79.003 187.392 78.2518 186.759 77.4143C186.122 76.5767 185.5 75.6472 184.911 74.6962C184.62 74.2152 184.344 73.7289 184.079 73.2479C183.809 72.767 183.577 72.2699 183.36 71.7835C182.934 70.8109 182.653 69.8328 182.561 68.979C182.507 68.5521 182.512 68.1576 182.539 67.8064C182.566 67.4605 182.626 67.1633 182.69 66.9201C182.75 66.6824 182.825 66.4987 182.879 66.3798C182.928 66.2609 182.955 66.196 182.955 66.196C182.955 66.196 182.944 66.2663 182.923 66.396C182.896 66.5257 182.874 66.7148 182.852 66.9526C182.82 67.4281 182.831 68.1144 183.025 68.8979C183.209 69.6815 183.555 70.5677 184.014 71.4755C184.474 72.3779 185.041 73.329 185.614 74.2639C186.176 75.2095 186.781 76.1281 187.348 76.9928C187.921 77.8519 188.472 78.6463 188.948 79.3218C189.926 80.6727 190.574 81.5751 190.574 81.5751Z" fill="#72391D"/>
<path d="M173.92 88.9621C173.92 88.9621 173.461 88.8595 172.661 88.6487C171.861 88.4326 170.721 88.1354 169.365 87.7247C168.008 87.3194 166.436 86.806 164.761 86.2278C163.086 85.655 161.313 84.9958 159.552 84.3311C158.665 83.9961 157.785 83.6016 156.942 83.2287C156.093 82.8559 155.272 82.4722 154.456 82.1588C153.64 81.84 152.856 81.586 152.073 81.3861C151.3 81.1861 150.554 81.0186 149.868 80.8835C148.49 80.6241 147.323 80.4728 146.501 80.4134C145.68 80.3431 145.21 80.3161 145.21 80.3161C145.21 80.3161 145.68 80.2675 146.507 80.2513C147.334 80.2459 148.522 80.2459 149.944 80.4134C150.652 80.4944 151.413 80.6133 152.224 80.7808C153.018 80.9429 153.878 81.1645 154.721 81.4725C155.564 81.7751 156.423 82.121 157.271 82.4938C158.13 82.8667 158.973 83.2287 159.854 83.553C166.884 86.2603 173.92 88.9621 173.92 88.9621Z" fill="#72391D"/>
<path d="M181.112 69.6058C181.112 69.6058 181.096 69.5626 181.069 69.4869C181.048 69.4059 180.994 69.2924 180.945 69.1627C180.826 68.8925 180.648 68.5413 180.367 68.1792C180.097 67.8172 179.734 67.4335 179.318 67.012C179.205 66.8985 179.124 66.8175 179.037 66.7526C178.956 66.6932 178.886 66.6608 178.875 66.6662C178.87 66.6662 178.875 66.677 178.892 66.677H178.897H178.902L178.956 66.6716L178.897 66.6824C178.859 66.6878 178.881 66.6878 178.902 66.6878C178.919 66.6878 178.94 66.677 178.946 66.677C178.978 66.6716 178.962 66.6662 178.919 66.7256C178.816 66.8337 178.702 67.0498 178.584 67.3308C178.465 67.6118 178.351 67.8928 178.238 68.163C178.016 68.7304 177.811 69.2546 177.632 69.7085C177.443 70.1732 177.276 70.5677 177.146 70.8433C177.016 71.1189 176.925 71.2756 176.925 71.2756C176.925 71.2756 176.871 71.1027 176.816 70.8C176.757 70.4974 176.703 70.0651 176.681 69.5464C176.665 69.0276 176.698 68.417 176.816 67.7631C176.876 67.4443 176.962 67.0931 177.07 66.7634C177.173 66.4338 177.33 66.0231 177.665 65.6286C177.838 65.4341 178.092 65.2234 178.443 65.1099C178.486 65.0937 178.551 65.0829 178.605 65.0721C178.665 65.0612 178.724 65.0504 178.729 65.0558L178.789 65.0505L178.859 65.045H178.875H178.908L178.978 65.0505C179.162 65.0613 179.329 65.1099 179.475 65.1747C179.767 65.299 179.956 65.4773 180.107 65.6341C180.259 65.7962 180.378 65.9583 180.459 66.088C180.826 66.6391 181.112 67.239 181.242 67.7901C181.372 68.3413 181.339 68.8223 181.269 69.1303C181.237 69.2924 181.194 69.4059 181.161 69.4815C181.129 69.5626 181.112 69.6058 181.112 69.6058Z" fill="#563A32"/>
<path d="M161.216 72.8427C161.216 72.8427 161.124 72.6752 160.956 72.3834C160.794 72.1024 160.557 71.7133 160.243 71.2972C159.935 70.8811 159.541 70.438 159.087 70.0327C158.86 69.8274 158.611 69.6437 158.357 69.4653C158.233 69.3735 158.087 69.2978 157.968 69.2222C157.849 69.1519 157.741 69.1087 157.66 69.0871C157.579 69.0601 157.547 69.0709 157.574 69.0601C157.595 69.0493 157.579 69.0601 157.633 69.0222C157.574 69.0709 157.455 69.1573 157.493 69.1465C157.514 69.1195 157.417 69.2384 157.374 69.3411C157.314 69.4491 157.271 69.5842 157.222 69.7193C157.044 70.2759 156.936 70.9027 156.839 71.4323C156.741 71.9673 156.655 72.432 156.579 72.7616C156.509 73.0913 156.444 73.275 156.444 73.275C156.444 73.275 156.363 73.0967 156.25 72.7778C156.136 72.459 155.99 72.0051 155.877 71.4377C155.769 70.8703 155.688 70.1949 155.785 69.4005C155.812 69.2006 155.855 68.9898 155.931 68.7683C156.017 68.5413 156.077 68.336 156.331 68.0279C156.466 67.8604 156.504 67.8442 156.579 67.774C156.769 67.6064 156.92 67.5416 157.12 67.4768C157.503 67.3633 157.849 67.4119 158.119 67.4876C158.39 67.5686 158.617 67.6821 158.811 67.8064C159 67.9253 159.162 68.0441 159.324 68.1792C159.649 68.4386 159.935 68.7304 160.173 69.0385C160.654 69.6491 160.956 70.3083 161.119 70.8865C161.281 71.4701 161.302 71.9673 161.286 72.3131C161.286 72.4861 161.259 72.6157 161.248 72.7076C161.221 72.7941 161.216 72.8427 161.216 72.8427Z" fill="#563A32"/>
<path d="M155.482 131.701C155.482 131.701 155.445 131.366 155.38 130.777C155.326 130.188 155.185 129.361 155.077 128.35C155.023 127.842 154.969 127.291 154.953 126.702C154.937 126.118 154.926 125.508 154.931 124.876C154.92 123.611 154.937 122.266 154.953 120.915C154.969 120.239 154.98 119.564 154.996 118.899C155.007 118.234 155.061 117.575 155.104 116.937C155.201 115.668 155.38 114.484 155.601 113.484C155.812 112.485 156.093 111.674 156.288 111.118C156.379 110.837 156.482 110.626 156.542 110.48C156.601 110.334 156.633 110.258 156.633 110.258C156.633 110.258 156.563 110.588 156.439 111.166C156.309 111.739 156.185 112.571 156.066 113.566C155.953 114.565 155.871 115.727 155.828 116.981C155.785 118.234 155.785 119.569 155.774 120.925C155.742 122.271 155.709 123.622 155.65 124.886C155.618 125.519 155.59 126.129 155.563 126.707C155.542 127.275 155.542 127.821 155.542 128.323C155.558 129.328 155.547 130.182 155.531 130.771C155.52 131.366 155.482 131.701 155.482 131.701Z" fill="#72391D"/>
<path d="M145.421 131.063C145.421 131.063 145.107 130.009 144.702 128.426C144.502 127.631 144.275 126.713 144.026 125.719C143.783 124.73 143.524 123.676 143.27 122.622C142.757 120.509 142.243 118.402 141.854 116.819C141.665 116.024 141.508 115.36 141.395 114.895C141.292 114.425 141.233 114.16 141.233 114.16C141.233 114.16 141.724 115.143 142.308 116.678C142.605 117.445 142.913 118.348 143.221 119.331C143.367 119.823 143.529 120.326 143.664 120.85C143.799 121.369 143.94 121.898 144.075 122.428C144.194 122.963 144.313 123.492 144.432 124.022C144.551 124.546 144.637 125.07 144.74 125.573C144.923 126.583 145.069 127.529 145.167 128.339C145.383 129.966 145.421 131.063 145.421 131.063Z" fill="#72391D"/>
<path d="M125.724 126.178C125.724 126.178 125.735 125.951 125.767 125.562C125.8 125.173 125.843 124.622 125.897 123.952C125.951 123.287 126.016 122.514 126.081 121.687C126.145 120.861 126.226 119.974 126.307 119.094C126.356 118.651 126.399 118.207 126.448 117.775C126.491 117.337 126.556 116.911 126.605 116.5C126.718 115.673 126.842 114.9 126.978 114.241C127.237 112.923 127.518 112.069 127.518 112.069C127.518 112.069 127.518 112.296 127.507 112.685C127.491 113.074 127.475 113.63 127.448 114.3C127.421 114.965 127.383 115.743 127.329 116.575C127.28 117.408 127.205 118.294 127.129 119.18C127.08 119.623 127.032 120.066 126.978 120.504C126.929 120.942 126.859 121.369 126.799 121.785C126.67 122.611 126.524 123.384 126.362 124.038C126.21 124.692 126.048 125.232 125.924 125.605C125.805 125.967 125.724 126.178 125.724 126.178Z" fill="#72391D"/>
<path d="M94.6091 36.2485C94.1336 37.6751 93.5554 39.0693 93.1771 40.5337C91.9721 45.2187 92.4476 50.6711 90.3347 55.0644C88.3569 59.1659 84.65 62.1055 83.1747 66.515C81.9859 70.0706 82.3966 74.0748 83.7962 77.5441C85.9739 82.937 90.6427 87.9679 94.9982 91.5506C97.2569 93.4095 99.7427 94.9766 102.369 96.1978C103.023 96.5004 110.588 99.078 110.61 98.7862C110.826 95.1927 112.328 92.5557 114.079 89.6106C113.139 88.5029 111.912 88.1138 111.064 86.8601C110.107 85.4389 109.432 83.7584 108.999 82.0832C107.8 77.4252 107.621 72.6428 109.61 68.1901C111.08 64.8938 113.371 62.0731 115.862 59.5387C117.386 57.9878 119.007 56.518 120.282 54.7402C123.487 50.2929 124.216 44.1866 122.736 38.8369C121.968 36.0594 120.952 33.3305 118.813 31.4175C116.17 29.0561 112.793 27.6079 109.324 27.3539C105.86 27.0999 102.32 28.0456 99.3914 30.0017C98.2458 30.7691 97.1867 31.6877 96.3491 32.8117C95.5764 33.8492 95.0198 35.0164 94.6091 36.2485Z" fill="#BA7D4A"/>
<path opacity="0.31" d="M92.0098 36.6754C92.2314 37.3239 92.5448 37.9561 92.815 38.583C93.7822 40.8471 92.7988 42.0468 92.5124 44.2569C92.0368 47.9045 91.945 51.7519 90.3292 55.1023C88.3515 59.2037 84.6445 62.1434 83.1692 66.5528C81.9804 70.1085 82.3911 74.1127 83.7907 77.5819C85.9684 82.9749 90.6372 88.0058 94.9927 91.5885C97.2515 93.4474 99.7372 95.0145 102.363 96.2357C104.552 97.257 107 97.4894 109.172 98.4891C108.145 98.0136 110.528 91.9397 110.799 91.221C104.633 86.1955 101.445 77.4576 102.839 69.406C100.921 72.3997 99.975 76.0689 100.256 79.657C100.537 83.2451 102.055 86.7251 104.514 89.2487C102.034 86.8548 99.8236 84.0773 98.5159 80.8242C97.2028 77.5711 96.857 73.7993 98.0458 70.4976C96.2463 72.5672 95.4034 75.5123 95.8357 78.279C95.3277 77.463 95.0683 76.4958 94.9711 75.5285C94.609 71.9782 96.2896 68.509 98.4889 65.7855C100.688 63.0566 103.423 60.8627 105.762 58.2635C109.88 53.6865 112.793 46.2401 110.707 40.0258C108.734 34.1519 103.12 30.0991 97.1488 30.5584C95.8789 30.6556 94.5982 30.9799 93.5499 31.731C92.5015 32.4875 91.7234 33.725 91.7126 35.0543C91.7072 35.6163 91.8315 36.1513 92.0098 36.6754Z" fill="#BA7D4A"/>
<path d="M71 27.462C72.1024 30.4881 74.1126 33.0981 76.5443 35.0921C79.8838 37.8264 84.2446 38.745 87.5139 41.5874C89.1566 43.014 90.1455 44.6459 90.7616 46.8237C91.075 47.9368 91.2533 49.0932 91.2857 50.255C91.3019 50.7738 91.4478 53.1082 91.0101 53.427C92.1395 52.5949 93.1122 51.8437 93.8795 50.6117C94.328 49.8822 95.5007 47.8504 95.2034 46.9371C95.8897 49.05 96.576 51.1629 97.2623 53.2757C97.4406 53.8215 97.781 54.4754 98.3214 54.4051C98.5754 54.3727 98.7753 54.1728 98.9537 53.9836C101.65 51.0386 102.461 46.3697 100.937 42.6195C102.266 44.2461 103.693 45.7915 105.206 47.2289C105.919 47.9098 106.822 48.6177 107.762 48.3799C108.313 48.2394 108.751 47.7963 109.069 47.2992C109.945 45.9374 110.08 44.2082 110.01 42.5709C109.923 40.5553 109.567 38.5505 108.951 36.6376C110.955 38.2533 112.955 39.8636 114.96 41.4793C115.43 41.8576 115.965 42.2575 116.554 42.1926C117.272 42.1116 117.753 41.3767 118.024 40.6796C119.093 37.9237 118.526 34.8057 117.867 31.9147C118.51 32.3091 119.158 32.6982 119.801 33.0927C119.315 30.7204 117.024 28.8021 115.268 27.3863C113.301 25.803 111.074 24.5764 108.724 23.755C99.7102 20.6208 90.9723 23.3659 82.3965 26.4677C78.5274 27.8673 74.9664 29.7261 71 27.462Z" fill="#D6BAA1"/>
<path opacity="0.51" d="M71.0325 27.4728C71.3999 27.9969 71.5836 28.8778 71.8971 29.4722C72.2861 30.2071 72.7292 30.915 73.221 31.585C74.1775 32.8982 75.3068 34.0762 76.5497 35.0921C79.8892 37.8264 84.2501 38.745 87.5193 41.5874C89.1621 43.014 90.151 44.6459 90.767 46.8237C91.0804 47.9368 91.2587 49.0932 91.2912 50.255C91.3074 50.7738 91.4533 53.1082 91.0156 53.427C92.145 52.5949 93.1176 51.8437 93.885 50.6117C94.3335 49.8822 95.5061 47.8504 95.2089 46.9371C95.8952 49.05 96.5814 51.1629 97.2677 53.2757C97.4461 53.8215 97.7865 54.4754 98.3269 54.4051C98.5808 54.3727 98.7808 54.1728 98.9591 53.9836C101.656 51.0386 102.466 46.3697 100.942 42.6195C102.272 44.2461 103.698 45.7915 105.211 47.2289C105.925 47.9098 106.827 48.6177 107.767 48.3799C108.318 48.2394 108.756 47.7963 109.075 47.2992C109.95 45.9374 110.085 44.2082 110.015 42.5709C109.977 41.6631 109.929 40.7985 109.761 39.9068C109.469 38.3289 109.226 36.4809 108.027 35.319C104.919 32.2929 100.748 30.4178 96.5382 29.9693C91.7127 29.456 86.9033 30.7691 82.067 31.1635C80.0513 31.3257 78.0033 31.3257 76.0472 30.8015C74.091 30.2773 72.2267 29.1804 71.0325 27.4728Z" fill="#D6BAA1"/>
<path d="M234.989 89.3894C233.954 101.255 230.671 112.911 224.656 123.369C221.907 128.154 218.545 132.641 214.499 136.6" stroke="#96886B" stroke-width="1.8951" stroke-miterlimit="10" stroke-linecap="round"/>
<path d="M237.615 96.9745C236.228 97.6131 234.863 98.2965 233.528 99.017C232.567 97.4361 231.394 95.9509 230.034 94.6086" stroke="#96886B" stroke-width="1.8951" stroke-miterlimit="10" stroke-linecap="round"/>
<path d="M237.244 104.336C234.882 104.708 232.756 105.932 231.444 107.683C231.008 105.735 229.946 103.874 228.419 102.388" stroke="#96886B" stroke-width="1.8951" stroke-miterlimit="10" stroke-linecap="round"/>
<path d="M233.034 117.168C230.985 116.798 228.816 117.255 227.244 118.384C226.778 116.4 225.694 114.506 224.152 112.973" stroke="#96886B" stroke-width="1.8951" stroke-miterlimit="10" stroke-linecap="round"/>
<path d="M235.796 84.8124C236.158 83.4964 236.515 82.1783 236.875 80.8673" stroke="#BA7D4A" stroke-width="0.9476" stroke-miterlimit="10" stroke-linecap="round"/>
<path d="M234.406 84.4299C234.19 83.1271 233.982 81.8216 233.766 80.5188" stroke="#BA7D4A" stroke-width="0.9476" stroke-miterlimit="10" stroke-linecap="round"/>
<path d="M232.699 84.41C232.179 83.3046 231.652 82.202 231.132 81.0966" stroke="#BA7D4A" stroke-width="0.9476" stroke-miterlimit="10" stroke-linecap="round"/>
<path d="M227.815 90.3974C226.775 89.1473 225.73 87.895 224.687 86.6378" stroke="#BA7D4A" stroke-width="0.9476" stroke-miterlimit="10" stroke-linecap="round"/>
<path d="M226.24 91.278C225.247 90.3255 224.096 89.5047 222.838 88.8612" stroke="#BA7D4A" stroke-width="0.9476" stroke-miterlimit="10" stroke-linecap="round"/>
<path d="M225.788 92.5019C224.727 92.245 223.654 92.042 222.572 91.9" stroke="#BA7D4A" stroke-width="0.9476" stroke-miterlimit="10" stroke-linecap="round"/>
<path d="M224.422 98.9811C223.35 97.994 222.032 97.2181 220.603 96.736" stroke="#BA7D4A" stroke-width="0.9476" stroke-miterlimit="10" stroke-linecap="round"/>
<path d="M223.927 100.439C223.45 99.9246 222.744 99.5984 222.02 99.4595C221.297 99.3205 220.553 99.3496 219.834 99.4427" stroke="#BA7D4A" stroke-width="0.9476" stroke-miterlimit="10" stroke-linecap="round"/>
<path d="M223.365 101.173C222.026 101.202 220.711 101.447 219.49 101.893" stroke="#BA7D4A" stroke-width="0.9476" stroke-miterlimit="10" stroke-linecap="round"/>
<path d="M220.787 109.458C220.581 108.065 219.716 106.738 218.448 105.86" stroke="#BA7D4A" stroke-width="0.9476" stroke-miterlimit="10" stroke-linecap="round"/>
<path d="M219.767 109.661C219.088 108.433 217.801 107.464 216.332 107.088" stroke="#BA7D4A" stroke-width="0.9476" stroke-miterlimit="10" stroke-linecap="round"/>
<path d="M219.218 110.878C218.032 110.083 216.625 109.563 215.183 109.382" stroke="#BA7D4A" stroke-width="0.9476" stroke-miterlimit="10" stroke-linecap="round"/>
<path d="M237.801 116.689C239.221 116.272 240.778 116.191 242.287 116.448" stroke="#BA7D4A" stroke-width="0.9476" stroke-miterlimit="10" stroke-linecap="round"/>
<path d="M237.812 118.705C239.352 118.823 240.87 119.356 242.123 120.215" stroke="#BA7D4A" stroke-width="0.9476" stroke-miterlimit="10" stroke-linecap="round"/>
<path d="M236.727 120.271C237.74 120.719 238.512 121.611 238.74 122.589" stroke="#BA7D4A" stroke-width="0.9476" stroke-miterlimit="10" stroke-linecap="round"/>
<path d="M240.418 107.006C241.154 107.346 241.709 107.953 242.082 108.611C242.455 109.269 242.661 109.985 242.865 110.693" stroke="#BA7D4A" stroke-width="0.9476" stroke-miterlimit="10" stroke-linecap="round"/>
<path d="M241.535 106.109C243.153 106.467 244.284 107.78 245.272 109.002" stroke="#BA7D4A" stroke-width="0.9476" stroke-miterlimit="10" stroke-linecap="round"/>
<path d="M246.055 105.399C244.832 104.836 243.427 104.623 242.111 104.803" stroke="#BA7D4A" stroke-width="0.9476" stroke-miterlimit="10" stroke-linecap="round"/>
<path d="M247.004 92.7003C245.62 93.3872 244.235 94.074 242.845 94.7587" stroke="#BA7D4A" stroke-width="0.9476" stroke-miterlimit="10" stroke-linecap="round"/>
<path d="M245.428 90.2608C244.184 91.3275 242.905 92.367 241.594 93.3694" stroke="#BA7D4A" stroke-width="0.9476" stroke-miterlimit="10" stroke-linecap="round"/>
<path d="M240.744 92.6031C241.421 91.1474 242.011 89.6598 242.525 88.1448" stroke="#BA7D4A" stroke-width="0.9476" stroke-miterlimit="10" stroke-linecap="round"/>
<path d="M239.845 84.6521C238.272 83.6233 236.316 83.0937 234.423 83.1875C232.531 83.2813 230.72 84.0001 229.413 85.1692C230.672 85.4473 231.341 86.6708 231.854 87.7378C232.371 88.807 233.129 90.0162 234.406 90.1844C235.403 90.3188 236.317 89.7097 236.83 88.9667C237.343 88.2236 237.563 87.341 237.94 86.5325C238.311 85.7218 238.906 84.9261 239.845 84.6521Z" fill="#EDB740"/>
<path d="M230.096 95.1135C230.764 94.827 231.069 94.1407 231.236 93.4884C231.338 93.0789 231.408 92.6494 231.313 92.2308C231.152 91.4939 230.54 90.8966 230.01 90.2999C229.28 89.4861 228.633 88.4841 228.835 87.4935C225.899 88.7767 223.909 91.5399 223.78 94.5086C224.065 94.2082 224.406 93.8855 224.854 93.8864C225.072 93.8871 225.291 93.9652 225.499 94.044C226.187 94.3033 226.876 94.5626 227.557 94.8247C228.38 95.1424 229.325 95.4489 230.096 95.1135Z" fill="#EDB740"/>
<path d="M239.198 97.9954C239.931 98.0854 240.678 98.0223 241.365 97.8268C242.299 97.5627 243.024 96.7941 244.02 96.6745C244.356 96.6327 245.76 96.8741 245.855 97.2104C245.19 94.8033 243.418 92.6089 241.052 91.2634C240.321 90.8441 239.463 90.4992 238.63 90.6249C238.975 91.0231 239.333 91.5393 239.097 91.9726C239.011 92.1296 238.862 92.2414 238.715 92.3604C237.61 93.2577 236.784 94.5421 236.755 95.9327C236.737 96.7443 237.114 97.3925 238.005 97.7164C238.392 97.8559 238.794 97.9487 239.198 97.9954Z" fill="#EDB740"/>
<path d="M228.136 98.9568C227.778 98.5471 227.362 98.1768 227.06 97.7327C226.757 97.2936 226.569 96.7517 226.728 96.2787C225.383 96.3343 224.168 97.0244 223.393 97.9771C222.715 98.8135 222.446 99.7277 222.325 100.748C222.262 101.257 222.19 101.733 222.275 102.253C222.325 102.558 222.78 103.311 222.72 103.556C222.807 103.181 223.12 102.87 223.52 102.75C224.969 102.309 226.384 104.065 228.032 103.328C228.853 102.961 229.277 102.096 229.234 101.264C229.188 100.424 228.732 99.6299 228.136 98.9568Z" fill="#EDB740"/>
<path d="M238.462 102.532C239.065 102.46 239.685 102.648 240.296 102.72C241.416 102.855 242.562 102.595 243.441 102.011C243.921 103.547 243.755 105.209 242.983 106.587C242.21 107.966 240.839 109.054 239.204 109.572C239.451 108.978 238.961 108.304 238.385 107.894C237.81 107.484 237.11 107.196 236.652 106.678C235.861 105.79 236.044 104.478 236.726 103.591C237.129 103.059 237.735 102.616 238.462 102.532Z" fill="#EDB740"/>
<path d="M221.618 113.741C223.723 114.294 225.671 113.087 225.095 110.813C224.973 110.323 224.719 109.865 224.515 109.399C224.128 108.504 223.934 107.447 224.494 106.665C222.76 106.557 221.029 107.093 219.78 108.104C218.456 109.177 217.537 110.946 217.874 112.62C218.227 112.338 218.79 112.371 219.242 112.551C219.694 112.731 220.075 113.032 220.49 113.272C220.861 113.488 221.242 113.642 221.618 113.741Z" fill="#EDB740"/>
<path d="M234.086 115.192C234.965 114.986 235.96 115.167 236.793 114.852C237.372 114.633 237.823 114.181 237.995 113.638C238.004 113.618 238.776 114.645 238.835 114.765C239.069 115.244 239.163 115.663 239.175 116.175C239.197 117.381 238.97 118.603 238.38 119.672C237.643 120.996 236.295 122.07 234.65 122.354C234.818 121.997 234.986 121.599 234.838 121.222C234.681 120.811 234.209 120.57 233.797 120.337C232.904 119.829 232.082 119.134 231.745 118.244C231.179 116.718 232.577 115.541 234.086 115.192Z" fill="#EDB740"/>
<path d="M237.483 95.3188C237.69 94.9668 237.681 94.5148 237.456 94.1514C237.419 94.088 237.375 94.0274 237.305 93.9971C237.139 93.9187 236.959 94.0345 236.847 94.1565C236.295 94.7588 236.292 95.6302 236.418 96.4222C236.463 96.7247 236.529 97.031 236.715 97.2948C237.094 97.8437 237.869 98.0404 238.57 98.1515C239.087 98.2359 239.736 98.248 239.982 97.8481C239.549 97.6358 239.093 97.4661 238.629 97.3402C238.898 97.1156 239.088 96.8154 239.178 96.4888C239.22 96.3366 239.19 96.1228 239.014 96.0932C238.953 96.0843 238.891 96.1045 238.834 96.1268C238.604 96.209 238.373 96.2912 238.143 96.3734C238.324 96.0808 238.408 95.7401 238.385 95.4C238.375 95.2602 238.325 95.091 238.175 95.0432C237.916 94.9478 237.74 95.2716 237.483 95.3188Z" fill="#96886B"/>
<path d="M235.927 88.1716C235.86 88.0831 235.771 88.0031 235.665 87.9627C235.4 87.853 235.09 87.995 234.941 88.2012C234.795 88.4145 234.77 88.6748 234.754 88.9273C234.515 88.5695 234.126 88.2873 233.681 88.1701C233.623 88.1562 233.559 88.1402 233.51 88.1718C233.463 88.1984 233.454 88.2594 233.454 88.3126C233.447 88.5864 233.526 88.863 233.687 89.1039C233.486 88.928 233.271 88.7456 233.002 88.6871C232.735 88.6236 232.402 88.7377 232.356 88.9772C232.324 89.1459 232.444 89.3163 232.563 89.4625C232.845 89.8036 233.173 90.118 233.534 90.3993C233.859 90.6533 234.239 90.89 234.665 90.9283C234.937 90.9529 235.203 90.8979 235.453 90.8123C236.437 90.4754 237.158 89.6344 237.288 88.6887C236.823 88.8219 236.386 89.0261 235.995 89.2861C236.217 88.9526 236.191 88.499 235.927 88.1716Z" fill="#96886B"/>
<path d="M230.58 93.0192C230.56 92.7806 230.246 92.6494 229.987 92.5952C229.745 92.5425 229.434 92.5248 229.316 92.7148C229.217 92.8724 229.318 93.0753 229.434 93.2265C229.556 93.3799 229.709 93.5292 229.723 93.7124C229.303 93.5819 228.832 93.6064 228.446 93.7741C228.373 93.807 228.296 93.8497 228.253 93.9197C228.175 94.0448 228.254 94.2149 228.385 94.3073C228.515 94.3997 228.68 94.4419 228.836 94.4749C228.576 94.503 228.307 94.5388 228.099 94.6779C227.891 94.817 227.782 95.0937 227.93 95.2941C228.037 95.441 228.239 95.5055 228.428 95.5585C228.895 95.6915 229.374 95.8238 229.855 95.8278C230.337 95.8317 230.84 95.6917 231.133 95.3595C231.336 95.1238 231.417 94.8171 231.483 94.516C231.581 94.0753 231.665 93.6281 231.614 93.1758C231.564 92.7235 231.371 92.2617 230.996 91.9448C230.961 91.9176 230.916 91.8861 230.872 91.8908C230.815 91.901 230.794 91.9626 230.782 92.0165C230.712 92.3516 230.648 92.689 230.58 93.0192Z" fill="#96886B"/>
<path d="M229.491 100.403C229.238 100.659 229.036 100.959 228.901 101.284C228.935 101.016 228.918 100.731 228.793 100.476C228.669 100.221 228.423 100.002 228.121 99.9351C228.014 99.9117 227.89 99.9109 227.806 99.9685C227.664 100.065 227.698 100.269 227.746 100.431C227.856 100.786 227.986 101.138 228.142 101.483C227.926 101.383 227.7 101.278 227.46 101.262C227.219 101.245 226.963 101.334 226.873 101.525C226.747 101.8 227 102.099 227.235 102.331C226.968 102.173 226.631 102.121 226.337 102.187C226.277 102.202 226.215 102.222 226.179 102.265C226.078 102.374 226.176 102.541 226.286 102.654C226.464 102.826 226.685 102.97 226.925 103.068C226.653 103.003 226.369 102.991 226.093 103.029C225.973 103.048 225.839 103.084 225.786 103.179C225.668 103.381 225.96 103.591 226.202 103.684C226.669 103.871 227.162 104.051 227.665 104.034C228.525 104.009 229.229 103.396 229.501 102.678C229.769 101.969 229.679 101.163 229.491 100.403Z" fill="#96886B"/>
<path d="M225.611 112.076C225.619 111.761 225.608 111.42 225.384 111.163C225.12 111.485 224.904 111.832 224.739 112.209C224.621 111.886 224.369 111.599 224.047 111.417C223.877 111.319 223.602 111.276 223.537 111.436C223.512 111.496 223.53 111.563 223.543 111.627C223.624 111.94 223.725 112.249 223.845 112.555C223.438 112.46 223.014 112.434 222.605 112.492C222.543 112.5 222.478 112.513 222.432 112.552C222.313 112.647 222.386 112.832 222.505 112.937C222.624 113.042 222.781 113.117 222.867 113.243C222.423 113.138 221.945 113.206 221.582 113.431C221.357 113.568 221.179 113.868 221.382 114.051C221.463 114.122 221.576 114.147 221.686 114.166C222.309 114.291 222.945 114.415 223.575 114.377C224.204 114.339 224.841 114.122 225.201 113.678C225.562 113.228 225.601 112.638 225.611 112.076Z" fill="#96886B"/>
<path d="M237.414 106.391C237.611 106.507 237.82 106.61 238.034 106.685C238.269 106.77 238.574 106.815 238.712 106.645C238.826 106.506 238.767 106.304 238.681 106.136C238.52 105.83 238.302 105.546 238.035 105.306C238.48 105.247 238.895 105.051 239.195 104.757C239.259 104.691 239.328 104.614 239.315 104.521C239.303 104.415 239.188 104.341 239.079 104.293C238.756 104.141 238.396 104.06 238.041 104.064C238.404 103.893 238.71 103.637 238.927 103.331C239.041 103.163 239.138 102.969 239.11 102.762C239.08 102.561 238.898 102.357 238.672 102.347C238.401 102.335 238.205 102.58 237.936 102.615C237.91 102.445 238.17 102.269 238.026 102.153C237.965 102.103 237.876 102.118 237.804 102.133C237.155 102.298 236.707 102.798 236.336 103.297C235.929 103.85 235.564 104.457 235.551 105.136C235.542 105.845 235.962 106.571 236.627 106.991C236.813 107.107 237.048 107.204 237.252 107.128C237.529 107.019 237.534 106.656 237.414 106.391Z" fill="#96886B"/>
<path d="M232.459 119.729C232.316 119.637 232.229 119.458 232.054 119.44C232.054 119.617 231.772 119.695 231.596 119.6C231.419 119.505 231.334 119.321 231.274 119.147C231.096 118.651 230.994 118.14 230.965 117.627C230.943 117.245 230.973 116.852 231.154 116.518C231.375 116.107 231.803 115.828 232.233 115.586C232.649 115.349 233.084 115.137 233.531 114.949C233.581 114.93 233.633 114.905 233.689 114.912C233.85 114.935 233.859 115.157 233.758 115.267C233.657 115.376 233.504 115.457 233.471 115.601C233.784 115.532 234.133 115.584 234.415 115.748C234.57 115.839 234.718 115.986 234.707 116.147C234.697 116.278 234.586 116.383 234.474 116.464C234.145 116.703 233.747 116.86 233.321 116.916C233.668 117.067 233.98 117.286 234.235 117.55C234.335 117.659 234.436 117.78 234.446 117.919C234.463 118.163 234.192 118.351 233.922 118.363C233.652 118.375 233.385 118.27 233.13 118.165C233.473 118.568 233.538 119.162 233.212 119.545C233.039 119.752 232.702 119.888 232.459 119.729Z" fill="#96886B"/>
<path d="M45.225 25C45.225 25 45.0741 25.1764 44.7829 25.5074C44.4884 25.8341 44.0787 26.3304 43.5741 26.9875C43.336 27.3256 43.0667 27.6943 42.7848 28.0998C42.517 28.5149 42.2139 28.9639 41.9274 29.4613C41.3326 30.4455 40.7296 31.606 40.1613 32.9099C39.5855 34.2128 39.0661 35.6698 38.6417 37.2513C38.2141 38.8286 37.8631 40.524 37.6706 42.3025C37.4771 44.0885 37.3856 45.9191 37.4827 47.8096C37.5699 49.6873 37.7934 51.5833 38.1508 53.4587C38.5201 55.3318 39.0328 57.1702 39.6357 58.9398C40.2343 60.7126 40.9782 62.4086 41.7623 64.0058C42.5378 65.6097 43.4278 67.0785 44.2328 68.4627C45.0368 69.8544 45.7957 71.1514 46.42 72.388C47.0476 73.6288 47.5438 74.7865 47.9095 75.8534C48.2676 76.9193 48.5058 77.8727 48.638 78.6692C48.7658 79.469 48.8263 80.1093 48.8408 80.5469C48.8477 80.9835 48.8508 81.2191 48.8508 81.2191C48.8508 81.2191 48.878 80.9876 48.9294 80.5473C48.969 80.1092 49.0099 79.4593 48.9587 78.6351C48.9117 77.8076 48.7843 76.8036 48.5035 75.6787C48.2336 74.5591 47.8208 73.297 47.263 71.9961C46.7147 70.6811 46.0362 69.3023 45.2903 67.8798C44.5497 66.4465 43.7698 64.9616 43.0475 63.3919C42.321 61.8255 41.693 60.1567 41.1132 58.4442C40.5454 56.7294 40.071 54.9501 39.7348 53.147C39.3748 51.3483 39.1411 49.5281 39.0394 47.7295C38.94 45.9427 38.9388 44.1421 39.0822 42.4419C39.231 40.7308 39.4678 39.0817 39.806 37.5387C40.1518 35.9967 40.5503 34.5505 41.018 33.2485C41.4891 31.9508 41.9676 30.7698 42.4627 29.7529C42.6972 29.2408 42.9635 28.7792 43.177 28.3375C43.4155 27.9107 43.638 27.5165 43.8361 27.1614C44.2604 26.4705 44.5896 25.9132 44.846 25.5544C45.0948 25.1946 45.225 25 45.225 25Z" fill="#BA7D4A"/>
<path d="M44.8585 78.794C44.9984 78.8437 45.1534 78.7796 45.2858 78.7126C46.0508 78.2987 46.5501 77.5368 47.0151 76.8012C47.2935 76.3644 47.5729 75.92 47.8513 75.4831C46.779 78.0148 47.5203 81.1947 49.5922 82.9918C49.8306 83.1973 50.1165 83.3937 50.4287 83.3662C50.8034 83.3317 51.0769 82.9598 51.1268 82.5886C51.1766 82.2175 51.061 81.8435 50.9348 81.4911C50.1505 79.2346 49.0915 77.0722 47.7916 75.0664C48.8449 76.4107 50.0651 77.6887 51.6166 78.3943C52.1363 78.6298 52.9172 78.7 53.1234 78.1686C53.2652 77.8021 53.01 77.4055 52.7492 77.1083C51.412 75.5525 49.6833 74.3296 47.7715 73.5794C47.5698 73.5023 47.3605 73.424 47.1479 73.4572C46.9709 73.4835 46.815 73.5821 46.6667 73.6817C45.8951 74.2027 45.2145 74.8786 44.7979 75.7132C44.378 76.5436 44.2481 77.5401 44.5505 78.4173C44.6113 78.5681 44.6959 78.7414 44.8585 78.794Z" fill="#EDB740"/>
<path d="M41.9824 74.1709C42.9731 73.4827 43.4915 72.2917 43.7529 71.12C44.011 69.9441 44.0666 68.7256 44.3691 67.5633C45.4623 69.1558 47.0368 70.4081 48.8347 71.116C49.417 71.3445 50.2381 71.4316 50.5133 70.8748C50.5983 70.7012 50.6096 70.5022 50.5734 70.3123C50.4572 69.5989 49.8486 69.0777 49.2411 68.6916C47.6644 67.6857 45.7976 67.146 43.9301 67.1574C41.7612 68.4662 40.5915 71.2354 41.1624 73.7023C41.2253 73.9806 41.3881 74.3186 41.6755 74.3032C41.7922 74.2958 41.8889 74.2355 41.9824 74.1709Z" fill="#EDB740"/>
<path d="M39.74 61.5523C39.0396 62.318 38.3405 63.1031 37.8554 64.0173C37.3703 64.9314 37.1168 66.0154 37.3674 67.0206C37.4635 67.3959 37.6647 67.793 38.0385 67.9087C38.5608 68.0675 39.0496 67.5857 39.357 67.1335C40.496 65.4551 41.1296 63.4351 41.1546 61.4106C42.4701 63.4724 44.5355 65.261 46.9793 65.4078C47.3848 65.4314 47.8469 65.3778 48.0798 65.0505C48.3232 64.7015 48.1906 64.2249 47.9864 63.8506C47.4363 62.836 46.451 62.1062 45.3901 61.6515C44.3293 61.1968 43.1786 60.9806 42.0453 60.7784C41.6123 60.701 41.1556 60.6281 40.7396 60.7689C40.3355 60.9074 40.0291 61.2364 39.74 61.5523Z" fill="#EDB740"/>
<path d="M38.1626 52.7971C35.8929 53.8225 34.691 56.3714 34.2914 58.8314C34.1959 59.4278 34.3012 60.2515 34.9059 60.3134C35.1342 60.3363 35.3494 60.2264 35.5396 60.1016C36.7046 59.3212 37.2906 57.9425 37.7279 56.6095C38.1452 55.3392 38.4801 54.0503 38.7371 52.7393C39.5867 55.0547 40.8879 57.4809 43.2016 58.3389C43.6092 58.49 44.0553 58.5846 44.4814 58.4837C44.9074 58.3829 45.2926 58.0413 45.3387 57.6118C45.3807 57.2127 45.1409 56.8451 44.894 56.5305C43.585 54.8512 41.8143 53.5379 39.8311 52.7743C39.5784 52.6749 39.3162 52.5895 39.047 52.5842C38.7367 52.5696 38.4414 52.6726 38.1626 52.7971Z" fill="#EDB740"/>
<path d="M43.6209 52.1997C44.0824 52.3234 44.7114 52.3191 44.887 51.8724C44.9642 51.6707 44.918 51.4409 44.8492 51.235C44.504 50.1593 43.771 49.2436 42.9602 48.4485C41.6448 47.1616 40.084 46.1232 38.3876 45.4058C36.9338 45.7813 35.5268 46.4406 34.4364 47.47C33.3416 48.5028 32.5831 49.9315 32.5472 51.4341C32.5458 51.5303 32.5467 51.6384 32.5972 51.7223C32.6925 51.8739 32.9066 51.8872 33.0859 51.8727C34.4389 51.7305 35.5218 50.7 36.3699 49.638C37.3153 48.4541 38.1214 47.1589 38.7647 45.7841C38.7286 48.6669 40.8305 51.4473 43.6209 52.1997Z" fill="#EDB740"/>
<path d="M38.1983 38.4871C36.2527 39.1088 34.5202 40.3836 33.3541 42.0622C32.9762 42.6091 32.6541 43.3716 33.053 43.9032C33.3045 44.2415 33.7755 44.351 34.1867 44.2751C34.5978 44.1992 34.9677 43.9713 35.305 43.7274C36.9862 42.519 38.3187 40.8357 39.1001 38.9204C39.1172 41.2051 40.8315 43.1392 42.7325 44.4007C43.0161 44.5852 43.3149 44.7719 43.6525 44.8133C43.99 44.8548 44.3737 44.7251 44.5224 44.4212C44.6393 44.1824 44.5959 43.9029 44.53 43.6473C43.9313 41.3578 41.7358 39.9065 39.7108 38.6786C39.4936 38.5453 39.272 38.4153 39.0198 38.3699C38.7481 38.3257 38.4645 38.3994 38.1983 38.4871Z" fill="#EDB740"/>
<path d="M41.387 30.3564C40.062 30.7491 38.7209 31.1474 37.5423 31.8566C36.3595 32.5691 35.3364 33.6424 34.9726 34.9737C34.8731 35.342 34.8401 35.7887 35.103 36.0707C35.3963 36.3838 35.8986 36.3471 36.3083 36.2248C37.7378 35.7998 38.8612 34.6977 39.7927 33.5312C40.5381 32.6019 41.2008 31.5998 41.7767 30.5552C41.3471 32.6642 42.0702 34.9742 43.6326 36.4601C43.8647 36.684 44.1746 36.9029 44.484 36.8095C44.9293 36.6804 44.976 36.0737 44.8868 35.6183C44.5044 33.728 43.3375 32.1102 42.1928 30.5571C42.1305 30.4755 42.0692 30.3863 41.9759 30.3352C41.7989 30.2459 41.5757 30.3008 41.387 30.3564Z" fill="#EDB740"/>
<path d="M65.6088 112.021C62.8896 112.194 60.2471 113.403 57.7391 114.587C55.2886 115.745 52.8317 116.909 50.3812 118.068C49.4855 118.49 48.5833 118.906 47.6236 119.162C46.7727 119.386 45.8577 119.392 45.0516 119.789C44.367 120.121 43.7847 120.774 43.7591 121.535C43.7143 122.789 45.0708 123.595 46.2672 123.973C47.5148 124.37 48.8009 124.626 50.0933 124.837C58.3405 126.212 66.7604 126.072 75.1036 125.528C77.5925 125.368 80.1006 125.163 82.5191 124.51C83.9202 124.133 87.7271 123.212 87.8551 121.427C87.8999 120.832 87.5736 120.224 87.0553 119.936C86.7546 119.769 86.4155 119.705 86.0764 119.648C81.3802 118.79 77.2406 116.25 73.0178 114.101C71.2327 113.192 69.3837 112.303 67.3939 112.066C66.7988 111.996 66.2038 111.983 65.6088 112.021Z" fill="#BA7D4A"/>
<path d="M65.0841 122.278C61.7763 122.226 58.4812 121.99 55.2821 121.58C52.6013 121.241 49.5878 120.864 47.0925 119.776C45.4866 119.072 43.0425 118.733 42.198 120.768C41.5581 122.303 42.569 123.787 43.8039 124.683C45.6721 126.04 47.9883 126.622 50.2532 127.076C58.8587 128.791 67.7585 129.066 76.4536 127.876C79.6527 127.441 82.8517 126.801 85.8397 125.566C87.1705 125.016 88.5269 124.287 89.2307 123.032C89.7681 122.079 89.8321 120.422 88.898 119.661C87.6439 118.637 85.2638 119.558 83.9714 120.032C82.0456 120.736 80.0429 121.196 78.0147 121.491C73.8175 122.098 69.4412 122.348 65.0841 122.278Z" fill="#A55520"/>
<path d="M65.404 125.873C59.3514 125.784 53.2732 125.259 47.3997 123.8C45.3395 123.288 43.0297 122.412 42.3323 120.409C41.507 122.028 42.4411 123.698 43.8167 124.696C45.685 126.052 48.0011 126.635 50.266 127.089C58.8715 128.804 67.7713 129.079 76.4664 127.889C79.6655 127.454 82.8645 126.807 85.8525 125.579C87.1833 125.029 88.5397 124.299 89.2435 123.045C89.7745 122.105 89.6722 121.119 89.3139 120.172C88.5397 121.964 86.6906 122.841 84.9439 123.436C78.7697 125.534 72.1477 125.963 65.6216 125.88C65.5448 125.873 65.4744 125.873 65.404 125.873Z" fill="#D6BAA1"/>
<path d="M71.3095 161.594C71.8854 161.428 72.3972 160.884 72.5508 160.282C72.7811 159.374 72.4548 158.427 72.1349 157.544C70.5546 153.181 69.0318 149.111 68.4752 144.479C68.1105 141.453 68.0209 138.401 68.0785 135.355C68.0913 134.581 68.3024 126.392 68.6095 126.379C67.9441 126.417 60.9829 126.923 60.8678 126.296C61.7315 131.587 61.5844 136.98 61.4436 142.336C61.3668 145.208 61.2709 148.158 60.1576 150.8C59.4154 152.56 58.2445 154.121 57.6175 155.925C57.1313 157.32 56.9841 158.881 57.5215 160.257C57.9246 161.293 58.9291 162.714 60.1192 162.886C60.8102 162.989 61.6227 162.439 61.5268 161.748C61.7507 163.264 64.4379 163.526 65.5832 163.514C67.3683 163.488 69.1662 162.81 70.4458 161.543C70.7209 161.671 71.0216 161.677 71.3095 161.594Z" fill="#D6BAA1"/>
<path d="M56.5554 137.102C57.4639 137.575 58.4812 137.908 59.473 138.138C63.2031 139.002 67.1507 138.868 70.8169 137.767C72.0645 137.39 73.3121 136.884 74.2335 135.963C74.4382 135.758 74.6429 135.49 74.5854 135.202C74.4446 134.453 72.474 134.184 71.9109 134.031C70.6825 133.698 69.4413 133.391 68.2 133.103C68.2512 133.116 67.8417 133.909 67.7905 133.973C67.5794 134.242 67.4002 134.383 67.0611 134.511C65.6855 135.029 61.6675 135.554 61.4244 133.289C61.4308 133.372 55.5829 134.524 55.0454 134.613C54.6999 134.626 54.3352 134.722 53.9897 134.754C54.572 135.784 55.4933 136.545 56.5554 137.102Z" fill="#BA7D4A"/>
<path d="M55.9667 138.209C56.3506 138.414 56.7473 138.593 57.1504 138.753C61.1876 140.346 65.7175 140.237 69.9786 139.418C71.5014 139.124 72.9282 138.67 74.1886 137.742C74.7709 137.313 75.3083 136.776 75.5322 136.091C75.6922 135.598 75.6602 135.003 75.3083 134.613C74.7389 133.986 74.2846 134.408 73.8687 134.831C71.3606 137.39 67.1123 137.87 63.7213 137.697C60.9445 137.556 57.9501 136.865 55.6148 135.291C55.1734 134.991 54.188 134.025 53.6378 134.492C53.2027 134.863 53.5098 135.861 53.753 136.251C54.284 137.108 55.0838 137.735 55.9667 138.209Z" fill="#A55520"/>
</svg>
