<svg width="285" height="190" viewBox="0 0 285 190" fill="none" xmlns="http://www.w3.org/2000/svg">
<rect width="285" height="190" fill="#F2FAFF"/>
<path fill-rule="evenodd" clip-rule="evenodd" d="M108.939 28.6118C106.207 28.1275 106.138 12.3653 110.911 24.9335C111.372 26.1097 110.668 28.9116 108.939 28.6118Z" fill="#DBA556"/>
<path fill-rule="evenodd" clip-rule="evenodd" d="M129.873 43.3135C130.184 40.5577 145.908 39.4854 133.665 45.0547C132.524 45.5735 129.677 45.0547 129.873 43.3135Z" fill="#DBA556"/>
<path fill-rule="evenodd" clip-rule="evenodd" d="M113.112 55.0745C113.7 75.2414 124.674 97.4723 121.008 140.066C119.936 151.043 119.371 162.62 119.141 170.069C124.478 171.118 123.164 170.541 124.028 170.518C126.841 170.461 124.663 137.08 130.611 137.841C136.847 138.636 129.539 169.319 131.003 170.011C133.008 170.956 136.305 171.948 136.524 169.896C142.691 112.208 178.703 116.59 178.576 169.93C178.576 170.011 184.455 171.314 184.49 169.123C184.616 160.994 182.127 156.013 182.991 146.961C183.925 137.114 189.147 139.42 189.954 149.44C190.553 156.958 191.464 169.561 192.271 169.596C195.568 169.723 194.023 169.838 196.225 168.789C197.031 157.904 197.896 126.287 191.498 117.881C180.974 93.7595 150.53 91.3265 134.98 107.688C131.729 91.4995 127.026 52.1919 122.15 52.1227C117.539 52.065 115.879 54.2904 113.112 55.0745Z" fill="#DBA556"/>
<path fill-rule="evenodd" clip-rule="evenodd" d="M127.106 57.6462C144.155 45.4353 122.691 11.3741 100.87 33.7434C97.2042 37.5023 91.9362 44.0517 89.308 51.6964C87.6365 56.5392 87.625 60.8516 89.3771 63.1693C95.3137 70.9985 120.916 62.0739 127.106 57.6462Z" fill="#F0BD6E"/>
<path fill-rule="evenodd" clip-rule="evenodd" d="M115.418 27.5858C115.418 26.2367 117.101 21.4977 116.19 21.4977C113.17 21.4977 116.501 15.8131 119.256 18.9379C120.271 20.091 119.441 21.6014 118.069 21.7398C116.063 21.9474 117.078 26.3636 116.812 27.6319C116.686 27.7472 116.374 27.6434 116.155 27.6434C115.959 27.6434 115.418 27.6665 115.418 27.5858Z" fill="#7A4B00"/>
<path fill-rule="evenodd" clip-rule="evenodd" d="M129.043 37.2831C130.219 36.6143 135.176 35.761 134.726 34.9654C133.239 32.3249 139.821 32.4403 138.461 36.3722C137.954 37.825 136.225 37.8481 135.429 36.7181C134.449 35.3229 131.302 38.0441 129.804 38.759C129.366 38.0325 129.596 38.39 129.343 37.9403C129.251 37.7789 128.962 37.3177 129.043 37.2831Z" fill="#7A4B00"/>
<path fill-rule="evenodd" clip-rule="evenodd" d="M88.1321 56.873C96.1552 57.784 97.0428 66.2819 96.1322 66.2589C88.697 66.0629 87.5442 60.8741 88.1321 56.873Z" fill="#9D7B51"/>
<path fill-rule="evenodd" clip-rule="evenodd" d="M119.06 167.601C119.049 167.912 119.118 169.999 119.233 170.034C120.421 170.345 122.276 170.657 123.498 170.657C124.939 170.657 125.17 168.016 125.135 168.016C124.686 168.016 119.89 167.693 119.81 167.67C119.764 167.659 119.06 167.543 119.06 167.601Z" fill="#7A4B00"/>
<path fill-rule="evenodd" clip-rule="evenodd" d="M130.841 168.132C130.83 168.443 130.749 170.553 130.864 170.576C132.052 170.887 133.919 171.014 135.141 171.199C136.686 171.441 136.72 168.558 136.674 168.558C136.225 168.558 131.522 168.247 131.441 168.212C131.395 168.201 130.841 168.074 130.841 168.132Z" fill="#7A4B00"/>
<path fill-rule="evenodd" clip-rule="evenodd" d="M178.542 167.451C178.542 167.774 178.426 170 178.553 170.023C179.821 170.299 182.207 170.438 183.498 170.38C185.02 170.311 184.501 167.624 184.455 167.624C183.971 167.647 179.129 167.532 179.037 167.509C179.003 167.486 178.542 167.394 178.542 167.451Z" fill="#7A4B00"/>
<path fill-rule="evenodd" clip-rule="evenodd" d="M191.579 167.128C191.59 167.44 191.821 169.527 191.925 169.55C192.882 169.78 194.357 169.965 195.314 169.884C196.443 169.78 196.351 167.14 196.317 167.14C195.959 167.163 192.247 167.186 192.19 167.151C192.155 167.128 191.567 167.071 191.579 167.128Z" fill="#7A4B00"/>
<path fill-rule="evenodd" clip-rule="evenodd" d="M113.112 61.5552C112.985 61.5552 112.87 61.4975 112.789 61.4053L112.72 61.2669C112.616 60.8403 112.57 60.4021 112.524 59.9755L112.513 59.8948C112.236 59.8832 111.959 59.8487 111.671 59.7795C111.637 60.0331 111.637 60.0447 111.59 60.3099L111.521 60.7711C111.441 61.0017 111.279 61.117 111.106 61.117L110.945 61.0824L110.818 61.0363L110.657 60.7365L110.749 60.1715L110.841 59.5143C110.634 59.4335 110.426 59.3298 110.242 59.226C110.161 59.3413 110.092 59.4566 110.023 59.5719C109.896 59.7795 109.769 59.987 109.585 60.2061L109.481 60.3329L109.262 60.356C109.135 60.356 109.02 60.2983 108.939 60.2061C108.789 60.0216 108.812 59.7564 108.997 59.6065C109.1 59.4681 109.204 59.2952 109.308 59.1222C109.389 58.9954 109.469 58.8686 109.562 58.7302C109.4 58.5803 109.25 58.4304 109.112 58.2574C109.054 58.292 109.008 58.3266 108.951 58.3727C108.766 58.4996 108.582 58.6379 108.271 58.7994C108.052 58.9608 107.821 58.9031 107.683 58.7302L107.602 58.6264L107.59 58.4189C107.602 58.3035 107.66 58.1998 107.74 58.1306C107.763 58.1075 108.34 57.7385 108.686 57.531C108.582 57.2889 108.501 57.0237 108.432 56.7469L108.351 56.7815C108.063 56.8968 108.063 56.8968 107.74 57.0006L107.187 57.162C107.06 57.162 106.945 57.1044 106.864 57.0121L106.783 56.9084L106.772 56.7008C106.784 56.5855 106.841 56.4817 106.922 56.4126L107.026 56.3549L107.464 56.205C107.763 56.1012 107.763 56.1012 108.04 55.9975L108.328 55.8821C108.328 55.813 108.328 55.7322 108.328 55.6631H108.305C108.028 55.6861 108.028 55.6861 107.763 55.7207L107.314 55.7784C107.06 55.813 106.876 55.6285 106.841 55.4325C106.807 55.2018 106.956 54.9828 107.187 54.9482L107.648 54.8905C107.936 54.8559 107.936 54.8559 108.224 54.8329L108.374 54.8213C108.397 54.6599 108.409 54.4869 108.443 54.314C108.49 54.0949 108.662 53.9565 108.858 53.9565L108.951 53.9681C109.181 54.0257 109.32 54.2448 109.273 54.4754C108.893 56.8738 109.539 58.1767 111.418 58.8224C111.89 58.9839 112.282 59.053 112.674 59.053C113.077 59.053 113.492 58.9839 114.011 58.8801L114.103 58.8685C114.288 58.8685 114.449 58.9839 114.507 59.1568L114.553 59.2836L114.484 59.4797C114.438 59.5834 114.345 59.6526 114.242 59.6872C113.919 59.7564 113.642 59.8025 113.366 59.8486L113.539 61.1631C113.527 61.2784 113.469 61.3822 113.389 61.4514L113.296 61.5321L113.112 61.5552Z" fill="#5B5246"/>
<path fill-rule="evenodd" clip-rule="evenodd" d="M100.294 49.6664C100.144 49.6664 100.005 49.5857 99.9362 49.4704L99.8901 49.3205C99.8555 48.8939 99.867 48.4442 99.8786 48.0291V47.9484C99.6019 47.9023 99.3368 47.8216 99.0601 47.7062C98.991 47.9484 98.9909 47.9599 98.9103 48.2021L98.7719 48.6633C98.6682 48.8593 98.5299 48.94 98.3685 48.94H98.2878L98.161 48.8824C98.0688 48.8247 97.9881 48.7325 97.965 48.6287L97.9304 48.5019L98.1033 47.9714L98.2878 47.3142C98.0918 47.1989 97.9074 47.0721 97.7345 46.9452C97.6307 47.049 97.55 47.1528 97.4578 47.2566C97.308 47.441 97.1466 47.6255 96.9391 47.8215L96.8469 47.9138L96.6624 47.9253C96.5126 47.9253 96.3742 47.8446 96.3051 47.7178L96.2359 47.6025L96.259 47.3949C96.282 47.2911 96.3627 47.1874 96.4549 47.1297C96.5702 47.0029 96.697 46.853 96.8238 46.6916C96.916 46.5763 97.0198 46.4609 97.1235 46.3456C96.9852 46.1727 96.8584 45.9997 96.7431 45.8152C96.6855 45.8498 96.6278 45.8729 96.5702 45.9075C96.3742 46.0113 96.1667 46.115 95.844 46.2303L95.7979 46.2649L95.6249 46.2995C95.4751 46.2995 95.3368 46.2188 95.2676 46.1035C95.1523 45.9075 95.21 45.6423 95.4059 45.5154C95.3944 45.5154 95.4059 45.5039 96.4319 45.0542C96.3627 44.8005 96.3166 44.5238 96.2935 44.2471L96.2128 44.2701C95.9016 44.3508 95.9016 44.3508 95.5673 44.397L95.0486 44.4777C94.8987 44.4777 94.7719 44.4085 94.6912 44.2817L94.6221 44.1664L94.6682 43.8204L94.9448 43.6475L95.4059 43.5668C95.7172 43.5091 95.7172 43.5091 96.0054 43.44L96.3051 43.3708C96.3166 43.3016 96.3166 43.2209 96.3281 43.1517H96.3051C96.0284 43.1402 96.0284 43.1402 95.7518 43.1286L95.3022 43.1171C95.0716 43.1171 94.8872 42.9326 94.8757 42.702C94.8757 42.4714 95.0601 42.2754 95.2907 42.2638L95.7518 42.2754C96.0399 42.2754 96.0399 42.2754 96.3281 42.2984L96.478 42.3099C96.5241 42.1485 96.5702 41.9871 96.6163 41.8141C96.6855 41.6297 96.8469 41.5259 97.0198 41.5259L97.1696 41.5489C97.3886 41.6412 97.4924 41.8833 97.4117 42.0909C96.697 44.4085 97.135 45.7922 98.8987 46.7031C99.9016 47.222 100.478 47.1874 101.469 47.1412C101.711 47.1412 101.884 47.2911 101.919 47.4987C101.965 47.7293 101.804 47.9484 101.573 47.983C101.216 48.006 100.939 48.006 100.685 48.0176L100.662 49.1014L100.685 49.136L100.639 49.4704L100.397 49.6549L100.294 49.6664Z" fill="#5B5246"/>
<path fill-rule="evenodd" clip-rule="evenodd" d="M142.346 106.259C142.968 106.27 147.533 105.947 147.637 105.521C149.677 97.2879 134.841 106.074 142.346 106.259Z" fill="#9D7B51"/>
<path fill-rule="evenodd" clip-rule="evenodd" d="M161.689 97.6685C161.112 98.0721 156.155 102.396 161.562 102.523C162.184 102.534 166.53 102.073 166.853 101.785C171.337 97.7492 166.657 98.0259 164.121 97.484C163.671 97.3918 162.184 97.311 161.689 97.6685Z" fill="#9D7B51"/>
<path fill-rule="evenodd" clip-rule="evenodd" d="M182.991 105.936C182.323 106.155 175.245 107.953 179.337 111.482C179.625 111.736 183.763 113.108 184.467 112.992C188.697 112.312 186.991 109.925 185.158 108.08C184.063 106.996 183.037 105.924 182.991 105.936Z" fill="#9D7B51"/>
<path fill-rule="evenodd" clip-rule="evenodd" d="M151.21 103.584C151.51 103.595 153.02 104.056 154.15 103.549C155.371 102.996 156.213 101.462 156.259 101.243C156.755 99.225 156.19 97.3571 154.968 97.5646C153.308 97.8529 150.691 98.3487 148.985 98.9483C147.129 99.6055 148.386 103.514 151.21 103.584Z" fill="#9D7B51"/>
<path fill-rule="evenodd" clip-rule="evenodd" d="M176.352 101.969C175.222 101.542 174.749 101.266 173.458 100.966C171.925 100.609 170.911 100.77 169.481 101.473C169.032 101.692 168.236 102.903 168.236 103.491C168.236 104.552 168.351 106.674 169.758 106.674C171.107 106.674 174.207 105.993 175.107 106.501C176.294 107.181 178.334 107.169 179.279 106.316C180.213 105.486 180.075 103.826 179.141 103.895C178.853 103.929 178.184 102.661 176.352 101.969Z" fill="#9D7B51"/>
<path fill-rule="evenodd" clip-rule="evenodd" d="M140.605 108.299C139.821 107.999 139.487 107.815 138.599 107.607C137.539 107.365 136.824 107.481 135.844 107.965C135.533 108.126 134.98 108.956 134.98 109.36C134.98 110.098 135.06 111.562 136.04 111.562C136.974 111.562 139.129 111.09 139.752 111.447C141.861 112.669 145.366 110.087 140.605 108.299Z" fill="#9D7B51"/>
<path fill-rule="evenodd" clip-rule="evenodd" d="M151.833 108.968C152.686 109.234 153.043 109.407 154 109.568C155.141 109.752 155.879 109.591 156.882 109.015C157.204 108.83 157.723 107.908 157.7 107.481C157.654 106.708 157.47 105.152 156.432 105.221C155.452 105.279 153.204 105.924 152.524 105.59C150.207 104.437 146.68 107.389 151.833 108.968Z" fill="#9D7B51"/>
<path fill-rule="evenodd" clip-rule="evenodd" d="M161.435 107.262C162.288 107.527 163.279 109.095 164.236 109.245C165.377 109.441 169.308 109.787 169.47 108.634C169.758 106.674 168.063 108 167.36 107.227C166.922 106.743 167.302 105.936 167.291 105.774C167.245 105.002 167.06 103.445 166.034 103.514C165.043 103.572 162.807 104.218 162.127 103.883C159.821 102.73 156.294 105.682 161.435 107.262Z" fill="#9D7B51"/>
<path fill-rule="evenodd" clip-rule="evenodd" d="M171.983 111.678C172.57 112.347 172.524 114.284 173.32 114.849C178.703 118.746 174.692 114.307 177.758 113.523C178.507 113.327 178.795 111.424 177.885 110.94C177.009 110.467 174.772 109.833 174.369 109.187C172.997 106.985 168.444 107.619 171.983 111.678Z" fill="#9D7B51"/>
<path fill-rule="evenodd" clip-rule="evenodd" d="M149.227 110.698C148.697 110.317 148.397 108.934 147.74 108.657C143.233 106.789 146.853 109.28 144.801 110.352C144.294 110.617 144.42 112.024 145.147 112.22C145.85 112.404 146.703 113.684 147.106 114.076C148.455 115.425 152.444 113.004 149.227 110.698Z" fill="#9D7B51"/>
<path fill-rule="evenodd" clip-rule="evenodd" d="M159.245 108.219C158.876 108.795 158.83 110.133 158.184 110.49C157.815 110.698 157.838 111.874 158.161 112.208C158.761 112.854 158.795 112.889 159.729 113.2C160.225 113.373 162.323 113.488 162.323 112.439C162.323 111.205 160.478 111.586 161.539 110.813C162.761 109.96 160.397 106.42 159.245 108.219Z" fill="#9D7B51"/>
<path fill-rule="evenodd" clip-rule="evenodd" d="M120.813 99.2596C121.17 100.078 120.628 101.854 121.124 102.684C121.723 103.676 124.006 106.893 124.985 106.27C126.668 105.209 124.559 104.783 124.686 103.756C124.766 103.111 125.631 102.869 125.746 102.765C126.311 102.223 127.372 101.081 126.645 100.332C125.954 99.617 124.006 98.3371 123.821 97.5992C123.199 95.074 118.668 94.313 120.813 99.2596Z" fill="#9D7B51"/>
<path fill-rule="evenodd" clip-rule="evenodd" d="M128.651 86.2183C128.282 86.7948 128.236 88.1324 127.591 88.4898C127.222 88.6974 127.245 89.8735 127.568 90.2079C128.167 90.8536 128.202 90.8882 129.135 91.1995C129.631 91.3724 131.729 91.4877 131.729 90.4385C131.729 89.2047 129.885 89.5852 130.957 88.8127C132.167 87.9479 129.804 84.4196 128.651 86.2183Z" fill="#9D7B51"/>
<path fill-rule="evenodd" clip-rule="evenodd" d="M116.098 64.6447C115.544 65.0482 115.683 66.5587 115.037 66.9162C114.668 67.1237 114.703 68.2998 115.014 68.6342C116.559 70.2716 117.343 69.5682 119.176 68.8648C120.132 68.5189 121.17 61.0126 116.098 64.6447Z" fill="#9D7B51"/>
<path fill-rule="evenodd" clip-rule="evenodd" d="M122.91 65.5097C122.357 65.9132 124.052 71.8054 123.395 72.1628C123.026 72.3704 123.049 73.5465 123.372 73.8809C124.916 75.5182 125.712 74.8148 127.533 74.123C128.501 73.754 127.982 61.866 122.91 65.5097Z" fill="#9D7B51"/>
<path fill-rule="evenodd" clip-rule="evenodd" d="M121.815 76.6019C122.184 77.1785 121.055 79.8075 121.7 80.1534C122.069 80.3609 122.034 81.537 121.723 81.8714C121.124 82.5171 121.089 82.5517 120.155 82.8631C119.66 83.036 117.562 83.1513 117.562 82.1021C117.562 80.8683 119.406 81.2488 118.334 80.4762C117.124 79.623 120.663 74.8032 121.815 76.6019Z" fill="#9D7B51"/>
<path fill-rule="evenodd" clip-rule="evenodd" d="M123.395 94.855C124.305 95.6506 124.64 96.0657 125.746 96.8036C127.049 97.6684 128.052 97.8759 129.631 97.726C130.127 97.6799 131.291 96.8267 131.487 96.2847C131.856 95.2931 132.501 93.2868 131.187 92.791C129.931 92.3182 126.807 91.8686 126.138 91.073C123.902 88.3518 117.896 90.0467 123.395 94.855Z" fill="#9D7B51"/>
<path fill-rule="evenodd" clip-rule="evenodd" d="M124.962 81.8828C123.879 82.2287 123.383 82.3094 122.265 82.8514C120.928 83.4855 120.294 84.2004 119.66 85.5495C119.464 85.9761 119.59 87.3252 119.925 87.7403C120.547 88.5128 121.861 90.0003 122.899 89.1701C123.879 88.386 125.746 86.0684 126.714 85.9185C127.982 85.7225 129.469 84.5118 129.665 83.3472C129.861 82.1941 128.789 81.0641 128.144 81.6637C127.936 81.8597 126.703 81.3178 124.962 81.8828Z" fill="#9D7B51"/>
<path fill-rule="evenodd" clip-rule="evenodd" d="M124.686 79.4042C125.181 79.4158 128.801 79.0929 128.893 78.6663C130.507 70.4334 118.726 79.2197 124.686 79.4042Z" fill="#9D7B51"/>
<path fill-rule="evenodd" clip-rule="evenodd" d="M117.423 72.6124C117.873 72.2895 117.123 70.779 117.688 70.5484C121.55 68.9456 119.89 69.9027 121.654 70.8366C122.092 71.0673 121.562 73.7654 120.928 73.9384C120.328 74.0998 119.59 75.1952 119.256 75.5411C118.092 76.6711 114.668 74.5956 117.423 72.6124Z" fill="#9D7B51"/>
<path fill-rule="evenodd" clip-rule="evenodd" d="M123.706 61.0935C123.314 61.3241 122.426 60.2518 122.069 60.5977C119.579 62.9615 120.847 62.039 120.962 63.6648C120.985 64.0684 123.187 64.5757 123.521 64.1606C123.844 63.7686 124.905 63.5726 125.274 63.4342C126.518 62.9499 126.103 59.6868 123.706 61.0935Z" fill="#9D7B51"/>
<path fill-rule="evenodd" clip-rule="evenodd" d="M130.011 102.8C129.953 103.249 128.559 103.284 128.605 103.78C128.928 107.193 128.985 105.625 130.334 106.547C130.668 106.778 132.42 105.348 132.305 104.829C132.19 104.333 132.708 103.376 132.824 102.996C133.216 101.739 130.392 100.044 130.011 102.8Z" fill="#9D7B51"/>
<path fill-rule="evenodd" clip-rule="evenodd" d="M126.369 112.289C126.426 112.739 127.81 112.773 127.775 113.269C127.452 116.682 127.395 115.114 126.046 116.037C125.712 116.267 123.959 114.849 124.075 114.319C124.19 113.823 123.671 112.866 123.556 112.485C123.176 111.217 126 109.533 126.369 112.289Z" fill="#9D7B51"/>
<path fill-rule="evenodd" clip-rule="evenodd" d="M134.403 121.905C134.219 122.321 133.723 122.609 133.781 123.105C134.104 126.518 134.161 124.949 135.51 125.872C135.844 126.103 136.951 124.258 137.481 124.154C140.029 123.647 137.193 115.379 134.403 121.905Z" fill="#9D7B51"/>
<path fill-rule="evenodd" clip-rule="evenodd" d="M180.951 118.135C180.847 118.377 180.57 118.527 180.594 118.815C180.778 120.752 180.801 119.865 181.573 120.383C181.758 120.51 182.392 119.473 182.692 119.415C184.132 119.115 182.53 114.434 180.951 118.135Z" fill="#9D7B51"/>
<path fill-rule="evenodd" clip-rule="evenodd" d="M168.801 112.485C168.905 112.727 169.181 112.877 169.158 113.165C168.974 115.102 168.939 114.215 168.178 114.733C167.994 114.86 167.36 113.823 167.06 113.765C165.619 113.465 167.233 108.784 168.801 112.485Z" fill="#9D7B51"/>
<path fill-rule="evenodd" clip-rule="evenodd" d="M189.585 126.23C189.481 126.472 189.204 126.622 189.227 126.91C189.412 128.847 189.446 127.959 190.207 128.478C190.392 128.605 191.026 127.567 191.325 127.509C192.766 127.221 191.164 122.54 189.585 126.23Z" fill="#9D7B51"/>
<path fill-rule="evenodd" clip-rule="evenodd" d="M116.812 29.05C116.42 29.2806 115.533 28.2083 115.175 28.5542C112.686 30.918 113.954 29.9956 114.069 31.6214C114.092 32.0249 116.294 32.5323 116.628 32.1056C116.951 31.7136 118.011 31.5176 118.38 31.3792C119.637 30.9065 119.21 27.6433 116.812 29.05Z" fill="#9D7B51"/>
<path fill-rule="evenodd" clip-rule="evenodd" d="M122.138 33.3276C122.691 33.5928 122.138 35.357 122.795 35.5184C127.245 36.5561 125.285 35.8182 127.026 34.5037C127.452 34.1808 126.403 31.3674 125.688 31.2982C125.008 31.229 124.017 30.1797 123.59 29.88C122.138 28.8307 118.818 31.6903 122.138 33.3276Z" fill="#9D7B51"/>
<path fill-rule="evenodd" clip-rule="evenodd" d="M127.729 39.5197C127.36 39.7041 127.729 40.8918 127.291 40.9956C124.294 41.6989 125.619 41.1916 124.444 40.3153C124.155 40.0962 124.87 38.2052 125.343 38.1591C125.792 38.1129 126.461 37.4096 126.749 37.202C127.729 36.4871 129.965 38.4127 127.729 39.5197Z" fill="#9D7B51"/>
<path fill-rule="evenodd" clip-rule="evenodd" d="M120.847 37.0178C120.639 37.7442 118.714 37.1331 118.645 36.2337C118.611 35.7725 117.746 35.2075 117.619 34.8731C116.766 32.7399 122.011 32.9475 120.847 37.0178Z" fill="#9D7B51"/>
<path fill-rule="evenodd" clip-rule="evenodd" d="M130.887 46.7726C130.68 47.4991 128.755 46.8879 128.685 45.9886C128.651 45.5273 127.786 44.9623 127.66 44.628C126.806 42.4948 132.051 42.7024 130.887 46.7726Z" fill="#9D7B51"/>
</svg>
