<svg width="285" height="190" viewBox="0 0 285 190" fill="none" xmlns="http://www.w3.org/2000/svg">
<rect width="285" height="190" fill="#F06836"/>
<path d="M222.022 108.26C220.668 104.048 217.998 100.663 214.989 98.0681C207.693 91.75 198.141 90.0201 199.194 92.3141C194.042 80.4677 186.294 67.4929 174.749 57.8277C172.116 55.6088 169.296 53.7284 166.4 52.0737C150.04 43.0478 130.221 43.2735 114.99 49.2907C109.461 51.4344 104.572 54.3302 100.624 57.8277C88.1377 68.8844 83.7376 89.0423 82.2709 101.265C82.0077 103.597 81.8196 105.59 81.7444 107.244C76.6673 105.176 72.4929 104.424 69.5218 105.477C62.4892 107.997 54.4035 123.641 84.9035 134.999C103.331 141.844 129.018 144.401 151.62 143.95C166.513 143.649 180.089 142.069 189.416 139.625C212.996 133.344 226.648 122.626 222.022 108.26Z" fill="url(#paint0_radial)"/>
<path opacity="0.4" d="M214.989 98.0304C214.087 104.424 212.206 114.503 207.956 119.505C207.167 116.947 200.698 95.6611 199.156 92.314C198.141 89.9823 207.693 91.7499 214.989 98.0304Z" fill="#E5BD7E"/>
<path d="M208.032 120.595C208.032 120.595 207.317 120.934 206.001 121.46C200.209 123.754 182.496 130.072 158.728 131.125C143.497 131.802 122.361 128.493 105.626 125.183C105.626 125.183 105.588 125.183 105.588 125.146C92.9518 117.812 81.6318 110.366 81.6318 110.366C81.6318 108.786 81.7823 105.477 82.2712 101.227L82.3088 101.077C82.3088 101.077 90.6953 103.521 104.46 105.778C124.693 109.125 156.622 112.058 190.958 106.229C195.132 105.514 199.307 104.687 203.519 103.747C203.519 103.747 203.557 103.747 203.594 103.747L206.34 112.81L207.919 119.843L208.032 120.595Z" fill="url(#paint1_radial)"/>
<path opacity="0.4" d="M98.7433 121.122C89.1533 115.33 81.5941 110.403 81.5941 110.403C81.5941 108.824 81.7445 105.514 82.2335 101.265C83.7002 89.0421 88.1003 68.8466 100.586 57.8275C104.535 54.33 109.424 51.4342 114.952 49.2905C109.198 60.3096 98.2544 86.0334 98.7433 121.122Z" fill="#F7D599"/>
<path opacity="0.4" d="M208.032 119.768C208.032 119.768 207.994 119.805 207.881 119.918C207.618 120.181 206.979 120.708 206.001 121.498C201.413 123.19 201.413 123.19 195.884 124.958C193.665 93.2165 178.773 68.9594 166.362 52.1111C169.295 53.7282 172.078 55.6462 174.711 57.8651C190.168 70.8022 198.818 89.6814 203.556 103.822C204.684 107.131 205.587 110.215 206.302 112.885C207.091 115.631 207.618 118 208.032 119.768Z" fill="#F7D599"/>
<path d="M160.345 143.611C137.705 144.063 103.331 141.844 84.9035 134.999C54.4035 123.641 62.4892 108.034 69.5218 105.477C71.2142 104.875 73.245 104.913 75.6143 105.477C83.0983 107.244 93.8541 114.164 107.619 122.137C128.002 133.984 145.415 139.662 155.268 142.333C157.261 142.897 158.991 143.273 160.345 143.611Z" fill="#E5BD7E"/>
<path opacity="0.5" d="M160.345 143.611C137.705 144.063 103.331 141.844 84.9035 134.999C54.4035 123.641 62.4892 108.034 69.5218 105.477C71.2142 104.875 73.245 104.913 75.6143 105.477C74.8245 112.848 75.0126 122.776 81.6316 128.042C89.5668 134.36 133.004 142.671 155.268 142.333C157.261 142.897 158.991 143.273 160.345 143.611Z" fill="#E5BD7E"/>
<path opacity="0.5" d="M190.958 106.304C185.843 108.824 175.275 110.516 153.5 110.93C129.582 111.344 112.094 107.658 104.46 105.853C124.693 109.163 156.622 112.096 190.958 106.304Z" fill="url(#paint2_radial)"/>
<defs>
<radialGradient id="paint0_radial" cx="0" cy="0" r="1" gradientUnits="userSpaceOnUse" gradientTransform="translate(138.868 66.8923) scale(92.5395)">
<stop offset="0.0103" stop-color="#F7D599"/>
<stop offset="0.9948" stop-color="#ECB175"/>
</radialGradient>
<radialGradient id="paint1_radial" cx="0" cy="0" r="1" gradientUnits="userSpaceOnUse" gradientTransform="translate(133.319 119.349) scale(64.6028)">
<stop offset="7.972e-05" stop-color="#939195"/>
<stop offset="0.9897" stop-color="#777570"/>
</radialGradient>
<radialGradient id="paint2_radial" cx="0" cy="0" r="1" gradientUnits="userSpaceOnUse" gradientTransform="translate(147.697 108.385) scale(30.6335)">
<stop offset="7.972e-05" stop-color="#939195"/>
<stop offset="0.9897" stop-color="#777570"/>
</radialGradient>
</defs>
</svg>
