<svg width="285" height="190" viewBox="0 0 285 190" fill="none" xmlns="http://www.w3.org/2000/svg">
<rect width="285" height="190" fill="#F1D5B2"/>
<path d="M176.491 50.5235C176.491 50.5235 185.778 60.0816 190.458 55.8477C195.137 51.6138 191.651 42.4377 191.651 42.4377C191.651 42.4377 176.252 45.0878 176.491 50.5235Z" fill="#FB7C4D"/>
<path opacity="0.45" d="M190.45 55.8476C190.545 55.7601 190.633 55.6726 190.72 55.585C185.452 56.5639 179.061 53.1338 183.892 51.4705C188.691 49.8151 191.087 46.1383 192.121 43.9418C191.954 43.329 191.803 42.8754 191.723 42.6287L177.231 48.4145C176.737 49.067 176.459 49.7674 176.491 50.5234C176.491 50.5234 185.778 60.0815 190.45 55.8476Z" fill="#FB7C4D"/>
<path d="M191.023 51.7331C190.88 51.6615 191.031 51.0089 191.071 50.3563C191.11 49.7037 191.079 49.067 191.079 49.067C191.079 49.067 191.166 48.4383 191.19 47.7857C191.206 47.1331 191.126 46.4726 191.277 46.4089C191.413 46.3532 191.779 46.9819 191.97 47.6823C192.153 48.3826 192.185 49.1148 192.185 49.1148C192.185 49.1148 192.081 49.8469 191.835 50.5234C191.58 51.2158 191.158 51.8047 191.023 51.7331Z" fill="#F06836"/>
<path d="M190.06 54.622C189.933 54.5425 189.901 54.2719 189.901 54.049C189.885 53.8023 189.893 53.5874 189.893 53.5874C189.893 53.5874 190.012 53.3964 190.171 53.2054C190.322 53.0065 190.513 52.8155 190.665 52.8473C190.816 52.8871 190.895 53.1418 190.927 53.4044C190.959 53.667 190.943 53.9217 190.943 53.9217C190.943 53.9217 190.8 54.1445 190.617 54.3435C190.418 54.5504 190.187 54.7016 190.06 54.622Z" fill="#F06836"/>
<path d="M177.979 35.9117C177.979 35.9117 171.986 41.9681 174.811 50.2926C174.811 50.2926 179.348 52.0912 184.807 49.1466C190.267 46.202 192.805 42.1989 192.805 42.1989C192.805 42.1989 191.333 34.2643 179.809 35.0363C179.809 35.0363 175.002 24.8972 173.777 26.099C172.559 27.3087 172.297 29.3221 173.363 30.1578C174.437 31.0014 177.207 33.8744 177.979 35.9117Z" fill="#6F3014"/>
<path opacity="0.56" d="M186.837 37.2646C186.853 37.2407 186.996 37.3681 187.227 37.6228C187.402 37.8933 187.688 38.3629 187.601 38.9836C187.426 40.2411 185.969 41.3951 184.354 41.5144C184.147 41.5065 183.94 41.5224 183.733 41.4826L183.542 41.4428C183.518 41.4428 183.502 41.4348 183.486 41.4269L183.438 41.411L183.462 41.4746L183.478 41.5304C183.486 41.5383 183.478 41.5383 183.486 41.5383L183.502 41.6656C183.59 42.4376 183.383 43.2016 183.001 43.7269C182.627 44.2681 182.093 44.5546 181.703 44.658C181.298 44.7456 181.059 44.7058 181.059 44.7058C181.059 44.7058 180.812 44.7058 180.43 44.5307C180.255 44.4352 180.032 44.2999 179.857 44.1009C179.77 43.9975 179.666 43.894 179.579 43.7746C179.467 43.5995 179.515 43.6553 179.491 43.6234C179.483 43.6075 179.483 43.5916 179.475 43.5677C179.467 43.5438 179.459 43.512 179.459 43.5359L179.435 43.5836L179.419 43.6155L179.411 43.6234L179.388 43.6791L179.332 43.8065C179.173 44.1407 178.982 44.4829 178.719 44.8013C178.456 45.1116 178.098 45.4141 177.629 45.5016C177.151 45.5892 176.698 45.3982 176.371 45.1674C176.021 44.9604 175.743 44.5625 175.639 44.1964C175.408 43.4483 175.528 42.748 175.663 42.1909C175.949 41.0528 176.562 40.4958 176.594 40.5435C176.642 40.5753 176.156 41.1722 175.981 42.2625C175.894 42.7878 175.854 43.4563 176.077 44.0452C176.196 44.3397 176.363 44.5705 176.658 44.7296C176.936 44.9047 177.239 45.0002 177.509 44.9286C178.058 44.7933 178.456 44.1248 178.703 43.5359L178.815 43.2494C178.87 43.1061 178.918 42.931 178.966 42.7719C179.061 42.4615 179.149 42.0874 179.228 41.7691L179.292 41.5304L179.324 41.411C179.332 41.3791 179.356 41.4667 179.364 41.4826C179.419 41.6259 179.483 41.7611 179.539 41.8964C179.658 42.175 179.762 42.4456 179.897 42.7002C180.016 42.931 180.183 43.2812 180.207 43.313C180.279 43.3926 180.35 43.4563 180.414 43.5279C180.47 43.6075 180.549 43.6393 180.613 43.6791C180.677 43.711 180.733 43.7746 180.788 43.7826C181.011 43.8781 181.146 43.8701 181.146 43.8701C181.146 43.8701 181.178 43.8781 181.242 43.8861C181.306 43.894 181.401 43.8701 181.52 43.8622C181.751 43.7985 182.101 43.6473 182.388 43.2653C182.674 42.8992 182.865 42.3342 182.826 41.7134C182.818 41.6656 182.826 41.6577 182.818 41.5701C182.802 41.4826 182.794 41.3871 182.77 41.3155L182.658 40.838C182.627 40.6788 182.571 40.5037 182.555 40.3684L183.017 40.5594C183.168 40.6231 183.319 40.6947 183.486 40.7425L183.733 40.83L183.852 40.8618C184.011 40.9016 184.179 40.8937 184.346 40.9096C185.707 40.8857 187.083 39.9307 187.298 38.912C187.418 38.4027 187.227 37.9729 187.099 37.6944C186.916 37.4556 186.821 37.2885 186.837 37.2646ZM191.54 40.8857C191.715 41.4746 191.429 42.366 190.864 42.9549C190.577 43.2414 190.211 43.4404 189.853 43.5677C189.479 43.6632 189.113 43.7189 188.771 43.7269C188.595 43.7348 188.468 43.7348 188.277 43.7348C187.991 43.7348 187.728 43.7348 187.513 43.7348C187.075 43.7269 186.797 43.7269 186.741 43.7269C186.876 43.902 186.884 43.9099 186.884 43.9099C186.884 43.9099 187.052 44.1089 187.354 44.4909C187.426 44.5864 187.521 44.6899 187.577 44.8092C187.64 44.9206 187.625 44.9127 187.664 44.9843C187.696 45.0798 187.72 45.1912 187.712 45.3106C187.704 45.5414 187.569 45.8359 187.274 46.0826C186.996 46.3293 186.598 46.5283 186.184 46.6476C185.364 46.9023 184.37 46.7829 184.083 46.2258C183.797 45.6687 183.98 45.1435 183.892 45.1435C183.868 45.1355 183.812 45.2469 183.741 45.4539C183.701 45.6608 183.629 45.9871 183.789 46.3691C183.924 46.759 184.354 47.0853 184.831 47.2047C185.309 47.3321 185.826 47.3241 186.327 47.2286C186.821 47.1251 187.314 46.9341 187.712 46.6238C188.118 46.3293 188.436 45.8597 188.484 45.3822C188.508 45.1435 188.476 44.9366 188.428 44.7535C188.404 44.6819 188.373 44.6182 188.357 44.5546C188.365 44.5625 188.357 44.5546 188.365 44.5546H188.373L188.365 44.5466C188.365 44.5466 188.365 44.5386 188.373 44.5386C188.468 44.5307 188.675 44.5227 188.85 44.5068C189.216 44.4829 189.654 44.3874 190.108 44.2362C190.553 44.0452 190.991 43.7587 191.325 43.3688C191.962 42.5888 192.185 41.5224 191.874 40.8141C191.58 40.1137 191.071 39.9387 191.071 39.9705C190.983 40.0023 191.397 40.2809 191.54 40.8857ZM181.441 47.9289C181.138 48.2473 180.597 48.494 180.024 48.5258C179.451 48.5736 178.878 48.4224 178.504 48.2552C178.456 48.2393 178.409 48.2075 178.369 48.1916C178.273 48.1438 178.186 48.0881 178.106 48.0483C177.939 47.9528 177.796 47.8732 177.676 47.8096C177.645 47.7936 177.621 47.7777 177.589 47.7618C177.565 47.7539 177.565 47.8016 177.549 47.8175C177.533 47.8653 177.517 47.9051 177.501 47.9449C177.477 48.0085 177.462 48.0483 177.462 48.0483C177.462 48.0483 177.414 48.1995 177.318 48.4622C177.263 48.6372 177.247 48.6452 177.207 48.7168C177.175 48.7805 177.143 48.868 177.08 48.9317C176.984 49.0829 176.825 49.1784 176.642 49.2341C176.451 49.2819 176.204 49.2182 175.981 49.0829C175.52 48.8203 175.233 48.2632 175.154 47.8414C175.074 47.4116 175.13 47.0933 175.066 47.0774C175.026 47.0615 174.851 47.3559 174.835 47.8732C174.827 48.3746 175.05 49.1068 175.647 49.5684C175.934 49.7912 176.316 49.9663 176.729 49.9265C177.127 49.8867 177.478 49.6718 177.661 49.449C177.78 49.3455 177.836 49.2341 177.899 49.1307C177.955 49.0431 178.035 48.9078 178.011 48.9476C178.019 48.9476 178.019 48.9476 178.019 48.9476C178.019 48.9476 178.019 48.9397 178.019 48.9317C178.019 48.9317 178.019 48.9237 178.027 48.9237C178.027 48.9237 178.027 48.9237 178.043 48.9237C178.098 48.9476 178.154 48.9715 178.218 48.9954C178.719 49.1705 179.419 49.2739 180.104 49.1307C180.788 49.0113 181.409 48.5974 181.688 48.1597C181.974 47.73 181.99 47.3798 181.95 47.3719C181.886 47.3241 181.751 47.6186 181.441 47.9289ZM182.865 36.6439C182.77 36.8587 182.555 37.0895 182.316 37.2726C182.077 37.4636 181.783 37.583 181.568 37.6705C181.345 37.7421 181.202 37.7899 181.202 37.7899C181.202 37.7899 181.059 37.8456 180.836 37.9252C180.613 37.9888 180.303 38.0843 179.984 38.1082C179.666 38.1401 179.34 38.1401 179.109 38.0923C178.87 38.0605 178.711 37.9888 178.671 38.0446C178.639 38.0843 178.743 38.2515 178.998 38.3947C179.236 38.5539 179.61 38.6574 179.984 38.6971C180.74 38.7926 181.481 38.5698 181.481 38.5698C181.481 38.5698 181.656 38.4902 181.91 38.3549C182.157 38.2037 182.483 37.9888 182.73 37.6864C182.977 37.384 183.168 37.0259 183.184 36.7235C183.216 36.4369 183.144 36.2459 183.096 36.2539C183.025 36.2619 182.985 36.4369 182.865 36.6439Z" fill="#A03202"/>
<path opacity="0.45" d="M191.659 39.6203C191.317 42.3103 189.901 45.5414 185.372 47.149C176.825 50.1732 176.729 43.13 177.915 39.3418C178.711 36.811 180.39 35.5535 181.417 34.9885C180.9 34.9885 180.366 34.9965 179.809 35.0363C179.809 35.0363 179.666 34.7418 179.435 34.2643C178.241 34.0733 175.536 30.3726 174.326 28.8366C173.618 27.9373 173.57 26.9664 173.745 26.1467C172.559 27.3564 172.312 29.33 173.371 30.1657C174.437 31.0093 177.207 33.8823 177.979 35.9196C177.979 35.9196 171.986 41.976 174.811 50.3005C174.811 50.3005 179.348 52.0992 184.807 49.1545C190.267 46.2099 192.805 42.2068 192.805 42.2068C192.805 42.2068 192.583 41.021 191.659 39.6203Z" fill="#6F3014"/>
<path d="M69.1152 83.4157C69.1152 83.4157 78.4028 92.9738 83.0823 88.7399C87.7619 84.506 84.2761 75.33 84.2761 75.33C84.2761 75.33 68.8844 77.9801 69.1152 83.4157Z" fill="#F09E74"/>
<path opacity="0.45" d="M83.0823 88.732C83.1778 88.6444 83.2653 88.5569 83.3529 88.4693C78.0844 89.4482 71.6938 86.0181 76.5245 84.3548C81.3235 82.6995 83.719 79.0227 84.7536 76.8261C84.5864 76.2133 84.4352 75.7597 84.3556 75.513L69.8633 81.2988C69.3699 81.9514 69.0914 82.6517 69.1232 83.4078C69.1152 83.4157 78.4027 92.9738 83.0823 88.732Z" fill="#F09E74"/>
<path d="M83.6553 84.6254C83.512 84.5538 83.6632 83.9012 83.703 83.2486C83.7428 82.596 83.711 81.9594 83.711 81.9594C83.711 81.9594 83.7985 81.3306 83.8224 80.678C83.8383 80.0254 83.7587 79.3649 83.9099 79.3012C84.0452 79.2455 84.4113 79.8742 84.6023 80.5746C84.7854 81.2749 84.8172 82.0071 84.8172 82.0071C84.8172 82.0071 84.7137 82.7393 84.467 83.4157C84.2124 84.1081 83.7826 84.6891 83.6553 84.6254Z" fill="#F09E74"/>
<path d="M82.6923 87.5143C82.565 87.4347 82.5331 87.1641 82.5331 86.9413C82.5172 86.6946 82.5252 86.4797 82.5252 86.4797C82.5252 86.4797 82.6446 86.2887 82.8037 86.0977C82.9549 85.8987 83.1459 85.7077 83.2971 85.7396C83.4484 85.7794 83.5279 86.034 83.5598 86.2967C83.5916 86.5593 83.5757 86.814 83.5757 86.814C83.5757 86.814 83.4324 87.0368 83.2494 87.2358C83.0504 87.4347 82.8196 87.5859 82.6923 87.5143Z" fill="#F09E74"/>
<path d="M70.6114 68.804C70.6114 68.804 64.6187 74.8604 67.4439 83.1849C67.4439 83.1849 71.9803 84.9835 77.4398 82.0389C82.8993 79.0943 85.438 75.0912 85.438 75.0912C85.438 75.0912 83.9657 67.1566 72.4419 67.9286C72.4419 67.9286 67.6349 57.7895 66.4093 58.9912C65.1917 60.2009 64.9291 62.2144 65.9955 63.05C67.0699 63.8857 69.8315 66.7587 70.6114 68.804Z" fill="#6F1902"/>
<path opacity="0.56" d="M79.4692 70.1569C79.4851 70.133 79.6284 70.2604 79.8592 70.515C80.0343 70.7856 80.3208 71.2552 80.2332 71.8759C80.0581 73.1334 78.6017 74.2873 76.9862 74.4067C76.7793 74.3987 76.5723 74.4147 76.3654 74.3749L76.1744 74.3351C76.1505 74.3351 76.1346 74.3271 76.1187 74.3192L76.071 74.3032L76.0948 74.3669L76.1107 74.4226C76.1187 74.4306 76.1108 74.4306 76.1187 74.4306L76.1346 74.5579C76.2222 75.3299 76.0152 76.0939 75.6332 76.6192C75.2592 77.1603 74.726 77.4468 74.336 77.5503C73.9301 77.6378 73.6914 77.598 73.6914 77.598C73.6914 77.598 73.4447 77.598 73.0627 77.423C72.8876 77.3275 72.6648 77.1922 72.4897 76.9932C72.4021 76.8897 72.2987 76.7863 72.2111 76.6669C72.0997 76.4918 72.1474 76.5475 72.1236 76.5157C72.1156 76.4998 72.1156 76.4839 72.1077 76.46C72.0997 76.4361 72.0917 76.4043 72.0917 76.4282L72.0679 76.4759L72.0519 76.5077L72.044 76.5157L72.0201 76.5714L71.9644 76.6987C71.8052 77.033 71.6142 77.3752 71.3516 77.6935C71.089 78.0039 70.7308 78.3063 70.2613 78.3939C69.7838 78.4814 69.3302 78.2904 69.0039 78.0596C68.6537 77.8527 68.3751 77.4548 68.2717 77.0887C68.0409 76.3406 68.1603 75.6403 68.2955 75.0832C68.5821 73.9451 69.1949 73.388 69.2267 73.4358C69.2744 73.4676 68.789 74.0645 68.6139 75.1548C68.5263 75.6801 68.4866 76.3486 68.7094 76.9375C68.8288 77.232 68.9959 77.4628 69.2904 77.6219C69.5689 77.797 69.8713 77.8925 70.1419 77.8209C70.691 77.6856 71.089 77.0171 71.3357 76.4282L71.4471 76.1416C71.5028 75.9984 71.5505 75.8233 71.5983 75.6641C71.6938 75.3538 71.7814 74.9797 71.8609 74.6614L71.9246 74.4226L71.9564 74.3032C71.9644 74.2714 71.9883 74.359 71.9962 74.3749C72.0519 74.5181 72.1156 74.6534 72.1713 74.7887C72.2907 75.0673 72.3942 75.3378 72.5294 75.5925C72.6488 75.8233 72.816 76.1735 72.8398 76.2053C72.9115 76.2849 72.9831 76.3486 73.0467 76.4202C73.1024 76.4998 73.182 76.5316 73.2457 76.5714C73.3094 76.6032 73.3651 76.6669 73.4208 76.6749C73.6436 76.7704 73.7789 76.7624 73.7789 76.7624C73.7789 76.7624 73.8108 76.7704 73.8744 76.7783C73.9381 76.7863 74.0336 76.7624 74.153 76.7545C74.3838 76.6908 74.7339 76.5396 75.0204 76.1576C75.3069 75.7915 75.4979 75.2264 75.4581 74.6057C75.4502 74.5579 75.4582 74.55 75.4502 74.4624C75.4343 74.3749 75.4263 74.2794 75.4024 74.2077L75.291 73.7302C75.2592 73.5711 75.2035 73.396 75.1876 73.2607L75.6492 73.4517C75.8004 73.5154 75.9516 73.587 76.1187 73.6347L76.3654 73.7223L76.4848 73.7541C76.644 73.7939 76.819 73.7859 76.9782 73.8019C78.3391 73.778 79.7159 72.823 79.9308 71.8043C80.0502 71.295 79.8592 70.8652 79.7318 70.5867C79.5408 70.3399 79.4533 70.1728 79.4692 70.1569ZM84.1727 73.778C84.3477 74.3669 84.0612 75.2583 83.4962 75.8472C83.2097 76.1337 82.8436 76.3327 82.4855 76.46C82.1114 76.5555 81.7453 76.6112 81.4031 76.6192C81.228 76.6271 81.1007 76.6271 80.9097 76.6271C80.6232 76.6271 80.3606 76.6271 80.1457 76.6271C79.708 76.6192 79.4294 76.6192 79.3737 76.6192C79.509 76.7942 79.517 76.8022 79.517 76.8022C79.517 76.8022 79.6841 77.0012 79.9865 77.3832C80.0581 77.4787 80.1536 77.5821 80.2093 77.7015C80.273 77.8129 80.2571 77.805 80.2969 77.8766C80.3287 77.9721 80.3526 78.0835 80.3446 78.2029C80.3367 78.4337 80.2014 78.7281 79.9069 78.9749C79.6284 79.2216 79.2305 79.4205 78.8166 79.5399C77.9969 79.7946 77.0021 79.6752 76.7156 79.1181C76.4291 78.561 76.6121 78.0358 76.5246 78.0358C76.5007 78.0278 76.445 78.1392 76.3734 78.3461C76.3336 78.5531 76.262 78.8794 76.4211 79.2614C76.5564 79.6513 76.9862 79.9776 77.4637 80.097C77.9412 80.2243 78.4585 80.2164 78.9599 80.1209C79.4533 80.0174 79.9467 79.8264 80.3446 79.516C80.7505 79.2216 81.0689 78.752 81.1166 78.2745C81.1405 78.0358 81.1087 77.8288 81.0609 77.6458C81.037 77.5742 81.0052 77.5105 80.9893 77.4468C80.9972 77.4548 80.9893 77.4468 80.9972 77.4468H81.0052L80.9972 77.4389C80.9972 77.4389 80.9972 77.4309 81.0052 77.4309C81.1007 77.423 81.3076 77.415 81.4827 77.3991C81.8488 77.3752 82.2865 77.2797 82.7401 77.1285C83.1858 76.9375 83.6235 76.651 83.9578 76.261C84.5944 75.4811 84.8173 74.4147 84.5069 73.7064C84.2124 73.006 83.7031 72.8309 83.7031 72.8628C83.6156 72.8946 84.0294 73.1731 84.1727 73.778ZM74.0654 80.8133C73.763 81.1316 73.2218 81.3783 72.6488 81.4101C72.0758 81.4579 71.5028 81.3067 71.1288 81.1396C71.081 81.1236 71.0333 81.0918 70.9935 81.0759C70.898 81.0281 70.8104 80.9724 70.7308 80.9326C70.5637 80.8371 70.4205 80.7575 70.3011 80.6939C70.2693 80.678 70.2454 80.662 70.2135 80.6461C70.1897 80.6382 70.1897 80.6859 70.1738 80.7018C70.1578 80.7496 70.1419 80.7894 70.126 80.8292C70.1021 80.8928 70.0862 80.9326 70.0862 80.9326C70.0862 80.9326 70.0385 81.0838 69.943 81.3465C69.8872 81.5216 69.8713 81.5295 69.8315 81.6011C69.7997 81.6648 69.7679 81.7523 69.7042 81.816C69.6087 81.9672 69.4495 82.0627 69.2665 82.1184C69.0755 82.1662 68.8288 82.1025 68.6059 81.9672C68.1444 81.7046 67.8578 81.1475 67.7783 80.7257C67.6987 80.296 67.7544 79.9776 67.6907 79.9617C67.6509 79.9458 67.4758 80.2402 67.4599 80.7575C67.452 81.2589 67.6748 81.9911 68.2717 82.4527C68.5582 82.6755 68.9402 82.8506 69.354 82.8108C69.752 82.771 70.1021 82.5562 70.2852 82.3333C70.4045 82.2299 70.4603 82.1184 70.5239 82.015C70.5796 81.9274 70.6592 81.7921 70.6353 81.8319C70.6433 81.8319 70.6433 81.8319 70.6433 81.8319C70.6433 81.8319 70.6433 81.824 70.6433 81.816C70.6433 81.816 70.6433 81.8081 70.6513 81.8081C70.6513 81.8081 70.6513 81.8081 70.6672 81.8081C70.7229 81.8319 70.7786 81.8558 70.8423 81.8797C71.3436 82.0548 72.044 82.1582 72.7284 82.015C73.4128 81.8956 74.0336 81.4818 74.3121 81.0441C74.5986 80.6143 74.6146 80.2641 74.5748 80.2562C74.5111 80.2084 74.3838 80.5108 74.0654 80.8133ZM75.498 69.5361C75.4025 69.751 75.1876 69.9818 74.9488 70.1649C74.7101 70.3559 74.4156 70.4752 74.2007 70.5628C73.9779 70.6344 73.8346 70.6822 73.8346 70.6822C73.8346 70.6822 73.6914 70.7379 73.4685 70.8174C73.2457 70.8811 72.9353 70.9766 72.617 71.0005C72.2986 71.0323 71.9724 71.0323 71.7416 70.9846C71.5028 70.9527 71.3436 70.8811 71.3038 70.9368C71.272 70.9766 71.3755 71.1437 71.6301 71.287C71.8689 71.4462 72.2429 71.5496 72.617 71.5894C73.373 71.6849 74.1132 71.4621 74.1132 71.4621C74.1132 71.4621 74.2883 71.3825 74.5429 71.2472C74.7896 71.096 75.1159 70.8811 75.3627 70.5787C75.6094 70.2763 75.8004 69.9181 75.8163 69.6157C75.8481 69.3292 75.7765 69.1382 75.7287 69.1462C75.6571 69.1541 75.6173 69.3292 75.498 69.5361Z" fill="#A03202"/>
<path opacity="0.45" d="M84.292 72.5126C83.9497 75.2026 82.5331 78.4337 78.0048 80.0413C69.4574 83.0655 69.3619 76.0223 70.5477 72.2341C71.3436 69.7033 73.0228 68.4459 74.0494 67.8808C73.5321 67.8808 72.9989 67.8888 72.4418 67.9286C72.4418 67.9286 72.2986 67.6341 72.0678 67.1566C70.874 66.9656 68.1682 63.2649 66.9585 61.729C66.2502 60.8296 66.2024 59.8587 66.3775 59.039C65.1917 60.2487 64.945 62.2224 66.0034 63.058C67.0699 63.9016 69.8394 66.7746 70.6114 68.812C70.6114 68.812 64.6187 74.8683 67.4439 83.1929C67.4439 83.1929 71.9803 84.9915 77.4397 82.0469C82.8992 79.1022 85.438 75.0991 85.438 75.0991C85.438 75.0991 85.2151 73.9133 84.292 72.5126Z" fill="#6F1902"/>
<path d="M212.94 65.8674C212.94 65.8674 206.701 57.7418 199.753 62.5646C193.649 66.8065 196.005 78.4417 199.339 83.6704C201.003 86.2808 204.13 88.3977 207.155 86.806C206.812 86.9891 207.879 88.2465 208.022 88.3738C209.017 89.2174 210.919 89.1936 212.113 88.8036C213.314 88.4057 214.564 88.0316 215.686 87.4586C218.806 85.8669 221.551 83.4794 223.541 80.5984C228.252 73.7621 227.075 68.8199 223.302 65.7559C218.28 61.6653 212.94 65.8674 212.94 65.8674Z" fill="#DC8748"/>
<path opacity="0.45" d="M199.841 63.5435C206.788 58.7127 213.036 66.8383 213.036 66.8383C213.036 66.8383 218.376 62.6362 223.406 66.7189C225.117 68.1116 226.287 69.9023 226.621 72.075C226.533 69.4566 225.284 67.3476 223.318 65.748C218.288 61.6653 212.948 65.8674 212.948 65.8674C212.948 65.8674 206.709 57.7418 199.761 62.5646C196.419 64.8885 195.615 69.4248 196.116 73.9213C195.822 69.767 196.737 65.7002 199.841 63.5435Z" fill="#C56C2A"/>
<path opacity="0.45" d="M223.987 66.3528C223.565 68.1275 222.665 70.0853 221.185 72.2341C219.196 75.115 216.458 77.5105 213.33 79.0943C210.815 80.3756 207.091 81.5057 204.258 80.869C201.337 80.2084 198.559 77.797 196.976 75.314C196.665 74.8285 196.363 74.2874 196.076 73.7064C196.466 77.4946 197.787 81.2669 199.331 83.6783C200.995 86.2887 204.122 88.4056 207.146 86.8139C206.804 86.997 207.871 88.2544 208.014 88.3818C209.009 89.2254 210.911 89.2015 212.105 88.8115C213.306 88.4136 214.556 88.0395 215.678 87.4665C218.798 85.8749 221.543 83.4873 223.533 80.6064C227.958 74.1919 227.202 69.4407 223.987 66.3528Z" fill="#C56C2A"/>
<path d="M218.336 57.4871C218.456 58.0044 217.166 58.9117 216.792 59.3255C216.331 59.8508 215.941 60.4079 215.702 60.8695C215.567 61.0843 215.495 61.2992 215.423 61.4265C215.36 61.5618 215.32 61.6414 215.32 61.6414C215.32 61.6414 215.272 61.713 215.193 61.8404C215.121 61.9757 214.978 62.1428 214.858 62.3816C214.588 62.8431 214.285 63.4957 214.007 64.1881C213.458 65.5729 213.139 67.1089 212.813 67.1009C212.503 67.1009 212.224 65.4854 212.407 63.8141C212.503 62.9864 212.678 62.1508 212.893 61.538C213.314 60.0259 213.967 58.2511 215.407 57.3996C216.092 57.0017 216.729 57.0733 217.477 57.121C218.05 57.1529 218.296 57.2961 218.336 57.4871Z" fill="#6F3014"/>
<path opacity="0.45" d="M217.796 57.1614C217.533 57.6787 216.634 58.3392 216.324 58.6814C215.862 59.2067 215.472 59.7638 215.233 60.2254C215.098 60.4403 215.026 60.6551 214.955 60.7825C214.891 60.9178 214.851 60.9973 214.851 60.9973C214.851 60.9973 214.803 61.069 214.724 61.1963C214.652 61.3316 214.509 61.4987 214.39 61.7375C214.119 62.1911 213.817 62.8517 213.538 63.544C213.069 64.7378 212.758 66.043 212.48 66.3693C212.567 66.815 212.687 67.1015 212.814 67.1015C213.14 67.1094 213.458 65.5735 214.008 64.1887C214.286 63.4963 214.589 62.8437 214.859 62.3821C214.979 62.1434 215.114 61.9683 215.193 61.8409C215.273 61.7136 215.321 61.642 215.321 61.642C215.321 61.642 215.361 61.5624 215.424 61.4271C215.496 61.2918 215.567 61.0849 215.703 60.87C215.942 60.4084 216.331 59.8513 216.793 59.3261C217.175 58.9122 218.464 57.997 218.337 57.4877C218.305 57.3365 218.138 57.2171 217.796 57.1614Z" fill="#6F3014"/>
<path opacity="0.45" d="M223.541 80.5984C227.854 74.3431 227.226 69.6715 224.194 66.5756C227.051 72.5445 220.397 83.734 214.174 85.3655C209.057 86.7025 208.078 82.2776 208.078 82.2776C208.078 82.2776 203.661 86.3364 198.886 80.0652C196.538 76.9773 195.965 73.3642 195.997 70.4355C195.71 75.1787 197.342 80.5666 199.331 83.6783C200.995 86.2887 204.122 88.4056 207.147 86.8139C206.804 86.997 207.871 88.2544 208.014 88.3818C209.009 89.2253 210.911 89.2015 212.105 88.8115C213.306 88.4136 214.556 88.0395 215.678 87.4665C218.814 85.8669 221.551 83.4794 223.541 80.5984Z" fill="#C56C2A"/>
<path opacity="0.45" d="M197.66 74.2317C197.66 74.2317 196.514 64.9601 202.427 63.2808C208.348 61.6016 212.94 67.3476 210.815 68.3185C208.698 69.2895 203.923 68.7642 202.777 70.6185C201.631 72.4649 198.368 76.8818 197.66 74.2317Z" fill="#C56C2A"/>
<g opacity="0.45">
<g opacity="0.45">
<path opacity="0.45" d="M200.66 65.6366C200.772 65.7559 200.637 66.122 200.493 66.4563C200.374 66.8144 200.223 67.1248 200.223 67.1248C200.223 67.1248 200 67.3874 199.729 67.658C199.498 67.9286 199.228 68.2151 199.069 68.1673C198.918 68.1196 198.925 67.7137 198.989 67.2919C199.085 66.894 199.236 66.504 199.236 66.504C199.236 66.504 199.522 66.2016 199.833 65.9469C200.191 65.7082 200.557 65.5172 200.66 65.6366Z" fill="#C56C2A"/>
</g>
<g opacity="0.45">
<path opacity="0.45" d="M206.844 64.8088C206.749 64.9521 206.064 64.6815 205.396 64.6178C204.711 64.5701 204.067 64.6815 204.067 64.6815C204.067 64.6815 203.406 64.6735 202.698 64.785C201.997 64.8964 201.265 65.0874 201.194 64.9362C201.13 64.8009 201.743 64.3393 202.451 64.005C203.167 63.6708 203.979 63.5275 203.979 63.5275C203.979 63.5275 204.823 63.5355 205.595 63.8299C206.367 64.1324 206.932 64.6974 206.844 64.8088Z" fill="#C56C2A"/>
</g>
</g>
<g opacity="0.45">
<g opacity="0.45">
<path opacity="0.45" d="M203.693 85.7157C203.645 85.8191 203.096 85.6838 202.563 85.469C202.037 85.2541 201.536 84.9357 201.536 84.9357C201.536 84.9357 201.098 84.5299 200.772 84.0285C200.454 83.5112 200.334 82.9223 200.446 82.8904C200.565 82.8506 200.867 83.2963 201.249 83.6385C201.639 83.9728 202.069 84.2513 202.069 84.2513C202.069 84.2513 202.443 84.6015 202.865 84.9437C203.303 85.278 203.748 85.6043 203.693 85.7157Z" fill="#C56C2A"/>
</g>
<g opacity="0.45">
<path opacity="0.45" d="M205.643 86.1932C205.627 86.3126 205.444 86.3762 205.237 86.4081C205.03 86.4399 204.823 86.432 204.823 86.432C204.823 86.432 204.664 86.3046 204.528 86.1534C204.393 86.0022 204.29 85.8271 204.353 85.7237C204.417 85.6202 204.616 85.5963 204.799 85.5963C204.974 85.5963 205.133 85.6202 205.133 85.6202C205.133 85.6202 205.26 85.6998 205.388 85.8112C205.507 85.9226 205.65 86.0659 205.643 86.1932Z" fill="#C56C2A"/>
</g>
<g opacity="0.45">
<path opacity="0.45" d="M222.363 80.8292C222.451 80.8929 221.392 82.3334 220.095 83.5749C219.411 84.1479 218.75 84.7686 218.169 85.1188C217.612 85.5008 217.238 85.7475 217.238 85.7475C217.238 85.7475 216.824 85.9385 216.211 86.225C215.614 86.5434 214.723 86.7742 213.871 87.0447C212.097 87.4506 210.29 87.3472 210.298 87.2517C210.298 87.1084 212.057 86.989 213.696 86.4558C214.492 86.1136 215.312 85.851 215.861 85.5008C216.426 85.1904 216.808 84.9915 216.808 84.9915C216.808 84.9915 217.174 84.7686 217.731 84.4423C218.312 84.1479 218.981 83.5987 219.697 83.1053C221.058 82.023 222.26 80.7417 222.363 80.8292Z" fill="#C56C2A"/>
</g>
<g opacity="0.45">
<path opacity="0.45" d="M224.424 76.8818C224.647 76.9693 224.257 78.2506 224.257 78.2506C224.257 78.2506 223.517 79.3569 223.302 79.2375C223.087 79.1181 223.469 77.8686 223.469 77.8686C223.469 77.8686 224.201 76.7942 224.424 76.8818Z" fill="#C56C2A"/>
</g>
</g>
<path d="M213.306 61.4345C213.306 61.4345 217.851 53.492 208.722 48.8681C208.722 48.8681 205.173 55.394 212.757 60.7739" fill="#B63725"/>
<path d="M213.601 60.8296C213.553 60.2248 213.402 59.2459 213.163 58.2829C212.765 56.7549 212.232 55.2667 212.232 55.2667C212.232 55.2667 211.571 53.8341 210.847 52.4494C210.123 51.0646 209.383 49.6958 209.232 49.7515C209.081 49.8151 209.558 51.3113 210.099 52.7757C210.632 54.24 211.158 55.6964 211.158 55.6964C211.158 55.6964 211.794 57.0971 212.383 58.5296C212.829 59.6518 213.203 60.7978 213.418 61.2275C213.466 61.14 213.529 60.9967 213.601 60.8296Z" fill="#6F3014"/>
<path opacity="0.45" d="M213.474 55.593C213.028 57.3598 209.94 51.7968 209.94 51.7968C209.94 51.7968 211.882 56.4764 210.115 56.9221C209.614 57.0494 209.08 56.6117 208.579 55.9193C209.256 57.511 210.521 59.1982 212.757 60.7819L213.306 61.4424C213.306 61.4424 215.774 57.129 213.41 53.0065C213.561 54.0013 213.625 54.9722 213.474 55.593Z" fill="#B63725"/>
<path opacity="0.35" d="M74.32 169.041C77.9461 169.041 80.8857 167.972 80.8857 166.653C80.8857 165.334 77.9461 164.266 74.32 164.266C70.6938 164.266 67.7543 165.334 67.7543 166.653C67.7543 167.972 70.6938 169.041 74.32 169.041Z" fill="#CA873D"/>
<path opacity="0.35" d="M194.095 154.715C192.821 154.715 191.635 154.859 190.633 155.105C185.826 148.961 160.765 144.274 130.546 144.274C96.8981 144.274 69.6245 150.084 69.6245 157.254C69.6245 160.843 76.4529 164.09 87.4992 166.438C86.8466 166.836 86.4566 167.322 86.4566 167.847C86.4566 169.168 88.8601 170.234 91.8286 170.234C94.5981 170.234 96.8742 169.303 97.1687 168.109C106.759 169.454 118.227 170.234 130.554 170.234C144.251 170.234 156.889 169.271 167.068 167.648C167.84 168.675 170.561 169.439 173.809 169.439C177.652 169.439 180.772 168.372 180.772 167.051C180.772 166.343 179.873 165.714 178.448 165.276C184.56 163.621 188.818 161.647 190.577 159.483C191.596 159.737 192.805 159.888 194.11 159.888C197.74 159.888 200.676 158.726 200.676 157.302C200.66 155.877 197.724 154.715 194.095 154.715Z" fill="#CA873D"/>
<path opacity="0.35" d="M193.1 164.663C195.078 164.663 196.681 164.218 196.681 163.669C196.681 163.119 195.078 162.674 193.1 162.674C191.122 162.674 189.519 163.119 189.519 163.669C189.519 164.218 191.122 164.663 193.1 164.663Z" fill="#CA873D"/>
<path opacity="0.35" d="M62.9792 157.103C65.1769 157.103 66.9584 156.39 66.9584 155.511C66.9584 154.632 65.1769 153.92 62.9792 153.92C60.7816 153.92 59 154.632 59 155.511C59 156.39 60.7816 157.103 62.9792 157.103Z" fill="#CA873D"/>
<path d="M112.378 155.575C110.842 155.265 89.9268 162.077 101.307 165.165C112.688 168.261 130.22 157.429 130.22 157.429L112.378 155.575Z" fill="#E3995C"/>
<path d="M104.435 161.464C105.748 160.915 107.173 160.573 107.149 160.35C107.133 160.127 105.613 160.063 104.109 160.358C102.604 160.621 101.164 161.289 101.164 161.289C101.164 161.289 100.83 161.496 100.352 161.846C99.8826 162.204 99.2777 162.729 98.7843 163.358C98.6649 163.517 98.5535 163.677 98.4501 163.844C98.665 164.043 98.9674 164.242 99.3255 164.425C99.421 164.329 99.5245 164.242 99.62 164.146C100.145 163.708 100.718 163.342 101.172 163.096C101.633 162.865 101.936 162.714 101.936 162.714C101.936 162.714 103.106 161.989 104.435 161.464Z" fill="#E3995C"/>
<path d="M106.48 164.95C106.48 164.95 107.579 164.226 108.796 163.629C110.006 163.016 111.311 162.554 111.271 162.332C111.231 162.109 109.799 162.188 108.406 162.546C107.005 162.889 105.684 163.533 105.684 163.533C105.684 163.533 104.419 164.313 103.44 165.443C103.408 165.483 103.376 165.523 103.345 165.563C103.918 165.634 104.499 165.682 105.088 165.698C105.836 165.244 106.48 164.95 106.48 164.95Z" fill="#E3995C"/>
<path opacity="0.45" d="M112.377 155.575C111.868 155.471 109.21 156.156 106.313 157.23C110.627 159.323 116.174 162.833 107.149 163.979C101.705 164.671 99.437 163.143 98.5059 161.528C97.3519 162.881 97.7657 164.202 101.307 165.165C112.688 168.261 130.22 157.429 130.22 157.429L112.377 155.575Z" fill="#E3995C"/>
<path d="M165.97 154.095C164.322 153.768 141.911 161.011 154.104 164.305C166.296 167.6 185.245 152.36 185.245 152.36L165.97 154.095Z" fill="#E3995C"/>
<path d="M157.239 159.857C157.199 159.666 155.807 159.785 154.501 160.374C153.881 160.7 153.228 161.026 152.83 161.361C152.4 161.679 152.122 161.894 152.122 161.894C152.122 161.894 151.708 162.371 151.215 163.024C151.525 163.279 151.947 163.517 152.488 163.748C152.934 163.342 153.252 163.064 153.252 163.064C153.252 163.064 153.467 162.841 153.793 162.507C154.104 162.141 154.597 161.782 155.082 161.369C156.077 160.613 157.295 160.103 157.239 159.857Z" fill="#E3995C"/>
<path d="M158.25 164.759C158.664 164.425 159.046 164.082 159.396 163.876C159.786 163.605 160.048 163.43 160.048 163.43C160.048 163.43 160.295 163.231 160.669 162.936C161.027 162.618 161.576 162.276 162.102 161.894C163.184 161.178 164.378 160.581 164.314 160.358C164.258 160.151 162.89 160.374 161.584 160.867C160.287 161.369 159.085 162.125 159.085 162.125C159.085 162.125 158.831 162.363 158.441 162.73C158.035 163.072 157.597 163.645 157.152 164.186C157.024 164.369 156.905 164.552 156.793 164.735C157.279 164.767 157.764 164.767 158.25 164.759Z" fill="#E3995C"/>
<path opacity="0.45" d="M157.589 156.594C160.51 156.769 174.644 157.851 163.662 162.005C154.677 165.404 152.042 162.18 151.286 160.254C149.854 161.759 150.156 163.247 154.112 164.313C166.304 167.608 185.253 152.368 185.253 152.368L165.978 154.095C165.834 154.063 165.516 154.095 165.086 154.182L159.603 155.814C158.934 156.052 158.258 156.315 157.589 156.594Z" fill="#E3995C"/>
<path d="M75.1876 114.716C74.8613 116.037 69.4177 126.662 71.0651 138.52C71.0651 138.52 65.6295 140.414 62.3347 141.735C62.3347 141.735 68.2637 159.196 82.764 159.53C97.2643 159.857 101.546 154.588 101.546 154.588C101.546 154.588 110.444 159.865 147.021 159.204C183.598 158.543 196.45 150.633 191.508 142.396C191.508 142.396 205.348 142.069 203.04 132.511C200.732 122.953 192.829 114.056 192.829 114.056C192.829 114.056 204.361 113.069 202.714 106.806C201.066 100.542 191.842 103.837 191.842 103.837C191.842 103.837 203.374 87.0288 172.4 87.0288C172.4 87.0288 181.958 79.4524 169.432 73.5154C156.913 67.5864 148.342 72.1943 148.342 72.1943C148.342 72.1943 149.328 66.9178 144.06 66.9178C138.791 66.9178 124.291 73.8417 121.983 76.8022C121.983 76.8022 124.617 72.1863 120.996 71.86C117.375 71.5337 107.157 75.1548 102.214 84.7129C102.214 84.7129 100.567 80.4313 97.5986 82.7392C94.6301 85.0472 86.3931 89.3288 85.0799 101.847C85.0799 101.847 75.8561 94.5973 73.8745 97.5658C71.8928 100.534 77.1692 103.829 77.1692 103.829C77.1692 103.829 66.7914 104.155 67.6112 111.246C68.4309 118.306 75.1876 114.716 75.1876 114.716Z" fill="#935439"/>
<path d="M192.662 106.312C192.662 106.312 200.207 103.638 202.865 107.769C202.849 107.458 202.801 107.14 202.714 106.806C201.592 102.556 196.984 102.707 194.135 103.248C193.514 105.063 192.662 106.312 192.662 106.312Z" fill="#6F3014"/>
<path d="M192.328 144.871C192.384 144.966 192.423 145.054 192.471 145.149C192.463 145.054 192.455 144.966 192.439 144.871C192.376 144.863 192.328 144.871 192.328 144.871Z" fill="#6F3014"/>
<path d="M194.715 116.395C194.063 116.499 193.649 116.531 193.649 116.531C193.649 116.531 199.634 123.264 202.706 131.31C200.923 125.174 197.055 119.459 194.715 116.395Z" fill="#6F3014"/>
<path d="M173.22 89.5118C186.454 89.5118 191.922 92.5758 193.856 96.0934C193.259 91.971 189.248 87.6416 175.392 87.1004C174.397 88.5648 173.22 89.5118 173.22 89.5118Z" fill="#6F3014"/>
<path d="M71.8928 140.995C70.2454 129.129 75.681 118.504 76.0153 117.191C76.0153 117.191 75.1239 117.661 73.954 117.931C72.3464 122.197 69.8952 130.036 71.0731 138.528C71.0731 138.528 65.6374 140.422 62.3427 141.743C62.3427 141.743 62.6689 142.69 63.3375 144.147C66.6482 142.825 71.8928 140.995 71.8928 140.995Z" fill="#6F3014"/>
<path d="M68.4707 113.976C68.4627 113.896 68.4468 113.817 68.4309 113.729C67.6032 106.646 77.989 106.312 77.989 106.312C77.989 106.312 76.4848 105.365 75.3786 104.028C72.4499 104.49 67.0064 106.041 67.6112 111.254C67.7465 112.44 68.0569 113.323 68.4707 113.976Z" fill="#6F3014"/>
<path d="M74.6941 100.057C76.6678 97.0882 85.8996 104.338 85.8996 104.338C87.2207 91.8197 95.4577 87.5301 98.4182 85.2301C101.387 82.9222 103.034 87.2038 103.034 87.2038C107.976 77.6457 118.195 74.0246 121.816 74.3509C122.23 74.3907 122.548 74.4862 122.811 74.6215C123.066 73.38 122.875 72.051 120.988 71.8759C117.367 71.5496 107.149 75.1707 102.206 84.7288C102.206 84.7288 100.559 80.4471 97.5906 82.7551C94.6221 85.063 86.3851 89.3447 85.0719 101.863C85.0719 101.863 75.8481 94.6131 73.8664 97.5816C73.0467 98.8152 73.4765 100.097 74.2644 101.187C74.3121 100.805 74.4394 100.431 74.6941 100.057Z" fill="#6F3014"/>
<path d="M149.161 74.6773C149.161 74.6773 157.725 70.0614 170.251 75.9984C173.244 77.415 174.971 78.9271 175.87 80.4074C175.719 78.2029 174.127 75.7517 169.431 73.5233C158.871 68.5254 151.127 71.0164 148.954 71.9237C149.424 73.2846 149.161 74.6773 149.161 74.6773Z" fill="#6F3014"/>
<path d="M122.803 79.2932C125.111 76.3247 139.611 69.4088 144.88 69.4088C146.71 69.4088 147.777 70.0534 148.397 70.8811C148.31 69.3212 147.601 66.9417 144.052 66.9417C139.5 66.9417 128.071 72.0987 123.551 75.4174C124.18 76.8738 122.803 79.2932 122.803 79.2932Z" fill="#6F3014"/>
<path opacity="0.24" d="M81.61 104.004C81.61 104.004 81.4668 104.004 81.236 104.012C81.4827 104.044 81.61 104.004 81.61 104.004Z" fill="#6F3014"/>
<path opacity="0.24" d="M203.04 132.511C200.732 122.953 192.829 114.056 192.829 114.056C192.829 114.056 204.361 113.069 202.714 106.806C201.066 100.542 191.842 103.837 191.842 103.837C191.842 103.837 193.983 103.837 196.785 106.471C199.586 109.106 182.563 117.271 182.563 117.271C182.563 117.271 192.415 116.523 193.904 125.914C194.7 130.967 164.967 132.153 164.967 132.153C164.967 132.153 166.471 130.363 165.381 128.85C164.29 127.346 159.547 130.195 159.547 130.195C161.362 129.368 163.136 133.641 158.433 135.177C144.1 139.873 129.886 132.663 129.886 132.663C129.886 132.663 133.674 131.015 131.366 126.24C129.058 121.465 116.508 125.572 116.508 125.572C119.277 122.762 116.062 121.33 116.062 121.33C118.227 117.573 112.417 117.183 112.417 117.183C113.571 116.197 115.879 111.748 108.955 107.792C102.039 103.837 98.084 113.889 93.9615 112.241C89.847 110.594 96.0865 101.712 96.0865 101.712C96.0865 101.712 93.1339 103.009 89.5128 102.516C85.8917 102.023 91.1602 95.6001 91.1602 95.6001C91.1602 95.6001 88.5896 97.5977 86.5443 97.908C86.1463 97.9717 86.0668 97.3907 86.2021 96.4278C85.6768 98.0513 85.2709 99.834 85.056 101.855C85.056 101.855 84.5228 101.442 83.6952 100.845L84.0692 105.97C84.0692 105.97 86.3772 105.309 87.5311 107.45C88.6851 109.591 85.7166 110.084 85.7166 110.084C85.7166 110.084 89.5605 114.724 83.2415 116.348C76.9225 117.971 81.3952 111.047 81.3952 111.047C81.3952 111.047 74.7817 112.297 74.0177 108.111C73.3492 104.466 79.6045 104.044 81.2201 103.996C80.5755 103.917 79.127 103.391 76.9862 100.526C75.689 98.7914 75.7447 97.6613 76.2222 96.9371C75.1796 96.7382 74.3122 96.8655 73.8506 97.5579C71.8689 100.526 77.1453 103.821 77.1453 103.821C77.1453 103.821 66.7676 104.147 67.5873 111.238C68.407 118.29 75.1637 114.7 75.1637 114.7C74.8374 116.021 69.3938 126.646 71.0412 138.504C71.0412 138.504 66.6084 140.048 63.3215 141.321C66.6482 145.81 70.325 150.561 74.1689 155.559C74.8772 156.482 75.6094 157.326 76.3495 158.146C78.2595 158.949 80.3844 159.459 82.7401 159.514C97.2404 159.841 101.522 154.572 101.522 154.572C101.522 154.572 110.42 159.849 146.997 159.188C183.574 158.528 196.427 150.617 191.484 142.38C191.508 142.396 205.348 142.069 203.04 132.511Z" fill="#8A3F1D"/>
<path opacity="0.24" d="M191.834 103.845C191.834 103.845 192.829 102.389 193.45 100.335C192.376 102.214 191.834 103.845 191.834 103.845Z" fill="#6F3014"/>
<path opacity="0.24" d="M110.443 92.4724C116.046 90.1645 115.577 95.7274 115.577 95.7274C120.216 89.2652 113.078 89.6711 113.078 89.6711C113.078 89.6711 114.725 86.5434 111.43 83.5749C108.136 80.6064 99.8986 90.6579 99.8986 90.6579C113.245 80.1209 110.443 92.4724 110.443 92.4724Z" fill="#6F3014"/>
<path opacity="0.24" d="M134.581 113.069C137.797 114.796 132.608 120.605 132.608 120.605C132.608 120.605 137.924 118.258 142.126 121.966C146.328 125.675 140.518 130.124 140.518 130.124C140.518 130.124 148.302 127.155 147.689 121.226C147.068 115.297 139.412 117.764 139.412 117.764C139.412 117.764 140.773 116.897 139.906 112.575C139.038 108.254 128.286 111.955 127.793 112.329C127.785 112.329 131.366 111.342 134.581 113.069Z" fill="#6F3014"/>
<g opacity="0.7">
<g opacity="0.7">
<path opacity="0.7" d="M108.621 87.8645C109.178 88.0714 109.449 88.3977 109.544 88.6842C109.664 88.9627 109.671 89.1617 109.679 89.1537C109.687 89.1537 109.687 89.2413 109.703 89.4084C109.735 89.5755 109.703 89.8382 109.671 90.1804C109.632 90.3555 109.584 90.5465 109.528 90.7534L109.465 90.9126L109.433 90.9922L109.345 91.1672C109.226 91.406 109.106 91.6527 108.987 91.9074C108.287 92.9579 107.491 94.1357 106.639 95.4091C107.252 95.051 107.881 94.6849 108.525 94.3108C108.868 94.1198 109.218 93.9209 109.576 93.7299L110.093 93.4433L110.356 93.3001L110.579 93.2205L111.009 93.0693L111.351 92.9499C111.494 92.9022 111.637 92.8624 111.788 92.8465C112.091 92.7828 112.393 92.735 112.696 92.735C113.897 92.6395 115.203 93.133 115.37 94.0482C115.362 94.279 115.41 94.5177 115.314 94.7485C115.282 94.8679 115.258 94.9873 115.219 95.0987C115.163 95.2101 115.107 95.3136 115.051 95.417C114.868 95.8548 114.526 96.1651 114.335 96.4755C113.834 97.0167 113.531 97.3669 113.579 97.4305C113.627 97.4862 114.017 97.2475 114.638 96.7779C114.9 96.4914 115.298 96.2208 115.585 95.7433C115.664 95.6319 115.744 95.5125 115.823 95.3932C115.895 95.2658 115.943 95.1146 115.998 94.9634C116.15 94.6849 116.158 94.3188 116.174 93.9527C116.118 93.1728 115.529 92.4804 114.86 92.1382C114.184 91.7641 113.428 91.6129 112.688 91.597C112.314 91.5731 111.948 91.6049 111.582 91.6527C111.398 91.6686 111.215 91.7005 111.048 91.7482C110.937 91.7721 110.913 91.78 110.905 91.78L110.849 91.788C110.714 91.8119 110.65 91.8278 110.619 91.8357C110.69 91.7562 110.754 91.6766 110.81 91.6049L110.841 91.5652L110.849 91.5572L110.897 91.4537L110.985 91.2548C111.064 90.9762 111.144 90.7295 111.207 90.4987C111.295 90.0133 111.351 89.6233 111.319 89.3288C111.303 89.0423 111.295 88.8911 111.295 88.8911C111.271 88.8991 111.255 88.5489 110.985 87.9918C110.754 87.4268 110.046 86.7025 109.091 86.4399C108.143 86.1534 107.069 86.2569 106.05 86.5354C105.032 86.8219 104.021 87.2676 103.082 87.8486C101.22 88.9946 99.6598 90.5306 98.7764 91.9074C97.8612 93.2842 97.8293 94.4541 97.9328 94.4461C98.0601 94.47 98.2909 93.4433 99.2937 92.2814C100.257 91.1115 101.864 89.7825 103.655 88.8434C105.39 87.9281 107.491 87.4268 108.621 87.8645Z" fill="#6F3014"/>
<path opacity="0.7" d="M154.493 96.571C153.936 96.181 153.292 95.8786 152.615 95.7115C151.939 95.5523 151.246 95.4807 150.562 95.4887C148.978 95.5125 147.45 95.807 145.994 96.1333C146.408 95.807 146.806 95.4807 147.164 95.1385C147.689 94.6212 148.174 94.1039 148.548 93.4911C148.899 92.8783 149.193 92.162 149.082 91.3901C148.954 90.642 148.533 90.0849 148.151 89.7586C147.952 89.5994 147.769 89.4482 147.593 89.3209C147.394 89.2254 147.219 89.1299 147.052 89.0503C146.4 88.8036 146.034 88.7717 146.034 88.7717C146.034 88.7717 144.991 88.5648 143.407 88.8672C142.874 88.9548 142.269 89.1219 141.633 89.3129C142.556 88.4693 143.471 87.5382 144.124 86.2887C144.482 85.5963 144.736 84.6174 144.33 83.7261C143.909 82.8586 143.145 82.405 142.444 82.1105C142.094 81.9434 141.72 81.8797 141.362 81.7842C141.004 81.7046 140.646 81.5773 140.288 81.5534C139.571 81.5296 138.863 81.4102 138.187 81.5216C135.465 81.7444 133.284 82.787 131.852 83.6226C131.501 83.8455 131.175 84.0444 130.897 84.2195C130.634 84.4185 130.411 84.5936 130.228 84.7368C129.87 85.0233 129.687 85.1984 129.711 85.2302C129.735 85.2621 129.965 85.1506 130.363 84.9278C130.562 84.8084 130.801 84.6731 131.08 84.506C131.366 84.3628 131.7 84.1956 132.067 84.0126C133.531 83.3122 135.704 82.4448 138.234 82.3572C138.863 82.2776 139.5 82.4289 140.152 82.4686C140.479 82.5084 140.781 82.6358 141.099 82.7154C141.41 82.8109 141.744 82.8745 142.03 83.0337C142.619 83.3043 143.137 83.6942 143.328 84.1638C143.519 84.6174 143.391 85.1984 143.081 85.7555C142.452 86.8776 141.402 87.8406 140.383 88.6842C139.341 89.5278 138.266 90.2679 137.247 90.8887L131.565 94.3506L137.844 92.17C140.311 91.3105 142.253 90.6181 143.662 90.4191C145.063 90.1963 145.763 90.3714 145.763 90.3714C145.763 90.3714 146.026 90.3953 146.439 90.5385C146.798 90.6499 147.442 91.1195 147.538 91.6209C147.593 91.8835 147.474 92.2814 147.243 92.7191C146.997 93.1648 146.591 93.6184 146.145 94.088C145.206 95.0191 144.012 95.9025 142.675 96.8734L140.216 98.6561L143.184 98.0752C145.644 97.5976 148.103 96.6824 150.594 96.571C151.827 96.5153 153.021 96.7143 153.968 97.343C154.43 97.6454 154.804 98.0274 154.923 98.481C155.066 98.9267 154.963 99.4361 154.772 99.9056C154.35 100.853 153.642 101.633 152.989 102.277C152.321 102.922 151.676 103.439 151.127 103.861C150.029 104.697 149.305 105.102 149.336 105.166C149.36 105.222 150.156 104.935 151.35 104.195C151.947 103.821 152.647 103.344 153.379 102.723C154.103 102.086 154.899 101.33 155.464 100.232C155.727 99.6828 155.926 98.9904 155.743 98.2662C155.576 97.534 155.043 96.961 154.493 96.571Z" fill="#6F3014"/>
<path opacity="0.7" d="M140.001 119.937C139.356 119.65 138.696 119.611 138.083 119.483C137.47 119.475 136.873 119.396 136.356 119.452C135.568 119.483 134.892 119.579 134.359 119.666C134.693 119.276 135.043 118.839 135.393 118.337C135.688 117.876 135.99 117.382 136.197 116.793C136.428 116.22 136.555 115.528 136.46 114.812C136.388 114.072 135.934 113.411 135.433 112.949C135.17 112.735 134.908 112.504 134.605 112.361C134.311 112.193 134.024 112.034 133.69 111.955C131.191 111.294 128.764 111.788 127.196 112.607C126.416 113.029 125.867 113.554 125.596 113.984C125.31 114.406 125.254 114.7 125.286 114.708C125.397 114.788 125.899 113.721 127.443 113.125C128.915 112.52 131.287 112.257 133.348 112.957C134.295 113.347 135.178 114.103 135.202 114.971C135.29 115.838 134.756 116.785 134.223 117.526C133.085 119.03 131.836 119.969 131.366 120.343L128.732 122.436L132.035 121.759C133.077 121.545 133.26 121.505 133.26 121.505C133.26 121.505 133.579 121.433 134.144 121.314C134.709 121.202 135.505 121.027 136.444 120.956C136.921 120.876 137.415 120.932 137.956 120.916C138.465 121.011 139.038 121.003 139.563 121.226C140.638 121.537 141.752 122.197 142.389 123.176C142.707 123.662 142.906 124.203 142.946 124.776C142.954 125.341 142.882 125.93 142.651 126.455C142.229 127.537 141.489 128.429 140.781 129.089C139.341 130.418 138.067 130.912 138.123 131.031C138.139 131.111 139.524 130.832 141.195 129.567C142.015 128.938 142.898 128.047 143.487 126.813C143.805 126.208 143.956 125.484 143.988 124.744C143.988 123.988 143.757 123.224 143.375 122.571C142.596 121.242 141.29 120.391 140.001 119.937Z" fill="#6F3014"/>
<path opacity="0.7" d="M127.873 146.661C126.814 145.874 125.764 145.523 124.912 145.197C124.315 144.982 124.538 145.054 124.482 145.03C124.474 145.022 124.474 145.014 124.482 145.014C124.53 144.99 124.482 145.022 124.562 144.982C124.753 144.871 124.816 144.831 124.816 144.831C124.816 144.831 125.079 144.672 125.533 144.338C125.963 143.971 126.719 143.534 127.244 142.34C127.355 142.03 127.419 141.672 127.387 141.305C127.347 141.146 127.371 140.9 127.244 140.701C127.148 140.51 127.069 140.342 126.925 140.191C126.4 139.563 125.66 139.3 124.992 139.188C124.92 139.181 124.848 139.181 124.777 139.173C125.159 138.918 125.517 138.631 125.843 138.297C126.464 137.652 127.005 136.666 126.758 135.703C126.687 135.241 126.448 134.827 126.154 134.493C125.843 134.167 125.477 133.968 125.119 133.824C123.662 133.331 122.429 133.562 121.601 133.713C120.766 133.888 120.32 134.111 120.336 134.167C120.36 134.23 120.829 134.127 121.649 134.079C122.445 134.039 123.678 133.976 124.84 134.477C125.405 134.74 125.835 135.209 125.907 135.854C126.026 136.467 125.652 137.072 125.127 137.581C124.013 138.56 122.373 139.22 120.901 139.475C120.877 139.483 120.861 139.483 120.837 139.491L121.092 140.716C121.108 140.716 121.124 140.709 121.14 140.701C122.381 140.438 123.694 140.366 124.713 140.573C125.222 140.677 125.604 140.892 125.764 141.114C125.819 141.162 125.835 141.242 125.859 141.282C125.883 141.297 125.859 141.337 125.875 141.417C125.883 141.552 125.851 141.672 125.803 141.799C125.573 142.332 124.968 142.778 124.594 143.032C124.196 143.303 123.949 143.446 123.949 143.446C123.949 143.446 123.83 143.518 123.479 143.733C123.225 143.884 122.883 144.091 122.445 144.354C122.039 144.624 121.538 144.966 120.925 145.38C121.378 145.555 121.936 145.762 122.572 146.009C123.153 146.224 124.164 146.55 124.411 146.622C125.238 146.892 126.225 147.211 127.037 147.768C127.435 148.046 127.761 148.388 127.888 148.778C128.016 149.176 127.912 149.67 127.721 150.179C127.252 151.253 126.472 152.105 125.382 152.583C123.185 153.514 120.678 153.275 118.991 152.933C117.272 152.567 116.261 152.002 116.205 152.097C116.15 152.161 117.097 152.917 118.848 153.466C120.575 153.975 123.145 154.453 125.771 153.522C126.4 153.243 127.053 152.917 127.57 152.399C128.127 151.914 128.493 151.277 128.828 150.672C129.114 150.012 129.353 149.232 129.138 148.412C128.931 147.632 128.382 147.067 127.873 146.661Z" fill="#6F3014"/>
<path opacity="0.7" d="M170.999 131.413C169.662 131.19 168.349 131.294 167.124 131.525C166.813 131.572 166.519 131.652 166.224 131.723C166.033 131.771 166.049 131.771 165.97 131.795L165.779 131.859C165.524 131.946 165.253 132.058 164.959 132.193C164.895 132.233 164.943 132.185 164.951 132.161L165.007 132.082L165.126 131.922C165.206 131.811 165.293 131.7 165.373 131.58C165.452 131.461 165.524 131.334 165.596 131.182C165.723 130.928 165.826 130.657 165.882 130.378C165.93 130.092 165.922 129.79 165.834 129.511C165.731 129.217 165.532 129.041 165.357 128.858C165.182 128.683 164.935 128.588 164.728 128.5C164.505 128.476 164.282 128.389 164.083 128.437C163.28 128.516 162.762 128.89 162.492 129.185C162.213 129.479 162.134 129.694 162.157 129.71C162.197 129.742 162.333 129.575 162.635 129.352C162.921 129.129 163.447 128.866 164.091 128.866C164.258 128.843 164.402 128.93 164.569 128.954C164.704 129.041 164.871 129.105 164.991 129.248C165.094 129.392 165.237 129.527 165.277 129.694C165.317 129.861 165.309 130.052 165.261 130.251C165.198 130.45 165.11 130.665 164.991 130.872C164.8 131.19 164.569 131.517 164.266 131.867C163.709 132.559 163.025 133.307 162.5 133.984C162.906 133.825 163.319 133.665 163.741 133.506C164.195 133.339 164.688 133.132 165.126 133.013L165.81 132.798C166.025 132.726 166.32 132.671 166.423 132.647C166.702 132.591 166.988 132.535 167.275 132.495C168.421 132.336 169.638 132.296 170.769 132.535C171.907 132.742 172.877 133.363 173.371 134.238C173.872 135.122 173.952 136.268 173.689 137.143C173.419 138.05 172.877 138.846 172.225 139.435C171.604 140.048 170.944 140.51 170.379 140.876C169.233 141.584 168.476 141.926 168.476 141.926C168.476 141.926 167.768 142.316 166.479 142.857C165.19 143.399 163.303 144.091 161.019 144.664L161.322 146.041C162.245 145.85 163.351 145.858 164.41 146.168C165.452 146.455 166.519 147.036 166.933 147.935C167.418 148.786 166.941 150.02 166.352 150.848C165.651 151.651 164.585 152.153 163.558 152.463C161.473 153.076 159.475 153.076 158.107 152.909C156.714 152.774 155.958 152.36 155.918 152.439C155.878 152.479 156.602 153.052 158.035 153.339C159.444 153.641 161.497 153.792 163.781 153.259C164.903 152.973 166.129 152.511 167.108 151.5C167.553 150.935 167.903 150.37 168.094 149.67C168.222 149.336 168.222 148.954 168.254 148.579C168.214 148.197 168.166 147.815 167.999 147.473C167.697 146.773 167.179 146.208 166.606 145.81C166.113 145.476 165.588 145.221 165.054 145.038C167.665 144.194 169.217 143.391 169.217 143.391C169.217 143.391 170.012 143.009 171.254 142.197C171.867 141.775 172.591 141.25 173.307 140.494C174.039 139.785 174.732 138.759 175.058 137.509C175.368 136.244 175.233 134.819 174.493 133.586C173.737 132.336 172.32 131.596 170.999 131.413Z" fill="#6F3014"/>
<path opacity="0.7" d="M175.361 107.689C173.498 106.79 172.153 106.941 172.169 106.877C172.169 106.877 171.986 106.877 171.652 106.885C171.318 106.877 170.832 106.925 170.235 106.981C169.638 107.068 168.93 107.188 168.158 107.402L168.015 107.442C167.959 107.458 167.919 107.474 167.927 107.466L167.896 107.482L167.816 107.522C167.736 107.562 167.657 107.601 167.577 107.649C167.458 107.729 167.506 107.665 167.521 107.625L167.609 107.458L167.673 107.347C167.712 107.275 167.673 107.339 167.808 107.116C168.007 106.774 168.19 106.424 168.325 106.018C168.469 105.628 168.548 105.174 168.492 104.72C168.461 104.251 168.206 103.821 167.935 103.495C167.657 103.192 167.243 102.906 166.845 102.826C166.455 102.739 166.081 102.715 165.731 102.755C164.346 102.898 163.311 103.503 162.691 104.052C162.054 104.601 161.943 105.142 162.006 105.15C162.078 105.182 162.293 104.768 162.937 104.37C163.558 103.98 164.593 103.535 165.763 103.527C166.049 103.519 166.336 103.574 166.598 103.646C166.861 103.734 167.02 103.877 167.211 104.1C167.537 104.529 167.545 105.055 167.291 105.644C167.171 105.93 166.996 106.217 166.813 106.503L166.614 106.79C166.527 106.917 166.423 107.052 166.328 107.18L165.723 107.96C165.309 108.485 164.975 108.962 164.617 109.44C164.282 109.893 163.837 110.498 163.67 110.793C165.389 109.997 167.641 108.93 168.516 108.819C169.225 108.652 169.869 108.572 170.402 108.517C170.936 108.485 171.365 108.461 171.652 108.485C171.938 108.493 172.098 108.493 172.098 108.493C172.074 108.541 173.275 108.389 174.716 109.026C175.424 109.336 176.156 109.893 176.618 110.745C177.111 111.581 177.199 112.639 176.825 113.626C176.467 114.621 175.655 115.472 174.835 116.157C174 116.841 173.108 117.366 172.32 117.772C170.737 118.568 169.567 118.871 169.599 118.99C169.615 119.093 170.848 118.998 172.575 118.345C173.435 118.019 174.413 117.549 175.384 116.881C176.331 116.205 177.334 115.329 177.891 114.072C178.472 112.838 178.425 111.278 177.828 110.14C177.271 108.97 176.276 108.135 175.361 107.689Z" fill="#6F3014"/>
<path opacity="0.7" d="M191.612 142.006C191.524 141.719 191.413 141.465 191.301 141.258C191.078 140.836 190.935 140.549 190.935 140.549C190.935 140.549 190.115 139.578 189.16 138.838C188.213 138.098 187.211 137.462 187.059 137.621C186.9 137.788 187.632 138.727 188.341 139.642C189.041 140.557 189.606 141.488 189.606 141.488C189.606 141.488 189.765 141.703 190.012 142.022C190.147 142.181 190.275 142.372 190.402 142.595C190.521 142.818 190.696 143.032 190.808 143.287C191.317 144.258 191.596 145.396 191.842 145.372C192.033 145.364 192.177 144.139 191.89 142.897C191.826 142.579 191.699 142.292 191.612 142.006Z" fill="#6F3014"/>
<path opacity="0.7" d="M202.427 105.636C201.504 104.346 199.96 103.861 198.591 103.67C195.79 103.312 193.084 103.877 191.15 104.474C189.192 105.063 188.062 105.906 188.142 106.002C188.197 106.089 189.367 105.477 191.317 105.087C193.227 104.689 195.909 104.338 198.408 104.8C199.634 105.031 200.812 105.556 201.321 106.392C201.591 106.798 201.679 107.283 201.687 107.705C201.687 108.135 201.512 108.517 201.321 108.867C200.899 109.559 200.262 110.037 199.841 110.347C199.411 110.665 199.132 110.817 199.132 110.817C199.132 110.817 198.098 111.533 196.315 112.329C194.54 113.133 192.049 114.008 189.503 114.748C184.417 116.22 179.18 117.366 179.26 117.685C179.292 117.78 180.597 117.573 182.579 117.271C184.552 116.953 187.187 116.483 189.797 115.862C192.407 115.257 195.002 114.478 196.904 113.714C198.806 112.949 200.008 112.185 200.008 112.185C200.008 112.185 200.31 112.01 200.804 111.612C201.289 111.215 202.029 110.657 202.618 109.607C202.889 109.074 203.143 108.429 203.119 107.697C203.08 107.005 202.881 106.264 202.427 105.636Z" fill="#6F3014"/>
<path opacity="0.7" d="M177.629 89.9894C176.236 88.5887 174.453 88.0475 173.068 87.6655C172.718 87.578 172.384 87.4984 172.082 87.4427C171.97 87.4268 172.01 87.4268 172.002 87.4268L171.994 87.4188C171.986 87.4108 171.986 87.4108 171.986 87.4029C171.986 87.387 172.002 87.379 172.01 87.379C172.018 87.379 172.018 87.379 172.018 87.379C172.018 87.379 172.002 87.387 171.994 87.379V87.371C171.946 87.4268 172.066 87.2755 172.153 87.1562C172.336 86.9095 172.543 86.607 172.718 86.225C172.901 85.8669 173.06 85.3735 173.029 84.7845C173.005 84.1797 172.615 83.5669 172.153 83.2486C171.214 82.588 170.203 82.4846 169.24 82.4129C167.299 82.3254 165.436 82.6915 164.091 83.1372C162.738 83.5749 161.966 84.1558 162.022 84.2434C162.086 84.3468 162.913 83.9807 164.25 83.7499C165.572 83.5032 167.402 83.3361 169.137 83.5589C169.981 83.6704 170.864 83.9091 171.318 84.307C171.54 84.506 171.604 84.6731 171.604 84.8641C171.596 85.0631 171.532 85.3178 171.381 85.5565C171.254 85.7953 171.087 86.0181 170.928 86.2012C170.808 86.3364 170.689 86.4717 170.585 86.5911C170.402 86.7662 170.235 86.9333 170.084 87.0766C169.463 87.6655 169.105 88.0077 169.105 88.0077C169.105 88.0077 169.033 88.0714 168.333 88.7399C168.628 88.7479 169.328 88.7797 170.323 88.8195C170.562 88.8354 170.816 88.8513 171.087 88.8752C171.222 88.8831 171.357 88.8991 171.501 88.907C171.612 88.9229 171.731 88.9389 171.843 88.9468C172.121 88.9787 172.424 89.0264 172.75 89.0901C174.015 89.3368 175.727 89.7984 176.849 90.7693C177.406 91.2627 177.581 91.8278 177.27 92.4008C176.976 92.9817 176.387 93.4274 175.91 93.7855C174.907 94.47 174.159 94.844 174.214 94.9475C174.246 95.035 175.066 94.8599 176.22 94.2949C176.785 93.9845 177.477 93.6184 178.011 92.8385C178.273 92.4565 178.456 91.9074 178.353 91.3582C178.265 90.8091 177.963 90.3475 177.629 89.9894Z" fill="#6F3014"/>
<path opacity="0.7" d="M121.259 78.8714C122.127 78.3223 122.946 77.7413 123.631 77.3911C124.299 77.0171 124.737 76.7624 124.737 76.7624C124.737 76.7624 126.456 75.6562 128.239 74.5898C130.029 73.5313 131.804 72.4012 131.693 72.2022C131.589 72.0033 129.647 72.7593 127.713 73.5631C125.779 74.3669 123.901 75.3617 123.901 75.3617C123.901 75.3617 123.464 75.6721 122.811 76.1337C122.142 76.5714 121.331 77.2877 120.519 77.9801C118.927 79.4524 117.829 81.3306 118.012 81.434C118.235 81.5614 119.588 80.0333 121.259 78.8714Z" fill="#6F3014"/>
<path opacity="0.7" d="M146.909 74.1521C147.641 73.8974 148.326 73.587 148.891 73.4517C149.44 73.2926 149.806 73.1812 149.806 73.1812C149.806 73.1812 151.238 72.632 152.743 72.1704C154.247 71.7168 155.791 71.2711 155.751 71.0483C155.719 70.8334 154.119 70.8732 152.512 71.0403C150.904 71.2234 149.305 71.6293 149.305 71.6293C149.305 71.6293 148.923 71.7964 148.357 72.0511C147.784 72.2739 147.068 72.7275 146.36 73.1414C144.967 74.0805 143.909 75.3618 144.06 75.505C144.227 75.6721 145.508 74.7569 146.909 74.1521Z" fill="#6F3014"/>
<path opacity="0.7" d="M101.188 87.4586C101.411 87.0687 101.721 86.6389 102.071 86.1853C102.413 85.7316 102.74 85.2303 103.13 84.7607C103.902 83.8296 104.65 82.8905 105.294 82.2458C105.907 81.5853 106.313 81.1396 106.313 81.1396C106.313 81.1396 106.711 80.686 107.308 80.0095C107.881 79.3092 108.74 78.4656 109.568 77.5822C111.271 75.8711 113.205 74.3909 113.086 74.1919C112.982 74.0009 110.77 75.1708 108.804 76.7227C107.849 77.5185 106.878 78.3064 106.225 78.9749C105.549 79.6275 105.103 80.0573 105.103 80.0573C105.103 80.0573 104.713 80.5507 104.14 81.2908C103.543 82.0151 102.859 83.0656 102.183 84.1081C101.84 84.6334 101.57 85.2064 101.291 85.7157C101.013 86.2251 100.774 86.7185 100.623 87.1721C100.296 88.0555 100.121 88.6524 100.225 88.6922C100.336 88.724 100.702 88.2226 101.188 87.4586Z" fill="#6F3014"/>
<path opacity="0.7" d="M81.8488 116.451C80.9495 116.26 79.9627 115.727 79.334 114.963C79.0236 114.589 78.8246 114.151 78.8326 113.793C78.8326 113.706 78.8405 113.626 78.8644 113.538C78.8883 113.491 78.8724 113.475 78.9201 113.395L79.1827 113.061L79.2464 112.973L79.3976 112.87L79.708 112.655L80.4084 112.178C81.0052 111.78 81.5942 111.39 82.1751 111C81.9762 111.024 81.7772 111.039 81.5782 111.063L81.4032 111.071H81.3156L81.1167 111.095L80.6869 111.151C80.1457 111.223 79.4613 111.318 78.9201 111.374C78.6575 111.39 78.4028 111.406 78.1561 111.421C78.0367 111.429 77.9094 111.445 77.79 111.429C77.7025 111.421 77.6149 111.421 77.5274 111.414C77.3284 111.398 77.1454 111.374 76.9862 111.342C76.3336 111.223 75.9914 111.071 75.9914 111.071C75.9914 111.071 75.8084 111.024 75.5139 110.888C75.2354 110.745 74.8215 110.53 74.5509 110.148C73.9541 109.472 74.153 107.609 75.3229 106.559C76.4928 105.453 78.2834 105.015 79.5568 104.848C80.862 104.689 81.7613 104.784 81.7772 104.665C81.8011 104.569 80.9177 104.251 79.517 104.219C78.1482 104.211 76.1824 104.426 74.5669 105.691C73.771 106.312 73.1741 107.259 72.9513 108.206C72.6887 109.137 72.808 110.236 73.3015 110.984C73.779 111.732 74.3997 112.09 74.7977 112.321C75.2115 112.536 75.4582 112.615 75.4582 112.615C75.4582 112.615 75.9357 112.798 76.7554 112.894C76.9623 112.926 77.1852 112.942 77.4319 112.949C77.5194 112.957 77.5115 112.949 77.5035 112.949C77.5035 112.949 77.5115 112.949 77.5115 112.942L77.5513 112.934C77.5831 112.934 77.7821 112.854 77.6945 112.918C77.6786 112.934 77.6627 112.965 77.6547 113.013L77.5911 113.308C77.5592 113.491 77.5513 113.69 77.5672 113.881C77.6308 114.653 78.0447 115.265 78.4904 115.735C79.4135 116.674 80.6232 117.152 81.7215 117.263C82.8277 117.382 83.7987 117.056 84.3478 116.666C84.9049 116.284 85.1118 115.926 85.072 115.886C85.0163 115.822 84.7059 116.061 84.1488 116.292C83.5997 116.507 82.7561 116.658 81.8488 116.451Z" fill="#6F3014"/>
<path opacity="0.7" d="M92.2585 116.284C91.7731 115.83 91.4786 115.202 91.2637 114.748C91.1762 114.509 91.1125 114.302 91.0568 114.167C91.0011 114.032 90.9931 113.944 90.9931 113.944C90.9931 113.944 90.9613 113.865 90.9136 113.721C90.8658 113.578 90.7703 113.387 90.7146 113.133C90.5554 112.639 90.4599 111.947 90.4519 111.246C90.4838 110.562 90.5952 109.854 90.834 109.368C91.0329 108.875 91.2637 108.556 91.1762 108.461C91.1205 108.389 90.7225 108.556 90.3007 109.026C89.8471 109.488 89.5049 110.283 89.3139 111.111C89.1547 111.939 89.1547 112.798 89.2502 113.427C89.2741 113.745 89.3537 114 89.3935 114.183C89.4412 114.366 89.4651 114.47 89.4651 114.47C89.4651 114.47 89.4969 114.573 89.5845 114.74C89.672 114.907 89.7835 115.154 89.9426 115.433C90.3007 115.974 90.7942 116.698 91.5582 117.183C92.2983 117.669 93.2056 117.892 93.8502 117.772C94.4789 117.669 94.8371 117.438 94.8052 117.35C94.7734 117.223 94.3755 117.231 93.8582 117.136C93.3249 117.056 92.7281 116.73 92.2585 116.284Z" fill="#6F3014"/>
<path opacity="0.7" d="M89.8391 98.4333C90.0619 97.9319 90.5314 97.3748 90.9532 96.762C91.8923 95.616 93.102 94.661 92.9747 94.4461C92.8792 94.271 91.3989 94.8997 90.1335 95.9503C89.5526 96.5153 88.9238 97.0724 88.5896 97.5977C88.2235 98.107 87.9768 98.4413 87.9768 98.4413C87.9768 98.4413 87.8256 98.8312 87.6027 99.4201C87.3401 99.9852 87.2207 100.821 87.0695 101.617C86.8785 103.256 87.173 104.84 87.3719 104.824C87.6186 104.816 87.7539 103.272 88.1917 101.855C88.4702 101.171 88.6771 100.471 88.9796 100.009C89.2342 99.5316 89.4093 99.2212 89.4093 99.2212C89.4093 99.2212 89.5844 98.9108 89.8391 98.4333Z" fill="#6F3014"/>
<path opacity="0.7" d="M95.7124 100.638C94.455 100.916 93.3169 101.553 93.3169 101.553C93.3169 101.553 92.2505 102.317 91.4785 103.383C91.1044 103.917 90.7861 104.498 90.6747 104.983C90.5473 105.461 90.5792 105.795 90.6747 105.819C90.7941 105.851 90.9692 105.596 91.2398 105.262C91.4944 104.919 91.9082 104.521 92.3221 104.155C93.1816 103.423 94.1844 102.922 94.1844 102.922C94.1844 102.922 95.0677 102.229 96.0944 101.72C97.1051 101.163 98.2352 100.932 98.2511 100.709C98.275 100.479 96.9619 100.303 95.7124 100.638Z" fill="#6F3014"/>
<path opacity="0.7" d="M108.47 136.3C108.573 136.331 108.836 135.854 109.13 135.082C109.385 134.302 109.672 133.22 109.703 132.097C109.767 131.54 109.695 130.975 109.68 130.442C109.616 129.917 109.528 129.423 109.441 129.002C109.313 128.588 109.21 128.246 109.138 127.999C109.075 127.752 108.987 127.641 108.995 127.633C108.995 127.633 108.923 127.505 108.804 127.291C108.677 127.076 108.526 126.757 108.279 126.399C107.849 125.635 107.013 124.816 106.226 124.091C105.422 123.367 104.626 122.699 104.125 122.11C103.599 121.545 103.321 121.091 103.193 121.139C103.106 121.163 103.193 121.736 103.607 122.476C103.989 123.232 104.721 124.075 105.398 124.887C106.074 125.707 106.703 126.479 106.99 127.163C107.165 127.482 107.276 127.784 107.372 127.975C107.459 128.174 107.515 128.285 107.515 128.285C107.507 128.285 107.594 128.389 107.666 128.588C107.746 128.787 107.865 129.073 108.008 129.415C108.12 129.766 108.239 130.187 108.35 130.641C108.414 131.103 108.549 131.596 108.557 132.105C108.669 133.124 108.573 134.151 108.518 134.939C108.422 135.719 108.358 136.26 108.47 136.3Z" fill="#6F3014"/>
<path opacity="0.7" d="M108.072 144.592C107.188 143.956 106.552 143.064 106.09 142.412C105.899 142.062 105.732 141.767 105.621 141.56C105.509 141.353 105.453 141.234 105.453 141.234C105.453 141.234 105.207 140.748 104.841 140.016C104.514 139.3 104.188 138.226 104.116 137.159C104.077 136.626 104.101 136.101 104.228 135.655C104.355 135.209 104.602 134.883 104.904 134.668C105.533 134.27 106.178 134.302 106.17 134.159C106.186 134.095 105.589 133.777 104.61 134.111C104.132 134.294 103.647 134.74 103.376 135.321C103.106 135.894 103.002 136.538 102.962 137.167C102.899 138.432 103.138 139.65 103.44 140.549C103.766 141.417 104.005 141.99 104.005 141.99C104.005 141.99 104.085 142.125 104.236 142.356C104.387 142.579 104.594 142.913 104.873 143.287C105.477 144.003 106.329 144.942 107.427 145.547C107.944 145.897 108.533 146.104 109.067 146.311C109.608 146.502 110.149 146.558 110.587 146.646C111.502 146.685 112.091 146.63 112.091 146.526C112.099 146.407 111.526 146.248 110.722 146.033C109.934 145.714 108.9 145.301 108.072 144.592Z" fill="#6F3014"/>
<path opacity="0.7" d="M117.447 125.882C117.67 125.707 117.956 125.548 118.131 125.253C118.545 124.72 118.664 123.892 118.41 123.2C118.179 122.484 117.598 121.935 116.977 121.64C116.675 121.481 116.372 121.393 116.078 121.346C116.094 121.322 116.11 121.298 116.126 121.274C116.301 120.972 116.452 120.526 116.372 120.032C116.293 119.539 115.975 119.141 115.656 118.902C115.33 118.656 114.988 118.512 114.645 118.417C113.277 118.043 111.948 118.313 111.064 118.695C110.165 119.093 109.735 119.587 109.799 119.666C109.87 119.77 110.404 119.475 111.255 119.3C112.091 119.125 113.301 119.101 114.271 119.507C114.757 119.69 115.083 120.064 115.035 120.216C115.043 120.367 114.813 120.701 114.526 120.932C114.248 121.171 113.937 121.346 113.73 121.465C113.523 121.584 113.396 121.648 113.396 121.648C113.396 121.648 113.38 121.656 113.205 121.759L108.756 124.322L113.929 123.208C114.033 123.184 114.542 122.874 115.282 122.746C115.99 122.627 116.993 122.842 117.383 123.63C117.813 124.394 117.272 125.317 116.524 125.595C116.341 125.667 116.173 125.739 116.022 125.802C115.863 125.842 115.72 125.882 115.608 125.914C115.378 125.985 115.234 126.049 115.234 126.105C115.234 126.16 115.378 126.2 115.632 126.232C115.76 126.248 115.919 126.264 116.102 126.264C116.285 126.24 116.5 126.208 116.723 126.176C116.945 126.113 117.184 125.985 117.447 125.882Z" fill="#6F3014"/>
</g>
</g>
<path d="M104.435 141.982C103.265 139.921 102.588 137.398 103.806 135.201C104.618 133.729 107.045 133.188 107.523 131.54C107.929 130.132 106.528 127.84 105.939 126.598C105.732 126.161 102.756 120.112 102.453 120.239C102.453 120.239 119.015 113.57 109.624 108.127C100.233 102.691 99.4926 115.297 97.511 118.011C95.5373 120.733 91.3352 115.791 91.3352 115.791C91.3352 115.791 92.5687 118.759 87.3798 121.473C82.1909 124.195 81.2041 118.504 81.2041 118.504C75.6173 119.65 74.4315 117.804 74.4235 116.053C72.5931 118.879 69.728 128.858 71.073 138.528C71.073 138.528 65.1041 140.549 61.8014 141.863C61.8014 141.863 68.2716 159.204 82.7639 159.53C97.2642 159.857 101.546 154.588 101.546 154.588C101.546 154.588 102.214 154.978 103.902 155.535C97.9646 146.558 104.435 141.982 104.435 141.982Z" fill="#EAB283"/>
<path d="M67.3326 151.174C64.3561 147.115 62.9474 143.343 62.9474 143.343C66.2422 142.022 72.2111 140.008 72.2111 140.008C70.9377 130.856 73.4367 121.433 75.2592 118.059C74.6225 117.518 74.4076 116.778 74.4076 116.053C72.5772 118.879 69.7121 128.858 71.0571 138.528C71.0571 138.528 65.0883 140.549 61.7855 141.863C61.8014 141.863 63.5762 146.606 67.3326 151.174Z" fill="#E3995C"/>
<path d="M63.4488 146.693C62.279 146.033 58.1087 142.802 62.1198 141.003C66.1388 139.213 68.8367 141.902 68.0807 143.327C67.3326 144.744 65.4623 147.824 63.4488 146.693Z" fill="#6F3014"/>
<path opacity="0.45" d="M63.4488 146.693C62.279 146.033 58.1087 142.802 62.1198 141.003C66.1388 139.213 68.8367 141.902 68.0807 143.327C67.3326 144.744 65.4623 147.824 63.4488 146.693Z" fill="#6F3014"/>
<path opacity="0.45" d="M64.4049 143.12C65.909 143.056 67.2301 142.674 68.0419 142.141C67.4291 140.852 65.153 139.65 62.1208 141.003C61.2533 141.393 60.7679 141.847 60.553 142.324C61.3647 142.865 62.7893 143.184 64.4049 143.12Z" fill="#6F3014"/>
<path d="M66.6481 142.054C66.6561 142.396 66.0274 142.706 65.2395 142.738C64.4516 142.77 63.8149 142.515 63.807 142.173C63.799 141.831 64.4357 141.528 65.2156 141.496C65.9955 141.457 66.6401 141.711 66.6481 142.054Z" fill="#6F3014"/>
<path d="M81.984 147.696C81.5065 147.792 80.8857 147.927 80.2729 147.911C79.6601 147.943 79.0792 147.807 78.6813 147.688C78.4743 147.64 78.3311 147.537 78.2197 147.497C78.1082 147.449 78.0525 147.425 78.0525 147.425C78.0366 147.441 77.8217 147.314 77.4477 147.147C77.1055 146.932 76.6359 146.526 76.23 146.073C75.8162 145.611 75.4979 145.086 75.3387 144.664C75.2989 144.56 75.2591 144.457 75.2193 144.369C75.2034 144.282 75.1875 144.202 75.1636 144.131C75.1238 143.995 75.0761 143.892 75.0204 143.884C74.9647 143.868 74.901 143.94 74.8373 144.091C74.8055 144.17 74.7657 144.266 74.7339 144.377C74.71 144.489 74.71 144.616 74.71 144.759C74.6941 145.332 74.9169 146.073 75.275 146.709C75.6252 147.354 76.0868 147.943 76.5404 148.341C77.0339 148.691 77.3761 148.93 77.384 148.906C77.384 148.906 77.3999 148.906 77.3999 148.914C77.3124 149.009 77.2249 149.105 77.1294 149.216C76.4768 149.813 75.6332 150.625 74.5826 151.07C74.0972 151.365 73.5242 151.46 73.0467 151.643C72.5214 151.715 72.0519 151.858 71.6221 151.866C71.2003 151.89 70.8422 151.906 70.5955 151.922C70.3488 151.906 70.2055 151.898 70.2055 151.898C70.2055 151.898 70.0622 151.906 69.8076 151.906C69.5609 151.914 69.1868 151.946 68.7969 151.89C68.4785 151.882 68.1204 151.811 67.7463 151.715C68.2557 152.312 68.8128 152.901 69.3937 153.482C69.537 153.49 69.6802 153.498 69.7837 153.506C70.0622 153.522 70.2214 153.53 70.2214 153.53C70.2214 153.53 70.3806 153.522 70.6591 153.514C70.9377 153.474 71.3436 153.418 71.8211 153.355C72.2986 153.299 72.8477 153.092 73.4366 152.941C73.9937 152.678 74.6224 152.479 75.1477 152.081C76.2778 151.413 77.0896 150.378 77.6228 149.614C77.7342 149.415 77.8297 149.232 77.9172 149.073C78.0446 149.113 78.1878 149.144 78.347 149.16C78.928 149.232 79.6999 149.256 80.4162 149.057C81.1404 148.906 81.793 148.571 82.2387 148.277C82.6764 147.951 82.9072 147.68 82.8435 147.593C82.7878 147.489 82.4456 147.569 81.984 147.696Z" fill="#E3995C"/>
<path d="M86.7193 135.886C86.6318 135.957 86.2498 135.655 85.7245 135.162C85.2072 134.676 84.5546 133.992 83.8463 133.458C83.146 132.909 82.3899 132.575 81.8567 132.567C81.5861 132.535 81.3713 132.583 81.2201 132.607C81.0688 132.647 80.9813 132.671 80.9813 132.671C80.9813 132.671 80.8937 132.671 80.7346 132.726C80.655 132.75 80.5515 132.774 80.4401 132.806C80.3367 132.854 80.2252 132.917 80.0979 132.981C79.8194 133.076 79.5806 133.307 79.2941 133.538C79.0633 133.825 78.7927 134.127 78.6176 134.525C77.8297 136.061 77.8218 138.05 77.5671 138.035C77.4637 138.043 77.3204 137.565 77.2647 136.833C77.1931 136.101 77.2329 135.09 77.5592 134.087C77.6945 133.578 77.981 133.108 78.2675 132.671C78.6176 132.281 78.9519 131.899 79.3339 131.7C79.5169 131.588 79.6841 131.477 79.8273 131.389C79.9865 131.326 80.1297 131.262 80.2412 131.214C80.464 131.111 80.6152 131.087 80.6152 131.087C80.6152 131.087 80.7585 131.063 81.0131 131.031C81.2678 131.015 81.6498 130.991 82.0796 131.095C82.9709 131.246 83.9339 131.875 84.6183 132.615C85.3186 133.355 85.8439 134.167 86.218 134.78C86.592 135.384 86.8069 135.814 86.7193 135.886Z" fill="#6F3014"/>
<path d="M81.7771 123.534C81.6258 123.693 80.9414 123.463 80.2411 123.582C79.5407 123.662 78.9359 123.94 78.9359 123.94C78.9359 123.94 78.2674 124.004 77.6944 124.314C77.4238 124.473 77.1611 124.672 76.994 124.879C76.8269 125.078 76.7075 125.269 76.5882 125.261C76.4847 125.261 76.3812 125.038 76.3971 124.672C76.4051 124.306 76.62 123.837 76.9304 123.455C77.2407 123.073 77.6466 122.802 77.957 122.627C78.2753 122.46 78.4982 122.372 78.4982 122.372C78.4982 122.372 79.4452 122.197 80.3445 122.436C80.7902 122.555 81.22 122.746 81.4826 122.993C81.7532 123.224 81.8407 123.455 81.7771 123.534Z" fill="#6F3014"/>
<path d="M89.6321 141.234C89.8231 143.438 86.8387 145.492 82.9788 145.818C79.119 146.144 75.8322 144.616 75.6491 142.412C75.4661 140.207 78.4425 138.154 82.3024 137.828C86.1702 137.509 89.449 139.029 89.6321 141.234Z" fill="#ED7590"/>
<path d="M102.207 118.178C102.207 118.178 108.136 107.633 110.611 111.095C113.086 114.549 102.207 118.178 102.207 118.178Z" fill="#E3995C"/>
<path d="M69.911 145.691C69.911 145.961 69.6882 146.184 69.4176 146.184C69.147 146.184 68.9242 145.961 68.9242 145.691C68.9242 145.42 69.147 145.197 69.4176 145.197C69.6962 145.197 69.911 145.42 69.911 145.691Z" fill="#E3995C"/>
<path d="M69.4178 148.078C69.4178 148.309 69.2347 148.492 69.0039 148.492C68.7731 148.492 68.5901 148.309 68.5901 148.078C68.5901 147.847 68.7731 147.664 69.0039 147.664C69.2347 147.664 69.4178 147.855 69.4178 148.078Z" fill="#E3995C"/>
<path d="M72.3863 147.505C72.3863 147.776 72.1634 147.998 71.8929 147.998C71.6223 147.998 71.3994 147.776 71.3994 147.505C71.3994 147.234 71.6223 147.012 71.8929 147.012C72.1634 147.012 72.3863 147.227 72.3863 147.505Z" fill="#E3995C"/>
<path d="M72.219 149.725C72.219 150.044 71.9644 150.306 71.646 150.306C71.3277 150.306 71.0651 150.044 71.0651 149.725C71.0651 149.407 71.3277 149.152 71.646 149.152C71.9644 149.152 72.219 149.407 72.219 149.725Z" fill="#E3995C"/>
<path opacity="0.24" d="M143.336 84.1558C143.487 87.7371 138.783 91.3184 138.783 91.3184C138.783 91.3184 147.554 87.9122 148.055 90.6977C148.548 93.4831 144.346 96.754 144.346 96.754C144.346 96.754 155.361 94.5098 154.915 98.4731C154.477 102.436 151.342 104.179 151.342 104.179C151.342 104.179 158.799 100.948 157.685 95.6399C156.57 90.3236 152.249 92.552 152.249 92.552C152.249 92.552 156.57 88.4773 153.729 86.6229C150.888 84.7686 146.933 85.8828 146.933 85.8828C146.933 85.8828 149.281 75.9984 135.194 82.4209C135.202 82.4209 143.184 80.5745 143.336 84.1558Z" fill="#6F3014"/>
<path d="M73.373 145.197C73.373 145.563 73.0785 145.858 72.7124 145.858C72.3464 145.858 72.0519 145.563 72.0519 145.197C72.0519 144.831 72.3464 144.537 72.7124 144.537C73.0785 144.537 73.373 144.831 73.373 145.197Z" fill="#E3995C"/>
<path d="M74.7737 148.571C74.7737 148.938 74.4793 149.232 74.1132 149.232C73.7471 149.232 73.4526 148.938 73.4526 148.571C73.4526 148.205 73.7471 147.911 74.1132 147.911C74.4793 147.919 74.7737 148.213 74.7737 148.571Z" fill="#E3995C"/>
<path d="M70.9775 139.769C71.1685 139.722 71.3834 139.722 71.6142 139.722C71.845 139.738 72.1076 139.674 72.3543 139.738C72.609 139.777 72.8637 139.817 73.1024 139.849C73.3491 139.881 73.564 139.984 73.7629 140.032C74.1609 140.136 74.4633 140.183 74.527 140.088C74.5906 139.992 74.3996 139.769 74.0574 139.475C73.8823 139.34 73.6913 139.141 73.4367 139.013C73.182 138.886 72.9034 138.751 72.6169 138.623C72.3384 138.48 72.0201 138.456 71.7336 138.385C71.4789 138.321 71.2401 138.289 71.0332 138.281C71.0412 138.361 71.0491 138.448 71.0571 138.528C71.0571 138.528 68.8367 139.276 66.3536 140.167C66.8073 140.199 67.5076 140.159 68.192 140.072C69.3142 139.929 70.3408 139.873 70.3408 139.873C70.3408 139.873 70.6034 139.825 70.9775 139.769Z" fill="#E3995C"/>
<path opacity="0.45" d="M111.231 113.809C107.523 120.231 97.885 119.372 97.885 119.372C97.885 119.372 107.149 147.051 89.9743 154.469C72.8 161.886 64.3959 146.558 64.3959 146.558C64.3959 146.558 64.4596 146.837 64.5789 147.314C67.7384 152.431 73.6754 159.323 82.764 159.53C97.2642 159.857 101.546 154.588 101.546 154.588C101.546 154.588 102.214 154.978 103.902 155.535C97.9566 146.558 104.427 141.99 104.427 141.99C103.257 139.929 102.58 137.406 103.798 135.209C104.61 133.737 107.037 133.196 107.515 131.548C107.921 130.14 106.52 127.848 105.931 126.606C105.724 126.168 102.748 120.12 102.445 120.247C102.445 120.247 114.128 115.536 112.298 110.809C112.17 111.748 111.836 112.758 111.231 113.809Z" fill="#E3995C"/>
<path d="M148.469 63.7663C148.469 63.7663 140.447 53.3248 131.525 59.5324C123.686 64.9759 126.71 79.9299 130.992 86.6388C133.133 89.9893 137.144 92.7032 141.028 90.6658C140.59 90.8966 141.959 92.5201 142.15 92.6713C143.423 93.7616 145.866 93.7298 147.41 93.2205C148.954 92.7111 150.554 92.2257 152.002 91.4935C156.013 89.4561 159.531 86.3842 162.086 82.6755C168.134 73.8974 166.622 67.5465 161.783 63.6151C155.329 58.3704 148.469 63.7663 148.469 63.7663Z" fill="#DB3731"/>
<path opacity="0.45" d="M131.637 60.7739C140.566 54.5743 148.58 65.0078 148.58 65.0078C148.58 65.0078 155.44 59.612 161.895 64.8566C164.099 66.6472 165.595 68.9393 166.025 71.7327C165.906 68.3663 164.306 65.6604 161.783 63.6071C155.321 58.3625 148.469 63.7583 148.469 63.7583C148.469 63.7583 140.447 53.3168 131.525 59.5244C127.236 62.5088 126.201 68.3424 126.846 74.1123C126.48 68.7642 127.657 63.5434 131.637 60.7739Z" fill="#C52620"/>
<path opacity="0.45" d="M162.659 64.3871C162.118 66.6632 160.964 69.186 159.061 71.9396C156.507 75.6403 152.989 78.7123 148.978 80.7576C145.747 82.397 140.964 83.8534 137.327 83.0337C133.571 82.1901 130.005 79.0863 127.968 75.895C127.57 75.2742 127.18 74.5819 126.814 73.8258C127.307 78.6884 129.01 83.5351 130.992 86.6389C133.133 89.9894 137.144 92.7032 141.028 90.6659C140.59 90.8967 141.959 92.5202 142.15 92.6714C143.423 93.7617 145.866 93.7299 147.41 93.2205C148.954 92.7112 150.554 92.2257 152.002 91.4935C156.013 89.4562 159.531 86.3842 162.086 82.6756C167.76 74.4545 166.789 68.3583 162.659 64.3871Z" fill="#C52620"/>
<path d="M155.4 52.9985C155.56 53.6591 153.904 54.8289 153.411 55.3622C152.814 56.0386 152.313 56.7549 152.01 57.3438C151.835 57.6224 151.748 57.8929 151.652 58.0601C151.572 58.2352 151.525 58.3307 151.525 58.3307C151.525 58.3307 151.469 58.4262 151.358 58.5933C151.262 58.7604 151.087 58.9833 150.936 59.2936C150.586 59.8826 150.204 60.7262 149.845 61.6175C149.145 63.3922 148.731 65.3659 148.31 65.358C147.904 65.358 147.553 63.2808 147.784 61.14C147.904 60.0736 148.134 58.9992 148.405 58.2113C148.946 56.2615 149.79 53.9853 151.636 52.895C152.512 52.3777 153.331 52.4732 154.294 52.529C155.034 52.5687 155.345 52.7518 155.4 52.9985Z" fill="#6F3014"/>
<path opacity="0.45" d="M154.708 52.5767C154.374 53.2373 153.212 54.0888 152.814 54.5265C152.217 55.203 151.716 55.9193 151.413 56.5082C151.238 56.7867 151.151 57.0573 151.055 57.2245C150.976 57.3995 150.928 57.495 150.928 57.495C150.928 57.495 150.872 57.5905 150.761 57.7577C150.665 57.9248 150.49 58.1476 150.339 58.458C149.989 59.0469 149.607 59.8905 149.249 60.7819C148.644 62.3179 148.254 63.9891 147.888 64.4189C147.999 64.9919 148.15 65.358 148.317 65.358C148.731 65.3659 149.145 63.3922 149.853 61.6175C150.212 60.7341 150.594 59.8826 150.944 59.2937C151.095 58.9833 151.27 58.7684 151.366 58.5933C151.469 58.4262 151.533 58.3307 151.533 58.3307C151.533 58.3307 151.58 58.2272 151.66 58.0601C151.748 57.893 151.843 57.6224 152.018 57.3438C152.321 56.7549 152.822 56.0307 153.419 55.3622C153.904 54.829 155.56 53.6591 155.408 52.9985C155.361 52.7996 155.146 52.6563 154.708 52.5767Z" fill="#6F3014"/>
<path opacity="0.45" d="M162.086 82.6755C167.625 74.6375 166.813 68.6448 162.921 64.6656C166.59 72.3296 158.043 86.7105 150.053 88.8036C143.479 90.5226 142.221 84.8323 142.221 84.8323C142.221 84.8323 136.547 90.053 130.419 81.9991C127.403 78.0358 126.671 73.388 126.702 69.6317C126.328 75.7278 128.429 82.6437 130.984 86.6389C133.125 89.9894 137.136 92.7032 141.02 90.6658C140.582 90.8966 141.951 92.5201 142.142 92.6714C143.415 93.7617 145.858 93.7298 147.402 93.2205C148.946 92.7111 150.546 92.2257 151.994 91.4935C156.013 89.4561 159.531 86.3842 162.086 82.6755Z" fill="#C52620"/>
<path opacity="0.45" d="M128.843 74.5102C128.843 74.5102 127.371 62.5964 134.971 60.4397C142.572 58.2829 148.477 65.6604 145.755 66.9099C143.033 68.1594 136.905 67.4749 135.425 69.8625C133.945 72.242 129.75 77.9084 128.843 74.5102Z" fill="#C52620"/>
<g opacity="0.45">
<g opacity="0.45">
<path opacity="0.45" d="M132.695 63.4639C132.838 63.6151 132.663 64.0926 132.472 64.5144C132.313 64.968 132.13 65.3739 132.13 65.3739C132.13 65.3739 131.844 65.7161 131.501 66.0504C131.207 66.4005 130.849 66.7666 130.65 66.7109C130.451 66.6473 130.467 66.122 130.546 65.5808C130.674 65.0715 130.865 64.5701 130.865 64.5701C130.865 64.5701 131.239 64.1881 131.637 63.8538C132.09 63.5514 132.56 63.3127 132.695 63.4639Z" fill="#C52620"/>
</g>
<g opacity="0.45">
<path opacity="0.45" d="M140.638 62.4054C140.51 62.5964 139.635 62.2383 138.775 62.1587C137.9 62.095 137.072 62.2383 137.072 62.2383C137.072 62.2383 136.221 62.2303 135.313 62.3656C134.406 62.5088 133.475 62.7476 133.388 62.5566C133.3 62.3815 134.088 61.7846 135.003 61.3549C135.918 60.9251 136.969 60.7421 136.969 60.7421C136.969 60.7421 138.051 60.75 139.038 61.132C140.025 61.5299 140.749 62.2542 140.638 62.4054Z" fill="#C52620"/>
</g>
</g>
<g opacity="0.45">
<g opacity="0.45">
<path opacity="0.45" d="M136.595 89.2572C136.531 89.3925 135.823 89.2174 135.146 88.9388C134.47 88.6603 133.833 88.2464 133.833 88.2464C133.833 88.2464 133.268 87.7291 132.854 87.0766C132.441 86.416 132.297 85.66 132.433 85.6202C132.584 85.5645 132.974 86.1375 133.459 86.5752C133.969 87.0129 134.518 87.3631 134.518 87.3631C134.518 87.3631 135.003 87.8167 135.544 88.2464C136.086 88.6921 136.659 89.1139 136.595 89.2572Z" fill="#C52620"/>
</g>
<g opacity="0.45">
<path opacity="0.45" d="M139.094 89.862C139.078 90.0132 138.831 90.1007 138.569 90.1405C138.306 90.1803 138.035 90.1724 138.035 90.1724C138.035 90.1724 137.836 90.0052 137.661 89.8142C137.486 89.6153 137.351 89.4004 137.43 89.2651C137.51 89.1298 137.773 89.1059 137.996 89.098C138.226 89.098 138.425 89.1298 138.425 89.1298C138.425 89.1298 138.584 89.2333 138.752 89.3765C138.919 89.5198 139.11 89.7108 139.094 89.862Z" fill="#C52620"/>
</g>
<g opacity="0.45">
<path opacity="0.45" d="M160.574 82.978C160.685 83.0655 159.332 84.9119 157.653 86.5036C156.769 87.2358 155.926 88.0316 155.178 88.4852C154.454 88.9707 153.976 89.297 153.976 89.297C153.976 89.297 153.451 89.5437 152.655 89.9098C151.883 90.3236 150.745 90.6101 149.647 90.9683C147.363 91.4935 145.047 91.3582 145.063 91.2309C145.063 91.0478 147.315 90.8966 149.432 90.2042C150.458 89.7665 151.509 89.4243 152.217 88.9786C152.949 88.5807 153.435 88.3261 153.435 88.3261C153.435 88.3261 153.912 88.0475 154.621 87.6257C155.361 87.2437 156.22 86.5354 157.143 85.9067C158.886 84.514 160.438 82.8745 160.574 82.978Z" fill="#C52620"/>
</g>
<g opacity="0.45">
<path opacity="0.45" d="M163.224 77.9084C163.51 78.0278 163.009 79.6672 163.009 79.6672C163.009 79.6672 162.054 81.0918 161.783 80.9406C161.513 80.7894 161.998 79.1818 161.998 79.1818C161.998 79.1818 162.937 77.797 163.224 77.9084Z" fill="#C52620"/>
</g>
</g>
<path d="M148.946 58.076C148.946 58.076 154.78 47.8733 143.057 41.9363C143.057 41.9363 138.497 50.3165 148.238 57.2245" fill="#B63E3E"/>
<path d="M149.32 57.2961C149.265 56.5241 149.066 55.2667 148.755 54.0252C148.246 52.0594 147.561 50.1574 147.561 50.1574C147.561 50.1574 146.718 48.319 145.779 46.5442C144.848 44.7695 143.893 43.0027 143.702 43.0823C143.511 43.1619 144.123 45.0799 144.808 46.966C145.492 48.8522 146.169 50.7224 146.169 50.7224C146.169 50.7224 146.988 52.521 147.737 54.3594C148.31 55.7999 148.787 57.2722 149.066 57.8293C149.145 57.6861 149.225 57.511 149.32 57.2961Z" fill="#6F3014"/>
<path opacity="0.45" d="M149.153 50.5632C148.588 52.8314 144.617 45.6847 144.617 45.6847C144.617 45.6847 147.116 51.7013 144.848 52.2663C144.203 52.4255 143.519 51.8684 142.882 50.9771C143.749 53.0224 145.373 55.1871 148.246 57.2244L148.954 58.076C148.954 58.076 152.114 52.5369 149.09 47.2445C149.265 48.5179 149.352 49.7674 149.153 50.5632Z" fill="#B63E3E"/>
</svg>
