<svg width="285" height="190" viewBox="0 0 285 190" fill="none" xmlns="http://www.w3.org/2000/svg">
<rect width="285" height="190" fill="#F8FCFF"/>
<path fill-rule="evenodd" clip-rule="evenodd" d="M188.52 90.3712C204.559 97.7509 224.591 68.3137 229.115 57.1554C226.177 54.206 217.897 49.5746 212.779 46.542C211.629 47.88 204.474 57.2041 196.763 61.7648C188.494 66.6458 179.67 66.7275 179.67 66.7165C179.576 66.7746 185.32 88.9138 188.52 90.3712Z" fill="#8C7763"/>
<path fill-rule="evenodd" clip-rule="evenodd" d="M88.4087 105.925C74.6434 105.925 64.787 114.75 61.3414 123.563C56.4493 136.072 64.1133 144.495 67.2762 149.376C71.4223 149.021 77.9022 146.995 83.4931 145.266C81.6572 136.168 80.5908 128.788 88.8233 124.927C91.0503 123.884 93.6557 123.79 96.002 123.304C96.0146 123.208 91.8324 105.925 88.4087 105.925Z" fill="#8C7763"/>
<path fill-rule="evenodd" clip-rule="evenodd" d="M84.7244 123.398C91.2403 134.012 112.657 146.593 124.989 146.462C169.446 145.965 234.244 99.6226 201.419 64.2866C200.022 62.7821 198.481 61.5854 196.823 60.6494C196.421 60.4248 204.593 52.7011 200.223 48.5786C194.04 49.7156 195.993 59.9866 195.224 59.7259C178.58 54.0879 151.596 67.4135 138.6 64.6887C129.147 62.6989 116.199 73.1583 106.32 78.074C85.2112 88.6056 70.4141 100.108 84.7244 123.398Z" fill="#A68F79"/>
<path fill-rule="evenodd" clip-rule="evenodd" d="M72.3819 39.1605C74.0529 41.9089 56.6142 67.2236 54.3527 77.2339C44.1053 122.674 124.208 135.54 136.043 92.5508C137.216 88.287 139.136 54.3001 126.009 41.7786C125.95 41.7189 133.994 31.3191 133.816 28.8424C133.698 27.2311 127.918 27.4321 124.422 31.7321C121.519 35.2971 123.616 39.5861 122.881 39.4668C121.72 39.2893 117.219 33.0702 103.251 33.0702C98.3123 33.0702 81.5143 33.0938 78.4927 36.7781C79.8543 33.5445 79.9972 24.0195 77.7106 23.0599C75.5794 22.1741 67.6076 31.283 72.3819 39.1605Z" fill="#B89F88"/>
<path fill-rule="evenodd" clip-rule="evenodd" d="M55.5479 73.573C67.2166 59.7967 141.218 73.2526 134.762 96.3529C129.229 116.1 102.636 123.73 77.9603 115.698C68.151 112.499 60.9975 106.256 56.0928 97.2654C50.348 86.7462 55.5479 73.573 55.5479 73.573Z" fill="#C7AF99"/>
<path fill-rule="evenodd" clip-rule="evenodd" d="M64.0898 62.0945C65.1326 64.0607 63.972 66.2406 62.9402 65.9799C61.767 65.6595 60.7242 62.5923 62.8224 61.4899C63.0941 61.3595 63.9359 61.7992 64.0898 62.0945Z" fill="#6E4D39"/>
<path fill-rule="evenodd" clip-rule="evenodd" d="M73.4593 49.5731C72.049 53.8259 66.8962 54.4651 65.7718 52.3811C64.5044 49.917 67.6312 44.3371 72.4997 46.6362C73.0918 46.9205 73.72 48.9213 73.4593 49.5731Z" fill="#806851"/>
<path fill-rule="evenodd" clip-rule="evenodd" d="M51.5918 79.4374C56.6268 83.4531 62.2052 78.9285 61.8738 75.6823C61.4356 71.9509 53.3445 67.5441 49.4716 73.5622C47.8603 75.742 50.8333 78.8798 51.5918 79.4374Z" fill="#FFBABD"/>
<path fill-rule="evenodd" clip-rule="evenodd" d="M80.4841 76.0135C81.4798 75.4324 81.3369 76.772 81.6918 79.1529C81.9289 80.7171 82.3545 83.1215 84.1669 83.0508C85.3636 83.0037 86.821 82.1509 87.5434 81.0956C88.894 79.1167 89.0008 77.1395 90.174 77.4238C90.8022 77.5667 90.1866 81.1081 88.2077 83.0037C86.1818 84.959 82.6639 85.5149 81.0652 82.2687C80.3302 80.7877 80.2941 76.1203 80.4841 76.0135Z" fill="#806851"/>
<path fill-rule="evenodd" clip-rule="evenodd" d="M127.797 67.117C128.839 69.0722 127.679 71.2631 126.647 71.0024C125.463 70.671 124.42 67.6023 126.529 66.5124C126.803 66.3836 127.632 66.8217 127.797 67.117Z" fill="#6E4D39"/>
<path fill-rule="evenodd" clip-rule="evenodd" d="M129.16 54.5843C131.233 58.8372 136.492 59.4889 137.285 57.3923C138.174 54.9282 134.17 49.3609 129.656 51.6585C129.111 51.9427 128.803 53.9451 129.16 54.5843Z" fill="#806851"/>
<path fill-rule="evenodd" clip-rule="evenodd" d="M126.518 87.6352C131.553 91.6509 137.132 87.1263 136.8 83.8801C136.362 80.1486 128.271 75.7418 124.398 81.7599C122.787 83.9382 125.76 87.0776 126.518 87.6352Z" fill="#FFBABD"/>
<path fill-rule="evenodd" clip-rule="evenodd" d="M185.072 108.874C192.465 124.903 226.83 115.568 237.514 110.024C237.194 105.878 233.925 96.9701 232.006 91.3431C230.265 91.6038 218.751 94.0443 209.938 92.4927C200.485 90.8217 193.732 85.1475 193.732 85.1475C193.613 85.1224 183.591 105.675 185.072 108.874ZM103.608 123.634C87.735 136.641 97.7327 158.865 103.478 167.713C107.624 167.345 116.461 164.396 122.052 162.654C121.755 161.197 119.09 151.59 120.477 144.138C121.957 136.154 127.489 130.362 127.501 130.362C127.525 130.268 106.26 121.467 103.608 123.634Z" fill="#A68F79"/>
<path fill-rule="evenodd" clip-rule="evenodd" d="M67.2637 149.376C66.7188 147.741 67.0737 144.779 68.7682 144.862C70.6638 144.956 72.4636 146.758 73.0682 148.297C71.3988 148.724 68.7918 149.175 67.2637 149.376Z" fill="#C7AF99"/>
<path fill-rule="evenodd" clip-rule="evenodd" d="M73.0682 148.299C72.239 146.807 72.0725 143.702 73.7545 143.43C75.6375 143.133 77.4153 145.467 78.2791 146.854C76.4448 147.433 74.5963 147.837 73.0682 148.299Z" fill="#C7AF99"/>
<path fill-rule="evenodd" clip-rule="evenodd" d="M78.2807 146.852C77.4515 145.371 77.2379 142.149 78.9199 141.89C80.8029 141.593 82.6388 143.879 83.4932 145.266C81.6573 145.846 79.9156 146.367 78.2807 146.852Z" fill="#C7AF99"/>
<path fill-rule="evenodd" clip-rule="evenodd" d="M103.478 167.761C102.815 165.913 103.146 162.513 105.089 162.573C107.256 162.632 109.342 164.658 110.064 166.398C108.18 166.92 105.207 167.488 103.478 167.761Z" fill="#C7AF99"/>
<path fill-rule="evenodd" clip-rule="evenodd" d="M110.064 166.398C109.092 164.716 108.833 161.175 110.74 160.831C112.883 160.452 114.969 163.07 115.987 164.633C113.89 165.344 111.804 165.842 110.064 166.398Z" fill="#C7AF99"/>
<path fill-rule="evenodd" clip-rule="evenodd" d="M115.987 164.633C115.003 162.951 114.683 159.29 116.602 158.946C118.735 158.568 120.879 161.137 121.898 162.69C119.801 163.402 117.835 164.041 115.987 164.633Z" fill="#C7AF99"/>
<path fill-rule="evenodd" clip-rule="evenodd" d="M237.586 109.811C235.75 110.557 232.35 110.367 232.363 108.436C232.375 106.269 234.353 104.089 236.082 103.284C236.65 105.143 237.278 108.093 237.586 109.811Z" fill="#C7AF99"/>
<path fill-rule="evenodd" clip-rule="evenodd" d="M236.082 103.284C234.423 104.337 230.882 104.765 230.502 102.869C230.064 100.749 232.645 98.5455 234.186 97.4556C234.932 99.516 235.477 101.578 236.082 103.284Z" fill="#C7AF99"/>
<path fill-rule="evenodd" clip-rule="evenodd" d="M234.186 97.4556C232.528 98.5094 228.867 98.9963 228.488 97.1007C228.061 94.9806 230.574 92.7301 232.113 91.6401C232.859 93.7006 233.547 95.6433 234.186 97.4556Z" fill="#C7AF99"/>
<path fill-rule="evenodd" clip-rule="evenodd" d="M228.986 57.1787C228.027 58.9675 225.219 61.0641 223.975 59.536C222.565 57.8179 222.707 54.8088 223.548 53.0562C225.206 54.1335 227.623 56.0291 228.986 57.1787Z" fill="#C7AF99"/>
<path fill-rule="evenodd" clip-rule="evenodd" d="M223.548 53.0563C222.919 54.9628 220.397 57.6295 218.857 56.3857C217.138 55.0115 217.743 51.5768 218.241 49.7158C220.184 50.8403 221.961 52.0967 223.548 53.0563Z" fill="#C7AF99"/>
<path fill-rule="evenodd" clip-rule="evenodd" d="M218.241 49.7157C217.625 51.6348 215.054 54.4193 213.514 53.1865C211.796 51.7997 212.317 48.3776 212.815 46.5166C214.747 47.6301 216.559 48.709 218.241 49.7157Z" fill="#C7AF99"/>
</svg>
