<svg width="285" height="190" viewBox="0 0 285 190" fill="none" xmlns="http://www.w3.org/2000/svg">
<rect width="285" height="190" fill="#FDDFED"/>
<path fill-rule="evenodd" clip-rule="evenodd" d="M154.535 51.841C147.621 47.1697 137.289 49.7415 130.376 48.988C127.965 48.7255 125.66 46.7911 124.471 45.7676C124.179 48.3994 124.527 49.6291 124.036 51.5186C122.754 56.4748 113.809 67.3919 121.794 71.6133C142.984 82.8154 168.046 60.9699 154.535 51.841Z" fill="#EA4E51"/>
<path d="M134.391 74.9612C129.915 74.9612 125.645 73.9002 121.693 71.812C115.56 68.5691 119.14 61.4122 121.757 56.1899C122.653 54.4016 123.5 52.7108 123.822 51.4661C124.092 50.4201 124.1 49.5991 124.107 48.5606C124.115 47.7808 124.122 46.896 124.25 45.7488L124.299 45.3252L124.621 45.6026C125.63 46.4724 127.988 48.5044 130.402 48.7668C131.324 48.868 132.389 48.9167 133.656 48.9167C134.912 48.9167 136.209 48.8718 137.585 48.823C139.01 48.7743 140.483 48.7218 141.957 48.7218C145.844 48.7218 150.804 49.0555 154.658 51.6573C158.059 53.9554 159.303 57.2583 158.164 60.9586C156.083 67.7181 146.032 74.9612 134.391 74.9612ZM124.651 46.2175C124.565 47.1397 124.561 47.8895 124.557 48.5569C124.55 49.5841 124.542 50.4726 124.257 51.5711C123.924 52.8645 123.106 54.4953 122.158 56.3848C119.485 61.7272 116.156 68.3742 121.903 71.4109C125.787 73.4653 129.99 74.5076 134.387 74.5076C145.829 74.5076 155.697 67.4294 157.732 60.8199C158.808 57.3258 157.627 54.2029 154.403 52.0247C150.651 49.4904 145.781 49.1679 141.953 49.1679C140.487 49.1679 139.017 49.2204 137.596 49.2692C136.217 49.3179 134.912 49.3629 133.649 49.3629C132.363 49.3629 131.283 49.3142 130.346 49.2129C128.036 48.958 125.821 47.211 124.651 46.2175Z" fill="#D24138"/>
<path d="M154.662 66.5785L154.227 66.4698C155.097 63.0169 154.774 60.2464 153.26 58.2332C150.021 53.9218 141.852 53.5994 135.887 53.3632C132.513 53.232 129.851 53.127 128.704 52.3997C124.887 49.9816 124.722 48.4895 124.58 47.1698C124.531 46.7162 124.486 46.2925 124.272 45.8651L123.538 44.3955L124.64 45.6177C124.775 45.7677 124.943 46.0338 125.176 46.405C126.184 48.0058 128.265 51.3087 131.83 51.3087C131.898 51.3087 131.965 51.3087 132.033 51.305C133.101 51.2675 134.29 51.1925 135.553 51.11C142.579 50.6639 151.318 50.1053 154.887 54.7166C156.799 57.1834 156.938 60.9287 155.303 65.8437L154.876 65.7012C156.462 60.9362 156.345 57.3296 154.531 54.9865C151.112 50.5664 142.137 51.14 135.583 51.5562C134.32 51.6349 133.124 51.7136 132.052 51.7511C128.374 51.8748 126.158 48.7744 125.015 46.9823C125.018 47.0311 125.026 47.0761 125.03 47.1211C125.161 48.3357 125.311 49.7154 128.947 52.0173C129.99 52.6771 132.734 52.7858 135.906 52.9133C141.96 53.1532 150.257 53.4794 153.624 57.9632C155.217 60.0927 155.569 62.9907 154.662 66.5785Z" fill="#D24138"/>
<path d="M152.506 68.6179L152.191 68.2992C152.716 67.7856 152.686 65.9711 152.371 65.2063C149.477 58.2106 143.479 57.1908 137.124 56.1149C135.313 55.8075 133.439 55.4888 131.673 55.0202C126.998 53.7792 124.122 51.796 124.25 45.7676L124.7 45.7751C124.58 51.5373 127.208 53.3706 131.789 54.5853C133.536 55.0502 135.4 55.3651 137.199 55.6725C143.392 56.7222 149.796 57.8094 152.787 65.0375C153.129 65.8586 153.241 67.8943 152.506 68.6179Z" fill="#D24138"/>
<path d="M151.115 69.3492C150.572 63.0171 144.191 58.1996 139.224 58.4095C129.84 58.8219 124.812 55.2004 124.269 47.6236L124.719 47.5898C125.243 54.8817 130.117 58.372 139.201 57.9597C144.326 57.7122 150.999 62.7396 151.562 69.3079L151.115 69.3492Z" fill="#D24138"/>
<path d="M149.095 70.6504C146.23 61.8514 139.411 60.9929 133.398 60.2356C129.259 59.7144 125.686 59.2646 124.355 56.2204C123.946 55.2831 124.074 53.2699 124.201 51.3204C124.276 50.1544 124.347 49.0522 124.31 48.1975L124.76 48.1787C124.801 49.056 124.73 50.1695 124.651 51.3504C124.527 53.2474 124.404 55.2044 124.767 56.0442C125.997 58.8559 129.45 59.2908 133.454 59.7932C139.299 60.528 146.572 61.4428 149.522 70.5154L149.095 70.6504Z" fill="#D24138"/>
<path d="M147.79 71.3734C146.062 65.2175 140.198 64.209 134.526 63.238C133.27 63.0206 132.082 62.8181 130.931 62.5595C125.363 61.3035 122.255 60.2688 123.028 53.5918L123.474 53.6443C122.773 59.6765 124.988 60.7599 131.028 62.1208C132.168 62.3795 133.349 62.5819 134.601 62.7956C140.142 63.7479 146.418 64.8239 148.225 71.2572L147.79 71.3734Z" fill="#D24138"/>
<path d="M146.579 71.9097C145.282 67.2197 138.069 65.4876 134.192 64.5541L133.769 64.4529C132.569 64.1642 131.583 64.003 130.709 63.8606C128.782 63.5494 127.26 63.302 124.835 61.9261C123.118 60.9513 121.029 58.1358 121.794 56.1113L122.218 56.2688C121.558 58.0158 123.459 60.6252 125.06 61.5362C127.414 62.8746 128.902 63.1145 130.784 63.4182C131.665 63.5607 132.663 63.7219 133.877 64.018L134.301 64.1193C138.267 65.0715 145.649 66.8485 147.018 71.7897L146.579 71.9097Z" fill="#D24138"/>
<path d="M143.734 72.8097C142.894 70.073 137.255 68.7046 131.8 67.3774C128.471 66.5676 125.33 65.8066 123.35 64.7493C121.412 63.7146 121.022 61.7914 120.707 60.2505C120.617 59.8119 120.535 59.3995 120.422 59.0471L120.853 58.9121C120.969 59.287 121.056 59.7107 121.149 60.1605C121.461 61.6864 121.809 63.4147 123.564 64.3519C125.491 65.3829 128.61 66.1402 131.905 66.9388C137.484 68.2922 143.25 69.6943 144.165 72.6748L143.734 72.8097Z" fill="#D24138"/>
<path d="M143.902 73.1355L143.752 72.8468L144.15 72.6406L144.303 72.933L143.902 73.1355Z" fill="#D24138"/>
<path d="M141.207 74.0131C138.35 70.9614 134.32 69.9154 130.425 68.9032C125.862 67.7185 121.554 66.5975 119.5 62.4136C119.417 62.2449 119.369 62.1512 119.26 62.0387L119.586 61.7275C119.744 61.8962 119.819 62.0425 119.901 62.2149C121.866 66.2151 126.076 67.3098 130.537 68.4683C134.496 69.4955 138.586 70.5602 141.533 73.7094L141.207 74.0131Z" fill="#D24138"/>
<path d="M136.719 74.7549L136.318 74.5525C136.281 74.6237 136.303 74.6837 136.311 74.7024C136.262 74.6237 135.966 74.3838 135.838 74.2825C135.744 74.2076 135.666 74.1438 135.625 74.1063C134.376 72.9066 132.565 72.2281 130.473 71.4445C127.14 70.1961 122.998 68.6402 118.623 64.2426L118.941 63.9277C123.245 68.2541 127.339 69.7912 130.627 71.0246C132.768 71.8269 134.616 72.5205 135.932 73.7839C135.966 73.8139 136.033 73.8664 136.112 73.9301C136.596 74.3088 136.839 74.5187 136.719 74.7549Z" fill="#D24138"/>
<path d="M131.617 74.7286C131.051 73.7876 129.577 73.2702 127.707 72.6179C125.108 71.7069 121.547 70.4584 118.401 67.268L118.724 66.9531C121.798 70.0686 125.157 71.2457 127.857 72.1905C129.81 72.8728 131.354 73.4164 132.003 74.4962L131.617 74.7286Z" fill="#D24138"/>
<path fill-rule="evenodd" clip-rule="evenodd" d="M128.636 52.3886C128.884 52.2237 129.461 49.8618 126.792 51.1177C125.191 51.8713 125.558 46.945 122.84 50.3004C122.368 50.8815 122.469 47.2975 119.665 49.2282C119.324 49.4606 117.708 46.6601 115.822 48.4709C115.35 48.9245 113.25 45.8166 112.313 47.8523C111.792 47.7848 109.872 44.6431 108.077 46.8363C107.484 46.7613 107.316 44.8493 105.246 46.6526C104.905 46.9488 106.138 46.8026 104.624 47.8936C103.165 48.9433 105.445 49.4906 104.676 50.3117C103.387 51.6913 104.864 51.4589 103.915 52.4036C102.341 53.9707 103.567 55.3241 103.094 55.4741C101.141 56.0814 104.032 59.1406 103.687 59.1069C103.428 59.0844 102.378 61.36 103.312 62.6347C103.447 62.8184 102.457 63.1596 102.284 64.4867C101.988 66.7511 102.847 65.2178 102.408 67.7296C102.232 68.7269 104.028 68.2995 103.447 69.4279C102.228 71.7898 105.25 71.31 106.847 72.967C108.253 74.4254 110.217 72.6859 111.53 73.4244C113.295 74.4217 114.941 72.6334 115.057 73.7506C115.211 75.2577 117.464 75.1227 118.634 73.8855C118.833 73.9118 118.465 75.3139 121.581 73.7093C121.892 73.5481 122.492 74.4891 124.134 73.2819C124.141 73.2745 126.631 73.1995 125.562 72.6558C124.614 72.176 127.317 70.7776 125.877 70.2527C123.519 69.3942 129.622 67.3772 127.388 67.156C125.386 66.9573 130.376 66.2713 128.756 64.5467C128.209 63.9656 128.355 64.1381 127.939 63.9619C127.748 63.8794 128.966 64.4342 129.664 63.5195C131.152 61.5737 128.839 61.39 128.168 61.3338C129.99 61.5588 131.347 57.3298 128.708 57.8247C128.704 57.8247 130.278 56.9249 130.387 56.1414C130.462 55.6165 129.495 55.0392 129.146 54.7355C129.086 54.683 130.432 53.9145 130.301 53.3521C130.17 52.7973 128.561 52.4411 128.636 52.3886Z" fill="#F9BA75"/>
<path d="M105.846 72.1273L105.396 72.1086C105.658 66.3201 104.837 59.883 103.019 53.4909L103.454 53.3672C105.28 59.8043 106.108 66.2901 105.846 72.1273Z" fill="#F3E2BB"/>
<path d="M110.109 73.3454L109.659 73.3192C110.142 65.2513 108.463 55.8225 105.044 47.4509L105.46 47.2822C108.905 55.7138 110.6 65.2138 110.109 73.3454Z" fill="#F3E2BB"/>
<path d="M114.431 73.4698L113.981 73.4473C114.394 65.2182 112.504 55.3433 108.928 47.0317L109.344 46.8555C112.947 55.227 114.847 65.177 114.431 73.4698Z" fill="#F3E2BB"/>
<path d="M118.731 74.0241L118.281 74.0016C118.69 65.7725 116.801 55.9051 113.228 47.601L113.644 47.4248C117.243 55.7889 119.144 65.7313 118.731 74.0241Z" fill="#F3E2BB"/>
<path d="M123.062 73.8999L122.612 73.8849C122.889 65.8245 120.988 56.212 117.528 48.1703L117.944 47.9941C121.479 56.2157 123.346 65.6595 123.062 73.8999Z" fill="#F3E2BB"/>
<path d="M126.735 68.2401C126.226 62.3691 124.733 56.052 122.529 50.4472L122.949 50.2822C125.168 55.9245 126.672 62.2904 127.185 68.1988L126.735 68.2401Z" fill="#F3E2BB"/>
<path d="M129.652 60.1715C129.472 59.3917 129.277 58.6157 129.075 57.8584L129.51 57.7422C129.716 58.5032 129.911 59.2868 130.091 60.0703L129.652 60.1715ZM128.993 57.5585C128.385 55.3353 127.665 53.1571 126.852 51.0839L127.272 50.9189C128.093 53.0109 128.816 55.2041 129.427 57.4423L128.993 57.5585Z" fill="#F3E2BB"/>
<path d="M103.225 60.6397L102.817 60.4523C103.03 59.9799 103.24 59.5075 103.447 59.0314L103.863 59.2076C103.653 59.6875 103.443 60.1636 103.225 60.6397ZM103.908 59.0989L103.492 58.9227C105.374 54.4951 106.6 50.195 107.143 46.1348L107.589 46.1948C107.042 50.2962 105.805 54.6376 103.908 59.0989Z" fill="#F3E2BB"/>
<path d="M103.469 68.7453L103.087 68.5091C107.432 61.5434 110.375 53.9854 111.368 47.2334L111.814 47.2971C110.81 54.1091 107.848 61.7271 103.469 68.7453Z" fill="#F3E2BB"/>
<path d="M105.823 72.2542L105.452 71.9955C110.633 64.6137 114.315 56.0359 115.56 48.4629L116.002 48.5341C114.754 56.1746 111.038 64.8161 105.823 72.2542Z" fill="#F3E2BB"/>
<path d="M109.595 73.5588L109.231 73.2964C114.72 65.7084 118.6 56.8269 119.879 48.9277L120.325 48.999C119.035 56.9656 115.125 65.9183 109.595 73.5588Z" fill="#F3E2BB"/>
<path d="M114.255 73.6271L113.888 73.3684C119.29 65.7429 123.065 56.8914 124.243 49.0859L124.689 49.1534C123.496 57.0264 119.695 65.9491 114.255 73.6271Z" fill="#F3E2BB"/>
<path d="M118.446 74.3503L118.079 74.0916C123.234 66.8635 126.975 58.3907 128.344 50.8477L128.786 50.9264C127.407 58.5294 123.635 67.0697 118.446 74.3503Z" fill="#F3E2BB"/>
<path d="M123.451 73.904L123.08 73.6528C123.882 72.4756 124.662 71.2497 125.401 70.0087L125.787 70.2374C125.045 71.4896 124.261 72.723 123.451 73.904ZM126.705 68.6291L126.312 68.4116C126.563 67.958 126.81 67.5006 127.054 67.0395L127.452 67.2457C127.208 67.7106 126.96 68.1717 126.705 68.6291ZM127.721 66.7283L127.32 66.5221C127.688 65.8061 128.055 65.06 128.408 64.3027L128.816 64.4902C128.46 65.255 128.093 66.0085 127.721 66.7283ZM128.985 64.134L128.576 63.9466C128.925 63.1855 129.259 62.4207 129.566 61.6709L129.982 61.8396C129.671 62.5969 129.334 63.3692 128.985 64.134Z" fill="#F3E2BB"/>
<path d="M116.467 75.074C115.541 75.074 114.915 74.5754 114.832 73.7769C114.814 73.5969 114.772 73.5969 114.69 73.5969C114.551 73.5969 114.345 73.6569 114.101 73.7244C113.726 73.8331 113.258 73.9681 112.74 73.9681C112.261 73.9681 111.829 73.8556 111.421 73.6232C110.99 73.3795 110.326 73.4694 109.61 73.6194C109.19 73.7094 108.751 73.7994 108.32 73.7994C107.657 73.7994 107.124 73.5782 106.689 73.1245C106.127 72.5397 105.359 72.2323 104.68 71.9586C103.908 71.6474 103.237 71.3775 103.015 70.7814C102.869 70.3915 102.948 69.9191 103.252 69.3268C103.33 69.1731 103.36 69.0531 103.334 68.9781C103.297 68.8731 103.109 68.7869 102.925 68.7082C102.588 68.5582 102.078 68.3333 102.191 67.6922C102.404 66.4663 102.299 66.2826 102.194 66.1026C102.029 65.8214 101.924 65.5365 102.067 64.4605C102.191 63.5083 102.708 63.0172 102.985 62.751C103.012 62.7247 103.045 62.6947 103.068 62.6722C102.382 61.6038 102.835 60.0742 103.18 59.3956C103.278 59.2044 103.364 59.0844 103.439 59.0057C103.387 58.9157 103.308 58.7958 103.233 58.687C102.757 57.9672 101.962 56.7601 102.258 55.9353C102.371 55.6241 102.618 55.4029 102.993 55.2754C102.993 55.208 102.967 55.0842 102.948 54.9868C102.839 54.4206 102.641 53.3672 103.762 52.25C104.091 51.9201 104.054 51.8301 103.986 51.6651C103.84 51.309 103.78 50.9491 104.515 50.1618C104.695 49.9706 104.639 49.8468 104.324 49.4644C104.103 49.1983 103.855 48.8946 103.908 48.5122C103.945 48.2348 104.136 47.9723 104.493 47.7137C105.149 47.2413 105.175 47.0726 105.175 47.0688C105.171 47.0801 105.145 47.0538 105.126 47.0388C105.066 46.9864 104.961 46.9039 104.957 46.7577C104.957 46.6602 105.002 46.5665 105.096 46.4877C105.733 45.9291 106.266 45.6592 106.716 45.6592C107.263 45.6592 107.574 46.0453 107.799 46.3265C107.87 46.4165 107.945 46.5102 108.013 46.5665C108.452 46.0828 108.939 45.8391 109.46 45.8391C110.416 45.8391 111.271 46.6602 111.837 47.2C111.961 47.32 112.107 47.4587 112.216 47.5487C112.459 47.1401 112.789 46.9339 113.19 46.9339C113.801 46.9339 114.45 47.4325 114.971 47.8299C115.226 48.0248 115.578 48.2948 115.695 48.2948C116.126 47.8636 116.624 47.6387 117.145 47.6387C118.03 47.6387 118.758 48.2835 119.237 48.7109C119.361 48.8196 119.507 48.9508 119.59 49.0033C120.167 48.6172 120.658 48.4297 121.101 48.4297C122.064 48.4297 122.439 49.3182 122.664 49.8506C122.69 49.9106 122.72 49.9856 122.75 50.0455C123.41 49.2582 123.939 48.8946 124.411 48.8946C125.041 48.8946 125.382 49.5282 125.682 50.0868C125.918 50.5254 126.158 50.9753 126.462 50.9753C126.529 50.9753 126.604 50.9566 126.687 50.9191C127.973 50.3117 128.801 50.4467 129.026 51.1927C129.131 51.5339 129.075 51.9876 128.951 52.2875C128.955 52.2875 128.959 52.2875 128.959 52.2912C129.648 52.5311 130.395 52.8236 130.507 53.3072C130.634 53.8583 129.915 54.4057 129.484 54.7318C129.506 54.7506 129.532 54.7693 129.559 54.7881C130.031 55.1442 130.676 55.6316 130.597 56.179C130.522 56.7001 129.956 57.2249 129.446 57.6036C129.768 57.6748 129.971 57.836 130.091 57.9785C130.29 58.2147 130.395 58.5408 130.395 58.9232C130.395 59.7855 129.888 60.7827 129.184 61.2701C129.664 61.3976 130.102 61.6188 130.286 62.0274C130.481 62.4661 130.327 63.0134 129.832 63.662C129.574 64.0032 129.214 64.2093 128.786 64.2656C128.824 64.3068 128.865 64.3481 128.91 64.3968C129.221 64.7305 129.349 65.0641 129.285 65.3978C129.154 66.0914 128.243 66.5262 127.579 66.8449C127.519 66.8749 127.455 66.9049 127.392 66.9349C127.395 66.9349 127.399 66.9349 127.399 66.9349C127.688 66.9649 128.025 67.0324 128.093 67.3061C128.183 67.6697 127.692 67.9959 126.949 68.4907C126.409 68.8506 125.506 69.4505 125.543 69.7579C125.555 69.8516 125.701 69.9566 125.944 70.0466C126.256 70.1591 126.443 70.3278 126.503 70.549C126.612 70.9426 126.289 71.3438 125.974 71.7337C125.802 71.9473 125.547 72.266 125.573 72.3897C125.581 72.4197 125.633 72.4497 125.656 72.461C125.765 72.5172 126.098 72.6859 126.038 72.9746C125.993 73.1883 125.809 73.4207 124.205 73.5069C123.609 73.9343 123.084 74.1368 122.593 74.1368C122.263 74.1368 122.019 74.043 121.839 73.9756C121.772 73.9493 121.686 73.9193 121.656 73.9193C120.64 74.4479 119.882 74.7066 119.361 74.7066C118.859 74.7066 118.653 74.4629 118.555 74.2642C117.982 74.7666 117.202 75.074 116.467 75.074ZM114.69 73.147C114.889 73.147 115.23 73.222 115.282 73.7319C115.365 74.5417 116.137 74.6279 116.467 74.6279C117.172 74.6279 117.959 74.2792 118.473 73.7356L118.551 73.6532L118.664 73.6681C118.84 73.6906 118.896 73.8518 118.926 73.9493C118.979 74.1105 119.028 74.2605 119.372 74.2605C119.811 74.2605 120.52 74.0093 121.479 73.5182C121.629 73.4395 121.813 73.4845 122.012 73.5632C122.173 73.6232 122.357 73.6944 122.604 73.6944C123.005 73.6944 123.478 73.4994 124.002 73.1133C124.051 73.0721 124.096 73.0721 124.182 73.0683C124.981 73.0233 125.348 72.9483 125.51 72.8958C125.495 72.8883 125.48 72.8808 125.465 72.8696C125.288 72.7796 125.18 72.6522 125.146 72.4947C125.075 72.161 125.348 71.8236 125.637 71.4637C125.843 71.205 126.128 70.8526 126.079 70.6802C126.053 70.5865 125.892 70.5152 125.798 70.4815C125.363 70.324 125.135 70.1103 125.101 69.8254C125.033 69.2443 125.884 68.6782 126.706 68.1308C127.024 67.9171 127.493 67.6097 127.628 67.4448C127.579 67.4298 127.5 67.411 127.362 67.396C127.013 67.3623 126.724 67.3136 126.679 67.0699C126.634 66.8112 126.9 66.6837 127.388 66.4513C127.935 66.1888 128.756 65.7952 128.846 65.3266C128.88 65.1391 128.797 64.9404 128.584 64.7155C128.205 64.3143 128.198 64.3106 128.081 64.2731C128.025 64.2543 127.954 64.2281 127.845 64.1831L127.677 64.1119L127.729 63.7445L127.991 63.7595C128.033 63.7745 128.258 63.8457 128.531 63.8457C128.932 63.8457 129.251 63.6957 129.476 63.3996C129.742 63.0509 130.027 62.5635 129.877 62.2186C129.727 61.8812 129.169 61.6638 128.22 61.5813C128.198 61.5813 128.168 61.5775 128.134 61.5738L128.179 61.1277L128.258 61.1352C129.15 61.1352 129.948 59.8942 129.948 58.9345C129.948 58.6571 129.881 58.4284 129.753 58.2784C129.559 58.0497 129.21 57.9785 128.741 58.0647L128.539 58.1022L128.438 57.7385L128.599 57.6411C129.277 57.2324 130.091 56.5951 130.158 56.1265C130.2 55.8415 129.607 55.3954 129.292 55.1555C129.176 55.0655 129.067 54.9868 128.992 54.9193L128.91 54.848V54.7356C128.914 54.6081 128.989 54.5519 129.214 54.3794C129.442 54.207 130.136 53.6784 130.072 53.4122C130.005 53.131 129.109 52.8198 128.816 52.7186C128.524 52.6174 128.423 52.5836 128.404 52.4262L128.385 52.2875L128.505 52.205C128.569 52.1225 128.722 51.5751 128.569 51.2415C128.516 51.129 128.408 50.979 128.066 50.979C127.77 50.979 127.369 51.0953 126.882 51.324C126.739 51.3915 126.597 51.4252 126.466 51.4252C125.892 51.4252 125.585 50.8516 125.288 50.3005C125.037 49.8318 124.779 49.3482 124.415 49.3482C124.179 49.3482 123.748 49.5394 123.009 50.4467C122.93 50.5442 122.837 50.5967 122.735 50.5967C122.492 50.5967 122.394 50.3567 122.252 50.0306C121.997 49.427 121.719 48.8834 121.104 48.8834C120.748 48.8834 120.302 49.0633 119.785 49.4195L119.729 49.4607L119.612 49.4757C119.421 49.4757 119.241 49.3182 118.941 49.0521C118.51 48.6697 117.858 48.0923 117.149 48.0923C116.744 48.0923 116.358 48.2723 115.976 48.6434C115.901 48.7146 115.807 48.7521 115.698 48.7521C115.428 48.7521 115.121 48.5159 114.697 48.1935C114.229 47.8336 113.648 47.3912 113.194 47.3912C113.014 47.3912 112.752 47.4512 112.515 47.9573L112.448 48.1073L112.283 48.0848C112.088 48.0586 111.901 47.8861 111.529 47.53C111.016 47.0388 110.24 46.2928 109.468 46.2928C109.033 46.2928 108.635 46.5177 108.253 46.9863L108.174 47.0838L108.05 47.0688C107.795 47.0351 107.623 46.8214 107.454 46.6114C107.248 46.3565 107.053 46.1128 106.723 46.1128C106.408 46.1128 105.988 46.3303 105.482 46.7577C105.565 46.8364 105.632 46.9376 105.629 47.0876C105.621 47.3538 105.359 47.6499 104.759 48.0811C104.511 48.261 104.376 48.426 104.354 48.5722C104.328 48.7634 104.496 48.9658 104.673 49.1795C104.927 49.4907 105.317 49.9631 104.841 50.4692C104.241 51.1103 104.324 51.3052 104.399 51.4964C104.519 51.7851 104.575 52.0663 104.073 52.5686C103.12 53.5172 103.278 54.3532 103.383 54.9043C103.439 55.208 103.51 55.5828 103.158 55.6916C102.895 55.774 102.738 55.9015 102.671 56.089C102.449 56.7038 103.195 57.836 103.597 58.4434C103.9 58.9045 103.994 59.0469 103.904 59.2082L103.84 59.3244L103.735 59.3319C103.458 59.6056 102.719 61.4538 103.488 62.5073C103.649 62.7285 103.447 62.9234 103.282 63.0772C103.027 63.3208 102.603 63.7257 102.498 64.5168C102.367 65.529 102.468 65.7052 102.569 65.8777C102.746 66.1814 102.843 66.4775 102.618 67.7709C102.569 68.0409 102.712 68.1308 103.09 68.2995C103.349 68.412 103.638 68.5395 103.739 68.8319C103.81 69.0306 103.776 69.2593 103.634 69.533C103.39 70.0016 103.323 70.3615 103.42 70.6239C103.574 71.0326 104.155 71.2688 104.83 71.5425C105.55 71.8349 106.367 72.161 106.997 72.8134C107.349 73.177 107.765 73.3495 108.305 73.3495C108.691 73.3495 109.104 73.2633 109.505 73.1808C110.274 73.0233 111.08 72.9221 111.627 73.2333C111.968 73.4245 112.328 73.5182 112.725 73.5182C113.179 73.5182 113.595 73.3982 113.963 73.2932C114.251 73.2145 114.491 73.147 114.69 73.147Z" fill="#9E7954"/>
<path fill-rule="evenodd" clip-rule="evenodd" d="M133.757 51.2977C134.114 51.279 136.67 51.4514 136.652 51.0915C136.595 50.0418 136.704 50.4467 135.208 50.5966C134.995 50.6191 133.626 50.6941 133.63 50.7541C133.638 50.9341 133.608 51.3052 133.757 51.2977Z" fill="#F9D1E4"/>
<path d="M135.223 51.5455C134.878 51.5455 134.53 51.5343 134.252 51.5268C134.076 51.523 133.93 51.5193 133.836 51.5193H133.769C133.412 51.5193 133.409 51.1144 133.405 50.8707L133.401 50.7582C133.39 50.492 133.472 50.4883 134.848 50.3908C135.006 50.3796 135.13 50.3721 135.182 50.3646C135.598 50.3233 135.883 50.2633 136.089 50.2184C136.239 50.1846 136.352 50.1621 136.445 50.1621C136.828 50.1621 136.843 50.492 136.865 50.9119L136.873 51.0731C136.877 51.1556 136.847 51.2381 136.787 51.3018C136.652 51.448 136.329 51.5455 135.223 51.5455ZM133.866 51.0731C133.964 51.0731 134.102 51.0769 134.264 51.0806C134.537 51.0881 134.882 51.0994 135.223 51.0994C136.026 51.0994 136.318 51.0431 136.423 51.0094L136.419 50.9382C136.412 50.8182 136.408 50.6945 136.397 50.6233C136.344 50.6308 136.269 50.6457 136.191 50.6645C135.984 50.7095 135.673 50.7769 135.234 50.8182C135.178 50.8219 135.051 50.8332 134.886 50.8444C134.635 50.8632 134.117 50.8969 133.862 50.9307C133.859 50.9757 133.862 51.0281 133.866 51.0731Z" fill="#F4AECE"/>
<path fill-rule="evenodd" clip-rule="evenodd" d="M138.403 50.2519C138.466 50.6005 139.209 53.0449 138.853 53.1086C137.814 53.2923 138.234 53.3073 138.043 51.819C138.017 51.6053 137.78 50.2631 137.84 50.2519C138.024 50.2219 138.376 50.1057 138.403 50.2519Z" fill="#F9D1E4"/>
<path d="M138.298 53.4192C137.893 53.4192 137.885 53.0855 137.881 52.7631C137.878 52.5531 137.874 52.2607 137.822 51.8483C137.814 51.7958 137.795 51.6721 137.769 51.5147C137.552 50.1538 137.54 50.0751 137.803 50.0301L137.911 50.0076C138.024 49.9813 138.151 49.9551 138.264 49.9551C138.556 49.9551 138.616 50.15 138.624 50.2138C138.639 50.2887 138.68 50.4574 138.74 50.6786C139.171 52.3282 139.257 52.9393 139.096 53.1905C139.047 53.2655 138.976 53.3142 138.89 53.3292L138.729 53.3592C138.534 53.3929 138.403 53.4192 138.298 53.4192ZM138.065 50.435C138.091 50.6936 138.174 51.2035 138.215 51.4472C138.241 51.6084 138.26 51.7359 138.268 51.7921C138.324 52.2307 138.328 52.5457 138.331 52.7556C138.331 52.8306 138.335 52.913 138.339 52.9693C138.414 52.9618 138.515 52.9431 138.654 52.9168L138.725 52.9018C138.766 52.5456 138.421 51.2373 138.305 50.7874C138.264 50.6337 138.23 50.5024 138.208 50.4087C138.163 50.4162 138.114 50.4237 138.065 50.435Z" fill="#F4AECE"/>
<path fill-rule="evenodd" clip-rule="evenodd" d="M134.166 52.8611C134.473 53.0336 136.839 54.0195 136.663 54.3307C136.146 55.2455 136.423 54.9343 135.152 54.132C134.968 54.0158 133.78 53.341 133.81 53.2923C133.9 53.131 134.039 52.7861 134.166 52.8611Z" fill="#F9D1E4"/>
<path d="M136.251 55.1142C136.097 55.1142 135.977 55.0167 135.774 54.8593C135.609 54.7281 135.381 54.5481 135.028 54.3232C134.983 54.2969 134.878 54.2332 134.747 54.1545C133.551 53.4534 133.48 53.4122 133.611 53.1797L133.66 53.0822C133.769 52.8685 133.896 52.6211 134.129 52.6211H134.189L134.275 52.6586C134.342 52.6961 134.5 52.7711 134.71 52.8648C136.262 53.5809 136.787 53.9033 136.88 54.1882C136.907 54.2744 136.899 54.3607 136.858 54.4356L136.779 54.5781C136.588 54.923 136.483 55.1142 136.251 55.1142ZM134.091 53.2359C134.309 53.3784 134.758 53.6408 134.976 53.7683C135.115 53.8508 135.223 53.9145 135.272 53.9408C135.647 54.1769 135.894 54.3756 136.059 54.5069C136.119 54.5519 136.183 54.6043 136.228 54.6381C136.269 54.5781 136.329 54.4694 136.389 54.3644L136.427 54.3007C136.176 54.042 134.946 53.4759 134.526 53.2809C134.38 53.2134 134.256 53.1535 134.166 53.1122C134.14 53.146 134.114 53.1947 134.091 53.2359Z" fill="#F4AECE"/>
<path fill-rule="evenodd" clip-rule="evenodd" d="M131.407 54.1093C131.471 54.4579 132.213 56.9023 131.857 56.966C130.818 57.1497 131.238 57.1647 131.047 55.6764C131.021 55.4627 130.785 54.1205 130.845 54.1093C131.025 54.0755 131.381 53.9631 131.407 54.1093Z" fill="#F9D1E4"/>
<path d="M131.302 57.2737C130.897 57.2737 130.889 56.94 130.886 56.6176C130.882 56.4076 130.878 56.1152 130.826 55.7028C130.818 55.6503 130.799 55.5266 130.773 55.3692C130.556 54.012 130.545 53.9295 130.803 53.8845L130.908 53.862C131.021 53.8358 131.152 53.8096 131.264 53.8096C131.557 53.8096 131.617 54.0083 131.624 54.0683C131.639 54.1395 131.681 54.3119 131.74 54.5331C132.172 56.1827 132.258 56.7938 132.097 57.045C132.048 57.12 131.977 57.1687 131.89 57.1837L131.729 57.2137C131.538 57.2512 131.407 57.2737 131.302 57.2737ZM131.069 54.2894C131.096 54.5481 131.178 55.0542 131.219 55.3017C131.246 55.4629 131.264 55.5903 131.272 55.6466C131.328 56.0852 131.332 56.4001 131.336 56.6101C131.336 56.6851 131.339 56.7675 131.343 56.8238C131.418 56.8163 131.519 56.7975 131.658 56.7713L131.729 56.7563C131.77 56.4001 131.426 55.0917 131.309 54.6418C131.268 54.4881 131.234 54.3569 131.212 54.2594C131.167 54.2707 131.118 54.2782 131.069 54.2894Z" fill="#F4AECE"/>
<path fill-rule="evenodd" clip-rule="evenodd" d="M132.322 60.0288C132.599 60.25 134.398 62.0683 134.627 61.7834C135.283 60.9623 135.096 61.3335 133.877 60.46C133.701 60.3325 132.629 59.489 132.591 59.534C132.475 59.6802 132.205 59.9389 132.322 60.0288Z" fill="#F9D1E4"/>
<path d="M134.556 62.0379C134.219 62.0379 133.611 61.528 132.539 60.527C132.37 60.3696 132.243 60.2496 132.183 60.2046C132.119 60.1521 132.078 60.0809 132.07 59.9984C132.052 59.8147 132.202 59.6423 132.344 59.4811L132.483 59.3123L132.595 59.3086C132.7 59.3086 132.738 59.3086 133.754 60.0884C133.87 60.1784 133.967 60.2496 134.005 60.2796C134.342 60.5233 134.597 60.6657 134.781 60.767C135.028 60.9057 135.178 60.9881 135.216 61.1718C135.253 61.363 135.133 61.5093 134.901 61.798L134.8 61.9254C134.743 62.0004 134.657 62.0379 134.556 62.0379ZM132.554 59.9309C132.625 59.9984 132.726 60.0884 132.846 60.2009C133.184 60.5158 134.177 61.438 134.507 61.573L134.552 61.5168C134.627 61.423 134.706 61.3256 134.747 61.2656C134.702 61.2356 134.631 61.1944 134.563 61.1606C134.38 61.0594 134.102 60.9019 133.742 60.647C133.697 60.617 133.604 60.542 133.48 60.4483C133.278 60.2946 132.858 59.9722 132.644 59.8222C132.614 59.8559 132.58 59.8972 132.554 59.9309Z" fill="#F4AECE"/>
<path fill-rule="evenodd" clip-rule="evenodd" d="M141.792 24.3275C142.856 26.4795 148.772 59.9808 148.802 64.6071C148.81 65.5743 150.122 73.0948 149.128 73.3723C145.072 74.497 144.146 75.573 142.924 68.806C141.514 60.993 140.356 50.5407 139.643 42.769C139.37 39.7923 135.624 25.0174 137.222 24.0614C137.743 23.7464 141.225 23.1803 141.792 24.3275Z" fill="#F9D1E4"/>
<path d="M145.717 74.4288C144.165 74.4288 143.486 73.1766 142.706 68.8428C141.061 59.7289 139.861 47.5821 139.422 42.7833C139.34 41.9023 138.942 39.9303 138.481 37.6434C136.993 30.2616 135.943 24.5593 137.105 23.862C137.454 23.6521 138.695 23.4121 139.778 23.4121C140.607 23.4121 141.664 23.5546 141.998 24.2256C143.152 26.565 149.005 60.1488 149.031 64.6026C149.031 64.8313 149.117 65.4949 149.226 66.3347C149.822 70.9722 149.979 73.3641 149.192 73.5853C148.787 73.6978 148.409 73.8102 148.064 73.9152C147.104 74.2039 146.347 74.4288 145.717 74.4288ZM139.778 23.8657C138.684 23.8657 137.559 24.1169 137.338 24.2519C136.355 24.8405 138.024 33.1146 138.92 37.5572C139.385 39.8553 139.786 41.8423 139.868 42.7458C140.307 47.5371 141.503 59.6652 143.145 68.764C143.947 73.1991 144.611 73.9789 145.713 73.9789C146.279 73.9789 147.006 73.7615 147.929 73.4841C148.277 73.3791 148.656 73.2666 149.065 73.1504C149.605 72.873 148.978 67.9918 148.772 66.3909C148.656 65.5024 148.574 64.8613 148.574 64.6026C148.544 60.1675 142.733 26.745 141.585 24.4206C141.413 24.0682 140.753 23.8657 139.778 23.8657Z" fill="#9E7954"/>
<path fill-rule="evenodd" clip-rule="evenodd" d="M137.124 27.8886C136.858 27.8661 137.503 31.5552 137.623 31.4952C137.994 31.3152 143.681 31.5102 143.029 29.1821C142.646 27.8249 142.725 27.4125 142.508 27.2513C142.05 26.9214 141.083 28.1961 137.124 27.8886Z" fill="#9E7954"/>
<path d="M137.664 31.7279L137.619 31.7241C137.117 31.7241 136.835 28.1963 136.835 28.1588C136.835 28.0238 136.835 27.6677 137.12 27.6677C137.544 27.6976 137.941 27.7164 138.312 27.7164C140.082 27.7164 141.068 27.3602 141.66 27.1503C142.125 26.9853 142.414 26.9141 142.639 27.0791C142.83 27.2178 142.867 27.4352 142.942 27.8251C142.999 28.1213 143.074 28.5262 143.242 29.1335C143.362 29.5609 143.306 29.9433 143.07 30.277C142.305 31.3642 139.775 31.5442 138.417 31.6416C138.103 31.6641 137.776 31.6866 137.709 31.7091L137.664 31.7279ZM137.281 28.1288C137.266 28.6949 137.585 30.6631 137.75 31.2442C137.885 31.2255 138.08 31.2105 138.387 31.1917C139.58 31.1055 142.061 30.9293 142.703 30.0145C142.856 29.7971 142.894 29.5459 142.808 29.2498C142.631 28.6274 142.553 28.1925 142.496 27.9038C142.451 27.6564 142.418 27.4727 142.369 27.439C142.219 27.4202 142.039 27.4914 141.81 27.5702C141.192 27.7914 140.161 28.1625 138.309 28.1625C137.983 28.1625 137.638 28.1513 137.281 28.1288Z" fill="#9E7954"/>
<path fill-rule="evenodd" clip-rule="evenodd" d="M138.087 34.1037C137.934 34.1037 138.774 37.744 138.819 37.6728C139.028 37.3166 144.697 37.6315 144.225 35.3596C143.966 34.1262 143.906 33.5301 143.809 33.2977C143.569 32.7166 141.878 34.0887 138.087 34.1037Z" fill="#9E7954"/>
<path d="M138.819 37.8981C138.391 37.8944 137.848 34.2128 137.848 34.1753C137.848 33.8867 138.065 33.8792 138.091 33.8792C140.209 33.8717 141.687 33.4218 142.571 33.1556C143.006 33.0244 143.317 32.9307 143.55 32.9307C143.842 32.9307 143.966 33.0844 144.018 33.2118C144.082 33.3618 144.123 33.598 144.202 34.0291C144.258 34.3478 144.333 34.7677 144.45 35.315C144.532 35.7087 144.461 36.0648 144.236 36.3685C143.524 37.3358 141.417 37.5457 140.022 37.6844C139.595 37.7257 139.111 37.7744 138.987 37.8269C138.938 37.8719 138.879 37.8981 138.819 37.8981ZM138.305 34.3253C138.376 34.9214 138.789 36.7434 138.954 37.3695C139.156 37.3208 139.471 37.287 139.969 37.2383C141.207 37.1146 143.276 36.9084 143.868 36.1023C144.015 35.9036 144.06 35.6749 144.003 35.405C143.887 34.8539 143.812 34.4303 143.756 34.1078C143.689 33.7367 143.644 33.4893 143.602 33.3843C143.599 33.3843 143.584 33.3805 143.55 33.3805C143.385 33.3805 143.085 33.4705 142.703 33.5867C141.822 33.8529 140.374 34.2915 138.305 34.3253Z" fill="#9E7954"/>
<path fill-rule="evenodd" clip-rule="evenodd" d="M139.445 40.582C139.179 40.5633 139.823 44.2485 139.943 44.1886C140.314 44.0086 146.002 44.2036 145.349 41.8754C144.967 40.5183 145.046 40.1059 144.828 39.9447C144.375 39.6147 143.404 40.8894 139.445 40.582Z" fill="#9E7954"/>
<path d="M139.985 44.4183L139.94 44.4145C139.437 44.4145 139.156 40.8867 139.156 40.853C139.156 40.718 139.156 40.3581 139.445 40.3581C139.872 40.3881 140.266 40.4068 140.637 40.4068C142.406 40.4068 143.396 40.0507 143.985 39.8407C144.45 39.6758 144.738 39.6045 144.963 39.7695C145.154 39.9082 145.192 40.1256 145.267 40.5155C145.323 40.8117 145.398 41.2166 145.567 41.8239C145.687 42.2513 145.631 42.6375 145.394 42.9674C144.626 44.0546 142.099 44.2346 140.742 44.332C140.427 44.3545 140.101 44.377 140.033 44.3995L139.985 44.4183ZM139.602 40.8192C139.587 41.3853 139.906 43.3535 140.071 43.9346C140.206 43.9159 140.404 43.9009 140.708 43.8822C141.9 43.7959 144.382 43.6197 145.023 42.705C145.177 42.4875 145.214 42.2363 145.128 41.9402C144.952 41.3178 144.87 40.8829 144.817 40.5943C144.772 40.3468 144.738 40.1631 144.69 40.1294C144.543 40.1106 144.36 40.1819 144.131 40.2606C143.512 40.4818 142.481 40.853 140.629 40.853C140.303 40.853 139.958 40.8417 139.602 40.8192Z" fill="#9E7954"/>
<path fill-rule="evenodd" clip-rule="evenodd" d="M140.037 46.8671C139.883 46.8671 140.543 50.5636 140.588 50.4924C140.798 50.1362 147.018 50.3199 146.546 48.0517C146.287 46.8183 146.227 46.2222 146.129 45.9898C145.889 45.4124 143.824 46.8558 140.037 46.8671Z" fill="#9E7954"/>
<path d="M140.588 50.7162C140.157 50.7162 139.79 47.0159 139.79 46.9784C139.79 46.6747 139.962 46.641 140.037 46.641C142.144 46.6335 143.696 46.1799 144.723 45.8799C145.229 45.7337 145.597 45.625 145.859 45.625C146.163 45.625 146.287 45.775 146.339 45.9024C146.403 46.0524 146.444 46.2886 146.519 46.7122C146.575 47.0309 146.65 47.4545 146.767 48.0019C146.845 48.373 146.774 48.7142 146.557 49.0141C145.807 50.0413 143.445 50.3075 141.882 50.48C141.424 50.5325 140.907 50.5887 140.761 50.6449L140.719 50.7162H140.588ZM140.243 47.0909C140.281 47.6757 140.599 49.5315 140.738 50.1876C140.952 50.1388 141.289 50.0976 141.829 50.0376C143.224 49.8839 145.559 49.6214 146.193 48.7554C146.335 48.5605 146.377 48.3468 146.328 48.0993C146.212 47.5445 146.137 47.1209 146.077 46.7984C146.013 46.4348 145.968 46.1911 145.923 46.0824C145.919 46.0861 145.897 46.0786 145.856 46.0786C145.661 46.0786 145.301 46.1836 144.847 46.3148C143.831 46.611 142.309 47.0534 140.243 47.0909Z" fill="#9E7954"/>
<path fill-rule="evenodd" clip-rule="evenodd" d="M140.858 53.2952C140.592 53.2764 141.271 57.2766 141.391 57.2166C141.762 57.0367 148.337 57.914 147.685 55.5896C147.303 54.2324 147.374 52.7815 147.16 52.6241C146.703 52.2942 144.817 53.6026 140.858 53.2952Z" fill="#9E7954"/>
<path d="M143.839 57.4647C143.317 57.4647 142.823 57.4497 142.414 57.4347C142.133 57.4272 141.893 57.416 141.713 57.416C141.525 57.416 141.477 57.4235 141.469 57.4272L141.424 57.4497L141.39 57.4422C140.881 57.4422 140.577 53.607 140.577 53.5657C140.577 53.4608 140.581 53.382 140.596 53.3221C140.644 53.0896 140.813 53.0709 140.862 53.0709C141.278 53.1009 141.672 53.1159 142.054 53.1159C143.891 53.1159 145.162 52.771 146.002 52.5385C146.68 52.3548 147.059 52.2686 147.291 52.441C147.468 52.5723 147.505 52.8609 147.576 53.5582C147.636 54.1281 147.708 54.8367 147.903 55.5302C148.011 55.9164 147.955 56.2575 147.741 56.5387C147.261 57.1723 146.02 57.4647 143.839 57.4647ZM141.713 56.9699C141.893 56.9699 142.14 56.9774 142.429 56.9886C142.834 56.9999 143.321 57.0186 143.839 57.0186C145.814 57.0186 147.006 56.7674 147.381 56.2726C147.509 56.1038 147.535 55.9014 147.468 55.654C147.261 54.9266 147.183 54.1656 147.126 53.607C147.093 53.2771 147.055 52.9059 147.006 52.7972C147.003 52.7972 146.977 52.7935 146.943 52.7935C146.774 52.7935 146.485 52.8722 146.118 52.9734C145.252 53.2096 143.947 53.5657 142.05 53.5657C141.713 53.5657 141.368 53.5545 141.019 53.532C141.008 54.1393 141.353 56.3625 141.525 56.9699C141.578 56.9699 141.638 56.9699 141.713 56.9699Z" fill="#9E7954"/>
<path fill-rule="evenodd" clip-rule="evenodd" d="M141.679 59.699C141.525 59.699 142.054 63.8192 142.095 63.7479C142.305 63.3918 148.956 63.9054 148.483 61.6373C148.228 60.4038 148.105 58.9867 148.011 58.758C147.767 58.1769 145.469 59.6877 141.679 59.699Z" fill="#9E7954"/>
<path d="M142.095 63.9732C141.855 63.9732 141.855 63.9732 141.634 62.14C141.57 61.6263 141.428 60.3854 141.428 59.883C141.428 59.7593 141.428 59.4744 141.679 59.4744C143.782 59.4669 145.421 58.9908 146.504 58.6759C147.059 58.5147 147.456 58.3984 147.734 58.3984C148.037 58.3984 148.165 58.5446 148.217 58.6684C148.27 58.7958 148.311 59.0845 148.394 59.6694C148.472 60.2317 148.566 60.9328 148.705 61.5889C148.78 61.9488 148.708 62.2749 148.495 62.5524C147.719 63.5571 145.177 63.6995 143.494 63.797C142.991 63.827 142.429 63.857 142.264 63.9058L142.226 63.9732H142.095ZM141.878 59.9205C141.885 60.5504 142.148 62.7211 142.264 63.4484C142.496 63.4071 142.867 63.3809 143.467 63.3472C144.971 63.2647 147.486 63.1222 148.135 62.2787C148.27 62.1062 148.311 61.9113 148.262 61.6788C148.124 61.0078 148.026 60.2992 147.947 59.7293C147.895 59.3619 147.839 58.9458 147.805 58.8483C147.801 58.8521 147.775 58.8446 147.737 58.8446C147.524 58.8446 147.13 58.9608 146.632 59.1033C145.556 59.4182 143.951 59.8868 141.878 59.9205Z" fill="#9E7954"/>
<path fill-rule="evenodd" clip-rule="evenodd" d="M141.791 24.3269C137.548 27.686 133.034 23.0185 140.933 23.2359C141.731 23.2584 142.185 24.0157 141.791 24.3269Z" fill="#9E7954"/>
<path d="M138.586 25.7705C137.349 25.7705 136.378 25.2082 136.378 24.4921C136.378 24.2409 136.509 23.7685 137.386 23.4199C138.091 23.1425 139.107 23 140.412 23V23.4499C139.182 23.4499 138.192 23.5848 137.551 23.836C137.09 24.0197 136.824 24.2559 136.824 24.4884C136.824 24.882 137.548 25.3169 138.582 25.3169V25.7705H138.586Z" fill="#F4AECE"/>
<path fill-rule="evenodd" clip-rule="evenodd" d="M144.168 59.1364C151.963 55.691 161.703 56.3846 167.247 63.234C174.524 72.2205 165.403 89.5485 152.24 88.4163C140.453 87.4003 126.818 66.8031 144.168 59.1364Z" fill="#A8D8D5"/>
<path d="M153.466 88.6946C153.054 88.6946 152.634 88.6758 152.218 88.6421C144.989 88.0197 137.207 80.3117 135.891 72.465C134.893 66.5116 137.799 61.7091 144.078 58.9348C147.1 57.5964 150.388 56.8916 153.582 56.8916C159.27 56.8916 164.184 59.096 167.424 63.0962C170.603 67.0252 170.918 72.9337 168.241 78.5197C165.275 84.6981 159.476 88.6946 153.466 88.6946ZM153.582 57.3377C150.452 57.3377 147.228 58.0313 144.262 59.3397C138.189 62.024 135.377 66.6578 136.337 72.3863C137.6 79.9144 145.338 87.5961 152.259 88.1922C152.66 88.2259 153.065 88.2447 153.466 88.2447C159.303 88.2447 164.942 84.3495 167.832 78.321C170.434 72.8962 170.142 67.1677 167.071 63.3737C163.918 59.4822 159.127 57.3377 153.582 57.3377Z" fill="#58BAB2"/>
<path d="M157.849 87.9022L158.467 87.3249C163 83.1072 164.841 77.39 163.656 71.2191C162.441 64.8982 158.19 59.3122 153.08 57.3214L153.245 56.9053C158.494 58.9485 162.854 64.6695 164.098 71.1366C165.223 76.9776 163.693 82.4286 159.794 86.635C161.317 85.5703 163.277 83.4971 163.81 82.4661C166.569 77.1388 166.734 70.3156 164.23 65.0819C162.265 60.9805 158.838 58.2362 154.572 57.3589L154.662 56.9203C159.067 57.8275 162.61 60.6581 164.634 64.8907C167.199 70.2481 167.03 77.2287 164.211 82.6761C163.517 84.0145 160.334 87.3249 158.673 87.7148L157.849 87.9022Z" fill="#58BAB2"/>
<path d="M156.038 88.1992L155.824 87.8018C159.817 85.6723 162.321 75.6137 161.455 71.2048C160.214 64.899 157.26 62.8783 153.17 60.0852C152.064 59.3317 150.924 58.5481 149.694 57.6071L149.968 57.251C151.187 58.1845 152.323 58.9605 153.425 59.7141C157.605 62.5708 160.623 64.6328 161.898 71.1186C162.715 75.28 160.518 85.811 156.038 88.1992Z" fill="#58BAB2"/>
<path d="M152.607 88.6645L152.559 88.2184C153.372 88.1322 154.231 87.3674 155.044 86.0027C157.545 81.8226 158.936 73.2823 156.986 68.5323C154.902 63.4561 153.421 62.5451 150.74 60.8918C149.653 60.2207 148.416 59.4596 146.868 58.2712L147.141 57.915C148.675 59.0922 149.897 59.8458 150.977 60.5094C153.74 62.2114 155.262 63.1524 157.406 68.3636C159.404 73.2298 157.987 81.965 155.434 86.2352C154.542 87.7235 153.567 88.5633 152.607 88.6645Z" fill="#58BAB2"/>
<path d="M150.519 88.1802L150.096 88.0415C150.111 87.974 150.111 87.974 150.553 87.3404C151.157 86.4782 152.285 84.8698 152.6 84.1688C158.951 70.1137 154.872 65.806 144.052 59.3315L144.285 58.9453C155.097 65.4199 159.479 70.0349 153.012 84.3525C152.679 85.091 151.58 86.6581 150.924 87.5954C150.729 87.8728 150.546 88.1352 150.519 88.1802Z" fill="#58BAB2"/>
<path d="M147.569 87.1864L147.295 86.8303C151.55 83.5761 153.395 78.8486 152.484 73.5138C151.457 67.5003 147.138 62.1205 141.983 60.4372L142.122 60.0098C147.43 61.7456 151.873 67.2641 152.926 73.4388C153.867 78.9461 151.966 83.8273 147.569 87.1864Z" fill="#58BAB2"/>
<path d="M145.166 85.9568L145.271 85.7581L145.147 85.5782C145.597 85.177 150.437 77.9639 149.113 71.2944C148.274 67.058 145.121 63.9463 139.745 62.0418L139.894 61.6182C145.739 63.6876 149.031 67.1592 149.676 71.9317C150.602 78.7774 145.754 85.7056 145.413 85.9418L145.166 85.9568Z" fill="#58BAB2"/>
<path d="M142.804 83.6704L142.523 83.4942L142.74 83.4192L142.669 83.2505C143.156 82.8869 147.546 74.8115 145.931 69.158C145.023 65.99 142.399 64.1942 138.125 63.8231L138.163 63.377C143.565 63.8456 146.527 66.6161 146.725 71.3886C146.954 76.8247 143.437 83.5617 142.804 83.6704Z" fill="#58BAB2"/>
<path d="M142.364 83.2076L142.349 83.6572L142.735 83.6704L142.75 83.2208L142.364 83.2076Z" fill="#58BAB2"/>
<path d="M140.217 80.2513L139.876 79.9589C143.332 75.8912 144.697 72.0372 143.617 69.3866C142.778 67.3247 140.476 66.05 136.959 65.7088L137.004 65.2627C140.701 65.6226 143.13 66.991 144.037 69.2217C145.177 72.0297 143.786 76.0524 140.217 80.2513Z" fill="#58BAB2"/>
<path d="M139.812 80.5698L139.538 80.2136L139.91 79.9287L140.183 80.2849L139.812 80.5698Z" fill="#58BAB2"/>
<path d="M138.609 77.5071L138.267 77.2147C140.757 74.2867 141.743 71.5161 140.971 69.6191C140.371 68.1458 138.721 67.2385 136.198 66.9911L136.243 66.5449C138.946 66.8111 140.723 67.8121 141.39 69.4504C142.223 71.5086 141.21 74.4441 138.609 77.5071Z" fill="#58BAB2"/>
<path d="M138.309 77.7469L138.031 77.3908L138.301 77.1846L138.575 77.537L138.309 77.7469Z" fill="#58BAB2"/>
<path fill-rule="evenodd" clip-rule="evenodd" d="M155.194 73.8515C150.321 66.8783 141.63 62.4395 133.33 65.4274C122.435 69.3527 121.221 88.8813 133.068 94.7186C143.674 99.941 166.044 89.3762 155.194 73.8515Z" fill="#F9D1E4"/>
<path d="M139.523 96.2931C139.52 96.2931 139.52 96.2931 139.523 96.2931C137.06 96.2931 134.796 95.8169 132.97 94.9172C126.222 91.5918 124.156 84.4274 124.471 78.8301C124.835 72.3518 128.284 67.0057 133.255 65.2137C135.025 64.5763 136.869 64.2539 138.74 64.2539C144.922 64.2539 151.299 67.883 155.382 73.7202C159.465 79.5649 158.542 84.1875 157.05 87.0367C153.867 93.1139 145.822 96.2931 139.523 96.2931ZM138.74 64.7075C136.922 64.7075 135.13 65.0225 133.409 65.641C128.606 67.3693 125.273 72.558 124.921 78.8601C124.614 84.3149 126.619 91.2919 133.173 94.5198C134.935 95.3895 137.132 95.8469 139.523 95.8469C139.523 95.8469 139.523 95.8469 139.527 95.8469C145.694 95.8469 153.556 92.754 156.657 86.838C158.715 82.909 158.149 78.4627 155.018 73.9864C151.014 68.2579 144.78 64.7075 138.74 64.7075Z" fill="#F4AECE"/>
<path d="M128.535 91.3781L127.931 90.7895C126.717 89.601 125.716 85.1247 125.817 83.6213C126.237 77.5067 129.723 71.452 134.702 68.1941C138.635 65.6223 143.134 65.0337 147.374 66.5333L147.224 66.957C143.122 65.5023 138.762 66.0759 134.95 68.5728C130.087 71.7557 126.675 77.6717 126.267 83.6551C126.188 84.8135 126.784 87.5991 127.53 89.2974C126.383 83.6813 127.913 78.234 131.909 73.8177C136.337 68.9289 143.036 66.2971 148.588 67.2569L148.51 67.6993C143.107 66.762 136.569 69.3376 132.243 74.1176C128.021 78.7814 126.623 84.6224 128.302 90.5721L128.535 91.3781Z" fill="#F4AECE"/>
<path d="M129.933 92.5697C127.343 88.2096 130.946 78.0685 133.806 74.9381C138.267 70.0531 141.923 69.8469 146.98 69.5657C148.311 69.4907 149.691 69.4158 151.217 69.2471L151.265 69.6932C149.728 69.8657 148.345 69.9406 147.006 70.0156C142.054 70.293 138.477 70.4917 134.14 75.2418C131.103 78.5634 128.014 88.4608 130.323 92.3448L129.933 92.5697Z" fill="#F4AECE"/>
<path d="M132.621 94.7374C131.857 94.1563 131.456 92.9304 131.47 91.1984C131.508 86.2271 134.837 78.0243 139.077 74.8976C143.617 71.5497 145.409 71.5347 148.656 71.5047C149.923 71.4935 151.363 71.4822 153.286 71.2686L153.335 71.7147C151.389 71.9321 149.938 71.9434 148.66 71.9546C145.507 71.9809 143.767 71.9958 139.343 75.2575C135.205 78.3092 131.954 86.3359 131.917 91.2021C131.905 92.7879 132.243 93.8864 132.891 94.3813L132.621 94.7374Z" fill="#F4AECE"/>
<path d="M135.096 95.5025L134.672 95.3525C134.665 95.3525 134.642 95.0339 134.62 94.6965C134.545 93.5568 134.421 91.6485 134.522 90.8462C136.412 75.479 142.414 73.627 154.666 73.627C154.842 73.627 155.018 73.627 155.198 73.627V74.0768C142.59 74.0319 136.85 75.6027 134.972 90.8987C134.878 91.6598 135.006 93.6167 135.073 94.6665C135.118 95.4388 135.118 95.4388 135.096 95.5025Z" fill="#F4AECE"/>
<path d="M137.701 96.0797C135.688 90.9361 136.603 85.7774 140.27 81.5523C144.382 76.8173 151.055 74.3916 156.492 75.655L156.39 76.0937C151.112 74.8678 144.618 77.2371 140.611 81.8484C137.057 85.9386 136.172 90.9361 138.121 95.9185L137.701 96.0797Z" fill="#F4AECE"/>
<path d="M140.393 96.2705L140.191 96.1243C140.022 95.7494 139.479 87.3215 143.831 81.9417C146.864 78.1927 151.483 76.9293 157.56 78.1777L157.47 78.6163C151.884 77.4691 147.569 78.5001 144.648 81.6868C140.045 86.7067 140.435 95.3782 140.611 95.9518L140.412 96.0118L140.393 96.2705Z" fill="#F4AECE"/>
<path d="M143.602 95.5361C143.115 95.1162 143.614 87.5394 146.635 83.0068C149.286 79.0291 153.26 78.1856 158.126 80.5774L157.927 80.9786C154.077 79.0853 150.898 79.2653 148.476 81.5072C144.153 85.5074 143.711 94.6775 143.936 95.2436L143.745 95.3186L143.932 95.5286L143.602 95.5361Z" fill="#F4AECE"/>
<path d="M144.011 95.75L143.677 95.5626L143.895 95.1689L144.232 95.3564L144.011 95.75Z" fill="#F4AECE"/>
<path d="M147.591 93.9505C146.725 88.5144 147.625 84.3568 150.066 82.546C152 81.1101 154.789 81.1963 158.137 82.7972L157.942 83.2021C154.756 81.6762 152.124 81.575 150.336 82.9059C148.034 84.6154 147.198 88.6157 148.037 93.8793L147.591 93.9505Z" fill="#F4AECE"/>
<path d="M147.775 94.4301L147.606 93.9952L148.026 93.834L148.195 94.2689L147.775 94.4301Z" fill="#F4AECE"/>
<path d="M150.396 92.4321C149.762 88.4694 150.426 85.4364 152.21 84.1093C153.631 83.0558 155.674 83.1158 158.122 84.2855L157.927 84.6904C155.641 83.5957 153.755 83.5207 152.48 84.4692C150.834 85.6951 150.234 88.5706 150.842 92.3609L150.396 92.4321Z" fill="#F4AECE"/>
<path d="M150.531 92.7916L150.407 92.4766L150.827 92.3154L150.95 92.6304L150.531 92.7916Z" fill="#F4AECE"/>
<path fill-rule="evenodd" clip-rule="evenodd" d="M134.942 86.448C136.423 78.0764 133.409 68.8201 125.412 65.101C114.915 60.2161 100.23 73.2027 104.496 85.6719C108.313 96.8328 131.643 105.081 134.942 86.448Z" fill="#B8E1F1"/>
<path d="M122.78 97.7032C115.102 97.7032 106.457 92.1134 104.279 85.7438C102.701 81.1287 103.608 75.9626 106.765 71.565C110.142 66.86 115.552 63.8232 120.553 63.8232C122.308 63.8232 123.973 64.1831 125.506 64.8992C134.11 68.9032 136.558 78.6281 135.163 86.4898C133.435 96.2448 126.664 97.7032 122.78 97.7032ZM120.553 64.2694C115.695 64.2694 110.427 67.2349 107.132 71.8237C104.061 76.1013 103.177 81.1212 104.706 85.5976C106.832 91.806 115.275 97.2533 122.78 97.2533C126.522 97.2533 133.049 95.8436 134.721 86.4074C136.082 78.7144 133.705 69.2031 125.315 65.3004C123.841 64.618 122.241 64.2694 120.553 64.2694Z" fill="#5AB7DA"/>
<path d="M103.645 80.1169L103.634 79.2734C103.615 77.5751 106.075 73.6986 107.211 72.7051C111.837 68.6674 118.593 66.8304 124.426 68.0225C129.034 68.9673 132.64 71.7153 134.582 75.7605L134.177 75.9555C132.299 72.0415 128.801 69.3797 124.336 68.4649C118.638 67.2952 112.032 69.0948 107.511 73.0425C106.633 73.8073 105.085 76.2029 104.414 77.9312C107.574 73.1437 112.515 70.3582 118.473 70.0433C125.071 69.6946 131.684 72.5401 134.935 77.1289L134.567 77.3876C131.403 72.9188 124.94 70.1558 118.495 70.4932C112.204 70.8268 107.076 73.9835 104.058 79.3821L103.645 80.1169Z" fill="#5AB7DA"/>
<path d="M104.226 82.0547L103.792 81.946C105.04 77.0348 114.769 72.3822 119.016 72.1723C125.63 71.8499 128.37 74.2755 132.157 77.6346C133.154 78.5194 134.181 79.4342 135.385 80.3864L135.103 80.7388C133.892 79.7791 132.858 78.8605 131.86 77.972C128.156 74.6841 125.468 72.311 119.043 72.6222C114.532 72.8396 105.34 77.6796 104.226 82.0547Z" fill="#5AB7DA"/>
<path d="M104.163 85.3718C104.032 84.4196 104.616 83.2724 105.854 82.0539C109.396 78.5561 117.569 75.0883 122.784 75.8531C128.37 76.6741 129.652 77.9225 131.973 80.1869C132.88 81.0717 133.907 82.0764 135.422 83.2761L135.141 83.6285C133.611 82.4139 132.573 81.4016 131.658 80.5093C129.401 78.3087 128.16 77.0977 122.717 76.2992C117.618 75.5531 109.636 78.9497 106.168 82.3764C105.036 83.4936 104.5 84.5096 104.609 85.3156L104.163 85.3718Z" fill="#5AB7DA"/>
<path d="M105.373 87.6518L105.179 87.2469C105.175 87.2394 105.381 86.9995 105.602 86.7483C106.359 85.886 107.623 84.4464 108.26 83.9477C120.651 74.249 126.199 77.3832 135.096 86.2872L134.777 86.6058C125.873 77.6944 120.699 74.7814 108.538 84.3002C107.934 84.7725 106.637 86.2496 105.94 87.0444C105.437 87.6218 105.433 87.6255 105.373 87.6518Z" fill="#5AB7DA"/>
<path d="M107.222 90.0738L106.809 89.8938C109.025 84.8326 113.321 81.8184 118.911 81.406C125.168 80.9412 131.617 83.9179 134.582 88.6379L134.2 88.8778C131.321 84.2928 125.056 81.4098 118.945 81.8559C113.531 82.2533 109.37 85.1738 107.222 90.0738Z" fill="#5AB7DA"/>
<path d="M108.583 91.9254L108.542 91.6817C108.688 91.2993 114.251 84.9485 121.149 84.1949C125.952 83.6701 130.132 86.0207 133.555 91.1831L133.18 91.4306C130.035 86.6843 126.241 84.3749 121.922 84.5848C115.11 84.9035 109.243 91.3218 108.961 91.8542L108.778 91.7567L108.583 91.9254Z" fill="#5AB7DA"/>
<path d="M111.616 93.8902L111.376 93.6578C111.327 93.0205 117.044 88.0005 122.39 86.9133C127.092 85.9573 130.5 88.158 132.254 93.2754L131.827 93.4216C130.44 89.3727 128.059 87.262 124.756 87.1495C124.659 87.1457 124.561 87.1457 124.467 87.1457C118.641 87.1457 112.051 93.1404 111.818 93.6915L111.631 93.6128L111.616 93.8902Z" fill="#5AB7DA"/>
<path d="M111.858 93.5941L111.425 93.7168L111.53 94.0883L111.963 93.9656L111.858 93.5941Z" fill="#5AB7DA"/>
<path d="M115.695 95.6078L115.331 95.3454C118.563 90.884 122.15 88.5672 125.157 89.002C127.545 89.3432 129.461 91.3677 130.702 94.858L130.278 95.008C129.097 91.6863 127.305 89.7631 125.097 89.4482C122.255 89.047 118.825 91.2852 115.695 95.6078Z" fill="#5AB7DA"/>
<path d="M115.53 95.9892L115.117 95.8092L115.305 95.3818L115.717 95.5656L115.53 95.9892Z" fill="#5AB7DA"/>
<path d="M118.754 96.5039L118.39 96.2414C120.745 92.991 123.358 91.3115 125.566 91.6226C127.32 91.8738 128.726 93.3547 129.63 95.904L129.206 96.054C128.359 93.6696 127.081 92.2899 125.502 92.065C123.455 91.7726 121.007 93.3922 118.754 96.5039Z" fill="#5AB7DA"/>
<path d="M118.641 96.7694L118.229 96.5895L118.364 96.2783L118.776 96.462L118.641 96.7694Z" fill="#5AB7DA"/>
<path fill-rule="evenodd" clip-rule="evenodd" d="M112.906 77.7353C112.553 77.7765 110.064 78.3763 110.019 78.0202C109.895 76.978 109.858 77.3941 111.353 77.2891C111.567 77.2741 112.928 77.1167 112.936 77.1767C112.962 77.3604 113.055 77.7203 112.906 77.7353Z" fill="#475DA7"/>
<path d="M110.375 78.3616C110.24 78.3616 109.835 78.3616 109.797 78.0505L109.779 77.8893C109.734 77.5218 109.711 77.3381 109.839 77.1994C109.951 77.072 110.127 77.072 110.221 77.072C110.277 77.072 110.345 77.0757 110.424 77.0795C110.63 77.087 110.922 77.102 111.342 77.072C111.395 77.0682 111.522 77.057 111.68 77.042C112.073 77.0007 112.617 76.9482 112.845 76.9482C113.04 76.9482 113.145 77.0195 113.16 77.1582L113.175 77.2669C113.209 77.4806 113.247 77.7018 113.134 77.8518C113.085 77.9193 113.01 77.9605 112.928 77.968C112.853 77.9755 112.681 78.013 112.456 78.058C111.841 78.1742 110.907 78.3616 110.375 78.3616ZM110.232 77.9042C110.262 77.908 110.307 77.9117 110.375 77.9117C110.862 77.9117 111.807 77.7243 112.369 77.6081C112.527 77.5781 112.662 77.5518 112.759 77.5331C112.755 77.4918 112.748 77.4394 112.74 77.3944C112.463 77.4056 112.028 77.4506 111.721 77.4806C111.556 77.4993 111.425 77.5106 111.368 77.5143C110.926 77.5443 110.615 77.5331 110.401 77.5219C110.315 77.5181 110.24 77.5181 110.187 77.5181C110.191 77.5931 110.206 77.713 110.221 77.833L110.232 77.9042Z" fill="#3E3F71"/>
<path fill-rule="evenodd" clip-rule="evenodd" d="M108.152 77.4953C108.148 77.8477 107.833 80.3858 108.193 80.3858C109.246 80.3895 108.838 80.4757 108.77 78.9799C108.763 78.7662 108.763 77.4016 108.703 77.4016C108.519 77.3978 108.152 77.3453 108.152 77.4953Z" fill="#475DA7"/>
<path d="M108.519 80.6104H108.515L108.193 80.6066C108.107 80.6066 108.028 80.5691 107.968 80.5054C107.765 80.2842 107.747 79.6694 107.893 77.9673C107.912 77.7424 107.927 77.5699 107.927 77.495C107.927 77.3712 107.994 77.165 108.421 77.165C108.481 77.165 108.541 77.1688 108.598 77.1688L108.706 77.1725C108.973 77.1725 108.976 77.255 108.991 78.6571C108.995 78.8034 108.995 78.9196 108.995 78.9683C109.014 79.3845 109.059 79.6694 109.093 79.8756C109.138 80.1568 109.164 80.3255 109.044 80.4642C108.92 80.6104 108.718 80.6104 108.519 80.6104ZM108.283 80.1605H108.515C108.59 80.1605 108.643 80.1605 108.676 80.1568C108.673 80.1005 108.658 80.0218 108.646 79.9468C108.613 79.7406 108.564 79.4294 108.545 78.9871C108.541 78.9346 108.541 78.8146 108.541 78.6609C108.538 78.406 108.534 77.8774 108.515 77.6149C108.463 77.6112 108.406 77.6112 108.369 77.6149C108.361 77.7124 108.35 77.8474 108.339 78.0048C108.298 78.4659 108.185 79.8156 108.283 80.1605Z" fill="#3E3F71"/>
<path fill-rule="evenodd" clip-rule="evenodd" d="M111.162 74.1811C110.926 74.4435 109.46 76.543 109.19 76.303C108.403 75.6057 108.65 75.9394 109.704 74.8709C109.854 74.7172 110.768 73.7012 110.813 73.7424C110.952 73.8624 111.263 74.0723 111.162 74.1811Z" fill="#475DA7"/>
<path d="M109.246 76.5466C109.171 76.5466 109.1 76.5204 109.044 76.4716L108.924 76.3629C108.643 76.1192 108.504 75.9955 108.508 75.8006C108.512 75.6131 108.643 75.5081 108.864 75.3282C109.029 75.1932 109.254 75.0133 109.546 74.7133C109.584 74.6759 109.67 74.5821 109.779 74.4622C110.66 73.5137 110.686 73.5137 110.813 73.5137H110.9L111.05 73.6411C111.218 73.7798 111.395 73.9185 111.41 74.106C111.417 74.1885 111.391 74.2672 111.335 74.3272C111.286 74.3834 111.181 74.5222 111.042 74.7059C109.97 76.1155 109.55 76.5466 109.246 76.5466ZM108.984 75.8118C109.033 75.8643 109.126 75.9468 109.216 76.0255L109.273 76.0742C109.576 75.883 110.397 74.8071 110.678 74.4359C110.776 74.3085 110.858 74.1997 110.918 74.1248C110.888 74.0948 110.847 74.061 110.81 74.031C110.626 74.211 110.277 74.5896 110.109 74.7696C109.996 74.8933 109.906 74.9908 109.865 75.0283C109.554 75.3432 109.31 75.5419 109.145 75.6768C109.089 75.7218 109.025 75.7743 108.984 75.8118Z" fill="#3E3F71"/>
<path fill-rule="evenodd" clip-rule="evenodd" d="M119.695 67.2353C119.342 67.2765 116.853 67.8801 116.808 67.5202C116.684 66.478 116.647 66.8941 118.143 66.7891C118.356 66.7741 119.717 66.6167 119.725 66.6767C119.747 66.8566 119.841 67.2165 119.695 67.2353Z" fill="#475DA7"/>
<path d="M117.164 67.8575C117.029 67.8575 116.621 67.8575 116.583 67.5464L116.564 67.3852C116.519 67.0215 116.497 66.8378 116.624 66.6954C116.737 66.5679 116.913 66.5679 117.007 66.5679C117.063 66.5679 117.131 66.5716 117.209 66.5754C117.415 66.5829 117.708 66.5979 118.128 66.5679C118.18 66.5641 118.308 66.5529 118.469 66.5342C118.863 66.4929 119.406 66.4404 119.635 66.4404C119.83 66.4404 119.935 66.5117 119.95 66.6504L119.965 66.7591C119.998 66.9728 120.036 67.194 119.924 67.3439C119.875 67.4114 119.8 67.4527 119.721 67.4602C119.646 67.4677 119.474 67.5051 119.249 67.5501C118.63 67.6701 117.693 67.8575 117.164 67.8575ZM117.018 67.4002C117.048 67.4039 117.093 67.4077 117.16 67.4077C117.648 67.4077 118.593 67.2202 119.155 67.1077C119.312 67.0778 119.447 67.0515 119.545 67.0328C119.541 66.9915 119.534 66.939 119.526 66.8903C119.249 66.9053 118.814 66.9465 118.506 66.9765C118.341 66.9953 118.21 67.0065 118.154 67.0103C117.715 67.0403 117.404 67.029 117.187 67.0178C117.101 67.014 117.026 67.0103 116.973 67.014C116.977 67.089 116.992 67.209 117.007 67.3289L117.018 67.4002Z" fill="#3E3F71"/>
<path fill-rule="evenodd" clip-rule="evenodd" d="M117.183 69.9789C116.909 70.2038 114.746 71.5722 114.975 71.8496C115.642 72.6632 115.316 72.4007 116.433 71.3998C116.594 71.2573 117.652 70.3875 117.614 70.3425C117.494 70.2038 117.299 69.8852 117.183 69.9789Z" fill="#475DA7"/>
<path d="M115.455 72.5585C115.256 72.5585 115.136 72.4123 114.9 72.1199L114.799 71.9962C114.746 71.9287 114.724 71.8462 114.735 71.7562C114.776 71.4601 115.245 71.0514 116.651 70.0804C116.838 69.9529 116.981 69.8517 117.041 69.8067L117.104 69.758L117.232 69.7393C117.438 69.7393 117.58 69.9342 117.723 70.1216L117.787 70.2079C117.955 70.4103 117.892 70.4666 116.838 71.3551C116.718 71.4563 116.621 71.5388 116.583 71.5725C116.272 71.85 116.081 72.0674 115.938 72.2286C115.751 72.4311 115.638 72.5585 115.455 72.5585ZM115.207 71.7825L115.252 71.8387C115.327 71.9324 115.406 72.0299 115.458 72.0824C115.5 72.0412 115.552 71.9812 115.601 71.9249C115.74 71.7675 115.95 71.5313 116.279 71.2351C116.321 71.1976 116.422 71.1152 116.546 71.0064C116.737 70.8452 117.131 70.5115 117.318 70.3353C117.292 70.2978 117.258 70.2566 117.228 70.2229C117.149 70.2791 117.037 70.3579 116.906 70.4478C116.527 70.714 115.41 71.4826 115.207 71.7825Z" fill="#3E3F71"/>
<path fill-rule="evenodd" clip-rule="evenodd" d="M114.937 66.9953C114.937 67.3477 114.619 69.8858 114.979 69.8858C116.032 69.8895 115.623 69.9758 115.556 68.4799C115.545 68.2662 115.548 66.9016 115.488 66.9016C115.308 66.8978 114.937 66.8453 114.937 66.9953Z" fill="#475DA7"/>
<path d="M115.297 70.1102L114.979 70.1065C114.892 70.1065 114.814 70.069 114.754 70.0053C114.529 69.7578 114.551 68.9593 114.679 67.4709C114.697 67.2422 114.712 67.066 114.716 66.991C114.716 66.8411 114.802 66.6611 115.211 66.6611C115.271 66.6611 115.331 66.6649 115.387 66.6649L115.496 66.6686C115.762 66.6686 115.762 66.7511 115.781 68.1307C115.781 68.2845 115.785 68.4082 115.785 68.4607C115.803 68.8768 115.848 69.1617 115.882 69.3717C115.927 69.6491 115.953 69.8216 115.833 69.9603C115.706 70.1102 115.5 70.1102 115.297 70.1102ZM115.072 69.6604H115.301C115.372 69.6604 115.428 69.6603 115.466 69.6566C115.462 69.6004 115.447 69.5216 115.436 69.4467C115.406 69.2405 115.353 68.9255 115.335 68.4869C115.331 68.4307 115.331 68.3032 115.327 68.142C115.323 67.8908 115.32 67.3735 115.301 67.1148C115.248 67.1148 115.192 67.111 115.159 67.1148C115.151 67.2122 115.14 67.351 115.129 67.5122C115.087 67.9695 114.971 69.3154 115.072 69.6604Z" fill="#3E3F71"/>
<path fill-rule="evenodd" clip-rule="evenodd" d="M124.651 69.5033C124.415 69.7658 122.949 71.8652 122.679 71.6253C121.892 70.9279 122.139 71.2616 123.193 70.1931C123.342 70.0394 124.257 69.0235 124.302 69.0647C124.437 69.1847 124.748 69.3946 124.651 69.5033Z" fill="#475DA7"/>
<path d="M122.732 71.8682C122.657 71.8682 122.585 71.842 122.529 71.7933L122.409 71.6883C122.128 71.4409 121.989 71.3209 121.993 71.1259C121.997 70.9385 122.132 70.8298 122.353 70.6536C122.518 70.5186 122.743 70.3386 123.035 70.0425C123.069 70.005 123.148 69.9225 123.249 69.8138C124.145 68.8428 124.175 68.8428 124.299 68.8428H124.385L124.535 68.9703C124.704 69.109 124.876 69.2477 124.891 69.4351C124.898 69.5176 124.872 69.5963 124.816 69.6601C124.767 69.7163 124.659 69.855 124.52 70.0387C123.455 71.4408 123.035 71.8682 122.732 71.8682ZM122.469 71.1334C122.522 71.1859 122.615 71.2684 122.705 71.3471L122.762 71.3959C123.065 71.2084 123.886 70.1287 124.164 69.7613C124.261 69.6338 124.344 69.5251 124.404 69.4464C124.374 69.4164 124.332 69.3789 124.295 69.3526C124.107 69.5363 123.748 69.9262 123.575 70.1137C123.47 70.2262 123.388 70.3162 123.354 70.3536C123.043 70.6686 122.795 70.8672 122.634 71.0022C122.574 71.0435 122.51 71.0959 122.469 71.1334Z" fill="#3E3F71"/>
<path fill-rule="evenodd" clip-rule="evenodd" d="M120.643 71.4707C120.407 71.7369 118.941 73.8326 118.671 73.5927C117.884 72.8954 118.131 73.229 119.185 72.1605C119.335 72.0068 120.25 70.9909 120.295 71.0284C120.433 71.1521 120.741 71.362 120.643 71.4707Z" fill="#475DA7"/>
<path d="M118.724 73.8368C118.649 73.8368 118.578 73.8106 118.521 73.7618L118.401 73.6531C118.12 73.4057 117.982 73.2857 117.985 73.0908C117.989 72.9033 118.12 72.7984 118.341 72.6184C118.506 72.4872 118.731 72.3035 119.024 72.0073C119.058 71.9698 119.136 71.8836 119.237 71.7786C120.133 70.8076 120.16 70.8076 120.287 70.8076H120.373L120.523 70.9351C120.692 71.0738 120.868 71.2163 120.883 71.4037C120.891 71.4862 120.865 71.5649 120.808 71.6287C120.76 71.6849 120.655 71.8236 120.512 72.0073C119.447 73.4057 119.028 73.8368 118.724 73.8368ZM118.461 73.102C118.514 73.1545 118.608 73.237 118.698 73.3157L118.754 73.3645C119.058 73.1733 119.879 72.0973 120.156 71.7299C120.253 71.6024 120.336 71.4899 120.4 71.415C120.37 71.385 120.328 71.3475 120.291 71.3212C120.103 71.5049 119.744 71.8911 119.571 72.0785C119.466 72.191 119.384 72.281 119.346 72.3185C119.035 72.6334 118.788 72.8321 118.626 72.9671C118.566 73.012 118.503 73.0645 118.461 73.102Z" fill="#3E3F71"/>
<path fill-rule="evenodd" clip-rule="evenodd" d="M112.984 73.1553C113.014 73.5077 113.524 76.0121 113.164 76.0421C112.114 76.1283 112.53 76.1808 112.478 74.6849C112.471 74.4712 112.366 73.1103 112.422 73.1028C112.605 73.0841 112.973 73.0053 112.984 73.1553Z" fill="#475DA7"/>
<path d="M112.665 76.2966C112.553 76.2966 112.41 76.2816 112.313 76.1766C112.189 76.0454 112.204 75.8805 112.227 75.603C112.242 75.3931 112.268 75.1044 112.253 74.6883C112.253 74.6358 112.242 74.5121 112.234 74.3546C112.144 72.9787 112.141 72.8962 112.407 72.8775L112.512 72.8662C112.602 72.855 112.707 72.8438 112.793 72.8438C113.156 72.8438 113.201 73.0687 113.209 73.1399C113.216 73.2112 113.243 73.3836 113.28 73.6048C113.554 75.2919 113.584 75.9105 113.4 76.1429C113.344 76.2141 113.269 76.2554 113.183 76.2629L113.022 76.2779C112.868 76.2891 112.752 76.2966 112.665 76.2966ZM112.662 75.8505H112.665C112.74 75.8505 112.845 75.843 112.98 75.828L113.055 75.8205C113.13 75.4681 112.909 74.1297 112.834 73.6723C112.808 73.5186 112.789 73.3874 112.774 73.2899C112.718 73.2899 112.673 73.2936 112.632 73.2974C112.635 73.5561 112.669 74.0734 112.684 74.3209C112.695 74.4821 112.703 74.6133 112.703 74.6658C112.718 75.1082 112.692 75.4231 112.677 75.633C112.669 75.7118 112.662 75.7942 112.662 75.8505Z" fill="#3E3F71"/>
<path fill-rule="evenodd" clip-rule="evenodd" d="M113.674 69.9008C113.438 70.1632 111.972 72.2589 111.702 72.0227C110.915 71.3254 111.162 71.6591 112.215 70.5906C112.365 70.4369 113.28 69.4209 113.325 69.4622C113.46 69.5821 113.771 69.7921 113.674 69.9008Z" fill="#EA4E51"/>
<path d="M111.754 72.2657C111.679 72.2657 111.608 72.2395 111.552 72.1907L111.432 72.0858C111.151 71.8383 111.012 71.7183 111.016 71.5234C111.02 71.3359 111.151 71.2272 111.372 71.051C111.537 70.9161 111.762 70.7361 112.054 70.4399C112.092 70.4024 112.174 70.3125 112.275 70.2C113.164 69.2402 113.19 69.2402 113.318 69.2402H113.404L113.558 69.3677C113.726 69.5064 113.899 69.6451 113.914 69.8326C113.921 69.9151 113.895 69.9938 113.839 70.0575C113.79 70.1138 113.681 70.2525 113.543 70.4362C112.478 71.8383 112.058 72.2657 111.754 72.2657ZM111.496 71.5309C111.548 71.5834 111.638 71.6658 111.732 71.7446L111.784 71.7933C112.088 71.6021 112.909 70.5262 113.186 70.1587C113.284 70.0313 113.366 69.9188 113.43 69.8438C113.4 69.8138 113.359 69.7763 113.321 69.7501C113.134 69.9338 112.782 70.3162 112.609 70.4999C112.5 70.6161 112.414 70.7099 112.377 70.7473C112.066 71.0623 111.822 71.261 111.657 71.3959C111.597 71.4409 111.533 71.4934 111.496 71.5309Z" fill="#A0332C"/>
<path fill-rule="evenodd" clip-rule="evenodd" d="M120.46 80.3524C120.107 80.3937 117.618 80.9935 117.573 80.6374C117.449 79.5951 117.412 80.0113 118.908 79.9063C119.121 79.8913 120.482 79.7339 120.49 79.7938C120.512 79.9738 120.606 80.3337 120.46 80.3524Z" fill="#EA4E51"/>
<path d="M117.929 80.9749C117.794 80.9749 117.389 80.9749 117.352 80.6637L117.333 80.5025C117.288 80.1389 117.265 79.9552 117.393 79.8127C117.505 79.6852 117.682 79.6852 117.775 79.6852C117.832 79.6852 117.899 79.689 117.978 79.6927C118.184 79.7002 118.476 79.7152 118.896 79.6852C118.949 79.6815 119.076 79.6702 119.234 79.6552C119.631 79.614 120.171 79.5615 120.4 79.5615C120.591 79.5615 120.696 79.6328 120.715 79.7715L120.73 79.8839C120.763 80.0976 120.801 80.3188 120.688 80.4688C120.64 80.5363 120.565 80.5775 120.482 80.585C120.411 80.5925 120.238 80.63 120.017 80.675C119.399 80.7874 118.461 80.9749 117.929 80.9749ZM117.783 80.5175C117.813 80.5213 117.858 80.525 117.925 80.525C118.413 80.525 119.361 80.3338 119.927 80.2213C120.085 80.1913 120.216 80.1651 120.31 80.1464C120.306 80.1051 120.298 80.0526 120.291 80.0077C120.014 80.0227 119.575 80.0639 119.271 80.0939C119.106 80.1126 118.975 80.1239 118.919 80.1276C118.48 80.1576 118.169 80.1464 117.948 80.1351C117.862 80.1314 117.779 80.1276 117.734 80.1314C117.738 80.2063 117.753 80.3263 117.768 80.4463L117.783 80.5175Z" fill="#A0332C"/>
<path fill-rule="evenodd" clip-rule="evenodd" d="M112.77 79.3472C112.497 79.5721 110.333 80.9405 110.562 81.2217C111.23 82.0352 110.903 81.7728 112.017 80.7718C112.178 80.6294 113.235 79.7633 113.198 79.7146C113.082 79.5684 112.883 79.2535 112.77 79.3472Z" fill="#EA4E51"/>
<path d="M111.042 81.9268C110.843 81.9268 110.723 81.7806 110.487 81.4882L110.386 81.3645C110.334 81.297 110.311 81.2145 110.322 81.1246C110.364 80.8284 110.828 80.4235 112.238 79.4525C112.425 79.3213 112.572 79.2238 112.628 79.1788L112.692 79.1301L112.819 79.1113C113.025 79.1113 113.168 79.3063 113.31 79.4937L113.374 79.58C113.543 79.7824 113.479 79.8386 112.418 80.7309C112.302 80.8284 112.208 80.9071 112.171 80.9446C111.859 81.222 111.668 81.4395 111.526 81.5969C111.338 81.7994 111.226 81.9268 111.042 81.9268ZM110.791 81.147L110.836 81.2033C110.911 81.297 110.99 81.3945 111.042 81.447C111.083 81.4057 111.136 81.3457 111.185 81.2895C111.323 81.1321 111.533 80.8959 111.863 80.5997C111.904 80.5622 112.002 80.4835 112.122 80.3785C112.313 80.2173 112.714 79.8799 112.905 79.6999C112.879 79.6624 112.845 79.6212 112.815 79.5874C112.737 79.6437 112.624 79.7224 112.493 79.8124C112.111 80.0786 110.993 80.8509 110.791 81.147Z" fill="#A0332C"/>
<path fill-rule="evenodd" clip-rule="evenodd" d="M115.702 80.1088C115.702 80.4612 115.384 82.9993 115.744 82.9993C116.797 83.003 116.388 83.0892 116.321 81.5934C116.31 81.3797 116.313 80.015 116.253 80.015C116.073 80.015 115.702 79.9625 115.702 80.1088Z" fill="#EA4E51"/>
<path d="M116.07 83.2274H116.066L115.743 83.2237C115.657 83.2237 115.578 83.1862 115.519 83.1225C115.316 82.9013 115.297 82.2864 115.444 80.5881C115.462 80.3594 115.477 80.1832 115.481 80.1082C115.481 79.9845 115.548 79.7783 115.976 79.7783C116.036 79.7783 116.096 79.7821 116.152 79.7821L116.261 79.7858C116.527 79.7858 116.527 79.8683 116.546 81.2517C116.546 81.4054 116.549 81.5291 116.549 81.5816C116.568 81.9977 116.613 82.2827 116.647 82.4926C116.692 82.7738 116.718 82.9425 116.598 83.0812C116.471 83.2274 116.268 83.2274 116.07 83.2274ZM115.833 82.7775H116.066C116.141 82.7775 116.193 82.7775 116.227 82.7738C116.223 82.7176 116.208 82.6388 116.197 82.5638C116.163 82.3576 116.115 82.0465 116.096 81.6041C116.092 81.5479 116.092 81.4204 116.088 81.2629C116.085 81.0118 116.077 80.4906 116.062 80.232C116.01 80.2282 115.957 80.2282 115.916 80.232C115.908 80.3294 115.897 80.4681 115.886 80.6294C115.852 81.0867 115.736 82.4326 115.833 82.7775Z" fill="#A0332C"/>
<path fill-rule="evenodd" clip-rule="evenodd" d="M118.713 76.7983C118.476 77.0607 117.011 79.1601 116.741 78.9202C115.953 78.2229 116.201 78.5566 117.254 77.4881C117.404 77.3344 118.319 76.3184 118.364 76.3596C118.503 76.4796 118.814 76.6858 118.713 76.7983Z" fill="#EA4E51"/>
<path d="M116.797 79.1609C116.722 79.1609 116.651 79.1347 116.594 79.0859L116.471 78.9772C116.193 78.7335 116.051 78.6098 116.055 78.4148C116.058 78.2274 116.189 78.1224 116.411 77.9425C116.576 77.8113 116.801 77.6275 117.093 77.3276C117.13 77.2901 117.217 77.1964 117.322 77.0802C118.203 76.1279 118.229 76.1279 118.356 76.1279H118.443L118.596 76.2554C118.765 76.3941 118.938 76.5328 118.953 76.7203C118.96 76.8028 118.934 76.8815 118.878 76.9452C118.829 77.0014 118.724 77.1402 118.585 77.3239C117.52 78.7335 117.1 79.1609 116.797 79.1609ZM116.534 78.4261C116.587 78.4786 116.677 78.5611 116.767 78.6398L116.823 78.6885C117.127 78.4973 117.948 77.4214 118.225 77.0502C118.323 76.9227 118.405 76.814 118.465 76.739C118.435 76.709 118.394 76.6715 118.356 76.6453C118.173 76.8252 117.82 77.2039 117.652 77.3876C117.539 77.5076 117.449 77.605 117.412 77.6463C117.1 77.9612 116.857 78.1599 116.692 78.2949C116.639 78.3399 116.576 78.3886 116.534 78.4261Z" fill="#A0332C"/>
<path fill-rule="evenodd" clip-rule="evenodd" d="M115.811 86.0991C115.575 86.3615 114.109 88.4572 113.839 88.221C113.052 87.5237 113.299 87.8573 114.352 86.7889C114.502 86.6352 115.417 85.6192 115.462 85.6604C115.597 85.7804 115.908 85.9903 115.811 86.0991Z" fill="#EA4E51"/>
<path d="M113.891 88.4648C113.816 88.4648 113.745 88.4385 113.689 88.3898L113.569 88.281C113.288 88.0336 113.149 87.9136 113.153 87.7187C113.157 87.5312 113.288 87.4263 113.509 87.2463C113.674 87.1151 113.899 86.9314 114.191 86.6352C114.229 86.5977 114.315 86.504 114.424 86.3878C115.305 85.4355 115.331 85.4355 115.458 85.4355H115.545L115.698 85.563C115.867 85.7017 116.04 85.8442 116.058 86.0279C116.066 86.1104 116.04 86.1891 115.983 86.2491C115.931 86.3053 115.826 86.4478 115.683 86.6315C114.611 88.0374 114.195 88.4648 113.891 88.4648ZM113.629 87.7299C113.681 87.7824 113.771 87.8649 113.865 87.9436L113.921 87.9924C114.225 87.8012 115.042 86.7289 115.32 86.3615C115.421 86.2303 115.503 86.1179 115.563 86.0429C115.533 86.0129 115.492 85.9754 115.455 85.9492C115.271 86.1291 114.919 86.5078 114.75 86.6877C114.637 86.8077 114.547 86.9052 114.51 86.9464C114.199 87.2613 113.955 87.46 113.79 87.595C113.734 87.64 113.67 87.6925 113.629 87.7299Z" fill="#A0332C"/>
<path fill-rule="evenodd" clip-rule="evenodd" d="M159.491 59.092C159.704 59.3732 161.009 61.5739 161.294 61.3565C162.13 60.7191 161.86 61.0378 160.893 59.8906C160.754 59.7256 159.922 58.6422 159.873 58.6797C159.723 58.7884 159.401 58.9721 159.491 59.092Z" fill="#475DA7"/>
<path d="M161.245 61.592C160.934 61.592 160.559 61.1497 159.577 59.6275C159.453 59.4326 159.356 59.2864 159.311 59.2264C159.262 59.1589 159.239 59.0802 159.254 58.9977C159.284 58.814 159.468 58.6866 159.648 58.5628L159.798 58.4541H159.877C160.016 58.4541 160.038 58.4541 160.855 59.4814C160.953 59.6051 161.032 59.7025 161.065 59.7438C161.335 60.0624 161.545 60.2611 161.699 60.4074C161.905 60.6023 162.029 60.7185 162.017 60.906C162.006 61.1009 161.856 61.2134 161.56 61.4383L161.369 61.5808L161.245 61.592ZM159.738 59.054C159.791 59.1364 159.869 59.2489 159.956 59.3876C160.207 59.7775 160.942 60.9135 161.23 61.1234L161.29 61.0784C161.388 61.0072 161.485 60.9322 161.541 60.8835C161.504 60.8422 161.444 60.786 161.388 60.7335C161.234 60.5911 161.005 60.3699 160.72 60.0324C160.683 59.9912 160.604 59.8862 160.499 59.7588C160.345 59.5638 160.023 59.1589 159.854 58.964C159.813 58.9902 159.772 59.024 159.738 59.054Z" fill="#3E3F71"/>
<path fill-rule="evenodd" clip-rule="evenodd" d="M149.762 59.9394C150.017 60.1831 152.072 61.7127 151.824 61.9751C151.097 62.7362 151.442 62.5 150.407 61.4165C150.257 61.2591 149.271 60.3181 149.312 60.2731C149.432 60.1381 149.653 59.8382 149.762 59.9394Z" fill="#475DA7"/>
<path d="M151.31 62.6422C151.115 62.6422 151.003 62.4923 150.83 62.2711C150.703 62.1024 150.527 61.8736 150.238 61.57C150.201 61.5325 150.111 61.4425 149.998 61.3338C149.016 60.3666 148.956 60.3103 149.143 60.1191L149.215 60.0404C149.361 59.8717 149.515 59.6992 149.71 59.6992H149.8L149.916 59.7817C149.968 59.8342 150.107 59.9429 150.287 60.0891C151.614 61.1614 152.049 61.6037 152.068 61.8999C152.075 61.9899 152.045 62.0723 151.985 62.1323L151.873 62.2486C151.622 62.511 151.498 62.6422 151.31 62.6422ZM149.597 60.2841C149.773 60.4753 150.141 60.8389 150.317 61.0114C150.433 61.1276 150.527 61.2176 150.564 61.2588C150.872 61.5775 151.063 61.8324 151.19 61.9974C151.235 62.0574 151.284 62.1211 151.322 62.1623C151.378 62.1136 151.46 62.0236 151.543 61.9374L151.595 61.8849C151.415 61.5737 150.362 60.7227 150.002 60.4303C149.871 60.3253 149.762 60.2353 149.687 60.1716C149.665 60.2016 149.627 60.2466 149.597 60.2841Z" fill="#3E3F71"/>
<path fill-rule="evenodd" clip-rule="evenodd" d="M151.19 67.6244C151.547 67.6057 154.073 67.182 154.088 67.5419C154.141 68.5917 154.205 68.1792 152.705 68.1792C152.488 68.1792 151.123 68.2392 151.119 68.183C151.112 67.9993 151.044 67.6319 151.19 67.6244Z" fill="#475DA7"/>
<path d="M153.912 68.4832C153.841 68.4832 153.744 68.472 153.624 68.4607C153.414 68.4382 153.125 68.4045 152.709 68.4045C152.656 68.4045 152.533 68.4082 152.379 68.412C152.109 68.4195 151.738 68.4307 151.472 68.4307C151.13 68.4307 150.905 68.4307 150.898 68.1908L150.89 68.0858C150.872 67.8684 150.849 67.6434 150.973 67.5047C151.025 67.441 151.104 67.4072 151.187 67.4035C151.262 67.3997 151.438 67.3773 151.667 67.3473C152.199 67.2798 153.001 67.1748 153.545 67.1748C153.792 67.1748 154.306 67.1748 154.325 67.5347L154.332 67.6959C154.351 68.0596 154.362 68.2395 154.235 68.3745C154.126 68.472 153.998 68.4832 153.912 68.4832ZM152.705 67.9546C153.147 67.9546 153.462 67.9921 153.672 68.0146C153.759 68.0258 153.83 68.0333 153.886 68.0333C153.89 67.9584 153.882 67.8346 153.875 67.7147L153.871 67.6434C153.818 67.6322 153.717 67.6209 153.537 67.6209C153.02 67.6209 152.236 67.7222 151.715 67.7896C151.554 67.8084 151.419 67.8271 151.322 67.8384C151.322 67.8834 151.325 67.9359 151.329 67.9809C151.577 67.9846 152.041 67.9734 152.36 67.9621C152.521 67.9584 152.649 67.9546 152.705 67.9546Z" fill="#3E3F71"/>
<path fill-rule="evenodd" clip-rule="evenodd" d="M158.658 60.4149C158.688 60.7673 159.21 63.2679 158.85 63.2979C157.8 63.3879 158.216 63.4404 158.16 61.9408C158.152 61.7271 158.04 60.3662 158.1 60.3624C158.28 60.3512 158.643 60.2687 158.658 60.4149Z" fill="#EA4E51"/>
<path d="M158.347 63.564C158.239 63.564 158.1 63.549 157.999 63.444C157.875 63.3128 157.89 63.1479 157.909 62.8705C157.924 62.6605 157.946 62.3718 157.931 61.9557C157.927 61.9032 157.92 61.7795 157.909 61.622C157.815 60.2461 157.807 60.1636 158.077 60.1449L158.182 60.1337C158.276 60.1224 158.381 60.1074 158.471 60.1074C158.827 60.1074 158.876 60.3324 158.883 60.3998C158.891 60.4711 158.921 60.6435 158.955 60.8647C159.236 62.5518 159.27 63.1704 159.082 63.4066C159.026 63.4778 158.951 63.519 158.865 63.5265L158.703 63.5415C158.55 63.5528 158.433 63.564 158.347 63.564ZM158.347 63.1141C158.426 63.1141 158.527 63.1066 158.662 63.0916L158.737 63.0841C158.808 62.7317 158.587 61.3933 158.508 60.9359C158.482 60.7822 158.46 60.651 158.448 60.5536C158.392 60.5536 158.347 60.5573 158.306 60.5648C158.31 60.8235 158.343 61.3371 158.362 61.5883C158.373 61.7495 158.381 61.8807 158.385 61.9369C158.4 62.3793 158.377 62.6943 158.362 62.9004C158.355 62.9792 158.347 63.0579 158.347 63.1141Z" fill="#A0332C"/>
<path fill-rule="evenodd" clip-rule="evenodd" d="M161.328 63.01C161.541 63.2912 162.842 65.4919 163.131 65.2744C163.967 64.6371 163.697 64.952 162.73 63.8086C162.591 63.6436 161.759 62.5601 161.71 62.5976C161.56 62.7064 161.238 62.89 161.328 63.01Z" fill="#EA4E51"/>
<path d="M163.082 65.5108C162.775 65.5108 162.385 65.0497 161.41 63.5388C161.286 63.3476 161.193 63.2014 161.148 63.1414C161.099 63.074 161.077 62.9952 161.092 62.9128C161.121 62.7291 161.305 62.6016 161.485 62.4779L161.635 62.3691H161.714C161.849 62.3691 161.875 62.3692 162.692 63.3964C162.79 63.5201 162.869 63.6213 162.906 63.6626C163.176 63.9812 163.386 64.1799 163.54 64.3261C163.746 64.5211 163.87 64.6373 163.858 64.8248C163.847 65.0197 163.697 65.1322 163.401 65.3534L163.21 65.4958L163.082 65.5108ZM161.575 62.9728C161.628 63.0515 161.703 63.1677 161.789 63.3027C162.04 63.6926 162.775 64.8323 163.067 65.0422L163.127 64.9972C163.225 64.926 163.322 64.851 163.378 64.8023C163.341 64.761 163.281 64.7048 163.228 64.6561C163.075 64.5098 162.846 64.2924 162.561 63.955C162.524 63.9138 162.445 63.8088 162.34 63.6813C162.186 63.4863 161.868 63.0852 161.695 62.8903C161.65 62.909 161.609 62.9428 161.575 62.9728Z" fill="#A0332C"/>
<path fill-rule="evenodd" clip-rule="evenodd" d="M152.289 64.4004C152.645 64.4154 155.176 64.8128 155.187 64.4529C155.228 63.4031 155.299 63.8155 153.796 63.8305C153.582 63.8343 152.214 63.7855 152.21 63.8455C152.206 64.0255 152.143 64.3929 152.289 64.4004Z" fill="#EA4E51"/>
<path d="M154.598 64.8283C154.598 64.8283 154.595 64.8283 154.598 64.8283C154.051 64.8283 153.271 64.7346 152.757 64.6746C152.533 64.6483 152.356 64.6258 152.285 64.6221C152.203 64.6183 152.128 64.5809 152.071 64.5209C151.948 64.3822 151.966 64.1572 151.981 63.9398L151.989 63.831C151.996 63.5836 152.214 63.5836 152.683 63.5836C152.93 63.5836 153.234 63.5911 153.462 63.5949C153.605 63.5986 153.721 63.5986 153.781 63.5986C154.216 63.5949 154.501 63.5574 154.711 63.5311C154.838 63.5161 154.936 63.5049 155.007 63.5049C155.093 63.5049 155.217 63.5161 155.314 63.6173C155.442 63.7486 155.434 63.9323 155.419 64.2922L155.412 64.4534C155.401 64.8245 154.861 64.8283 154.598 64.8283ZM152.42 64.1835C152.518 64.191 152.652 64.2097 152.81 64.2284C153.316 64.2884 154.077 64.3784 154.594 64.3784C154.801 64.3784 154.913 64.3634 154.969 64.3522L154.973 64.2809C154.977 64.161 154.984 64.041 154.981 63.966C154.917 63.9698 154.849 63.9773 154.771 63.9885C154.561 64.0147 154.246 64.0522 153.803 64.056C153.721 64.0672 153.601 64.0522 153.455 64.0522C153.117 64.0448 152.611 64.041 152.428 64.0447C152.42 64.0897 152.42 64.1422 152.42 64.1835Z" fill="#A0332C"/>
<path fill-rule="evenodd" clip-rule="evenodd" d="M162.936 59.6134C163.195 59.8571 165.245 61.3867 164.998 61.6492C164.271 62.4102 164.616 62.174 163.581 61.0906C163.431 60.9369 162.445 59.9921 162.486 59.9471C162.61 59.8122 162.827 59.5085 162.936 59.6134Z" fill="#EA4E51"/>
<path d="M164.488 62.3159C164.293 62.3159 164.177 62.1697 164.008 61.9447C163.881 61.776 163.705 61.5473 163.416 61.2437C163.378 61.2062 163.292 61.1199 163.183 61.015C162.194 60.044 162.134 59.984 162.321 59.7928L162.392 59.7103C162.539 59.5416 162.692 59.3691 162.883 59.3691H162.973L163.09 59.4516C163.146 59.5041 163.285 59.6166 163.465 59.7591C164.627 60.7001 165.219 61.2362 165.242 61.5698C165.249 61.6598 165.219 61.7423 165.159 61.8023L165.047 61.9185C164.799 62.1809 164.676 62.3159 164.488 62.3159ZM162.771 59.9577C162.947 60.1489 163.318 60.5164 163.498 60.6926C163.611 60.805 163.701 60.895 163.742 60.9325C164.049 61.2512 164.241 61.5023 164.368 61.671C164.413 61.731 164.462 61.7948 164.499 61.8398C164.556 61.791 164.638 61.7011 164.721 61.6148L164.773 61.5623C164.593 61.2512 163.543 60.4039 163.183 60.1115C163.052 60.0065 162.943 59.9165 162.868 59.8528C162.842 59.8753 162.805 59.9202 162.771 59.9577Z" fill="#A0332C"/>
<path fill-rule="evenodd" clip-rule="evenodd" d="M164.368 67.2982C164.724 67.2795 167.251 66.8558 167.266 67.2158C167.319 68.2655 167.383 67.8531 165.883 67.8531C165.669 67.8531 164.301 67.9131 164.297 67.8568C164.286 67.6731 164.218 67.3057 164.368 67.2982Z" fill="#EA4E51"/>
<path d="M167.086 68.1569C167.015 68.1569 166.918 68.1456 166.798 68.1344C166.588 68.1119 166.299 68.0782 165.879 68.0782C165.827 68.0782 165.703 68.0819 165.549 68.0857C165.279 68.0932 164.912 68.1044 164.642 68.1044C164.305 68.1044 164.08 68.1044 164.068 67.8645L164.061 67.7557C164.042 67.5383 164.02 67.3134 164.143 67.1746C164.196 67.1109 164.271 67.0772 164.353 67.0734C164.428 67.0697 164.605 67.0472 164.833 67.0172C165.366 66.9497 166.168 66.8447 166.711 66.8447C166.959 66.8447 167.473 66.8447 167.491 67.2046L167.499 67.3658C167.517 67.7295 167.529 67.9095 167.398 68.0444C167.304 68.1456 167.176 68.1569 167.086 68.1569ZM165.879 67.6283C166.322 67.6283 166.636 67.662 166.846 67.6883C166.933 67.6995 167.004 67.707 167.056 67.7107C167.06 67.6358 167.053 67.5121 167.045 67.3921L167.041 67.3246C166.989 67.3134 166.888 67.3021 166.708 67.3021C166.19 67.3021 165.407 67.4033 164.886 67.4708C164.724 67.4896 164.59 67.5083 164.492 67.5196C164.492 67.5646 164.496 67.617 164.5 67.662C164.754 67.6695 165.212 67.6545 165.531 67.6433C165.699 67.632 165.827 67.6283 165.879 67.6283Z" fill="#A0332C"/>
<path fill-rule="evenodd" clip-rule="evenodd" d="M154.062 60.1859C154.418 60.1672 156.945 59.7435 156.96 60.1035C157.013 61.1532 157.076 60.7408 155.577 60.7408C155.359 60.7408 153.995 60.8008 153.991 60.7445C153.984 60.5608 153.916 60.1934 154.062 60.1859Z" fill="#EA4E51"/>
<path d="M156.784 61.0485C156.713 61.0485 156.615 61.0372 156.495 61.026C156.285 61.0035 155.997 60.9697 155.577 60.9697C155.524 60.9697 155.401 60.9735 155.247 60.9773C154.973 60.9848 154.61 60.996 154.34 60.996C154.002 60.996 153.777 60.996 153.766 60.7561L153.759 60.6473C153.74 60.4299 153.717 60.205 153.841 60.0662C153.893 60.0025 153.972 59.9688 154.055 59.965C154.13 59.9613 154.302 59.9388 154.531 59.9088C155.063 59.8413 155.865 59.7363 156.409 59.7363C156.657 59.7363 157.17 59.7363 157.189 60.0962L157.196 60.2574C157.215 60.6211 157.226 60.801 157.095 60.936C157.001 61.0372 156.874 61.0485 156.784 61.0485ZM155.577 60.5199C156.019 60.5199 156.334 60.5536 156.544 60.5799C156.63 60.5911 156.698 60.5986 156.754 60.6024C156.758 60.5274 156.75 60.4036 156.743 60.2837L156.739 60.2124C156.687 60.2012 156.585 60.1899 156.405 60.1899C155.888 60.1899 155.104 60.2912 154.583 60.3587C154.422 60.3812 154.287 60.3961 154.19 60.4074C154.19 60.4524 154.193 60.5049 154.197 60.5499C154.452 60.5536 154.909 60.5424 155.228 60.5311C155.393 60.5236 155.524 60.5199 155.577 60.5199Z" fill="#A0332C"/>
<path fill-rule="evenodd" clip-rule="evenodd" d="M139.992 68.0595C139.64 68.1007 137.15 68.7006 137.105 68.3444C136.982 67.3022 136.944 67.7183 138.44 67.6134C138.654 67.5984 140.015 67.4409 140.022 67.5009C140.045 67.6808 140.138 68.0407 139.992 68.0595Z" fill="#475DA7"/>
<path d="M137.462 68.6818C137.327 68.6818 136.922 68.6818 136.884 68.3706L136.865 68.2094C136.82 67.842 136.798 67.6583 136.925 67.5196C137.038 67.3921 137.214 67.3921 137.308 67.3921C137.364 67.3921 137.432 67.3959 137.51 67.3996C137.716 67.4071 138.013 67.4221 138.429 67.3921C138.481 67.3884 138.609 67.3771 138.77 67.3584C139.167 67.3171 139.707 67.2646 139.936 67.2646C140.176 67.2646 140.24 67.3809 140.251 67.4783L140.266 67.5833C140.3 67.797 140.337 68.0182 140.225 68.1682C140.176 68.2357 140.101 68.2769 140.018 68.2844C139.943 68.2919 139.771 68.3294 139.546 68.3744C138.927 68.4943 137.994 68.6818 137.462 68.6818ZM137.319 68.2244C137.349 68.2281 137.394 68.2319 137.462 68.2319C137.949 68.2319 138.894 68.0407 139.456 67.9282C139.613 67.8982 139.748 67.872 139.846 67.8532C139.842 67.812 139.835 67.7595 139.827 67.7145C139.553 67.7258 139.115 67.7708 138.811 67.8008C138.642 67.8158 138.511 67.8308 138.455 67.8345C138.013 67.8645 137.701 67.8533 137.488 67.842C137.402 67.8383 137.323 67.8383 137.274 67.8383C137.278 67.9132 137.293 68.0332 137.308 68.1532L137.319 68.2244Z" fill="#3E3F71"/>
<path fill-rule="evenodd" clip-rule="evenodd" d="M135.235 67.8158C135.235 68.1682 134.916 70.7063 135.276 70.7063C136.329 70.71 135.921 70.7963 135.853 69.3004C135.842 69.0867 135.846 67.7221 135.786 67.7221C135.606 67.7221 135.235 67.6696 135.235 67.8158Z" fill="#475DA7"/>
<path d="M135.606 70.9354H135.602L135.28 70.9317C135.193 70.9317 135.115 70.8942 135.055 70.8305C134.852 70.6093 134.833 69.9944 134.98 68.2961C134.998 68.0674 135.013 67.8912 135.017 67.8162C135.017 67.6663 135.103 67.4863 135.512 67.4863C135.568 67.4863 135.628 67.4901 135.684 67.4901L135.797 67.4938C136.063 67.4976 136.067 67.5801 136.082 68.9597C136.082 69.1134 136.086 69.2371 136.086 69.2896C136.104 69.7057 136.149 69.9907 136.183 70.2006C136.228 70.4818 136.254 70.6505 136.134 70.7892C136.003 70.9354 135.801 70.9354 135.606 70.9354ZM135.37 70.4855H135.602C135.677 70.4855 135.729 70.4855 135.763 70.4818C135.759 70.4256 135.744 70.3468 135.733 70.2718C135.699 70.0657 135.651 69.7545 135.632 69.3121C135.628 69.2559 135.628 69.1284 135.625 68.9709C135.621 68.7198 135.613 68.1987 135.598 67.94C135.546 67.9362 135.49 67.9362 135.452 67.94C135.445 68.0374 135.433 68.1762 135.422 68.3374C135.385 68.7947 135.268 70.1406 135.37 70.4855Z" fill="#3E3F71"/>
<path fill-rule="evenodd" clip-rule="evenodd" d="M147.542 70.6728C147.19 70.714 144.701 71.3138 144.656 70.9577C144.532 69.9155 144.495 70.3316 145.99 70.2266C146.204 70.2116 147.565 70.0542 147.572 70.1142C147.599 70.2941 147.692 70.6578 147.542 70.6728Z" fill="#EA4E51"/>
<path d="M145.012 71.2942C144.877 71.2942 144.468 71.2942 144.431 70.9831L144.412 70.8219C144.367 70.4582 144.345 70.2745 144.472 70.132C144.585 70.0046 144.761 70.0046 144.855 70.0046C144.911 70.0046 144.978 70.0083 145.057 70.0121C145.263 70.0196 145.559 70.0346 145.976 70.0046C146.028 70.0008 146.155 69.9896 146.313 69.9746C146.707 69.9333 147.246 69.8809 147.479 69.8809C147.674 69.8809 147.783 69.9521 147.798 70.0946L147.813 70.2033C147.846 70.417 147.884 70.6382 147.771 70.7881C147.723 70.8556 147.648 70.8968 147.569 70.9043C147.494 70.9118 147.321 70.9493 147.096 70.9943C146.478 71.1068 145.544 71.2942 145.012 71.2942ZM144.87 70.8369C144.9 70.8406 144.945 70.8444 145.012 70.8444C145.499 70.8444 146.444 70.6569 147.006 70.5444C147.164 70.5144 147.299 70.4882 147.396 70.4695C147.393 70.4282 147.385 70.3757 147.378 70.3307C147.1 70.342 146.665 70.387 146.358 70.417C146.193 70.4357 146.062 70.4469 146.006 70.4507C145.563 70.4807 145.252 70.4694 145.035 70.4582C144.948 70.4545 144.87 70.4544 144.821 70.4544C144.825 70.5294 144.84 70.6494 144.855 70.7694L144.87 70.8369Z" fill="#A0332C"/>
<path fill-rule="evenodd" clip-rule="evenodd" d="M139.853 69.6674C139.58 69.8923 137.417 71.2607 137.645 71.5381C138.313 72.3517 137.986 72.0892 139.104 71.0882C139.265 70.9458 140.322 70.076 140.285 70.031C140.165 69.8923 139.97 69.5736 139.853 69.6674Z" fill="#EA4E51"/>
<path d="M138.129 72.2478C137.93 72.2478 137.81 72.1016 137.574 71.8092L137.469 71.6817C137.417 71.6142 137.394 71.5318 137.405 71.4418C137.447 71.1456 137.911 70.7407 139.321 69.7697C139.508 69.6385 139.655 69.541 139.711 69.4923L139.775 69.4435L139.902 69.4248C140.105 69.4248 140.251 69.616 140.39 69.8035L140.457 69.8897C140.626 70.0921 140.562 70.1484 139.508 71.0369C139.389 71.1381 139.291 71.2206 139.254 71.2543C138.942 71.5355 138.747 71.7492 138.609 71.9104C138.421 72.1204 138.309 72.2478 138.129 72.2478ZM137.878 71.468L137.926 71.5243C138.001 71.618 138.08 71.7117 138.129 71.7679C138.17 71.7267 138.223 71.6667 138.271 71.6105C138.41 71.453 138.62 71.2168 138.95 70.9207C138.991 70.8832 139.092 70.8007 139.216 70.692C139.407 70.5308 139.801 70.1971 139.988 70.0209C139.962 69.9834 139.928 69.9422 139.898 69.9084C139.82 69.9647 139.707 70.0434 139.576 70.1334C139.197 70.4033 138.08 71.1719 137.878 71.468Z" fill="#A0332C"/>
<path fill-rule="evenodd" clip-rule="evenodd" d="M142.785 70.4318C142.781 70.7842 142.466 73.3223 142.826 73.3223C143.88 73.3261 143.471 73.4123 143.404 71.9164C143.393 71.7027 143.396 70.3381 143.336 70.3381C143.156 70.3343 142.789 70.2818 142.785 70.4318Z" fill="#EA4E51"/>
<path d="M143.156 73.5477H143.153L142.83 73.544C142.744 73.544 142.665 73.5065 142.605 73.4428C142.403 73.2216 142.384 72.603 142.53 70.9047C142.549 70.6797 142.564 70.5035 142.564 70.4285C142.564 70.3048 142.631 70.0986 143.059 70.0986C143.119 70.0986 143.183 70.1024 143.239 70.1061L143.347 70.1099C143.614 70.1099 143.614 70.1924 143.632 71.557C143.636 71.7182 143.636 71.8494 143.64 71.9019C143.659 72.3181 143.704 72.6067 143.734 72.8129C143.779 73.0904 143.805 73.2591 143.685 73.4015C143.557 73.5477 143.355 73.5477 143.156 73.5477ZM142.92 73.0979H143.153C143.228 73.0979 143.28 73.0979 143.314 73.0941C143.31 73.0379 143.295 72.9592 143.284 72.8842C143.25 72.678 143.201 72.3668 143.183 71.9244C143.179 71.8682 143.179 71.7332 143.175 71.5608C143.171 71.3133 143.168 70.8072 143.149 70.5485C143.1 70.5448 143.04 70.5448 143.003 70.5485C142.995 70.646 142.984 70.781 142.973 70.9384C142.935 71.4033 142.823 72.7529 142.92 73.0979Z" fill="#A0332C"/>
<path fill-rule="evenodd" clip-rule="evenodd" d="M145.799 67.1186C145.563 67.3848 144.097 69.4805 143.827 69.2405C143.04 68.5432 143.287 68.8769 144.341 67.8084C144.491 67.6547 145.406 66.6387 145.451 66.6799C145.589 66.7999 145.897 67.0099 145.799 67.1186Z" fill="#EA4E51"/>
<path d="M143.883 69.4843C143.805 69.4843 143.737 69.458 143.681 69.4093L143.557 69.3006C143.276 69.0532 143.137 68.9332 143.141 68.7382C143.145 68.5508 143.28 68.4458 143.501 68.2659C143.666 68.1309 143.891 67.9509 144.183 67.6548C144.217 67.6173 144.296 67.5348 144.397 67.4261C145.293 66.4551 145.323 66.4551 145.451 66.4551H145.537L145.687 66.5826C145.855 66.7213 146.028 66.86 146.043 67.0474C146.05 67.1299 146.024 67.2086 145.968 67.2686C145.919 67.3248 145.81 67.4636 145.672 67.6473C144.603 69.0569 144.187 69.4843 143.883 69.4843ZM143.621 68.7495C143.674 68.802 143.764 68.8844 143.857 68.9632L143.913 69.0119C144.217 68.8207 145.038 67.7448 145.316 67.3773C145.413 67.2499 145.496 67.1411 145.556 67.0624C145.526 67.0324 145.484 66.9987 145.447 66.9687C145.259 67.1524 144.899 67.5423 144.727 67.7298C144.622 67.8422 144.54 67.9322 144.506 67.9697C144.195 68.2846 143.947 68.4833 143.786 68.6183C143.726 68.6595 143.662 68.712 143.621 68.7495Z" fill="#A0332C"/>
<path fill-rule="evenodd" clip-rule="evenodd" d="M142.894 76.4233C142.658 76.6857 141.192 78.7851 140.922 78.5452C140.134 77.8479 140.382 78.1816 141.435 77.1131C141.585 76.9594 142.5 75.9434 142.545 75.9846C142.684 76.1046 142.995 76.3108 142.894 76.4233Z" fill="#EA4E51"/>
<path d="M140.978 78.7859C140.899 78.7859 140.832 78.7597 140.776 78.7109L140.652 78.6022C140.371 78.3585 140.232 78.2348 140.236 78.0398C140.239 77.8524 140.371 77.7474 140.592 77.5675C140.757 77.4325 140.982 77.2525 141.274 76.9526C141.312 76.9151 141.398 76.8214 141.507 76.7014C142.388 75.7529 142.414 75.7529 142.541 75.7529H142.628L142.781 75.8804C142.95 76.0191 143.122 76.1578 143.137 76.3453C143.145 76.4278 143.119 76.5065 143.062 76.5665C143.014 76.6227 142.905 76.7652 142.766 76.9451C141.698 78.3585 141.282 78.7859 140.978 78.7859ZM140.716 78.0511C140.768 78.1036 140.858 78.1861 140.952 78.2648L141.008 78.3135C141.312 78.1261 142.133 77.0464 142.41 76.679C142.508 76.5515 142.59 76.439 142.65 76.364C142.62 76.334 142.579 76.2965 142.541 76.2703C142.358 76.4502 142.009 76.8289 141.84 77.0089C141.728 77.1326 141.638 77.2301 141.597 77.2675C141.285 77.5825 141.038 77.7812 140.877 77.9161C140.821 77.9649 140.757 78.0136 140.716 78.0511Z" fill="#A0332C"/>
<path fill-rule="evenodd" clip-rule="evenodd" d="M161.05 86.0771C162.539 93.7589 171.484 195.485 149.897 158.741C144.723 149.93 118.102 98.9438 117.873 96.7806C121.843 95.5322 132.322 93.8339 142.639 91.5882C151.603 89.6387 158.621 87.4943 161.05 86.0771Z" fill="#F9BA75"/>
<path d="M122.027 105.786L121.903 105.355C132.228 102.427 143.516 96.4732 153.684 88.5928L153.961 88.9489C143.752 96.8631 132.408 102.847 122.027 105.786Z" fill="#F3E2BB"/>
<path d="M125.191 112.055L125.06 111.628C137.173 107.92 150.444 100.133 161.474 90.2656L161.774 90.5993C150.699 100.508 137.364 108.328 125.191 112.055Z" fill="#F3E2BB"/>
<path d="M128.565 118.637L128.423 118.21C139.793 114.457 151.809 107.383 162.246 98.2949L162.542 98.6323C152.06 107.761 139.992 114.866 128.565 118.637Z" fill="#F3E2BB"/>
<path d="M131.95 125.179L131.8 124.756C142.204 121.074 153.237 114.566 162.876 106.423L163.168 106.764C153.489 114.941 142.403 121.479 131.95 125.179Z" fill="#F3E2BB"/>
<path d="M135.347 131.684L135.186 131.264C144.716 127.665 154.467 121.91 163.386 114.618L163.671 114.963C154.718 122.289 144.922 128.07 135.347 131.684Z" fill="#F3E2BB"/>
<path d="M138.744 138.148L138.575 137.732C147.044 134.339 155.753 129.203 163.761 122.882L164.042 123.234C156 129.581 147.254 134.74 138.744 138.148Z" fill="#F3E2BB"/>
<path d="M142.152 144.577L141.975 144.165C149.338 141.045 156.949 136.573 163.978 131.23L164.252 131.587C157.193 136.948 149.548 141.439 142.152 144.577Z" fill="#F3E2BB"/>
<path d="M145.574 150.961L145.391 150.553C151.67 147.749 157.924 144.09 163.982 139.681L164.248 140.044C158.167 144.468 151.884 148.142 145.574 150.961Z" fill="#F3E2BB"/>
<path d="M149.05 157.287L148.859 156.878C153.837 154.539 158.816 151.652 163.66 148.297L163.918 148.664C159.048 152.038 154.047 154.936 149.05 157.287Z" fill="#F3E2BB"/>
<path d="M152.956 163.36L152.754 162.959C156.068 161.302 159.405 159.39 162.674 157.271L162.917 157.646C159.637 159.776 156.282 161.695 152.956 163.36Z" fill="#F3E2BB"/>
<path d="M148.877 99.9152C139.55 99.9152 129.765 98.6705 120.658 96.2562L120.775 95.8213C134.398 99.4353 149.567 100.418 162.385 98.5168L162.452 98.9592C158.145 99.6003 153.567 99.9152 148.877 99.9152Z" fill="#F3E2BB"/>
<path d="M150.617 106.596C140.693 106.596 130.282 105.182 120.733 102.464L120.857 102.033C134.432 105.898 149.766 107.113 162.925 105.366L162.985 105.812C159.022 106.337 154.864 106.596 150.617 106.596Z" fill="#F3E2BB"/>
<path d="M152.596 113.643C143.115 113.643 133.116 112.357 123.973 109.898L124.089 109.463C136.768 112.875 151.089 114.018 163.39 112.593L163.442 113.039C159.963 113.448 156.319 113.643 152.596 113.643Z" fill="#F3E2BB"/>
<path d="M154.396 120.711C145.634 120.711 136.475 119.609 127.838 117.472L127.946 117.037C139.692 119.943 152.412 120.932 163.761 119.819L163.806 120.265C160.754 120.565 157.601 120.711 154.396 120.711Z" fill="#F3E2BB"/>
<path d="M156.36 127.766C148.262 127.766 139.752 126.825 131.737 125.011L131.838 124.572C142.399 126.964 153.83 127.834 164.016 127.02L164.053 127.467C161.549 127.665 158.977 127.766 156.36 127.766Z" fill="#F3E2BB"/>
<path d="M158.145 134.83C150.759 134.83 143.089 134.042 135.643 132.509L135.733 132.07C145.181 134.02 154.999 134.758 164.125 134.204L164.151 134.653C162.183 134.77 160.173 134.83 158.145 134.83Z" fill="#F3E2BB"/>
<path d="M160.079 141.885C153.361 141.885 146.35 141.233 139.572 139.966L139.655 139.523C147.764 141.034 156.207 141.668 164.072 141.353L164.091 141.803C162.767 141.859 161.429 141.885 160.079 141.885Z" fill="#F3E2BB"/>
<path d="M161.89 148.945C155.854 148.945 149.683 148.424 143.52 147.393L143.595 146.95C150.373 148.082 157.163 148.592 163.768 148.48L163.776 148.93C163.15 148.937 162.52 148.945 161.89 148.945Z" fill="#F3E2BB"/>
<path d="M163.06 156C157.95 155.962 152.72 155.554 147.52 154.785L147.587 154.343C152.769 155.111 157.976 155.516 163.063 155.554L163.06 156Z" fill="#F3E2BB"/>
<path d="M161.455 162.977C158.31 162.853 155.108 162.587 151.944 162.193L152 161.747C155.153 162.141 158.343 162.403 161.474 162.531L161.455 162.977Z" fill="#F3E2BB"/>
<path d="M157.762 166.939C155.536 166.939 152.9 164.296 149.702 158.853C145.218 151.22 117.899 99.1683 117.648 96.8027L117.629 96.619L117.805 96.5627C120.137 95.8317 124.767 94.9319 130.132 93.8859C133.964 93.1399 138.309 92.2963 142.59 91.3628C151.25 89.4771 158.452 87.3251 160.934 85.878L161.208 85.7168L161.268 86.028C162.306 91.3741 168.237 155.899 160.173 165.642C159.464 166.505 158.655 166.939 157.762 166.939ZM118.143 96.9301C119.335 100.803 144.731 149.499 150.092 158.624C153.159 163.843 155.738 166.49 157.762 166.49C158.523 166.49 159.198 166.122 159.828 165.361C167.682 155.876 162.051 93.5298 160.885 86.4254C158.137 87.8912 151.093 89.9794 142.691 91.809C138.402 92.7425 134.057 93.586 130.222 94.332C125.022 95.3405 120.508 96.2178 118.143 96.9301Z" fill="#9E7954"/>
</svg>
