<svg width="285" height="190" viewBox="0 0 285 190" fill="none" xmlns="http://www.w3.org/2000/svg">
<rect width="285" height="190" fill="#0E6359"/>
<path fill-rule="evenodd" clip-rule="evenodd" d="M174.839 89.4596C175.289 90.7727 175.785 92.0801 176.183 93.4106C176.615 94.8684 176.523 96.3493 176.171 97.8129C176.033 98.4029 175.883 98.9872 175.727 99.5772C175.185 101.579 175.219 103.603 175.537 105.617C175.865 107.699 175.456 109.654 174.712 111.569C174.458 112.217 174.175 112.848 173.95 113.513C173.771 114.045 173.552 114.612 172.958 114.861C172.571 115.115 172.271 114.849 171.971 114.681C171.394 114.363 170.835 114.016 170.246 113.721C169.104 113.154 169.104 113.148 168.417 114.207C167.385 115.919 166.225 117.562 165.579 119.483C165.337 119.951 165.216 120.472 164.985 120.941C164.223 122.52 163.664 124.186 162.781 125.701C161.016 128.715 158.783 131.295 155.806 133.175C155.448 133.401 155.073 133.598 154.664 133.725C152.523 134.778 150.233 135.379 147.897 135.738C145.923 136.039 143.927 136.213 141.925 136.16C139.618 136.103 137.333 135.883 135.095 135.293C133.727 134.928 132.262 134.894 131.027 134.084C130.231 133.771 129.539 133.274 128.887 132.736C125.576 129.959 123.101 126.581 121.635 122.485C121.531 122.196 121.416 121.924 121.266 121.658C121.122 121.346 121.081 120.987 120.868 120.698C119.772 118.447 118.635 116.214 117.424 114.022C116.968 113.119 116.939 113.102 116.079 113.513C115.37 113.848 114.672 114.207 113.997 114.6C113.668 114.791 113.339 115.052 112.906 114.867C112.376 114.652 112.162 114.167 111.978 113.692C111.556 112.622 111.164 111.54 110.76 110.464C110.056 108.584 110.149 106.658 110.42 104.72C110.668 102.927 110.553 101.156 110.091 99.4037C109.756 98.1484 109.399 96.8931 109.41 95.5683C109.416 94.7758 109.48 93.9891 109.728 93.2371C110.137 91.9702 110.587 90.7149 111.02 89.4596C111.51 89.4075 111.753 89.8067 112.076 90.0554C113.299 90.9983 113.714 90.9058 114.36 89.5463C114.556 89.1356 114.678 88.7075 114.816 88.2795C114.868 88.0596 114.966 87.8572 115.024 87.6374C115.381 85.7978 114.989 84.0276 114.47 82.2806C114.349 81.8815 113.939 81.6269 113.645 81.3261C113.414 81.0947 113.114 80.9038 113.085 80.5336C112.791 76.1487 114.678 72.5505 117.181 69.1953C118.231 67.7896 119.362 66.4533 120.781 65.3889C121.07 65.1749 121.393 65.0013 121.699 64.8105C121.953 64.5906 122.252 64.6369 122.558 64.6311C125.552 64.5675 128.529 64.9204 131.512 65.0823C134.397 65.2385 137.287 65.4988 140.172 65.7071C142.214 65.8517 144.273 65.8286 146.327 65.6493C148.312 65.4757 150.296 65.3716 152.287 65.2212C154.814 65.0303 157.346 64.9609 159.868 64.7121C161.16 64.5848 162.464 64.7005 163.762 64.6311C163.918 64.6253 164.05 64.7063 164.171 64.8105C164.979 65.2385 165.671 65.8112 166.317 66.4591C168.146 68.2871 169.617 70.387 170.898 72.6257C172.3 75.0785 172.906 77.728 172.785 80.5452C172.779 80.7419 172.692 80.9212 172.548 81.0195C171.008 82.0608 170.973 83.7326 170.783 85.3119C170.691 86.0581 170.691 86.8333 170.967 87.5622C171.042 87.8167 171.031 88.0944 171.175 88.3258C171.371 88.8927 171.573 89.4538 171.833 89.9976C172.191 90.738 172.416 90.8132 173.171 90.4604C173.471 90.3215 173.731 90.119 173.985 89.905C174.233 89.6736 174.458 89.4133 174.839 89.4596Z" fill="white"/>
<path fill-rule="evenodd" clip-rule="evenodd" d="M112.918 114.861C113.783 114.381 114.649 113.889 115.52 113.42C115.918 113.206 116.339 113.038 116.749 112.859C117.135 112.691 117.389 112.784 117.47 113.224C117.51 113.461 117.695 113.657 117.649 113.912C117.539 114.242 117.747 114.496 117.874 114.757C118.058 115.138 118.243 115.532 118.301 115.948C118.67 118.54 119.472 121.004 120.424 123.428C120.47 123.538 120.47 123.665 120.476 123.787C120.424 125.979 119.858 128.102 119.581 130.26C119.27 132.695 119.01 135.131 118.751 137.566C118.041 144.161 118.231 150.767 118.249 157.379C118.255 159.253 118.364 161.128 118.549 163.002C118.612 163.656 118.745 164.332 118.393 164.963C117.545 165.241 116.656 165.189 115.785 165.281C113.593 165.518 111.395 165.703 109.214 166.039C105.66 166.583 102.101 167.086 98.5701 167.774C96.8797 168.104 95.1836 168.399 93.5278 168.908C92.4548 169.238 91.8202 168.688 92.0452 167.595C92.2125 166.774 92.1548 165.97 92.2009 165.154C92.3625 162.215 92.2932 159.265 92.4317 156.332C92.5413 154.007 92.7605 151.681 93.0605 149.367C93.3144 147.418 93.4932 145.457 93.8048 143.513C94.3874 139.932 95.3971 136.484 96.7182 133.112C97.3586 131.475 98.0105 129.838 98.8355 128.281C99.747 126.558 100.855 124.978 102.228 123.578C104.449 121.328 106.872 119.321 109.387 117.423C110.558 116.556 111.741 115.717 112.918 114.861Z" fill="#1D9967"/>
<path fill-rule="evenodd" clip-rule="evenodd" d="M168.181 114.063C168.879 112.657 168.885 112.651 170.258 113.374C171.169 113.854 172.064 114.369 172.964 114.867C174.902 116.267 176.858 117.643 178.71 119.159C180.677 120.773 182.615 122.427 184.335 124.313C185.863 125.991 186.96 127.946 187.871 130.011C189.417 133.511 190.744 137.092 191.558 140.846C192.031 143.039 192.394 145.249 192.602 147.481C192.798 149.593 193.075 151.693 193.271 153.804C193.358 154.707 193.467 155.626 193.461 156.523C193.421 159.803 193.715 163.072 193.675 166.352C193.669 166.751 193.744 167.127 193.825 167.514C194.05 168.567 193.692 168.96 192.625 168.77C191.079 168.492 189.538 168.162 188.004 167.827C184.421 167.057 180.815 166.456 177.181 166.033C174.331 165.698 171.481 165.345 168.637 164.986C168.129 164.923 167.604 165.062 167.119 164.801C167.217 162.169 167.471 159.549 167.627 156.916C167.65 156.552 167.662 156.188 167.662 155.823C167.662 153.486 167.702 151.149 167.656 148.812C167.587 145.029 167.419 141.245 167.171 137.468C166.998 134.813 166.842 132.146 166.744 129.485C166.664 127.24 166.237 125.036 165.948 122.815C165.914 122.653 165.919 122.497 165.96 122.335C166.456 120.975 166.998 119.622 167.148 118.164C167.287 116.747 167.794 115.422 168.181 114.063Z" fill="#1D9967"/>
<path fill-rule="evenodd" clip-rule="evenodd" d="M163.277 39.9529C164.454 38.9522 165.631 37.9572 166.808 36.9564C166.993 36.8291 167.229 36.7539 167.402 36.8407C168.533 37.4192 169.791 37.7663 170.789 38.5993C170.673 40.2248 170.258 41.7983 169.958 43.3949C169.894 43.742 169.906 44.118 169.693 44.4362C169.433 44.9915 169.029 45.4138 168.556 45.813C167.771 46.4724 167.056 47.2187 166.375 47.9881C165.7 48.7517 165.51 49.6078 165.856 50.597C166.156 51.459 166.589 52.2573 166.946 53.0903C167.189 53.663 167.321 54.2299 167.148 54.8431C166.894 56.0116 166.548 57.157 166.185 58.2966C165.873 58.8577 165.302 58.9792 164.754 59.1586C163.323 59.6329 161.795 59.3899 160.37 59.7602C159.025 60.1073 157.681 60.1304 156.32 60.1246C155.835 60.1246 155.356 60.142 154.877 60.2577C153.925 60.4775 152.973 60.5469 152.004 60.3155C151.358 60.1593 150.695 60.1073 150.031 60.2924C148.572 60.6915 147.147 60.3734 145.727 60.0668C145.058 59.9221 144.418 59.9221 143.754 60.0841C142.502 60.3849 141.239 60.3791 139.97 60.1767C139.37 60.0783 138.747 60.0321 138.158 60.1478C136.479 60.4659 134.847 60.223 133.214 59.8585C132.556 59.7081 131.881 59.6965 131.229 59.818C130.099 60.0321 128.997 59.9684 127.929 59.5461C126.793 59.0949 125.645 59.066 124.456 59.3032C123.095 59.5751 121.745 59.2338 120.395 59.1528C120.187 59.1412 120.008 58.985 119.853 58.8404C119.524 57.9611 119.276 57.0529 119.085 56.1331C118.901 55.2364 119.293 54.4092 119.397 53.5415C119.57 52.0721 119.853 50.6144 119.858 49.1161C119.864 48.179 119.472 47.5253 118.785 46.9352C117.874 46.1543 116.881 45.4485 116.172 44.442C115.693 42.585 115.33 40.6992 115.087 38.796C115.024 38.553 115.128 38.3332 115.318 38.258C116.478 37.8068 117.406 36.9275 118.589 36.5283C119.662 37.4655 120.735 38.3968 121.808 39.3282C122.062 39.548 122.328 39.7389 122.593 39.9472C123.129 39.9472 123.476 40.3232 123.833 40.6356C125.553 42.1223 127.272 43.6032 129.003 45.0783C129.781 45.7435 129.776 45.7378 130.318 44.8758C133.081 40.4504 135.752 35.973 138.504 31.5418C138.747 31.1484 139.029 30.8071 139.416 30.5584C139.664 30.1882 139.837 29.7717 140.16 29.4535C140.5 29.2047 140.87 29.1874 141.274 29.2684C142.456 29.5056 143.65 29.6039 144.839 29.2915C145.145 29.2105 145.433 29.2684 145.693 29.4593C146.01 29.7832 146.189 30.1997 146.437 30.5642C146.829 30.8071 147.106 31.1484 147.349 31.5418C150.031 35.8978 152.702 40.2653 155.362 44.6386C155.425 44.7428 155.483 44.8469 155.552 44.951C156.037 45.6915 156.123 45.7146 156.787 45.1419C158.454 43.6957 160.145 42.2727 161.818 40.8322C162.262 40.4504 162.643 39.9819 163.277 39.9529Z" fill="#FEBC04"/>
<path fill-rule="evenodd" clip-rule="evenodd" d="M154.22 163.465C152.922 163.511 151.624 163.395 150.325 163.366C147.095 163.291 143.852 162.921 140.628 163.181C138.608 163.343 136.583 163.205 134.564 163.459C133.612 163.581 132.631 163.476 131.662 163.471C130.756 163.152 130.831 162.291 130.803 161.625C130.739 160.295 130.601 158.97 130.537 157.634C130.387 154.452 130.514 151.259 130.33 148.083C130.156 145.11 130.26 142.136 130.203 139.169C130.185 138.295 130.283 137.416 130.583 136.583C130.958 136.16 131.403 136.305 131.835 136.444C135.66 137.693 139.583 138.341 143.604 138.133C146.956 137.96 150.274 137.503 153.406 136.155C153.983 135.906 154.595 135.443 155.264 136.004C155.656 137.017 155.61 138.093 155.65 139.134C155.743 141.407 155.806 143.698 155.645 145.966C155.454 148.58 155.65 151.189 155.472 153.793C155.299 156.367 155.397 158.953 155.102 161.51C155.022 162.227 155.108 163.089 154.22 163.465Z" fill="#53B68E"/>
<path fill-rule="evenodd" clip-rule="evenodd" d="M130.762 136.525C130.485 139.701 130.479 142.888 130.618 146.059C130.739 148.876 130.647 151.693 130.803 154.504C130.883 155.927 130.878 157.351 130.958 158.768C131.033 160.093 131.195 161.417 131.304 162.742C131.328 163.037 131.529 163.228 131.662 163.465C129.487 163.749 127.312 164.044 125.131 164.315C123.73 164.489 122.322 164.657 120.914 164.767C120.378 164.807 119.847 164.986 119.299 164.911C119.039 164.709 118.93 164.42 118.947 164.107C118.993 163.043 118.733 161.996 118.739 160.931C118.757 155.407 118.693 149.882 118.768 144.364C118.808 141.217 119.218 138.081 119.541 134.952C119.806 132.389 120.083 129.832 120.383 127.275C120.435 126.818 120.493 126.367 120.649 125.939C120.845 125.407 121.203 125.332 121.63 125.713C121.906 125.956 122.074 126.286 122.253 126.604C123.545 128.878 125.039 131.006 126.781 132.956C127.653 133.928 128.708 134.697 129.799 135.42C130.151 135.652 130.531 135.854 130.774 136.219C130.831 136.323 130.826 136.427 130.762 136.525Z" fill="#1D9967"/>
<path fill-rule="evenodd" clip-rule="evenodd" d="M154.22 163.465C154.698 162.678 154.698 161.787 154.756 160.92C154.889 158.982 154.877 157.038 154.998 155.106C155.108 153.376 155.12 151.647 155.114 149.923C155.108 147.435 155.327 144.954 155.333 142.46C155.333 140.303 155.12 138.156 155.108 136.004C155.05 135.9 155.045 135.802 155.097 135.692C155.414 135.212 155.939 135.004 156.406 134.743C159.943 132.794 162.504 129.913 164.431 126.413C164.639 126.037 164.846 125.574 165.354 125.702C165.868 125.823 165.821 126.344 165.85 126.76C166.064 129.421 166.058 132.094 166.248 134.755C166.468 137.867 166.687 140.979 166.9 144.092C166.998 145.544 167.016 146.996 167.108 148.453C167.218 150.085 167.212 151.728 167.258 153.359C167.339 156.205 167.183 159.057 166.975 161.897C166.941 162.354 166.964 162.811 166.929 163.263C166.889 163.812 166.843 164.362 166.393 164.761C165.366 164.819 164.356 164.599 163.335 164.529C161.356 164.391 159.389 164.165 157.427 163.87C156.366 163.714 155.293 163.598 154.22 163.465Z" fill="#1D9967"/>
<path fill-rule="evenodd" clip-rule="evenodd" d="M139.422 30.5591C138.55 32.2251 137.483 33.7812 136.514 35.3894C134.437 38.814 132.337 42.2271 130.243 45.6459C129.879 46.236 129.851 46.2533 129.458 45.9236C127.208 43.9857 124.958 42.042 122.708 40.0983C122.662 40.0578 122.633 40.0057 122.593 39.9594C125.593 35.5282 129.902 33.0176 134.91 31.5425C136.393 31.1029 137.887 30.7153 139.422 30.5591Z" fill="#FF4D4D"/>
<path fill-rule="evenodd" clip-rule="evenodd" d="M163.277 39.9536C161.887 41.1627 160.491 42.3717 159.1 43.5807C158.322 44.2575 157.543 44.9228 156.77 45.5996C156.014 46.2591 156.008 46.2649 155.466 45.374C153.92 42.8403 152.374 40.3065 150.827 37.7785C149.454 35.534 148.07 33.2895 146.697 31.0392C146.604 30.8888 146.535 30.7211 146.454 30.5591C151.774 31.3921 156.7 33.116 160.716 36.905C161.679 37.8248 162.51 38.8603 163.277 39.9536Z" fill="#FF4D4D"/>
<path fill-rule="evenodd" clip-rule="evenodd" d="M166.404 164.761C166.623 163.598 166.566 162.412 166.71 161.238C166.837 160.191 166.779 159.115 166.762 158.056C166.733 156.569 167.114 155.089 166.935 153.608C166.71 151.762 166.871 149.905 166.75 148.066C166.594 145.74 166.548 143.409 166.369 141.083C166.219 139.128 166.191 137.156 165.873 135.212C165.868 135.183 165.868 135.148 165.868 135.119C165.971 133.505 165.625 131.915 165.689 130.306C165.746 128.964 165.458 127.651 165.487 126.315C165.493 126.141 165.51 125.904 165.273 125.875C165.071 125.852 164.973 126.06 164.904 126.228C164.333 127.616 163.41 128.773 162.521 129.971C160.975 132.048 159.043 133.656 156.816 134.934C156.268 135.247 155.777 135.68 155.125 135.79C154.41 135.316 154.26 134.309 154.762 133.424C156.706 132.429 158.195 130.914 159.695 129.358C161.789 127.183 163.069 124.585 164.194 121.861C164.344 121.502 164.448 121.114 164.714 120.813C165.221 121.103 165.106 121.646 165.193 122.092C165.319 122.699 165.435 123.313 165.458 123.914C165.729 123.527 165.504 122.821 166.202 122.659C166.329 123.926 166.687 125.146 166.843 126.407C166.941 127.217 167.062 128.039 167.073 128.837C167.102 130.474 167.252 132.1 167.339 133.731C167.414 135.171 167.344 136.635 167.633 138.064C167.644 138.122 167.656 138.185 167.65 138.243C167.546 139.701 167.8 141.141 167.864 142.593C168.06 147.077 168.083 151.56 167.991 156.043C167.956 157.726 167.893 159.421 167.714 161.105C167.61 162.059 167.5 163.025 167.483 163.991C167.477 164.315 167.546 164.686 167.108 164.813C166.877 164.79 166.641 164.772 166.404 164.761Z" fill="#197751"/>
<path fill-rule="evenodd" clip-rule="evenodd" d="M130.756 136.329C129.787 136.016 129.002 135.386 128.224 134.773C125.806 132.875 124.133 130.353 122.501 127.802C122.051 127.096 121.751 126.292 121.128 125.598C120.851 126.043 120.868 126.489 120.816 126.876C120.631 128.16 120.539 129.456 120.395 130.746C120.233 132.187 120.049 133.621 119.893 135.062C119.801 135.901 119.749 136.751 119.668 137.59C119.57 138.614 119.449 139.632 119.362 140.65C119.27 141.766 119.137 142.877 119.131 143.994C119.108 149.755 119.108 155.523 119.131 161.29C119.137 162.499 119.379 163.697 119.299 164.911C118.993 164.929 118.687 164.94 118.381 164.958C118.329 164.784 118.22 164.611 118.226 164.443C118.272 163.257 118.064 162.088 117.995 160.914C117.701 155.731 117.903 150.548 117.845 145.365C117.828 143.698 118.018 142.05 118.174 140.39C118.266 139.429 118.26 138.463 118.358 137.497C118.52 135.877 118.716 134.258 118.889 132.638C119.085 130.833 119.362 129.046 119.656 127.258C119.806 126.332 119.945 125.407 120.124 124.487C120.181 124.186 120.204 123.891 120.181 123.585C120.222 123.567 120.256 123.55 120.297 123.533C120.51 123.562 120.614 123.77 120.781 123.88C121.174 123.116 120.822 122.167 121.526 121.554C121.843 122.04 121.981 122.607 122.201 123.133C123.718 126.83 126.031 129.925 129.083 132.488C129.666 132.973 130.324 133.349 130.935 133.789C131.552 134.501 131.472 135.704 130.756 136.329Z" fill="#1A7751"/>
<path fill-rule="evenodd" clip-rule="evenodd" d="M165.319 61.2124C165.216 61.843 165.048 62.462 164.754 63.0347C163.491 64.1164 161.91 64.1627 160.393 64.2958C157.046 64.585 153.683 64.5619 150.331 64.7354C147.787 64.8685 145.243 64.9147 142.704 64.8395C139.202 64.7412 135.695 64.6024 132.193 64.371C128.772 64.1396 125.391 63.752 122.039 63.052C121.606 62.9595 121.226 62.8206 120.931 62.4851C120.672 61.9645 120.539 61.4033 120.424 60.8422C120.995 60.3216 121.664 60.6166 122.247 60.7092C125.685 61.2587 129.147 61.5306 132.62 61.762C136 61.9876 139.387 62.0802 142.756 62.3463C145.975 62.6066 149.166 62.2537 152.368 62.219C155.166 62.1901 157.987 62.1265 160.779 61.7504C161.921 61.6 163.052 61.3918 164.171 61.1372C164.569 61.0505 164.95 60.9695 165.319 61.2124Z" fill="#D7A10B"/>
<path fill-rule="evenodd" clip-rule="evenodd" d="M165.32 61.2123C163.848 61.6809 162.337 61.9586 160.802 62.1263C158.489 62.3751 156.158 62.3924 153.839 62.5313C151.9 62.647 149.968 62.5891 148.035 62.6875C147.193 62.728 146.356 62.8957 145.508 62.8495C143.368 62.7453 141.222 62.7453 139.087 62.5024C138.995 62.4908 138.902 62.485 138.816 62.4908C137.149 62.5949 135.493 62.3346 133.837 62.2594C132.735 62.2131 131.61 62.1726 130.503 61.9933C129.585 61.8429 128.639 61.8776 127.704 61.7793C125.933 61.5941 124.168 61.4148 122.408 61.1256C121.756 61.0214 121.099 60.9405 120.441 60.8421C120.32 60.5529 120.187 60.2636 120.205 59.9397C120.539 59.4133 121.064 59.4133 121.578 59.4885C122.876 59.6794 124.162 59.662 125.454 59.4306C126.326 59.2744 127.133 59.5348 127.935 59.8298C128.853 60.1711 129.77 60.3157 130.774 60.1711C131.939 60.0033 133.127 60.0265 134.281 60.3678C135.377 60.6917 136.474 60.7206 137.599 60.5355C138.683 60.3562 139.774 60.4892 140.841 60.7322C141.383 60.8537 141.931 60.9058 142.456 60.738C144.066 60.2231 145.67 60.3041 147.285 60.7033C148.058 60.8942 148.843 60.8826 149.622 60.7322C150.1 60.6397 150.591 60.6049 151.07 60.6628C152.668 60.8537 154.26 60.9 155.841 60.5182C156.1 60.4545 156.383 60.5066 156.654 60.5529C157.71 60.7264 158.76 60.6917 159.798 60.4256C160.681 60.2 161.575 60.0496 162.493 60.1017C163.208 60.1422 163.854 59.8876 164.518 59.6794C164.927 59.5521 165.452 59.2339 165.712 59.9455C165.643 60.3909 165.516 60.8132 165.32 61.2123Z" fill="#FDBC04"/>
<path fill-rule="evenodd" clip-rule="evenodd" d="M120.937 62.4795C122.085 62.572 123.181 62.9307 124.312 63.0927C126.072 63.3414 127.814 63.6538 129.591 63.7811C131.576 63.9199 133.56 64.0298 135.545 64.1687C136.843 64.2612 138.141 64.2034 139.433 64.3191C142.272 64.5678 145.11 64.5562 147.948 64.4521C149.968 64.3769 151.998 64.429 154.012 64.2612C155.552 64.134 157.093 64.2149 158.627 64.105C160.704 63.9546 162.758 63.6422 164.76 63.0348C164.552 63.6133 164.46 64.2381 164.177 64.7934C163.744 64.9554 163.3 64.9843 162.844 64.9959C158.939 65.1174 155.045 65.4298 151.15 65.6843C147.614 65.9157 144.089 66.3148 140.535 66.0892C137.754 65.9157 134.979 65.6785 132.199 65.5107C129.147 65.3256 126.101 65.0364 123.043 64.9901C122.587 64.9843 122.137 64.9554 121.71 64.7876C121.416 64.0356 121.07 63.2952 120.937 62.4795Z" fill="#FEBC04"/>
<path fill-rule="evenodd" clip-rule="evenodd" d="M165.695 59.946C165.383 59.6104 165.043 59.836 164.777 59.9691C163.848 60.4377 162.879 60.5418 161.864 60.484C161.218 60.4435 160.6 60.6112 159.989 60.7732C158.795 61.0914 157.606 61.1376 156.4 60.8831C155.806 60.7616 155.258 60.9872 154.704 61.0914C153.798 61.2591 152.904 61.2707 152.004 61.1029C151.312 60.9757 150.602 60.9352 149.927 61.074C148.802 61.2996 147.706 61.2128 146.604 60.993C146.102 60.8947 145.6 60.7963 145.099 60.6922C144.51 60.5765 143.939 60.7616 143.408 60.9236C142.266 61.2649 141.147 61.2707 140.01 60.9757C139.145 60.7501 138.279 60.8079 137.402 60.9467C136.347 61.1145 135.297 61.0856 134.264 60.7674C132.995 60.374 131.708 60.3683 130.41 60.617C129.672 60.7616 128.893 60.6748 128.276 60.3625C126.914 59.6683 125.524 59.703 124.128 59.9633C123.355 60.1079 122.616 59.9865 121.889 59.8881C121.301 59.8071 120.758 59.8534 120.193 59.9344C119.991 59.5989 119.905 59.2229 119.858 58.8411C120.701 58.8584 121.543 58.8237 122.385 58.9857C123.343 59.1708 124.324 58.9973 125.264 58.8064C126.141 58.627 126.954 58.7832 127.739 59.084C128.899 59.5295 130.041 59.6683 131.287 59.4253C132.551 59.1766 133.808 59.5526 135.049 59.8245C135.776 59.9865 136.502 59.998 137.212 59.8823C138.331 59.703 139.422 59.7435 140.541 59.8823C141.493 60.0038 142.479 60.0559 143.425 59.7493C144.418 59.4253 145.404 59.5352 146.379 59.784C147.539 60.0732 148.693 60.2583 149.864 59.917C150.683 59.6799 151.491 59.7782 152.275 59.9575C153.008 60.1195 153.706 60.1369 154.422 59.9344C155.097 59.7435 155.795 59.703 156.487 59.7435C157.825 59.8187 159.141 59.7146 160.427 59.327C160.843 59.1997 161.264 59.1881 161.685 59.1939C163.254 59.2229 164.731 58.8006 166.185 58.2915C166.052 58.8584 165.937 59.4195 165.695 59.946Z" fill="#D8A20B"/>
<path fill-rule="evenodd" clip-rule="evenodd" d="M141.043 27.8747C140.05 27.1573 139.375 26.2202 139.064 25.0285C138.649 23.4261 139.306 21.6213 140.645 20.6841C141.937 19.7817 143.87 19.7701 145.185 20.661C146.529 21.5634 147.233 23.3856 146.806 24.9822C146.512 26.0871 146.022 27.0821 144.96 27.6664C144.1 28.2969 143.079 28.2796 142.093 28.3432C141.683 28.3664 141.32 28.1986 141.043 27.8747Z" fill="#FEBC04"/>
<path fill-rule="evenodd" clip-rule="evenodd" d="M113.091 80.5225C113.518 80.7539 113.916 81.0085 114.274 81.3498C114.66 81.7142 114.926 82.1191 115.03 82.6514C115.289 83.9876 115.543 85.3182 115.474 86.6892C115.451 87.0825 115.422 87.4701 115.266 87.8403C115.076 87.8519 115.001 87.7304 114.966 87.5685C114.614 85.8677 113.489 84.6992 112.243 83.6174C112.803 84.1149 113.472 84.5603 113.772 85.243C114.141 86.076 113.109 86.533 113.051 87.2156C113.276 86.7875 113.357 86.0644 114.06 86.0875C114.834 86.1107 114.707 86.9263 114.926 87.4123C115.059 87.7073 115.024 88.0602 115.105 88.3783C114.972 89.1998 114.534 89.894 114.199 90.6344C114.032 91.0046 113.766 91.1088 113.391 91.0162C112.797 90.8658 112.243 90.6518 111.793 90.2121C111.534 89.9576 111.285 89.6973 111.032 89.437C110.103 87.7536 109.636 85.9776 109.826 84.0397C109.872 83.5538 109.953 83.0794 110.091 82.6166C110.553 81.0605 111.453 80.4358 113.091 80.5225Z" fill="#FEAA86"/>
<path fill-rule="evenodd" clip-rule="evenodd" d="M170.766 87.6784C170.269 86.7818 170.391 85.8157 170.466 84.8612C170.506 84.3869 170.679 83.9183 170.702 83.4381C170.766 81.9977 171.585 81.13 172.791 80.5226C174.417 80.4358 175.352 81.0548 175.785 82.6398C176.35 84.6992 176.171 86.7123 175.237 88.6445C175.104 88.9164 174.971 89.1883 174.839 89.4544C174.262 90.0675 173.696 90.6923 172.831 90.9295C172.15 91.1146 172.064 91.1088 171.758 90.513C171.417 89.8477 171.06 89.1767 170.944 88.4247C170.91 87.7073 171.187 87.0594 171.446 86.4231C171.694 85.8099 172.11 85.8099 172.508 86.3768C172.739 86.695 172.883 87.0652 173.027 87.3718C172.958 87.1867 172.837 86.9611 172.721 86.7413C171.971 85.3124 172.046 84.9827 173.379 83.9703C173.5 83.8778 173.616 83.7852 173.719 83.6753C172.479 84.6414 171.544 85.8215 171.117 87.3602C171.066 87.5454 171.014 87.7189 170.766 87.6784Z" fill="#FEAA86"/>
<path fill-rule="evenodd" clip-rule="evenodd" d="M168.654 34.9609C167.644 33.9081 167.783 31.7272 169.104 30.5298C170.264 29.4827 172.537 28.8174 174.187 30.4372C175.883 32.1032 175.525 34.8973 173.419 36.0427C173.05 36.2452 172.664 36.4245 172.225 36.4245C171.227 36.5575 170.218 36.8179 169.323 36.06C168.977 35.765 168.637 35.4816 168.654 34.9609Z" fill="#FEBC04"/>
<path fill-rule="evenodd" clip-rule="evenodd" d="M113.651 36.425C111.591 36.211 110.357 34.1632 110.605 32.3756C110.801 30.9468 111.764 30.0502 113.068 29.6105C114.995 28.9626 118.024 30.3972 117.868 33.3244C117.833 34.0243 117.47 34.5681 117.124 35.1234C116.558 36.0779 115.762 36.6101 114.62 36.5002C114.303 36.4771 113.968 36.5754 113.651 36.425Z" fill="#FEBC04"/>
<path fill-rule="evenodd" clip-rule="evenodd" d="M167.148 54.8434C167.119 53.9236 166.583 53.189 166.26 52.3849C166.023 51.7948 165.735 51.2279 165.51 50.6263C165.112 49.5734 165.314 48.6305 166.046 47.838C167.171 46.6116 168.348 45.4315 169.698 44.4365C169.646 45.31 169.444 46.1488 169.179 46.9761C168.896 47.4793 168.544 47.919 168.048 48.2314C167.143 48.7983 166.975 49.6197 167.252 50.5974C167.454 51.3147 167.818 52.0031 167.731 52.784C167.593 53.484 167.425 54.1782 167.148 54.8434Z" fill="#D8A10C"/>
<path fill-rule="evenodd" clip-rule="evenodd" d="M116.178 44.4424C116.72 44.5928 117.124 44.9919 117.522 45.339C118.18 45.9117 118.797 46.5307 119.483 47.0745C119.905 47.41 120.158 47.8728 120.187 48.3992C120.222 49.2091 120.268 50.0247 120.124 50.8404C119.945 51.8759 119.766 52.9171 119.691 53.97C119.633 54.7509 119.166 55.3815 119.091 56.1393C118.843 55.5435 118.676 54.9245 118.583 54.2881C118.56 52.9056 118.826 51.5404 118.774 50.152C118.739 49.1744 118.497 48.3124 117.735 47.653C117.251 47.2365 116.887 46.7216 116.558 46.1778C116.316 45.6225 116.189 45.044 116.178 44.4424Z" fill="#D8A00C"/>
<path fill-rule="evenodd" clip-rule="evenodd" d="M116.553 46.1777C117.424 46.6405 118.03 47.3983 118.664 48.1214C118.929 48.4222 118.987 48.8388 119.039 49.2263C119.235 50.794 119.137 52.3559 118.785 53.8947C118.756 54.0335 118.653 54.155 118.578 54.2881C117.891 52.3328 117.418 50.3139 116.939 48.3008C116.778 47.595 116.547 46.9066 116.553 46.1777Z" fill="#FE4E4D"/>
<path fill-rule="evenodd" clip-rule="evenodd" d="M141.043 27.8749C142.156 28.0948 143.241 27.9039 144.325 27.6783C144.527 27.6378 144.747 27.6667 144.954 27.6609C144.81 27.9039 144.925 28.1006 145.052 28.3088C145.277 28.6848 145.491 29.0666 145.704 29.4484C144.683 29.7377 143.65 29.9228 142.577 29.8476C141.758 29.7897 140.985 29.4947 140.166 29.4484C140.46 28.9278 140.754 28.4014 141.043 27.8749Z" fill="#D7A10C"/>
<path fill-rule="evenodd" clip-rule="evenodd" d="M168.654 34.9609C169.566 36.1353 170.8 36.5171 172.231 36.4245C171.164 36.6617 171.169 36.6617 170.973 37.8244C170.927 38.0847 170.967 38.374 170.783 38.5996C169.692 38.4087 168.741 37.8823 167.8 37.3385C167.483 37.1592 167.189 36.9393 166.802 36.9509C167.212 36.4766 167.673 36.0543 168.152 35.6551C168.383 35.47 168.671 35.3254 168.654 34.9609Z" fill="#D6A10C"/>
<path fill-rule="evenodd" clip-rule="evenodd" d="M113.651 36.4246C114.724 36.4767 115.67 36.1585 116.506 35.4817C116.691 35.3313 116.922 35.2387 117.129 35.123C117.574 35.6379 118.214 35.9445 118.595 36.523C117.897 37.3502 116.979 37.8419 116.004 38.2642C115.681 38.403 115.283 38.4204 115.093 38.7906C114.868 38.3163 114.885 37.7898 114.816 37.2924C114.741 36.7544 114.585 36.4478 113.991 36.5172C113.881 36.5403 113.76 36.4651 113.651 36.4246Z" fill="#D6A10C"/>
<path fill-rule="evenodd" clip-rule="evenodd" d="M167.719 52.784C167.402 52.032 167.062 51.2916 166.86 50.4932C166.606 49.4751 166.785 48.6479 167.719 48.0463C168.227 47.7223 168.689 47.3347 169.173 46.9761C168.85 48.9487 168.343 50.8808 167.719 52.784Z" fill="#FE4E4D"/>
<path fill-rule="evenodd" clip-rule="evenodd" d="M165.181 83.1772C165.175 87.2902 164.448 91.1255 163.491 94.9261C163.289 95.7302 163.271 95.7013 162.423 95.5393C160.168 95.1112 158.12 94.122 156.037 93.208C154.427 92.5023 152.8 91.8486 151.041 91.5883C149.8 91.4032 148.595 91.4379 147.36 91.756C144.972 92.3635 142.572 92.6758 140.091 92.1089C138.868 91.8255 137.651 91.409 136.347 91.4495C134.812 91.5015 133.341 91.8139 131.922 92.3635C130.399 92.9535 128.899 93.6188 127.404 94.2782C126.066 94.8683 124.67 95.2616 123.256 95.5914C122.674 95.7244 122.599 95.6666 122.42 95.0765C121.895 93.3584 121.664 91.5825 121.306 89.8297C120.856 87.6199 120.695 85.3754 120.649 83.1367C120.608 81.0715 120.839 79.0179 121.462 77.0221C121.768 76.0387 122.056 75.0437 122.281 74.0371C122.426 73.395 122.801 73.181 123.395 73.0479C124.941 72.7066 126.516 72.6546 128.085 72.5447C131.079 72.3364 134.051 71.9546 136.935 71.0984C138.972 70.4968 140.927 69.6812 142.635 68.3738C142.877 68.1887 143.022 68.2118 143.264 68.3796C145.831 70.2018 148.716 71.2141 151.791 71.7868C154.595 72.3075 157.421 72.5447 160.266 72.7182C161.108 72.7703 161.939 72.9727 162.775 73.1174C163.156 73.1868 163.404 73.3777 163.52 73.8C164.062 75.8189 164.743 77.8031 165.037 79.8856C165.193 81.0368 165.146 82.188 165.181 83.1772Z" fill="#FEAA86"/>
<path fill-rule="evenodd" clip-rule="evenodd" d="M130.756 136.329C131.004 135.49 131.033 134.64 130.941 133.778C135.216 135.212 139.583 135.941 144.112 135.744C147.804 135.582 151.341 134.761 154.768 133.419C154.768 134.229 154.883 135.016 155.131 135.785C155.125 135.854 155.12 135.924 155.114 135.999C154.595 135.935 154.173 136.23 153.747 136.427C151.6 137.399 149.327 137.839 147.014 138.186C145.087 138.475 143.166 138.579 141.227 138.515C137.887 138.4 134.622 137.821 131.466 136.687C131.235 136.606 131.016 136.502 130.768 136.531C130.762 136.462 130.762 136.398 130.756 136.329Z" fill="#2C8360"/>
<path fill-rule="evenodd" clip-rule="evenodd" d="M153.672 101.839C151.635 101.816 149.633 101.544 147.654 101.081C146.201 100.74 144.816 100.225 143.564 99.4038C143.195 99.1609 142.895 99.1262 142.497 99.3807C140.166 100.885 137.524 101.376 134.835 101.683C133.272 101.862 131.697 101.978 130.128 101.7C129.804 101.643 129.481 101.544 129.17 101.44C129.026 101.394 128.899 101.284 128.928 101.105C128.951 100.931 129.089 100.844 129.245 100.833C129.453 100.821 129.666 100.838 129.874 100.85C133.739 101.087 137.466 100.474 141.037 98.9642C141.527 98.7559 142.029 98.5535 142.41 98.1196C142.664 97.8361 143.299 97.8361 143.581 98.1022C144.383 98.8485 145.381 99.1956 146.379 99.5311C149.212 100.486 152.131 100.943 155.12 100.919C155.57 100.914 156.025 100.844 156.475 100.815C156.718 100.798 157.023 100.781 157.087 101.064C157.156 101.365 156.862 101.446 156.631 101.521C156.02 101.718 155.391 101.793 154.756 101.833C154.399 101.857 154.035 101.839 153.672 101.839Z" fill="#2D2D2D"/>
<path fill-rule="evenodd" clip-rule="evenodd" d="M120.187 123.579C119.87 122.803 119.553 122.028 119.241 121.247C118.756 120.044 118.428 118.794 118.249 117.51C118.11 116.521 117.88 115.567 117.528 114.635C117.447 114.421 117.13 114.063 117.649 113.912C118.347 114.861 118.82 115.943 119.385 116.966C120.043 118.147 120.643 119.361 121.116 120.634C121.081 121.693 120.949 122.722 120.222 123.567L120.187 123.579Z" fill="#197952"/>
<path fill-rule="evenodd" clip-rule="evenodd" d="M168.181 114.062C168.464 114.288 168.325 114.548 168.256 114.809C167.962 115.856 167.61 116.903 167.535 117.99C167.443 119.286 166.941 120.461 166.577 121.675C166.508 121.912 166.416 122.132 166.214 122.294C165.729 122.283 165.695 121.872 165.596 121.554C165.377 120.837 165.314 120.102 165.343 119.356C165.729 118.077 166.289 116.891 167.073 115.804C167.471 115.243 167.812 114.641 168.181 114.062Z" fill="#197952"/>
<path fill-rule="evenodd" clip-rule="evenodd" d="M165.343 119.35C165.752 119.836 165.683 120.467 165.839 121.033C165.954 121.456 165.983 121.907 166.219 122.295C166.219 122.41 166.214 122.532 166.214 122.647C165.971 123.012 166.012 123.457 165.891 123.856C165.793 124.186 165.689 124.481 165.314 124.765C165.014 124.105 165.135 123.405 164.979 122.769C164.818 122.133 164.806 121.456 164.725 120.802C164.858 120.287 165.106 119.819 165.343 119.35Z" fill="#2C2E2D"/>
<path fill-rule="evenodd" clip-rule="evenodd" d="M170.766 87.6778C170.817 87.5737 170.898 87.4696 170.915 87.3596C171.21 85.5837 172.346 84.4036 173.714 83.3913C174.042 83.1483 174.054 83.1599 174.619 83.1367C174.59 83.426 174.314 83.478 174.146 83.6284C173.765 83.9755 173.356 84.2937 173.004 84.6639C172.277 85.4159 172.289 85.4275 172.837 86.3357C173.125 86.8043 173.327 87.3076 173.442 87.8456C173.489 88.0538 173.506 88.2736 173.206 88.4067C172.727 87.6952 172.629 86.7696 171.989 86.1217C171.325 86.7754 171.342 87.7009 170.95 88.4298C170.696 88.2216 170.823 87.9323 170.766 87.6778Z" fill="#373331"/>
<path fill-rule="evenodd" clip-rule="evenodd" d="M115.093 88.3898C114.81 88.0485 114.805 87.603 114.655 87.2154C114.516 86.851 114.395 86.475 114.049 86.151C113.333 86.7295 113.322 87.7014 112.814 88.4303C112.474 88.1699 112.572 87.8633 112.641 87.5915C112.774 87.0593 113.028 86.5733 113.328 86.1163C113.72 85.5205 113.72 85.5089 113.27 84.9594C112.832 84.4156 112.289 83.9759 111.741 83.5421C111.603 83.4322 111.412 83.3743 111.378 83.1314C111.822 82.9752 112.128 83.2586 112.428 83.4842C113.818 84.5313 114.914 85.7866 115.151 87.603C115.162 87.6898 115.22 87.765 115.255 87.846C115.162 88.0138 115.093 88.1931 115.093 88.3898Z" fill="#363230"/>
<path fill-rule="evenodd" clip-rule="evenodd" d="M120.222 123.561C120.406 122.549 120.579 121.537 121.116 120.628C121.381 120.877 121.479 121.201 121.526 121.542C121.451 122.613 121.226 123.66 121.024 124.759C120.447 124.498 120.522 123.908 120.222 123.561Z" fill="#2C2F2E"/>
<path fill-rule="evenodd" clip-rule="evenodd" d="M138.233 47.2713C138.251 47.0399 138.389 46.6697 138.562 46.3168C139.491 44.3731 140.414 42.4294 141.36 40.4973C141.995 39.2073 142.629 39.1957 143.558 40.3238C144.585 41.5733 145.312 43.0021 146.108 44.3905C146.35 44.8128 146.581 45.2351 146.829 45.6516C147.095 46.0912 147.147 46.5193 146.974 47.0342C146.483 48.4804 145.716 49.7877 145.029 51.1414C144.689 51.8124 144.279 52.4545 143.904 53.114C143.737 53.409 143.518 53.6578 143.235 53.8429C142.716 54.19 142.433 54.1437 141.943 53.733C141.343 53.2355 140.979 52.5645 140.604 51.9108C139.866 50.6265 139.156 49.3192 138.429 48.0234C138.32 47.844 138.21 47.6647 138.233 47.2713Z" fill="#D8A10B"/>
<path fill-rule="evenodd" clip-rule="evenodd" d="M145.427 22.1707C143.443 21.6038 141.522 21.2451 139.935 23.1541C140.12 21.5575 141.556 20.9327 142.86 20.7766C143.904 20.6551 145.07 21.2683 145.427 22.1707Z" fill="#FFDF8A"/>
<path fill-rule="evenodd" clip-rule="evenodd" d="M173.881 31.6465C173.044 31.4035 172.346 31.1201 171.619 31.0159C170.875 30.9118 170.16 31.2531 169.421 31.4556C169.612 30.6804 170.518 30.1135 171.579 30.0672C172.525 30.0325 173.558 30.6862 173.881 31.6465Z" fill="#FFDF8A"/>
<path fill-rule="evenodd" clip-rule="evenodd" d="M115.693 31.2469C115.116 31.3221 114.643 31.4436 114.176 31.432C113.201 31.4031 112.387 31.6518 111.857 32.5311C111.793 32.6352 111.695 32.7278 111.562 32.6757C111.383 32.6063 111.389 32.4386 111.447 32.2939C112.197 30.3965 113.789 29.899 115.456 30.8824C115.526 30.9229 115.555 31.0271 115.693 31.2469Z" fill="#FFDF89"/>
<path fill-rule="evenodd" clip-rule="evenodd" d="M158.962 79.2149C158.702 79.1744 158.345 79.1281 157.987 79.0587C156.146 78.6885 154.306 78.3877 152.42 78.6827C152.068 78.7348 151.693 78.7232 151.335 78.6711C150.452 78.5381 149.95 77.7167 150.187 76.8547C150.366 76.201 150.787 75.7382 151.347 75.4027C152.033 74.992 152.772 74.7375 153.568 74.6912C155.495 74.5755 157.364 74.8763 159.164 75.5589C159.498 75.6862 159.827 75.8597 160.116 76.068C160.82 76.5828 161.073 77.358 160.82 78.0522C160.548 78.8158 159.954 79.2091 158.962 79.2149Z" fill="white"/>
<path fill-rule="evenodd" clip-rule="evenodd" d="M131.299 74.6855C132.406 74.5929 133.474 74.7896 134.443 75.3507C135.124 75.7441 135.649 76.2763 135.706 77.1267C135.764 78.0118 135.291 78.596 134.42 78.677C134.062 78.7117 133.687 78.7291 133.329 78.6712C131.587 78.3878 129.891 78.6828 128.189 78.9894C127.803 79.0588 127.416 79.1687 127.029 79.1976C126.378 79.2439 125.754 79.1282 125.316 78.5613C124.653 77.6994 124.878 76.6523 125.87 75.9755C126.51 75.5416 127.243 75.3276 127.976 75.1425C129.06 74.8648 130.156 74.6334 131.299 74.6855Z" fill="white"/>
<path fill-rule="evenodd" clip-rule="evenodd" d="M157.421 91.1143C157.121 91.1143 156.821 91.1259 156.516 91.1143C155.639 91.0738 155.016 90.5821 154.97 89.8879C154.906 88.9913 155.604 88.0831 156.464 88.0252C157.15 87.9789 157.854 87.979 158.541 88.031C159.51 88.1062 160.018 88.6442 160.035 89.5119C160.052 90.316 159.383 91.0218 158.5 91.1085C158.143 91.1432 157.779 91.1143 157.416 91.1143C157.421 91.1085 157.421 91.1085 157.421 91.1143Z" fill="#F46A6A"/>
<path fill-rule="evenodd" clip-rule="evenodd" d="M127.71 90.5588C127.416 90.5588 127.145 90.5762 126.874 90.5588C126.106 90.4952 125.553 90.0209 125.478 89.373C125.385 88.5399 125.743 87.973 126.539 87.7011C127.387 87.4119 128.27 87.4003 129.147 87.4929C129.891 87.5681 130.526 88.2623 130.56 88.9449C130.601 89.6333 130.128 90.1655 129.308 90.3911C128.778 90.5299 128.241 90.5993 127.71 90.5588Z" fill="#F46A6A"/>
<path fill-rule="evenodd" clip-rule="evenodd" d="M129.603 83.5995C129.614 82.5409 130.393 81.7368 131.414 81.7368C132.481 81.7368 133.329 82.6392 133.295 83.7557C133.26 84.8028 132.453 85.6416 131.472 85.6358C130.428 85.63 129.591 84.7218 129.603 83.5995Z" fill="#2D2D2C"/>
<path fill-rule="evenodd" clip-rule="evenodd" d="M156.423 83.5822C156.441 84.6987 155.604 85.6242 154.566 85.6358C153.579 85.6474 152.766 84.8144 152.731 83.7673C152.691 82.6393 153.516 81.7426 154.589 81.7368C155.616 81.7311 156.406 82.5294 156.423 83.5822Z" fill="#2D2D2C"/>
<path fill-rule="evenodd" clip-rule="evenodd" d="M145.802 89.7665C145.756 90.0615 145.554 90.0673 145.341 89.9689C144.873 89.7549 144.412 89.5409 143.962 89.2921C143.327 88.9392 142.716 88.9219 142.075 89.2863C141.631 89.5409 141.164 89.7491 140.697 89.9689C140.558 90.0326 140.402 90.0731 140.281 89.9342C140.16 89.7954 140.224 89.645 140.304 89.5177C141.424 87.7823 143.443 87.5046 144.758 88.5285C145.306 88.945 145.779 89.5004 145.802 89.7665Z" fill="#302F2E"/>
<path fill-rule="evenodd" clip-rule="evenodd" d="M139.825 47.74C139.595 47.3698 139.831 47.0169 139.929 46.6987C140.425 45.131 141.187 43.6733 141.868 42.1866C142.156 41.556 142.497 41.5271 142.987 41.9957C143.224 42.2271 143.46 42.4758 143.627 42.7593C144.227 43.7774 144.804 44.8129 145.375 45.8484C145.566 46.1954 145.722 46.5599 145.629 46.9764C145.306 47.3871 145.237 47.9193 144.983 48.3705C143.91 50.239 142.024 50.7134 140.662 48.7755C140.408 48.4226 140.252 47.9656 139.825 47.74Z" fill="#FF4D4D"/>
<path fill-rule="evenodd" clip-rule="evenodd" d="M139.826 47.7397C140.027 47.5084 140.183 47.6067 140.333 47.8034C140.622 48.191 140.916 48.5728 141.21 48.9546C141.972 49.9322 143.051 50.0074 143.956 49.1455C144.447 48.6827 144.845 48.1505 145.087 47.5199C145.191 47.248 145.301 47.0166 145.624 46.9819C145.606 47.9249 145.156 48.7347 144.799 49.5562C144.395 50.4702 143.922 51.3553 143.466 52.2461C143.374 52.4312 143.229 52.599 143.079 52.7436C142.791 53.0329 142.485 53.0039 142.208 52.7205C142.081 52.5932 141.96 52.4486 141.874 52.2924C141.141 50.8925 140.489 49.4578 139.86 48.0116C139.831 47.9306 139.837 47.8323 139.826 47.7397Z" fill="#D44140"/>
<path fill-rule="evenodd" clip-rule="evenodd" d="M144.487 46.253C143.674 45.2348 143.316 43.9622 142.52 42.8341C141.741 44.0432 141.556 45.4373 140.61 46.4728C141.089 45.2464 141.533 44.0027 142.052 42.7936C142.249 42.3366 142.675 42.3135 142.889 42.7242C143.489 43.8696 144.233 44.9456 144.487 46.253Z" fill="#FF9F9F"/>
</svg>
