<svg width="285" height="190" viewBox="0 0 285 190" fill="none" xmlns="http://www.w3.org/2000/svg">
<g clip-path="url(#clip0)">
<rect width="285" height="190" fill="#FFF0F0"/>
<path d="M130.552 132.603C122.823 144.717 105.379 140.179 105.379 140.179C105.379 140.179 105.338 140.19 105.161 140.262C104.359 140.528 100.472 141.589 82.9809 144.903C81.3765 145.196 79.8942 145.455 78.4705 145.611C65.8907 147.142 59.6947 143.918 56.7479 140.096C55.6192 138.637 54.9635 137.068 54.6195 135.675C53.2775 130.224 58.7931 123.609 63.345 122.342C63.8327 122.206 64.6196 121.965 65.6243 121.642C74.2199 118.855 99.8583 109.726 106.271 106.256C112.215 103.068 117.723 94.2222 125.082 80.7006C125.628 79.6728 126.215 78.6337 126.805 77.528L126.819 77.502C127.853 75.5504 128.97 73.5095 130.106 71.376C130.77 70.1404 131.436 68.8382 132.117 67.51C141.595 48.7786 151.74 22.3735 153.82 15.2918L183.805 20.9147L190.553 22.1893C190.553 22.1893 183.926 35.5074 173.014 53.8059C163.4 69.9256 141.258 104.597 136.142 112.567C135.459 113.655 135.07 114.223 135.07 114.223C135.07 114.223 138.281 120.489 130.552 132.603Z" fill="url(#paint0_linear)"/>
<path d="M78.4707 145.61C61.0248 147.751 55.8745 140.733 54.6456 135.689C53.3036 130.238 58.8193 123.623 63.3712 122.356C63.8589 122.22 64.6458 121.98 65.6505 121.656C65.4121 127.722 66.9904 138.033 78.4707 145.61Z" fill="#F5C3AE"/>
<path d="M106.286 106.229C106.756 106.186 107.792 113.999 107.792 113.999L103.428 111.535L105.123 117.938L96.0825 112.835L102.311 110.904L99.1068 109.541L106.286 106.229Z" fill="#187035"/>
<path d="M146.748 86.0115C146.748 86.0115 139.417 88.6213 139.78 88.5861C140.127 88.5769 143.614 90.9564 143.614 90.9564C143.614 90.9564 135.388 94.3627 135.736 94.3535C136.084 94.3443 145.402 97.3778 145.402 97.3778L144.94 91.9448L147.391 93.671L146.748 86.0115Z" fill="#408818"/>
<path d="M147.75 65.8517L141.905 68.3761L145.109 69.7395L138.082 72.4181L147.747 75.99L146.558 70.694L149.258 71.9786L147.75 65.8517Z" fill="#187035"/>
<path d="M163.335 56.8714L156.705 60.4249L159.491 61.8607L153.045 63.874L161.913 68.6748L161.123 62.6107L163.167 63.662L163.335 56.8714Z" fill="#177A21"/>
<path d="M155.487 36.3067L149.354 41.6484L152.168 42.5513L146.241 46.9817L154.65 50.2901L153.558 43.0621L156.152 43.807L155.487 36.3067Z" fill="#187035"/>
<path d="M178.665 35.723L172.246 39.3271L176.084 40.295C176.084 40.295 167.57 43.059 167.918 43.0498C168.265 43.0406 178.503 45.8399 178.503 45.8399L177.281 40.6625L179.398 41.3433L178.665 35.723Z" fill="#187035"/>
<path d="M90.835 119.157L82.9408 120.216L86.9324 122.914L78.0754 124.526L89.4195 130.827L88.3952 123.843L92.6215 126.126L90.835 119.157Z" fill="#115E32"/>
<path d="M111.754 123.121C111.45 123.053 101.406 127.009 101.406 127.009L107.633 129.085L97.858 131.96L110.434 137.414L109.576 129.771L114.062 132.201L111.754 123.121Z" fill="#187035"/>
<path d="M130.552 132.603C122.823 144.716 105.379 140.179 105.379 140.179C105.379 140.179 105.338 140.19 105.161 140.261C112.187 116.651 129.439 113.579 136.101 112.578C135.419 113.666 135.03 114.234 135.03 114.234C135.03 114.234 138.281 120.489 130.552 132.603Z" fill="#F5C3AE"/>
<path d="M83.4044 127.465L81.7326 130.427L82.9515 131.423L85.0409 128.389L83.4044 127.465Z" fill="#683B27"/>
<path d="M103.977 134.591L102.159 137.812L104.019 138.28L105.872 135.421L103.977 134.591Z" fill="#683B27"/>
<path d="M99.7451 114.903L98.0405 117.983L99.2179 119.538L101.434 115.856L99.7451 114.903Z" fill="#683B27"/>
<path d="M127.696 95.9126L121.221 98.7659L124.479 100.399L115.803 103.449L127.078 107.93L126.098 100.868L128.686 102.534L127.696 95.9126Z" fill="#187035"/>
<path d="M121.042 105.516L119.038 108.701L121.025 109.309L122.863 106.235L121.042 105.516Z" fill="#683B27"/>
<path d="M131.677 79.4558L127.446 77.7869L126.805 77.5276L126.819 77.5016C127.853 75.5499 128.971 73.5091 130.106 71.3756C130.77 70.14 131.436 68.8377 132.118 67.5095L132.295 67.4383L133.31 74.0747L130.737 72.3824L131.677 79.4558Z" fill="#187035"/>
<path d="M127.435 77.7465L125.623 80.8344L125.097 80.6743C125.643 79.6465 126.229 78.6075 126.819 77.5018L126.834 77.4758L127.435 77.7465Z" fill="#683B27"/>
<path d="M140.446 95.7791L138.714 99.1516L140.34 99.4872L142.143 96.292L140.446 95.7791Z" fill="#683B27"/>
<path d="M142.371 73.983L140.741 77.1736L142.346 77.6685L144.299 74.6945L142.371 73.983Z" fill="#683B27"/>
<path d="M157.033 65.8515L155.41 68.9088L156.771 70.2597L158.65 66.6275L157.033 65.8515Z" fill="#683B27"/>
<path d="M149.463 48.2524L147.682 51.5289L149.357 51.9604L151.072 48.9211L149.463 48.2524Z" fill="#683B27"/>
<path d="M173.301 44.3762L171.417 47.8346L173.265 48.021L175.002 44.8224L173.301 44.3762Z" fill="#683B27"/>
<path d="M184.861 33.123C169.649 32.2774 149.126 28.3995 149.126 28.3995L153.82 15.2914L155.62 15.6224L158.134 16.0829L161.801 16.7483L164.66 17.2662L168.645 17.9743L171.53 18.5069L176.004 19.3197L178.797 19.8342L183.152 20.6144L185.919 21.1143L190.989 22.0239L184.861 33.123Z" fill="#F5C3AE"/>
<g opacity="0.4">
<path opacity="0.4" d="M154.89 27.474L152.209 27.1254C152.209 27.1254 154.732 18.65 155.619 15.6224L158.134 16.0829L154.89 27.474Z" fill="#DB8054"/>
<path opacity="0.4" d="M160.842 28.6412L158.397 28.1175L161.801 16.7478L164.66 17.2656L160.842 28.6412Z" fill="#DB8054"/>
<path opacity="0.4" d="M167.697 29.9084L165.264 29.4254L168.645 17.9743L171.53 18.5069L167.697 29.9084Z" fill="#DB8054"/>
<path opacity="0.4" d="M175.096 31.002L172.662 30.5189L176.004 19.3197L178.797 19.8343L175.096 31.002Z" fill="#DB8054"/>
<path opacity="0.4" d="M182.309 32.0592L179.85 31.5615L183.152 20.6141L185.919 21.114L182.309 32.0592Z" fill="#DB8054"/>
</g>
<path opacity="0.4" d="M130.552 132.602C122.823 144.716 105.379 140.178 105.379 140.178C105.379 140.178 105.339 140.19 105.161 140.261C104.36 140.528 100.473 141.588 82.9812 144.902C81.3769 145.195 79.8946 145.455 78.4709 145.61C65.8911 147.141 59.6951 143.917 56.7483 140.096C76.4647 148.314 106.331 137.461 106.331 137.461C106.331 137.461 116.351 139.007 125.454 131.197C134.582 123.401 132.78 113.546 132.78 113.546C132.78 113.546 141.858 97.4663 155.044 74.5937C166.136 55.3693 178.834 31.8443 183.765 20.9254L190.513 22.2C190.513 22.2 183.885 35.518 172.973 53.8165C163.359 69.9363 141.218 104.607 136.101 112.578C135.419 113.666 135.03 114.234 135.03 114.234C135.03 114.234 138.281 120.489 130.552 132.602Z" fill="#DB8054"/>
<path d="M164.955 160.861C157.226 172.975 139.782 168.438 139.782 168.438C139.782 168.438 139.742 168.449 139.564 168.52C138.763 168.787 134.902 169.862 117.384 173.161C115.78 173.454 114.272 173.699 112.874 173.869C100.294 175.4 94.098 172.176 91.1513 168.355C90.0225 166.895 89.3668 165.326 89.0228 163.933C87.6808 158.483 93.1965 151.868 97.7484 150.601C98.2361 150.465 99.023 150.224 100.028 149.9C108.623 147.114 134.262 137.985 140.7 134.529C146.619 131.327 152.152 122.495 159.497 109C160.043 107.972 160.603 106.918 161.219 105.827L161.234 105.801C162.267 103.849 163.385 101.809 164.521 99.6751C165.184 98.4395 165.851 97.1373 166.532 95.8091C176.025 77.0518 186.155 50.6726 188.234 43.5909L218.22 49.2138L224.968 50.4885C224.968 50.4885 218.34 63.8064 207.402 82.0903C197.788 98.21 175.647 132.881 170.53 140.852C169.848 141.94 169.459 142.508 169.459 142.508C169.459 142.508 172.673 148.707 164.955 160.861Z" fill="url(#paint1_linear)"/>
<path d="M112.874 173.87C95.4278 176.01 90.2516 168.978 89.0227 163.933C87.6807 158.483 93.1963 151.868 97.7482 150.601C98.2359 150.465 99.0229 150.224 100.028 149.901C99.7892 155.966 101.393 166.292 112.874 173.87Z" fill="#F5C3AE"/>
<path d="M140.689 134.488C141.159 134.445 142.195 142.258 142.195 142.258L137.857 139.809L139.551 146.213L130.511 141.109L136.74 139.179L133.536 137.815L140.689 134.488Z" fill="#187035"/>
<path d="M181.125 114.256C181.125 114.256 173.794 116.866 174.157 116.831C174.504 116.821 177.991 119.201 177.991 119.201C177.991 119.201 169.765 122.607 170.113 122.598C170.461 122.589 179.779 125.622 179.779 125.622L179.317 120.189L181.768 121.915L181.125 114.256Z" fill="#408818"/>
<path d="M182.141 94.07L176.308 96.635L179.512 97.9984L172.459 100.662L182.15 104.249L180.934 98.9382L183.635 100.223L182.141 94.07Z" fill="#187035"/>
<path d="M197.738 85.1307L191.082 88.6695L193.894 90.12L187.463 92.1073L196.29 96.9194L195.526 90.87L197.585 91.8953L197.738 85.1307Z" fill="#177A21"/>
<path d="M189.864 64.5513L183.732 69.893L186.585 70.7846L180.644 75.241L189.053 78.5494L187.935 71.3067L190.543 72.0257L189.864 64.5513Z" fill="#187035"/>
<path d="M213.057 63.9417L206.638 67.5459L210.476 68.5137C210.476 68.5137 201.962 71.2778 202.31 71.2686C202.657 71.2594 212.869 74.044 212.869 74.044L211.644 68.9332L213.76 69.6141L213.057 63.9417Z" fill="#187035"/>
<path d="M125.212 147.401L117.344 148.475L121.335 151.174L112.478 152.785L123.822 159.086L122.798 152.102L127.024 154.385L125.212 147.401Z" fill="#115E32"/>
<path d="M146.157 151.381C145.853 151.312 135.809 155.268 135.809 155.268L142.036 157.344L132.235 160.204L144.837 165.674L143.953 158.015L148.439 160.445L146.157 151.381Z" fill="#187035"/>
<path d="M164.955 160.862C157.226 172.976 139.782 168.438 139.782 168.438C139.782 168.438 139.741 168.449 139.564 168.521C146.589 144.911 163.842 141.838 170.504 140.838C169.822 141.925 169.432 142.493 169.432 142.493C169.432 142.493 172.673 148.708 164.955 160.862Z" fill="#F5C3AE"/>
<path d="M117.807 155.724L116.135 158.686L117.343 159.641L119.418 156.634L117.807 155.724Z" fill="#683B27"/>
<path d="M138.395 162.824L136.536 166.057L138.421 166.539L140.249 163.666L138.395 162.824Z" fill="#683B27"/>
<path d="M134.148 143.162L132.418 146.227L133.621 147.797L135.837 144.115L134.148 143.162Z" fill="#683B27"/>
<path d="M162.073 124.157L155.598 127.01L158.881 128.658L150.206 131.708L161.481 136.189L160.501 129.127L163.089 130.793L162.073 124.157Z" fill="#187035"/>
<path d="M155.46 133.749L153.415 136.945L155.428 137.568L157.24 134.48L155.46 133.749Z" fill="#683B27"/>
<path d="M166.054 107.7L161.823 106.031L161.182 105.772L161.196 105.746C162.23 103.794 163.348 101.753 164.483 99.6199C165.147 98.3844 165.813 97.0821 166.495 95.7539L166.672 95.6827L167.687 102.319L165.099 100.653L166.054 107.7Z" fill="#187035"/>
<path d="M161.838 106.005L160.026 109.093L159.5 108.933C160.046 107.906 160.606 106.852 161.222 105.761L161.237 105.735L161.838 106.005Z" fill="#683B27"/>
<path d="M174.849 124.039L173.091 127.396L174.743 127.747L176.546 124.551L174.849 124.039Z" fill="#683B27"/>
<path d="M176.774 102.243L175.118 105.418L176.764 105.902L178.676 102.939L176.774 102.243Z" fill="#683B27"/>
<path d="M191.45 94.0848L189.787 97.1534L191.174 98.5189L193.027 94.8721L191.45 94.0848Z" fill="#683B27"/>
<path d="M183.866 76.5113L182.085 79.7878L183.76 80.2194L185.49 77.154L183.866 76.5113Z" fill="#683B27"/>
<path d="M207.693 72.595L205.82 76.094L207.682 76.2544L209.393 73.0412L207.693 72.595Z" fill="#683B27"/>
<path d="M219.264 61.3823C204.052 60.5367 183.53 56.6589 183.53 56.6589L188.223 43.5508L190.023 43.8818L192.538 44.3423L196.204 45.0076L199.09 45.5402L203.075 46.2483L205.96 46.7809L210.434 47.5937L213.226 48.1083L217.582 48.8884L220.337 49.3477L225.407 50.2573L219.264 61.3823Z" fill="#F5C3AE"/>
<g opacity="0.4">
<path opacity="0.4" d="M189.267 55.7193L186.586 55.3707C186.586 55.3707 189.11 46.8954 189.971 43.8531L192.485 44.3136L189.267 55.7193Z" fill="#DB8054"/>
<path opacity="0.4" d="M195.26 56.8748L192.8 56.377L196.178 44.9927L199.063 45.5252L195.26 56.8748Z" fill="#DB8054"/>
<path opacity="0.4" d="M202.1 58.168L199.641 57.6702L203.048 46.2339L205.933 46.7664L202.1 58.168Z" fill="#DB8054"/>
<path opacity="0.4" d="M209.499 59.2616L207.039 58.7639L210.381 47.5647L213.189 48.0533L209.499 59.2616Z" fill="#DB8054"/>
<path opacity="0.4" d="M216.712 60.3189L214.253 59.8211L217.53 48.8591L220.337 49.3477L216.712 60.3189Z" fill="#DB8054"/>
</g>
<path opacity="0.4" d="M164.955 160.861C157.226 172.975 139.782 168.437 139.782 168.437C139.782 168.437 139.742 168.449 139.564 168.52C138.763 168.787 134.902 169.862 117.384 173.161C115.78 173.454 114.272 173.699 112.874 173.869C100.294 175.4 94.098 172.176 91.1513 168.355C110.853 176.599 140.734 165.72 140.734 165.72C140.734 165.72 150.754 167.266 159.882 159.471C168.985 151.66 167.209 141.82 167.209 141.82C167.209 141.82 176.287 125.74 189.473 102.867C200.565 83.643 213.263 60.118 218.194 49.1991L224.942 50.4737C224.942 50.4737 218.314 63.7917 207.376 82.0755C197.762 98.1953 175.621 132.866 170.504 140.837C169.822 141.925 169.433 142.493 169.433 142.493C169.433 142.493 172.673 148.707 164.955 160.861Z" fill="#DB8054"/>
</g>
<defs>
<linearGradient id="paint0_linear" x1="171.26" y1="18.6324" x2="70.2943" y2="163.588" gradientUnits="userSpaceOnUse">
<stop stop-color="#DB8054"/>
<stop offset="1" stop-color="#D2724D"/>
</linearGradient>
<linearGradient id="paint1_linear" x1="205.657" y1="46.8789" x2="104.69" y2="191.835" gradientUnits="userSpaceOnUse">
<stop stop-color="#DB8054"/>
<stop offset="1" stop-color="#D2724D"/>
</linearGradient>
<clipPath id="clip0">
<rect width="285" height="190" fill="white"/>
</clipPath>
</defs>
</svg>
