<svg width="285" height="190" viewBox="0 0 285 190" fill="none" xmlns="http://www.w3.org/2000/svg">
<rect width="285" height="190" fill="#FFC7DD"/>
<path fill-rule="evenodd" clip-rule="evenodd" d="M128.786 127.552C128.906 130.71 124.783 145.82 123.64 146.449C116.914 146.362 119.664 146.911 123.094 147.375C123.667 147.452 117.25 148.278 118.5 149.297C118.951 149.666 123.533 147.743 123.747 147.61C124.047 147.423 121.073 150.454 121.79 150.752C123.112 149.986 125.421 147.24 125.535 147C125.972 146.067 135.669 128.087 134.864 127.728C134.834 127.714 133.682 129.157 133.042 128.956C132.763 128.869 133.161 126.884 132.822 126.985C132.408 127.108 131.914 128.908 131.485 128.883C131.089 128.86 130.577 126.996 130.248 127.051C129.692 127.145 130.229 128.72 129.79 128.705C129.038 128.682 128.771 127.179 128.786 127.552Z" fill="#814C33"/>
<path fill-rule="evenodd" clip-rule="evenodd" d="M140.575 35.795C147.617 44.0475 158.194 67.7865 161.662 77.8004C164.68 86.5168 165.137 87.3345 167.058 96.2428C169.25 106.404 173.523 127.82 180.387 147.34C186.61 165.039 195.598 181.107 195.335 187.226C194.77 200.457 177.902 162.624 167.577 152.107C142.991 127.059 129.713 148.735 108.898 124.576C95.9248 109.518 99.4903 86.2396 102.423 68.3553C102.64 67.0382 98.2319 56.6546 99.9026 48.1586C100.85 43.3401 111.538 35.0147 123.64 30.3277C133.912 26.3481 151.124 26.1401 157.393 28.9342C157.59 29.0213 148.405 30.397 148.554 30.4041C150.326 30.4948 153.301 30.4983 153.141 30.6068C152.828 30.8183 147.551 31.1311 147.466 31.1702C146.714 31.5275 152.645 31.3462 151.894 31.6892C150.58 32.2882 147.994 32.9725 145.619 33.6355C144.933 33.8274 148.525 34.0176 147.91 34.2025C147.749 34.2522 145.056 34.8459 142.934 35.1907C141.453 35.4289 140.159 35.3098 140.575 35.795Z" fill="#E3781F"/>
<path fill-rule="evenodd" clip-rule="evenodd" d="M140.715 35.7381C147.256 43.404 156.845 64.4236 160.957 75.4026C160.114 75.1254 157.213 70.9929 155.713 71.1849C154.505 71.3395 154.778 75.9696 153.372 74.8641C151.824 73.6466 149.839 66.9315 148.666 66.4943C147.15 65.9273 148.598 71.471 147.135 70.561C145.445 69.5088 144.286 65.0528 142.758 64.4769C141.178 63.8815 140.724 69.7078 139.329 68.8529C135.641 66.5956 134.582 60.037 131.32 59.3651C130.094 59.1127 129.194 68.7889 128.069 68.5134C126.146 68.0424 124.802 62.6266 123.247 62.5556C120.29 62.4187 120.622 70.6232 118.421 70.7796C116.982 70.8827 116.04 63.3465 114.861 63.766C113.935 64.0948 112.43 70.4046 111.278 74.1851C106.623 66.5298 109.755 64.9426 101.444 75.4044C101.804 72.9676 102.188 70.5894 102.565 68.3001C102.782 66.9831 98.3741 56.5995 100.045 48.1035C100.992 43.2849 111.68 34.9596 123.782 30.2725C134.054 26.2929 151.266 26.085 157.535 28.879C157.732 28.9661 148.547 30.3419 148.696 30.349C150.468 30.4414 153.443 30.4432 153.283 30.5516C152.971 30.7631 147.692 31.0759 147.608 31.115C146.856 31.4723 152.788 31.291 152.036 31.634C150.722 32.233 148.136 32.9173 145.762 33.5803C145.075 33.7722 148.668 33.9606 148.053 34.1473C147.891 34.197 145.198 34.7907 143.076 35.1355C141.595 35.3719 140.301 35.251 140.715 35.7381Z" fill="#FCAF20"/>
<path fill-rule="evenodd" clip-rule="evenodd" d="M103.372 42.8513C103.836 42.0888 106.586 45.4428 110.48 45.6259C110.519 45.6046 117.067 43.6174 123.912 43.1375C128.09 42.8442 132.244 44.0049 135.483 43.9213C138.174 43.852 141.147 43.6316 141.531 43.8627C141.805 44.028 140.271 44.4261 138.591 45.274C138.561 45.5157 144.13 44.4279 144.5 44.6039C144.661 44.6803 141.7 45.633 140.401 45.9831C137.347 46.8096 143.746 46.0542 141.837 46.7154C140.694 47.1118 135.298 50.9403 129.034 52.4778C123.315 53.8819 116.571 56.1552 110.64 53.8464C107.053 52.4493 102.366 48.9603 102.366 43.7809C102.978 43.2602 103.361 42.8691 103.372 42.8513Z" fill="#2D250E"/>
<path fill-rule="evenodd" clip-rule="evenodd" d="M125.805 50.5422C126.087 50.0392 126.677 48.1391 125.68 46.6141C124.294 44.4972 120.904 43.0113 118.836 46.1556C116.095 50.3218 122.495 56.4325 125.805 50.5422Z" fill="white"/>
<path fill-rule="evenodd" clip-rule="evenodd" d="M124.702 50.1492C124.967 49.6941 125.556 47.9949 124.761 46.6957C123.657 44.8898 120.801 43.7238 118.887 46.5819C116.35 50.3642 121.603 55.4778 124.702 50.1492Z" fill="#400000"/>
<path fill-rule="evenodd" clip-rule="evenodd" d="M123.272 48.2171C123.357 48.0714 123.546 47.5275 123.291 47.1116C122.938 46.5339 122.024 46.1607 121.411 47.0743C120.599 48.2847 122.28 49.9217 123.272 48.2171Z" fill="white"/>
<path fill-rule="evenodd" clip-rule="evenodd" d="M102.666 43.8893C101.877 43.6636 99.3302 43.8733 96.6784 43.1499C93.0951 42.1741 89.3785 40.3754 90.0877 41.7635C92.1673 45.8267 95.7737 52.5382 99.2254 54.7048C101.01 55.8246 105.105 44.5878 102.666 43.8893Z" fill="#7B7463"/>
<path fill-rule="evenodd" clip-rule="evenodd" d="M99.6448 54.9838C107.247 51.5214 106.635 58.791 104.591 64.0663C104.446 64.4431 102.492 69.3097 102.423 68.3552C102.316 66.9119 99.7621 59.5144 99.6448 54.9838Z" fill="#2D250E"/>
<path fill-rule="evenodd" clip-rule="evenodd" d="M127.902 80.8735C120.307 93.9836 128.384 113.242 145.273 122.335C154.88 127.507 160.649 150.087 167.894 153.987C168.795 154.472 169.588 153.509 168.996 150.971C173.677 158.726 183.027 177.31 182.671 153.665C182.362 133.031 152.038 39.2093 127.902 80.8735Z" fill="#7B7463"/>
<path fill-rule="evenodd" clip-rule="evenodd" d="M144.599 132.319C144.745 136.172 139.715 154.611 138.319 155.381C130.113 155.274 133.467 155.944 137.655 156.511C138.353 156.605 130.524 157.613 132.049 158.855C132.6 159.305 138.19 156.959 138.453 156.797C138.819 156.57 135.189 160.267 136.066 160.633C137.68 159.698 140.497 156.348 140.635 156.054C141.169 154.917 153.003 132.973 152.02 132.537C151.982 132.521 150.576 134.281 149.796 134.036C149.457 133.929 149.942 131.508 149.528 131.629C149.023 131.778 148.42 133.977 147.896 133.945C147.413 133.917 146.787 131.642 146.387 131.709C145.708 131.825 146.364 133.746 145.827 133.73C144.906 133.7 144.581 131.866 144.599 132.319Z" fill="#814C33"/>
<path fill-rule="evenodd" clip-rule="evenodd" d="M122.625 42.9063C124.516 40.9512 126.91 42.8637 124.818 42.8761C124.209 42.8797 122.588 42.9454 122.625 42.9063ZM131.187 41.8914C132.879 41.0063 134.265 43.0308 132.763 42.4691C132.328 42.3056 131.153 41.9092 131.187 41.8914ZM126.955 41.6781C128.371 40.2136 130.163 41.6462 128.597 41.655C128.14 41.6586 126.926 41.7084 126.955 41.6781ZM128.114 43.1907C128.076 43.2298 129.699 43.1641 130.307 43.1605C132.397 43.1481 130.005 41.2338 128.114 43.1907ZM108.973 49.632C109.476 48.3772 110.756 48.6225 109.885 49.1113C109.63 49.2535 108.962 49.6569 108.973 49.632ZM110.404 49.7582C110.393 49.7831 111.061 49.3796 111.315 49.2375C112.186 48.7487 110.907 48.5052 110.404 49.7582ZM110.229 47.2592C110.732 46.0043 112.012 46.2496 111.141 46.7384C110.887 46.8806 110.219 47.2841 110.229 47.2592ZM112.54 47.0424C113.043 45.7875 114.323 46.0328 113.452 46.5216C113.198 46.6638 112.529 47.0672 112.54 47.0424ZM111.463 45.4854C112.289 43.4253 114.389 43.827 112.958 44.6304C112.544 44.865 111.447 45.5262 111.463 45.4854ZM114.3 45.2347C114.278 45.2721 115.448 44.8579 115.89 44.7193C117.408 44.2394 115.396 43.3862 114.3 45.2347ZM116.162 42.6219C117.259 40.7734 119.273 41.6266 117.753 42.1065C117.311 42.2469 116.141 42.6593 116.162 42.6219ZM117.794 44.2963C119.211 42.8317 121.002 44.2643 119.436 44.2732C118.981 44.2767 117.767 44.3247 117.794 44.2963ZM120.414 40.7237C121.831 39.2591 123.622 40.6917 122.056 40.7006C121.601 40.7041 120.387 40.7521 120.414 40.7237ZM131.709 44.7744C133.126 43.3098 134.918 44.7424 133.352 44.7513C132.895 44.7548 131.681 44.8028 131.709 44.7744ZM123.947 41.0418C123.91 41.0809 125.533 41.0152 126.141 41.0116C128.233 40.9974 125.839 39.0849 123.947 41.0418ZM119.483 42.6024C119.445 42.6415 121.068 42.5757 121.676 42.5722C123.768 42.5597 121.374 40.6455 119.483 42.6024Z" fill="#2D250E"/>
<path fill-rule="evenodd" clip-rule="evenodd" d="M120.805 54.5021C123.046 56.0448 125.014 53.6951 122.961 54.0968C122.364 54.2141 120.762 54.4718 120.805 54.5021ZM129.399 53.8C131.233 54.3332 132.191 52.0723 130.829 52.9219C130.435 53.169 129.363 53.7893 129.399 53.8ZM125.293 54.8469C126.971 56.0022 128.444 54.2426 126.907 54.5447C126.461 54.6318 125.259 54.8255 125.293 54.8469ZM126.128 53.1352C126.084 53.105 127.687 52.8473 128.284 52.73C130.337 52.3283 128.37 54.678 126.128 53.1352ZM106.092 50.6149C106.834 51.7453 108.04 51.2512 107.089 50.9437C106.811 50.8548 106.077 50.5918 106.092 50.6149ZM107.469 50.2061C107.455 50.1847 108.189 50.446 108.466 50.5349C109.417 50.8442 108.21 51.3365 107.469 50.2061ZM107.792 52.6927C108.535 53.8231 109.741 53.329 108.788 53.0215C108.512 52.9326 107.778 52.6696 107.792 52.6927ZM110.101 52.4456C110.843 53.576 112.049 53.0819 111.098 52.7762C110.821 52.6855 110.087 52.4243 110.101 52.4456ZM109.355 54.1857C110.572 56.0413 112.551 55.2308 110.99 54.726C110.535 54.5803 109.33 54.1484 109.355 54.1857ZM112.184 53.8693C112.156 53.8373 113.384 54.0097 113.846 54.0595C115.43 54.2283 113.626 55.4636 112.184 53.8693ZM114.527 56.0608C115.969 57.6552 117.773 56.4199 116.189 56.251C115.729 56.2013 114.499 56.0289 114.527 56.0608ZM115.796 54.0968C117.474 55.2521 118.947 53.4925 117.41 53.7929C116.964 53.8817 115.762 54.0737 115.796 54.0968ZM119.072 57.0793C120.75 58.2346 122.223 56.475 120.686 56.7754C120.24 56.8642 119.038 57.0562 119.072 57.0793ZM129.34 50.8708C131.018 52.0261 132.491 50.2665 130.954 50.5687C130.506 50.654 129.306 50.8477 129.34 50.8708ZM122.472 56.068C122.428 56.0377 124.031 55.78 124.628 55.6627C126.679 55.261 124.713 57.6107 122.472 56.068ZM117.787 55.4228C117.742 55.3925 119.346 55.1348 119.943 55.0175C121.994 54.6158 120.028 56.9655 117.787 55.4228Z" fill="#2D250E"/>
<path fill-rule="evenodd" clip-rule="evenodd" d="M190.994 188.526C191.012 188.524 193.806 185.918 193.325 184.674C192.585 182.767 186.387 173.533 185.237 177.154C184.534 179.372 190.566 188.591 190.994 188.526Z" fill="#FFD73A"/>
<path fill-rule="evenodd" clip-rule="evenodd" d="M192.699 182.491C192.717 182.488 195.511 179.882 195.029 178.64C194.29 176.733 188.748 170.497 187.598 174.118C187.598 174.116 192.271 182.557 192.699 182.491Z" fill="#FFD73A"/>
<path fill-rule="evenodd" clip-rule="evenodd" d="M189.361 185.721C189.376 185.719 191.466 183.769 191.105 182.84C190.552 181.412 185.917 174.507 185.056 177.214C184.527 178.874 189.04 185.77 189.361 185.721Z" fill="#F9B746"/>
<path fill-rule="evenodd" clip-rule="evenodd" d="M190.639 181.723C190.65 181.722 192.393 180.095 192.093 179.319C191.632 178.128 187.763 172.365 187.045 174.626C186.606 176.013 190.37 181.764 190.639 181.723Z" fill="#F9B746"/>
<path fill-rule="evenodd" clip-rule="evenodd" d="M191.668 178.352C191.679 178.35 193.424 176.724 193.122 175.947C192.66 174.756 188.792 168.996 188.074 171.255C187.635 172.639 191.4 178.393 191.668 178.352Z" fill="#F9B746"/>
<path fill-rule="evenodd" clip-rule="evenodd" d="M149.764 121.558C149.752 121.573 146.026 122.422 145.267 121.325C144.103 119.642 139.941 109.332 143.582 110.412C145.817 111.073 150.059 121.24 149.764 121.558Z" fill="#FFD73A"/>
<path fill-rule="evenodd" clip-rule="evenodd" d="M142.763 118.939C142.75 118.953 139.025 119.802 138.266 118.706C137.102 117.024 135.052 108.935 138.694 110.016C138.694 110.018 143.058 118.62 142.763 118.939Z" fill="#FFD73A"/>
<path fill-rule="evenodd" clip-rule="evenodd" d="M148.362 118.631C148.353 118.642 145.566 119.278 144.999 118.457C144.128 117.198 141.014 109.484 143.739 110.293C145.408 110.789 148.582 118.393 148.362 118.631Z" fill="#F9B746"/>
<path fill-rule="evenodd" clip-rule="evenodd" d="M143.778 117.191C143.771 117.2 141.446 117.73 140.971 117.046C140.244 115.995 137.648 109.561 139.921 110.235C141.313 110.647 143.961 116.992 143.778 117.191Z" fill="#F9B746"/>
<path fill-rule="evenodd" clip-rule="evenodd" d="M138.936 115.86C138.927 115.869 136.604 116.399 136.13 115.714C135.403 114.664 132.806 108.23 135.079 108.903C136.473 109.317 139.121 115.661 138.936 115.86Z" fill="#F9B746"/>
<path fill-rule="evenodd" clip-rule="evenodd" d="M146.09 113.901C146.078 113.916 142.352 114.765 141.593 113.668C140.429 111.987 136.266 101.675 139.91 102.755C142.143 103.416 146.385 113.583 146.09 113.901Z" fill="#2D250E"/>
<path fill-rule="evenodd" clip-rule="evenodd" d="M137.843 111.662C137.831 111.676 134.105 112.526 133.346 111.429C132.182 109.747 130.133 101.658 133.775 102.739C133.776 102.739 138.138 111.344 137.843 111.662Z" fill="#2D250E"/>
<path fill-rule="evenodd" clip-rule="evenodd" d="M144.688 110.974C144.679 110.984 141.892 111.619 141.325 110.8C140.454 109.541 137.342 101.827 140.065 102.636C141.734 103.132 144.908 110.736 144.688 110.974Z" fill="#484336"/>
<path fill-rule="evenodd" clip-rule="evenodd" d="M140.104 109.534C140.097 109.543 137.772 110.073 137.297 109.388C136.57 108.338 133.974 101.904 136.247 102.577C137.64 102.99 140.289 109.335 140.104 109.534Z" fill="#484336"/>
<path fill-rule="evenodd" clip-rule="evenodd" d="M133.206 109.689C133.199 109.698 130.874 110.227 130.399 109.543C129.673 108.492 127.076 102.058 129.349 102.732C130.743 103.144 133.391 109.49 133.206 109.689Z" fill="#2D250E"/>
<path fill-rule="evenodd" clip-rule="evenodd" d="M105.302 98.5872C104.065 103.248 107.387 106.152 106.36 102.465C106.061 101.394 105.327 98.4965 105.302 98.5872ZM127.678 130.824C130.126 134.297 133.224 130.9 130.517 130.877C129.729 130.872 127.63 130.756 127.678 130.824ZM138.762 132.626C140.954 134.197 142.747 130.602 140.802 131.601C140.239 131.89 138.719 132.594 138.762 132.626ZM133.282 133.005C135.115 135.605 137.436 133.062 135.408 133.046C134.82 133.04 133.247 132.953 133.282 133.005ZM134.782 130.319C134.734 130.252 136.834 130.367 137.621 130.373C140.33 130.396 137.23 133.792 134.782 130.319ZM110.007 118.883C110.659 121.11 112.314 120.677 111.187 119.808C110.859 119.555 109.995 118.839 110.007 118.883ZM111.859 118.658C111.847 118.615 112.711 119.329 113.039 119.582C114.166 120.451 112.511 120.885 111.859 118.658ZM111.633 123.098C112.286 125.325 113.941 124.891 112.814 124.022C112.485 123.769 111.621 123.053 111.633 123.098ZM114.625 123.482C115.277 125.709 116.932 125.275 115.805 124.406C115.476 124.153 114.612 123.439 114.625 123.482ZM113.231 126.245C114.301 129.901 117.019 129.189 115.167 127.761C114.628 127.347 113.21 126.174 113.231 126.245ZM116.902 126.69C116.873 126.626 118.389 127.358 118.96 127.605C120.928 128.458 118.322 129.971 116.902 126.69ZM119.314 131.329C120.734 134.61 123.339 133.097 121.372 132.244C120.8 131.997 119.285 131.265 119.314 131.329ZM121.427 128.357C123.259 130.957 125.581 128.414 123.553 128.398C122.963 128.392 121.391 128.305 121.427 128.357ZM124.818 134.7C126.651 137.301 128.972 134.757 126.944 134.741C126.354 134.736 124.781 134.649 124.818 134.7ZM139.437 127.507C141.27 130.108 143.591 127.564 141.563 127.548C140.973 127.543 139.4 127.456 139.437 127.507ZM129.39 134.137C129.342 134.07 131.441 134.185 132.228 134.19C134.937 134.213 131.839 137.61 129.39 134.137ZM123.611 131.364C123.563 131.295 125.663 131.411 126.45 131.418C129.159 131.441 126.059 134.837 123.611 131.364ZM108.434 114.339C108.438 114.267 109.463 116.061 109.861 116.717C111.237 118.972 108.292 117.92 108.434 114.339ZM106.09 107.04C105.164 110.531 107.652 112.705 106.882 109.945C106.658 109.141 106.109 106.971 106.09 107.04ZM108.351 108.045C107.114 112.705 110.435 115.609 109.408 111.921C109.11 110.851 108.375 107.954 108.351 108.045ZM105.996 69.9869C104.849 71.7288 105.759 73.8119 105.869 71.9456C105.901 71.4017 106.017 69.9531 105.996 69.9869ZM106.849 72.4184C106.872 72.3846 106.754 73.8332 106.722 74.3753C106.611 76.2434 105.702 74.1603 106.849 72.4184ZM103.976 73.8172C102.83 75.5591 103.74 77.6422 103.85 75.7741C103.884 75.2338 103.999 73.7834 103.976 73.8172ZM104.886 78.0297C103.74 79.7715 104.65 81.8547 104.76 79.9884C104.794 79.4463 104.91 77.9959 104.886 78.0297ZM102.617 77.1996C100.734 80.0577 102.227 83.4774 102.41 80.4132C102.464 79.5227 102.654 77.1427 102.617 77.1996ZM103.751 82.3577C103.781 82.2955 103.904 84.6345 103.968 85.5072C104.19 88.5057 102.238 85.5481 103.751 82.3577ZM101.769 87.4179C100.256 90.6084 102.208 93.566 101.986 90.5675C101.922 89.6948 101.797 87.3557 101.769 87.4179ZM104.446 89.1456C103.52 92.6364 106.008 94.8102 105.238 92.0499C105.014 91.2465 104.463 89.078 104.446 89.1456ZM101.771 96.1912C100.845 99.682 103.333 101.856 102.563 99.0955C102.339 98.2921 101.79 96.1237 101.771 96.1912ZM111.905 113.286C111.923 113.217 112.474 115.387 112.698 116.191C113.468 118.951 110.979 116.777 111.905 113.286ZM103.884 102.188C103.909 102.096 104.643 104.993 104.942 106.065C105.969 109.753 102.647 106.849 103.884 102.188ZM103.399 93.2709C103.424 93.1785 104.158 96.0757 104.456 97.1474C105.485 100.836 102.162 97.9313 103.399 93.2709Z" fill="#E6D0AC"/>
<path fill-rule="evenodd" clip-rule="evenodd" d="M150.674 113.546C150.665 113.556 147.878 114.191 147.311 113.372C146.44 112.113 143.326 104.399 146.051 105.208C147.72 105.702 150.895 113.308 150.674 113.546Z" fill="#484336"/>
<path fill-rule="evenodd" clip-rule="evenodd" d="M154.181 113.99C152.891 114.419 148.73 106.282 151.248 107.03C152.551 107.416 154.421 113.91 154.181 113.99Z" fill="#484336"/>
<path fill-rule="evenodd" clip-rule="evenodd" d="M155.104 107.881C154.35 108.132 151.92 103.379 153.39 103.815C154.151 104.042 155.244 107.835 155.104 107.881Z" fill="#484336"/>
<path fill-rule="evenodd" clip-rule="evenodd" d="M157.736 114.68C156.982 114.93 154.552 110.178 156.022 110.615C156.783 110.839 157.876 114.634 157.736 114.68Z" fill="#484336"/>
<path fill-rule="evenodd" clip-rule="evenodd" d="M159.369 110.419C158.616 110.67 156.186 105.917 157.658 106.354C158.416 106.58 159.51 110.373 159.369 110.419Z" fill="#484336"/>
<path fill-rule="evenodd" clip-rule="evenodd" d="M159.014 104.385C158.26 104.636 155.83 99.8829 157.3 100.32C158.061 100.544 159.154 104.339 159.014 104.385Z" fill="#484336"/>
<path fill-rule="evenodd" clip-rule="evenodd" d="M163.415 110.16C162.661 110.41 160.231 105.658 161.703 106.095C162.462 106.319 163.553 110.114 163.415 110.16Z" fill="#484336"/>
<path fill-rule="evenodd" clip-rule="evenodd" d="M162.864 104.947C162.33 105.123 160.612 101.761 161.651 102.069C162.19 102.229 162.963 104.913 162.864 104.947Z" fill="#484336"/>
<path fill-rule="evenodd" clip-rule="evenodd" d="M130.833 99.5682C129.489 99.7779 126.72 91.0704 129.082 92.2204C130.303 92.8158 131.082 99.5291 130.833 99.5682ZM140.882 92.0711C140.328 92.1582 139.183 88.5589 140.159 89.0353C140.662 89.2806 140.985 92.0551 140.882 92.0711ZM140.57 97.3038C139.786 97.4264 138.166 92.3412 139.548 93.0131C140.26 93.3597 140.715 97.2807 140.57 97.3038ZM137.175 90.8855C136.391 91.0082 134.772 85.923 136.153 86.5949C136.865 86.9415 137.322 90.8624 137.175 90.8855ZM136.537 96.8967C135.753 97.0194 134.134 91.9342 135.515 92.6061C136.227 92.9527 136.682 96.8736 136.537 96.8967ZM134.228 100.832C134.373 100.809 133.918 96.8879 133.204 96.5413C131.825 95.8676 133.442 100.955 134.228 100.832ZM132.745 93.6939C132.891 93.6707 132.436 89.7498 131.723 89.4014C130.342 88.7313 131.96 93.8183 132.745 93.6939Z" fill="#B2A180"/>
<path fill-rule="evenodd" clip-rule="evenodd" d="M145.55 101.795C144.206 102.005 141.437 93.2977 143.799 94.4477C145.02 95.0413 145.801 101.756 145.55 101.795ZM155.599 94.2984C155.045 94.3855 153.9 90.7862 154.876 91.2625C155.381 91.5061 155.702 94.2824 155.599 94.2984ZM155.287 99.5293C154.501 99.6519 152.884 94.5667 154.265 95.2368C154.977 95.5852 155.432 99.5062 155.287 99.5293ZM151.894 93.1128C151.11 93.2355 149.49 88.1503 150.871 88.8222C151.584 89.1688 152.039 93.0897 151.894 93.1128ZM151.254 99.124C150.468 99.2467 148.851 94.1615 150.23 94.8334C150.944 95.18 151.399 99.1009 151.254 99.124ZM148.945 103.057C149.091 103.034 148.636 99.1134 147.921 98.765C146.542 98.0949 148.161 103.18 148.945 103.057ZM147.462 95.9211C147.608 95.898 147.153 91.9771 146.44 91.6305C145.059 90.9586 146.679 96.0438 147.462 95.9211Z" fill="#AE9F80"/>
<path fill-rule="evenodd" clip-rule="evenodd" d="M153.516 122.399C152.226 122.827 148.065 114.69 150.584 115.439C151.886 115.824 153.756 122.319 153.516 122.399Z" fill="#FDC05B"/>
<path fill-rule="evenodd" clip-rule="evenodd" d="M154.803 118.555C154.05 118.805 151.62 114.052 153.09 114.488C153.852 114.714 154.944 118.507 154.803 118.555Z" fill="#FDC05B"/>
<path fill-rule="evenodd" clip-rule="evenodd" d="M151.19 126.224C150.63 126.409 148.826 122.883 149.919 123.206C150.482 123.373 151.293 126.189 151.19 126.224Z" fill="#FDC05B"/>
<path fill-rule="evenodd" clip-rule="evenodd" d="M157.613 119.731C157.053 119.916 155.251 116.39 156.342 116.713C156.906 116.88 157.716 119.697 157.613 119.731Z" fill="#FDC05B"/>
<path fill-rule="evenodd" clip-rule="evenodd" d="M161.081 117.547C160.521 117.732 158.717 114.205 159.81 114.529C160.374 114.698 161.186 117.513 161.081 117.547Z" fill="#FDC05B"/>
<path fill-rule="evenodd" clip-rule="evenodd" d="M165.482 118.258C164.922 118.443 163.12 114.916 164.211 115.24C164.776 115.407 165.587 118.222 165.482 118.258Z" fill="#FDC05B"/>
<path fill-rule="evenodd" clip-rule="evenodd" d="M159.84 144.814C157.553 144.243 152.818 130.385 152.27 126.681C155.146 134.313 162.791 144.428 159.84 144.814Z" fill="#686252"/>
<path fill-rule="evenodd" clip-rule="evenodd" d="M161.118 136.295C158.831 135.724 154.096 121.866 153.548 118.164C156.424 125.794 164.069 135.909 161.118 136.295Z" fill="#686252"/>
<path fill-rule="evenodd" clip-rule="evenodd" d="M165.748 133.773C163.461 133.204 158.726 119.344 158.178 115.64C161.056 123.272 168.699 133.387 165.748 133.773Z" fill="#686252"/>
<path fill-rule="evenodd" clip-rule="evenodd" d="M173.617 126.162C171.329 125.591 166.594 111.733 166.047 108.029C168.925 115.661 176.569 125.776 173.617 126.162Z" fill="#686252"/>
<path fill-rule="evenodd" clip-rule="evenodd" d="M173.88 155.996C171.591 155.425 166.857 141.567 166.31 137.863C169.186 145.495 176.83 155.612 173.88 155.996Z" fill="#484336"/>
<path fill-rule="evenodd" clip-rule="evenodd" d="M178.708 156.706C176.418 156.136 171.685 142.278 171.138 138.575C174.015 146.206 181.658 156.321 178.708 156.706Z" fill="#484336"/>
<path fill-rule="evenodd" clip-rule="evenodd" d="M123.181 33.1592C125.511 30.8574 129.02 32.3824 126.169 32.7539C125.339 32.8606 123.135 33.2036 123.181 33.1592ZM134.731 30.6672C136.928 29.4817 139.075 31.2929 136.954 30.9818C136.339 30.8894 134.688 30.6903 134.731 30.6672ZM128.931 31.1756C128.897 31.2093 130.547 30.9516 131.169 30.8716C133.304 30.5944 130.677 29.4515 128.931 31.1756ZM130.703 32.5069C130.657 32.5513 132.861 32.2083 133.691 32.0998C136.542 31.7301 133.035 30.2051 130.703 32.5069ZM105.414 42.2986C105.942 40.9442 107.718 40.9726 106.591 41.6161C106.264 41.8027 105.404 42.3252 105.414 42.2986ZM107.382 42.1813C107.371 42.2079 108.231 41.6854 108.559 41.4988C109.685 40.8536 107.91 40.8269 107.382 42.1813ZM106.826 39.6822C107.353 38.3279 109.129 38.3563 108.002 38.9997C107.675 39.1881 106.817 39.7089 106.826 39.6822ZM109.952 39.0673C110.48 37.7129 112.256 37.7413 111.129 38.3847C110.802 38.5731 109.941 39.0939 109.952 39.0673ZM108.285 37.6773C108.267 37.7218 109.678 36.8651 110.217 36.5576C112.065 35.5 109.15 35.4538 108.285 37.6773ZM112.122 36.9397C113.384 34.8832 116.237 35.4005 114.227 36.1452C113.64 36.362 112.097 36.9788 112.122 36.9397ZM114.332 33.9785C115.593 31.9221 118.446 32.4393 116.436 33.184C115.849 33.4009 114.307 34.0176 114.332 33.9785ZM116.77 35.3916C116.736 35.4254 118.386 35.1676 119.008 35.0876C121.143 34.8086 118.516 33.6675 116.77 35.3916ZM119.889 31.3302C119.856 31.364 121.505 31.1063 122.127 31.0263C124.262 30.749 121.635 29.6061 119.889 31.3302ZM135.81 33.4933C137.555 31.7692 140.182 32.9121 138.047 33.1894C137.425 33.2694 135.774 33.5271 135.81 33.4933ZM124.749 31.0458C124.703 31.092 126.907 30.7472 127.737 30.6406C130.588 30.2691 127.079 28.7441 124.749 31.0458ZM118.857 33.3884C118.811 33.4347 121.015 33.0898 121.845 32.9814C124.697 32.6117 121.189 31.0885 118.857 33.3884Z" fill="#FBAD52"/>
<path fill-rule="evenodd" clip-rule="evenodd" d="M103.105 109.778C100.071 107.058 101.698 102.586 102.375 106.099C102.572 107.121 103.166 109.833 103.105 109.778ZM99.1363 95.6261C97.4993 92.9885 99.5842 90.1855 99.3567 92.8409C99.2927 93.6123 99.1683 95.6795 99.1363 95.6261ZM100.208 102.789C100.253 102.83 99.8082 100.798 99.6606 100.034C99.1541 97.4053 97.9366 100.754 100.208 102.789ZM101.726 100.489C101.786 100.542 101.191 97.8319 100.995 96.8099C100.318 93.2977 98.692 97.7679 101.726 100.489ZM115.799 131.146C114.077 130.593 113.978 128.386 114.863 129.736C115.121 130.129 115.833 131.156 115.799 131.146ZM115.504 128.711C115.538 128.721 114.825 127.694 114.568 127.301C113.683 125.952 113.782 128.16 115.504 128.711ZM112.446 129.591C110.723 129.038 110.624 126.832 111.509 128.181C111.767 128.574 112.479 129.601 112.446 129.591ZM111.445 125.757C109.723 125.204 109.623 122.996 110.508 124.347C110.766 124.74 111.479 125.767 111.445 125.757ZM109.845 127.931C109.9 127.948 108.731 126.262 108.308 125.616C106.856 123.402 107.019 127.026 109.845 127.931ZM108.638 123.224C105.988 121.814 106.415 118.231 107.494 120.672C107.806 121.383 108.69 123.252 108.638 123.224ZM104.794 120.705C102.145 119.296 102.57 115.713 103.649 118.153C103.962 118.864 104.845 120.734 104.794 120.705ZM106.363 117.57C106.408 117.611 105.963 115.579 105.816 114.815C105.309 112.184 104.092 115.533 106.363 117.57ZM101.084 114.005C101.129 114.045 100.684 112.016 100.537 111.25C100.03 108.619 98.8128 111.968 101.084 114.005ZM102.565 94.0745C100.292 92.0376 101.511 88.6889 102.017 91.3195C102.165 92.0838 102.609 94.1154 102.565 94.0745ZM100.364 107.993C100.425 108.047 99.8313 105.336 99.634 104.314C98.9568 100.802 97.3287 105.274 100.364 107.993ZM103.72 115.13C103.781 115.183 103.187 112.472 102.99 111.45C102.313 107.938 100.684 112.41 103.72 115.13Z" fill="#B2A180"/>
<path fill-rule="evenodd" clip-rule="evenodd" d="M90.0381 41.3565C91.7746 43.5089 98.0097 46.6816 99.1366 47.4139C99.4139 47.5934 101.38 48.4341 102.871 48.8874C103.118 47.924 104.058 46.0933 103.171 44.0955C103.066 43.8573 99.7267 43.82 96.6785 43.1499C93.4454 42.4389 90.845 40.8979 90.0381 41.3565Z" fill="#B2A180"/>
</svg>
