<svg width="285" height="190" viewBox="0 0 285 190" fill="none" xmlns="http://www.w3.org/2000/svg">
<rect width="285" height="190" fill="#E5F3FF"/>
<path fill-rule="evenodd" clip-rule="evenodd" d="M169.354 85.372C169.281 84.4501 180.376 88.4893 179.042 79.3558C178.788 77.6091 188.331 83.2008 187.143 68.9001C186.937 66.4378 184.232 65.2734 182.098 66.0254C183.59 64.958 184.305 62.9809 185.057 58.4687C186.84 47.6977 176.253 56.4552 182.45 48.8015C185.372 45.1869 182.123 38.5884 176.423 38.5884C176.399 38.3337 181.916 27.2594 170.675 28.1327C168.323 28.3147 173.768 13.4439 161.508 20.0787C159.58 21.1219 160.198 18.9264 157.458 15.6151C155.457 13.1892 149.539 12.9951 147.648 18.5626C146.471 22.0195 144.386 6.16618 132.805 21.3402C131.18 23.475 127.688 15.1299 123.286 19.3267C122.34 20.2364 123.092 22.7836 121.855 24.9669C118.715 30.5344 116.92 25.8767 114.276 23.8996C111.73 21.9952 108.25 22.6866 109.062 31.8444C107.195 26.9319 91.7822 26.471 97.918 37.9455C89.9511 31.0438 79.2922 48.098 91.6124 48.7408C99.8582 49.1775 87.5986 54.3447 87.5259 58.9539C87.5138 60.2275 91.2971 68.4998 97.0328 65.989C93.0069 71.9567 98.2333 78.5673 105.63 77.5121C106.637 77.3665 102.841 89.0108 110.857 89.0108C116.01 89.0108 110.675 89.5446 113.136 93.0015C115.707 96.6161 122.874 88.1497 128.185 88.4893C133.727 88.8532 134.588 85.7723 142.652 88.7076C147.393 90.4543 170.166 95.6214 169.354 85.372Z" fill="#F0D899"/>
<path fill-rule="evenodd" clip-rule="evenodd" d="M147.745 138.196C150.619 138.124 155.045 139.409 159.471 139.409C170.008 139.409 177.551 133.757 176.969 122.853C176.229 109.086 172.046 100.085 177.551 94.5301C180.11 91.9465 186.282 90.4667 193.206 89.7996C192.988 87.4707 182.292 87.3615 175.441 90.9883C171.391 93.1352 170.093 99.2242 172.676 108.685C177.575 126.661 174.156 141.168 154.463 132.872C152.413 132.01 144.628 135.043 144.75 137.869C144.798 138.633 147.175 138.451 147.745 138.196Z" fill="#DBA556"/>
<path fill-rule="evenodd" clip-rule="evenodd" d="M162.587 121.396C164.139 121.396 159.071 121.396 162.587 121.396V121.396ZM100.95 102.583C99.6644 104.148 91.5156 107.738 90.1817 111.523C89.2358 114.216 93.8195 117.636 97.3968 117.636C102.32 117.636 105.788 115.768 108.553 112.906C108.116 122.367 110.639 131.512 115.271 138.45C113.985 141.095 113.294 144.394 113.137 147.79C112.918 152.8 114.992 158.015 113.452 161.509C112.882 162.782 108.929 164.856 108.589 167.731C108.068 172.304 122.219 174.633 123.456 166.676C124.147 162.248 125.869 155.226 126.815 148.7C132.211 151.199 138.541 151.659 145.392 149.246C145.78 154.922 147.466 161.084 148.836 165.317C149.455 167.222 147.963 168.835 147.175 170.254C146.666 171.176 146.799 172.34 146.799 172.34C147.951 176.792 160.271 176.197 159.738 168.156C159.301 161.606 159.798 149.088 157.858 141.483C164.6 134.593 166.322 125.448 165.11 116.096C167.559 118.012 170.554 119.189 174.459 119.189C178.036 119.189 184.584 116.472 183.638 113.779C182.304 109.994 172.203 105.713 170.918 104.148C168.274 100.946 160.308 90.8177 151.637 85.7354C144.932 81.8055 137.243 82.0844 134.758 83.3702C132.078 84.7651 126.1 81.9389 121.589 84.0979C112.918 88.222 104.672 98.0712 100.95 102.583Z" fill="#E8B05F"/>
<path fill-rule="evenodd" clip-rule="evenodd" d="M157.918 46.7272C157.906 46.7272 151.673 39.4009 144.361 38.1758C136.018 36.7688 126.378 41.4508 124.971 41.5842C112.263 15.0448 109.074 53.0466 108.528 61.3432C108.019 69.2638 117.211 85.578 131.774 88.9015C143.537 91.5822 164.721 82.1333 168.759 70.0037C175.15 50.8148 179.855 30.7041 157.918 46.7272Z" fill="#E8B05F"/>
<path fill-rule="evenodd" clip-rule="evenodd" d="M135.23 75.0377C137.207 73.6064 146.205 69.361 144.41 65.989C143.949 62.3016 128.852 61.0159 128.476 64.1211C125.481 67.954 135.218 75.0498 135.23 75.0377Z" fill="#AE746C"/>
<path fill-rule="evenodd" clip-rule="evenodd" d="M125.857 72.1506C120.024 69.4578 108.335 69.2516 102.526 72.09C102.429 72.1506 102.393 72.2719 102.453 72.3689C102.514 72.466 102.635 72.5023 102.732 72.4417C108.395 69.6762 119.976 69.8945 125.663 72.5145C125.76 72.5751 125.893 72.5387 125.942 72.4296C125.99 72.3325 125.954 72.1991 125.857 72.1506Z" fill="#5B5246"/>
<path fill-rule="evenodd" clip-rule="evenodd" d="M125.032 73.121C118.484 71.1075 109.62 71.811 104.769 77.1844L103.872 78.3125C103.799 78.4095 103.824 78.5429 103.921 78.6036C104.018 78.6642 104.151 78.6521 104.212 78.555L105.085 77.4634C109.826 72.2234 118.52 71.5442 124.899 73.5091C125.008 73.5455 125.129 73.4849 125.166 73.3757C125.202 73.2787 125.141 73.1695 125.032 73.121Z" fill="#5B5246"/>
<path fill-rule="evenodd" clip-rule="evenodd" d="M124.535 74.9652C121.783 73.825 119.612 74.1646 116.787 75.0016C113.658 75.9234 108.335 78.3372 106.091 80.7995C106.019 80.8965 106.043 81.0178 106.14 81.0906C106.237 81.1634 106.358 81.1391 106.431 81.0421C108.371 78.9194 112.809 76.821 115.477 75.8628C118.46 74.7954 121.31 74.0919 124.329 75.3291C124.426 75.3897 124.56 75.3533 124.62 75.2442C124.669 75.1471 124.632 75.0258 124.535 74.9652Z" fill="#5B5246"/>
<path fill-rule="evenodd" clip-rule="evenodd" d="M147.126 76.2015C153.359 74.6489 164.879 76.626 170.069 80.4953C170.154 80.5681 170.166 80.7015 170.093 80.7864C170.02 80.8713 169.887 80.8835 169.802 80.8107C164.758 77.0384 153.335 75.0856 147.26 76.6018C147.15 76.6382 147.029 76.5775 146.993 76.4684C146.956 76.3592 147.017 76.2379 147.126 76.2015Z" fill="#5B5246"/>
<path fill-rule="evenodd" clip-rule="evenodd" d="M147.745 77.3179C154.547 76.5538 163.121 78.9069 166.892 85.0929L167.571 86.3665C167.619 86.4757 167.571 86.597 167.462 86.6455C167.353 86.694 167.231 86.6455 167.183 86.5363L166.528 85.2991C162.854 79.2586 154.438 76.9783 147.793 77.7182C147.684 77.7424 147.575 77.6575 147.551 77.5484C147.551 77.4392 147.636 77.33 147.745 77.3179Z" fill="#5B5246"/>
<path fill-rule="evenodd" clip-rule="evenodd" d="M147.89 79.2225C150.812 78.6161 152.874 79.356 155.493 80.7023C158.403 82.1943 163.181 85.5541 164.915 88.3924C164.964 88.5016 164.915 88.6229 164.818 88.6714C164.709 88.7199 164.588 88.6714 164.539 88.5744C163.036 86.1242 159.058 83.2374 156.609 81.794C153.868 80.1929 151.213 78.9557 148.023 79.6228C147.914 79.6592 147.793 79.5986 147.757 79.4894C147.72 79.3681 147.781 79.2589 147.89 79.2225Z" fill="#5B5246"/>
<path fill-rule="evenodd" clip-rule="evenodd" d="M115.695 43.4764C116.095 43.8403 121.589 42.2634 121.285 41.8631C113.488 31.5773 115.598 43.3915 115.695 43.4764Z" fill="#FAD0CC"/>
<path fill-rule="evenodd" clip-rule="evenodd" d="M168.505 50.6936C168.032 50.9604 163.036 48.1585 163.436 47.831C173.367 39.6193 168.614 50.6329 168.505 50.6936Z" fill="#FAD0CC"/>
<path fill-rule="evenodd" clip-rule="evenodd" d="M146.192 78.0215C146.302 78.0215 146.471 78.0336 146.459 78.3732C146.459 78.6037 145.829 78.9676 145.829 78.3126C145.841 78.1185 146.108 78.0215 146.192 78.0215ZM146.277 79.6104C146.387 79.6104 146.556 79.6226 146.544 79.9622C146.544 80.1927 145.914 80.5565 145.914 79.9016C145.926 79.7075 146.192 79.6104 146.277 79.6104ZM144.555 77.4757C144.665 77.4757 144.822 77.4878 144.822 77.8274C144.81 78.0579 144.192 78.4218 144.192 77.7789C144.204 77.5727 144.471 77.4757 144.555 77.4757ZM144.555 78.9069C144.665 78.9069 144.822 78.9191 144.822 79.2587C144.81 79.4892 144.192 79.853 144.192 79.198C144.204 79.004 144.471 78.9069 144.555 78.9069ZM145.61 75.9595C145.72 75.9595 145.889 75.9716 145.877 76.2991C145.877 76.5296 145.259 76.8934 145.259 76.2506C145.247 76.0565 145.526 75.9595 145.61 75.9595Z" fill="#5B5246"/>
<path fill-rule="evenodd" clip-rule="evenodd" d="M126.9 74.3706C127.009 74.3706 127.179 74.3827 127.167 74.7223C127.167 74.9528 126.536 75.3167 126.536 74.6617C126.536 74.4676 126.815 74.3706 126.9 74.3706ZM128.197 74.0795C128.306 74.0795 128.476 74.0916 128.464 74.4312C128.464 74.6617 127.846 75.0256 127.846 74.3706C127.834 74.1765 128.112 74.0795 128.197 74.0795ZM126.609 76.0444C126.718 76.0444 126.876 76.0566 126.876 76.3962C126.876 76.6267 126.245 76.9906 126.245 76.3356C126.245 76.1415 126.512 76.0444 126.609 76.0444ZM127.943 72.6846C128.052 72.6846 128.222 72.6967 128.209 73.0363C128.209 73.2668 127.579 73.6307 127.579 72.9757C127.591 72.7816 127.858 72.6846 127.943 72.6846Z" fill="#5B5246"/>
<path fill-rule="evenodd" clip-rule="evenodd" d="M121.722 66.8013C119.927 64.1692 117.781 62.7137 114.579 64.1571C113.064 64.8363 112.506 65.552 111.596 66.8256C111.56 66.8983 111.475 66.9226 111.402 66.8862C111.33 66.8498 111.305 66.7649 111.342 66.6921C111.706 66.1827 112.021 65.7582 112.36 65.3821C111.79 64.9212 111.233 64.4482 110.675 63.9873C110.602 63.9751 110.541 63.9023 110.554 63.8296C110.566 63.7568 110.638 63.6961 110.711 63.7083C111.354 64.1449 111.96 64.6786 112.567 65.1759C113.015 64.7272 113.524 64.3511 114.264 63.9994C113.549 63.0048 113.913 63.5142 113.124 62.374C113.1 62.3012 113.136 62.2163 113.197 62.1921C113.27 62.1678 113.355 62.2042 113.379 62.2648C114.143 63.3565 113.779 62.8471 114.507 63.866C115.065 63.6234 115.598 63.4535 116.107 63.3686C116.047 62.5802 115.841 62.0708 115.78 61.2581C115.792 61.1853 115.865 61.1247 115.938 61.1368C116.01 61.1489 116.071 61.2217 116.059 61.2945C116.132 62.0708 116.326 62.5317 116.386 63.3323C116.993 63.2595 117.55 63.2959 118.084 63.4414C118.29 62.7622 118.266 62.4104 118.557 61.5977V61.5613C118.569 61.4886 118.642 61.4279 118.715 61.44C118.787 61.4522 118.848 61.525 118.836 61.5977C118.836 61.5977 118.472 63.0412 118.339 63.5142C118.981 63.7204 119.563 64.0722 120.121 64.5331C120.752 63.1867 120.436 63.8053 121.128 62.5681C121.14 62.4953 121.213 62.4347 121.285 62.4468C121.358 62.4589 121.419 62.5196 121.407 62.6045C120.679 63.963 121.031 63.2595 120.339 64.7272C120.618 64.9819 120.885 65.2608 121.14 65.5641C122.001 64.5937 121.576 65.0789 122.462 64.0236C122.51 63.963 122.595 63.9509 122.656 63.9994C122.716 64.0479 122.728 64.1328 122.68 64.1935C121.782 65.273 122.231 64.7635 121.322 65.7824C121.552 66.0614 121.758 66.3525 121.976 66.6679C122.013 66.7285 122.001 66.8256 121.928 66.862C121.855 66.8862 121.77 66.8619 121.722 66.8013Z" fill="#524432"/>
<path fill-rule="evenodd" clip-rule="evenodd" d="M111.463 67.2387H111.378L111.233 67.1781C110.99 67.0568 110.905 66.7535 111.039 66.5231C111.342 66.0864 111.609 65.7347 111.863 65.4193L110.493 64.2913C110.299 64.2063 110.166 64.0001 110.19 63.7818C110.226 63.5392 110.432 63.3573 110.675 63.3573L110.881 63.4179C111.403 63.7576 111.888 64.17 112.348 64.5702L112.518 64.7158C112.87 64.4004 113.258 64.1214 113.719 63.8788L113.658 63.8061C113.416 63.4664 113.416 63.4664 113.197 63.1511L112.809 62.581C112.676 62.2656 112.797 61.9866 113.04 61.8896L113.222 61.8532C113.416 61.8532 113.597 61.9745 113.67 62.1564L114.01 62.6295C114.216 62.9327 114.216 62.9327 114.458 63.2724L114.604 63.4664C114.98 63.3087 115.344 63.1996 115.707 63.1147C115.671 62.86 115.622 62.6416 115.574 62.399C115.513 62.0715 115.441 61.7319 115.404 61.3074C115.441 60.992 115.647 60.8101 115.889 60.8101C116.217 60.8464 116.399 61.089 116.374 61.3559C116.411 61.6349 116.471 61.926 116.532 62.2171C116.58 62.4476 116.629 62.7023 116.665 62.9813C117.053 62.957 117.441 62.9813 117.817 63.054C117.854 62.9085 117.878 62.7872 117.902 62.6538C117.963 62.3384 118.036 62.0109 118.205 61.5257C118.266 61.271 118.46 61.1133 118.678 61.1133C119.006 61.1497 119.188 61.3923 119.163 61.6591C119.163 61.6955 118.884 62.7751 118.739 63.3209C119.163 63.4907 119.576 63.7212 119.976 64.0123L120.097 63.7576C120.279 63.3573 120.279 63.3573 120.521 62.9327L120.788 62.4597C120.849 62.2656 121.031 62.1201 121.249 62.1201C121.431 62.1322 121.552 62.205 121.625 62.302C121.71 62.399 121.746 62.5325 121.734 62.6659L121.698 62.7872L121.37 63.3937C121.152 63.7939 121.152 63.7939 120.97 64.1942L120.74 64.6673C120.873 64.7886 120.994 64.922 121.128 65.0675L121.249 64.9341C121.516 64.6309 121.516 64.6309 121.77 64.3276L122.183 63.8303C122.328 63.6363 122.656 63.5999 122.862 63.7576C122.959 63.8303 123.032 63.9516 123.044 64.0729C123.056 64.2063 123.032 64.3276 122.947 64.4368L122.522 64.9462C122.256 65.2737 122.256 65.2737 121.977 65.577L121.758 65.8196C121.928 66.0379 122.086 66.2684 122.243 66.4988C122.316 66.6322 122.34 66.7536 122.304 66.887C122.268 67.0083 122.195 67.1174 122.086 67.1902L122.001 67.2387L121.831 67.2508C121.661 67.2508 121.504 67.166 121.419 67.0204C119.406 64.0608 117.369 63.3088 114.713 64.5096C113.282 65.1524 112.749 65.8317 111.863 67.0568C111.803 67.1417 111.645 67.2387 111.463 67.2387Z" fill="#5B5246"/>
<path fill-rule="evenodd" clip-rule="evenodd" d="M159.495 71.6415C158.101 68.7789 156.185 67.0323 152.801 67.9905C151.201 68.4514 150.546 69.0822 149.467 70.1981C149.418 70.2587 149.333 70.2709 149.273 70.2224C149.212 70.1738 149.2 70.0889 149.248 70.0283C149.685 69.5674 150.061 69.2035 150.437 68.876C149.94 68.3301 149.455 67.7964 148.97 67.2506C148.897 67.2263 148.848 67.1536 148.873 67.0808C148.897 67.008 148.97 66.9595 149.042 66.9838C149.624 67.5053 150.146 68.1239 150.667 68.7062C151.176 68.3301 151.734 68.039 152.51 67.7843C151.94 66.6927 152.231 67.2627 151.613 66.0134C151.589 65.9406 151.637 65.8557 151.722 65.8436C151.795 65.8193 151.88 65.8678 151.892 65.9528C152.486 67.1414 152.207 66.5835 152.777 67.7115C153.371 67.5417 153.917 67.4568 154.426 67.4447C154.487 66.6563 154.354 66.1226 154.402 65.3099C154.426 65.2371 154.499 65.1886 154.572 65.2129C154.645 65.2371 154.693 65.3099 154.669 65.3827C154.632 66.159 154.754 66.6441 154.693 67.4447C155.299 67.4568 155.857 67.5781 156.366 67.7964C156.67 67.1536 156.694 66.8139 157.094 66.0377L157.106 66.0013C157.13 65.9285 157.203 65.88 157.276 65.9042C157.349 65.9285 157.397 66.0013 157.373 66.074C157.373 66.074 156.803 67.4568 156.609 67.9056C157.215 68.1967 157.749 68.6334 158.222 69.1671C159.034 67.9299 158.634 68.4878 159.495 67.3598C159.519 67.287 159.592 67.2385 159.665 67.2627C159.738 67.287 159.786 67.3598 159.762 67.4326C158.852 68.6698 159.301 68.0269 158.392 69.3733C158.634 69.6644 158.852 69.9798 159.059 70.3073C160.053 69.4703 159.568 69.8949 160.586 68.973C160.647 68.9245 160.732 68.9245 160.793 68.973C160.853 69.0337 160.841 69.1186 160.793 69.1792C159.75 70.1253 160.259 69.6765 159.216 70.5498C159.398 70.8531 159.568 71.1806 159.738 71.5202C159.762 71.593 159.738 71.6779 159.665 71.7022C159.616 71.7385 159.531 71.7143 159.495 71.6415Z" fill="#524432"/>
<path fill-rule="evenodd" clip-rule="evenodd" d="M159.629 72.0657C159.434 72.0657 159.253 71.9444 159.18 71.7624C157.628 68.5603 155.687 67.5171 152.898 68.3177C151.383 68.7543 150.764 69.3366 149.709 70.4282C149.612 70.5738 149.261 70.6465 149.054 70.501C148.836 70.3312 148.8 70.0401 148.957 69.8217C149.309 69.4579 149.624 69.1304 149.94 68.8514L148.751 67.5414C148.569 67.4322 148.472 67.2139 148.533 66.9956C148.594 66.7894 148.788 66.6317 149.006 66.6317L149.212 66.6681L149.273 66.7166C149.734 67.129 150.158 67.6142 150.57 68.0751L150.716 68.2328C151.116 67.9659 151.528 67.7597 152.025 67.5778L151.965 67.4565C151.783 67.1047 151.783 67.1168 151.601 66.7408L151.31 66.1465C151.249 65.9524 151.274 65.819 151.334 65.7098C151.407 65.6007 151.504 65.5158 151.637 65.4915L151.759 65.4794C151.977 65.4794 152.171 65.6371 152.232 65.8433L152.498 66.3527C152.668 66.6923 152.668 66.6923 152.85 67.0562L152.971 67.2867C153.359 67.1896 153.747 67.129 154.111 67.1047C154.111 66.85 154.099 66.6195 154.087 66.3769C154.075 66.0373 154.05 65.6977 154.075 65.2732C154.147 64.9942 154.329 64.8486 154.56 64.8486L154.681 64.8608C154.936 64.9335 155.093 65.2004 155.021 65.4551C155.021 65.7462 155.033 66.0373 155.045 66.3284C155.057 66.571 155.069 66.8136 155.069 67.1047C155.457 67.1411 155.833 67.2139 156.197 67.3352C156.245 67.2018 156.294 67.0805 156.342 66.947C156.451 66.6317 156.561 66.3163 156.815 65.8554C156.852 65.6734 157.046 65.5279 157.264 65.5279L157.385 65.54C157.64 65.6128 157.797 65.8796 157.725 66.1344L157.628 66.3891C157.494 66.7045 157.24 67.3109 157.07 67.7233C157.47 67.9538 157.834 68.2449 158.198 68.5845L158.343 68.3541C158.586 67.978 158.586 67.978 158.877 67.5899L159.216 67.1532C159.289 66.9834 159.471 66.8743 159.653 66.8743L159.786 66.8985C159.907 66.9349 160.017 67.0077 160.077 67.129C160.138 67.2382 160.162 67.3716 160.126 67.4929L160.065 67.6142L159.665 68.1479C159.386 68.5239 159.386 68.5239 159.143 68.8878L158.84 69.3365C158.949 69.4821 159.059 69.6277 159.168 69.7854L159.313 69.664C159.616 69.4093 159.616 69.4093 159.92 69.1425L160.392 68.7058C160.562 68.536 160.89 68.536 161.072 68.7301C161.253 68.912 161.253 69.2274 161.059 69.4093L160.562 69.8581C160.247 70.1371 160.247 70.1371 159.932 70.4039L159.677 70.6223C159.81 70.8649 159.944 71.1075 160.065 71.3622C160.174 71.629 160.053 71.908 159.81 72.0172L159.629 72.0657Z" fill="#5B5246"/>
<path fill-rule="evenodd" clip-rule="evenodd" d="M143.222 143.497C121.31 152.921 102.562 116.788 133.484 103.627C141.621 100.158 170.481 131.78 143.222 143.497Z" fill="#F0D899"/>
<path fill-rule="evenodd" clip-rule="evenodd" d="M134.563 133.975C135.024 134.036 135.546 131.962 134.03 132.459C133.46 132.653 133.836 133.417 134.151 133.708C134.321 133.866 134.321 133.951 134.563 133.975Z" fill="#9D7B51"/>
<path fill-rule="evenodd" clip-rule="evenodd" d="M199.329 82.5457C191.629 81.0659 171.936 82.8975 175.999 94.6267C183.383 99.3694 196.443 95.7062 199.329 82.5457Z" fill="#F0D899"/>
<path fill-rule="evenodd" clip-rule="evenodd" d="M133.69 75.2436C141.1 74.0913 142.082 81.0293 139.353 81.7571C127.664 84.8623 129.762 75.8622 133.69 75.2436Z" fill="#84746C"/>
<path fill-rule="evenodd" clip-rule="evenodd" d="M139.717 76.8811C139.293 77.0388 138.65 78.4095 138.432 78.555C138.31 77.8151 138.541 76.7477 138.298 75.7773C139.341 76.3353 139.729 76.8811 139.717 76.8811Z" fill="white"/>
<path fill-rule="evenodd" clip-rule="evenodd" d="M131.568 76.5418C131.993 76.6995 132.635 78.0701 132.853 78.2157C132.987 77.4758 132.744 76.4084 132.987 75.438C131.956 75.9838 131.568 76.5297 131.568 76.5418Z" fill="white"/>
<path fill-rule="evenodd" clip-rule="evenodd" d="M134.988 88.5256C136.249 88.7318 137.061 90.2359 136.782 91.8855C136.516 93.5351 135.267 94.6874 134.005 94.4812C132.744 94.275 131.932 92.7709 132.211 91.1334C132.478 89.4838 133.727 88.3194 134.988 88.5256Z" fill="#A1DAF8"/>
<path fill-rule="evenodd" clip-rule="evenodd" d="M137.11 89.4474C137.437 90.3935 137.522 91.4488 137.304 92.1159C136.358 95.0149 134.527 94.7359 142.7 99.0661C144.046 99.7818 148.048 101.225 149.467 96.9313C149.491 96.8949 148.387 95.5364 148.557 94.8087C148.739 94.0202 150.243 92.8437 150.182 91.9461C150.146 91.3275 148.678 90.2965 148.642 89.7143C148.606 89.1684 149.842 88.8288 149.745 88.3315C148.921 84.3166 145.732 82.1697 137.11 89.4474Z" fill="#A1DAF8"/>
<path fill-rule="evenodd" clip-rule="evenodd" d="M132.514 88.9257C131.908 89.7263 131.52 90.7088 131.52 91.4123C131.544 94.4689 133.363 94.7479 124.28 96.3975C122.777 96.6644 118.532 96.8342 118.484 92.322C118.472 92.2856 119.927 91.3274 120 90.5753C120.072 89.7748 118.993 88.1858 119.321 87.3489C119.551 86.7667 121.249 86.233 121.467 85.6872C121.661 85.1777 120.582 84.4863 120.824 84.0375C122.801 80.4593 126.499 79.3798 132.514 88.9257Z" fill="#A1DAF8"/>
</svg>
