<svg width="285" height="190" viewBox="0 0 285 190" fill="none" xmlns="http://www.w3.org/2000/svg">
<rect width="285" height="190" fill="#FFFC99"/>
<path fill-rule="evenodd" clip-rule="evenodd" d="M145.59 89.9539C132.013 108.39 116.383 127.434 102.93 145.092C83.9314 170.036 74.4942 168.348 94.6831 140.835C110.817 118.854 123.027 105.617 138.579 84.3688C154.766 62.2572 163.47 65.6645 145.59 89.9539Z" fill="#FCE3EE"/>
<path d="M84.533 163.09C83.7613 163.09 83.3885 162.678 83.2119 162.332C81.9824 159.918 86.1549 151.796 94.3626 140.599C102.453 129.573 109.64 120.653 116.585 112.02C123.426 103.518 130.502 94.7281 138.259 84.1334C144.897 75.0625 151.143 69.2026 154.171 69.2026C154.857 69.2026 155.367 69.4969 155.649 70.0594C156.924 72.5707 153.19 80.2813 145.904 90.1828C137.866 101.098 129.051 112.301 120.516 123.138C114.453 130.842 108.731 138.114 103.237 145.328C95.0231 156.119 87.6853 163.09 84.533 163.09ZM154.177 69.9874C151.895 69.9874 146.29 74.5065 138.9 84.5977C131.137 95.2055 124.054 104.002 117.207 112.51C110.261 121.136 103.08 130.057 95.0035 141.064C86.1418 153.143 83.0485 160.272 83.9183 161.979C83.9967 162.136 84.1341 162.306 84.5395 162.306C86.8481 162.306 93.4928 156.845 102.623 144.857C108.116 137.643 113.845 130.364 119.908 122.66C128.429 111.83 137.245 100.627 145.276 89.725C153.242 78.9079 155.877 72.2306 154.955 70.4191C154.857 70.2294 154.681 69.9874 154.177 69.9874Z" fill="#EA4E51"/>
<path fill-rule="evenodd" clip-rule="evenodd" d="M198.269 62.6365C210.022 77.3449 184.437 123.373 148.801 117.042C144.753 116.323 141.261 114.433 137.742 112.726C129.953 108.959 122.242 104.623 116.592 98.1223C113.315 94.3553 111.072 90.9742 109.47 87.2399C107.658 83.0347 106.736 78.339 107.573 71.3281C108.973 59.5366 113.57 51.4662 118.927 44.4619C133.131 25.9015 158.088 22.468 176.393 34.2073C180.435 36.7971 185.373 42.4934 188.263 48.0393C190.631 52.5846 191.246 57.1429 191.998 58.8564C194.999 60.5568 197.537 61.7144 198.269 62.6365Z" fill="#EA4E51"/>
<path d="M155.485 118.03C153.248 118.03 150.972 117.827 148.736 117.428C145.132 116.787 141.947 115.224 138.867 113.713L137.572 113.079C129.953 109.397 122.105 105.061 116.298 98.3837C112.929 94.5055 110.706 91.1178 109.11 87.3966C107.03 82.557 106.435 77.5866 107.181 71.2821C108.685 58.6404 113.806 50.5112 118.613 44.2263C126.99 33.2784 139.58 27 153.157 27C161.482 27 169.592 29.3806 176.609 33.8801C180.788 36.5614 185.726 42.3101 188.61 47.8625C190.199 50.9167 191.004 53.9578 191.586 56.1748C191.86 57.2016 192.076 58.0322 192.298 58.5815C193.109 59.0393 193.881 59.4579 194.594 59.8437C196.569 60.9097 197.995 61.6814 198.57 62.3943C202.959 67.8813 202.462 77.9594 197.275 88.6849C190.219 103.289 174.556 118.03 155.485 118.03ZM153.157 27.7848C139.828 27.7848 127.468 33.952 119.241 44.6971C114.493 50.897 109.444 58.915 107.959 71.3671C107.22 77.6063 107.776 82.3085 109.83 87.0761C111.393 90.7189 113.57 94.0412 116.886 97.8605C122.602 104.433 130.372 108.717 137.912 112.366L139.214 113.001C142.242 114.492 145.374 116.029 148.873 116.65C151.071 117.042 153.294 117.238 155.485 117.238C174.215 117.238 189.617 102.726 196.576 88.3383C201.631 77.8809 202.161 68.1299 197.969 62.8783C197.491 62.2831 196.059 61.5114 194.234 60.5239C193.482 60.1184 192.665 59.6737 191.808 59.1897L191.697 59.1243L191.644 59.0066C191.376 58.4049 191.141 57.5024 190.84 56.3644C190.265 54.1801 189.473 51.1913 187.923 48.2156C185.091 42.7744 180.265 37.1435 176.191 34.534C169.297 30.1196 161.332 27.7848 153.157 27.7848Z" fill="#D24138"/>
<path d="M154.831 118.39C143.851 118.39 122.079 105.545 116.291 98.3642C107.155 87.0304 105.265 79.3263 108.182 65.3831C110.006 56.6784 119.299 40.9695 127.141 35.7179C136.428 29.5049 145.584 26.7581 155.936 27.0851C164.465 27.3467 172.568 30.2439 178.159 35.0312C182.855 39.0533 186.282 43.1734 188.342 47.2871C190.225 51.0541 191.723 55.2789 192.357 58.6208C193.188 59.1898 194.123 59.6672 195.026 60.125C197.132 61.1976 199.316 62.3094 200.205 64.6376C203.332 72.7995 201.049 83.937 194.097 94.4206C186.7 105.578 172.633 117.736 155.335 118.39C155.165 118.39 155.001 118.39 154.831 118.39ZM154.321 27.8438C144.786 27.8438 136.245 30.5709 127.586 36.3719C119.882 41.5254 110.752 56.9793 108.953 65.5466C106.056 79.3787 107.842 86.6315 116.906 97.8802C122.661 105.022 144.988 117.971 155.309 117.605C172.306 116.964 186.151 104.983 193.443 93.989C200.258 83.7147 202.514 72.8453 199.473 64.9188C198.688 62.8718 196.733 61.8777 194.673 60.8248C194.006 60.4847 193.325 60.1381 192.671 59.7522C192.763 59.9877 192.861 60.2231 192.966 60.4651C193.103 60.7856 193.24 61.106 193.358 61.4526C196.772 71.2691 195.811 81.8115 190.722 90.3789C185.347 99.4302 175.739 105.539 163.667 107.586C150.789 109.757 138.311 107.062 129.404 100.182C121.654 94.1917 117.102 85.5459 116.232 75.1866C115.271 63.7416 120.686 51.7866 130.725 43.2127C139.155 36.0122 148.926 32.8468 156.859 34.7565L158.225 35.0835C166.368 37.039 169.114 37.693 176.55 43.1408C187.381 51.0737 189.643 73.2834 183.071 82.9299C174.307 95.794 171.43 97.429 155.034 98.8351C142.601 99.9142 129.548 89.908 125.911 76.573C122.334 63.4473 128.835 51.5053 143.308 44.6253C153.386 39.838 165.341 44.9785 172.188 51.78C179.382 58.9217 181.586 67.5806 178.1 74.9511C169.795 92.4847 155.891 94.3421 146.499 90.6078C137.16 86.8931 129.299 76.7038 133.125 65.1412C136.388 55.2593 144.086 52.434 152.359 50.2039C155.217 49.4322 158.866 50.3216 162.372 52.6368C166.165 55.1416 168.971 58.7058 169.356 61.5115C170.776 71.7858 167.787 78.9078 160.214 83.2765C153.817 86.9716 147.297 83.7539 143.949 79.2021C140.587 74.6372 139.652 67.7964 145.132 62.7999C148.134 60.0596 151.293 59.4514 154.033 61.0929C158.055 63.5062 159.913 69.778 158.873 73.7739C158.186 76.4161 156.375 77.9268 153.759 78.0183C150.469 78.1557 149.161 76.7104 148.67 75.4874C147.513 72.6098 149.547 68.313 150.992 67.0247C151.64 66.4492 152.097 66.508 152.366 66.6519C153.504 67.2666 154.125 67.9599 154.275 68.7643C154.478 69.8957 153.667 70.9945 152.935 71.8316L152.339 71.3149C153.255 70.275 153.608 69.5295 153.497 68.9016C153.399 68.3457 152.889 67.8226 151.993 67.3386C151.973 67.3321 151.816 67.3386 151.515 67.6067C150.214 68.7643 148.422 72.7668 149.396 75.1931C149.978 76.6319 151.404 77.312 153.732 77.2335C156.597 77.1289 157.696 75.1866 158.114 73.5712C159.167 69.5099 156.989 63.7678 153.628 61.76C151.182 60.2951 148.428 60.8509 145.662 63.3754C140.541 68.0449 141.431 74.4541 144.583 78.7378C147.729 83.0149 153.844 86.0494 159.821 82.5963C167.08 78.4042 169.945 71.5438 168.578 61.6161C168.225 59.059 165.498 55.632 161.934 53.2842C158.611 51.0933 155.191 50.2431 152.562 50.9494C144.197 53.2057 137.016 55.8544 133.871 65.3766C130.195 76.488 137.788 86.2849 146.793 89.8688C155.871 93.4788 169.324 91.6477 177.394 74.6045C180.736 67.5479 178.584 59.2225 171.639 52.3228C164.975 45.7109 153.379 40.6882 143.648 45.3185C129.548 52.022 123.197 63.6239 126.67 76.3572C130.215 89.3521 142.928 99.0639 154.968 98.0437C171.194 96.6507 173.764 95.1988 182.423 82.4786C188.819 73.0872 186.622 51.4792 176.086 43.762C168.781 38.4123 166.289 37.8107 158.049 35.8356L156.682 35.5086C149.102 33.6839 139.358 36.8624 131.241 43.7948C121.399 52.2051 116.082 63.9116 117.024 75.1081C117.874 85.245 122.321 93.7012 129.894 99.5479C138.625 106.297 150.894 108.939 163.542 106.801C175.386 104.793 184.804 98.8154 190.055 89.9669C195.019 81.6023 195.961 71.2953 192.619 61.6946C192.501 61.3676 192.377 61.0602 192.246 60.7594C192.024 60.2362 191.795 59.6934 191.658 59.0721C191.651 59.0656 191.645 59.0655 191.645 59.059L191.658 59.0459C191.651 59.0001 191.638 58.9609 191.631 58.9151C191.023 55.619 189.539 51.4007 187.649 47.6337C185.641 43.6116 182.279 39.5699 177.662 35.6198C172.208 30.9503 164.281 28.125 155.93 27.8634C155.374 27.8568 154.844 27.8438 154.321 27.8438Z" fill="#D24138"/>
<path fill-rule="evenodd" clip-rule="evenodd" d="M153.66 68.2546C154.576 67.751 158.108 66.6066 158.343 68.1761C158.644 70.1447 158.814 70.452 158.709 72.2963C158.611 74.1798 157.31 73.7221 155.583 73.0157C155.197 72.8588 152.392 71.3611 152.405 71.348C154.471 69.4841 153.118 68.5489 153.66 68.2546Z" fill="white"/>
<path d="M157.676 74.0161C157.061 74.0161 156.335 73.7349 155.446 73.3752C155.413 73.3621 152.097 71.8187 152.032 71.4132L151.993 71.2039L152.15 71.06C153.366 69.9613 153.248 69.2877 153.17 68.843C153.124 68.5814 153.046 68.1497 153.477 67.9143C154.046 67.6004 155.714 66.9922 156.996 66.9922C158.363 66.9922 158.677 67.6985 158.742 68.1236C158.807 68.5552 158.866 68.9019 158.919 69.2092C159.102 70.2949 159.193 70.8442 159.115 72.3223C159.03 73.7218 158.284 74.0161 157.676 74.0161ZM153.065 71.2628C153.87 71.6944 155.492 72.5511 155.74 72.6558C156.518 72.9762 157.205 73.2378 157.676 73.2378C157.911 73.2378 158.271 73.2379 158.323 72.2765C158.395 70.8835 158.317 70.3995 158.134 69.3401C158.081 69.0327 158.023 68.6729 157.957 68.2413C157.937 68.1236 157.885 67.777 156.989 67.777C155.943 67.777 154.504 68.2675 153.922 68.5683C153.929 68.6141 153.935 68.6664 153.948 68.7122C154.027 69.1962 154.177 70.066 153.065 71.2628Z" fill="#D24138"/>
<path fill-rule="evenodd" clip-rule="evenodd" d="M151.136 67.4041C150.659 66.665 150.868 60.0728 148.343 61.0995C145.819 62.1263 142.896 65.2917 142.732 66.5146C143.347 67.6853 147.761 70.334 149.148 70.9749C149.22 71.0076 149.468 69.9547 149.972 69.0391C150.443 68.1758 151.169 67.4433 151.136 67.4041Z" fill="white"/>
<path d="M149.154 71.3607L148.984 71.3214C147.814 70.7851 143.098 68.0383 142.385 66.6911L142.327 66.5799L142.34 66.4557C142.529 65.0234 145.642 61.7665 148.186 60.7267C148.409 60.6351 148.631 60.5894 148.84 60.5894C150.587 60.5894 150.946 63.5258 151.208 65.6709C151.28 66.2791 151.371 67.0312 151.463 67.1882C151.626 67.4432 151.47 67.6329 151.254 67.8945C151.012 68.1888 150.606 68.6727 150.312 69.2221C150.031 69.7322 149.835 70.3012 149.697 70.674C149.547 71.1318 149.462 71.3607 149.154 71.3607ZM143.151 66.4426C143.85 67.4497 147.336 69.6145 148.952 70.4385C148.952 70.432 148.958 70.4254 148.958 70.4124C149.102 70.0134 149.311 69.4118 149.619 68.8428C149.952 68.2346 150.403 67.6852 150.645 67.3909C150.659 67.3778 150.672 67.3582 150.685 67.3451C150.587 67.0377 150.528 66.5473 150.43 65.769C150.24 64.2321 149.893 61.3807 148.84 61.3807C148.736 61.3807 148.612 61.4068 148.487 61.4591C146.172 62.4074 143.471 65.2654 143.151 66.4426Z" fill="#D24138"/>
<path fill-rule="evenodd" clip-rule="evenodd" d="M143.805 76.6577C143.595 76.7623 143.164 76.8604 143.164 77.0566C143.157 78.8355 148.553 83.1846 148.906 82.923C149.351 82.5894 152.293 77.5733 152.15 77.534C150.613 77.1416 148.991 76.3765 148.88 74.6695C148.899 74.6565 145.185 75.9449 143.805 76.6577Z" fill="white"/>
<path d="M148.86 83.3286C148.206 83.3286 145.963 81.4124 144.897 80.3399C143.484 78.9272 142.771 77.822 142.771 77.0568C142.771 76.6448 143.19 76.4813 143.465 76.3766C143.523 76.3505 143.582 76.3309 143.628 76.3113C144.727 75.7423 148.644 74.2773 148.88 74.2773H149.246L149.272 74.6436C149.351 75.8404 150.318 76.6644 152.248 77.1549L152.49 77.2138L152.542 77.4623C152.653 78.0182 149.416 83.0344 149.148 83.2371L149.043 83.3156L148.86 83.3286ZM143.563 77.1876C143.778 78.646 147.774 82.0207 148.768 82.4981C149.298 81.8245 151.071 78.8422 151.613 77.7958C149.867 77.2661 148.84 76.3897 148.559 75.1995C147.546 75.5592 145.034 76.4682 143.981 77.011C143.916 77.0437 143.831 77.0764 143.746 77.1091C143.693 77.1287 143.622 77.1615 143.563 77.1876Z" fill="#D24138"/>
<path fill-rule="evenodd" clip-rule="evenodd" d="M156.845 76.4813C158.055 77.4688 161.286 82.1449 161.894 81.831C163.81 80.8303 166.989 76.9979 167.512 74.9182C167.741 73.9961 163.595 71.9949 162.659 71.6221C160.841 70.8896 159.474 70.8111 158.964 71.2689C158.448 71.7332 158.775 72.9366 158.173 74.5912C157.951 75.1994 157.408 75.8927 156.845 76.4813Z" fill="white"/>
<path d="M161.829 82.2366C161.26 82.2366 160.481 81.3472 158.696 79.1694C157.892 78.1818 157.055 77.1616 156.597 76.7888L156.27 76.5207L156.564 76.2133C157.192 75.5593 157.637 74.9315 157.813 74.4475C158.088 73.6824 158.16 73.0153 158.212 72.4725C158.278 71.825 158.33 71.3084 158.709 70.9748C159.37 70.3797 160.92 70.4909 162.816 71.256C162.869 71.2757 168.271 73.5385 167.904 75.01C167.375 77.1355 164.163 81.0921 162.09 82.1777L162.005 82.2235L161.829 82.2366ZM157.401 76.4553C157.911 76.9589 158.591 77.796 159.304 78.6658C160.135 79.6795 161.364 81.1902 161.809 81.4257C163.673 80.3793 166.668 76.6777 167.133 74.8138C167.067 74.2971 164.203 72.6556 162.515 71.9754C161.011 71.3672 159.599 71.2168 159.232 71.5503C159.082 71.6876 159.043 72.067 158.99 72.5509C158.932 73.133 158.86 73.8589 158.546 74.7157C158.323 75.3239 157.839 75.9648 157.401 76.4553Z" fill="#D24138"/>
<path fill-rule="evenodd" clip-rule="evenodd" d="M158.147 67.5026C159.88 66.4758 169.069 63.886 169.127 62.9965C169.311 60.1844 164.994 54.9393 162.548 53.2258C161.548 52.5261 157.264 56.5743 156.401 57.5356C154.7 59.4126 153.543 61.4727 154.341 61.8586C154.89 62.1267 157.146 63.9579 158.147 67.5026Z" fill="white"/>
<path d="M157.905 68.1045L157.768 67.614C156.787 64.1282 154.563 62.4082 154.171 62.2185C153.929 62.1008 153.765 61.885 153.713 61.6103C153.517 60.5966 154.825 58.7131 156.113 57.2809C156.623 56.7184 160.606 52.7617 162.254 52.7617C162.457 52.7617 162.633 52.814 162.777 52.9187C165.262 54.6583 169.716 60.0015 169.52 63.0295C169.474 63.7096 168.101 64.2851 163.052 66.0444C161.07 66.7311 159.03 67.4439 158.343 67.8494L157.905 68.1045ZM162.319 53.5531C161.194 53.5531 157.833 56.5418 156.695 57.804C155.191 59.4717 154.386 60.9759 154.484 61.4599C155.034 61.7672 157.271 63.5003 158.389 66.9469C159.324 66.5153 161.018 65.9201 162.797 65.3054C165.001 64.5402 168.297 63.3892 168.742 62.9183C168.827 60.3743 164.837 55.3123 162.319 53.5531C162.326 53.5531 162.319 53.5531 162.319 53.5531Z" fill="#D24138"/>
<path fill-rule="evenodd" clip-rule="evenodd" d="M149.39 60.7467C147.925 59.3667 144.962 53.2453 144.092 53.435C141.326 54.0301 136.114 58.6408 135.133 61.453C134.936 62.022 138.978 64.0755 139.979 64.566C142.255 65.6778 142.915 66.5672 143.072 65.6909C143.183 65.0892 145.603 62.2051 149.39 60.7467Z" fill="white"/>
<path d="M142.798 66.43C142.49 66.43 142.163 66.2338 141.575 65.8872C141.123 65.619 140.561 65.279 139.809 64.9127C134.426 62.2837 134.655 61.6362 134.76 61.3223C135.78 58.3989 141.051 53.6836 144.007 53.0492L144.132 53.0361C144.792 53.0361 145.538 54.148 147.205 56.8751C148.108 58.3532 149.043 59.8835 149.658 60.459L150.109 60.8841L149.527 61.1065C145.897 62.506 143.576 65.2659 143.458 65.7564C143.36 66.345 143 66.43 142.798 66.43ZM135.538 61.4792C135.872 61.9043 137.873 63.0946 140.149 64.2064C140.934 64.5923 141.535 64.952 141.973 65.2136C142.235 65.3705 142.516 65.5406 142.686 65.6125C142.843 64.7819 145.302 62.0809 148.716 60.5963C148.088 59.8312 147.33 58.5886 146.532 57.2871C145.721 55.966 144.498 53.9648 144.092 53.8144C141.561 54.3768 136.552 58.8371 135.538 61.4792Z" fill="#D24138"/>
<path fill-rule="evenodd" clip-rule="evenodd" d="M133.308 76.2075C133.301 77.9864 137.585 84.5067 137.938 84.2451C138.383 83.9116 144.446 79.1701 144.328 79.0655C143.491 78.3069 141.594 74.7099 141.718 72.9048C141.745 72.8917 133.308 75.7824 133.308 76.2075Z" fill="white"/>
<path d="M137.912 84.6438C137.709 84.6438 137.539 84.5065 137.389 84.3561C136.441 83.4012 132.902 77.9993 132.916 76.2073C132.916 75.2917 141.633 72.5122 141.725 72.5122H142.143L142.117 72.9308C142 74.6246 143.883 78.117 144.602 78.771L144.74 78.8952L144.733 79.0849C144.707 79.595 138.246 84.5065 138.18 84.5523L138.076 84.6307L137.912 84.6438ZM133.713 76.3643C133.916 77.9535 137.01 82.8715 137.912 83.774C138.926 82.9957 142.804 79.9416 143.798 79.0587C142.909 77.9796 141.522 75.2655 141.346 73.4474C139.671 74.0229 134.59 75.828 133.713 76.3643Z" fill="#D24138"/>
<path fill-rule="evenodd" clip-rule="evenodd" d="M150.286 91.0269C151.777 92.0013 159.579 91.7659 159.553 91.3277C159.52 90.7784 158.899 83.519 158.755 83.5583C157.663 83.8395 153.111 84.9447 151.62 84.1141C151.62 84.088 149.926 90.7915 150.286 91.0269Z" fill="white"/>
<path d="M155.642 92.0989C154.308 92.0989 151.097 92.027 150.07 91.3534C149.331 90.8694 151.221 84.0679 151.241 84.0025L151.326 83.7212H151.724L151.816 83.7735C152.025 83.8913 152.457 84.0286 153.333 84.0286C155.25 84.0286 157.892 83.3812 158.657 83.185L158.755 83.1719C158.958 83.2177 159.429 83.1653 159.945 91.3076L159.958 91.4776L159.828 91.6346C159.442 92.0401 157.041 92.0989 155.642 92.0989ZM150.626 90.7648C151.332 91.1048 153.255 91.3141 155.648 91.3141C157.395 91.3141 158.67 91.2029 159.141 91.0983C159.043 89.8361 158.644 85.3301 158.454 84.0352C157.009 84.3883 153.399 85.0881 151.881 84.6434C151.535 86.0233 150.619 89.9211 150.626 90.7648Z" fill="#D24138"/>
<path fill-rule="evenodd" clip-rule="evenodd" d="M166.662 76.7625C167.872 77.75 172.75 82.583 173.267 82.1252C174.797 80.778 177.1 76.7886 177.852 74.9116C178.205 74.0287 173.934 71.9883 172.999 71.6155C171.181 70.883 169.01 70.1898 168.859 70.8569C168.617 71.9294 168.114 73.2636 167.512 74.9116C167.29 75.5329 167.231 76.1739 166.662 76.7625Z" fill="white"/>
<path d="M173.176 82.5504C172.522 82.5504 171.05 81.3013 168.002 78.4892C167.316 77.8548 166.734 77.325 166.42 77.0634L166.093 76.7953L166.387 76.4879C166.747 76.1152 166.858 75.7228 166.995 75.265C167.041 75.1015 167.093 74.9314 167.152 74.7679L167.335 74.2774C167.859 72.8386 168.271 71.7007 168.486 70.7655C168.532 70.5496 168.722 70.1899 169.435 70.1899C170.35 70.1899 171.966 70.7655 173.162 71.2494C173.221 71.2756 178.82 73.5842 178.231 75.0557C177.427 77.0634 175.105 81.0332 173.542 82.4131C173.463 82.4785 173.346 82.5504 173.176 82.5504ZM167.211 76.7168C167.551 77.0111 168.009 77.4362 168.532 77.9202C169.807 79.0908 172.397 81.4779 173.104 81.746C174.562 80.3792 176.74 76.6187 177.479 74.7745C177.387 74.2709 174.529 72.662 172.849 71.9819C171.272 71.3475 170.023 70.9813 169.415 70.9813C169.245 70.9813 169.193 71.014 169.193 71.014C169.01 71.9361 168.591 73.0937 168.055 74.5586L167.878 75.0491C167.826 75.1995 167.78 75.3434 167.734 75.4938C167.63 75.8797 167.499 76.3048 167.211 76.7168Z" fill="#D24138"/>
<path fill-rule="evenodd" clip-rule="evenodd" d="M169.291 65.9391C171.024 64.9123 178.061 63.2316 178.12 62.3421C178.303 59.5299 174.602 54.1083 172.195 52.3425C170.782 51.3026 165.328 54.8146 166.113 56.6785C167.015 58.8171 168.408 60.7398 168.958 63.2381C169.167 64.1995 169.056 65.0954 169.291 65.9391Z" fill="white"/>
<path d="M169.049 66.5409L168.912 66.0504C168.774 65.5664 168.742 65.0694 168.715 64.592C168.689 64.18 168.663 63.7549 168.572 63.3232C168.225 61.7406 167.512 60.3606 166.819 59.0265C166.453 58.3136 166.073 57.5811 165.753 56.8356C165.602 56.4693 165.537 55.8611 166.099 55.0109C167.172 53.4021 169.893 51.7671 171.501 51.7671C171.881 51.7671 172.195 51.8587 172.43 52.0287C174.863 53.8141 178.708 59.3862 178.512 62.3684C178.466 63.0812 177.106 63.5914 173.509 64.7751C171.874 65.3114 170.187 65.8673 169.494 66.2793L169.049 66.5409ZM171.501 52.5519C170.154 52.5519 167.669 54.0692 166.753 55.4426C166.551 55.75 166.335 56.1947 166.472 56.5282C166.78 57.2476 167.133 57.9343 167.512 58.6668C168.231 60.0467 168.97 61.4724 169.337 63.1597C169.441 63.6437 169.468 64.1015 169.5 64.5462C169.513 64.8274 169.533 65.1021 169.572 65.3637C170.442 64.9648 171.822 64.5135 173.267 64.0361C174.948 63.4867 177.486 62.6496 177.747 62.2507C177.904 59.6543 174.261 54.3569 171.966 52.6696C171.868 52.5911 171.704 52.5519 171.501 52.5519Z" fill="#D24138"/>
<path fill-rule="evenodd" clip-rule="evenodd" d="M157.526 50.76C157.486 48.7457 159.069 44.8675 158.323 44.377C155.963 42.827 149.259 42.6178 146.532 43.8277C144.93 44.5405 145.44 51.741 147.448 51.9764C148.618 52.1138 150.286 51.2898 151.947 50.9889C154.367 50.5573 156.774 50.5769 157.526 50.76Z" fill="white"/>
<path d="M147.729 52.3885C147.618 52.3885 147.513 52.382 147.408 52.3689C145.996 52.1989 145.492 49.8314 145.335 48.8242C145.054 46.9799 145.106 44.037 146.375 43.4745C147.539 42.9579 149.455 42.6636 151.62 42.6636C153.942 42.6636 156.983 43.0298 158.546 44.0566C159.167 44.4621 158.938 45.5477 158.461 47.5882C158.199 48.6869 157.911 49.9229 157.925 50.7535L157.931 51.2636L157.434 51.1394C157.146 51.0674 156.564 51.0217 155.871 51.0217C154.655 51.0217 153.255 51.1459 152.019 51.3683C151.385 51.4794 150.75 51.6756 150.129 51.8653C149.266 52.14 148.448 52.3885 147.729 52.3885ZM151.62 43.4418C149.56 43.4418 147.761 43.71 146.695 44.1874C146.133 44.4359 145.767 46.424 146.113 48.7065C146.368 50.3611 146.924 51.5187 147.5 51.5906C147.572 51.5972 147.65 51.6037 147.729 51.6037C148.33 51.6037 149.096 51.3748 149.9 51.1263C150.541 50.9301 151.201 50.7274 151.882 50.6096C153.628 50.2957 155.132 50.25 155.871 50.25C156.368 50.25 156.806 50.2696 157.146 50.3088C157.212 49.4521 157.454 48.4187 157.689 47.4116C157.918 46.4371 158.271 44.9591 158.088 44.691C156.944 43.9389 154.393 43.4418 151.62 43.4418Z" fill="#D24138"/>
<path fill-rule="evenodd" clip-rule="evenodd" d="M139.776 55.5667C138.226 54.2783 135.793 49.8246 135.015 50.2497C132.863 51.4269 128.9 57.3651 127.468 59.8046C126.578 61.3087 133.792 66.1483 133.89 64.134C133.962 62.5252 138.278 56.4365 139.776 55.5667Z" fill="white"/>
<path d="M133.308 65.0042C131.778 65.0042 128.22 62.6105 127.259 60.9363C126.958 60.4066 126.912 59.9553 127.121 59.5956C128.128 57.8887 132.386 51.231 134.819 49.8968C134.91 49.8445 135.015 49.8184 135.126 49.8184C135.78 49.8184 136.5 50.7601 137.814 52.5586C138.592 53.6246 139.397 54.7299 140.025 55.2531L140.456 55.6128L139.972 55.894C138.494 56.7507 134.348 62.7675 134.276 64.1409C134.25 64.6772 133.877 65.0042 133.308 65.0042ZM135.113 50.6097C133.151 51.7084 129.26 57.5224 127.801 59.9945C127.749 60.0861 127.801 60.2954 127.945 60.5505C128.815 62.0612 132.157 64.2194 133.308 64.2194C133.491 64.2194 133.491 64.1867 133.498 64.1082C133.576 62.4601 137.343 57.0712 139.168 55.5277C138.553 54.8999 137.86 53.9516 137.186 53.0295C136.5 52.0943 135.466 50.6816 135.113 50.6097Z" fill="#D24138"/>
<path fill-rule="evenodd" clip-rule="evenodd" d="M132.556 71.8056C130.535 71.871 125.591 70.5564 125.401 71.4197C125.048 73.0482 126.343 77.2141 127.651 80.3729C128.187 81.6613 128.822 82.6815 129.201 83.4532C129.966 85.0228 136.702 82.5049 135.433 80.9354C134.433 79.6862 132.02 73.4471 132.556 71.8056Z" fill="white"/>
<path d="M130.45 84.3426C129.417 84.3426 129.011 83.9502 128.854 83.6232C128.73 83.3747 128.58 83.0935 128.416 82.7861C128.083 82.1713 127.664 81.3996 127.298 80.5233C126.258 78.0184 124.61 73.2639 125.022 71.3412C125.153 70.7329 125.996 70.7329 126.317 70.7329C127.102 70.7329 128.207 70.8964 129.378 71.073C130.496 71.243 131.653 71.4131 132.412 71.4131L133.112 71.3935L132.935 71.9232C132.451 73.3947 134.806 79.5161 135.747 80.6868C136.022 81.0334 136.068 81.4519 135.872 81.8639C135.264 83.1196 132.255 84.3426 130.45 84.3426ZM125.774 71.57C125.499 73.1331 126.735 77.129 128.017 80.2224C128.364 81.0661 128.756 81.7789 129.096 82.4133C129.273 82.7338 129.43 83.0215 129.554 83.2831C129.639 83.4531 129.973 83.5578 130.444 83.5578C132.085 83.5578 134.727 82.4198 135.152 81.5238C135.231 81.3603 135.198 81.2688 135.126 81.1773C134.211 80.0393 131.961 74.4934 132.092 72.1848C131.3 72.1521 130.26 71.9951 129.253 71.8447C128.161 71.6812 127.03 71.5112 126.31 71.5112C125.983 71.5177 125.833 71.5504 125.774 71.57Z" fill="#D24138"/>
<path fill-rule="evenodd" clip-rule="evenodd" d="M145.734 89.856C144.616 91.5302 141.025 95.1468 141.764 95.6373C145.884 98.371 151.96 98.3514 154.981 98.4364C156.734 98.4822 156.924 91.5825 154.903 91.7002C153.307 91.7983 146.767 91.249 145.734 89.856Z" fill="white"/>
<path d="M155.001 98.8288L154.412 98.8157C151.306 98.7437 145.518 98.6064 141.548 95.9708C141.404 95.8727 141.306 95.7223 141.28 95.5392C141.189 94.8852 142 93.8257 143.752 91.7264C144.419 90.9285 145.047 90.1764 145.4 89.6401L145.708 89.1758L146.041 89.627C146.813 90.6669 152.006 91.3275 154.471 91.3275C154.628 91.3275 154.766 91.3209 154.877 91.3144H154.883C155.387 91.3144 155.982 91.5367 156.381 92.5831C156.616 93.211 156.747 94.0611 156.747 94.9767C156.754 96.8864 156.211 98.8288 155.001 98.8288ZM142.065 95.3691C145.845 97.8282 151.424 97.959 154.432 98.0309L155.001 98.044L155.008 98.4364V98.044C155.465 98.044 155.969 96.7295 155.969 94.9702C155.969 94.1462 155.858 93.3941 155.655 92.8578C155.524 92.5112 155.295 92.0926 154.962 92.0926C154.811 92.0992 154.661 92.1057 154.484 92.1057C153.399 92.1057 147.644 91.7918 145.806 90.4511C145.427 90.9677 144.91 91.5825 144.374 92.23C143.53 93.2175 142.17 94.8525 142.065 95.3691Z" fill="#D24138"/>
<path fill-rule="evenodd" clip-rule="evenodd" d="M164.517 89.5285C164.804 91.5232 165.969 96.8925 166.845 96.7683C171.743 96.0685 175.458 92.0006 177.145 89.7705C178.198 88.3775 173.287 82.3738 171.861 83.8061C170.743 84.9375 165.884 89.1427 164.517 89.5285Z" fill="white"/>
<path d="M166.819 97.1608C165.269 97.1608 164.144 89.6594 164.131 89.5809L164.079 89.2409L164.412 89.1493C165.629 88.8092 170.37 84.7545 171.593 83.525C171.809 83.3026 172.097 83.1914 172.424 83.1914C173.987 83.1914 176.308 85.8336 177.217 87.6517C177.754 88.7242 177.839 89.5155 177.466 89.9995C175.68 92.3604 171.933 96.4348 166.904 97.1477L166.819 97.1608ZM164.955 89.7772C165.367 92.4128 166.328 95.9705 166.852 96.3694C171.567 95.6696 175.131 91.7915 176.838 89.5286C176.962 89.3651 176.949 88.8681 176.518 87.9983C175.556 86.0755 173.418 83.9697 172.424 83.9697C172.306 83.9697 172.221 84.0023 172.149 84.0743C171.161 85.0749 166.747 88.94 164.955 89.7772Z" fill="#D24138"/>
<path fill-rule="evenodd" clip-rule="evenodd" d="M178.552 72.708C179.755 73.6956 184.869 77.9335 185.176 77.3187C185.641 76.39 186.014 73.6367 186.171 71.1057C186.282 69.4119 186.21 67.8031 186.328 66.9529C186.458 65.998 181.56 64.1668 179.192 65.1478C178.918 65.259 179.291 66.397 179.304 67.293C179.33 69.3858 178.944 72.296 178.552 72.708Z" fill="white"/>
<path d="M185.052 77.7702C184.562 77.7702 183.43 77.2143 178.525 73.1922L177.976 72.7409L178.27 72.4336C178.532 72.1066 178.937 69.4906 178.911 67.2932C178.905 66.9662 178.846 66.5803 178.794 66.2468C178.676 65.5077 178.591 64.9715 179.042 64.7884C179.539 64.5856 180.154 64.481 180.86 64.481C183.071 64.481 185.732 65.4881 186.465 66.3187C186.668 66.5476 186.753 66.7765 186.72 67.0054C186.661 67.4305 186.648 68.078 186.642 68.83C186.628 69.5298 186.615 70.3146 186.57 71.1256C186.426 73.3949 186.066 76.4229 185.53 77.489C185.438 77.6721 185.262 77.7702 185.052 77.7702ZM179.049 72.6102C183.058 75.8998 184.438 76.7696 184.908 76.9527C185.262 76.0109 185.615 73.6827 185.778 71.0863C185.831 70.2885 185.844 69.5167 185.85 68.83C185.863 68.0518 185.87 67.3847 185.935 66.9073C185.811 66.4822 183.228 65.2658 180.86 65.2658C180.324 65.2658 179.86 65.3312 179.48 65.462C179.487 65.6255 179.533 65.9067 179.565 66.129C179.624 66.4953 179.69 66.9008 179.69 67.2866C179.716 68.9151 179.467 71.5507 179.049 72.6102Z" fill="#D24138"/>
<path fill-rule="evenodd" clip-rule="evenodd" d="M175.811 56.4628C177.545 55.436 183.607 54.2588 183.496 53.3759C183.13 50.4853 178.663 45.4168 176.727 43.736C175.406 42.5915 167.754 47.2872 168.539 49.1446C168.631 49.3669 170.488 50.5833 172.195 52.3426C173.98 54.1803 175.785 56.417 175.811 56.4628Z" fill="white"/>
<path d="M175.694 56.9859L175.491 56.6851C175.34 56.4889 173.588 54.3373 171.914 52.6172C170.867 51.5447 169.775 50.6749 169.049 50.1059C168.402 49.5958 168.245 49.465 168.173 49.2949C167.99 48.8568 168.094 48.3336 168.493 47.7319C169.801 45.7699 174.137 43.167 176.099 43.167C176.472 43.167 176.766 43.2585 176.975 43.4417C178.846 45.057 183.483 50.204 183.875 53.3235C183.973 54.0887 182.796 54.5204 179.663 55.4752C178.205 55.9199 176.701 56.3777 176.001 56.7963L175.694 56.9859ZM176.106 43.9518C174.399 43.9518 170.311 46.4369 169.154 48.17C168.918 48.5297 168.827 48.8175 168.899 49.0006C168.931 49.0202 169.239 49.2622 169.533 49.4977C170.272 50.0797 171.39 50.9626 172.476 52.0744C173.928 53.5655 175.373 55.2986 175.916 55.9657C176.753 55.5537 178.12 55.1417 179.441 54.7362C180.775 54.3242 182.776 53.7159 183.097 53.3628C182.704 50.701 178.532 45.8222 176.472 44.0368C176.439 44.0107 176.348 43.9518 176.106 43.9518Z" fill="#D24138"/>
<path fill-rule="evenodd" clip-rule="evenodd" d="M160.71 44.8414C160.671 42.8271 162.672 37.3269 161.927 36.8365C159.566 35.2865 153.641 34.3055 150.423 34.6652C148.683 34.8614 147.931 43.0494 149.952 43.1083C155.06 43.2652 155.734 43.2391 160.71 44.8414Z" fill="white"/>
<path d="M161.109 45.378L160.586 45.2079C155.825 43.6776 155.106 43.6514 150.423 43.5141L149.939 43.501C148.997 43.4749 148.435 42.3696 148.356 40.3945C148.258 38.0009 148.919 34.4431 150.377 34.2796C150.835 34.2273 151.352 34.2012 151.914 34.2012C155.138 34.2012 159.965 35.0841 162.136 36.5098C162.725 36.8957 162.515 38.0467 161.803 40.9897C161.443 42.4677 161.077 43.998 161.09 44.8286L161.109 45.378ZM151.921 34.986C151.384 34.986 150.9 35.0121 150.469 35.0579C149.828 35.1298 149.037 37.8178 149.141 40.3618C149.207 41.9772 149.599 42.7097 149.965 42.7228L150.443 42.7358C154.955 42.8666 155.897 42.8993 160.338 44.312C160.429 43.3702 160.743 42.0753 161.044 40.8066C161.364 39.4789 161.848 37.4777 161.665 37.118C159.729 35.8623 155.047 34.986 151.921 34.986Z" fill="#D24138"/>
<path fill-rule="evenodd" clip-rule="evenodd" d="M142.915 45.2335C141.509 43.7881 139.109 38.1115 138.291 38.4581C135.767 39.5306 131.111 43.0622 129.011 45.5082C127.873 46.8358 132.078 52.7283 133.602 51.3942C137.435 48.0326 138.18 47.444 142.915 45.2335Z" fill="white"/>
<path d="M133.066 51.9828C131.601 51.9828 129.665 49.5434 128.887 47.8561C128.501 47.0256 128.161 45.8942 128.711 45.2532C130.862 42.7484 135.525 39.2038 138.141 38.0985L138.37 38.0527C139.024 38.0527 139.665 39.0795 141.078 41.6105C141.836 42.9708 142.621 44.3703 143.196 44.9655L143.582 45.3579L143.085 45.5933C138.377 47.7973 137.618 48.4055 133.857 51.6951C133.635 51.8847 133.36 51.9828 133.066 51.9828ZM138.37 38.8506C135.872 39.9428 131.333 43.4024 129.306 45.7633C129.149 45.9465 129.136 46.5154 129.6 47.5291C130.437 49.3472 132.19 51.198 133.066 51.198C133.177 51.198 133.262 51.1654 133.334 51.1C137.042 47.8561 137.886 47.1694 142.281 45.0897C141.705 44.3376 141.038 43.1474 140.384 41.9833C139.743 40.8322 138.776 39.0991 138.37 38.8506Z" fill="#D24138"/>
<path fill-rule="evenodd" clip-rule="evenodd" d="M127.468 60.897C125.48 60.5635 120.176 57.3982 119.718 58.1633C118.318 60.5177 116.886 66.2663 116.644 69.4775C116.513 71.2171 125.525 73.4276 125.395 71.4133C125.094 66.4429 125.493 65.6385 127.468 60.897Z" fill="white"/>
<path d="M123.733 72.6098C121.536 72.6098 117.749 71.5372 116.631 70.3338C116.363 70.0461 116.239 69.7518 116.258 69.451C116.5 66.2202 117.952 60.3735 119.384 57.9602C119.469 57.8164 119.646 57.6528 120.025 57.6528C120.751 57.6528 122.177 58.3003 123.832 59.0589C125.251 59.7064 126.716 60.3735 127.533 60.5108L128.024 60.5958L127.67 61.4395C125.826 65.854 125.499 66.6453 125.794 71.3998C125.807 71.668 125.722 71.9165 125.538 72.1062C125.225 72.4463 124.629 72.6098 123.733 72.6098ZM120.019 58.4376C118.652 60.8051 117.278 66.3968 117.043 69.5098C117.036 69.5817 117.095 69.6864 117.207 69.7975C118.089 70.7458 121.569 71.825 123.733 71.825C124.656 71.825 124.911 71.6287 124.969 71.5633C124.996 71.5306 125.015 71.5045 125.009 71.4391C124.701 66.521 125.087 65.5858 126.931 61.1713C126.016 60.9097 124.741 60.3343 123.511 59.7718C122.138 59.144 120.588 58.4376 120.032 58.4376C120.025 58.4376 120.019 58.4376 120.019 58.4376Z" fill="#D24138"/>
<path fill-rule="evenodd" clip-rule="evenodd" d="M128.795 82.7271C127.311 84.0939 119.862 87.5405 120.189 88.3645C121.202 90.9085 124.826 95.6762 127.232 97.8278C128.534 98.992 137.67 92.9621 136.055 91.7522C132.118 88.8092 131.509 87.0696 128.795 82.7271Z" fill="white"/>
<path d="M127.743 98.3707C127.416 98.3707 127.154 98.2857 126.971 98.1222C124.649 96.0425 120.895 91.2029 119.823 88.515C119.548 87.8152 120.588 87.1089 124.584 84.8723C126.232 83.9436 127.939 82.9888 128.527 82.4459L128.874 82.1255L129.122 82.5244C129.58 83.2569 129.979 83.9174 130.345 84.5256C132.105 87.4425 133.073 89.0448 136.284 91.4449C136.611 91.6869 136.715 92.0793 136.565 92.524C135.95 94.3748 129.927 98.3707 127.743 98.3707ZM120.594 88.3123C121.601 90.7255 125.048 95.3362 127.5 97.5336C127.507 97.5402 127.559 97.5794 127.749 97.5794C129.574 97.5794 135.316 93.8059 135.826 92.2624C135.878 92.1055 135.846 92.0793 135.819 92.0597C132.484 89.568 131.49 87.9133 129.678 84.918C129.377 84.421 129.057 83.8913 128.697 83.3092C127.899 83.9044 126.467 84.7022 124.97 85.5459C123.354 86.4549 120.941 87.8087 120.594 88.3123Z" fill="#D24138"/>
<path fill-rule="evenodd" clip-rule="evenodd" d="M149.318 98.2008C149.239 100.215 146.604 106.762 147.421 107.108C149.946 108.187 156.924 107.834 160.155 107.658C161.901 107.559 163.019 97.5337 161.018 97.8215C156.146 98.5213 154.458 99.0314 149.318 98.2008Z" fill="white"/>
<path d="M154.151 108.246C150.75 108.246 148.501 107.991 147.271 107.468C146.545 107.161 146.852 105.886 147.905 102.328C148.396 100.693 148.899 98.999 148.926 98.1815L148.945 97.7368L149.383 97.8087C153.549 98.4823 155.524 98.2534 159.134 97.7041C159.697 97.619 160.299 97.5275 160.959 97.4359L161.096 97.4229C161.953 97.4229 162.411 98.4365 162.47 100.438C162.542 103.047 161.816 107.959 160.174 108.044C158.997 108.116 156.545 108.246 154.151 108.246ZM147.657 106.782C148.795 107.233 150.979 107.468 154.144 107.468C156.519 107.468 158.951 107.337 160.129 107.272C160.75 107.239 161.777 103.793 161.685 100.47C161.639 98.8289 161.299 98.2142 161.096 98.2142C160.41 98.3123 159.815 98.4038 159.252 98.4888C157.179 98.8027 155.688 99.0317 153.922 99.0317C152.66 99.0317 151.332 98.9139 149.665 98.6589C149.527 99.6137 149.102 101.046 148.651 102.557C148.213 104.035 147.559 106.252 147.657 106.782Z" fill="#D24138"/>
<path fill-rule="evenodd" clip-rule="evenodd" d="M172.391 94.447C172.679 96.4417 175.504 103.498 176.302 103.106C180.991 100.797 184.712 97.7497 186.399 95.5196C187.452 94.1266 180.337 86.6187 178.911 88.0444C177.786 89.1824 173.758 94.0612 172.391 94.447Z" fill="white"/>
<path d="M176.236 103.512C174.85 103.512 172.221 95.9906 172.005 94.4995L171.953 94.1594L172.286 94.0679C173.202 93.8128 175.877 90.8175 177.315 89.2087C177.878 88.5808 178.349 88.0511 178.636 87.7699C178.826 87.5737 179.094 87.4756 179.402 87.4756C181.337 87.4756 185.386 91.6285 186.543 93.9436C186.955 94.7677 187.014 95.3628 186.72 95.7552C184.771 98.3319 180.749 101.36 176.478 103.459L176.4 103.498L176.236 103.512ZM172.836 94.6891C173.287 96.8997 175.484 102.099 176.243 102.707C181.246 100.228 184.673 97.1678 186.092 95.2908C186.144 95.2255 186.157 94.9311 185.844 94.3033C184.66 91.9358 180.749 88.2669 179.402 88.2669C179.258 88.2669 179.212 88.3127 179.192 88.3323C178.911 88.6135 178.453 89.1302 177.904 89.7449C175.798 92.0928 173.947 94.1005 172.836 94.6891Z" fill="#D24138"/>
<path fill-rule="evenodd" clip-rule="evenodd" d="M184.536 79.2087C185.739 80.1962 193.064 84.1268 193.371 83.512C193.835 82.5833 194.568 79.7777 194.731 77.2533C194.843 75.5594 194.771 73.9506 194.888 73.1004C195.019 72.1456 188.584 69.281 186.21 70.2555C185.935 70.3667 185.471 78.2343 184.536 79.2087Z" fill="white"/>
<path d="M193.201 83.9694C191.828 83.9694 185.281 80.3266 184.287 79.5157L183.96 79.2475L184.254 78.9402C184.758 78.4104 185.203 74.6826 185.438 72.6749C185.739 70.1439 185.765 70.0196 186.066 69.8954C186.439 69.745 186.903 69.6665 187.446 69.6665C190.081 69.6665 194.097 71.4258 195.026 72.4852C195.228 72.7141 195.313 72.9365 195.287 73.1523C195.228 73.5774 195.215 74.2314 195.209 74.9835C195.202 75.6767 195.189 76.468 195.137 77.2724C194.967 79.9408 194.202 82.7595 193.737 83.6882C193.672 83.7928 193.534 83.9694 193.201 83.9694ZM185.065 79.1102C186.648 80.2089 191.893 82.9949 193.096 83.1781C193.541 82.1513 194.188 79.5615 194.339 77.2267C194.391 76.4354 194.404 75.6571 194.411 74.977C194.424 74.1987 194.43 73.5251 194.496 73.0477C194.287 72.4918 190.166 70.4513 187.439 70.4513C187.073 70.4513 186.766 70.4905 186.511 70.569C186.432 70.9221 186.321 71.8966 186.216 72.773C185.87 75.7094 185.556 78.09 185.065 79.1102Z" fill="#D24138"/>
<path fill-rule="evenodd" clip-rule="evenodd" d="M185.706 60.2229C187.21 60.6415 192.612 62.0214 192.913 61.4067C193.332 60.563 190.291 52.5646 189.643 51.1455C189.244 50.2691 181.978 49.2685 182.94 51.6425C183.28 52.4862 183.483 53.2317 183.796 54.1342C184.64 56.6129 185.647 59.1177 185.706 60.2229Z" fill="white"/>
<path d="M192.318 61.9501C190.788 61.9501 186.949 60.9756 185.602 60.5963L185.327 60.5178L185.314 60.2366C185.275 59.478 184.699 57.8626 184.091 56.1622C183.868 55.5409 183.64 54.8935 183.424 54.2526C183.319 53.9517 183.228 53.664 183.143 53.3893C182.966 52.8465 182.802 52.3363 182.58 51.7804C182.358 51.2311 182.495 50.8452 182.652 50.6163C183.031 50.0539 183.96 49.7661 185.399 49.7661C186.766 49.7661 189.617 50.1324 190.003 50.976C190.042 51.0676 193.862 60.3674 193.266 61.5708C193.103 61.9043 192.678 61.9501 192.318 61.9501ZM186.072 59.9161C187.511 60.302 190.977 61.1653 192.325 61.1653C192.449 61.1653 192.527 61.1588 192.58 61.1522C192.645 60.0143 190.062 52.9903 189.29 51.303C189.087 51.0611 187.289 50.5575 185.399 50.5575C184.104 50.5575 183.463 50.8191 183.299 51.0611C183.267 51.1068 183.195 51.218 183.306 51.4927C183.541 52.0682 183.705 52.5979 183.888 53.1604C183.973 53.4285 184.065 53.7097 184.169 54.0106C184.385 54.6515 184.614 55.2924 184.836 55.9137C185.418 57.5552 185.935 59.0006 186.072 59.9161Z" fill="#D24138"/>
<path fill-rule="evenodd" clip-rule="evenodd" d="M173.365 41.3814C173.836 39.5764 177.747 35.3777 177.204 34.7499C175.484 32.7748 169.245 30.1065 166.289 29.6291C164.687 29.3675 161.96 36.4895 163.745 37.0454C168.264 38.4646 169.33 38.7131 173.365 41.3814Z" fill="white"/>
<path d="M173.607 42.0154L173.15 41.7146C169.383 39.2228 168.218 38.8566 164.353 37.6533L163.634 37.4309C163.124 37.2739 162.574 36.7115 162.843 34.9326C163.143 32.9772 164.687 29.2363 166.204 29.2363L166.355 29.2494C169.245 29.7203 175.648 32.369 177.505 34.501C177.969 35.0373 177.335 35.9725 175.857 38.0391C174.968 39.2817 173.954 40.6943 173.751 41.4857L173.607 42.0154ZM166.224 30.0146C165.498 30.0146 163.961 32.7614 163.614 35.0438C163.477 35.9463 163.575 36.5807 163.863 36.6723L164.582 36.8946C168.382 38.0783 169.631 38.4707 173.163 40.7793C173.562 39.8834 174.399 38.7127 175.21 37.5748C175.89 36.633 176.805 35.3512 176.858 34.9523C175.197 33.1276 169.245 30.5051 166.224 30.0146Z" fill="#D24138"/>
<path fill-rule="evenodd" clip-rule="evenodd" d="M149.769 34.7303C149.082 32.9907 149.671 27.7784 148.847 27.7719C146.421 27.7457 140.077 29.106 137.402 30.4532C135.95 31.1792 137.513 38.5366 139.292 37.9415C143.785 36.4308 144.929 34.9331 149.769 34.7303Z" fill="white"/>
<path d="M139.089 38.3665C137.722 38.3665 136.97 35.6786 136.774 34.8546C136.676 34.4425 135.852 30.7933 137.225 30.1C139.913 28.7528 146.211 27.3794 148.775 27.3794C149.671 27.3925 149.704 28.707 149.762 30.8848C149.795 32.2713 149.841 33.8409 150.135 34.5864L150.338 35.0965L149.789 35.1227C146.643 35.2535 145.08 35.9533 143.105 36.8362C142.091 37.2875 140.94 37.8041 139.423 38.3142C139.312 38.3469 139.2 38.3665 139.089 38.3665ZM148.742 28.1642C146.159 28.1969 140.077 29.5441 137.579 30.7998C137.219 30.9829 137.029 32.546 137.533 34.678C137.964 36.4961 138.664 37.5818 139.083 37.5818C139.109 37.5818 139.135 37.5752 139.161 37.5687C140.646 37.0716 141.777 36.5615 142.778 36.1233C144.727 35.2535 146.283 34.5603 149.246 34.3706C149.036 33.4616 149.004 32.1667 148.971 30.911C148.951 29.8908 148.912 28.5239 148.742 28.1642Z" fill="#D24138"/>
<path fill-rule="evenodd" clip-rule="evenodd" d="M126.592 47.7972C124.734 47.0124 120.555 42.8334 119.94 43.4743C118.031 45.4428 114.1 50.2955 113.119 53.3627C112.589 55.0304 119.385 58.9347 120.261 57.1232C122.491 52.5321 123.099 51.6689 126.592 47.7972Z" fill="white"/>
<path d="M119.28 57.9802C117.41 57.9802 114.172 56.0575 113.119 54.6187C112.74 54.102 112.616 53.6377 112.74 53.2387C113.773 49.9949 117.92 44.9853 119.653 43.1934C119.738 43.1083 119.882 43.0103 120.117 43.0103C120.758 43.0103 121.844 43.8408 123.551 45.1946C124.741 46.1363 125.977 47.1108 126.735 47.4378L127.246 47.6536L126.879 48.0656C123.367 51.9635 122.779 52.8267 120.614 57.3001C120.464 57.6009 120.111 57.9802 119.28 57.9802ZM120.169 43.8016C118.443 45.5935 114.48 50.4004 113.499 53.4807C113.453 53.6246 113.544 53.8731 113.76 54.1609C114.761 55.5212 117.808 57.202 119.286 57.202C119.627 57.202 119.836 57.117 119.914 56.9535C122.053 52.539 122.681 51.5711 125.964 47.9218C125.146 47.4509 124.093 46.6203 123.073 45.8159C122.033 44.9853 120.621 43.8735 120.169 43.8016Z" fill="#D24138"/>
<path fill-rule="evenodd" clip-rule="evenodd" d="M116.52 71.5572C114.532 71.2237 108.384 68.078 107.926 68.8432C106.527 71.1976 107.305 77.9206 107.671 80.8767C107.887 82.6098 117.854 83.7674 117.73 81.7596C117.423 76.7761 116.317 76.6846 116.52 71.5572Z" fill="white"/>
<path d="M114.669 83.2116C112.269 83.2116 107.482 82.5184 107.286 80.9226C106.762 76.7501 106.226 70.9361 107.593 68.6406C107.717 68.4313 107.94 68.3267 108.26 68.3267C109.091 68.3267 110.876 69.0461 112.773 69.8112C114.264 70.4129 115.807 71.0342 116.585 71.165L116.926 71.2239L116.912 71.5705C116.801 74.4023 117.089 75.6514 117.429 77.1033C117.691 78.2347 117.992 79.5166 118.129 81.7271C118.142 81.9952 118.05 82.2503 117.854 82.4596C117.383 82.9566 116.317 83.2116 114.669 83.2116ZM108.227 69.1049C106.9 71.4985 107.776 78.5029 108.064 80.818C108.142 81.4197 111.367 82.4203 114.669 82.4203C116.245 82.4203 117.05 82.1587 117.279 81.9167C117.338 81.8579 117.344 81.8121 117.338 81.7728C117.2 79.6277 116.926 78.4309 116.657 77.2799C116.317 75.8345 116.03 74.5723 116.108 71.8648C115.219 71.6424 113.878 71.1061 112.472 70.5372C110.811 69.8701 108.927 69.1049 108.254 69.1049C108.254 69.1115 108.234 69.1115 108.227 69.1049Z" fill="#D24138"/>
<path fill-rule="evenodd" clip-rule="evenodd" d="M123.308 93.394C122.236 95.101 117.403 98.8746 117.939 99.5874C119.587 101.778 124.584 105.506 127.468 106.958C129.031 107.749 134.295 102.681 132.464 101.831C129.417 100.431 127.206 98.6783 123.308 93.394Z" fill="white"/>
<path d="M127.854 107.428C127.638 107.428 127.455 107.389 127.285 107.304C124.355 105.826 119.319 102.079 117.619 99.8159C117.128 99.1619 118.155 98.1155 120.333 96.0031C121.418 94.9501 122.537 93.8645 122.968 93.1843L123.276 92.6938L123.616 93.1582C127.553 98.4948 129.731 100.149 132.615 101.477C133.112 101.706 133.321 102.177 133.184 102.778C132.831 104.42 129.626 107.428 127.854 107.428ZM118.292 99.4104C119.953 101.569 124.865 105.211 127.638 106.611C127.69 106.637 127.762 106.65 127.854 106.65C129.129 106.65 132.118 104.008 132.425 102.615C132.497 102.288 132.373 102.229 132.288 102.19C129.364 100.843 127.141 99.1946 123.308 94.0542C122.733 94.7736 121.798 95.6826 120.882 96.5655C119.901 97.5203 118.43 98.9461 118.292 99.4104Z" fill="#D24138"/>
<path fill-rule="evenodd" clip-rule="evenodd" d="M143.026 106.376C142.948 108.39 140.214 113.884 141.032 114.237C143.556 115.316 149.991 117.742 153.222 117.566C154.968 117.468 156.976 107.939 154.955 107.926C150.011 107.906 148.167 107.213 143.026 106.376Z" fill="white"/>
<path d="M152.869 117.964C148.795 117.964 141.195 114.733 140.875 114.596C140.123 114.269 140.522 113.046 141.496 110.306C142.013 108.854 142.601 107.206 142.634 106.362L142.654 105.917L143.092 105.989C144.524 106.218 145.695 106.441 146.754 106.637C149.462 107.147 151.424 107.513 154.955 107.533C155.492 107.533 156.146 107.925 156.191 109.756C156.257 112.399 154.936 117.859 153.242 117.958C153.124 117.964 153 117.964 152.869 117.964ZM141.267 113.916C143.975 115.067 149.769 117.186 152.869 117.186C152.98 117.186 153.091 117.179 153.196 117.179C154.02 117.133 155.478 112.706 155.4 109.783C155.374 108.775 155.151 108.324 154.949 108.324C151.345 108.311 149.357 107.932 146.604 107.415C145.655 107.239 144.609 107.042 143.366 106.833C143.216 107.814 142.712 109.214 142.229 110.574C141.823 111.732 141.208 113.458 141.267 113.916Z" fill="#D24138"/>
<path fill-rule="evenodd" clip-rule="evenodd" d="M166.832 106.533C167.12 108.528 169.055 114.983 169.853 114.59C174.542 112.282 178.865 109.895 180.906 108.018C182.194 106.834 177.734 101.674 176.308 103.106C175.177 104.244 168.199 106.147 166.832 106.533Z" fill="white"/>
<path d="M169.781 115.002C168.369 115.002 166.583 107.527 166.446 106.592L166.394 106.252L166.956 106.095C173.973 104.133 175.654 103.21 176.027 102.831C176.262 102.596 176.576 102.465 176.936 102.465C178.486 102.465 180.697 104.891 181.318 106.48C181.717 107.507 181.455 108.043 181.167 108.312C179.349 109.979 175.7 112.151 170.023 114.943L169.945 114.982L169.781 115.002ZM167.277 106.814C167.689 109.096 169.147 113.563 169.794 114.184C175.262 111.49 178.911 109.319 180.638 107.736C180.788 107.599 180.775 107.232 180.592 106.768C179.886 104.963 177.302 102.681 176.589 103.387C175.818 104.152 172.77 105.277 167.277 106.814Z" fill="#D24138"/>
<path fill-rule="evenodd" clip-rule="evenodd" d="M189.166 92.053C190.376 93.0406 193.469 94.7867 193.777 94.1785C194.143 93.446 198.289 85.7223 198.348 85.2907C198.479 84.3358 196.131 81.504 193.763 82.4785C193.489 82.5897 190.101 91.0786 189.166 92.053Z" fill="white"/>
<path d="M193.489 94.695C192.449 94.695 189.898 93.1581 188.917 92.3537L188.59 92.0855L188.885 91.7782C189.395 91.2419 190.925 87.7626 191.939 85.4605C193.365 82.2167 193.391 82.2036 193.62 82.1121C194.999 81.5431 196.7 82.1056 197.903 83.4789C198.498 84.1591 198.819 84.8523 198.747 85.3363C198.708 85.6306 197.851 87.3244 195.071 92.5695C194.594 93.472 194.234 94.1587 194.136 94.3484C194.071 94.4792 193.901 94.695 193.489 94.695ZM189.709 91.9809C190.866 92.8376 192.822 93.8971 193.469 93.9102C193.606 93.642 193.94 93.0076 194.365 92.2032C195.49 90.0777 197.831 85.6502 197.956 85.2055C197.975 85.0616 197.786 84.558 197.295 83.9956C196.34 82.9034 195.058 82.4194 193.999 82.7988C193.803 83.1388 193.188 84.5318 192.645 85.7744C191.383 88.6716 190.337 91.0195 189.709 91.9809Z" fill="#D24138"/>
</svg>
