<svg width="285" height="190" viewBox="0 0 285 190" fill="none" xmlns="http://www.w3.org/2000/svg">
<g clip-path="url(#clip0)">
<rect width="285" height="190" fill="#F8FCFF"/>
<path fill-rule="evenodd" clip-rule="evenodd" d="M100.147 106.509C97.6468 110.376 97.5037 115.993 100.607 119.236C109.345 128.365 102.656 144.405 101.817 147.784C100.053 154.887 104.661 161.678 107.828 159.965C109.335 159.152 107.828 157.095 106.557 152.52C105.801 149.799 106.555 145.4 107.378 143.662C112.615 132.577 109.013 124.963 104.496 114.727C100.859 106.482 112.919 100.096 108.575 84.3534C107.436 80.2167 111.36 79.358 104.791 82.5166C100.645 84.5117 108.532 93.5412 100.147 106.509Z" fill="#E79BA8"/>
<path fill-rule="evenodd" clip-rule="evenodd" d="M116.694 101.39C115.441 103.646 113.765 106.793 113.717 110.056C113.672 113.309 115.253 116.676 116.406 118.825C126.825 138.239 118.08 150.742 117.241 154.677C115.477 162.95 120.085 170.852 123.252 168.86C124.759 167.914 123.254 165.518 121.983 160.192C121.225 157.025 122.262 153.306 123.084 151.282C125.638 144.989 127.192 139.382 126.84 134.146C126.072 122.709 122.346 120.286 120.033 114.181C116.396 104.582 128.343 99.1593 124.001 80.8326C122.86 76.0156 126.784 75.0172 120.215 78.6943C116.069 81.0144 125.077 86.2927 116.694 101.39Z" fill="#E79BA8"/>
<path fill-rule="evenodd" clip-rule="evenodd" d="M131.132 110.537C128.631 114.405 128.488 120.022 131.591 123.264C140.329 132.393 133.64 148.433 132.802 151.812C131.037 158.916 135.645 165.704 138.812 163.994C140.319 163.179 138.812 161.122 137.541 156.547C136.785 153.826 137.54 149.428 138.363 147.691C143.599 136.606 139.998 128.992 135.48 118.755C131.844 110.509 143.904 104.124 139.56 88.382C138.42 84.2452 142.345 83.3849 135.775 86.5451C131.63 88.5403 139.516 97.5698 131.132 110.537Z" fill="#E79BA8"/>
<path fill-rule="evenodd" clip-rule="evenodd" d="M148.984 92.2733C146.456 98.5147 146.995 103.365 150.283 108.46C157.542 119.705 152.332 136.407 151.494 140.16C149.729 148.05 154.338 155.586 157.505 153.685C159.011 152.783 157.506 150.5 156.235 145.42C155.477 142.399 156.233 137.517 157.055 135.586C162.291 123.276 158.69 114.824 154.174 103.456C152.156 98.3749 153.201 93.8021 155.365 87.8638C157.099 83.1041 160.187 77.5109 158.254 69.7307C157.112 65.1393 161.084 64.2689 154.467 67.6901C152.198 68.8653 151.129 86.9765 148.984 92.2733Z" fill="#E79BA8"/>
<path fill-rule="evenodd" clip-rule="evenodd" d="M172.257 98.5553C173.858 100.904 174.717 105.276 174.661 109.078C174.496 120.041 164.397 114.617 172.615 143.568C174.632 150.673 170.267 157.462 167.037 155.749C165.502 154.936 166.935 152.879 168.044 148.304C168.704 145.585 167.793 141.186 166.911 139.447C161.279 128.361 164.61 120.748 168.762 110.511C172.107 102.266 159.821 95.8799 163.603 80.1393C164.598 76.0025 160.641 75.1422 167.324 78.3024C171.536 80.2942 163.411 85.5877 172.257 98.5553Z" fill="#E79BA8"/>
<path fill-rule="evenodd" clip-rule="evenodd" d="M186.243 99.7944C188.228 103.37 187.351 110.38 185.102 113.378C178.771 121.825 185.368 134.853 186.09 137.98C187.607 144.553 184.322 150.835 181.894 149.25C180.739 148.498 181.817 146.595 182.652 142.363C183.148 139.847 181.34 134.938 180.675 133.328C176.437 123.071 179.089 114.335 181.933 110.004C186.342 103.29 174.782 94.5178 177.626 79.9541C178.374 76.1271 177.081 74.6774 182.108 77.6002C185.278 79.4405 179.588 87.7966 186.243 99.7944Z" fill="#E79BA8"/>
<path fill-rule="evenodd" clip-rule="evenodd" d="M98.0003 84.121C109.963 87.485 119.885 88.5035 140.058 88.6012C158.597 88.6904 179.424 84.6446 187.816 81.6864C183.246 58.9737 173.813 27.3039 153.386 23.8204C113.352 16.9948 97.9195 54.1382 98.0003 84.121Z" fill="#FFC8C7"/>
<path fill-rule="evenodd" clip-rule="evenodd" d="M104.609 70.4881C105.568 71.4276 106.03 71.7576 106.321 71.7239C106.666 71.6852 111.488 62.7012 115.719 72.618C116.475 69.4173 114.389 66.8531 111.734 66.5416C109.766 66.3109 107.454 67.1158 105.922 70.8636C105.87 70.8636 104.356 69.9561 104.223 69.9359L104.609 70.4881Z" fill="#473732"/>
<path fill-rule="evenodd" clip-rule="evenodd" d="M117.603 71.9986C118.071 70.7745 118.08 70.0253 117.954 69.3552C117.568 67.3028 115.292 66.9425 115.332 66.9779C115.339 66.9812 117.105 68.5268 117.603 71.9986Z" fill="#473732"/>
<path fill-rule="evenodd" clip-rule="evenodd" d="M179.084 69.6749C178.123 70.6144 177.66 70.9443 177.372 70.9107C177.025 70.8703 172.201 61.8862 167.974 71.8047C167.216 68.6024 169.302 66.0399 171.959 65.7267C173.927 65.4977 176.239 66.3025 177.771 70.0503C177.823 70.0503 179.337 69.1428 179.468 69.1226L179.084 69.6749Z" fill="#473732"/>
<path fill-rule="evenodd" clip-rule="evenodd" d="M166.09 71.1839C165.622 69.9616 165.613 69.2123 165.74 68.5422C166.127 66.4899 168.401 66.1295 168.361 66.1632C168.354 66.1699 166.588 67.7156 166.09 71.1839Z" fill="#473732"/>
<path fill-rule="evenodd" clip-rule="evenodd" d="M146.187 69.7152C144.784 75.9145 137.998 73.7661 138.679 69.722C139.161 71.1194 140.951 72.4377 142.368 72.2441C144.424 71.9629 146.195 69.6815 146.187 69.7152Z" fill="#473732"/>
<path fill-rule="evenodd" clip-rule="evenodd" d="M109.377 56.96C110.709 56.3084 112.975 56.2882 113.305 57.2849C114.478 60.824 109.661 59.1572 107.697 60.5748C105.902 61.8696 107.154 58.0476 109.377 56.96Z" fill="#FFEDEF"/>
<path fill-rule="evenodd" clip-rule="evenodd" d="M174.503 55.7447C173.171 55.0931 170.907 55.0729 170.575 56.0696C169.401 59.6087 174.218 57.9418 176.183 59.3595C177.978 60.6559 176.727 56.834 174.503 55.7447Z" fill="#FFEDEF"/>
<path fill-rule="evenodd" clip-rule="evenodd" d="M107.34 83.0922C115.989 84.2152 115.452 77.6977 112.684 75.6251C110.633 74.0862 106.358 74.3371 104.498 75.9383C102.112 77.9924 102.77 82.4995 107.34 83.0922Z" fill="#F26A61"/>
<path fill-rule="evenodd" clip-rule="evenodd" d="M174.016 82.4308C182.665 83.5539 182.128 77.0364 179.36 74.9621C177.309 73.4249 173.035 73.6758 171.174 75.2769C168.788 77.3277 169.447 81.8382 174.016 82.4308Z" fill="#F26A61"/>
<path fill-rule="evenodd" clip-rule="evenodd" d="M139.191 40.3493C139.882 38.807 141.907 40.1624 142.975 41.9572C143.385 41.0834 145.293 38.5309 146.312 39.7971C147.946 41.8377 144.162 46.2623 143.584 47.4005C143.037 48.478 138.302 42.3326 139.191 40.3493Z" fill="#FFA5A4"/>
<path fill-rule="evenodd" clip-rule="evenodd" d="M215.309 51.4923C215.624 56.5153 220.868 59.0584 225.471 58.3945C229.566 57.8242 231.747 52.3516 231.247 47.67C230.14 37.1518 214.542 38.3497 215.309 51.4923Z" fill="#E5F3FF"/>
<path fill-rule="evenodd" clip-rule="evenodd" d="M20.1236 130.857C21.482 134.861 26.2927 135.771 29.8787 134.222C33.0742 132.86 33.6407 127.944 32.2074 124.258C28.9994 115.973 16.615 120.369 20.1236 130.857Z" fill="#E5F3FF"/>
<path fill-rule="evenodd" clip-rule="evenodd" d="M222.681 46.678C222.819 48.4205 224.666 49.336 226.248 49.0751C227.708 48.8733 228.483 46.9421 228.305 45.3206C227.912 41.5923 222.443 42.0209 222.681 46.678Z" fill="#FEFEFE"/>
<path fill-rule="evenodd" clip-rule="evenodd" d="M25.0435 125.335C25.5379 126.718 27.2371 127.054 28.4625 126.495C29.6015 126.011 29.8065 124.275 29.3055 122.999C28.1681 120.063 23.8281 121.611 25.0435 125.335Z" fill="#FEFEFE"/>
<path fill-rule="evenodd" clip-rule="evenodd" d="M234.17 64.2424C234.682 72.4845 243.344 76.6946 250.907 75.6068C257.68 74.6503 261.267 65.6356 260.444 57.893C258.601 40.6486 232.897 42.5529 234.17 64.2424Z" fill="#E5F3FF"/>
<path fill-rule="evenodd" clip-rule="evenodd" d="M246.341 56.259C246.503 59.1953 249.578 60.6744 252.253 60.2889C254.606 59.9581 255.884 56.7797 255.578 54.0637C254.938 47.9427 245.882 48.6448 246.341 56.259Z" fill="#FEFEFE"/>
<path fill-rule="evenodd" clip-rule="evenodd" d="M211.686 80.3167C213.563 84.9369 219.28 85.6437 223.356 83.5773C226.984 81.7254 227.329 75.8839 225.366 71.708C221.003 62.2559 206.795 68.3095 211.686 80.3167Z" fill="#E5F3FF"/>
<path fill-rule="evenodd" clip-rule="evenodd" d="M217.062 73.4508C217.707 75.0996 219.727 75.3304 221.154 74.6418C222.439 73.972 222.548 71.9098 221.88 70.423C220.33 67.1024 215.321 69.2172 217.062 73.4508Z" fill="#FEFEFE"/>
<path fill-rule="evenodd" clip-rule="evenodd" d="M207.751 34.8944C208.728 37.3358 211.717 37.7026 213.858 36.6201C215.794 35.6363 215.938 32.6019 214.917 30.3822C212.62 25.4122 205.169 28.6045 207.751 34.8944Z" fill="#E5F3FF"/>
<path fill-rule="evenodd" clip-rule="evenodd" d="M210.554 31.3319C210.907 32.1663 211.977 32.303 212.731 31.8896C213.383 31.5749 213.459 30.4841 213.085 29.7093C212.301 27.9769 209.674 29.0934 210.554 31.3319Z" fill="#FEFEFE"/>
<path fill-rule="evenodd" clip-rule="evenodd" d="M212.826 15.1142C213.725 17.2914 216.452 17.6337 218.39 16.6491C220.142 15.8035 220.303 13.0133 219.379 10.9966C217.256 6.49693 210.498 9.3566 212.826 15.1142Z" fill="#E5F3FF"/>
<path fill-rule="evenodd" clip-rule="evenodd" d="M215.421 11.8544C215.692 12.627 216.663 12.7622 217.336 12.3877C217.988 12.073 218.022 11.1016 217.688 10.4089C216.961 8.79973 214.599 9.83834 215.421 11.8544Z" fill="#FEFEFE"/>
<path fill-rule="evenodd" clip-rule="evenodd" d="M236.945 92.7912C237.804 94.9878 240.571 95.3107 242.509 94.3261C244.242 93.4402 244.361 90.6702 243.439 88.6527C241.375 84.1739 234.577 87.053 236.945 92.7912Z" fill="#E5F3FF"/>
<path fill-rule="evenodd" clip-rule="evenodd" d="M239.48 89.509C239.813 90.3032 240.762 90.3973 241.455 90.0631C242.065 89.7686 242.099 88.7971 241.787 88.0441C241.04 86.4961 238.659 87.4945 239.48 89.509Z" fill="#FEFEFE"/>
<path fill-rule="evenodd" clip-rule="evenodd" d="M223.881 118.085C224.154 123.128 229.44 125.651 234.002 125.006C238.138 124.417 240.32 118.943 239.819 114.262C238.673 103.763 223.115 104.941 223.881 118.085Z" fill="#E5F3FF"/>
<path fill-rule="evenodd" clip-rule="evenodd" d="M231.254 113.27C231.352 115.032 233.24 115.928 234.842 115.709C236.282 115.467 237.057 113.534 236.878 111.913C236.464 108.244 230.975 108.633 231.254 113.27Z" fill="#FEFEFE"/>
<path fill-rule="evenodd" clip-rule="evenodd" d="M62.735 43.9643C65.5282 42.3536 65.4947 38.6198 63.8034 36.1674C62.3102 33.9792 58.5485 34.2856 56.0039 35.9052C50.2824 39.5337 55.4097 48.1457 62.735 43.9643Z" fill="#E5F3FF"/>
<path fill-rule="evenodd" clip-rule="evenodd" d="M57.8733 41.1019C58.8341 40.5267 58.8336 39.2057 58.2335 38.3721C57.7022 37.5919 56.3729 37.6964 55.4932 38.2606C53.4646 39.5485 55.2683 42.5657 57.8733 41.1019Z" fill="#FEFEFE"/>
<path fill-rule="evenodd" clip-rule="evenodd" d="M64.6831 29.5095C69.2677 26.8693 69.2181 20.6993 66.4407 16.6684C63.9636 13.0537 57.7686 13.5613 53.5592 16.2378C44.1861 22.2043 52.5966 36.4145 64.6831 29.5095Z" fill="#E5F3FF"/>
<path fill-rule="evenodd" clip-rule="evenodd" d="M56.636 24.7955C58.2752 23.8667 58.2487 21.6809 57.2658 20.2552C56.4062 18.9993 54.2182 19.1705 52.7465 20.1192C49.415 22.2301 52.396 27.2276 56.636 24.7955Z" fill="#FEFEFE"/>
<path fill-rule="evenodd" clip-rule="evenodd" d="M80.3087 37.8371C82.4258 35.444 81.204 31.962 78.8575 30.2106C76.7619 28.6556 73.3111 30.1209 71.4734 32.4365C67.2912 37.6302 74.8097 44.0621 80.3087 37.8371Z" fill="#E5F3FF"/>
<path fill-rule="evenodd" clip-rule="evenodd" d="M74.8382 36.705C75.601 35.8656 75.1585 34.6407 74.357 34.0177C73.6076 33.4715 72.3921 33.9953 71.7289 34.8018C70.2655 36.6378 72.9041 38.9094 74.8382 36.705Z" fill="#FEFEFE"/>
<path fill-rule="evenodd" clip-rule="evenodd" d="M55.3599 53.0266C56.4828 51.7706 55.8424 49.9508 54.6117 49.0304C53.496 48.1994 51.7134 48.9804 50.7302 50.1986C48.5317 52.9317 52.4858 56.2984 55.3599 53.0266Z" fill="#E5F3FF"/>
<path fill-rule="evenodd" clip-rule="evenodd" d="M52.5174 52.4321C52.8958 51.992 52.6694 51.3386 52.2169 51.0246C51.8505 50.7398 51.2031 51.0071 50.8648 51.4422C50.0946 52.3846 51.4831 53.5742 52.5174 52.4321Z" fill="#FEFEFE"/>
<path fill-rule="evenodd" clip-rule="evenodd" d="M42.5644 55.7446C43.5578 54.6084 42.978 52.946 41.8613 52.1143C40.8771 51.3492 39.2299 52.0512 38.3354 53.1554C36.3565 55.6544 39.9209 58.7197 42.5644 55.7446Z" fill="#E5F3FF"/>
<path fill-rule="evenodd" clip-rule="evenodd" d="M39.953 55.1836C40.3191 54.8078 40.1204 54.2122 39.7138 53.9325C39.3474 53.6477 38.7803 53.9049 38.478 54.2939C37.7613 55.1692 39.0306 56.2284 39.953 55.1836Z" fill="#FEFEFE"/>
<path fill-rule="evenodd" clip-rule="evenodd" d="M80.2789 19.7883C81.2949 18.6697 80.6925 16.9897 79.5758 16.158C78.574 15.4155 76.9503 16.1358 76.0549 17.2393C74.071 19.6981 77.658 22.781 80.2789 19.7883Z" fill="#E5F3FF"/>
<path fill-rule="evenodd" clip-rule="evenodd" d="M77.6726 19.2677C78.0334 18.8502 77.8173 18.2788 77.4283 17.9764C77.0855 17.7099 76.5184 17.9671 76.1749 18.3605C75.4993 19.2314 76.7495 20.3134 77.6726 19.2677Z" fill="#FEFEFE"/>
<path fill-rule="evenodd" clip-rule="evenodd" d="M98.513 20.0858C101.33 18.4934 101.273 14.7413 99.6041 12.3065C98.0883 10.1008 94.3257 10.4064 91.7819 12.0267C86.0839 15.6735 91.1877 24.2672 98.513 20.0858Z" fill="#E5F3FF"/>
<path fill-rule="evenodd" clip-rule="evenodd" d="M93.6522 17.2248C94.6356 16.6672 94.6124 15.3286 94.0306 14.4715C93.4817 13.7139 92.1518 13.8193 91.2721 14.3835C89.2844 15.6655 91.0689 18.7055 93.6522 17.2248Z" fill="#FEFEFE"/>
<path fill-rule="evenodd" clip-rule="evenodd" d="M31.58 166.937C29.596 164.339 31.0958 160.833 33.6407 159.197C35.915 157.728 39.3264 159.495 41.0873 162.024C45.0085 167.662 36.8236 173.757 31.58 166.937Z" fill="#CDE6F9"/>
<path fill-rule="evenodd" clip-rule="evenodd" d="M37.2926 166.169C36.5797 165.249 37.1161 164.008 38.0167 163.431C38.8059 162.92 40.0131 163.539 40.6261 164.431C42.021 166.429 39.1299 168.567 37.2926 166.169Z" fill="#E9F6FF"/>
<path fill-rule="evenodd" clip-rule="evenodd" d="M23.7209 108.33C22.6276 106.897 23.4539 104.965 24.8571 104.063C26.1107 103.253 27.9909 104.227 28.962 105.622C31.1224 108.73 26.6105 112.089 23.7209 108.33Z" fill="#CDE6F9"/>
<path fill-rule="evenodd" clip-rule="evenodd" d="M26.869 107.907C26.4753 107.399 26.7717 106.716 27.2683 106.397C27.7034 106.115 28.3686 106.457 28.7061 106.948C29.4755 108.05 27.8817 109.229 26.869 107.907Z" fill="#E9F6FF"/>
<path fill-rule="evenodd" clip-rule="evenodd" d="M61.3979 165.139C60.3046 163.707 61.1309 161.775 62.5341 160.873C63.7877 160.062 65.6679 161.037 66.639 162.432C68.8001 165.538 64.2876 168.899 61.3979 165.139Z" fill="#CDE6F9"/>
<path fill-rule="evenodd" clip-rule="evenodd" d="M64.547 164.716C64.1533 164.208 64.4497 163.525 64.9463 163.206C65.3814 162.924 66.0466 163.266 66.3841 163.758C67.1532 164.859 65.5594 166.037 64.547 164.716Z" fill="#E9F6FF"/>
<path fill-rule="evenodd" clip-rule="evenodd" d="M41.806 146.321C39.0004 142.645 41.1216 137.688 44.7206 135.375C47.9369 133.296 52.7603 135.795 55.2512 139.373C60.7954 147.345 49.2212 155.965 41.806 146.321Z" fill="#CDE6F9"/>
<path fill-rule="evenodd" clip-rule="evenodd" d="M49.8839 145.235C48.8757 143.933 49.6343 142.18 50.9077 141.362C52.0244 140.639 53.7306 141.515 54.5972 142.777C56.571 145.602 52.4819 148.626 49.8839 145.235Z" fill="#E9F6FF"/>
</g>
<defs>
<clipPath id="clip0">
<rect width="285" height="190" fill="white"/>
</clipPath>
</defs>
</svg>
