<svg width="285" height="190" viewBox="0 0 285 190" fill="none" xmlns="http://www.w3.org/2000/svg">
<g clip-path="url(#clip0)">
<path d="M290 -5H-5V190H290V-5Z" fill="#225166"/>
<path fill-rule="evenodd" clip-rule="evenodd" d="M180.232 53.7119C180.45 67.8923 190.814 53.3668 194.208 63.0729C195.032 65.4641 190.706 69.6785 198.251 72.4821C200.167 73.2027 202.711 78.1781 192.329 80.8701C190.431 81.3639 205.299 80.9408 191.709 89.1503C198.021 80.6024 190.108 85.5038 190.127 80.6658C190.149 77.6843 199.168 77.1309 195.351 75.1629C187.736 71.2234 194.787 66.1919 188.831 62.9949C185.036 60.9376 182.767 63.4332 180.599 60.9415C180.072 60.3361 179.552 59.4342 179.014 58.1009C178.249 56.185 178.108 54.8259 178.067 53.7119H180.232Z" fill="#ED9E63"/>
<path fill-rule="evenodd" clip-rule="evenodd" d="M160.47 36.0001C164.239 34.1768 172.853 32.725 176.188 35.9333C186.722 46.0703 175.296 48.8886 180.655 61.4017C181.271 62.8462 185.125 64.2834 187.004 65.1297C193.729 68.1561 183.161 73.0013 188.036 74.6169C190.974 75.5899 194.561 82.4071 190.483 85.3887C184.182 89.9931 181.326 86.9521 178.196 87.1598C176.499 87.2709 174.951 90.2715 174.023 90.5572C165.118 93.2862 168.965 83.2461 157.269 86.6362C152 88.1621 147.017 93.2867 142.75 93.45C137.043 93.6728 133.612 88.0324 133.612 85.5783C133.613 67.5657 160.455 36.0074 160.47 36.0001Z" fill="#D88446"/>
<path fill-rule="evenodd" clip-rule="evenodd" d="M104.509 121.521C101.824 116.954 100.131 114.626 89.2445 112.316C78.8217 110.103 71.2357 111.407 64.8456 113.635C64.2109 113.853 67.8535 116.26 70.1515 117.979C85.947 129.805 97.3428 123.85 104.509 121.521Z" fill="#ABC9AD"/>
<path fill-rule="evenodd" clip-rule="evenodd" d="M106.592 119.847C101.676 117.871 99.1213 116.546 95.2189 106.123C91.4836 96.1418 91.6431 88.4447 92.8945 81.7942C93.0168 81.1332 95.9394 84.3824 97.9815 86.3987C112.021 100.26 107.829 112.413 106.592 119.847Z" fill="#ABC9AD"/>
<path fill-rule="evenodd" clip-rule="evenodd" d="M155.595 86.7144C155.992 90.5169 147.975 90.7582 144.771 99.053C142.914 103.858 140.152 106.62 136.16 106.884C125.589 107.586 128.674 94.9945 115.318 92.8783C112.281 92.3957 119.477 96.1309 118.422 96.9441C118.411 96.9514 109.039 97.8537 108.824 99.6916C108.776 100.082 111.72 99.8218 114.991 99.6916C116.855 99.6175 107.004 102.176 107.246 103.29C107.506 104.5 111.842 102.462 116.38 101.857C118.935 101.515 109.968 105.116 110.613 106.327C114.821 105.481 118.385 102.889 118.686 102.971C118.927 103.038 115.47 106.58 113.566 108.478C114.672 109.907 119.332 106.068 120.454 104.468C121.813 102.529 121.478 106.584 123.97 109.194C127.724 113.123 133.609 115.678 139.198 114.459C148.826 112.358 148.436 99.7813 146.434 123.754C145.97 129.327 144.704 131.585 151.403 134.737C158.031 137.856 166.511 137.243 172.367 132.769C175.126 130.66 174.346 107.587 173.711 106.097C179.155 110.431 186.577 110.605 192.128 106.22C194.468 104.367 199.978 96.7066 203.212 97.1449C203.699 97.2117 210.182 97.7796 212.547 97.5276C213.743 97.3974 213.806 96.6511 211.693 96.3508C209.435 96.0241 208.392 95.4635 208.459 95.3743C208.949 94.7133 215.335 95.9535 215.428 94.4461C214.255 93.3098 208.318 93.7334 208.162 93.2283C208.084 92.9685 211.712 93.0168 215.21 92.2738C217.237 91.8468 216.546 90.8479 215.054 90.8255C212.075 90.7845 205.656 91.9618 209.372 90.6397C209.413 90.6251 214.248 88.7945 214.077 88.1262C213.973 87.7328 210.661 87.7917 207.538 88.7424C205.67 89.3103 203.813 90.1532 203.505 90.1941C203.182 90.2351 204.931 88.2597 205.458 86.6183C206.056 84.7322 205.44 83.1649 204.901 83.4584C204.437 83.7148 202.77 86.9079 200.954 88.9315C196.323 94.1078 188.054 100.594 183.443 100.832C177 101.17 172.678 92.0881 167.58 91.4046C163.592 90.8698 164.045 87.1531 163.714 86.7855C163.841 86.3024 155.595 86.6997 155.595 86.7144Z" fill="#FCCB8A"/>
<path fill-rule="evenodd" clip-rule="evenodd" d="M99.4371 115.844C116.332 121.273 132.737 153.476 146 126.274C146.39 125.472 145.127 122.219 146.634 121.421C148.12 120.633 149.627 122.869 149.746 126.768C150.147 118.587 155.747 122.72 155.182 128.594C157.065 120.997 161.242 123.337 161.491 130.005C161.677 126.652 163.733 122.319 165.356 126.868C166.418 119.605 169.649 123.091 170.009 124.729C169.448 119.493 176.477 114.533 174.231 122.497C175.72 142.362 166.626 166.903 134.17 159.725C126.216 157.969 116.952 148.678 113.918 140.803C112.233 136.429 103.243 118.447 99.4371 115.844Z" fill="#A5C013"/>
<path fill-rule="evenodd" clip-rule="evenodd" d="M159.828 88.4782C153.545 89.7705 132.611 81.2266 132.276 66.6265C132.076 57.8485 134.924 47.6301 140.749 42.8994C153.641 32.4396 167.41 34.6304 174.323 43.4897C177.576 47.6559 178.426 54.9411 179.481 59.82C180.978 66.76 181.55 71.364 178.564 76.8742C174.598 84.2008 162.598 87.9063 159.828 88.4782Z" fill="#FDD097"/>
<path fill-rule="evenodd" clip-rule="evenodd" d="M177.409 51.246C179.129 37.8008 172.478 35.0864 162.208 36.5976C147.325 38.7885 138.124 49.2556 136.951 62.7681C136.112 72.4147 145.766 85.3735 136.179 92.139C131.103 95.7187 129.209 87.9431 125.741 90.5424C121.147 93.9881 112.013 92.4252 114.546 80.7841C108.14 85.4368 100.818 81.1776 99.1437 75.4221C97.4169 69.4698 101.709 59.0992 110.124 59.9718C124.961 61.5055 108.493 44.5843 126.272 43.0029C130.471 42.6314 119.8 29.2866 152.728 22.172C161.558 20.2635 178.037 22.2646 183.647 29.6356C193.491 42.5758 183.514 57.937 179.017 57.681C178.583 54.8072 178.07 53.8751 177.409 51.246Z" fill="#F5AB6E"/>
<path fill-rule="evenodd" clip-rule="evenodd" d="M139.346 64.4684C140.56 66.5998 142.988 68.2968 145.992 67.9292C147.875 67.6991 151.016 65.7272 151.291 62.1294C151.473 59.9981 149.732 57.6142 147.853 56.5822C146.865 56.0547 144.41 55.5501 142.487 56.3964C139.598 57.6586 137.419 61.0043 139.346 64.4684Z" fill="#FEFEFE"/>
<path fill-rule="evenodd" clip-rule="evenodd" d="M142.316 63.1916C142.491 64.6843 145.023 67.8292 147.886 66.7859C149.576 66.1658 151.439 64.8588 151.291 61.8734C150.983 55.3755 141.47 55.4686 142.316 63.1916Z" fill="#57361D"/>
<path fill-rule="evenodd" clip-rule="evenodd" d="M150.99 60.2024C150.396 55.9622 145.832 54.4246 143.586 54.837C140.515 55.3903 139 57.9785 137.831 58.873C136.962 59.5156 136.683 57.5885 136.434 58.5055C136.044 59.9499 137.923 62.1739 138.933 60.0425C139.368 59.1256 140.857 57.3355 141.57 56.8792C142.647 56.1664 145.376 55.9173 147.184 56.7417C149.594 57.841 150.99 60.2249 150.99 60.2024Z" fill="#57361D"/>
<path fill-rule="evenodd" clip-rule="evenodd" d="M143.623 59.9572C143.668 60.2355 144.195 61.0043 144.815 60.8259C145.157 60.7069 145.546 60.2541 145.524 59.7193C145.458 58.5761 143.438 58.5166 143.623 59.9572Z" fill="#FEFEFE"/>
<path fill-rule="evenodd" clip-rule="evenodd" d="M177.989 62.6977C176.849 64.7028 174.565 66.2959 171.739 65.9503C169.972 65.7348 167.02 63.8823 166.76 60.4995C166.589 58.4944 168.227 56.2515 169.994 55.2828C170.922 54.7851 173.228 54.3136 175.036 55.1122C177.755 56.2963 179.801 59.4412 177.989 62.6977Z" fill="#FEFEFE"/>
<path fill-rule="evenodd" clip-rule="evenodd" d="M177.172 61.9068C176.997 63.381 174.409 66.2958 171.579 65.2638C169.909 64.6476 168.148 63.5556 168.293 60.6038C168.591 54.3579 178.03 54.0386 177.172 61.9068Z" fill="#57361D"/>
<path fill-rule="evenodd" clip-rule="evenodd" d="M167.042 58.687C167.603 54.6993 171.891 53.2549 174.004 53.6449C176.889 54.1611 178.311 56.5967 179.415 57.4361C180.232 58.0416 180.491 56.2296 180.729 57.0944C181.092 58.4496 179.325 60.54 178.379 58.5388C177.97 57.6735 176.567 55.9956 175.898 55.5607C174.888 54.8963 172.322 54.6584 170.618 55.4345C168.357 56.4665 167.042 58.7095 167.042 58.687Z" fill="#57361D"/>
<path fill-rule="evenodd" clip-rule="evenodd" d="M175.879 58.4718C175.835 58.7132 175.341 59.3888 174.758 59.2328C174.435 59.129 174.067 58.7317 174.09 58.2637C174.153 57.2614 176.05 57.2097 175.879 58.4718Z" fill="#FEFEFE"/>
<path fill-rule="evenodd" clip-rule="evenodd" d="M156.813 69.2251C157.314 67.9513 158.725 67.5135 160.351 67.9366C161.354 68.1965 161.925 71.334 159.171 71.334C157.455 71.3345 156.471 70.0607 156.813 69.2251Z" fill="#F5AB6E"/>
<path fill-rule="evenodd" clip-rule="evenodd" d="M155.598 68.2822C157.599 69.6043 159.887 69.89 162.426 68.5494C162.909 68.3008 161.673 70.2313 158.884 70.2313C157.796 70.2317 155.702 69.4961 155.598 68.2822Z" fill="#C77840"/>
<path fill-rule="evenodd" clip-rule="evenodd" d="M159.638 61.4869C160.028 61.4162 160.923 61.4347 161.584 61.7394C162.122 61.988 162.998 63.8668 161.19 64.5464C159.85 65.0627 159.385 64.2417 159.226 64.0082C159.137 63.8858 159.709 64.3499 160.585 64.1715C161.55 63.9746 161.71 62.9723 161.139 62.3112C160.674 61.773 159.493 61.5054 159.638 61.4869Z" fill="#E39964"/>
<path fill-rule="evenodd" clip-rule="evenodd" d="M140.954 48.491C141.459 46.4192 145.933 44.7149 145.602 48.6656C145.602 48.8401 144.559 48.6246 143.646 48.9181C142.524 49.2857 140.972 50.5444 140.894 50.5444C140.49 49.9428 140.876 48.8771 140.954 48.491Z" fill="#D88446"/>
<path fill-rule="evenodd" clip-rule="evenodd" d="M173.693 45.279C173.188 43.3665 168.713 43.0847 169.044 46.9277C169.044 47.1022 170.091 46.5601 171.001 46.5601C172.122 46.5713 173.674 47.3396 173.752 47.3138C174.157 46.5825 173.77 45.6431 173.693 45.279Z" fill="#D88446"/>
<path fill-rule="evenodd" clip-rule="evenodd" d="M152.197 99.4281C150.292 99.0347 146.356 98.6632 147.165 101.396C147.225 101.626 147.473 101.875 147.93 102.183C146.894 102.473 145.921 102.911 145.755 103.346C144.863 105.663 148.201 105.477 148.242 105.644C148.283 105.748 146.958 105.726 146.397 106.409C145.777 107.178 145.962 108.626 147.518 108.585C148.405 108.562 148.654 108.544 148.595 108.626C148.509 108.771 146.627 110.055 147.206 111.403C148.324 114.073 158.308 111.548 158.761 105.808C159.011 102.703 155.49 100.115 152.197 99.4281Z" fill="#CF9B93"/>
<path fill-rule="evenodd" clip-rule="evenodd" d="M147.764 99.9255C148.45 99.1607 151.555 99.4502 150.935 99.8032C150.912 99.8032 147.704 99.9889 147.764 99.9255Z" fill="#E8C5C1"/>
<path fill-rule="evenodd" clip-rule="evenodd" d="M145.985 103.49C146.067 102.576 149.297 101.979 149.483 102.992C149.483 102.992 148.655 102.866 147.763 102.992C146.895 103.115 145.944 103.799 145.985 103.49Z" fill="#E8C5C1"/>
<path fill-rule="evenodd" clip-rule="evenodd" d="M146.378 107.382C146.501 105.956 149.672 105.562 149.731 106.038C149.731 106.038 148.677 106.264 147.931 106.535C147.04 106.843 146.356 107.426 146.378 107.382Z" fill="#E8C5C1"/>
<path fill-rule="evenodd" clip-rule="evenodd" d="M147.704 110.738C147.641 109.101 150.333 108.087 151.369 108.793C151.369 108.793 150.084 109.146 149.279 109.517C148.346 109.951 147.704 110.802 147.704 110.738Z" fill="#E8C5C1"/>
<path fill-rule="evenodd" clip-rule="evenodd" d="M149.876 112.458C151.328 112.313 153.998 111.856 156.319 110.014C158.019 108.666 158.599 107.322 158.68 106.078C158.68 106.078 157.626 108.254 156.255 109.413C155.717 109.869 154.454 110.842 153.274 111.358C151.369 112.19 149.483 112.52 149.876 112.458Z" fill="#C48D85"/>
<path fill-rule="evenodd" clip-rule="evenodd" d="M154.02 105.146C152.817 104.978 150.83 104.834 148.717 105.313C147.143 105.662 146.582 106.119 146.17 106.802C146.17 106.802 147.288 105.996 148.573 105.662C149.07 105.54 150.21 105.29 151.183 105.29C152.735 105.269 154.31 105.187 154.02 105.146Z" fill="#C48D85"/>
<path fill-rule="evenodd" clip-rule="evenodd" d="M154.187 102.826C153.025 102.432 151.12 101.893 148.944 101.957C147.351 102.02 146.687 102.373 146.148 102.952C146.148 102.952 147.414 102.373 148.74 102.287C149.256 102.269 150.415 102.246 151.369 102.414C152.903 102.703 154.454 102.911 154.187 102.826Z" fill="#C48D85"/>
<path fill-rule="evenodd" clip-rule="evenodd" d="M155.034 106.657C153.812 106.698 151.844 106.888 149.836 107.734C148.365 108.358 147.89 108.915 147.601 109.661C147.601 109.661 148.574 108.666 149.776 108.109C150.229 107.901 151.329 107.467 152.261 107.281C153.794 106.992 155.324 106.639 155.034 106.657Z" fill="#C48D85"/>
<path fill-rule="evenodd" clip-rule="evenodd" d="M169.077 96.7361C170.9 96.075 174.754 95.1619 174.32 98.0021C174.298 98.2288 174.09 98.4998 173.677 98.8708C174.732 99.0156 175.768 99.3276 175.995 99.721C177.198 101.893 173.863 102.183 173.841 102.35C173.822 102.454 175.148 102.246 175.79 102.848C176.514 103.509 176.537 104.979 174.981 105.168C174.09 105.25 173.841 105.269 173.904 105.332C174.03 105.476 176.058 106.494 175.686 107.901C174.94 110.697 164.706 109.598 163.466 103.965C162.783 100.921 165.887 97.8758 169.077 96.7361Z" fill="#CF9B93"/>
<path fill-rule="evenodd" clip-rule="evenodd" d="M173.533 96.6133C172.745 95.9488 169.701 96.6543 170.384 96.9253C170.384 96.9253 173.592 96.6767 173.533 96.6133Z" fill="#E8C5C1"/>
<path fill-rule="evenodd" clip-rule="evenodd" d="M175.79 99.8849C175.56 98.9938 172.289 98.8714 172.248 99.8849C172.248 99.9073 173.054 99.6363 173.945 99.6582C174.836 99.6582 175.872 100.196 175.79 99.8849Z" fill="#E8C5C1"/>
<path fill-rule="evenodd" clip-rule="evenodd" d="M175.954 103.798C175.601 102.413 172.411 102.454 172.411 102.93C172.411 102.952 173.511 103.012 174.276 103.178C175.207 103.364 175.954 103.861 175.954 103.798Z" fill="#E8C5C1"/>
<path fill-rule="evenodd" clip-rule="evenodd" d="M175.085 107.322C174.918 105.685 172.103 105.065 171.19 105.893C171.19 105.911 172.497 106.056 173.366 106.327C174.339 106.617 175.085 107.382 175.085 107.322Z" fill="#E8C5C1"/>
<path fill-rule="evenodd" clip-rule="evenodd" d="M173.18 109.33C171.728 109.371 169.018 109.308 166.448 107.797C164.584 106.697 163.815 105.435 163.566 104.236C163.566 104.214 164.914 106.223 166.448 107.196C167.027 107.549 168.416 108.358 169.66 108.707C171.669 109.268 173.574 109.308 173.18 109.33Z" fill="#C48D85"/>
<path fill-rule="evenodd" clip-rule="evenodd" d="M168.064 102.662C169.222 102.328 171.171 101.893 173.344 102.079C174.918 102.205 175.56 102.599 176.058 103.2C176.058 103.219 174.836 102.558 173.511 102.413C173.013 102.35 171.832 102.268 170.882 102.391C169.348 102.599 167.774 102.744 168.064 102.662Z" fill="#C48D85"/>
<path fill-rule="evenodd" clip-rule="evenodd" d="M167.588 100.382C168.665 99.8215 170.488 99.0342 172.642 98.7856C174.235 98.6223 174.918 98.8709 175.542 99.3872C175.542 99.3872 174.216 98.9752 172.891 99.0976C172.371 99.1385 171.212 99.2648 170.303 99.5729C168.828 100.07 167.317 100.505 167.588 100.382Z" fill="#C48D85"/>
<path fill-rule="evenodd" clip-rule="evenodd" d="M167.254 104.277C168.479 104.151 170.443 104.069 172.556 104.648C174.09 105.042 174.651 105.54 175.044 106.223C175.044 106.245 173.945 105.372 172.683 105.001C172.185 104.856 171.045 104.566 170.094 104.526C168.539 104.463 166.964 104.318 167.254 104.277Z" fill="#C48D85"/>
<path fill-rule="evenodd" clip-rule="evenodd" d="M158.349 104.173C158.992 104.047 163.878 103.282 163.878 103.531C163.86 104.337 163.941 104.151 162.408 104.255C161.227 104.337 159.594 104.44 158.494 104.712C158.328 104.752 158.454 104.151 158.349 104.173Z" fill="#CFABA6"/>
<path fill-rule="evenodd" clip-rule="evenodd" d="M140.994 36.5307C141.362 58.2376 126.669 37.1654 121.935 50.7111C120.81 53.971 126.706 59.7191 116.421 63.5436C113.81 64.5239 110.339 71.308 124.497 74.9798C127.085 75.6521 106.807 75.0724 125.339 86.2679C116.732 74.6161 127.523 81.2998 127.497 74.7015C127.467 70.6318 115.169 69.882 120.375 67.2008C130.757 61.828 121.143 54.9621 129.268 50.6029C135.699 47.1163 138.914 53.2281 142.65 43.9305C145.261 37.3843 142.538 35.6132 145.721 31.937C153.808 22.7691 169.827 23.7533 178.615 32.0671C182.57 35.8136 182.722 41.9366 182.967 43.2402C184.155 30.3297 171.783 24.7488 163.403 23.7796C152.654 22.5321 140.842 26.5759 140.994 36.5307Z" fill="#ED9E63"/>
<path fill-rule="evenodd" clip-rule="evenodd" d="M153.085 91.9315C154.566 92.2991 155.617 89.6368 153.56 89.2244C151.766 88.8641 151.273 91.4781 153.085 91.9315Z" fill="#FCE3C5"/>
<path fill-rule="evenodd" clip-rule="evenodd" d="M155.446 93.6575C156.927 94.0251 157.979 91.3628 155.925 90.9504C154.128 90.5906 153.634 93.2046 155.446 93.6575Z" fill="#FCE3C5"/>
<path fill-rule="evenodd" clip-rule="evenodd" d="M158.175 94.2033C159.653 94.5708 160.708 91.9086 158.65 91.4927C156.857 91.1364 156.363 93.7504 158.175 94.2033Z" fill="#FCE3C5"/>
<path fill-rule="evenodd" clip-rule="evenodd" d="M160.99 93.8402C162.471 94.2078 163.522 91.5455 161.469 91.1331C159.672 90.7728 159.181 93.3868 160.99 93.8402Z" fill="#FCE3C5"/>
<path fill-rule="evenodd" clip-rule="evenodd" d="M163.626 92.7478C165.108 93.1154 166.159 90.4531 164.105 90.0407C162.308 89.6809 161.814 92.2949 163.626 92.7478Z" fill="#FCE3C5"/>
<path fill-rule="evenodd" clip-rule="evenodd" d="M165.627 90.6575C167.105 91.025 168.16 88.3628 166.103 87.9504C164.309 87.5906 163.815 90.2046 165.627 90.6575Z" fill="#FCE3C5"/>
<path fill-rule="evenodd" clip-rule="evenodd" d="M150.637 158.285C150.63 159.269 152.241 158.834 152.171 158.397C152.037 157.238 150.66 158.17 150.637 158.285Z" fill="#D5D6EA"/>
<path fill-rule="evenodd" clip-rule="evenodd" d="M152.925 157.297C153.356 159.065 156.021 157.52 155.699 156.755C154.897 154.769 152.865 157.056 152.925 157.297Z" fill="#ABC9AD"/>
<path fill-rule="evenodd" clip-rule="evenodd" d="M167.079 139.263C168.457 140.841 170.41 137.001 169.682 136.396C167.8 134.837 166.905 139.081 167.079 139.263Z" fill="#6B9183"/>
<path fill-rule="evenodd" clip-rule="evenodd" d="M169.111 135.352C170.488 136.927 172.367 133.945 171.639 133.34C169.753 131.751 168.936 135.171 169.111 135.352Z" fill="#ABC9AD"/>
<path fill-rule="evenodd" clip-rule="evenodd" d="M167.154 133.481C167.915 134.328 168.932 132.709 168.52 132.379C167.518 131.528 167.065 133.374 167.154 133.481Z" fill="#6B9183"/>
<path fill-rule="evenodd" clip-rule="evenodd" d="M170.662 138.602C171.405 139.467 172.426 137.848 172.029 137.499C171.008 136.667 170.558 138.513 170.662 138.602Z" fill="#D5D6EA"/>
<path fill-rule="evenodd" clip-rule="evenodd" d="M169.326 130.232C170.068 131.064 171.086 129.445 170.688 129.129C169.667 128.264 169.218 130.106 169.326 130.232Z" fill="#ABC9AD"/>
<path fill-rule="evenodd" clip-rule="evenodd" d="M167.919 143.032C169.136 144.439 170.808 141.762 170.15 141.22C168.491 139.823 167.759 142.864 167.919 143.032Z" fill="#6B9183"/>
<path fill-rule="evenodd" clip-rule="evenodd" d="M164.966 142.623C165.724 143.47 166.745 141.851 166.329 141.52C165.327 140.67 164.877 142.515 164.966 142.623Z" fill="#D5D6EA"/>
<path fill-rule="evenodd" clip-rule="evenodd" d="M172.334 132.479C173.288 133.08 173.838 131.25 173.37 131.053C172.159 130.481 172.233 132.386 172.334 132.479Z" fill="#ABC9AD"/>
<path fill-rule="evenodd" clip-rule="evenodd" d="M146.308 156.157C145.665 157.869 149.427 157.78 149.59 156.971C150.01 154.88 146.378 155.946 146.308 156.157Z" fill="#ABC9AD"/>
<path fill-rule="evenodd" clip-rule="evenodd" d="M148.298 158.638C147.942 159.566 149.609 159.681 149.713 159.232C149.928 158.103 148.328 158.519 148.298 158.638Z" fill="#D5D6EA"/>
<path fill-rule="evenodd" clip-rule="evenodd" d="M143.757 158.359C143.181 159.878 145.929 160.056 146.074 159.324C146.46 157.472 143.82 158.166 143.757 158.359Z" fill="#6B9183"/>
<path fill-rule="evenodd" clip-rule="evenodd" d="M121.459 146.696C120.089 147.335 122.355 149.462 122.919 149.08C124.382 148.092 121.623 146.615 121.459 146.696Z" fill="#ABC9AD"/>
<path fill-rule="evenodd" clip-rule="evenodd" d="M121.192 149.314C120.442 149.652 121.359 150.688 121.682 150.483C122.462 149.945 121.278 149.262 121.192 149.314Z" fill="#D5D6EA"/>
<path fill-rule="evenodd" clip-rule="evenodd" d="M118.678 146.514C117.457 147.075 118.975 148.776 119.484 148.43C120.784 147.561 118.827 146.44 118.678 146.514Z" fill="#6B9183"/>
<path fill-rule="evenodd" clip-rule="evenodd" d="M133.501 138.308C132.955 140.105 136.806 139.771 136.921 138.928C137.214 136.756 133.561 138.085 133.501 138.308Z" fill="#6B9183"/>
<path fill-rule="evenodd" clip-rule="evenodd" d="M137.556 136.76C137.623 137.781 139.227 137.168 139.13 136.704C138.845 135.557 137.53 136.641 137.556 136.76Z" fill="#D5D6EA"/>
<path fill-rule="evenodd" clip-rule="evenodd" d="M129.692 137.012C128.571 138.249 131.129 139.452 131.545 138.809C132.61 137.183 129.825 136.856 129.692 137.012Z" fill="#6B9183"/>
<path fill-rule="evenodd" clip-rule="evenodd" d="M118.853 141.542C117.371 141.839 119.072 144.438 119.714 144.204C121.367 143.585 119.031 141.498 118.853 141.542Z" fill="#ABC9AD"/>
<path fill-rule="evenodd" clip-rule="evenodd" d="M117.981 144.023C117.171 144.179 117.817 145.4 118.181 145.274C119.068 144.936 118.073 143.993 117.981 144.023Z" fill="#D5D6EA"/>
<path fill-rule="evenodd" clip-rule="evenodd" d="M116.194 140.711C114.876 140.97 115.949 142.979 116.528 142.76C117.995 142.222 116.358 140.674 116.194 140.711Z" fill="#6B9183"/>
<path fill-rule="evenodd" clip-rule="evenodd" d="M83.0357 152.686C83.9405 159.036 90.845 157.56 91.8785 153.766C93.0037 149.59 89.5127 147.114 86.6559 147.353C84.3369 147.56 82.734 150.639 83.0357 152.686Z" fill="#EDCFC7"/>
<path fill-rule="evenodd" clip-rule="evenodd" d="M88.9404 149.989C89.0691 150.894 90.0685 150.797 90.226 150.259C90.3859 149.672 89.893 149.304 89.4811 149.354C89.1476 149.37 88.9088 149.703 88.9404 149.989Z" fill="#FEFEFE"/>
<path fill-rule="evenodd" clip-rule="evenodd" d="M78.4879 24.0615C79.3927 30.4122 86.2971 28.935 87.3306 25.1423C88.4558 20.9664 84.9648 18.4899 82.1081 18.7287C79.789 18.9359 78.1861 22.0155 78.4879 24.0615Z" fill="#EDCFC7"/>
<path fill-rule="evenodd" clip-rule="evenodd" d="M84.3925 21.3644C84.5212 22.2692 85.5206 22.1722 85.6781 21.6345C85.838 21.047 85.3451 20.6795 84.9332 20.7297C84.5997 20.7458 84.3613 21.0787 84.3925 21.3644Z" fill="#FEFEFE"/>
<path fill-rule="evenodd" clip-rule="evenodd" d="M205.238 47.8159C206.143 54.1665 213.047 52.6894 214.081 48.8967C215.206 44.7208 211.715 42.2443 208.858 42.4831C206.539 42.6903 204.936 45.7699 205.238 47.8159Z" fill="#EDCFC7"/>
<path fill-rule="evenodd" clip-rule="evenodd" d="M211.143 45.1198C211.271 46.0246 212.271 45.9276 212.428 45.3898C212.588 44.8024 212.095 44.4348 211.683 44.485C211.35 44.5006 211.111 44.8336 211.143 45.1198Z" fill="#FEFEFE"/>
<path fill-rule="evenodd" clip-rule="evenodd" d="M207.947 68.0244C208.852 74.3751 215.757 72.8979 216.79 69.1052C217.915 64.9293 214.424 62.4528 211.568 62.6916C209.249 62.8988 207.646 65.9783 207.947 68.0244Z" fill="#EDCFC7"/>
<path fill-rule="evenodd" clip-rule="evenodd" d="M213.852 65.3278C213.981 66.2326 214.98 66.1356 215.138 65.5978C215.298 65.0104 214.805 64.6428 214.393 64.693C214.06 64.7086 213.821 65.0416 213.852 65.3278Z" fill="#FEFEFE"/>
<path fill-rule="evenodd" clip-rule="evenodd" d="M99.9764 52.4273C100.34 54.9803 103.116 54.3865 103.531 52.8616C103.984 51.1827 102.58 50.1872 101.432 50.2832C100.499 50.3666 99.855 51.6048 99.9764 52.4273Z" fill="#EDCFC7"/>
<path fill-rule="evenodd" clip-rule="evenodd" d="M102.35 51.3432C102.402 51.7069 102.803 51.6679 102.867 51.4519C102.931 51.2155 102.733 51.0682 102.567 51.0882C102.433 51.0946 102.337 51.2281 102.35 51.3432Z" fill="#FEFEFE"/>
<path fill-rule="evenodd" clip-rule="evenodd" d="M205.216 110.943C205.58 113.496 208.355 112.903 208.771 111.378C209.223 109.699 207.82 108.703 206.671 108.799C205.739 108.883 205.095 110.12 205.216 110.943Z" fill="#EDCFC7"/>
<path fill-rule="evenodd" clip-rule="evenodd" d="M207.59 109.859C207.642 110.223 208.043 110.184 208.107 109.968C208.171 109.732 207.973 109.584 207.807 109.604C207.673 109.61 207.577 109.744 207.59 109.859Z" fill="#FEFEFE"/>
<path fill-rule="evenodd" clip-rule="evenodd" d="M113.752 166.409C114.116 168.962 116.892 168.368 117.307 166.844C117.759 165.165 116.356 164.169 115.207 164.265C114.275 164.349 113.631 165.587 113.752 166.409Z" fill="#EDCFC7"/>
<path fill-rule="evenodd" clip-rule="evenodd" d="M116.126 165.325C116.178 165.689 116.579 165.65 116.643 165.434C116.707 165.197 116.509 165.05 116.343 165.07C116.209 165.077 116.113 165.21 116.126 165.325Z" fill="#FEFEFE"/>
<path fill-rule="evenodd" clip-rule="evenodd" d="M64.9217 136.383C65.2854 138.936 68.0612 138.343 68.4765 136.818C68.9289 135.139 67.5254 134.143 66.3769 134.239C65.4448 134.323 64.8008 135.561 64.9217 136.383Z" fill="#EDCFC7"/>
<path fill-rule="evenodd" clip-rule="evenodd" d="M67.2953 135.3C67.347 135.663 67.7487 135.624 67.8121 135.408C67.8764 135.172 67.678 135.025 67.5127 135.045C67.3787 135.051 67.2826 135.185 67.2953 135.3Z" fill="#FEFEFE"/>
<path fill-rule="evenodd" clip-rule="evenodd" d="M153.785 172.659C154.148 175.212 156.924 174.618 157.34 173.094C157.792 171.415 156.388 170.419 155.24 170.515C154.308 170.599 153.664 171.837 153.785 172.659Z" fill="#EDCFC7"/>
<path fill-rule="evenodd" clip-rule="evenodd" d="M156.158 171.575C156.21 171.939 156.612 171.9 156.675 171.684C156.739 171.447 156.541 171.3 156.376 171.32C156.242 171.327 156.146 171.46 156.158 171.575Z" fill="#FEFEFE"/>
<path fill-rule="evenodd" clip-rule="evenodd" d="M186.028 152.385C186.392 154.938 189.167 154.345 189.583 152.82C190.035 151.141 188.632 150.145 187.483 150.241C186.551 150.325 185.906 151.563 186.028 152.385Z" fill="#EDCFC7"/>
<path fill-rule="evenodd" clip-rule="evenodd" d="M188.402 151.302C188.453 151.665 188.855 151.626 188.918 151.41C188.983 151.174 188.784 151.027 188.619 151.047C188.485 151.053 188.389 151.187 188.402 151.302Z" fill="#FEFEFE"/>
<path fill-rule="evenodd" clip-rule="evenodd" d="M138.899 13.5737C139.263 16.1268 142.038 15.533 142.454 14.0081C142.906 12.3292 141.503 11.3337 140.354 11.4297C139.422 11.5131 138.777 12.7513 138.899 13.5737Z" fill="#EDCFC7"/>
<path fill-rule="evenodd" clip-rule="evenodd" d="M141.272 12.4897C141.324 12.8534 141.726 12.8144 141.789 12.5984C141.854 12.362 141.655 12.2147 141.49 12.2347C141.356 12.2411 141.26 12.3751 141.272 12.4897Z" fill="#FEFEFE"/>
<path fill-rule="evenodd" clip-rule="evenodd" d="M126.087 126.6C126.992 132.951 133.897 131.474 134.93 127.681C136.055 123.505 132.564 121.028 129.708 121.267C127.389 121.475 125.786 124.554 126.087 126.6Z" fill="#FCE3C5"/>
<path fill-rule="evenodd" clip-rule="evenodd" d="M131.992 123.903C132.121 124.808 133.12 124.711 133.277 124.174C133.437 123.586 132.945 123.219 132.533 123.269C132.199 123.284 131.96 123.618 131.992 123.903Z" fill="#FEFEFE"/>
<path fill-rule="evenodd" clip-rule="evenodd" d="M192.352 123.766C193.257 130.117 200.161 128.64 201.195 124.847C202.32 120.671 198.829 118.194 195.972 118.433C193.653 118.641 192.05 121.72 192.352 123.766Z" fill="#FCE3C5"/>
<path fill-rule="evenodd" clip-rule="evenodd" d="M198.256 121.069C198.385 121.974 199.384 121.877 199.542 121.34C199.702 120.752 199.209 120.385 198.797 120.435C198.464 120.45 198.225 120.784 198.256 121.069Z" fill="#FEFEFE"/>
<path fill-rule="evenodd" clip-rule="evenodd" d="M66.7717 83.9233C67.6765 90.274 74.581 88.7969 75.6145 85.0041C76.7396 80.8282 73.2486 78.3517 70.3919 78.5906C68.0728 78.7977 66.4699 81.8773 66.7717 83.9233Z" fill="#FCE3C5"/>
<path fill-rule="evenodd" clip-rule="evenodd" d="M72.6763 81.2272C72.805 82.132 73.8044 82.035 73.9619 81.4973C74.1218 80.9098 73.6289 80.5422 73.217 80.5925C72.8835 80.6081 72.6451 80.941 72.6763 81.2272Z" fill="#FEFEFE"/>
<path fill-rule="evenodd" clip-rule="evenodd" d="M211.94 152.584C212.393 155.76 215.846 155.022 216.364 153.124C216.927 151.035 215.18 149.797 213.751 149.917C212.591 150.02 211.789 151.56 211.94 152.584Z" fill="#FCE3C5"/>
<path fill-rule="evenodd" clip-rule="evenodd" d="M214.894 151.235C214.958 151.688 215.458 151.639 215.537 151.37C215.617 151.076 215.37 150.892 215.164 150.917C214.998 150.925 214.878 151.092 214.894 151.235Z" fill="#FEFEFE"/>
<path fill-rule="evenodd" clip-rule="evenodd" d="M80.1098 68.5325C80.5627 71.709 84.0157 70.9704 84.5329 69.0731C85.096 66.9842 83.3493 65.7459 81.9204 65.8653C80.7602 65.9687 79.9587 67.5092 80.1098 68.5325Z" fill="#FCE3C5"/>
<path fill-rule="evenodd" clip-rule="evenodd" d="M83.0631 67.1839C83.1275 67.6368 83.6272 67.588 83.7061 67.3189C83.7861 67.0249 83.5394 66.8412 83.3337 66.866C83.167 66.8738 83.0475 67.0405 83.0631 67.1839Z" fill="#FEFEFE"/>
<path fill-rule="evenodd" clip-rule="evenodd" d="M195.462 28.6584C195.915 31.835 199.368 31.0964 199.886 29.1991C200.449 27.1101 198.702 25.8719 197.273 25.9913C196.113 26.0947 195.312 27.6347 195.462 28.6584Z" fill="#FCE3C5"/>
<path fill-rule="evenodd" clip-rule="evenodd" d="M198.416 27.3094C198.48 27.7622 198.98 27.7135 199.059 27.4444C199.139 27.1504 198.892 26.9666 198.686 26.9915C198.52 26.9998 198.4 27.166 198.416 27.3094Z" fill="#FEFEFE"/>
</g>
<defs>
<clipPath id="clip0">
<rect width="285" height="195" fill="white" transform="translate(0 -5)"/>
</clipPath>
</defs>
</svg>
