<svg width="285" height="190" viewBox="0 0 285 190" fill="none" xmlns="http://www.w3.org/2000/svg">
<rect width="285" height="190" fill="#EBF6FE"/>
<path fill-rule="evenodd" clip-rule="evenodd" d="M96.7628 155.823C91.4988 158.328 92.045 166.82 96.618 169.259C98.8156 170.431 102.675 170.213 104.453 168.603C107.197 166.123 107.944 160.318 105.601 157.675C103.226 154.99 100.091 154.238 96.7628 155.823Z" fill="#FAB942"/>
<path fill-rule="evenodd" clip-rule="evenodd" d="M103.516 168.276C104.564 167.845 105.387 167.219 106 166.47C97.6097 167.216 95.8006 164.059 95.6154 157C95.0229 157.459 94.5214 158.049 94.1226 158.712C92.6155 161.216 92.5357 164.798 94.436 166.64C96.8804 169.008 100.1 169.672 103.516 168.276Z" fill="#F9B424"/>
<path fill-rule="evenodd" clip-rule="evenodd" d="M98.8811 156.33C96.2495 157.333 96.5227 160.729 98.8082 161.704C99.907 162.172 101.837 162.085 102.727 161.44C104.099 160.448 104.472 158.128 103.3 157.07C102.114 155.995 100.544 155.695 98.8811 156.33Z" fill="#F6A300"/>
<path fill-rule="evenodd" clip-rule="evenodd" d="M101.806 156.163C100.679 156.667 100.795 158.363 101.777 158.851C102.247 159.087 103.072 159.043 103.455 158.719C104.042 158.224 104.202 157.061 103.702 156.534C103.188 155.998 102.517 155.848 101.806 156.163Z" fill="white"/>
<path fill-rule="evenodd" clip-rule="evenodd" d="M118.495 90C111.228 97.8474 110.932 102.024 101.154 108.52C90.5978 115.532 82.2329 122.58 87.7503 136.491C91.3245 145.5 106.176 147.316 108.625 136.875C109.319 133.908 108.676 130.692 105.368 129.221C102.666 128.021 109.002 137.367 100.255 137.367C92.5276 137.367 89.0018 123.021 98.5537 119.054C112.433 113.289 117.606 106.391 122.855 91.9768C123.624 89.8586 121.216 91.3487 118.495 90Z" fill="#ED768B"/>
<path fill-rule="evenodd" clip-rule="evenodd" d="M114.03 99.3454C114.092 99.944 115.193 101.057 116.38 100.998C119.742 100.824 119.478 97.3708 117.77 96.328C116.544 95.5749 113.674 95.9379 114.03 99.3454Z" fill="#F4AFB3"/>
<path fill-rule="evenodd" clip-rule="evenodd" d="M115.018 98.0069C115.057 98.3675 115.715 99.0337 116.427 98.9987C118.446 98.8935 118.286 96.8223 117.263 96.1962C116.527 95.7453 114.805 95.9632 115.018 98.0069Z" fill="#DD8FBC"/>
<path fill-rule="evenodd" clip-rule="evenodd" d="M110.03 104.345C110.092 104.944 111.193 106.057 112.38 105.998C115.742 105.824 115.478 102.371 113.77 101.328C112.544 100.575 109.674 100.938 110.03 104.345Z" fill="#F4AFB3"/>
<path fill-rule="evenodd" clip-rule="evenodd" d="M111.019 104.007C111.057 104.365 111.715 105.034 112.427 104.999C114.446 104.896 114.286 102.823 113.263 102.198C112.525 101.744 110.803 101.962 111.019 104.007Z" fill="#DD8FBC"/>
<path fill-rule="evenodd" clip-rule="evenodd" d="M105.03 110.014C105.091 110.733 106.193 112.069 107.38 111.997C110.741 111.789 110.477 107.645 108.773 106.394C107.544 105.49 104.674 105.925 105.03 110.014Z" fill="#F4AFB3"/>
<path fill-rule="evenodd" clip-rule="evenodd" d="M106.018 110.007C106.057 110.368 106.715 111.034 107.427 110.999C109.446 110.894 109.286 108.823 108.263 108.198C107.527 107.744 105.805 107.962 106.018 110.007Z" fill="#DD8FBC"/>
<path fill-rule="evenodd" clip-rule="evenodd" d="M98.0303 114.345C98.0943 114.944 99.1927 116.057 100.38 115.998C103.742 115.824 103.478 112.371 101.77 111.328C100.544 110.575 97.6744 110.938 98.0303 114.345Z" fill="#F4AFB3"/>
<path fill-rule="evenodd" clip-rule="evenodd" d="M99.0181 114.007C99.0567 114.368 99.7144 115.036 100.429 114.998C102.445 114.893 102.286 112.823 101.263 112.197C100.526 111.744 98.8049 111.964 99.0181 114.007Z" fill="#DD8FBC"/>
<path fill-rule="evenodd" clip-rule="evenodd" d="M92.0305 118.347C92.0925 118.945 93.1932 120.061 94.3796 119.997C97.7439 119.825 97.4753 116.37 95.7725 115.326C94.5449 114.576 91.6734 114.938 92.0305 118.347Z" fill="#F4AFB3"/>
<path fill-rule="evenodd" clip-rule="evenodd" d="M93.0185 118.008C93.0567 118.366 93.7166 119.036 94.4283 118.999C96.4463 118.895 96.2854 116.823 95.2628 116.197C94.5265 115.745 92.8031 115.963 93.0185 118.008Z" fill="#DD8FBC"/>
<path fill-rule="evenodd" clip-rule="evenodd" d="M88.024 124.345C88.0736 124.946 88.9541 126.058 89.903 125.998C92.594 125.825 92.3816 122.371 91.0172 121.328C90.0352 120.575 87.7408 120.94 88.024 124.345Z" fill="#F4AFB3"/>
<path fill-rule="evenodd" clip-rule="evenodd" d="M88.0241 124.008C88.075 124.366 88.955 125.036 89.9042 124.999C92.5951 124.895 92.3806 122.823 91.0169 122.197C90.0351 121.745 87.7405 121.963 88.0241 124.008Z" fill="#DD8FBC"/>
<path fill-rule="evenodd" clip-rule="evenodd" d="M87.0305 131.347C87.0925 131.948 88.193 133.061 89.379 132.997C92.7425 132.825 92.4769 129.37 90.7716 128.326C89.5442 127.576 86.6735 127.938 87.0305 131.347Z" fill="#F4AFB3"/>
<path fill-rule="evenodd" clip-rule="evenodd" d="M88.0185 131.008C88.0567 131.366 88.7166 132.036 89.4283 131.999C91.4463 131.895 91.2854 129.823 90.2628 129.197C89.5265 128.745 87.8031 128.963 88.0185 131.008Z" fill="#DD8FBC"/>
<path fill-rule="evenodd" clip-rule="evenodd" d="M90.0244 137.347C90.074 137.945 90.9546 139.061 91.9037 138.997C94.5951 138.825 94.3803 135.369 93.018 134.326C92.0335 133.576 89.7388 133.941 90.0244 137.347Z" fill="#F4AFB3"/>
<path fill-rule="evenodd" clip-rule="evenodd" d="M90.0181 137.008C90.0563 137.366 90.7163 138.036 91.4281 137.999C93.4464 137.895 93.2854 135.823 92.2627 135.197C91.5263 134.745 89.8053 134.963 90.0181 137.008Z" fill="#DD8FBC"/>
<path fill-rule="evenodd" clip-rule="evenodd" d="M95.0305 141.347C95.0925 141.945 96.1932 143.061 97.3796 142.997C100.744 142.825 100.475 139.369 98.7725 138.326C97.5449 137.576 94.6734 137.941 95.0305 141.347Z" fill="#F4AFB3"/>
<path fill-rule="evenodd" clip-rule="evenodd" d="M96.0185 141.008C96.0567 141.366 96.7166 142.036 97.4283 141.999C99.4463 141.895 99.2854 139.823 98.2628 139.197C97.5265 138.745 95.8031 138.963 96.0185 141.008Z" fill="#DD8FBC"/>
<path fill-rule="evenodd" clip-rule="evenodd" d="M102.024 140.677C102.076 141.156 102.955 142.046 103.904 141.998C106.593 141.86 106.382 139.096 105.017 138.262C104.037 137.659 101.741 137.952 102.024 140.677Z" fill="#F4AFB3"/>
<path fill-rule="evenodd" clip-rule="evenodd" d="M102.018 140.339C102.055 140.578 102.716 141.025 103.428 140.999C105.446 140.929 105.286 139.547 104.263 139.13C103.525 138.831 101.804 138.976 102.018 140.339Z" fill="#DD8FBC"/>
<path fill-rule="evenodd" clip-rule="evenodd" d="M106.012 137.008C106.037 137.368 106.477 138.035 106.952 137.999C108.297 137.895 108.191 135.823 107.509 135.196C107.017 134.745 105.869 134.964 106.012 137.008Z" fill="#F4AFB3"/>
<path fill-rule="evenodd" clip-rule="evenodd" d="M106.006 137.339C106.019 137.58 106.239 138.024 106.475 137.999C107.149 137.93 107.096 136.547 106.753 136.131C106.509 135.83 105.935 135.974 106.006 137.339Z" fill="#DD8FBC"/>
<path fill-rule="evenodd" clip-rule="evenodd" d="M106.012 133.008C106.037 133.368 106.477 134.035 106.952 133.999C108.297 133.895 108.191 131.823 107.509 131.196C107.017 130.745 105.87 130.964 106.012 133.008Z" fill="#F4AFB3"/>
<path fill-rule="evenodd" clip-rule="evenodd" d="M106.006 132.669C106.019 132.788 106.239 133.012 106.476 132.999C107.149 132.965 107.096 132.273 106.754 132.065C106.51 131.915 105.935 131.989 106.006 132.669Z" fill="#DD8FBC"/>
<path fill-rule="evenodd" clip-rule="evenodd" d="M158.786 93.4437C161.177 103.999 159.295 107.777 164.599 118.45C170.322 129.972 174.093 140.399 162.089 149.635C154.314 155.619 140.271 149.55 143.464 139.222C144.371 136.288 146.589 133.827 150.264 134.254C153.264 134.604 142.88 139.458 150.603 143.958C157.425 147.935 167.894 137.295 161.497 128.932C152.201 116.783 151.171 108.13 153.928 92.9127C154.331 90.6816 155.692 93.2138 158.786 93.4437Z" fill="#ED768B"/>
<path fill-rule="evenodd" clip-rule="evenodd" d="M158.183 103.414C157.826 103.895 156.329 104.312 155.356 103.677C152.599 101.885 154.584 99.0599 156.558 99.0008C157.979 98.9578 160.22 100.673 158.183 103.414Z" fill="#F4AFB3"/>
<path fill-rule="evenodd" clip-rule="evenodd" d="M157.346 102.531C157.061 102.915 155.861 103.25 155.085 102.743C152.88 101.309 154.466 99.0503 156.046 99.0006C157.182 98.9675 158.976 100.339 157.346 102.531Z" fill="#DD8FBC"/>
<path fill-rule="evenodd" clip-rule="evenodd" d="M159.02 110.414C158.588 110.895 156.795 111.312 155.627 110.677C152.319 108.885 154.701 106.06 157.07 106.001C158.774 105.958 161.464 107.673 159.02 110.414Z" fill="#F4AFB3"/>
<path fill-rule="evenodd" clip-rule="evenodd" d="M157.51 109.531C157.296 109.915 156.396 110.25 155.813 109.743C154.16 108.309 155.35 106.05 156.534 106.001C157.386 105.967 158.732 107.339 157.51 109.531Z" fill="#DD8FBC"/>
<path fill-rule="evenodd" clip-rule="evenodd" d="M160.183 117.414C159.826 117.895 158.329 118.312 157.356 117.677C154.599 115.885 156.584 113.06 158.558 113.001C159.979 112.958 162.22 114.673 160.183 117.414Z" fill="#F4AFB3"/>
<path fill-rule="evenodd" clip-rule="evenodd" d="M159.51 116.648C159.296 116.936 158.396 117.187 157.813 116.807C156.16 115.732 157.35 114.038 158.534 114.001C159.386 113.973 160.732 115.004 159.51 116.648Z" fill="#DD8FBC"/>
<path fill-rule="evenodd" clip-rule="evenodd" d="M164.183 125.297C163.826 125.874 162.329 126.374 161.356 125.613C158.599 123.462 160.584 120.072 162.558 120.001C163.976 119.949 166.22 122.007 164.183 125.297Z" fill="#F4AFB3"/>
<path fill-rule="evenodd" clip-rule="evenodd" d="M163.509 124.648C163.295 124.936 162.395 125.187 161.813 124.807C160.16 123.732 161.35 122.038 162.534 122.001C163.388 121.973 164.732 123.004 163.509 124.648Z" fill="#DD8FBC"/>
<path fill-rule="evenodd" clip-rule="evenodd" d="M167.183 131.414C166.824 131.896 165.328 132.31 164.355 131.679C161.6 129.885 163.583 127.058 165.559 127.001C166.977 126.955 169.22 128.67 167.183 131.414Z" fill="#F4AFB3"/>
<path fill-rule="evenodd" clip-rule="evenodd" d="M166.51 130.649C166.296 130.938 165.399 131.186 164.813 130.807C163.159 129.732 164.351 128.037 165.535 128C166.387 127.977 167.731 129.004 166.51 130.649Z" fill="#DD8FBC"/>
<path fill-rule="evenodd" clip-rule="evenodd" d="M168.183 138.413C167.825 138.895 166.329 139.311 165.355 138.678C162.601 136.884 164.582 134.061 166.558 134.001C167.978 133.955 170.22 135.669 168.183 138.413Z" fill="#F4AFB3"/>
<path fill-rule="evenodd" clip-rule="evenodd" d="M167.51 137.649C167.296 137.938 166.399 138.186 165.813 137.807C164.159 136.732 165.351 135.037 166.535 135C167.387 134.977 168.731 136.004 167.51 137.649Z" fill="#DD8FBC"/>
<path fill-rule="evenodd" clip-rule="evenodd" d="M164.346 144.531C164.059 144.917 162.863 145.25 162.085 144.741C159.879 143.306 161.467 141.049 163.048 141.001C164.184 140.966 165.975 142.337 164.346 144.531Z" fill="#F4AFB3"/>
<path fill-rule="evenodd" clip-rule="evenodd" d="M164.345 144.531C164.06 144.918 162.863 145.248 162.083 144.742C159.881 143.309 161.466 141.05 163.045 141.001C164.181 140.969 165.977 142.339 164.345 144.531Z" fill="#DD8FBC"/>
<path fill-rule="evenodd" clip-rule="evenodd" d="M159.345 149.415C159.058 149.897 157.862 150.311 157.085 149.678C154.88 147.884 156.467 145.061 158.047 145.001C159.183 144.958 160.976 146.675 159.345 149.415Z" fill="#F4AFB3"/>
<path fill-rule="evenodd" clip-rule="evenodd" d="M159.347 148.649C159.062 148.938 157.864 149.186 157.083 148.807C154.881 147.732 156.467 146.037 158.046 146C159.183 145.977 160.976 147.004 159.347 148.649Z" fill="#DD8FBC"/>
<path fill-rule="evenodd" clip-rule="evenodd" d="M153.183 149.414C152.824 149.896 151.328 150.312 150.356 149.676C147.599 147.883 149.584 145.061 151.56 145.001C152.978 144.958 155.22 146.674 153.183 149.414Z" fill="#F4AFB3"/>
<path fill-rule="evenodd" clip-rule="evenodd" d="M152.51 148.649C152.296 148.938 151.398 149.186 150.812 148.807C149.16 147.732 150.35 146.037 151.534 146C152.387 145.977 153.732 147.004 152.51 148.649Z" fill="#DD8FBC"/>
<path fill-rule="evenodd" clip-rule="evenodd" d="M148.182 145.532C147.824 145.917 146.329 146.249 145.355 145.741C142.601 144.308 144.582 142.048 146.556 142.001C147.98 141.967 150.22 143.339 148.182 145.532Z" fill="#F4AFB3"/>
<path fill-rule="evenodd" clip-rule="evenodd" d="M146.836 144.766C146.764 144.957 146.465 145.125 146.271 144.871C145.72 144.154 146.117 143.024 146.511 143C146.796 142.983 147.244 143.668 146.836 144.766Z" fill="#DD8FBC"/>
<path fill-rule="evenodd" clip-rule="evenodd" d="M146.51 140.649C146.295 140.939 145.396 141.187 144.813 140.806C143.16 139.73 144.35 138.034 145.534 138C146.387 137.976 147.731 139.004 146.51 140.649Z" fill="#F4AFB3"/>
<path fill-rule="evenodd" clip-rule="evenodd" d="M145.673 140.765C145.531 140.958 144.933 141.125 144.542 140.871C143.44 140.154 144.233 139.025 145.024 139C145.591 138.985 146.488 139.67 145.673 140.765Z" fill="#DD8FBC"/>
<path fill-rule="evenodd" clip-rule="evenodd" d="M148.51 137.647C148.295 137.938 147.396 138.186 146.813 137.808C145.16 136.731 146.35 135.037 147.534 135.001C148.387 134.973 149.731 136.002 148.51 137.647Z" fill="#F4AFB3"/>
<path fill-rule="evenodd" clip-rule="evenodd" d="M147.673 136.765C147.528 136.958 146.929 137.125 146.542 136.871C145.44 136.154 146.233 135.025 147.024 135C147.591 134.985 148.488 135.67 147.673 136.765Z" fill="#DD8FBC"/>
<path fill-rule="evenodd" clip-rule="evenodd" d="M133.23 91C130.907 97.8441 129.929 104.534 125.753 110.857C120.315 119.087 115.278 123.011 117.566 133.808C120.012 145.352 134.884 148.122 125.513 159.828C123.764 162.013 138.185 162.42 134.854 149.371C133.793 145.22 125.067 141.533 125.308 127.96C125.39 123.425 132.391 113.325 135.018 109.405C136.668 106.939 141.997 91.6671 136.731 91.8456C135.594 91.8813 133.031 91.5902 133.23 91Z" fill="#ED768B"/>
<path fill-rule="evenodd" clip-rule="evenodd" d="M136.183 100.414C135.826 100.895 134.329 101.312 133.356 100.677C130.599 98.8848 132.584 96.0599 134.558 96.0008C135.979 95.9578 138.22 97.6726 136.183 100.414Z" fill="#F4AFB3"/>
<path fill-rule="evenodd" clip-rule="evenodd" d="M135.51 99.6482C135.296 99.9363 134.396 100.187 133.813 99.8072C132.16 98.7317 133.35 97.0377 134.534 97.0004C135.386 96.9756 136.732 98.0039 135.51 99.6482Z" fill="#DD8FBC"/>
<path fill-rule="evenodd" clip-rule="evenodd" d="M134.182 107.414C133.825 107.895 132.328 108.312 131.355 107.677C128.6 105.885 130.584 103.06 132.557 103.001C133.98 102.958 136.22 104.673 134.182 107.414Z" fill="#F4AFB3"/>
<path fill-rule="evenodd" clip-rule="evenodd" d="M133.509 105.648C133.295 105.936 132.395 106.187 131.813 105.807C130.16 104.732 131.35 103.038 132.534 103C133.388 102.976 134.732 104.004 133.509 105.648Z" fill="#DD8FBC"/>
<path fill-rule="evenodd" clip-rule="evenodd" d="M131.182 113.414C130.825 113.895 129.328 114.312 128.355 113.677C125.6 111.885 127.584 109.06 129.557 109.001C130.98 108.955 133.22 110.67 131.182 113.414Z" fill="#F4AFB3"/>
<path fill-rule="evenodd" clip-rule="evenodd" d="M130.509 112.648C130.295 112.936 129.395 113.187 128.813 112.807C127.16 111.732 128.35 110.038 129.534 110C130.388 109.976 131.732 111.004 130.509 112.648Z" fill="#DD8FBC"/>
<path fill-rule="evenodd" clip-rule="evenodd" d="M127.183 119.414C126.826 119.895 125.329 120.312 124.356 119.677C121.599 117.885 123.584 115.06 125.558 115.001C126.979 114.955 129.22 116.67 127.183 119.414Z" fill="#F4AFB3"/>
<path fill-rule="evenodd" clip-rule="evenodd" d="M125.51 118.648C125.296 118.936 124.396 119.187 123.813 118.807C122.16 117.732 123.35 116.038 124.534 116C125.386 115.976 126.732 117.004 125.51 118.648Z" fill="#DD8FBC"/>
<path fill-rule="evenodd" clip-rule="evenodd" d="M124.02 126.414C123.588 126.895 121.795 127.312 120.627 126.677C117.319 124.885 119.701 122.06 122.07 122.001C123.774 121.958 126.464 123.67 124.02 126.414Z" fill="#F4AFB3"/>
<path fill-rule="evenodd" clip-rule="evenodd" d="M122.51 125.531C122.296 125.915 121.396 126.25 120.813 125.743C119.16 124.309 120.35 122.05 121.534 122.001C122.386 121.964 123.732 123.335 122.51 125.531Z" fill="#DD8FBC"/>
<path fill-rule="evenodd" clip-rule="evenodd" d="M123.183 133.414C122.826 133.895 121.329 134.312 120.356 133.677C117.599 131.885 119.584 129.06 121.558 129.001C122.979 128.958 125.22 130.673 123.183 133.414Z" fill="#F4AFB3"/>
<path fill-rule="evenodd" clip-rule="evenodd" d="M122.51 133.648C122.296 133.936 121.396 134.187 120.813 133.807C119.16 132.732 120.35 131.038 121.534 131C122.386 130.976 123.732 132.004 122.51 133.648Z" fill="#DD8FBC"/>
<path fill-rule="evenodd" clip-rule="evenodd" d="M125.183 140.414C124.826 140.895 123.329 141.312 122.356 140.677C119.599 138.885 121.584 136.06 123.558 136.001C124.979 135.958 127.22 137.673 125.183 140.414Z" fill="#F4AFB3"/>
<path fill-rule="evenodd" clip-rule="evenodd" d="M124.51 140.648C124.296 140.936 123.396 141.187 122.813 140.807C121.16 139.732 122.35 138.035 123.534 138.001C124.386 137.973 125.732 139.001 124.51 140.648Z" fill="#DD8FBC"/>
<path fill-rule="evenodd" clip-rule="evenodd" d="M129.346 146.532C129.06 146.917 127.864 147.249 127.084 146.742C124.88 145.308 126.467 143.049 128.046 143.001C129.185 142.967 130.975 144.34 129.346 146.532Z" fill="#F4AFB3"/>
<path fill-rule="evenodd" clip-rule="evenodd" d="M128.51 145.649C128.296 145.937 127.395 146.187 126.814 145.807C125.16 144.732 126.35 143.036 127.534 143.001C128.386 142.974 129.732 144.004 128.51 145.649Z" fill="#DD8FBC"/>
<path fill-rule="evenodd" clip-rule="evenodd" d="M133.347 151.532C133.06 151.917 131.864 152.249 131.085 151.742C128.88 150.308 130.467 148.047 132.046 148.001C133.183 147.967 134.976 149.34 133.347 151.532Z" fill="#F4AFB3"/>
<path fill-rule="evenodd" clip-rule="evenodd" d="M132.51 151.649C132.296 151.937 131.395 152.187 130.814 151.807C129.16 150.729 130.35 149.036 131.534 149.001C132.386 148.974 133.733 150.004 132.51 151.649Z" fill="#DD8FBC"/>
<path fill-rule="evenodd" clip-rule="evenodd" d="M132.346 158.532C132.059 158.917 130.862 159.249 130.085 158.742C127.879 157.308 129.467 155.05 131.048 155.001C132.182 154.965 133.976 156.337 132.346 158.532Z" fill="#F4AFB3"/>
<path fill-rule="evenodd" clip-rule="evenodd" d="M131.674 158.532C131.531 158.916 130.93 159.249 130.543 158.742C129.44 157.309 130.233 155.048 131.023 155.001C131.591 154.965 132.487 156.339 131.674 158.532Z" fill="#DD8FBC"/>
<path fill-rule="evenodd" clip-rule="evenodd" d="M149.73 92.1109C150.37 99.9707 149.755 107.317 152.299 115.103C155.608 125.236 159.535 130.702 154.83 141.557C149.798 153.167 134.872 152.251 141.152 167.091C142.324 169.862 128.379 166.558 134.61 153.582C136.593 149.455 145.83 147.805 148.75 133.35C149.725 128.521 145.347 115.999 143.734 111.159C142.721 108.117 141.152 90.5422 146.168 92.0972C147.256 92.4306 149.787 92.7859 149.73 92.1109Z" fill="#DD8FBC"/>
<path fill-rule="evenodd" clip-rule="evenodd" d="M130.776 88C127.486 95.1718 125.56 102.3 120.496 108.741C113.902 117.125 108.321 120.903 109.067 132.752C109.864 145.424 124.303 149.751 113.293 161.53C111.236 163.731 125.563 165.469 124.096 151.095C123.628 146.524 115.451 141.761 117.622 127.144C118.349 122.26 126.768 112.001 129.944 108.007C131.941 105.497 139.427 89.5055 134.15 89.2263C133.008 89.1634 130.493 88.6159 130.776 88Z" fill="#DD8FBC"/>
<path fill-rule="evenodd" clip-rule="evenodd" d="M112.802 93.0759C112.844 90.757 116.404 86.6164 116.803 79.8393C117.192 73.2675 114.392 64.1192 116.312 57.8745C119.166 48.5882 125.94 43.4871 129.093 41.6775C137.61 36.7883 151.207 37.0528 157.066 41.5674C160.671 44.3454 166.728 51.1206 168.638 58.9281C171.037 68.7346 164.751 76.2874 164.043 84.5454C163.575 90.0073 169.065 98.0709 168.529 99.0826C167.961 99.1284 165.853 95.7476 164.986 95.7378C164.117 95.7278 164.492 99.0083 163.367 99.0253C160.937 99.062 161.161 95.2619 160.239 95.1967C159.087 95.1152 158.384 98.5733 157.085 98.5683C154.54 98.558 155.052 94.574 153.807 94.4548C152.736 94.352 152.362 98.1062 150.185 97.9019C148.001 97.6971 148.547 94.4429 147.438 94.3217C146.276 94.1952 146.015 97.5461 143.383 97.1538C140.574 96.7365 141.012 93.6107 139.714 93.4528C138.613 93.3209 138.747 96.4929 136.198 96.2961C133.986 96.1263 134.541 93.1115 133.507 92.9826C132.417 92.8457 132.283 95.6716 129.848 95.4941C127.213 95.3018 128.198 92.2264 127.227 92.0978C126.284 91.9731 126.147 94.9101 124.104 94.7315C122.202 94.5649 122.702 91.4726 121.803 91.3472C120.717 91.1965 120.078 94.4242 118.228 93.9126C115.835 93.2507 117.118 90.7229 116.301 90.6015C115.202 90.4307 113.47 93.1904 112.802 93.0759Z" fill="#FDB4CE"/>
<path fill-rule="evenodd" clip-rule="evenodd" d="M129.143 74C129.385 74 129.97 73.3234 129.996 72.4029C130.077 69.5825 128.811 69.5038 128.258 70.8373C127.861 71.7893 127.764 74 129.143 74Z" fill="black"/>
<path fill-rule="evenodd" clip-rule="evenodd" d="M155.143 72C155.385 72 155.97 71.4939 155.996 70.8016C156.079 68.6869 154.808 68.6287 154.256 69.6264C153.862 70.3449 153.764 72 155.143 72Z" fill="black"/>
<path fill-rule="evenodd" clip-rule="evenodd" d="M126.035 77.6136C126.102 78.0898 127.097 79.1134 128.247 78.9897C131.761 78.6124 131.515 76.1046 129.713 75.2727C128.423 74.6728 125.659 74.9016 126.035 77.6136Z" fill="#F4AFB3"/>
<path fill-rule="evenodd" clip-rule="evenodd" d="M154.028 75.9602C154.079 76.3174 154.877 77.0851 155.797 76.9923C158.609 76.7093 158.412 74.8261 156.971 74.2045C155.936 73.7546 153.727 73.9262 154.028 75.9602Z" fill="#F4AFB3"/>
<path fill-rule="evenodd" clip-rule="evenodd" d="M140.262 79.9376C140.683 80.6702 141.56 81.0112 142.417 80.9997C143.696 80.9836 144.975 80.1403 145 79.3086C145.003 79.2141 144.82 79.0344 144.702 79.4722C144.533 79.7855 144.059 80.2555 143.704 80.4329C143.378 80.5942 142.92 80.7578 142.437 80.7532C141.83 80.7486 141.192 80.5228 140.81 80.2302C140.47 79.9698 140.327 79.5758 140.301 79.3938C140.231 78.9169 140.015 78.8985 140.001 79.2026C139.987 79.4768 140.223 79.8708 140.262 79.9376Z" fill="black"/>
<path fill-rule="evenodd" clip-rule="evenodd" d="M130.699 42C130.041 42.2537 129.846 42.3097 129 42.7052C128.995 42.7071 129.59 43.3806 130.048 43.6251C132.502 44.9273 132.553 42.4552 130.699 42Z" fill="#DD8FBC"/>
<path fill-rule="evenodd" clip-rule="evenodd" d="M135.14 41.1533C132.984 40.384 132.166 42.6862 134.061 44.1458C137.667 46.9214 137.868 42.1283 135.14 41.1533Z" fill="#DD8FBC"/>
<path fill-rule="evenodd" clip-rule="evenodd" d="M138.55 39C136.759 39.3081 136.305 39.4746 135 39.7549C134.991 39.7576 136.647 41.0842 137.227 41.445C140.341 43.3821 140.904 39.6799 138.55 39Z" fill="#DD8FBC"/>
<path fill-rule="evenodd" clip-rule="evenodd" d="M141.145 39C140.397 39.0312 139.778 39.1056 139 39.1368C138.997 39.1368 140.112 39.7134 140.447 39.8294C142.234 40.4441 142.496 39.2164 141.145 39Z" fill="#DD8FBC"/>
<path fill-rule="evenodd" clip-rule="evenodd" d="M144.676 40.1533C141.98 39.384 140.957 41.6862 143.327 43.1458C147.833 45.9214 148.084 41.1283 144.676 40.1533Z" fill="#DD8FBC"/>
<path fill-rule="evenodd" clip-rule="evenodd" d="M148.07 40.0769C146.992 39.6914 146.583 40.843 147.531 41.5738C149.334 42.9599 149.434 40.5633 148.07 40.0769Z" fill="#DD8FBC"/>
<path fill-rule="evenodd" clip-rule="evenodd" d="M141.07 42.077C139.992 41.6912 139.583 42.8434 140.531 43.572C142.333 44.9612 142.434 42.5661 141.07 42.077Z" fill="#DD8FBC"/>
<path fill-rule="evenodd" clip-rule="evenodd" d="M140.14 44.1152C137.984 43.5374 137.166 45.2657 139.059 46.3582C142.666 48.4423 142.869 44.8469 140.14 44.1152Z" fill="#DD8FBC"/>
<path fill-rule="evenodd" clip-rule="evenodd" d="M137.071 46.0772C135.993 45.6908 135.583 46.8432 136.529 47.5719C138.334 48.9616 138.433 46.5653 137.071 46.0772Z" fill="#DD8FBC"/>
<path fill-rule="evenodd" clip-rule="evenodd" d="M150.717 43.291C150.217 42.569 149.769 43.3054 150.132 44.246C150.82 46.0323 151.349 44.2028 150.717 43.291Z" fill="#DD8FBC"/>
<path fill-rule="evenodd" clip-rule="evenodd" d="M144.676 44.1533C141.98 43.384 140.957 45.6862 143.327 47.1458C147.833 49.9214 148.084 45.1283 144.676 44.1533Z" fill="#DD8FBC"/>
<path fill-rule="evenodd" clip-rule="evenodd" d="M149.318 45.2212C148.277 44.5821 147.533 45.4432 148.345 46.3373C149.892 48.0355 150.64 46.0283 149.318 45.2212Z" fill="#DD8FBC"/>
<path fill-rule="evenodd" clip-rule="evenodd" d="M141.606 48.1149C139.989 47.5381 139.374 49.2654 140.796 50.3601C143.499 52.441 143.651 48.8436 141.606 48.1149Z" fill="#DD8FBC"/>
<path fill-rule="evenodd" clip-rule="evenodd" d="M146.32 49.2217C145.275 48.5824 144.533 49.4408 145.346 50.3352C146.891 52.037 147.639 50.0291 146.32 49.2217Z" fill="#DD8FBC"/>
<path fill-rule="evenodd" clip-rule="evenodd" d="M149.364 49.2483C148.334 48.5753 147.534 49.3864 148.312 50.2985C149.797 52.037 150.665 50.1012 149.364 49.2483Z" fill="#DD8FBC"/>
<path fill-rule="evenodd" clip-rule="evenodd" d="M152.515 46.5127C151.559 45.3513 150.558 46.3311 151.206 47.7774C152.439 50.5291 153.724 47.9809 152.515 46.5127Z" fill="#DD8FBC"/>
<path fill-rule="evenodd" clip-rule="evenodd" d="M152.66 50.111C152.137 49.7907 151.767 50.2215 152.173 50.6677C152.945 51.5181 153.32 50.5153 152.66 50.111Z" fill="#DD8FBC"/>
<path fill-rule="evenodd" clip-rule="evenodd" d="M153.676 40.1533C150.98 39.384 149.957 41.6862 152.327 43.1458C156.833 45.9214 157.084 41.1283 153.676 40.1533Z" fill="#DD8FBC"/>
<path fill-rule="evenodd" clip-rule="evenodd" d="M146.66 39.111C146.137 38.7907 145.766 39.2215 146.173 39.6677C146.946 40.5181 147.319 39.5153 146.66 39.111Z" fill="#DD8FBC"/>
<path fill-rule="evenodd" clip-rule="evenodd" d="M150.321 40.111C149.274 39.7907 148.533 40.2215 149.346 40.6677C150.891 41.5181 151.638 40.5153 150.321 40.111Z" fill="#DD8FBC"/>
<path fill-rule="evenodd" clip-rule="evenodd" d="M157.319 46.111C156.274 45.7907 155.533 46.2215 156.345 46.6677C157.889 47.5181 158.64 46.5153 157.319 46.111Z" fill="#DD8FBC"/>
<path fill-rule="evenodd" clip-rule="evenodd" d="M132.66 46.1111C132.137 45.7905 131.766 46.2217 132.173 46.6683C132.946 47.5174 133.319 46.5158 132.66 46.1111Z" fill="#DD8FBC"/>
<path fill-rule="evenodd" clip-rule="evenodd" d="M125.659 47.111C125.139 46.7907 124.766 47.2215 125.172 47.6677C125.947 48.5181 126.319 47.5153 125.659 47.111Z" fill="#DD8FBC"/>
<path fill-rule="evenodd" clip-rule="evenodd" d="M136.319 50.1112C135.274 49.7904 134.533 50.2218 135.345 50.6686C136.893 51.518 137.638 50.5137 136.319 50.1112Z" fill="#DD8FBC"/>
<path fill-rule="evenodd" clip-rule="evenodd" d="M152.318 52.2204C151.278 51.5836 150.532 52.4415 151.345 53.3347C152.893 55.0372 153.639 53.0296 152.318 52.2204Z" fill="#DD8FBC"/>
<path fill-rule="evenodd" clip-rule="evenodd" d="M157.66 50.1101C157.137 49.792 156.767 50.2205 157.173 50.6667C157.945 51.5194 158.32 50.5143 157.66 50.1101Z" fill="#DD8FBC"/>
<path fill-rule="evenodd" clip-rule="evenodd" d="M98.7625 58.7667C93.4978 61.1074 94.0467 69.0302 98.6165 71.308C100.815 72.403 104.673 72.1977 106.453 70.6975C109.197 68.3814 109.944 62.9636 107.602 60.4969C105.225 57.992 102.091 57.2884 98.7625 58.7667Z" fill="#00B3D6"/>
<path fill-rule="evenodd" clip-rule="evenodd" d="M104.705 70.3365C105.673 69.9428 106.435 69.3678 107 68.6815C99.2521 69.3678 97.5839 66.4723 97.4131 60C96.8673 60.4196 96.4055 60.9609 96.036 61.5695C94.6449 63.8616 94.5721 67.1482 96.3243 68.8369C98.5804 71.0073 101.553 71.6159 104.705 70.3365Z" fill="#16B7CF"/>
<path fill-rule="evenodd" clip-rule="evenodd" d="M100.881 59.3289C98.2492 60.3322 98.5236 63.7289 100.807 64.7042C101.905 65.1722 103.836 65.0853 104.727 64.4407C106.099 63.4486 106.471 61.1281 105.302 60.0688C104.11 58.9954 102.544 58.6956 100.881 59.3289Z" fill="#ABD7F4"/>
<path fill-rule="evenodd" clip-rule="evenodd" d="M103.806 59.1655C102.678 59.6664 102.796 61.3632 103.775 61.8516C104.245 62.0864 105.071 62.0426 105.454 61.7201C106.041 61.2223 106.202 60.064 105.701 59.5349C105.188 58.9995 104.517 58.8461 103.806 59.1655Z" fill="white"/>
<path fill-rule="evenodd" clip-rule="evenodd" d="M134.881 127.384C132.249 128.555 132.523 132.517 134.808 133.654C135.906 134.201 137.837 134.099 138.727 133.349C140.099 132.191 140.471 129.484 139.302 128.25C138.113 126.995 136.545 126.644 134.881 127.384Z" fill="#FAB942"/>
<path fill-rule="evenodd" clip-rule="evenodd" d="M137.852 133.579C138.336 133.328 138.716 132.963 139 132.525C135.128 132.96 134.29 131.118 134.207 127C133.934 127.267 133.702 127.61 133.517 127.999C132.822 129.461 132.786 131.55 133.663 132.626C134.79 134.005 136.276 134.391 137.852 133.579Z" fill="#F9B424"/>
<path fill-rule="evenodd" clip-rule="evenodd" d="M136.074 127.22C134.572 127.89 134.727 130.15 136.033 130.803C136.66 131.115 137.761 131.056 138.272 130.629C139.057 129.966 139.269 128.421 138.601 127.716C137.922 126.997 137.024 126.796 136.074 127.22Z" fill="#F6A300"/>
<path fill-rule="evenodd" clip-rule="evenodd" d="M137.537 127.109C136.786 127.443 136.863 128.579 137.518 128.901C137.832 129.057 138.38 129.03 138.637 128.812C139.027 128.481 139.135 127.708 138.801 127.354C138.46 127 138.012 126.899 137.537 127.109Z" fill="white"/>
<path fill-rule="evenodd" clip-rule="evenodd" d="M105.88 84.2731C103.25 85.1089 103.523 87.939 105.807 88.7529C106.906 89.1434 108.835 89.071 109.727 88.5357C111.099 87.7087 111.472 85.7737 110.301 84.8917C109.111 83.9967 107.543 83.7466 105.88 84.2731Z" fill="#00B3D6"/>
<path fill-rule="evenodd" clip-rule="evenodd" d="M108.045 88.6973C108.448 88.5177 108.764 88.2563 109 87.9448C105.772 88.2563 105.076 86.9414 105.005 84C104.778 84.1901 104.584 84.4357 104.432 84.7129C103.851 85.7559 103.822 87.2477 104.553 88.0134C105.492 89.0036 106.73 89.2808 108.045 88.6973Z" fill="#16B7CF"/>
<path fill-rule="evenodd" clip-rule="evenodd" d="M106.805 84.1647C105.678 84.6642 105.796 86.3609 106.774 86.8511C107.246 87.0867 108.073 87.0427 108.455 86.7191C109.041 86.2227 109.203 85.0633 108.7 84.5354C108.187 83.9981 107.517 83.8473 106.805 84.1647Z" fill="#ABD7F4"/>
<path fill-rule="evenodd" clip-rule="evenodd" d="M107.538 84.0545C106.783 84.2211 106.867 84.7891 107.515 84.951C107.83 85.0285 108.381 85.0144 108.635 84.9064C109.029 84.7398 109.136 84.3526 108.798 84.1766C108.46 84.0005 108.01 83.9489 107.538 84.0545Z" fill="white"/>
<path fill-rule="evenodd" clip-rule="evenodd" d="M172.181 99.2064C163.533 102.884 164.433 115.334 171.941 118.912C175.55 120.633 181.892 120.311 184.816 117.951C189.324 114.314 190.549 105.799 186.705 101.924C182.8 97.9858 177.649 96.8816 172.181 99.2064Z" fill="#00B3D6"/>
<path fill-rule="evenodd" clip-rule="evenodd" d="M182.366 117.913C183.9 117.27 185.105 116.329 186 115.204C173.733 116.327 171.09 111.591 170.822 101C169.957 101.688 169.224 102.571 168.641 103.57C166.438 107.325 166.321 112.698 169.098 115.46C172.668 119.012 177.372 120.009 182.366 117.913Z" fill="#16B7CF"/>
<path fill-rule="evenodd" clip-rule="evenodd" d="M176.151 99.5478C173.141 101.217 173.455 106.881 176.067 108.506C177.323 109.288 179.529 109.141 180.546 108.068C182.113 106.414 182.538 102.546 181.201 100.782C179.843 98.9924 178.052 98.4927 176.151 99.5478Z" fill="#ABD7F4"/>
<path fill-rule="evenodd" clip-rule="evenodd" d="M179.806 99.2741C178.678 100.109 178.796 102.941 179.775 103.753C180.246 104.144 181.073 104.071 181.455 103.536C182.043 102.708 182.202 100.772 181.7 99.8918C181.19 98.9981 180.517 98.7451 179.806 99.2741Z" fill="white"/>
<path fill-rule="evenodd" clip-rule="evenodd" d="M195.612 110.382C193.357 111.553 193.591 115.515 195.55 116.654C196.492 117.201 198.146 117.099 198.909 116.35C200.085 115.192 200.405 112.483 199.4 111.248C198.383 109.995 197.041 109.645 195.612 110.382Z" fill="#00B3D6"/>
<path fill-rule="evenodd" clip-rule="evenodd" d="M198.042 115.699C198.445 115.519 198.762 115.258 199 114.946C195.772 115.258 195.075 113.942 195.005 111C194.777 111.19 194.586 111.436 194.431 111.713C193.853 112.756 193.821 114.249 194.552 115.015C195.486 116.003 196.727 116.28 198.042 115.699Z" fill="#16B7CF"/>
<path fill-rule="evenodd" clip-rule="evenodd" d="M196.537 111.11C195.785 111.443 195.864 112.576 196.516 112.901C196.831 113.058 197.382 113.028 197.636 112.813C198.028 112.482 198.135 111.709 197.8 111.357C197.46 110.999 197.011 110.898 196.537 111.11Z" fill="#ABD7F4"/>
<path fill-rule="evenodd" clip-rule="evenodd" d="M197.269 111.056C196.894 111.222 196.931 111.789 197.257 111.951C197.415 112.028 197.69 112.014 197.818 111.907C198.015 111.74 198.068 111.354 197.899 111.178C197.73 111 197.507 110.948 197.269 111.056Z" fill="white"/>
<path fill-rule="evenodd" clip-rule="evenodd" d="M175.032 20.8225C169.392 23.328 169.977 31.8201 174.876 34.2594C177.231 35.4308 181.366 35.213 183.271 33.6034C186.211 31.1227 187.011 25.318 184.502 22.6747C181.956 19.9901 178.597 19.2377 175.032 20.8225Z" fill="#16B7CF"/>
<path fill-rule="evenodd" clip-rule="evenodd" d="M100.419 35.4929C97.0351 36.9963 97.3864 42.0901 100.325 43.5555C101.738 44.2583 104.22 44.1281 105.362 43.162C107.126 41.6748 107.606 38.1904 106.102 36.6056C104.574 34.9936 102.558 34.5431 100.419 35.4929Z" fill="#16B7CF"/>
<path fill-rule="evenodd" clip-rule="evenodd" d="M183.15 45.4923C180.142 46.9958 180.455 52.0899 183.066 53.5554C184.322 54.2584 186.529 54.1281 187.544 53.1619C189.112 51.6747 189.539 48.19 188.202 46.605C186.844 44.9957 185.052 44.5424 183.15 45.4923Z" fill="#16B7CF"/>
</svg>
