<svg width="285" height="190" viewBox="0 0 285 190" fill="none" xmlns="http://www.w3.org/2000/svg">
<rect width="285" height="190" fill="#FFC942"/>
<path d="M98 95.597C98.0758 95.6096 104.763 97.0041 104.34 96.9158L112.435 98.6005C112.89 91.6785 115.851 47.6979 120.12 42.2903C121.781 40.2269 122.362 37.8417 121.44 35.3556C120.594 33.0966 118.964 31.7652 118.908 31.6895C118.832 31.7526 110.08 35.5828 105.811 44.2022C101.89 52.0203 98.682 88.4604 98 95.597Z" fill="#FFFC99"/>
<path d="M147.569 35.974C152.987 41.2933 173.042 75.3924 172.505 91.7732C172.505 91.7732 180.43 90.8582 184.693 89.4637H184.699C185.81 89.104 186.669 88.7128 187.073 88.2964C184.37 79.1658 173.446 39.8609 166.203 33.8538C158.531 27.7584 150.524 28.1181 150.449 28.0991C150.385 28.1748 147.588 30.5979 146.824 33.002C146.477 34.1062 146.565 35.1789 147.569 35.974Z" fill="#FFFC99"/>
<path d="M121.067 30.2823C121.067 30.2823 123.65 29.992 130.387 29.2222C137.125 28.4587 150.449 28.1054 150.449 28.1054L145.448 42.896L120.107 42.2902L121.067 30.2823Z" fill="#CC1C05"/>
<path d="M121.067 30.2823C121.067 30.2823 123.277 36.4156 130.28 36.9267C137.277 37.4378 144.096 36.0812 150.449 28.1054L155.008 28.6039C155.008 28.6039 156.858 43.4134 164.297 63.9145C171.735 84.4157 178.144 143.976 170.523 153.548C162.895 163.12 155.298 157.309 156.176 151.112C157.054 144.916 159.756 130.384 154.762 122.244C149.767 114.104 136.519 117.638 137.82 129.103C139.12 140.568 150.038 145.421 145.58 154.343C141.122 163.265 133.021 160.994 128.929 155.655C124.837 150.317 112.517 118.622 112.416 98.6068C112.315 78.5915 118.895 31.6894 118.895 31.6894L121.067 30.2823Z" fill="#FF831D"/>
<path d="M153.404 28.3199C153.404 28.3199 150.903 27.7773 150.165 28.1054C150.165 28.1054 140.541 37.7092 130.419 35.0274C124.963 33.5825 121.143 30.4843 121.067 30.2824L118.901 31.6895C119.009 31.986 122.962 37.0025 131.303 38.2771C139.973 39.5959 147.285 36.0055 153.404 28.3199Z" fill="#FF491F"/>
<path d="M167.688 156.091C167.688 156.091 166.671 152.545 161.948 150.677C157.224 148.809 156.34 149.194 156.34 149.194L157.452 156.167L160.704 158.413L164.783 158.381L167.688 156.091Z" fill="#FFFC99"/>
<path d="M147.253 151.705C147.253 151.705 143.907 150.241 139.095 151.762C134.283 153.283 134.328 159.031 134.328 159.031L137.617 160.35L142.391 158.539L146.66 153.87L147.253 151.705Z" fill="#FFFC99"/>
<path d="M115.441 59.3336C114.254 68.8364 111.835 89.9433 112.107 99.5345C113.047 117.966 119.892 140.631 127.186 154.078C131.669 161.947 139.398 162.817 143.787 158.154C152.274 149.2 143.357 142.209 140.187 134.877C135.193 123.727 142.252 117.07 149.11 118.856C154.237 120.162 155.646 125.923 155.614 125.835C155.639 125.917 156.157 127.702 156.125 127.589C157.95 137.59 156.41 142.815 155.5 151.119C155.222 159.536 163.299 161.776 169.051 156.179C171.476 153.819 172.183 152.311 172.771 150.507C174.261 145.925 175.416 136.423 173.781 115.707C170.731 77.7714 163.583 62.0027 161.79 56.5698C163.172 61.0751 170.131 77.1404 172.821 115.783C173.333 123.279 174.343 141.546 171.508 150.122C171.047 151.51 170.352 153.289 167.959 155.302C161.777 160.502 156.018 157.422 157.041 150.071C158.752 138.884 160.565 120.269 149.495 117.411C145.978 116.483 142.101 117.531 139.556 120.389C132.54 128.34 141.678 140.322 143.976 144.241C146.414 148.431 147.241 152.551 142.802 157.22C140.459 159.725 137.371 160.281 134.328 159.05C129.547 157.119 127.091 152.614 121.831 138.537C110.73 108.028 111.728 96.2533 115.441 59.3336Z" fill="#FF491F"/>
<path d="M146.174 43.9939C150.626 48.1963 152.874 53.5661 152.817 58.4942C149.407 55.6169 143.939 54.5063 138.672 56.9167C139.102 52.4619 141.602 47.6221 146.174 43.9939Z" fill="#FF3312"/>
<path d="M150.437 56.8031C150.443 53.8185 149.407 50.7077 147.526 48.0385L147.374 47.824L147.147 47.9565C143.933 49.8369 141.647 52.7584 140.876 55.9639L141.438 56.0964C142.152 53.1181 144.248 50.3922 147.21 48.5875C148.927 51.1052 149.868 54.0078 149.862 56.7968L150.437 56.8031Z" fill="white"/>
<path d="M126.492 46.4928C123.909 52.0455 123.814 57.8633 125.69 62.4191C127.786 58.4817 132.465 55.434 138.243 55.7242C136.203 51.7426 132.086 48.1712 126.492 46.4928Z" fill="#FF3312"/>
<path d="M127.275 59.9644L127.811 59.7499C126.776 57.1628 126.574 54.1151 127.237 51.1431C130.659 51.7236 133.614 53.4841 135.376 55.9891L135.85 55.661C133.949 52.9603 130.748 51.0989 127.06 50.5373L126.801 50.4995L126.738 50.7581C125.974 53.9194 126.17 57.1943 127.275 59.9644Z" fill="white"/>
<path d="M125.241 64.6402C125.26 64.8421 125.305 65.0504 125.368 65.2649C126.504 69.3727 134.385 75.8026 138.818 78.0552H138.824C139.929 78.6168 140.807 78.9134 141.331 78.8629C141.685 78.8251 142.284 78.4591 143.042 77.8596C146.667 74.976 153.809 66.6026 154.086 62.2109C154.105 61.9963 154.099 61.7881 154.08 61.5925C153.55 56.5887 146.66 53.2128 138.704 54.0521C130.741 54.8976 124.711 59.6364 125.241 64.6402Z" fill="#D65600"/>
<path d="M142.436 75.2662C142.531 76.1685 142.739 77.0329 143.048 77.8595C146.673 74.9759 153.815 66.6026 154.093 62.2108L154.061 62.2172C146.951 62.968 141.754 68.8174 142.436 75.2662Z" fill="white"/>
<path d="M125.368 65.2649C126.504 69.3727 134.385 75.8026 138.818 78.0552H138.824C138.919 77.2665 138.925 76.4588 138.843 75.6448C138.18 69.3853 132.213 64.8358 125.368 65.2649Z" fill="white"/>
<path d="M138.395 76.0802C138.95 75.058 142.701 74.7362 143.573 75.5312C144.444 76.3263 142.682 79.4876 141.388 79.6201C140.093 79.7589 137.845 77.1024 138.395 76.0802Z" fill="#48384C"/>
<path d="M148.132 67.4986C147.248 67.5932 146.509 67.9529 146.13 68.4135C145.884 68.2242 145.726 67.9844 145.694 67.7131C145.612 66.9243 146.635 66.1671 147.974 66.0283C149.319 65.8832 150.474 66.4132 150.556 67.202C150.588 67.4733 150.474 67.7383 150.279 67.9781C149.811 67.6058 149.016 67.4039 148.132 67.4986Z" fill="#272528"/>
<path d="M131.973 69.2086C131.089 69.3033 130.35 69.6629 129.971 70.1235C129.725 69.9342 129.567 69.6945 129.535 69.4231C129.453 68.6344 130.476 67.8772 131.815 67.7384C133.16 67.5933 134.315 68.1233 134.398 68.912C134.429 69.1834 134.315 69.4484 134.12 69.6881C133.652 69.3159 132.857 69.114 131.973 69.2086Z" fill="#272528"/>
</svg>
