<svg width="285" height="190" viewBox="0 0 285 190" fill="none" xmlns="http://www.w3.org/2000/svg">
<rect width="285" height="190" fill="#C7E1F4"/>
<path fill-rule="evenodd" clip-rule="evenodd" d="M92.8427 127.84C92.8044 131.511 87.1766 144.192 85.8148 144.858C78.0167 144.379 81.1764 145.171 85.1297 145.9C85.7893 146.022 79.3721 149.094 80.7636 150.347C81.2679 150.801 85.185 146.147 86.9255 147.098C87.2851 147.296 86.3234 151.092 87.1383 151.479C88.3851 149.428 87.8383 145.877 87.9809 145.605C88.5404 144.547 98.6854 131.03 97.9045 130.366C97.7471 130.232 92.8576 126.398 92.8427 127.84Z" fill="#522626"/>
<path fill-rule="evenodd" clip-rule="evenodd" d="M119.567 68.6429C121.861 59.5874 119.524 51.0743 114.286 46.6316C109.969 42.9698 103.496 42.3294 98.677 42.2783C87.8873 42.1677 79.6381 43.1273 72.3337 53.2148C66.5612 61.1874 60.478 77.2985 60.478 86.1222C60.478 95.5182 61.7993 110.553 69.2783 121.757C83.8532 143.59 123.495 130.336 140.321 120.347C147.836 115.885 155.811 111.534 164.16 109.399C173.051 107.125 205.45 109.093 221.272 108.568C225.449 108.429 227.123 107.161 222.757 104.895C223.112 104.106 174.428 97.8991 170.313 95.8565C163.268 92.3628 167.624 92.8926 155.194 85.3434C132.382 71.4941 133.599 75.4219 119.567 68.6429Z" fill="#F5DB36"/>
<path fill-rule="evenodd" clip-rule="evenodd" d="M116.714 66.879C106.984 68.9854 93.7023 73.7366 93.7896 85.4327C93.9172 102.437 106.03 109.676 122.537 109.676C137.827 109.676 152.464 109.24 166.766 103.48C174.158 100.503 159.457 99.148 158.932 99.1204C159.174 99.148 188.628 100.852 165.534 95.9862C155.532 93.8798 168.26 96.6714 174.758 95.9245C177.107 95.6543 164.992 93.267 167.041 92.9627C169.564 92.5882 176.4 96.0245 177.196 94.7479C177.237 94.6883 119.554 66.2641 116.714 66.879Z" fill="#686252"/>
<path fill-rule="evenodd" clip-rule="evenodd" d="M69.108 58.3639C76.5699 53.1574 88.4383 52.4489 92.9661 52.4489C106.337 52.4489 110.603 57.4043 110.79 64.1939C110.807 64.8216 114.758 63.662 118.42 63.662C122.248 63.662 123.648 36.7059 96.2577 40.1698C84.7403 41.6273 75.0635 44.9316 69.108 58.3639Z" fill="#2D250E"/>
<path fill-rule="evenodd" clip-rule="evenodd" d="M92.2216 64.3661C92.3322 65.0577 93.2025 67.313 95.3025 68.0109C98.2196 68.9812 102.569 67.8407 102.167 63.2831C101.632 57.2532 90.9301 56.2617 92.2216 64.3661Z" fill="white"/>
<path fill-rule="evenodd" clip-rule="evenodd" d="M93.7278 64.3875C93.8193 65.0194 94.5406 67.0811 96.2768 67.7195C98.6896 68.6067 102.29 67.562 101.956 63.3981C101.515 57.8852 92.6597 56.9788 93.7278 64.3875Z" fill="#400000"/>
<path fill-rule="evenodd" clip-rule="evenodd" d="M97.475 62.764C97.5112 63.0108 97.792 63.8172 98.4729 64.0683C99.4176 64.4151 100.824 64.0066 100.694 62.3789C100.522 60.2192 97.058 59.866 97.475 62.764Z" fill="white"/>
<path fill-rule="evenodd" clip-rule="evenodd" d="M110.718 63.2257C112.635 62.6108 116.611 61.2172 118.801 63.4045C118.843 63.447 119.509 66.7726 120.995 68.9429C120.594 69.3259 112.09 72.0515 110.473 68.7578C109.984 67.762 109.32 65.3258 110.718 63.2257Z" fill="#484336"/>
<path fill-rule="evenodd" clip-rule="evenodd" d="M120.995 68.9429C120.29 68.0088 118.895 63.5065 118.558 63.1831C117.343 62.0129 114.969 61.7192 110.799 63.2023C111.718 66.6598 120.239 68.9663 120.995 68.9429Z" fill="#7B7463"/>
<path fill-rule="evenodd" clip-rule="evenodd" d="M78.0593 56.8532C74.3187 56.3149 72.3782 60.2405 75.1464 58.5766C75.9507 58.0958 78.1316 56.8638 78.0593 56.8532ZM100.356 52.9744C98.8939 52.0616 97.3598 53.3424 98.8215 53.1573C99.2471 53.1063 100.385 52.9935 100.356 52.9744ZM98.5492 54.2552C98.5768 54.2723 97.4406 54.385 97.0151 54.4382C95.5534 54.6233 97.0853 53.3403 98.5492 54.2552ZM97.1875 51.4913C95.7236 50.5785 94.1916 51.8594 95.6534 51.6743C96.0789 51.6211 97.2172 51.5105 97.1875 51.4913ZM94.0001 53.1169C92.5363 52.2041 91.0043 53.485 92.466 53.2999C92.8895 53.2467 94.0278 53.1339 94.0001 53.1169ZM94.4299 50.6211C94.4767 50.6509 92.6107 50.8339 91.9128 50.9232C89.5128 51.2254 92.0277 49.1232 94.4299 50.6211ZM90.5277 52.6297C87.9042 51.5701 85.7892 54.0765 88.1 53.3616C88.7723 53.1552 90.5788 52.6509 90.5277 52.6297ZM86.4063 51.3807C86.4574 51.402 84.6509 51.9062 83.9786 52.1126C81.6679 52.8275 83.7828 50.3211 86.4063 51.3807ZM85.3169 54.4446C82.5168 54.0425 81.0615 56.9808 83.136 55.7361C83.7381 55.3744 85.3722 54.451 85.3169 54.4446ZM79.5869 52.7956C76.7869 52.3935 75.3315 55.3319 77.406 54.0871C78.0082 53.7254 79.6401 52.802 79.5869 52.7956ZM75.6932 53.4424C75.7486 53.4509 74.1145 54.3723 73.5123 54.734C71.4378 55.9787 72.891 53.0403 75.6932 53.4424ZM75.1251 55.9574C75.1996 55.9681 73.0166 57.1979 72.2123 57.683C69.4441 59.3426 71.3867 55.4191 75.1251 55.9574ZM82.0104 54.0191C82.0849 54.0297 79.9019 55.2595 79.0976 55.7425C76.3294 57.4064 78.272 53.4808 82.0104 54.0191Z" fill="#484336"/>
<path fill-rule="evenodd" clip-rule="evenodd" d="M76.0658 65.2428C72.287 65.1938 70.9763 61.0171 73.4551 63.0874C74.1764 63.6917 76.1403 65.2449 76.0658 65.2428ZM97.4962 72.5259C95.9089 73.2004 94.594 71.6983 96.0089 72.1068C96.4196 72.2259 97.526 72.511 97.4962 72.5259ZM95.9068 70.9812C94.3195 71.6578 93.0046 70.1535 94.4195 70.5621C94.8323 70.6812 95.9387 70.9684 95.9068 70.9812ZM94.1344 73.5004C92.5471 74.1749 91.2322 72.6727 92.6471 73.0813C93.0599 73.2004 94.1663 73.4876 94.1344 73.5004ZM91.2364 71.4025C89.6491 72.077 88.3342 70.5748 89.7492 70.9833C90.1619 71.1025 91.2683 71.3897 91.2364 71.4025ZM91.2747 73.9345C91.3258 73.9132 89.5109 73.4409 88.8342 73.2472C86.5108 72.577 88.6725 75.043 91.2747 73.9345ZM87.7321 71.3472C84.9767 71.9876 83.2745 69.1854 85.4469 70.2471C86.0788 70.5557 87.7853 71.3344 87.7321 71.3472ZM83.466 71.9429C83.5213 71.9302 81.8128 71.1514 81.1808 70.8429C79.0084 69.7812 80.7106 72.5834 83.466 71.9429ZM82.8639 68.7471C80.034 68.7109 79.0531 65.5832 80.9085 67.1343C81.4489 67.5854 82.9192 68.7471 82.8639 68.7471ZM76.9467 69.4897C74.1168 69.4535 73.1359 66.3258 74.9913 67.8769C75.5317 68.328 77.002 69.4897 76.9467 69.4897ZM73.2019 68.2471C73.2572 68.2471 71.7848 67.0854 71.2465 66.6343C69.389 65.0832 70.372 68.2109 73.2019 68.2471ZM73.0295 65.6768C73.104 65.6768 71.138 64.1236 70.4188 63.5214C67.94 61.4512 69.2507 65.6279 73.0295 65.6768ZM79.5319 68.6556C79.6063 68.6556 77.6403 67.1024 76.9211 66.5002C74.4424 64.43 75.7552 68.6067 79.5319 68.6556Z" fill="#484336"/>
<path fill-rule="evenodd" clip-rule="evenodd" d="M66.5206 95.3692C67.11 99.1012 63.2141 101.097 64.8376 98.3054C65.3078 97.4948 66.5099 95.2947 66.5206 95.3692ZM68.0632 106.097C66.0355 108.206 67.627 111.199 67.8313 108.708C67.8908 107.982 68.1036 106.057 68.0632 106.097ZM69.3058 101.691C69.3462 101.648 69.1334 103.576 69.0739 104.301C68.8696 106.793 67.2781 103.799 69.3058 101.691ZM71.5973 95.8203C72.5314 97.2693 71.2697 98.8204 71.4356 97.3565C71.4824 96.9309 71.5782 95.7905 71.5973 95.8203ZM78.8677 72.326C79.3465 73.9834 77.6954 75.1069 78.272 73.7515C78.4401 73.3558 78.8571 72.2919 78.8677 72.326ZM76.8209 73.5515C77.2996 75.2069 75.6485 76.3325 76.2251 74.9771C76.3932 74.5835 76.8102 73.5196 76.8209 73.5515ZM78.0848 75.4261C78.0741 75.3537 76.8719 77.5516 76.4017 78.3623C74.7783 81.1539 78.6741 79.1581 78.0848 75.4261ZM68.91 68.5599C70.342 69.5195 69.8015 71.4429 69.3717 70.0344C69.2462 69.6259 68.8824 68.5429 68.91 68.5599ZM68.4845 70.7344C68.4568 70.7153 68.8207 71.7983 68.9462 72.2089C69.3781 73.6175 69.9186 71.694 68.4845 70.7344ZM74.0272 71.6642C74.9612 73.1153 73.7017 74.6643 73.8655 73.2004C73.9123 72.7749 74.0102 71.6366 74.0272 71.6642ZM72.774 73.4898C72.7548 73.4622 72.6591 74.6005 72.6123 75.026C72.4484 76.492 73.708 74.9409 72.774 73.4898ZM74.9357 74.5516C74.9166 74.5239 74.8208 75.6622 74.774 76.0878C74.608 77.5516 75.8677 76.0005 74.9357 74.5516ZM73.6804 76.3771C74.6145 77.8261 73.3548 79.3772 73.5187 77.9134C73.5655 77.4878 73.6634 76.3474 73.6804 76.3771ZM74.3783 79.256C75.9102 81.6369 73.8421 84.1816 74.1123 81.7773C74.191 81.0773 74.3485 79.2091 74.3783 79.256ZM81.1721 74.7239C78.6082 75.9239 79.0039 79.1772 80.055 77.0006C80.3614 76.3665 81.2231 74.6984 81.1721 74.7239ZM76.6847 86.503C74.3847 87.8626 75.0506 90.8861 75.8421 88.7435C76.0719 88.1222 76.7315 86.4774 76.6847 86.503ZM77.6103 83.1901C75.3102 84.5497 75.9762 87.5732 76.7677 85.4306C76.9975 84.8093 77.655 83.1646 77.6103 83.1901ZM74.6719 87.3073C74.7166 87.2796 74.0591 88.9243 73.8293 89.5478C73.0378 91.6904 72.3697 88.6669 74.6719 87.3073ZM73.8697 85.6689C72.1463 86.6881 72.6463 88.952 73.2378 87.3477C73.4123 86.8817 73.9038 85.6498 73.8697 85.6689ZM75.7294 83.5901C74.0059 84.6093 74.5059 86.8732 75.0974 85.2689C75.2719 84.8008 75.7634 83.5689 75.7294 83.5901ZM79.621 81.9624C77.8975 82.9816 78.3975 85.2455 78.989 83.6412C79.1614 83.1731 79.655 81.9411 79.621 81.9624ZM78.8656 79.79C78.9039 79.7794 78.1294 80.8581 77.8507 81.2688C76.8932 82.6858 76.9486 80.3666 78.8656 79.79ZM81.6912 78.6538C81.7295 78.6432 80.955 79.7219 80.6763 80.1326C79.7188 81.5475 79.7742 79.2304 81.6912 78.6538ZM82.953 75.8176C82.9913 75.8133 82.0444 76.741 81.6976 77.0984C80.5082 78.3283 80.9657 76.0559 82.953 75.8176ZM83.8211 77.3857C82.6104 77.5304 82.3317 78.9155 83.0572 78.1666C83.2657 77.9474 83.8445 77.3814 83.8211 77.3857ZM84.8594 75.0771C83.6487 75.2218 83.37 76.6069 84.0956 75.858C84.3062 75.6409 84.8828 75.075 84.8594 75.0771ZM86.8318 75.9984C85.6211 76.1431 85.3424 77.5282 86.068 76.7793C86.2786 76.5623 86.8552 75.9963 86.8318 75.9984ZM87.2637 74.4941C87.2871 74.492 86.7105 75.0558 86.4999 75.275C85.7743 76.0218 86.0531 74.6367 87.2637 74.4941ZM72.7505 109.21C70.7015 112.385 73.457 115.787 73.1016 112.578C72.9995 111.644 72.791 109.148 72.7505 109.21ZM71.8229 104.435C71.8633 104.374 72.0718 106.87 72.1739 107.804C72.5293 111.012 69.7739 107.61 71.8229 104.435ZM70.7122 111.502C70.7526 111.44 70.9611 113.936 71.0633 114.87C71.4186 118.078 68.6611 114.676 70.7122 111.502ZM68.6632 109.938C68.693 109.891 68.8483 111.761 68.927 112.459C69.193 114.863 67.1291 112.314 68.6632 109.938ZM69.6994 106.129C68.1653 108.506 70.2292 111.055 69.9632 108.65C69.8845 107.953 69.7292 106.082 69.6994 106.129ZM73.5889 101.61C72.0548 103.989 74.1187 106.535 73.8527 104.131C73.7761 103.431 73.6187 101.561 73.5889 101.61ZM71.259 99.3395C69.2015 101.282 70.5952 104.248 70.9122 101.85C71.0058 101.154 71.3016 99.3034 71.259 99.3395ZM74.1144 96.116C72.0569 98.0586 73.4506 101.025 73.7676 98.6289C73.8591 97.931 74.1548 96.0777 74.1144 96.116ZM73.9166 91.7329C71.5527 93.2904 72.4144 96.4543 73.1399 94.1458C73.3527 93.4755 73.9634 91.701 73.9166 91.7329ZM76.006 93.1649C74.5655 94.1138 75.0911 96.0415 75.5336 94.6351C75.6613 94.2266 76.0336 93.1457 76.006 93.1649ZM75.8592 89.5903C75.8868 89.5711 75.5145 90.652 75.3868 91.0606C74.9442 92.4649 74.4208 90.5371 75.8592 89.5903ZM78.938 89.5052C77.4975 90.4541 78.0231 92.3819 78.4656 90.9754C78.5933 90.5669 78.9656 89.486 78.938 89.5052ZM69.2994 91.3776C69.2887 91.3031 68.0866 93.5032 67.6164 94.3139C65.9929 97.1054 69.8888 95.1096 69.2994 91.3776ZM67.4589 98.2884C67.4461 98.214 66.2461 100.414 65.7738 101.225C64.1524 104.018 68.0483 102.023 67.4589 98.2884ZM69.9632 97.6863C69.9547 97.631 69.0568 99.2778 68.7015 99.8864C67.4866 101.978 70.4058 100.482 69.9632 97.6863ZM70.559 93.7862C70.9994 96.582 68.0823 98.0757 69.2973 95.9862C69.6505 95.3777 70.5484 93.7308 70.559 93.7862ZM68.8292 88.0775C69.2696 90.8733 66.3525 92.367 67.5674 90.2775C67.9227 89.669 68.8207 88.0222 68.8292 88.0775ZM71.8782 86.9456C71.8569 86.8945 71.3761 88.7073 71.1782 89.3818C70.4973 91.7031 72.974 89.5541 71.8782 86.9456ZM70.5718 82.8433C71.6675 85.4519 69.1909 87.6009 69.8739 85.2795C70.0696 84.605 70.5505 82.7901 70.5718 82.8433ZM72.525 78.9134C72.4952 78.8666 72.3378 80.7369 72.2591 81.4347C71.9888 83.8369 74.057 81.2922 72.525 78.9134ZM70.0356 79.3772C70.9675 80.8262 69.7079 82.3773 69.8739 80.9134C69.9207 80.4879 70.0186 79.3496 70.0356 79.3772ZM71.6165 76.1686C72.5484 77.6176 71.2909 79.1687 71.4548 77.7048C71.5016 77.2772 71.5973 76.1388 71.6165 76.1686ZM68.8356 74.8452C69.7696 76.2942 68.5079 77.8453 68.6739 76.3814C68.7207 75.9559 68.8164 74.8175 68.8356 74.8452ZM70.0888 73.0196C71.0207 74.4686 69.7611 76.0197 69.9271 74.5558C69.9739 74.1303 70.0696 72.9919 70.0888 73.0196ZM78.5294 87.3285C78.5571 87.3094 78.1848 88.3903 78.0571 88.7988C77.6145 90.2052 77.0911 88.2775 78.5294 87.3285Z" fill="#2D250E"/>
<path fill-rule="evenodd" clip-rule="evenodd" d="M62.3462 90.5413C60.6802 93.9329 63.8101 96.9926 63.0866 93.8457C62.876 92.9308 62.3802 90.4754 62.3462 90.5413Z" fill="#FEC66C"/>
<path fill-rule="evenodd" clip-rule="evenodd" d="M60.8716 85.9051C59.2034 89.2967 62.3355 92.3564 61.6099 89.2095C61.4014 88.2945 60.9056 85.8392 60.8716 85.9051Z" fill="#FEC66C"/>
<path fill-rule="evenodd" clip-rule="evenodd" d="M60.5865 93.0521C58.9184 96.4437 62.0503 99.5034 61.3248 96.3565C61.1163 95.4415 60.6205 92.9861 60.5865 93.0521Z" fill="#FEC66C"/>
<path fill-rule="evenodd" clip-rule="evenodd" d="M58.3716 91.7372C57.1227 94.2777 59.4674 96.5672 58.9249 94.2118C58.7674 93.5267 58.3972 91.6862 58.3716 91.7372Z" fill="#FEC66C"/>
<path fill-rule="evenodd" clip-rule="evenodd" d="M58.9589 87.8349C57.7099 90.3754 60.0547 92.6648 59.5121 90.3094C59.3546 89.6222 58.9823 87.7838 58.9589 87.8349Z" fill="#FEC66C"/>
<path fill-rule="evenodd" clip-rule="evenodd" d="M62.2994 82.8944C61.0504 85.4348 63.3952 87.7242 62.8526 85.3689C62.6951 84.6816 62.3228 82.8433 62.2994 82.8944Z" fill="#FEC66C"/>
<path fill-rule="evenodd" clip-rule="evenodd" d="M59.7228 80.9114C57.9036 83.0795 59.6334 85.8647 59.6696 83.4455C59.6803 82.7433 59.7569 80.8688 59.7228 80.9114Z" fill="#FEC66C"/>
<path fill-rule="evenodd" clip-rule="evenodd" d="M62.1845 77.3773C60.3653 79.5454 62.0951 82.3306 62.1313 79.9114C62.1398 79.2093 62.2185 77.3347 62.1845 77.3773Z" fill="#FEC66C"/>
<path fill-rule="evenodd" clip-rule="evenodd" d="M61.4803 73.0451C59.3142 74.8642 60.5355 77.9068 60.9887 75.5323C61.1207 74.843 61.5228 73.0089 61.4803 73.0451Z" fill="#FEC66C"/>
<path fill-rule="evenodd" clip-rule="evenodd" d="M63.7206 74.2261C62.4014 75.3346 63.144 77.1878 63.4206 75.741C63.5014 75.3197 63.7461 74.2049 63.7206 74.2261Z" fill="#FEC66C"/>
<path fill-rule="evenodd" clip-rule="evenodd" d="M63.1612 70.6918C61.842 71.8004 62.5846 73.6537 62.8612 72.2068C62.942 71.7876 63.1867 70.6706 63.1612 70.6918Z" fill="#FEC66C"/>
<path fill-rule="evenodd" clip-rule="evenodd" d="M66.2079 70.2514C64.8887 71.3599 65.6313 73.2132 65.9079 71.7663C65.9887 71.3472 66.2334 70.2301 66.2079 70.2514Z" fill="#FEC66C"/>
<path fill-rule="evenodd" clip-rule="evenodd" d="M65.5506 68.1365C64.2315 69.2451 64.974 71.0983 65.2506 69.6515C65.3315 69.2323 65.5762 68.1153 65.5506 68.1365Z" fill="#FEC66C"/>
<path fill-rule="evenodd" clip-rule="evenodd" d="M170.241 105.893C180.269 105.148 204.48 109.883 218.497 108.51C230.513 107.334 230.896 101.676 218.895 103.097C206.865 104.525 176.117 102.225 170.241 105.893Z" fill="#484336"/>
<path fill-rule="evenodd" clip-rule="evenodd" d="M164.16 109.397C174.188 108.653 207.608 112.936 221.655 111.923C221.961 111.902 224.815 105.18 212.816 106.604C200.784 108.029 170.037 105.729 164.16 109.397Z" fill="#686252"/>
<path fill-rule="evenodd" clip-rule="evenodd" d="M114.241 107.565C114.337 105.623 101.517 100.178 100.313 100.082C97.8578 99.8907 108.424 108.655 114.241 107.565Z" fill="#484336"/>
<path fill-rule="evenodd" clip-rule="evenodd" d="M120.014 105.75C120.11 103.808 107.29 98.3628 106.086 98.2671C109.733 102.201 114.197 106.84 120.014 105.75Z" fill="#484336"/>
<path fill-rule="evenodd" clip-rule="evenodd" d="M126.776 103.359C126.871 101.416 114.052 95.9715 112.848 95.8757C116.494 99.812 120.958 104.448 126.776 103.359Z" fill="#484336"/>
<path fill-rule="evenodd" clip-rule="evenodd" d="M132.548 99.9778C132.644 98.0352 119.825 92.5904 118.62 92.4946C122.267 96.4309 126.731 101.069 132.548 99.9778Z" fill="#484336"/>
<path fill-rule="evenodd" clip-rule="evenodd" d="M135.242 95.7245C135.312 94.2947 125.871 90.284 124.984 90.2137C127.671 93.1117 130.959 96.5267 135.242 95.7245Z" fill="#484336"/>
<path fill-rule="evenodd" clip-rule="evenodd" d="M141.51 93.8287C141.58 92.3989 132.14 88.3881 131.252 88.3179C133.938 91.2137 137.225 94.6309 141.51 93.8287Z" fill="#484336"/>
<path fill-rule="evenodd" clip-rule="evenodd" d="M146.374 91.1074C146.444 89.6776 137.001 85.6668 136.116 85.5966C138.804 88.4924 142.091 91.9096 146.374 91.1074Z" fill="#484336"/>
<path fill-rule="evenodd" clip-rule="evenodd" d="M151.404 88.0562C151.474 86.6264 142.032 82.6156 141.146 82.5454C143.834 85.4412 147.121 88.8583 151.404 88.0562Z" fill="#484336"/>
<path fill-rule="evenodd" clip-rule="evenodd" d="M167.264 102.984C166.024 100.791 148.208 103.695 146.823 104.423C153.542 106.21 161.645 108.204 167.264 102.984Z" fill="#2D250E"/>
<path fill-rule="evenodd" clip-rule="evenodd" d="M156.577 108.006C155.6 105.682 137.565 106.506 136.106 107.072C142.574 109.623 150.391 112.54 156.577 108.006Z" fill="#2D250E"/>
<path fill-rule="evenodd" clip-rule="evenodd" d="M170.781 96.0053C170.124 94.4436 157.996 94.9968 157.015 95.3777C161.364 97.0926 171.086 98.7224 170.781 96.0053Z" fill="#2D250E"/>
<path fill-rule="evenodd" clip-rule="evenodd" d="M162.947 100.459C162.289 98.897 149.915 101.842 148.932 102.223C154.478 102.04 163.087 102.64 162.947 100.459Z" fill="#2D250E"/>
<path fill-rule="evenodd" clip-rule="evenodd" d="M108.32 97.9437C108.392 96.0011 98.6409 90.5562 97.726 90.4605C95.8578 90.269 103.894 99.0331 108.32 97.9437Z" fill="#AE9F80"/>
<path fill-rule="evenodd" clip-rule="evenodd" d="M112.71 96.1309C112.782 94.1883 103.031 88.7435 102.116 88.6477C104.89 92.5819 108.286 97.2203 112.71 96.1309Z" fill="#AE9F80"/>
<path fill-rule="evenodd" clip-rule="evenodd" d="M117.852 93.7393C117.924 91.7967 108.173 86.3519 107.258 86.2561C110.033 90.1902 113.428 94.8286 117.852 93.7393Z" fill="#AE9F80"/>
<path fill-rule="evenodd" clip-rule="evenodd" d="M122.244 90.3584C122.316 88.4158 112.565 82.971 111.65 82.8752C114.424 86.8094 117.82 91.4478 122.244 90.3584Z" fill="#AE9F80"/>
<path fill-rule="evenodd" clip-rule="evenodd" d="M124.293 86.1029C124.346 84.6731 117.165 80.6624 116.49 80.5922C118.535 83.4901 121.035 86.9051 124.293 86.1029Z" fill="#AE9F80"/>
<path fill-rule="evenodd" clip-rule="evenodd" d="M129.061 84.2072C129.114 82.7774 121.933 78.7666 121.259 78.6964C123.301 81.5944 125.801 85.0094 129.061 84.2072Z" fill="#AE9F80"/>
<path fill-rule="evenodd" clip-rule="evenodd" d="M132.761 81.4859C132.814 80.0561 125.633 76.0453 124.959 75.9751C127.001 78.873 129.504 82.288 132.761 81.4859Z" fill="#AE9F80"/>
<path fill-rule="evenodd" clip-rule="evenodd" d="M136.587 78.4346C136.64 77.0048 129.459 72.994 128.784 72.9238C130.827 75.8218 133.329 79.2368 136.587 78.4346Z" fill="#AE9F80"/>
<path fill-rule="evenodd" clip-rule="evenodd" d="M113.931 107.572C116.926 111.895 121.982 109.506 118.05 108.578C116.905 108.308 113.871 107.487 113.931 107.572ZM129.752 113.102C132.684 115.421 135.874 112.395 132.886 112.751C132.018 112.855 129.695 113.057 129.752 113.102ZM121.726 111.648C121.682 111.585 123.954 112.197 124.81 112.402C127.754 113.097 123.969 114.885 121.726 111.648ZM124.341 109.442C124.282 109.357 127.316 110.178 128.461 110.448C132.393 111.378 127.337 113.765 124.341 109.442ZM90.1724 89.6073C90.7575 92.0733 93.2363 92.1882 91.7384 90.935C91.3022 90.569 90.1617 89.5584 90.1724 89.6073ZM92.9044 90.0009C92.8937 89.952 94.0342 90.9627 94.4704 91.3286C95.9683 92.584 93.4895 92.467 92.9044 90.0009ZM91.8554 94.4032C92.4427 96.8671 94.9193 96.9841 93.4193 95.7309C92.9852 95.3649 91.8426 94.3542 91.8554 94.4032ZM96.1428 95.7926C96.73 98.2565 99.2067 98.3735 97.7088 97.1203C97.2726 96.7543 96.1321 95.7437 96.1428 95.7926ZM93.6682 98.1139C93.6491 98.0352 95.5215 99.6948 96.2364 100.293C98.6982 102.352 94.63 102.161 93.6682 98.1139ZM98.9322 99.7927C100.464 103.578 104.498 102.925 101.777 101.406C100.985 100.963 98.9024 99.7183 98.9322 99.7927ZM101.688 105.278C103.22 109.063 107.254 108.41 104.532 106.891C103.741 106.45 101.656 105.204 101.688 105.278ZM105.241 102.989C105.196 102.925 107.469 103.54 108.326 103.742C111.271 104.438 107.486 106.227 105.241 102.989ZM109.143 110.523C109.098 110.459 111.371 111.074 112.226 111.276C115.173 111.972 111.386 113.759 109.143 110.523ZM131.565 108.165C133.808 111.402 137.595 109.614 134.65 108.919C133.793 108.716 131.52 108.101 131.565 108.165ZM115.882 111.487C115.822 111.402 118.856 112.221 120.001 112.491C123.935 113.421 118.877 115.81 115.882 111.487ZM107.93 106.755C107.871 106.67 110.905 107.489 112.05 107.761C115.982 108.689 110.926 111.078 107.93 106.755Z" fill="#FEC66C"/>
<path fill-rule="evenodd" clip-rule="evenodd" d="M110.605 44.7762C114.346 44.2401 116.286 48.1636 113.518 46.5018C112.714 46.0188 110.531 44.7869 110.605 44.7762ZM88.3065 40.8974C89.7704 39.9846 91.3024 41.2655 89.8406 41.0804C89.4151 41.0272 88.2768 40.9166 88.3065 40.8974ZM90.1151 42.1762C90.0853 42.1953 91.2236 42.306 91.6492 42.3592C93.1109 42.5443 91.5768 41.2655 90.1151 42.1762ZM91.4747 39.4144C92.9386 38.5016 94.4705 39.7825 93.0088 39.5974C92.5854 39.5442 91.447 39.4336 91.4747 39.4144ZM94.6642 41.04C96.1259 40.1272 97.66 41.4081 96.1982 41.223C95.7727 41.1698 94.6344 41.057 94.6642 41.04ZM94.2344 38.5442C94.1875 38.574 96.0535 38.757 96.7514 38.8463C99.1494 39.1485 96.6344 37.0463 94.2344 38.5442ZM98.1345 40.5527C100.758 39.4931 102.873 41.9996 100.562 41.2847C99.8898 41.0783 98.0834 40.5719 98.1345 40.5527ZM102.256 39.3038C102.205 39.3251 104.011 39.8293 104.684 40.0357C106.994 40.7506 104.881 38.2442 102.256 39.3038ZM103.345 42.3677C106.145 41.9656 107.601 44.9039 105.526 43.6592C104.926 43.2975 103.29 42.3741 103.345 42.3677ZM109.077 40.7187C111.88 40.3166 113.333 43.2549 111.258 42.0102C110.656 41.6464 109.022 40.7251 109.077 40.7187ZM112.969 41.3655C112.914 41.374 114.548 42.2953 115.15 42.6571C117.224 43.9018 115.771 40.9634 112.969 41.3655ZM113.537 43.8805C113.463 43.8911 115.646 45.1209 116.45 45.6039C119.218 47.2657 117.278 43.3422 113.537 43.8805ZM106.652 41.9421C106.577 41.9528 108.76 43.1826 109.565 43.6677C112.333 45.3295 110.392 41.4038 106.652 41.9421Z" fill="#484336"/>
<path fill-rule="evenodd" clip-rule="evenodd" d="M109.839 129.811C108.792 131.204 107.896 132.824 106.664 133.975C105.683 134.892 96.0065 144.386 96.4746 144.864C96.5789 144.973 97.1044 145.132 98.5151 146.066C105.028 150.381 99.7322 148.06 96.1512 146.232C95.5533 145.928 95.7491 151.845 93.8831 151.99C93.2064 152.043 94.7703 147.039 94.9448 146.047C95.2235 144.477 91.1489 148.326 90.2659 148.137C91.5958 146.52 94.9618 144.524 95.015 144.22C95.215 143.041 104.892 128.823 105.913 128.772C106.122 128.764 110.705 128.657 109.839 129.811Z" fill="#522626"/>
<path fill-rule="evenodd" clip-rule="evenodd" d="M97.245 130.33C101.583 133.896 107.077 130.408 102.277 130.385C100.881 130.379 97.1599 130.26 97.245 130.33ZM116.892 132.181C120.775 133.796 123.956 130.102 120.512 131.128C119.51 131.426 116.816 132.149 116.892 132.181ZM107.179 132.568C110.428 135.238 114.543 132.626 110.948 132.611C109.903 132.604 107.116 132.515 107.179 132.568ZM109.839 129.811C109.754 129.74 113.475 129.86 114.871 129.866C119.671 129.889 114.177 133.379 109.839 129.811ZM65.9186 118.063C67.074 120.351 70.0102 119.906 68.0102 119.012C67.4293 118.753 65.8973 118.019 65.9186 118.063ZM69.2038 117.834C69.1804 117.789 70.7124 118.523 71.2954 118.783C73.2954 119.676 70.3592 120.121 69.2038 117.834ZM68.8017 122.393C69.957 124.681 72.8911 124.236 70.8932 123.342C70.3123 123.083 68.7804 122.349 68.8017 122.393ZM74.1061 122.787C75.2614 125.074 78.1977 124.63 76.1976 123.736C75.6168 123.476 74.0827 122.742 74.1061 122.787ZM71.6358 125.627C73.5316 129.383 78.3509 128.651 75.0678 127.185C74.1125 126.759 71.5975 125.553 71.6358 125.627ZM78.1424 126.083C78.0934 126.017 80.7786 126.77 81.7914 127.023C85.2787 127.9 80.6595 129.453 78.1424 126.083ZM82.417 130.849C84.934 134.219 89.5533 132.664 86.066 131.789C85.0532 131.534 82.368 130.781 82.417 130.849ZM86.1639 127.796C89.4129 130.466 93.5279 127.853 89.932 127.838C88.8873 127.832 86.1 127.742 86.1639 127.796ZM92.1747 134.311C95.4237 136.981 99.5366 134.368 95.9429 134.351C94.8981 134.347 92.1108 134.258 92.1747 134.311ZM118.09 126.923C121.339 129.594 125.452 126.981 121.859 126.964C120.814 126.957 118.024 126.87 118.09 126.923ZM100.279 133.732C100.194 133.662 103.915 133.781 105.311 133.787C110.111 133.811 104.62 137.3 100.279 133.732ZM90.0363 130.885C89.9512 130.815 93.6726 130.934 95.0684 130.94C99.8685 130.962 94.3748 134.451 90.0363 130.885Z" fill="#FEC66C"/>
</svg>
