<svg width="285" height="190" viewBox="0 0 285 190" fill="none" xmlns="http://www.w3.org/2000/svg">
<rect width="285" height="190" fill="#FBDEBB"/>
<path d="M242.597 64.9851C237.981 63.7533 234.082 66.6107 230.272 68.7442C232.158 66.2233 232.901 62.877 232.266 59.7974C231.84 60.3244 231.421 60.8514 230.996 61.3785C231.002 58.5909 227.795 56.7495 227.332 54C225.249 56.7241 223.89 59.9942 223.427 63.3913C222.531 62.4198 222.062 61.08 222.144 59.7656C219.674 63.7596 219.439 69.0427 221.554 73.2335C221.135 72.408 218.379 74.3955 218.017 74.6432C216.594 75.6147 215.204 76.4719 214.042 77.7672C212.245 79.7738 211.102 82.4978 211.457 85.1711C212.175 84.5361 212.924 83.9329 213.699 83.3678C212.41 86.041 212.619 89.3747 214.226 91.8638C215.712 90.289 217.572 89.127 219.198 87.7047C220.823 86.276 222.277 84.4472 222.493 82.2946C221.935 84.1488 221.966 86.168 222.544 88.0095C223.078 89.7239 224.081 90.2065 225.237 91.4193C225.256 91.1462 225.452 89.8001 225.275 89.6159C227.719 92.0987 230.754 93.9973 234.063 95.1022C234.145 93.356 234.012 91.6034 233.65 89.8953C234.101 90.2636 234.558 90.6319 235.009 91.0002C235.345 88.3396 234.641 85.5648 233.066 83.3995C235.034 85.533 237.714 86.9998 240.565 87.5078C240.165 86.8919 239.771 86.2823 239.371 85.6664C242.787 85.9204 246.248 85.5775 249.55 84.6441C247.639 82.2947 245.226 80.358 242.521 78.9991C243.435 78.9864 244.349 78.9674 245.27 78.9547C243.181 76.1861 239.676 74.5479 236.215 74.7194C239.352 74.7829 242.502 73.6399 244.87 71.5889C243.987 71.5889 243.105 71.5889 242.222 71.5826C244.045 70.3063 245.797 68.9347 247.461 67.4616C245.467 66.617 243.289 66.2106 241.124 66.2678C241.695 65.9503 242.203 65.5122 242.597 64.9851Z" fill="#EDB740"/>
<path d="M238.768 80.8596C238.768 80.8596 238.311 80.5739 237.498 80.1103C236.685 79.6468 235.517 78.9928 234.094 78.2562C233.383 77.8879 232.615 77.4879 231.789 77.0878C230.964 76.6815 230.107 76.2497 229.199 75.8306C228.291 75.4115 227.37 74.9543 226.424 74.5289C225.478 74.0971 224.519 73.6463 223.566 73.1891C222.608 72.7446 221.661 72.2811 220.734 71.8239C219.814 71.3604 218.893 70.9159 218.029 70.446C217.166 69.9761 216.328 69.5253 215.547 69.0744C215.147 68.8585 214.785 68.6172 214.416 68.4013C214.048 68.1918 213.699 67.9696 213.369 67.76C212.696 67.3409 212.099 66.9345 211.559 66.579C211.032 66.2043 210.568 65.8805 210.187 65.6138C209.444 65.055 209 64.7439 209 64.7439C209 64.7439 209.324 65.1693 209.927 65.8932C210.245 66.2424 210.626 66.6679 211.089 67.1377C211.559 67.5949 212.086 68.122 212.715 68.6363C213.324 69.176 214.016 69.7157 214.766 70.2618C215.515 70.8079 216.321 71.3667 217.191 71.8937C218.055 72.4208 218.95 72.9668 219.89 73.4558C220.823 73.9574 221.788 74.4336 222.76 74.8972C223.738 75.348 224.716 75.7798 225.681 76.1925C226.646 76.618 227.618 76.9799 228.538 77.3545C229.465 77.7292 230.373 78.0594 231.231 78.3769C232.088 78.7007 232.907 78.9864 233.663 79.2468C235.174 79.7738 236.45 80.1738 237.345 80.4469C238.247 80.7199 238.768 80.8596 238.768 80.8596Z" fill="#BA7D4A"/>
<path d="M230.062 88.1619C230.062 88.1619 229.891 87.7618 229.592 87.0697C229.3 86.3839 228.9 85.3934 228.488 84.1996C228.278 83.6027 228.087 82.9487 227.878 82.2629C227.687 81.5708 227.51 80.8406 227.345 80.0786C227.186 79.3166 227.04 78.5292 226.925 77.7292C226.875 77.3291 226.824 76.9228 226.779 76.51C226.76 76.3132 226.729 76.0719 226.729 75.9576C226.729 75.8242 226.741 75.856 226.722 75.8877C226.678 75.8877 227.129 75.5575 227.459 75.329C227.808 75.0877 228.113 74.8654 228.462 74.6368C229.142 74.186 229.827 73.7733 230.5 73.3923C231.847 72.6176 233.174 72.008 234.336 71.5127C235.498 71.0301 236.501 70.6682 237.212 70.4269C237.93 70.1856 238.336 70.0459 238.336 70.0459C238.336 70.0459 237.904 70.0205 237.142 70.0523C236.761 70.065 236.298 70.1031 235.771 70.1666C235.244 70.2364 234.647 70.319 234.005 70.4714C233.364 70.6111 232.672 70.7889 231.954 71.0302C231.237 71.2714 230.481 71.5381 229.732 71.8874C228.983 72.2303 228.214 72.6176 227.472 73.0748C227.103 73.297 226.71 73.5447 226.354 73.7923L225.821 74.167C225.636 74.3066 225.37 74.4844 225.122 74.8464C224.862 75.2337 224.811 75.7163 224.824 76.002C224.836 76.3132 224.868 76.4973 224.894 76.7259C224.938 77.1641 225.021 77.5958 225.09 78.0276C225.249 78.8848 225.459 79.7167 225.7 80.5104C225.941 81.3041 226.24 82.047 226.532 82.7455C226.83 83.4376 227.154 84.079 227.478 84.6504C228.119 85.7997 228.773 86.676 229.256 87.2665C229.491 87.565 229.7 87.7809 229.834 87.9333C229.986 88.0857 230.062 88.1619 230.062 88.1619Z" fill="#BA7D4A"/>
<path d="M216.677 84.8029C216.677 84.8029 216.721 84.7076 216.804 84.5298C216.893 84.3584 216.988 84.079 217.179 83.7805C217.267 83.6345 217.363 83.4694 217.471 83.2852C217.591 83.1138 217.725 82.9297 217.864 82.7328C218.156 82.3455 218.512 81.9327 218.918 81.501C219.325 81.0692 219.807 80.631 220.303 80.1548C220.817 79.6849 221.369 79.2087 221.941 78.6753C222.512 78.1546 223.09 77.5768 223.655 76.9545C224.208 76.3132 224.76 75.6338 225.205 74.84C225.44 74.4591 225.605 74.0336 225.802 73.6145C225.96 73.2145 226.1 72.7573 226.195 72.3446C226.405 71.5 226.5 70.6809 226.589 69.9126C226.748 68.3823 226.875 66.9536 226.938 65.7154C227.014 64.4835 227.033 63.4485 227.04 62.7246C227.046 62.0008 227.027 61.5817 227.027 61.5817C227.027 61.5817 226.881 61.9754 226.665 62.6675C226.449 63.3596 226.157 64.3502 225.859 65.5503C225.548 66.7441 225.236 68.1474 224.925 69.6523C224.773 70.4015 224.62 71.1508 224.417 71.8683C224.309 72.2366 224.195 72.5541 224.055 72.9161C223.897 73.2335 223.763 73.5764 223.56 73.8876C223.217 74.5416 222.728 75.1385 222.265 75.7481C221.769 76.3386 221.268 76.9228 220.747 77.4879C219.731 78.6245 218.747 79.7357 218.067 80.8215C217.712 81.3549 217.445 81.8883 217.242 82.3645C217.147 82.6122 217.052 82.8344 216.982 83.044C216.925 83.2662 216.874 83.4694 216.829 83.6535C216.721 84.0091 216.747 84.3012 216.709 84.4917C216.683 84.7012 216.677 84.8029 216.677 84.8029Z" fill="#BA7D4A"/>
<path d="M225.802 87.3491C225.922 87.1586 226.037 86.9935 226.157 86.8285L226.513 86.3395C226.748 86.0093 226.964 85.6601 227.167 85.3108C227.554 84.606 227.878 83.8758 228.138 83.1265L226.925 83.717L229.078 84.4727C229.446 84.5997 229.821 84.7267 230.208 84.8473C230.405 84.9045 230.602 84.9679 230.805 85.0251C231.008 85.0822 231.218 85.1457 231.44 85.1902C231.262 84.7648 231.008 84.4155 230.742 84.0663C230.462 83.7298 230.151 83.4313 229.815 83.1583C229.142 82.6185 228.367 82.1995 227.541 81.9201L226.633 81.6153L226.329 82.5106C226.075 83.2599 225.878 84.0345 225.751 84.8283C225.694 85.2283 225.649 85.6283 225.63 86.0474C225.63 86.2633 225.617 86.4792 225.643 86.7014C225.681 86.9237 225.719 87.1459 225.802 87.3491Z" fill="#BA7D4A"/>
<path d="M236.349 83.2535C236.044 82.6503 235.695 82.1169 235.358 81.5772C235.015 81.0438 234.666 80.5168 234.31 80.0088C233.605 78.9801 232.888 77.9832 232.164 76.9863L231.497 78.4594C232.526 78.3197 233.555 78.1293 234.571 77.8689C235.079 77.7419 235.587 77.5895 236.088 77.4181C236.59 77.2466 237.091 77.0625 237.587 76.8148C237.047 76.6879 236.52 76.6244 235.987 76.5672C235.46 76.5101 234.933 76.4783 234.406 76.472C233.358 76.4466 232.316 76.491 231.281 76.5863L229.726 76.726L230.615 78.0594C231.339 79.1389 232.17 80.1485 233.123 81.0375C233.599 81.4819 234.101 81.8947 234.634 82.2757C234.901 82.4598 235.18 82.6376 235.46 82.809C235.752 82.9678 236.037 83.1265 236.349 83.2535Z" fill="#BA7D4A"/>
<path d="M237.536 72.8462C237.041 72.6112 236.564 72.4652 236.088 72.2874C235.612 72.1287 235.148 71.9826 234.685 71.8429C233.758 71.5635 232.85 71.3286 231.929 71.0809L232.526 72.389C232.888 71.6588 233.205 70.9095 233.459 70.1094L233.555 69.811L233.65 69.5253C233.713 69.3348 233.777 69.157 233.847 68.9792C233.993 68.6236 234.164 68.2934 234.533 68.0013C234.069 67.8997 233.555 68.1346 233.174 68.4204C232.977 68.5664 232.805 68.7315 232.647 68.8966C232.564 68.9919 232.494 69.0617 232.418 69.1506L232.221 69.4046C231.694 70.0904 231.231 70.827 230.818 71.5889L230.285 72.5541L231.415 72.897C232.405 73.2018 233.434 73.3732 234.469 73.3796C234.983 73.3859 235.504 73.3478 236.018 73.2653C236.279 73.2208 236.533 73.1637 236.787 73.1002C237.034 73.0367 237.282 72.9541 237.536 72.8462Z" fill="#BA7D4A"/>
<path d="M219.795 84.4473C219.992 84.2758 220.15 84.0917 220.309 83.8758C220.455 83.6662 220.582 83.444 220.709 83.2217C220.944 82.7709 221.115 82.3074 221.268 81.8565L221.693 80.5739C221.757 80.3707 221.833 80.1802 221.903 79.9897C221.973 79.8056 222.062 79.6278 222.144 79.4563L222.735 78.1292L221.35 78.0721C220.538 78.0403 219.668 77.9705 218.741 78.0467C217.814 78.1292 216.836 78.3896 216.093 78.9928C216.569 79.0753 216.994 79.1325 217.414 79.2277C217.833 79.3166 218.233 79.4119 218.639 79.5135C219.452 79.704 220.309 79.9135 221.242 79.9707L220.449 78.5864C220.315 78.834 220.214 79.0944 220.125 79.3484C220.036 79.6024 219.979 79.8627 219.922 80.1167C219.826 80.6247 219.776 81.12 219.769 81.5962C219.757 82.0724 219.763 82.536 219.776 83.0059C219.788 83.2408 219.788 83.4757 219.795 83.7107C219.801 83.9329 219.795 84.1869 219.795 84.4473Z" fill="#BA7D4A"/>
<path d="M222.912 65.8869C222.912 65.8869 222.95 66.052 223.046 66.325C223.135 66.5917 223.287 66.9664 223.49 67.3854C223.7 67.8045 223.966 68.2681 224.284 68.738C224.443 68.9729 224.614 69.2142 224.798 69.4491L224.938 69.6269L225.008 69.7158L225.109 69.8365C225.154 69.8809 225.224 69.9508 225.344 70.027C225.408 70.0651 225.484 70.1032 225.573 70.1286L225.643 70.1476L225.725 70.1667H225.738L225.84 70.1794C226.252 70.1857 226.417 70.0397 226.513 69.9889L226.741 69.8238C226.989 69.6333 227.256 69.4174 227.472 69.2015C227.7 68.9856 227.91 68.757 228.1 68.5221C228.481 68.0585 228.786 67.5823 228.995 67.1442C229.205 66.706 229.332 66.3187 229.402 66.0393C229.472 65.7599 229.484 65.5885 229.484 65.5885C229.484 65.5885 229.332 65.6647 229.091 65.817C228.849 65.9631 228.526 66.179 228.151 66.433C227.783 66.687 227.364 66.9854 226.932 67.3029C226.506 67.6204 226.055 67.9569 225.598 68.2935L225.509 68.3633C225.484 68.3824 225.433 68.4205 225.465 68.4014C225.497 68.3951 225.598 68.2871 225.929 68.2871C225.96 68.2871 225.986 68.2935 226.017 68.2998C226.024 68.2998 226.017 68.2998 226.017 68.2998H226.011L226.087 68.3125L226.144 68.3252C226.214 68.3506 226.278 68.376 226.322 68.4078C226.411 68.4649 226.449 68.5094 226.468 68.5284L226.189 68.2363C225.979 68.0204 225.77 67.8236 225.554 67.6331C225.128 67.2521 224.703 66.9219 224.316 66.6616C223.928 66.4012 223.579 66.2044 223.325 66.0774C223.071 65.944 222.912 65.8869 222.912 65.8869Z" fill="#BA7D4A"/>
<path d="M73.3976 25.682C73.3976 25.682 73.2354 25.6953 72.9354 25.7287C72.6354 25.7622 72.1906 25.7941 71.6272 25.8715C71.0788 26.0125 70.368 26.1206 69.6104 26.3936C69.2346 26.5309 68.8292 26.6797 68.402 26.8354C67.9861 27.0208 67.5721 27.2463 67.1197 27.4674C66.2445 27.9446 65.3258 28.5283 64.4457 29.255C63.549 29.9703 62.6716 30.8034 61.8467 31.7306C61.419 32.1899 61.0453 32.6909 60.6351 33.1816C60.2414 33.6835 59.8669 34.2108 59.4968 34.7459C58.7855 35.8308 58.0916 36.9471 57.4614 38.0948C56.8434 39.2459 56.2586 40.4197 55.7252 41.5751C55.1735 42.7253 54.7073 43.8998 54.2341 45.0063C53.7791 46.118 53.3346 47.1931 52.9197 48.2105C52.4882 49.2167 52.0802 50.1635 51.6643 51.0222C51.2439 51.8731 50.8445 52.6507 50.4501 53.3175C50.0557 53.9843 49.6892 54.5534 49.3722 55.0177C49.0404 55.4647 48.7896 55.8357 48.5928 56.0635C48.4064 56.301 48.3036 56.4302 48.3036 56.4302C48.3036 56.4302 48.4317 56.328 48.6644 56.1367C48.9031 55.9472 49.2438 55.6546 49.6586 55.2643C50.0628 54.8643 50.549 54.3623 51.0437 53.7372C51.555 53.1235 52.081 52.3885 52.613 51.5628C53.6892 49.9148 54.7196 47.871 55.7603 45.698C56.2851 44.6194 56.8263 43.5058 57.3807 42.3696C57.9271 41.2377 58.5181 40.1119 59.13 39.0053C59.7254 37.8873 60.3705 36.8033 61.0313 35.7568C61.3744 35.247 61.7175 34.7372 62.0571 34.2397C62.4176 33.7613 62.7573 33.2638 63.1292 32.8151C63.8748 31.9115 64.6126 31.0585 65.3898 30.3224C66.1609 29.5845 66.9443 28.9426 67.7077 28.394C68.0982 28.1353 68.4729 27.8855 68.8303 27.6504C69.2068 27.4407 69.566 27.2458 69.9016 27.064C70.2363 26.8621 70.5711 26.7527 70.8745 26.6146C71.1839 26.4782 71.4638 26.3531 71.7201 26.2412C72.7838 25.8903 73.3976 25.682 73.3976 25.682Z" fill="#BA7D4A"/>
<path d="M65.0053 35.1777C65.0221 33.7961 65.003 32.2854 64.1331 31.2127C63.3758 30.2776 62.1464 29.8883 60.9713 29.6332C59.8206 29.385 58.6237 29.2293 57.47 29.4556C56.312 29.6741 55.1893 30.3252 54.6305 31.3611C57.5532 32.087 60.8568 32.5648 63.3931 30.9361C62.2792 32.3687 61.8914 34.2653 62.0365 36.0759C62.1754 37.8847 62.8036 39.6214 63.5407 41.2769C64.8795 39.6112 64.9737 37.3076 65.0053 35.1777Z" fill="#A55520"/>
<path d="M60.145 48.8732C61.656 46.1144 60.8986 42.6971 59.846 39.7371C59.5862 39.003 59.3106 38.2776 59.0351 37.5523C58.9415 37.3012 58.8417 37.0483 58.6775 36.8366C58.4495 36.5473 58.1197 36.361 57.7758 36.2236C56.2305 35.599 54.4497 35.8252 52.9109 36.4767C51.3783 37.13 50.0459 38.1702 48.7474 39.207C52.0671 39.9996 55.6931 39.4138 58.5894 37.6103C57.2495 41.3222 57.8553 45.6669 60.145 48.8732Z" fill="#A55520"/>
<path d="M54.6472 47.1044C54.6306 47.0931 54.6184 47.0896 54.6106 47.094C53.8982 47.3006 53.1392 47.1375 52.4116 47.0031C50.9626 46.7361 49.4683 46.5817 48.0286 46.885C46.384 47.2358 45.0847 48.2063 44.29 49.6768C47.289 49.9953 50.7819 48.9953 53.5307 47.8497C51.4462 48.7024 49.8801 50.541 48.9299 52.5813C47.9797 54.6216 47.5836 56.8724 47.2791 59.1029C50.4737 56.4601 52.7346 52.7131 53.5971 48.6608C53.0778 51.53 53.5854 54.5726 55.0012 57.1144C55.7433 55.4572 55.8869 53.6298 55.7489 51.841C55.71 51.4207 54.9894 47.3404 54.6472 47.1044Z" fill="#A55520"/>
<path d="M56.3991 43.8003C56.3379 43.598 56.2705 43.394 56.2092 43.1917C56.1593 43.0191 56.0928 42.8351 55.9418 42.7393C55.8013 42.6531 55.619 42.6673 55.4489 42.6849C53.2207 42.929 51.0166 42.9027 49.2809 44.5017C49.3716 44.4152 50.771 44.7407 50.9925 44.7509C51.5882 44.7686 52.1586 44.713 52.7376 44.5807C53.7979 44.3344 54.852 43.9477 55.7034 43.2525C55.0324 43.801 55.2068 46.1348 55.3272 46.8952C55.5266 48.1667 56.6194 48.9199 57.0673 50.0838C56.965 49.8171 57.2406 49.0108 57.2585 48.6924C57.3561 47.05 56.8859 45.3846 56.3991 43.8003Z" fill="#A55520"/>
<path d="M53.9608 110.332C53.5854 104.836 52.1681 99.4171 49.4771 94.5288C48.2474 92.2923 46.7315 90.1879 44.8951 88.3219" stroke="#96886B" stroke-width="1.8951" stroke-miterlimit="10" stroke-linecap="round"/>
<path d="M55.2412 106.847C54.6053 106.54 53.9797 106.212 53.3688 105.867C52.9108 106.59 52.3552 107.266 51.7147 107.875" stroke="#96886B" stroke-width="1.8951" stroke-miterlimit="10" stroke-linecap="round"/>
<path d="M55.1333 103.44C54.0443 103.247 53.0717 102.663 52.48 101.842C52.2618 102.738 51.7542 103.59 51.0352 104.264" stroke="#96886B" stroke-width="1.8951" stroke-miterlimit="10" stroke-linecap="round"/>
<path d="M53.298 97.4691C52.3469 97.6224 51.348 97.3924 50.6308 96.8563C50.3979 97.7698 49.8804 98.6363 49.1542 99.3322" stroke="#96886B" stroke-width="1.8951" stroke-miterlimit="10" stroke-linecap="round"/>
<path d="M54.2941 112.455C54.4502 113.067 54.6039 113.68 54.759 114.289" stroke="#BA7D4A" stroke-width="0.9476" stroke-miterlimit="10" stroke-linecap="round"/>
<path d="M53.6481 112.62C53.5371 113.221 53.4294 113.823 53.3185 114.423" stroke="#BA7D4A" stroke-width="0.9476" stroke-miterlimit="10" stroke-linecap="round"/>
<path d="M52.8585 112.615C52.6086 113.121 52.3553 113.627 52.1053 114.133" stroke="#BA7D4A" stroke-width="0.9476" stroke-miterlimit="10" stroke-linecap="round"/>
<path d="M50.6522 109.803C50.1602 110.373 49.6659 110.943 49.1726 111.515" stroke="#BA7D4A" stroke-width="0.9476" stroke-miterlimit="10" stroke-linecap="round"/>
<path d="M49.9314 109.383C49.4637 109.814 48.9243 110.184 48.3369 110.471" stroke="#BA7D4A" stroke-width="0.9476" stroke-miterlimit="10" stroke-linecap="round"/>
<path d="M49.733 108.813C49.2401 108.922 48.7421 109.007 48.2406 109.063" stroke="#BA7D4A" stroke-width="0.9476" stroke-miterlimit="10" stroke-linecap="round"/>
<path d="M49.1576 105.805C48.653 106.252 48.0367 106.599 47.3719 106.81" stroke="#BA7D4A" stroke-width="0.9476" stroke-miterlimit="10" stroke-linecap="round"/>
<path d="M48.9414 105.126C48.7164 105.36 48.3867 105.505 48.0509 105.563C47.7151 105.62 47.3714 105.601 47.0399 105.551" stroke="#BA7D4A" stroke-width="0.9476" stroke-miterlimit="10" stroke-linecap="round"/>
<path d="M48.6879 104.782C48.0688 104.757 47.4625 104.632 46.9019 104.415" stroke="#BA7D4A" stroke-width="0.9476" stroke-miterlimit="10" stroke-linecap="round"/>
<path d="M47.5672 100.928C47.46 101.571 47.0484 102.177 46.4545 102.572" stroke="#BA7D4A" stroke-width="0.9476" stroke-miterlimit="10" stroke-linecap="round"/>
<path d="M47.0972 100.825C46.7727 101.387 46.1691 101.824 45.4865 101.985" stroke="#BA7D4A" stroke-width="0.9476" stroke-miterlimit="10" stroke-linecap="round"/>
<path d="M46.8539 100.258C46.2985 100.615 45.6436 100.843 44.9752 100.915" stroke="#BA7D4A" stroke-width="0.9476" stroke-miterlimit="10" stroke-linecap="round"/>
<path d="M55.4979 97.7315C56.1511 97.937 56.8703 97.988 57.5703 97.8819" stroke="#BA7D4A" stroke-width="0.9476" stroke-miterlimit="10" stroke-linecap="round"/>
<path d="M55.5204 96.7997C56.2338 96.7585 56.9406 96.5251 57.5271 96.1387" stroke="#BA7D4A" stroke-width="0.9476" stroke-miterlimit="10" stroke-linecap="round"/>
<path d="M55.0323 96.0658C55.5047 95.8674 55.8697 95.4618 55.9834 95.0116" stroke="#BA7D4A" stroke-width="0.9476" stroke-miterlimit="10" stroke-linecap="round"/>
<path d="M56.6241 102.232C56.9676 102.082 57.2293 101.805 57.4075 101.504C57.5857 101.203 57.6875 100.874 57.788 100.549" stroke="#BA7D4A" stroke-width="0.9476" stroke-miterlimit="10" stroke-linecap="round"/>
<path d="M57.133 102.657C57.8845 102.505 58.4188 101.908 58.8863 101.352" stroke="#BA7D4A" stroke-width="0.9476" stroke-miterlimit="10" stroke-linecap="round"/>
<path d="M59.217 103.024C58.6468 103.274 57.9953 103.36 57.3879 103.266" stroke="#BA7D4A" stroke-width="0.9476" stroke-miterlimit="10" stroke-linecap="round"/>
<path d="M59.546 108.905C58.9117 108.575 58.2773 108.246 57.6406 107.917" stroke="#BA7D4A" stroke-width="0.9476" stroke-miterlimit="10" stroke-linecap="round"/>
<path d="M58.7957 110.019C58.2297 109.515 57.6472 109.024 57.05 108.549" stroke="#BA7D4A" stroke-width="0.9476" stroke-miterlimit="10" stroke-linecap="round"/>
<path d="M56.65 108.896C56.9503 109.575 57.2104 110.268 57.4349 110.973" stroke="#BA7D4A" stroke-width="0.9476" stroke-miterlimit="10" stroke-linecap="round"/>
<path d="M56.1655 112.565C55.429 113.027 54.5197 113.255 53.6455 113.195C52.7712 113.135 51.9398 112.787 51.3458 112.235C51.9302 112.118 52.25 111.558 52.4965 111.069C52.7453 110.579 53.1061 110.026 53.698 109.959C54.1601 109.906 54.5777 110.195 54.8085 110.543C55.0393 110.891 55.1335 111.302 55.3006 111.679C55.4653 112.057 55.7336 112.43 56.1655 112.565Z" fill="#EDB740"/>
<path d="M51.7479 107.642C52.0541 107.781 52.1894 108.101 52.2609 108.404C52.3045 108.594 52.333 108.793 52.2857 108.986C52.2045 109.325 51.9163 109.596 51.6662 109.868C51.3217 110.238 51.0136 110.695 51.0986 111.155C49.7519 110.536 48.8555 109.241 48.8219 107.867C48.9508 108.009 49.1058 108.161 49.3129 108.164C49.4136 108.166 49.5158 108.132 49.6124 108.097C49.9331 107.983 50.2538 107.869 50.5713 107.754C50.9543 107.614 51.3941 107.481 51.7479 107.642Z" fill="#EDB740"/>
<path d="M55.9818 106.389C56.3216 106.353 56.6664 106.389 56.9823 106.486C57.4123 106.616 57.7407 106.977 58.2001 107.041C58.3554 107.064 59.0068 106.964 59.0536 106.81C58.7252 107.917 57.8867 108.916 56.7806 109.518C56.4389 109.706 56.0393 109.858 55.6551 109.792C55.8181 109.611 55.9884 109.376 55.8828 109.173C55.8443 109.1 55.7764 109.047 55.7098 108.99C55.2065 108.566 54.8357 107.965 54.8343 107.321C54.8329 106.946 55.013 106.649 55.4276 106.507C55.6079 106.446 55.7945 106.407 55.9818 106.389Z" fill="#EDB740"/>
<path d="M50.8746 105.848C50.7056 106.034 50.5099 106.202 50.3667 106.405C50.2225 106.605 50.1308 106.854 50.2004 107.074C49.5789 107.037 49.023 106.707 48.6726 106.26C48.3665 105.867 48.2499 105.442 48.2028 104.969C48.178 104.733 48.1489 104.513 48.1928 104.273C48.2185 104.132 48.4356 103.788 48.4101 103.674C48.447 103.848 48.589 103.995 48.7731 104.054C49.439 104.27 50.1087 103.471 50.8645 103.826C51.2408 104.003 51.4296 104.406 51.4023 104.791C51.3737 105.179 51.1563 105.542 50.8746 105.848Z" fill="#EDB740"/>
<path d="M55.6806 104.284C55.9591 104.323 56.2473 104.242 56.5305 104.213C57.0497 104.161 57.5772 104.291 57.9789 104.568C58.2139 103.862 58.1519 103.093 57.8066 102.448C57.4612 101.804 56.8366 101.289 56.0848 101.035C56.194 101.312 55.9616 101.619 55.6918 101.804C55.4221 101.989 55.096 102.116 54.8798 102.352C54.506 102.755 54.5794 103.363 54.8872 103.78C55.0689 104.029 55.3454 104.239 55.6806 104.284Z" fill="#EDB740"/>
<path d="M47.9884 98.9548C48.9667 98.7172 49.8571 99.2924 49.5711 100.339C49.5103 100.564 49.3889 100.774 49.2908 100.988C49.1037 101.398 49.0053 101.885 49.2572 102.252C48.4546 102.287 47.6586 102.024 47.0897 101.546C46.487 101.038 46.0772 100.212 46.2473 99.4408C46.4082 99.5744 46.6689 99.5638 46.8796 99.4846C47.0903 99.4054 47.2692 99.2691 47.4628 99.1618C47.6366 99.0654 47.814 98.9973 47.9884 98.9548Z" fill="#EDB740"/>
<path d="M53.7668 98.392C54.1719 98.4947 54.6333 98.4199 55.0158 98.5725C55.2816 98.6788 55.4862 98.8917 55.5612 99.1446C55.5651 99.1539 55.9311 98.6857 55.9596 98.6305C56.0716 98.411 56.1189 98.2183 56.129 97.9814C56.1495 97.4237 56.0552 96.8568 55.7915 96.3573C55.4622 95.7389 54.8484 95.2304 54.09 95.0847C54.1645 95.2513 54.2387 95.437 54.167 95.6101C54.0909 95.7985 53.8704 95.9061 53.6781 96.0102C53.2608 96.2372 52.8743 96.5515 52.7109 96.9601C52.4359 97.6611 53.0722 98.2172 53.7668 98.392Z" fill="#EDB740"/>
<path d="M55.1655 107.612C55.2581 107.776 55.25 107.985 55.1429 108.151C55.1252 108.18 55.1042 108.208 55.0718 108.221C54.9943 108.256 54.9119 108.201 54.8611 108.144C54.6111 107.86 54.6173 107.457 54.6825 107.092C54.7058 106.953 54.7393 106.812 54.8274 106.691C55.0077 106.441 55.3678 106.356 55.6926 106.311C55.9326 106.277 56.2329 106.277 56.3429 106.464C56.1412 106.558 55.9286 106.633 55.713 106.687C55.8354 106.793 55.9207 106.933 55.9593 107.085C55.9778 107.156 55.9618 107.255 55.8803 107.267C55.852 107.27 55.8236 107.26 55.7974 107.25C55.6916 107.21 55.5857 107.17 55.4799 107.13C55.5609 107.266 55.5968 107.425 55.5834 107.582C55.5777 107.646 55.5531 107.724 55.4833 107.745C55.3626 107.787 55.2837 107.636 55.1655 107.612Z" fill="#96886B"/>
<path d="M54.3841 110.903C54.3521 110.943 54.3103 110.98 54.2609 110.998C54.1376 111.046 53.9956 110.978 53.9285 110.881C53.8628 110.781 53.8534 110.66 53.8482 110.544C53.7347 110.707 53.552 110.834 53.3456 110.884C53.3183 110.89 53.2887 110.897 53.2662 110.882C53.2447 110.869 53.2411 110.841 53.2417 110.817C53.2406 110.69 53.2799 110.563 53.3561 110.453C53.2619 110.532 53.1608 110.615 53.0358 110.639C52.9117 110.666 52.7588 110.611 52.7398 110.5C52.7263 110.421 52.7833 110.344 52.8396 110.277C52.9728 110.122 53.1274 109.979 53.2967 109.852C53.4494 109.738 53.6272 109.631 53.8243 109.617C53.9505 109.608 54.0729 109.636 54.1876 109.678C54.6398 109.842 54.9659 110.237 55.0177 110.676C54.8038 110.61 54.6035 110.512 54.4251 110.388C54.525 110.545 54.509 110.754 54.3841 110.903Z" fill="#96886B"/>
<path d="M51.9534 108.615C51.9422 108.725 51.7958 108.783 51.6754 108.806C51.5629 108.828 51.4191 108.834 51.366 108.745C51.3219 108.671 51.37 108.578 51.4253 108.509C51.4829 108.439 51.555 108.372 51.5632 108.287C51.3676 108.344 51.1502 108.328 50.9732 108.248C50.9396 108.232 50.9041 108.211 50.8851 108.179C50.8501 108.12 50.8881 108.042 50.9493 108C51.0105 107.959 51.0869 107.941 51.1596 107.927C51.0397 107.912 50.9155 107.893 50.8205 107.827C50.7254 107.76 50.6774 107.632 50.7478 107.54C50.7985 107.473 50.8924 107.445 50.9803 107.422C51.1972 107.365 51.4198 107.308 51.6426 107.31C51.8654 107.312 52.097 107.382 52.2293 107.538C52.3212 107.648 52.3559 107.791 52.3841 107.931C52.4256 108.135 52.4602 108.343 52.433 108.552C52.4059 108.76 52.3124 108.972 52.1364 109.116C52.1199 109.128 52.0987 109.142 52.0787 109.14C52.0522 109.134 52.043 109.106 52.0381 109.081C52.0088 108.925 51.9818 108.768 51.9534 108.615Z" fill="#96886B"/>
<path d="M51.514 105.191C51.3993 105.071 51.3084 104.93 51.2485 104.779C51.2621 104.903 51.2517 105.034 51.1919 105.151C51.132 105.268 51.0163 105.367 50.8765 105.396C50.8264 105.405 50.7693 105.405 50.7309 105.377C50.6659 105.331 50.6837 105.237 50.707 105.163C50.7611 105 50.8241 104.838 50.8992 104.68C50.7986 104.724 50.6933 104.771 50.582 104.776C50.4707 104.782 50.3527 104.739 50.3131 104.65C50.2572 104.521 50.3767 104.385 50.4872 104.28C50.3623 104.351 50.2062 104.372 50.0707 104.339C50.0432 104.331 50.0148 104.321 49.9983 104.301C49.9526 104.25 49.9995 104.174 50.0513 104.122C50.1353 104.044 50.2385 103.98 50.3502 103.936C50.2239 103.964 50.0926 103.967 49.9651 103.947C49.9098 103.937 49.8483 103.92 49.8245 103.875C49.7719 103.781 49.9085 103.686 50.0213 103.645C50.2389 103.563 50.4686 103.484 50.7008 103.496C51.0984 103.515 51.4185 103.805 51.5382 104.139C51.656 104.469 51.6072 104.841 51.514 105.191Z" fill="#96886B"/>
<path d="M49.8207 99.7594C49.8215 99.9051 49.8137 100.063 49.708 100.179C49.5887 100.029 49.4915 99.866 49.4188 99.6905C49.3612 99.8388 49.2421 99.9693 49.0918 100.051C49.0125 100.094 48.8846 100.112 48.8563 100.037C48.8449 100.01 48.8538 99.9788 48.8604 99.949C48.9008 99.8051 48.9501 99.6629 49.0083 99.5225C48.8194 99.5628 48.6227 99.5713 48.4343 99.5411C48.4055 99.5368 48.3757 99.5302 48.3546 99.5119C48.3007 99.4666 48.3358 99.3817 48.3919 99.3342C48.4479 99.2866 48.5209 99.2537 48.5619 99.1961C48.3559 99.2409 48.1355 99.205 47.9694 99.098C47.8665 99.0324 47.7868 98.8923 47.8823 98.8095C47.9204 98.7774 47.9727 98.7666 48.0237 98.759C48.3131 98.7067 48.6082 98.6548 48.899 98.6776C49.1899 98.7005 49.4827 98.8065 49.6449 99.0152C49.8081 99.2262 49.8212 99.4995 49.8207 99.7594Z" fill="#96886B"/>
<path d="M55.2298 102.491C55.3219 102.439 55.4193 102.393 55.5192 102.36C55.6282 102.323 55.7696 102.305 55.8323 102.384C55.8837 102.45 55.8547 102.543 55.8134 102.62C55.7362 102.76 55.6329 102.889 55.5075 102.998C55.7126 103.029 55.9031 103.123 56.039 103.262C56.0681 103.293 56.0992 103.329 56.0928 103.372C56.086 103.421 56.0321 103.454 55.9813 103.475C55.8308 103.543 55.6636 103.577 55.4993 103.572C55.666 103.655 55.8053 103.775 55.9027 103.919C55.9543 103.998 55.9972 104.088 55.9826 104.184C55.967 104.277 55.8809 104.369 55.7765 104.372C55.6507 104.375 55.5625 104.26 55.4384 104.241C55.4249 104.32 55.5434 104.403 55.4758 104.456C55.4473 104.478 55.4064 104.471 55.3733 104.463C55.0743 104.381 54.8714 104.146 54.7042 103.912C54.5209 103.653 54.3573 103.369 54.3571 103.055C54.3591 102.727 54.5597 102.395 54.8712 102.206C54.9578 102.154 55.0673 102.112 55.161 102.149C55.2884 102.201 55.2877 102.369 55.2298 102.491Z" fill="#96886B"/>
<path d="M53.054 96.2797C52.9872 96.3209 52.9455 96.4031 52.8644 96.4097C52.8657 96.328 52.7362 96.2896 52.6536 96.332C52.5711 96.3743 52.5303 96.4588 52.5011 96.5385C52.4144 96.7666 52.3629 97.0016 52.345 97.239C52.3314 97.4151 52.342 97.5974 52.4228 97.7533C52.5212 97.9451 52.7169 98.0778 52.9137 98.1937C53.104 98.307 53.303 98.4085 53.5083 98.4993C53.5312 98.5087 53.555 98.5205 53.581 98.5179C53.6556 98.5086 53.6618 98.4059 53.6161 98.3545C53.5704 98.3031 53.5004 98.2645 53.4861 98.1974C53.6304 98.2323 53.7921 98.2112 53.924 98.1377C53.9963 98.0969 54.0661 98.0301 54.0624 97.9559C54.0588 97.8951 54.0086 97.8456 53.9575 97.8072C53.8076 97.6935 53.6247 97.6178 53.4284 97.5882C53.5901 97.5212 53.736 97.4229 53.8566 97.3026C53.9038 97.2532 53.9514 97.1983 53.9571 97.1338C53.9673 97.0213 53.8437 96.9319 53.7187 96.9241C53.5938 96.9164 53.4695 96.9625 53.3508 97.0089C53.5128 96.8255 53.548 96.5512 53.4005 96.3715C53.3222 96.2741 53.1678 96.2082 53.054 96.2797Z" fill="#96886B"/>
<path d="M205.109 141.205C205.805 141.56 206.287 142.209 206.714 142.865C208.32 145.325 212.417 154.287 209.933 156.739C209.119 157.545 207.956 157.893 206.849 158.194C201.684 159.602 196.456 160.757 191.18 161.642C186.482 162.433 180.851 163.999 176.16 162.663C185.462 171.347 195.831 176.338 208.826 174.835C208.367 175.871 209.554 177.319 208.723 178.078C208.431 178.347 207.996 178.379 207.592 178.402C204.294 178.553 200.11 179.462 196.946 178.845C199.541 180.119 201.945 181.78 204.081 183.717C203.693 184.326 202.886 184.548 202.174 184.437C201.463 184.334 200.822 183.963 200.197 183.615C194.526 180.483 188.27 179.431 182.488 176.892C176.445 174.242 171.272 170.414 165.815 166.776C165.182 166.356 164.534 165.929 163.806 165.732C162.92 165.502 161.987 165.629 161.085 165.755C147.149 167.701 133.11 169.164 119.023 169.299C105.735 169.425 92.6214 168.183 79.3732 167.353C75.8456 167.131 72.2152 166.965 68.8616 168.096C67.691 168.492 66.5125 169.053 65.2787 168.943C62.9138 168.729 61.498 166.246 60.7387 163.991C58.9116 158.574 58.5162 152.673 59.5918 147.057C59.7184 146.401 59.8845 145.705 60.367 145.23C61.3556 144.265 63.0403 144.772 64.116 145.634C67.691 148.497 69.526 147.88 74.0739 147.912C76.3518 147.927 78.3213 148.9 80.4726 149.351C82.2364 149.723 85.8668 148.805 87.2114 149.391C79.7766 146.148 73.2039 140.959 68.3238 134.482C69.8978 133.263 71.4717 132.045 73.0457 130.827C75.6479 135.106 79.6421 138.349 83.7471 141.212C88.0024 144.178 92.5265 146.883 97.5253 148.26C102.643 149.675 108.037 149.652 113.352 149.541C143.02 148.948 172.649 146.1 201.89 141.038C202.957 140.88 204.128 140.698 205.109 141.205Z" fill="#96886B"/>
<path d="M61.8777 156.549C61.8777 156.549 62.0042 156.478 62.2494 156.335C62.4867 156.177 62.8743 156.003 63.3805 155.782C64.4008 155.37 66.0222 154.975 68.0945 155.038C70.1667 155.078 72.6503 155.56 75.4423 156.217C76.8422 156.509 78.3371 156.826 79.9111 157.158C80.6941 157.324 81.5009 157.498 82.3314 157.672C83.1539 157.846 84.0082 157.972 84.8782 158.131C86.6182 158.423 88.4137 158.763 90.2882 159.056C92.1706 159.309 94.1163 159.57 96.1174 159.839C100.127 160.29 104.367 160.725 108.765 160.986C109.864 161.057 110.971 161.152 112.086 161.2C113.202 161.239 114.333 161.279 115.464 161.318C116.595 161.358 117.734 161.397 118.881 161.445C120.028 161.453 121.174 161.461 122.337 161.468C123.492 161.476 124.654 161.484 125.817 161.492C126.98 161.492 128.15 161.445 129.321 161.429C131.662 161.381 134.011 161.334 136.352 161.2C138.702 161.089 141.051 161.018 143.384 160.836C145.717 160.67 148.05 160.551 150.352 160.314C154.963 159.926 159.487 159.428 163.869 158.906C166.052 158.621 168.204 158.352 170.307 158.075C172.411 157.783 174.468 157.49 176.469 157.205C180.463 156.596 184.244 156.027 187.724 155.426C191.204 154.832 194.399 154.318 197.199 153.749C200.007 153.187 202.428 152.555 204.373 151.914C206.327 151.273 207.822 150.656 208.818 150.19C209.324 149.968 209.696 149.763 209.949 149.644C210.202 149.517 210.337 149.446 210.337 149.446C210.337 149.446 210.21 149.517 209.957 149.652C209.704 149.786 209.34 150 208.842 150.237C207.861 150.735 206.382 151.424 204.436 152.112C202.491 152.808 200.078 153.504 197.278 154.136C194.479 154.785 191.291 155.378 187.819 156.019C184.347 156.683 180.574 157.308 176.58 157.98C174.579 158.297 172.522 158.621 170.426 158.945C168.322 159.23 166.171 159.523 163.98 159.823C159.598 160.369 155.058 160.891 150.439 161.302C148.13 161.548 145.796 161.682 143.455 161.856C141.114 162.054 138.757 162.141 136.4 162.259C134.043 162.386 131.686 162.418 129.337 162.457C128.166 162.473 126.988 162.512 125.825 162.505C124.654 162.489 123.492 162.481 122.329 162.465C121.166 162.449 120.012 162.441 118.865 162.425C117.718 162.378 116.571 162.331 115.432 162.283C114.293 162.236 113.162 162.188 112.047 162.141C110.924 162.085 109.816 161.983 108.709 161.911C104.296 161.642 100.048 161.128 96.0304 160.614C94.0293 160.314 92.0757 160.021 90.1933 159.736C88.3109 159.412 86.5075 159.04 84.7675 158.724C83.8974 158.55 83.0432 158.415 82.2206 158.226C81.3981 158.036 80.5913 157.846 79.8083 157.664C78.2422 157.292 76.7552 156.936 75.3553 156.604C72.587 155.877 70.143 155.339 68.0945 155.244C66.0459 155.133 64.4403 155.449 63.4042 155.829C62.8901 156.035 62.5025 156.201 62.2573 156.343C62.0042 156.486 61.8777 156.549 61.8777 156.549Z" fill="#775B52"/>
<path d="M205.164 145.658C205.164 145.658 204.761 145.824 204.001 146.14C203.242 146.449 202.119 146.891 200.664 147.374C197.761 148.355 193.514 149.517 188.349 150.506C185.77 150.996 182.97 151.526 180.02 152.088C177.07 152.665 173.954 153.298 170.727 153.868C164.265 155.03 157.344 156.153 150.376 157C146.904 157.411 143.4 157.743 139.959 158.02C136.518 158.305 133.125 158.471 129.835 158.597C126.545 158.708 123.365 158.708 120.352 158.629C118.841 158.605 117.378 158.518 115.962 158.463C114.546 158.368 113.178 158.297 111.865 158.194C109.239 157.988 106.842 157.712 104.731 157.427C103.671 157.269 102.682 157.126 101.773 156.992C100.863 156.834 100.025 156.691 99.2732 156.557C97.7625 156.312 96.5919 156.019 95.7851 155.861C94.9863 155.695 94.5513 155.6 94.5513 155.6C94.5513 155.6 94.9863 155.671 95.793 155.805C96.6077 155.932 97.7862 156.153 99.3048 156.351C100.064 156.454 100.903 156.573 101.812 156.699C102.73 156.802 103.718 156.913 104.778 157.031C106.898 157.237 109.294 157.435 111.904 157.593C113.21 157.672 114.578 157.712 115.986 157.775C117.401 157.799 118.857 157.854 120.36 157.846C123.357 157.862 126.529 157.775 129.796 157.664C133.07 157.514 136.447 157.332 139.872 157.023C143.305 156.731 146.769 156.367 150.241 155.94C157.186 155.149 164.099 154.073 170.56 152.958C173.795 152.396 176.92 151.851 179.878 151.329C182.844 150.83 185.652 150.364 188.238 149.929C190.816 149.47 193.181 149.027 195.262 148.568C197.342 148.11 199.137 147.627 200.6 147.192C202.064 146.749 203.21 146.377 203.978 146.101C204.753 145.8 205.164 145.658 205.164 145.658Z" fill="#775B52"/>
<path d="M64.5669 163.177C64.5669 163.177 64.7646 163.106 65.1443 162.963C65.516 162.821 66.0697 162.615 66.7973 162.433C67.1612 162.323 67.5646 162.228 68.0075 162.141C68.4504 162.046 68.9329 161.943 69.447 161.88C70.4831 161.698 71.6616 161.611 72.9588 161.571C75.5372 161.516 78.5586 161.745 81.7303 162.236C84.9098 162.702 88.2555 163.359 91.617 163.849C94.9785 164.363 98.3558 164.775 101.535 165.107C104.707 165.423 107.681 165.684 110.236 165.826C111.509 165.898 112.68 165.961 113.716 166.024C114.752 166.072 115.662 166.111 116.405 166.143C117.9 166.198 118.754 166.23 118.754 166.23C118.754 166.23 117.9 166.293 116.405 166.348C114.91 166.396 112.775 166.475 110.212 166.428C107.649 166.38 104.652 166.301 101.456 166.048C99.8586 165.913 98.2055 165.779 96.5287 165.573C94.8519 165.384 93.1593 165.154 91.4667 164.909C88.0815 164.395 84.7279 163.723 81.5879 163.169C80.0139 162.9 78.4953 162.655 77.0558 162.481C75.6084 162.299 74.2401 162.212 72.9667 162.172C72.3339 162.172 71.7249 162.156 71.1475 162.18C70.5701 162.188 70.0165 162.212 69.5103 162.267C68.9962 162.299 68.5137 162.362 68.0708 162.425C67.6278 162.481 67.2244 162.544 66.8606 162.631C66.133 162.766 65.5556 162.908 65.1759 163.019C64.7725 163.121 64.5669 163.177 64.5669 163.177Z" fill="#775B52"/>
<path d="M80.0692 142.185C80.0692 142.185 80.8681 142.692 82.2601 143.569C82.6081 143.783 82.9799 144.052 83.4149 144.297C83.8499 144.534 84.3245 144.78 84.8307 145.056C85.3369 145.325 85.8668 145.61 86.4363 145.911C87.0216 146.18 87.6306 146.456 88.2712 146.749C88.9198 147.026 89.5605 147.374 90.2802 147.627C90.9921 147.888 91.7277 148.165 92.479 148.442C93.2225 148.742 94.0214 148.964 94.8281 149.209C95.6428 149.43 96.4496 149.731 97.3038 149.944C99.0043 150.364 100.76 150.83 102.579 151.131C104.383 151.51 106.249 151.708 108.1 151.969C109.967 152.159 111.825 152.388 113.668 152.475C115.511 152.626 117.33 152.642 119.086 152.697C120.842 152.681 122.551 152.736 124.164 152.697C125.778 152.665 127.304 152.642 128.72 152.562C131.544 152.444 133.893 152.317 135.538 152.191C137.183 152.08 138.124 152.025 138.124 152.025C138.124 152.025 137.191 152.159 135.554 152.404C134.739 152.523 133.742 152.642 132.595 152.776C132.026 152.847 131.417 152.918 130.776 152.99C130.136 153.045 129.455 153.1 128.751 153.164C127.344 153.298 125.809 153.385 124.188 153.48C122.566 153.583 120.85 153.614 119.078 153.63C117.307 153.599 115.472 153.606 113.605 153.48C111.738 153.417 109.856 153.211 107.966 153.037C106.091 152.744 104.201 152.523 102.382 152.112C100.539 151.779 98.767 151.289 97.0428 150.838C96.1806 150.609 95.3581 150.308 94.5434 150.039C93.7287 149.763 92.9378 149.509 92.1864 149.169C91.435 148.853 90.6994 148.552 89.9955 148.26C89.2837 147.975 88.643 147.595 88.0023 147.287C87.3696 146.963 86.7526 146.67 86.1832 146.361C85.6295 146.021 85.1075 145.697 84.6171 145.389C84.1267 145.088 83.668 144.803 83.2409 144.534C82.8217 144.265 82.4658 143.973 82.1336 143.736C80.8206 142.747 80.0692 142.185 80.0692 142.185Z" fill="#775B52"/>
<path d="M173.076 148.173C173.076 148.173 173.55 148.007 174.254 147.864C174.602 147.793 175.013 147.722 175.448 147.667C175.884 147.611 176.35 147.556 176.817 147.524C177.75 147.453 178.683 147.445 179.395 147.477C180.107 147.508 180.605 147.603 180.605 147.603C180.605 147.603 180.17 147.864 179.482 148.086C178.794 148.315 177.853 148.521 176.896 148.592C175.939 148.663 174.982 148.6 174.262 148.473C173.542 148.363 173.076 148.173 173.076 148.173Z" fill="#775B52"/>
<path d="M164.273 163.517C164.273 163.517 164.383 163.548 164.589 163.62C164.795 163.691 165.103 163.77 165.483 163.92C165.862 164.071 166.329 164.237 166.851 164.474C167.373 164.695 167.958 164.972 168.583 165.296C169.2 165.621 169.872 165.992 170.553 166.404C171.241 166.823 171.961 167.266 172.68 167.748C174.144 168.705 175.646 169.781 177.181 170.801C178.699 171.838 180.265 172.81 181.76 173.633C183.271 174.456 184.726 175.136 185.992 175.681C187.265 176.219 188.341 176.639 189.108 176.9C189.875 177.168 190.31 177.319 190.31 177.319C190.31 177.319 190.192 177.303 189.978 177.263C189.765 177.232 189.448 177.184 189.045 177.097C188.246 176.923 187.107 176.686 185.77 176.251C184.434 175.832 182.899 175.239 181.317 174.463C180.526 174.068 179.72 173.657 178.929 173.174C178.13 172.708 177.347 172.201 176.564 171.687C175.021 170.635 173.519 169.544 172.127 168.516C170.727 167.495 169.414 166.562 168.251 165.811C167.666 165.447 167.136 165.099 166.653 164.814C166.179 164.513 165.736 164.3 165.388 164.094C164.684 163.73 164.273 163.517 164.273 163.517Z" fill="#775B52"/>
<path d="M175.686 167.377C175.686 167.377 176.469 167.693 177.552 168.302C178.098 168.603 178.723 168.966 179.379 169.378C180.036 169.781 180.724 170.232 181.412 170.675C182.773 171.577 184.141 172.486 185.161 173.158C185.675 173.506 186.102 173.791 186.403 173.989C186.704 174.195 186.878 174.321 186.878 174.321C186.878 174.321 186.047 174.163 184.877 173.704C184.291 173.483 183.627 173.174 182.931 172.81C182.591 172.621 182.227 172.439 181.879 172.217C181.531 172.004 181.175 171.782 180.827 171.561C180.139 171.094 179.459 170.62 178.85 170.145C178.233 169.67 177.679 169.212 177.212 168.8C176.263 167.994 175.686 167.377 175.686 167.377Z" fill="#775B52"/>
<path d="M182.947 137.131C179.403 134.996 176.366 132.275 173.708 129.103C171.051 133.548 167.642 137.55 163.679 140.888C159.084 144.748 153.65 146.709 147.758 147.603C138.377 149.035 126.149 146.789 118.058 141.766C113.945 139.211 110.03 135.431 108.614 130.701C105.537 133.351 101.804 135.415 98.1975 137.21C97.9365 137.345 97.6201 137.471 97.3512 137.345C97.1456 137.242 97.0348 137.02 96.9399 136.807C93.1355 128.122 90.8339 117.033 93.1988 107.724C92.3525 108.594 91.5932 109.575 90.8022 110.5C90.913 100.36 94.9547 90.3076 101.891 82.9123C103.797 80.8796 105.965 79.0051 108.543 77.9373C106.32 78.4198 104.446 78.7678 102.231 77.9294C101.97 77.8345 101.693 77.7001 101.567 77.4549C101.425 77.1622 101.535 76.8142 101.662 76.5137C102.097 75.4854 102.651 74.5047 103.315 73.6109C102.825 73.777 100.539 74.3069 100.507 73.3183C100.491 72.8437 100.887 72.464 101.243 72.1398C106.605 67.1964 108.132 59.3424 108.29 52.0499C108.424 45.5959 106.771 37.2831 109.16 31.1296C111.295 25.6563 115.329 21.0688 120.304 18C119.521 19.8271 118.738 21.662 117.955 23.4891C118.627 22.7852 119.505 22.279 120.447 22.0496C118.556 27.4913 118.952 33.6764 121.514 38.8333C128.965 37.3464 135.878 35.369 143.582 35.4086C150.233 35.4402 158.087 35.4718 164.012 38.8729C165.546 35.1713 166.606 31.272 167.175 27.3014C167.658 27.7365 168.037 28.2901 168.275 28.907C169.295 25.1659 168.82 22.018 167.99 18.348C171.193 19.6768 173.194 22.8959 174.523 26.0992C177.268 32.7352 178.272 40.1858 178.256 47.3359C178.248 52.5798 176.232 75.09 186.142 73.2866C185.573 75.2165 183.856 76.7509 181.879 77.0989C182.725 77.5893 183.571 78.0876 184.418 78.578C182.788 80.7926 179.83 81.9395 177.133 81.4017C186.996 86.8829 192.833 98.6283 192.035 109.883C191.402 109.591 190.777 109.306 190.144 109.013C192.09 118.513 190.097 128.755 184.726 136.831C184.568 137.06 184.402 137.305 184.141 137.408C183.738 137.566 183.31 137.353 182.947 137.131Z" fill="#A55520"/>
<path opacity="0.33" d="M171.431 80.7373C172.174 78.6096 171.976 76.4108 172.522 74.212C171.921 76.6244 169.667 78.2695 167.357 79.187C164.146 80.4604 160.539 80.7056 157.186 79.891C153.832 79.0684 150.748 77.186 148.485 74.5838C147.473 76.0945 146.809 77.6526 145.527 78.9893C144.357 80.2073 142.981 81.2356 141.47 81.9869C140.94 82.248 140.291 82.4773 139.777 82.1847C139.445 81.9949 139.263 81.6231 139.105 81.2751C138.401 79.6932 137.919 78.0164 137.673 76.3001C135.111 80.935 132.232 85.4038 129.084 89.667C127.684 91.5573 126.576 93.3448 124.449 94.3889C122.329 95.4329 119.846 95.9312 117.576 95.0533C115.242 94.1516 113.51 91.5731 114.064 89.137C113.51 90.7585 111.24 91.2093 109.729 90.4025C108.219 89.5958 107.341 87.9744 106.669 86.4004C105.83 84.4468 105.174 82.422 104.699 80.3497C105.909 79.3215 107.009 78.5543 108.488 77.9453C106.265 78.4277 104.391 78.7757 102.176 77.9373C101.915 77.8424 101.638 77.708 101.512 77.4628C101.369 77.1701 101.48 76.8221 101.607 76.5216C102.042 75.4933 102.595 74.5126 103.26 73.6188C102.769 73.7849 100.483 74.3148 100.452 73.3262C100.436 72.8516 100.831 72.472 101.187 72.1477C103.608 69.9172 105.205 67.0857 106.637 64.1671C106.858 66.3817 106.827 68.6122 106.534 70.8189C107.198 70.5421 107.863 70.2652 108.527 69.9805C108.519 71.2381 108.511 72.5036 108.504 73.7612C109.642 74.1646 110.979 72.5748 111.936 73.3024C112.268 73.5555 112.379 73.9985 112.427 74.4098C112.585 75.7623 112.284 77.1385 112.474 78.4831C112.664 79.8277 113.589 81.2593 114.95 81.2909C115.551 81.3067 116.12 81.0457 116.658 80.7926C118.477 79.9463 120.296 79.1 122.116 78.2537C121.649 80.0333 121.174 81.8762 121.522 83.6796C121.87 85.4829 123.31 87.2151 125.145 87.2625C126.513 87.2942 127.723 86.432 128.783 85.562C130.871 83.8536 132.857 81.9553 134.256 79.6537C135.656 77.3441 136.424 74.5679 135.941 71.9183C133.671 75.4538 129.02 77.273 124.947 76.2131C129.416 73.4685 133.339 69.8302 136.416 65.5829C137.159 67.1885 138.116 68.976 139.841 69.3715C140.948 69.6325 142.103 69.2212 143.115 68.6913C145.812 67.2755 148.003 64.9185 149.229 62.1265C149.53 65.1637 150.763 68.2246 153.144 70.1308C154.592 71.2855 156.371 71.9499 158.182 72.3217C161.465 72.994 165.024 72.7013 167.943 71.0562C170.861 69.411 173.044 66.3185 173.147 62.9728C173.21 60.8768 172.498 58.8124 171.383 57.0328C168.773 52.8646 162.904 50.2545 158.08 51.0296C154.291 51.6386 150.85 54.1301 149.087 57.539C145.749 53.8533 146.215 47.1224 149.941 43.6976C150.787 42.9146 155.335 38.9441 156.585 39.7666C155.058 38.7542 153.215 38.3588 151.404 38.074C145.298 37.1249 137.12 36.7136 131.298 39.1734C132.255 38.7701 134.375 42.5191 134.818 43.1123C136.534 45.4377 137.697 47.5178 137.934 50.5392C138.108 52.7222 137.681 54.9922 136.479 56.8193C135.182 53.6002 132.912 51.259 129.527 50.2387C126.023 49.1788 122.622 50.2703 119.078 50.0805C109.824 49.5822 106.131 38.8175 109.113 31.1296C111.232 25.6563 115.266 21.0688 120.241 18C119.458 19.8271 118.675 21.662 117.892 23.4891C118.564 22.7852 119.442 22.279 120.383 22.0496C118.493 27.4913 118.889 33.6764 121.451 38.8333C128.902 37.3464 135.815 35.369 143.518 35.4086C150.17 35.4402 158.024 35.4718 163.948 38.8729C165.483 35.1713 166.543 31.272 167.112 27.3014C167.595 27.7365 167.974 28.2901 168.211 28.907C169.232 25.1659 168.757 22.018 167.927 18.348C171.13 19.6768 173.131 22.8959 174.46 26.0992C177.204 32.7352 178.209 40.1858 178.193 47.3359C178.185 52.5798 176.168 75.09 186.079 73.2866C185.509 75.2165 183.793 76.7509 181.816 77.0989C182.662 77.5893 183.508 78.0876 184.355 78.578C183.374 79.9147 181.911 80.8638 180.313 81.283C179.965 81.3779 175.947 81.6548 175.923 81.5757C176.769 84.8106 174.84 88.1642 172.411 90.4658C170.189 92.5776 166.804 94.2069 164.13 92.7042C162.92 95.0928 159.796 96.1052 157.217 95.4013C153.832 94.4759 150.629 91.581 148.833 88.6308C146.722 85.1586 145.962 81.3226 145.883 77.3204C145.875 76.8142 146.018 76.1261 146.524 76.1103C146.753 81.7892 149.648 87.3021 154.188 90.711C155.232 91.494 156.078 92.1426 157.399 91.7867C158.752 91.4308 159.915 90.45 160.618 89.2557C161.591 87.5947 161.789 85.5857 161.599 83.6716C162.833 85.2061 164.953 85.9733 166.883 85.5778C169.414 85.0716 170.64 82.9835 171.431 80.7373Z" fill="#A55520"/>
<path opacity="0.3" d="M175.899 125.488C175.876 125.56 175.844 125.623 175.82 125.694C175.369 126.801 174.689 127.806 174.025 128.802C172.617 130.898 171.304 133.532 169.256 135.075C167.413 136.459 164.375 136.767 162.177 136.261C158.926 135.51 156.213 133.255 154.062 130.701C149.822 125.655 147.378 119.272 146.271 112.77C145.164 106.269 145.33 99.6169 145.836 93.0442C146.057 90.1889 146.35 87.3098 147.267 84.5969C148.691 94.7842 153.888 104.402 161.631 111.172C161.931 111.441 162.256 111.71 162.643 111.805C163.703 112.074 164.589 111.022 165.285 110.184C166.329 108.926 167.602 107.851 169.018 107.052C171.7 105.541 172.419 108.214 173.534 110.026C174.974 112.375 175.749 115.001 176.208 117.706C176.643 120.292 176.833 123.037 175.899 125.488Z" fill="#A55520"/>
<path opacity="0.3" d="M131.188 117.097C130.049 120.316 128.498 123.369 126.45 126.098C124.947 128.099 123.072 129.997 120.771 131.057C119.901 131.46 114.064 132.37 116.057 129.704C114.254 131.666 112.616 133.778 111.169 136.016C109.089 131.911 108.155 129.704 109.769 125.196C110.939 121.937 112.917 118.639 112.339 115.04C111.936 112.517 110.307 110.405 108.994 108.215C103.663 99.3481 103.259 87.7292 107.966 78.5148C107.167 81.2198 106.684 84.2016 107.792 86.788C108.582 88.623 110.101 90.0625 111.778 91.1461C115.369 93.4635 119.94 94.3415 124.061 93.2025C125.833 92.7121 128.047 91.8816 129.432 90.6557C131.061 89.2162 131.939 86.788 132.611 84.7869C132.429 85.3248 132.856 86.5903 132.92 87.1755C133.023 88.0693 133.07 88.971 133.204 89.8568C133.473 91.6048 133.592 93.3923 133.679 95.1719C133.877 98.9843 133.869 102.804 133.473 106.601C133.102 110.176 132.374 113.727 131.188 117.097Z" fill="#A55520"/>
<path d="M176.453 44.6862C175.773 44.6783 175.1 44.4094 174.452 44.1642C169.659 42.3608 164.344 42.0919 159.361 43.2071C156.893 43.7608 154.409 44.6308 152.219 45.9121C151.341 46.4263 146.998 49.0601 147.038 49.9934C146.753 43.4602 150.795 37.8446 156.98 35.9621C158.997 35.3452 161.172 35.2661 163.126 34.4514C166.187 33.178 166.756 30.2753 167.175 27.3093C167.658 27.7443 168.037 28.2979 168.275 28.9149C169.295 25.1737 168.82 22.0258 167.99 18.3558C171.193 19.6846 173.194 22.9037 174.523 26.107C175.52 28.5115 180.7 44.0297 176.864 44.6545C176.722 44.6783 176.587 44.6862 176.453 44.6862Z" fill="#72391D"/>
<path d="M137.428 46.6399C137.657 47.6444 137.808 48.6647 137.903 49.685C137.784 48.467 134.122 46.8851 133.173 46.4659C130.776 45.3981 128.158 44.8287 125.532 44.8208C121 44.797 116.745 46.719 112.743 43.3733C110.734 41.6886 109.69 39.0706 109.397 36.4684C108.907 32.0946 109.793 28.8754 112.308 25.3953C113.447 23.8213 114.76 22.366 116.207 21.0689C117.046 20.3175 119.909 18.9254 120.296 18.0079C119.513 19.835 118.73 21.67 117.947 23.497C118.62 22.7931 119.498 22.2869 120.439 22.0575C119.213 25.593 117.829 32.3318 121.507 34.9024C123.001 35.9464 124.852 36.3103 126.624 36.7532C130.507 37.726 134.201 39.3316 136.139 43.057C136.74 44.188 137.143 45.3902 137.428 46.6399Z" fill="#72391D"/>
<path d="M182.947 137.131C179.142 134.845 176.287 131.872 173.408 128.573C173.614 129.412 172.918 130.258 172.095 130.511C171.272 130.764 170.379 130.551 169.572 130.266C165.696 128.882 162.588 125.971 160.096 122.776C157.439 119.375 154.868 116.084 152.923 112.193C148.762 103.864 146.761 94.4601 147.26 85.1587C148.778 87.7213 150.676 90.0625 152.859 92.0952C157.043 95.9787 162.066 94.4918 162.888 88.623C164.534 90.5212 167.555 90.5608 169.865 89.5642C171.676 88.7812 173.281 87.4208 174.144 85.6411C175.006 83.8615 175.069 81.6627 174.096 79.9385C174.634 80.8955 177.141 81.8446 178.122 82.3667C179.743 83.2288 181.215 84.1384 182.575 85.4197C184.774 87.5078 186.632 89.9518 188.112 92.6093C191.014 97.8374 192.454 103.912 192.027 109.883C191.394 109.591 190.769 109.306 190.136 109.013C192.082 118.513 190.089 128.755 184.718 136.831C184.56 137.06 184.394 137.305 184.133 137.408C183.738 137.566 183.311 137.353 182.947 137.131Z" fill="#72391D"/>
<path d="M127.217 113.094C125.39 117.081 122.954 120.759 119.79 123.772C119.316 124.231 118.517 124.666 118.066 124.176C117.512 123.567 118.461 122.554 118.137 121.795C113.099 128.431 105.593 133.54 98.1975 137.218C97.9365 137.353 97.6201 137.479 97.3512 137.353C97.1456 137.25 97.0348 137.028 96.9399 136.815C93.1355 128.13 90.8339 117.041 93.1988 107.732C92.3525 108.602 91.5932 109.583 90.8022 110.508C91.2768 109.947 91 106.917 91.1028 106.079C91.3005 104.489 91.5853 102.907 91.9728 101.349C92.7638 98.1141 93.9423 94.9741 95.4767 92.016C98.3478 86.4794 102.951 80.5632 108.543 77.5576C108.322 79.2186 107.831 80.8005 108.227 82.5247C108.567 84.0196 109.5 85.4195 110.876 86.0839C112.988 87.0963 114.942 86.0839 116.69 84.8501C116.563 85.5461 116.476 86.25 116.444 86.9619C116.413 87.6421 116.429 88.3302 116.603 88.9867C117.275 91.5098 120.257 92.9018 122.827 92.4668C126.497 91.8499 130.642 87.6974 132.532 84.6365C132.208 91.668 131.71 98.7469 129.898 105.549C129.218 108.119 128.332 110.658 127.217 113.094Z" fill="#72391D"/>
<path d="M137.222 65.1558C139.366 63.8428 142.292 62.5615 144.602 64.2304C145.701 65.0213 146.635 66.3975 147.987 66.271C147.37 67.2438 146.761 68.2088 146.144 69.1816C145.377 70.3918 142.11 76.4662 140.41 76.2526C139.793 76.1735 139.318 74.5205 139.097 73.9826C137.966 71.3409 137.159 68.5568 136.012 65.9309C136.392 65.6778 136.795 65.4168 137.222 65.1558Z" fill="#EDB740"/>
<path d="M156.181 49.2579C151.76 51.0929 148.683 55.5855 148.169 60.3469C147.813 63.6372 148.604 67.0382 150.384 69.8382C151.507 71.602 153.01 73.1285 154.821 74.1725C157.992 75.9996 162.01 76.2131 165.419 74.8685C168.828 73.5239 171.589 70.6924 172.989 67.3151C174.998 62.4745 174.088 56.4871 170.56 52.6036C167.041 48.7201 161.022 47.249 156.181 49.2579Z" fill="#F4EAE9" stroke="#72391D" stroke-width="1.3602" stroke-miterlimit="10"/>
<path d="M157.209 52.0261C153.769 53.4577 151.372 56.9536 150.969 60.6631C150.692 63.2258 151.309 65.8754 152.693 68.0505C153.563 69.4268 154.742 70.6132 156.15 71.4278C158.617 72.8515 161.749 73.0176 164.407 71.9736C167.065 70.9295 169.208 68.7228 170.299 66.089C171.866 62.3162 171.154 57.6576 168.409 54.6362C165.665 51.6069 160.982 50.46 157.209 52.0261Z" fill="#EDB740"/>
<path opacity="0.6" d="M158.238 54.7707C155.722 55.8147 153.966 58.3774 153.674 61.0824C153.468 62.9569 153.927 64.8947 154.931 66.4845C155.572 67.489 156.426 68.359 157.454 68.9522C159.258 69.9962 161.552 70.1149 163.489 69.3477C165.427 68.5805 167.001 66.9749 167.8 65.045C168.947 62.2846 168.425 58.8836 166.416 56.6689C164.415 54.4622 160.99 53.6238 158.238 54.7707Z" fill="#A55520"/>
<path d="M170.734 55.2453C170.663 54.9289 170.553 54.6205 170.402 54.3278C169.002 51.6307 166.052 51.607 164.185 53.9007C163.268 55.0239 162.801 56.4555 162.556 57.8871C162.382 58.939 162.358 60.1333 163.047 60.9401C163.806 61.8338 165.158 61.9287 166.321 61.7706C168.457 61.47 170.133 59.8169 170.655 57.721C170.861 56.9142 170.916 56.0442 170.734 55.2453Z" fill="white"/>
<path d="M159.63 57.7763C158.198 58.3695 157.194 59.8327 157.027 61.375C156.909 62.4428 157.17 63.5422 157.747 64.4518C158.111 65.0213 158.601 65.5196 159.187 65.8597C160.215 66.4529 161.52 66.524 162.627 66.089C163.735 65.654 164.628 64.7365 165.079 63.6371C165.728 62.0632 165.435 60.1254 164.288 58.8678C163.149 57.6023 161.204 57.1277 159.63 57.7763Z" fill="#34343F"/>
<path d="M118.651 49.2578C114.23 51.0928 111.153 55.5853 110.639 60.3468C110.283 63.6371 111.074 67.0381 112.854 69.8381C113.977 71.6018 115.48 73.1284 117.291 74.1724C120.462 75.9995 124.48 76.213 127.889 74.8684C131.298 73.5238 134.059 70.6923 135.459 67.315C137.468 62.4744 136.558 56.487 133.03 52.6035C129.511 48.7121 123.492 47.2409 118.651 49.2578Z" fill="#F4EAE9" stroke="#72391D" stroke-width="1.3602" stroke-miterlimit="10"/>
<path d="M119.735 52.0895C116.294 53.5211 113.89 57.017 113.494 60.7265C113.218 63.2891 113.834 65.9388 115.219 68.1139C116.089 69.4822 117.267 70.6765 118.675 71.4912C121.143 72.9149 124.275 73.081 126.932 72.0369C129.59 70.9929 131.733 68.7862 132.825 66.1523C134.391 62.3796 133.679 57.7209 130.935 54.6996C128.182 51.6703 123.5 50.5234 119.735 52.0895Z" fill="#EDB740"/>
<path opacity="0.6" d="M120.51 54.7233C117.995 55.7674 116.239 58.33 115.946 61.035C115.74 62.9095 116.199 64.8473 117.204 66.4371C117.844 67.4416 118.699 68.3116 119.727 68.9048C121.53 69.9489 123.824 70.0675 125.762 69.3003C127.699 68.5331 129.273 66.9275 130.072 64.9976C131.219 62.2372 130.697 58.8362 128.688 56.6216C126.695 54.4148 123.27 53.5765 120.51 54.7233Z" fill="#A55520"/>
<path d="M130.713 60.4654C130.056 61.0349 129.234 61.4541 128.269 61.6914C127.003 61.9999 125.532 61.897 124.591 61.0033C123.848 60.2993 123.571 59.2237 123.539 58.1954C123.452 55.5458 125.358 51.2668 128.641 51.6544C128.933 51.686 129.218 51.773 129.495 51.8758C131.069 52.4928 132.239 54.0351 132.421 55.7119C132.635 57.6655 131.994 59.3502 130.713 60.4654Z" fill="white"/>
<path d="M121.704 57.6974C120.273 58.2906 119.268 59.7538 119.102 61.2961C118.983 62.3639 119.244 63.4633 119.822 64.3729C120.186 64.9424 120.676 65.4407 121.261 65.7808C122.29 66.374 123.595 66.4451 124.702 66.0101C125.809 65.5751 126.703 64.6576 127.154 63.5582C127.802 61.9843 127.51 60.0465 126.363 58.7889C125.232 57.5234 123.278 57.0409 121.704 57.6974Z" fill="#34343F"/>
<path d="M138.092 149.122C138.203 148.877 138.243 148.608 138.203 148.331C138.084 147.492 137.278 146.947 136.526 146.551C128.815 142.486 117.544 142.225 111.715 149.62C110.536 151.115 108.662 156.296 111.983 154.381C113.083 153.749 114.095 151.257 115.108 150.284C116.365 149.074 117.828 148.078 119.41 147.35C117.726 148.766 116.318 150.514 115.29 152.459C114.285 154.366 113.731 156.928 115.195 158.518C115.329 158.668 115.487 158.803 115.685 158.866C116.334 159.064 116.84 158.312 117.14 157.695C119.094 153.685 123.381 149.375 128.071 149.153C124.528 150.617 122.345 154.793 123.167 158.542C123.231 158.819 123.31 159.095 123.5 159.309C123.903 159.752 124.662 159.673 125.145 159.309C125.627 158.945 125.904 158.384 126.189 157.854C127.937 154.674 129.352 150.941 133.568 150.617C134.549 150.545 135.553 150.672 136.495 150.411C137.175 150.221 137.823 149.739 138.092 149.122Z" fill="#EDB740"/>
<path d="M161.789 156.731C161.417 157.822 160.721 158.589 159.472 157.854C158.657 157.379 158.277 156.43 157.937 155.552C157.407 154.184 156.814 152.808 155.881 151.676C154.947 150.545 153.611 149.667 152.147 149.588C151.91 149.58 151.61 149.628 151.546 149.857C151.515 149.976 151.554 150.103 151.594 150.213C152.424 152.626 152.488 155.299 151.776 157.751C150.945 160.63 149.355 160.163 148.691 157.569C148.145 155.426 148.414 153.092 147.291 151.099C146.904 150.403 146.358 149.802 145.709 149.335C145.037 148.853 144.214 148.481 143.882 147.73C142.712 145.096 150.906 144.289 152.195 144.123C156.466 143.569 161.892 142.984 165.301 146.148C167.199 147.904 168.101 150.783 167.199 153.203C166.115 152.641 165.467 151.518 164.66 150.601C163.126 148.845 160.887 147.738 158.562 147.572C160.587 148.948 161.892 151.289 162.121 153.717C162.184 154.374 162.137 155.694 161.789 156.731Z" fill="#EDB740"/>
<path d="M95.6033 101.096C95.6033 101.096 95.5875 101.381 95.5559 101.879C95.5242 102.377 95.4689 103.089 95.5242 103.904C95.5559 104.299 95.6349 104.742 95.8169 105.066C96.0067 105.383 96.2914 105.478 96.6869 105.438C97.0665 105.383 97.4541 105.114 97.8258 104.782C98.1897 104.449 98.5772 103.991 98.9094 103.587C100.309 101.895 101.425 99.9332 102.271 98.4621C102.698 97.7186 103.046 97.1017 103.291 96.6667C103.552 96.2396 103.695 95.9865 103.695 95.9865C103.695 95.9865 103.434 97.1096 102.825 98.7152C102.524 99.522 102.129 100.447 101.614 101.412C101.353 101.887 101.085 102.385 100.76 102.86C100.444 103.342 100.096 103.809 99.732 104.268C99.3286 104.726 98.9727 105.13 98.5061 105.549C98.0552 105.944 97.4699 106.308 96.7739 106.371C96.6869 106.379 96.5683 106.379 96.505 106.371L96.4101 106.364C96.331 106.356 96.3152 106.348 96.2677 106.34C96.0937 106.3 95.9276 106.269 95.7694 106.158C95.4372 105.992 95.2395 105.683 95.105 105.414C94.8598 104.853 94.8836 104.339 94.9073 103.896C94.9785 103.002 95.1999 102.314 95.3502 101.831C95.5005 101.365 95.6033 101.096 95.6033 101.096Z" fill="#A55520"/>
<path d="M96.9002 112.905C96.9002 112.905 96.8291 113.387 96.7025 114.241C96.576 115.088 96.4415 116.306 96.3782 117.753C96.3308 119.201 96.3545 120.901 96.8132 122.594C97.0347 123.432 97.4064 124.278 97.8968 124.975C98.0392 125.164 98.1895 125.37 98.3398 125.544C98.49 125.694 98.6245 125.86 98.7906 126.003C99.1149 126.287 99.4708 126.548 99.8504 126.691C100.602 127.015 101.464 126.904 102.239 126.517C103.014 126.137 103.718 125.544 104.343 124.919C105.585 123.654 106.534 122.238 107.301 121.012C108.052 119.77 108.63 118.694 108.986 117.919C109.342 117.144 109.508 116.678 109.508 116.678C109.508 116.678 109.484 116.796 109.437 117.026C109.381 117.247 109.31 117.579 109.176 117.991C108.907 118.805 108.503 119.984 107.839 121.312C107.175 122.641 106.297 124.16 105.023 125.576C104.375 126.264 103.655 126.976 102.698 127.45C102.231 127.703 101.693 127.861 101.132 127.933C100.57 128.004 99.977 127.893 99.4471 127.695C98.9092 127.482 98.4663 127.15 98.0708 126.786C97.8652 126.604 97.6991 126.39 97.5093 126.193C97.3511 125.995 97.2166 125.805 97.0663 125.607C96.4494 124.721 96.1172 123.772 95.8957 122.831C95.4766 120.949 95.5794 119.177 95.7692 117.706C95.9511 116.227 96.2833 115.04 96.4969 114.202C96.7341 113.364 96.9002 112.905 96.9002 112.905Z" fill="#A55520"/>
<path d="M108.195 102.567C108.195 102.567 108.195 102.939 108.203 103.595C108.203 104.244 108.219 105.177 108.416 106.229C108.472 106.482 108.535 106.775 108.63 107.012C108.733 107.297 108.844 107.59 108.946 107.882C109.089 108.135 109.231 108.389 109.373 108.657C109.579 108.871 109.729 109.156 109.975 109.33C110.402 109.773 111.003 109.923 111.604 109.955C112.221 109.986 112.869 109.773 113.471 109.456C114.087 109.172 114.641 108.737 115.155 108.286C115.646 107.811 116.128 107.313 116.492 106.767C116.864 106.237 117.172 105.66 117.449 105.09C117.726 104.521 117.979 103.983 118.2 103.477C118.635 102.464 118.983 101.602 119.189 100.985C119.403 100.368 119.529 100.02 119.529 100.02C119.529 100.02 119.498 100.392 119.395 101.041C119.276 101.681 119.11 102.607 118.786 103.69C118.627 104.228 118.43 104.813 118.192 105.415C118.074 105.723 117.955 106.024 117.813 106.34C117.647 106.648 117.512 106.989 117.299 107.289C116.919 107.914 116.437 108.515 115.883 109.045C115.313 109.567 114.697 110.065 113.969 110.421C113.257 110.777 112.442 111.038 111.588 110.991C110.758 110.959 109.88 110.619 109.35 110.026C109.192 109.899 109.081 109.741 108.97 109.583C108.859 109.425 108.757 109.274 108.646 109.124C108.488 108.784 108.337 108.452 108.211 108.135C108.132 107.827 108.045 107.526 107.974 107.234C107.887 106.894 107.855 106.617 107.831 106.316C107.736 105.154 107.926 104.22 108.021 103.58C108.108 102.931 108.195 102.567 108.195 102.567Z" fill="#A55520"/>
<path d="M157.225 100.835C157.225 100.835 157.747 101.507 158.53 102.528C158.926 103.01 159.4 103.548 159.986 103.983C160.144 104.102 160.27 104.181 160.452 104.291C160.603 104.37 160.761 104.442 160.927 104.521C161.267 104.663 161.631 104.758 161.995 104.79C162.359 104.829 162.722 104.813 163.055 104.726C163.379 104.639 163.695 104.481 163.925 104.283C164.091 104.133 164.162 104.054 164.273 103.92C164.375 103.793 164.462 103.659 164.542 103.516C164.692 103.232 164.803 102.923 164.89 102.638C165.056 102.053 165.127 101.523 165.182 101.151C165.238 100.78 165.269 100.566 165.269 100.566C165.269 100.566 165.325 100.78 165.396 101.151C165.459 101.523 165.546 102.069 165.499 102.741C165.475 103.081 165.419 103.453 165.285 103.841C165.214 104.03 165.135 104.228 165.016 104.426C164.913 104.616 164.723 104.837 164.605 104.964C164.257 105.32 163.838 105.596 163.355 105.731C162.881 105.873 162.382 105.913 161.892 105.865C161.409 105.81 160.943 105.676 160.516 105.478C160.302 105.383 160.096 105.264 159.891 105.122C159.733 105.011 159.535 104.853 159.377 104.711C158.736 104.117 158.309 103.445 158.008 102.86C157.708 102.274 157.526 101.76 157.399 101.404C157.289 101.041 157.225 100.835 157.225 100.835Z" fill="#A55520"/>
<path d="M167.666 107.835C167.666 107.835 167.855 108.301 168.196 109.108C168.528 109.915 169.042 111.062 169.754 112.367C170.466 113.664 171.423 115.119 172.712 116.385C174.001 117.642 175.654 118.734 177.489 119.185C177.94 119.295 178.43 119.398 178.834 119.398C179.245 119.398 179.506 119.288 179.814 118.995C180.408 118.378 180.898 117.563 181.199 116.741C181.816 115.064 181.855 113.34 181.681 111.876C181.507 110.413 181.191 109.195 180.953 108.357C180.708 107.51 180.574 107.028 180.574 107.028C180.574 107.028 180.803 107.471 181.151 108.286C181.483 109.1 181.982 110.271 182.29 111.774C182.448 112.525 182.551 113.355 182.535 114.257C182.519 115.151 182.401 116.1 182.084 117.049C181.76 117.998 181.309 118.924 180.534 119.738C180.329 119.944 180.075 120.142 179.775 120.268C179.459 120.403 179.142 120.45 178.842 120.45C178.241 120.45 177.742 120.347 177.22 120.221C176.192 119.96 175.219 119.509 174.341 118.963C173.463 118.417 172.696 117.745 172.024 117.041C170.679 115.618 169.801 114.028 169.184 112.636C168.567 111.244 168.227 110.018 167.982 109.179C167.768 108.325 167.666 107.835 167.666 107.835Z" fill="#A55520"/>
<path d="M172.656 95.4881C172.656 95.4881 172.807 95.8678 173.107 96.5085C173.4 97.1491 173.89 98.035 174.578 99.0078C175.274 99.9728 176.168 101.056 177.315 101.942C177.893 102.385 178.525 102.741 179.221 102.994C179.894 103.224 180.653 103.342 181.365 103.255C181.721 103.224 182.069 103.144 182.401 103.018L182.599 102.931L182.86 102.781C183.018 102.678 183.247 102.583 183.334 102.472C183.832 102.108 184.244 101.491 184.41 100.843C184.584 100.186 184.639 99.4903 184.584 98.8259C184.536 98.1615 184.441 97.5209 184.315 96.9356C184.062 95.765 183.793 94.7842 183.587 94.104C183.39 93.4238 183.287 93.0283 183.287 93.0283C183.287 93.0283 183.477 93.3921 183.785 94.0328C184.078 94.6814 184.528 95.5989 184.916 96.7774C185.114 97.3627 185.288 98.0191 185.391 98.7389C185.501 99.4587 185.517 100.257 185.327 101.072C185.13 101.895 184.726 102.725 183.927 103.318C183.738 103.5 183.579 103.548 183.405 103.674L183.144 103.833C182.97 103.927 182.915 103.943 182.796 103.999C182.369 104.173 181.926 104.275 181.475 104.323C180.574 104.41 179.688 104.268 178.857 103.959C178.051 103.666 177.339 103.184 176.722 102.678C175.504 101.634 174.665 100.416 174.056 99.3321C173.447 98.2485 173.123 97.2598 172.91 96.5796C172.72 95.8915 172.656 95.4881 172.656 95.4881Z" fill="#A55520"/>
<path d="M121.894 132.322C121.894 132.322 121.973 132.409 122.092 132.56C122.203 132.702 122.369 132.915 122.566 133.161C122.756 133.406 122.978 133.683 123.215 133.967C123.452 134.252 123.713 134.545 123.974 134.837C124.243 135.122 124.512 135.407 124.773 135.676C125.042 135.937 125.295 136.19 125.517 136.396C125.746 136.617 125.936 136.799 126.07 136.926C126.205 137.06 126.284 137.147 126.284 137.147C126.284 137.147 125.825 137.155 125.192 136.926C124.56 136.712 123.784 136.222 123.175 135.557C122.574 134.893 122.171 134.07 122.013 133.422C121.926 133.105 121.894 132.813 121.894 132.623C121.886 132.433 121.894 132.322 121.894 132.322Z" fill="#BA7D4A"/>
<path d="M130.112 118.323C130.112 118.323 130.136 118.497 130.151 118.797C130.175 119.106 130.215 119.501 130.302 119.992C130.333 120.237 130.397 120.49 130.452 120.767C130.507 121.036 130.594 121.32 130.666 121.613C130.832 122.198 131.053 122.799 131.282 123.4C131.528 123.994 131.797 124.579 132.073 125.125C132.358 125.663 132.635 126.161 132.904 126.58C133.157 127.007 133.394 127.355 133.552 127.608C133.719 127.853 133.806 128.004 133.806 128.004C133.806 128.004 133.655 127.917 133.394 127.759C133.141 127.592 132.785 127.339 132.414 126.968C132.026 126.612 131.63 126.145 131.251 125.607C131.077 125.33 130.879 125.054 130.721 124.745C130.547 124.445 130.412 124.12 130.27 123.796C130.151 123.464 130.017 123.139 129.938 122.799C129.835 122.467 129.788 122.127 129.724 121.803C129.629 121.146 129.614 120.529 129.677 119.999C129.693 119.738 129.74 119.501 129.788 119.288C129.827 119.074 129.875 118.9 129.93 118.758C130.041 118.481 130.112 118.323 130.112 118.323Z" fill="#BA7D4A"/>
<path d="M137.088 136.301C137.088 136.301 137.183 136.372 137.341 136.499C137.491 136.625 137.705 136.807 137.966 137.021C138.211 137.226 138.504 137.471 138.82 137.732C139.129 137.978 139.461 138.246 139.793 138.507C140.133 138.761 140.473 139.022 140.79 139.259C141.122 139.496 141.43 139.718 141.691 139.907C141.968 140.105 142.197 140.271 142.356 140.382C142.522 140.501 142.609 140.58 142.609 140.58C142.609 140.58 142.126 140.627 141.438 140.469C140.75 140.319 139.872 139.939 139.129 139.354C138.385 138.776 137.792 138.025 137.476 137.392C137.159 136.767 137.088 136.301 137.088 136.301Z" fill="#BA7D4A"/>
<path d="M142.838 122.388C142.838 122.388 142.933 122.499 143.091 122.712C143.242 122.91 143.463 123.195 143.732 123.543C143.866 123.709 144.009 123.891 144.159 124.081C144.301 124.271 144.483 124.453 144.642 124.658C144.982 125.054 145.361 125.457 145.741 125.852C146.129 126.24 146.524 126.628 146.912 126.976C147.117 127.142 147.291 127.316 147.481 127.474C147.671 127.632 147.845 127.774 148.003 127.909C148.343 128.178 148.62 128.407 148.818 128.565C149.015 128.724 149.134 128.826 149.134 128.826C149.134 128.826 148.984 128.811 148.731 128.755C148.478 128.7 148.106 128.613 147.695 128.439C147.275 128.281 146.809 128.035 146.334 127.727C145.868 127.419 145.393 127.031 144.974 126.604C144.555 126.169 144.183 125.694 143.882 125.22C143.59 124.737 143.344 124.271 143.202 123.844C143.036 123.424 142.949 123.053 142.909 122.799C142.854 122.538 142.838 122.388 142.838 122.388Z" fill="#BA7D4A"/>
<path d="M141.359 101.903C141.359 101.903 141.391 102.061 141.43 102.33C141.47 102.591 141.525 102.971 141.588 103.421C141.62 103.643 141.66 103.88 141.699 104.133C141.731 104.386 141.794 104.647 141.834 104.916C141.936 105.454 142.063 106.024 142.197 106.585C142.34 107.147 142.506 107.7 142.672 108.23C142.775 108.483 142.838 108.744 142.933 108.982C143.02 109.219 143.107 109.448 143.178 109.654C143.344 110.081 143.479 110.429 143.574 110.682C143.669 110.935 143.724 111.086 143.724 111.086C143.724 111.086 143.605 110.991 143.4 110.801C143.194 110.619 142.925 110.334 142.64 109.962C142.348 109.599 142.063 109.124 141.794 108.594C141.675 108.325 141.533 108.048 141.438 107.756C141.327 107.463 141.248 107.163 141.161 106.854C141.098 106.546 141.019 106.237 140.987 105.929C140.932 105.62 140.932 105.32 140.9 105.019C140.884 104.426 140.908 103.88 140.979 103.414C141.043 102.947 141.146 102.559 141.225 102.306C141.296 102.053 141.359 101.903 141.359 101.903Z" fill="#BA7D4A"/>
<path d="M157.004 134.64C157.004 134.64 157.304 134.656 157.644 134.727C157.818 134.766 158.016 134.806 158.206 134.869C158.404 134.925 158.609 134.996 158.807 135.075C159.005 135.154 159.203 135.241 159.385 135.336C159.566 135.423 159.74 135.518 159.899 135.613C160.207 135.795 160.429 135.984 160.429 135.984C160.429 135.984 160.183 136.158 159.796 136.222C159.408 136.301 158.886 136.269 158.412 136.079C157.937 135.889 157.534 135.557 157.304 135.241C157.059 134.925 157.004 134.64 157.004 134.64Z" fill="#BA7D4A"/>
<path d="M133.252 106.751C133.252 106.751 133.023 106.466 132.825 106C132.627 105.533 132.469 104.885 132.437 104.228C132.406 103.572 132.508 102.907 132.667 102.425C132.817 101.942 133.023 101.634 133.023 101.634C133.023 101.634 133.173 101.966 133.284 102.448C133.394 102.931 133.489 103.548 133.513 104.173C133.529 104.481 133.521 104.798 133.513 105.09C133.505 105.383 133.473 105.668 133.442 105.913C133.371 106.395 133.252 106.751 133.252 106.751Z" fill="#BA7D4A"/>
<path d="M137.602 93.2894C137.602 93.2894 137.381 93.0758 137.215 92.6724C137.048 92.2849 136.946 91.7233 137.017 91.1697C137.08 90.616 137.309 90.094 137.563 89.7539C137.808 89.4059 138.085 89.2477 138.085 89.2477C138.085 89.2477 138.148 89.5561 138.148 89.9437C138.156 90.1414 138.156 90.3629 138.14 90.5923C138.132 90.8216 138.116 91.0589 138.085 91.2962C138.061 91.5335 138.013 91.7708 137.974 91.9922C137.934 92.2137 137.879 92.4352 137.831 92.625C137.729 92.9967 137.602 93.2894 137.602 93.2894Z" fill="#BA7D4A"/>
<path d="M151.309 113.189C151.309 113.189 151.641 113.466 152.045 113.87C152.25 114.075 152.488 114.305 152.725 114.558C152.97 114.803 153.223 115.072 153.484 115.333C153.737 115.602 153.998 115.863 154.236 116.116C154.481 116.361 154.702 116.606 154.9 116.82C155.295 117.239 155.556 117.579 155.556 117.579C155.556 117.579 155.129 117.563 154.56 117.334C153.982 117.12 153.279 116.677 152.709 116.092C152.14 115.507 151.72 114.787 151.523 114.21C151.309 113.617 151.309 113.189 151.309 113.189Z" fill="#BA7D4A"/>
</svg>
