<svg width="285" height="190" viewBox="0 0 285 190" fill="none" xmlns="http://www.w3.org/2000/svg">
<rect width="285" height="190" fill="#FF589A"/>
<path d="M131.643 167.458L136.234 157.936L121.271 152.402L117.498 155.982L116.318 163.833L131.643 167.458Z" fill="#FFCB97"/>
<path d="M79.8933 147.739L85.9064 142.019L84.3963 132.898L77.1257 129.536L72.844 130.236L68.3501 139.288L79.8933 147.739Z" fill="#FFCB97"/>
<path d="M72.844 130.236C81.1389 130.723 85.9065 142.019 85.9065 142.019C101.701 138.33 116.177 117.388 116.177 117.388C109.25 147.924 117.503 155.984 117.503 155.984C123.369 151.282 135.769 158.979 135.769 158.979C150.236 127.118 156.905 91.2286 155.806 91.1829C139.258 90.4265 112.344 73.1091 112.344 73.1091C101.847 82.5844 72.8776 130.193 72.844 130.236Z" fill="#FFA9BA"/>
<path d="M117.498 155.982C122.252 152.685 130.623 156.344 135.764 158.977C130.964 155.654 121.833 152.039 117.498 155.982Z" fill="#DB5E7D"/>
<path d="M72.844 130.236C78.7604 131.017 83.1128 136.763 85.9065 142.019C83.9082 136.56 78.8343 130.226 72.844 130.236Z" fill="#DB5E7D"/>
<path d="M112.344 73.1091C98.5083 88.1784 83.2543 112.528 72.844 130.236C80.7679 117.763 102.656 82.9226 112.344 73.1091Z" fill="#DB5E7D"/>
<path d="M138.014 141.852C137.306 146.615 135.953 154.493 132.083 156.829C136.392 155.119 138.044 146.613 138.014 141.852Z" fill="#DB5E7D"/>
<path d="M130.507 149.323C129.876 151.109 129.403 154.001 129.434 155.934C130.062 154.157 130.541 151.262 130.507 149.323Z" fill="#DB5E7D"/>
<path d="M120.846 141.39C119.681 144.957 118.302 153.873 121.698 154.686C118.847 153.359 120.354 144.727 120.846 141.39Z" fill="#DB5E7D"/>
<path d="M82.8522 120.84C80.7373 123.086 76.2529 129.302 77.5514 131.53C76.9495 129.573 80.3479 124.839 82.8522 120.84Z" fill="#DB5E7D"/>
<path d="M90.1393 129.559C87.0542 132.603 84.1529 136.239 82.6765 136.568C84.7323 136.664 88.8872 131.545 90.1393 129.559Z" fill="#DB5E7D"/>
<path d="M89.7398 137.33C87.9172 137.912 85.7634 138.977 84.4437 138.854C85.7671 139.642 88.5267 138.444 89.7398 137.33Z" fill="#DB5E7D"/>
<path d="M107.391 78.564C109.161 80.7455 111.76 83.5243 115.561 87.0429C126.261 96.9445 146.756 98.3481 154.95 98.4992C155.819 93.9058 156.093 91.1909 155.808 91.178C139.26 90.4215 112.346 73.1042 112.346 73.1042C110.967 74.3536 109.282 76.2347 107.391 78.564Z" fill="#F4C082"/>
<path d="M107.391 78.564C109.513 81.4604 112.651 84.7542 115.269 87.2728C116.64 88.3196 117.038 89.2588 122.186 92.157C129.704 95.9794 141.075 98.8319 154.95 98.4992C123.692 96.3262 116.745 87.1279 115.768 86.7342C115.131 86.1578 113.881 85.0587 112.077 83.3434C110.448 81.8205 108.892 80.226 107.391 78.564Z" fill="#D85D72"/>
<path opacity="0.49" d="M141.327 101.627C145.498 103.289 147.823 107.756 147.046 112.174C145.524 120.872 142.123 137.228 137.662 140.389C131.526 144.744 124.329 120.469 127.996 112.037C130.812 105.565 134.832 99.0424 141.327 101.627Z" fill="#DB5E7D"/>
<path d="M96.3381 104.738L102.62 103.249L105.986 108.765L106.505 102.325L112.792 100.837L106.829 98.3463L107.351 91.9129L103.144 96.8105L97.1787 94.3245L100.54 99.8389L96.3381 104.738Z" fill="#F7E8A1"/>
<path d="M97.9164 103.647C99.2791 103.295 99.419 103.35 99.3927 103.234C99.3663 103.117 99.2202 103.232 98.2686 103.435L98.9669 102.618C99.0198 102.556 98.9241 102.473 98.8713 102.536L97.9164 103.647Z" fill="white"/>
<path d="M103.68 103.519C103.782 103.459 103.646 103.394 103.017 102.307L101.734 102.612C101.654 102.631 101.683 102.754 101.763 102.735L102.952 102.454C103.563 103.406 103.576 103.584 103.68 103.519Z" fill="white"/>
<path d="M105.65 106.868C105.738 105.48 105.831 105.344 105.71 105.341C105.59 105.332 105.658 105.499 105.558 106.469L104.996 105.548C104.953 105.475 104.842 105.543 104.886 105.616L105.65 106.868Z" fill="white"/>
<path d="M105.901 102.989C106.02 102.997 105.951 102.864 106.068 101.711L107.257 101.429C107.337 101.411 107.308 101.288 107.228 101.306L105.945 101.612L105.837 102.925C105.84 102.959 105.866 102.992 105.901 102.989Z" fill="white"/>
<path d="M111.104 100.518C109.792 99.9974 109.712 99.8762 109.668 99.9871C109.623 100.098 109.787 100.079 110.693 100.484C109.746 100.732 109.572 100.691 109.598 100.808C109.606 100.844 109.748 100.811 111.104 100.518Z" fill="white"/>
<path d="M106.322 98.5248L106.422 97.3032C106.429 97.2165 106.302 97.211 106.298 97.2929L106.19 98.606L107.407 99.1118C107.844 99.0954 106.855 98.7586 106.322 98.5248Z" fill="white"/>
<path d="M106.554 94.8891C106.678 94.8994 106.604 94.7638 106.74 93.3669C105.846 94.4515 105.702 94.4894 105.793 94.5701C105.886 94.646 105.907 94.4928 106.584 93.7457L106.499 94.817C106.495 94.8546 106.521 94.8873 106.554 94.8891Z" fill="white"/>
<path d="M103.406 97.4448C104.193 96.4904 104.349 96.4352 104.258 96.3545C104.165 96.2786 104.145 96.427 103.372 97.2917C102.285 96.8655 102.206 96.7395 102.16 96.8552C102.147 96.889 102.161 96.9227 102.195 96.9361L103.406 97.4448Z" fill="white"/>
<path d="M99.4458 96.5753C99.5478 96.5154 99.3924 96.4146 98.9072 95.569L99.9 95.98C99.9685 96.0184 100.033 95.8988 99.946 95.8643L98.5904 95.2981L99.3552 96.5505C99.3745 96.586 99.4169 96.5917 99.4458 96.5753Z" fill="white"/>
<path d="M101.442 99.7339C100.787 98.7096 100.771 98.5247 100.668 98.5895C100.566 98.6494 100.7 98.7194 101.285 99.7217C100.559 100.606 100.403 100.661 100.494 100.742C100.606 100.825 100.796 100.432 101.442 99.7339Z" fill="white"/>
<path d="M89.4694 110.504L93.0656 111.419L93.3051 115.119L95.2875 111.983L98.8817 112.903L96.5137 110.048L98.4961 106.912L95.0479 108.283L92.6733 105.432L92.9176 109.133L89.4694 110.504Z" fill="#E53966"/>
<path d="M87.3653 122.665L90.9595 123.585L91.199 127.285L93.1814 124.149L96.7775 125.064L94.4028 122.212L96.3852 119.076L92.9419 120.449L90.5691 117.593L90.8086 121.293L87.3653 122.665Z" fill="#F7E8A1"/>
<path d="M198.652 100.067C198.652 100.067 196.991 88.7374 198.117 79.0674C199.243 69.3974 200.007 47.4071 200.007 47.4071L189.925 55.9481L186.929 99.6749C186.934 99.6768 196.836 105.428 198.652 100.067Z" fill="#F4C082"/>
<path d="M153.137 32.4443C153.137 32.4443 132.172 64.5655 128.189 72.7827C128.189 72.7827 125.172 73.9116 125.737 75.0623C126.302 76.213 129.78 81.8687 133.458 80.0593C137.136 78.2499 153.408 48.5674 153.408 48.5674L153.137 32.4443Z" fill="#F4C082"/>
<path d="M191.044 35.031C191.044 35.031 175.979 36.3757 167.43 27.0096L153.132 32.4423L153.403 48.5655L133.759 88.0752C133.759 88.0752 160.323 107.865 183.351 104.917L189.536 74.7167L191.044 35.031Z" fill="#D85D72"/>
<path d="M191.044 35.031L200.012 47.409C200.012 47.409 189.26 60.0258 189.541 74.7186C189.821 89.4114 186.951 103.149 183.356 104.919C183.356 104.919 155.661 82.113 133.764 88.0771C133.764 88.0771 133.309 87.7458 132.895 87.1014C132.613 86.6599 132.488 86.2981 132.356 85.8158C131.924 84.2323 133.251 76.8966 144.6 58.9761C155.954 41.0575 153.132 32.4423 153.132 32.4423L167.43 27.0096C167.43 27.0096 165.1 33.8747 175.536 39.0958C185.978 44.314 191.044 35.031 191.044 35.031Z" fill="#FFA9BA"/>
<path d="M177.395 40.8274C186.967 44.0759 191.547 35.8891 191.6 35.7985L191.044 35.0311C190.856 35.3802 185.472 43.0862 175.93 38.3148C166.366 33.529 167.35 27.2681 167.43 27.0097L166.442 27.3876C166.336 27.697 164.152 34.3797 175.147 39.8789C175.926 40.2662 176.677 40.5814 177.395 40.8274Z" fill="#CE4E6D"/>
<path d="M133.764 88.0771C133.199 87.5737 132.314 86.4131 132.272 85.5762C132.356 78.8404 145.119 59.104 146.856 55.91C148.829 52.363 150.516 48.6355 151.658 44.7475C150.192 48.5236 148.322 52.106 146.266 55.5694C139.807 66.3639 128.084 83.8181 133.764 88.0771Z" fill="#CE4E6D"/>
<path d="M183.356 104.919C170.5 94.2611 149.948 83.4657 133.765 88.0771C149.89 84.1737 170.268 94.8607 183.356 104.919Z" fill="#A0405C"/>
<path d="M190.375 66.8802C188.346 73.9315 189.819 100.934 183.359 104.925C184.113 104.572 184.683 103.911 185.139 103.227C191.519 93.6013 189.079 74.8978 190.375 66.8802Z" fill="#CE4E6D"/>
<path opacity="0.49" d="M189.058 51.2401C189.058 51.2401 183.628 65.8417 184.045 75.2983C184.463 84.7501 180.944 94.6528 180.944 94.6528C180.944 94.6528 165.945 85.3542 156.97 84.4853C147.995 83.6164 163.011 45.7459 169.714 45.0816C176.418 44.4126 195.048 41.7826 189.058 51.2401Z" fill="#ED849C"/>
<path opacity="0.54" d="M197.643 54.1191C197.643 54.1191 193.268 62.4653 193.01 67.7702C192.751 73.075 194.73 89.4968 193.444 93.283C192.158 97.0693 193.76 94.7926 196.033 95.9462C198.301 97.0979 195.21 77.1765 196.578 73.155C197.94 69.1365 200.863 52.5352 197.643 54.1191Z" fill="#F4C082"/>
<path d="M161.425 51.4274L166.837 50.1448L169.737 54.8954L170.186 49.3484L175.603 48.0677L170.464 45.9208L170.911 40.3786L167.287 44.5977L162.15 42.4575L165.044 47.2063L161.425 51.4274Z" fill="#F7E8A1"/>
<path d="M162.786 50.4893C163.962 50.1862 164.082 50.234 164.055 50.1339C164.033 50.0357 163.909 50.1371 163.087 50.3075L163.69 49.604C163.735 49.549 163.656 49.4789 163.607 49.532L162.786 50.4893Z" fill="white"/>
<path d="M167.75 50.379C167.838 50.3248 167.72 50.2721 167.175 49.3362L166.073 49.5958C166.004 49.6133 166.025 49.7163 166.098 49.7007L167.127 49.4567C167.65 50.278 167.661 50.4331 167.75 50.379Z" fill="white"/>
<path d="M169.447 53.2628C169.521 52.0644 169.602 51.9458 169.501 51.945C169.398 51.9376 169.457 52.0838 169.366 52.9182L168.881 52.1285C168.843 52.0688 168.75 52.121 168.786 52.1855L169.447 53.2628Z" fill="white"/>
<path d="M169.662 49.9219C169.765 49.9294 169.704 49.8159 169.81 48.8197L170.834 48.5737C170.903 48.5562 170.877 48.4513 170.809 48.4688L169.704 48.7333L169.613 49.8633C169.611 49.896 169.634 49.922 169.662 49.9219Z" fill="white"/>
<path d="M174.144 47.79C173.016 47.3417 172.946 47.2359 172.908 47.3323C172.869 47.4288 173.015 47.414 173.792 47.7619C172.975 47.9785 172.827 47.9422 172.85 48.0404C172.86 48.0722 172.976 48.0459 174.144 47.79Z" fill="white"/>
<path d="M170.028 46.0771L170.11 45.027C170.117 44.9519 170.007 44.9473 170.002 45.0176L169.91 46.1476L170.959 46.5864C171.335 46.5682 170.485 46.2754 170.028 46.0771Z" fill="white"/>
<path d="M170.228 42.9424C170.331 42.9499 170.27 42.8364 170.39 41.634C169.618 42.5662 169.498 42.6021 169.571 42.6703C169.651 42.7356 169.67 42.6036 170.253 41.9647L170.177 42.8886C170.172 42.9146 170.2 42.9424 170.228 42.9424Z" fill="white"/>
<path d="M167.516 45.1465C168.195 44.3224 168.33 44.2759 168.25 44.2106C168.17 44.1452 168.153 44.2724 167.483 45.0165C166.546 44.6497 166.476 44.5439 166.438 44.6404C166.426 44.6693 166.441 44.7029 166.465 44.7125L167.516 45.1465Z" fill="white"/>
<path d="M164.101 44.3932C164.19 44.3391 164.056 44.2527 163.635 43.5274L164.493 43.8847C164.552 43.9193 164.605 43.8122 164.533 43.7835L163.369 43.2988L164.03 44.376C164.041 44.403 164.077 44.4116 164.101 44.3932Z" fill="white"/>
<path d="M165.824 47.1142C165.259 46.2312 165.245 46.0695 165.159 46.1303C165.071 46.1845 165.187 46.242 165.693 47.1068C165.067 47.8681 164.931 47.9147 165.009 47.9848C165.102 48.0607 165.266 47.7184 165.824 47.1142Z" fill="white"/>
<path d="M157.32 37.1969L160.419 37.9865L160.626 41.1771L162.329 38.4773L165.427 39.2669L163.384 36.8038L165.092 34.1059L162.122 35.2867L160.082 32.8304L160.291 36.0161L157.32 37.1969Z" fill="#E53966"/>
<path d="M152.012 50.7868L155.111 51.5764L155.32 54.7621L157.023 52.0623L160.122 52.8519L158.082 50.3956L159.787 47.691L156.816 48.8718L154.776 46.4154L154.983 49.606L152.012 50.7868Z" fill="#F7E8A1"/>
</svg>
