<svg width="285" height="190" viewBox="0 0 285 190" fill="none" xmlns="http://www.w3.org/2000/svg">
<rect width="285" height="190" fill="#B2D3C0"/>
<path fill-rule="evenodd" clip-rule="evenodd" d="M169.81 118.051C171.447 118.051 166.168 118.051 169.81 118.051V118.051ZM95.565 107.599C86.8761 116.673 102.344 122.212 111.02 108.991C109.246 111.843 106.136 121.475 106.778 130.522C107.664 143.279 116.421 157.633 114.825 162.599C114.607 163.295 110.774 165.314 110.992 166.611C110.992 175.275 126.938 176.489 129.121 165.164C131.03 155.122 136.623 151.411 143.17 152.393C151.791 153.689 154.192 168.207 153.81 168.903C153.278 169.872 153.414 171.086 153.414 171.086C154.615 175.725 167.505 174.729 168.76 166.433C170.656 153.908 173.425 150.429 175.144 141.983C177.053 132.541 174.284 117.723 173.37 110.669C173.302 120.889 193.695 130.535 193.627 119.715C193.981 118.951 178.677 87.747 177.285 85.2364C168.16 68.7133 139.474 76.1221 127.156 75.1534C115.535 74.2392 106.573 86.8874 103.531 98.0757C102.235 102.797 98.4432 104.338 95.565 107.599Z" fill="#575756"/>
<path fill-rule="evenodd" clip-rule="evenodd" d="M126.502 142.733C103.367 135.311 113.12 73.5707 142.598 77.5821C182.973 81.4571 171.133 170.458 126.502 142.733Z" fill="#FEFAF3"/>
<path fill-rule="evenodd" clip-rule="evenodd" d="M137.523 136.566C137.987 136.634 138.519 134.533 136.991 135.038C136.418 135.229 136.787 136.007 137.114 136.293C137.278 136.443 137.278 136.539 137.523 136.566Z" fill="black"/>
<path fill-rule="evenodd" clip-rule="evenodd" d="M137.551 136.948V136.171C137.496 136.171 137.455 136.198 137.441 136.198C137.496 136.157 137.619 135.898 137.619 135.625C137.619 135.516 137.605 135.42 137.564 135.379C137.551 135.366 137.523 135.325 137.414 135.325V134.547C137.823 134.547 138.055 134.738 138.178 134.915C138.314 135.093 138.383 135.338 138.383 135.625C138.396 136.184 138.096 136.948 137.551 136.948Z" fill="black"/>
<path fill-rule="evenodd" clip-rule="evenodd" d="M161.421 32.7881C161.421 32.7881 153.155 25.8978 144.875 25.9387C135.423 25.966 125.683 32.9382 124.155 33.3475C125.369 12.3081 112.493 14.9551 103.899 22.6232C95.3195 30.2776 95.7696 42.9394 109.206 42.0525C107.541 59.6945 114.675 82.7669 140.579 84.1859C170.438 85.8095 177.517 61.8503 176.235 42.7757C185.251 45.1225 183.996 32.5425 182.346 28.4356C178.677 19.294 163.686 16.0876 161.421 32.7881Z" fill="#FEFAF3"/>
<path fill-rule="evenodd" clip-rule="evenodd" d="M150.059 69.9823C147.535 76.1086 144.93 70.9784 143.661 69.4639C143.661 69.4366 143.661 69.4093 143.675 69.3957L143.621 69.4093C143.293 69.0136 143.061 68.9181 142.952 69.3957C142.598 71.1285 141.479 75.058 138.805 73.1614C137.864 72.4929 137.482 71.4286 137.073 70.4053C137.005 70.2143 136.814 70.1188 136.623 70.1733C136.432 70.2416 136.337 70.4462 136.391 70.6236C138.655 76.3542 142.693 74.6623 143.525 70.4326C145.926 74.1438 148.627 75.3172 150.741 70.187C150.795 69.996 150.686 69.7913 150.509 69.7368C150.318 69.6958 150.113 69.7913 150.059 69.9823Z" fill="#575756"/>
<path fill-rule="evenodd" clip-rule="evenodd" d="M144.207 69.1089C151.682 67.4579 154.478 49.3521 137.346 56.5017C130.676 59.2851 138.669 70.3232 144.207 69.1089Z" fill="#575756"/>
<path fill-rule="evenodd" clip-rule="evenodd" d="M154.492 65.7384C154.888 64.6742 161.462 63.5144 161.681 64.8516C162.908 71.9875 153.169 69.1904 154.492 65.7384Z" fill="#F6B2B6"/>
<path fill-rule="evenodd" clip-rule="evenodd" d="M124.142 66.6803C124.551 65.6161 131.112 64.4563 131.344 65.7935C132.572 72.9294 122.832 70.1459 124.142 66.6803Z" fill="#F6B2B6"/>
<path fill-rule="evenodd" clip-rule="evenodd" d="M113.516 59.4081C115.93 58.2211 124.66 31.0281 135.3 46.8691C142.256 57.2387 119.627 72.5066 113.516 59.4081Z" fill="#575756"/>
<path fill-rule="evenodd" clip-rule="evenodd" d="M172.688 58.1249C170.274 56.9379 161.53 29.7449 150.904 45.5859C143.961 55.9418 166.577 71.2097 172.688 58.1249Z" fill="#575756"/>
<path fill-rule="evenodd" clip-rule="evenodd" d="M165.555 50.9619C163.959 54.141 161.79 56.0784 158.025 54.946C156.252 54.4139 155.515 53.7044 154.328 52.4355C154.274 52.3672 154.178 52.3536 154.11 52.4082C154.042 52.4628 154.028 52.5583 154.069 52.6265C154.547 53.145 154.956 53.5679 155.392 53.9227C154.833 54.523 154.288 55.1234 153.728 55.7101C153.646 55.7374 153.592 55.8192 153.619 55.9011C153.646 55.983 153.728 56.0376 153.81 56.0103C154.465 55.4372 155.051 54.7413 155.638 54.1137C156.197 54.5503 156.811 54.8778 157.684 55.1643C157.029 56.3786 157.357 55.751 156.661 57.1291C156.634 57.2109 156.688 57.3065 156.77 57.3201C156.852 57.3474 156.947 57.2928 156.961 57.2109C157.643 55.8874 157.316 56.5151 157.984 55.2598C158.639 55.4508 159.253 55.56 159.826 55.5736C159.88 56.4605 159.73 57.0472 159.771 57.9614C159.798 58.0432 159.88 58.0978 159.962 58.0705C160.044 58.0432 160.098 57.9614 160.071 57.8795C160.044 57.0063 160.18 56.4605 160.126 55.5873C160.808 55.5736 161.422 55.4508 161.994 55.2189C162.322 55.942 162.349 56.3241 162.786 57.1836L162.799 57.2246C162.827 57.3064 162.908 57.361 162.99 57.3337C163.072 57.3064 163.127 57.2246 163.099 57.1427C163.099 57.1427 162.485 55.5873 162.267 55.0824C162.949 54.755 163.549 54.2911 164.095 53.6907C164.995 55.0824 164.545 54.4548 165.5 55.7237C165.527 55.8056 165.609 55.8602 165.691 55.8329C165.773 55.8056 165.827 55.7237 165.8 55.6418C164.791 54.2501 165.295 54.9733 164.3 53.4452C164.572 53.1313 164.818 52.7766 165.064 52.4082C166.155 53.3496 165.623 52.8721 166.755 53.9227C166.823 53.9772 166.919 53.9772 166.973 53.9227C167.041 53.8544 167.028 53.759 166.973 53.7044C165.814 52.6402 166.387 53.145 165.241 52.1489C165.445 51.8078 165.65 51.4531 165.841 51.071C165.868 50.9892 165.841 50.8937 165.759 50.8664C165.691 50.8527 165.596 50.8937 165.555 50.9619Z" fill="#FFFCF2"/>
<path fill-rule="evenodd" clip-rule="evenodd" d="M159.935 58.4799C159.689 58.4799 159.471 58.3161 159.403 58.0706C159.375 57.5248 159.389 57.1291 159.416 56.7607C159.43 56.4878 159.457 56.2286 159.457 55.9421C159.048 55.9011 158.625 55.8329 158.189 55.7101L158.039 55.9966C157.834 56.3787 157.834 56.3787 157.63 56.7744L157.316 57.3883C157.289 57.5521 157.07 57.7158 156.825 57.7158L156.688 57.7022C156.552 57.6749 156.429 57.5794 156.361 57.4566C156.293 57.3338 156.265 57.1837 156.306 57.0472L156.675 56.2968C156.879 55.9011 156.879 55.9011 157.084 55.5054L157.138 55.3963C156.593 55.1916 156.129 54.9461 155.693 54.6459L155.515 54.8369C155.051 55.3417 154.588 55.8602 154.069 56.3104L153.865 56.406H153.783C153.537 56.406 153.319 56.2422 153.251 55.9966C153.21 55.8602 153.237 55.7101 153.305 55.5873C153.36 55.5054 153.428 55.4372 153.51 55.3963L154.86 53.95C154.519 53.6362 154.178 53.2678 153.81 52.8858C153.606 52.5992 153.66 52.2581 153.906 52.0808C154.138 51.917 154.492 51.9716 154.67 52.2035C155.802 53.4042 156.484 54.0728 158.161 54.5776C161.272 55.5054 163.44 54.373 165.241 50.7845C165.309 50.6072 165.514 50.4707 165.732 50.4707L165.95 50.5116C166.087 50.5662 166.182 50.6754 166.237 50.8118C166.291 50.9483 166.291 51.0984 166.237 51.2348C166.087 51.535 165.937 51.8079 165.787 52.0808L166.046 52.3127C166.4 52.6265 166.4 52.6265 166.741 52.9403L167.287 53.4452C167.505 53.6771 167.505 54.0046 167.301 54.2229C167.082 54.4275 166.741 54.4275 166.523 54.2229L166.018 53.759C165.677 53.4452 165.677 53.4451 165.35 53.1586L165.186 53.0222C165.064 53.1996 164.941 53.3633 164.818 53.5134L165.132 54.0046C165.405 54.4276 165.405 54.4275 165.705 54.8369L166.209 55.5873C166.237 55.7237 166.223 55.8738 166.155 55.9966C166.087 56.1194 165.964 56.2149 165.827 56.2422L165.691 56.2559C165.473 56.2559 165.282 56.1331 165.2 55.9421L164.832 55.4509C164.504 55.0279 164.504 55.0279 164.232 54.5913L164.068 54.332C163.672 54.7141 163.249 55.0279 162.799 55.2871C163.058 55.942 163.495 57.02 163.495 57.02C163.549 57.211 163.522 57.3611 163.454 57.4839C163.372 57.6067 163.263 57.7022 163.113 57.7294L162.977 57.7431C162.731 57.7431 162.513 57.5793 162.445 57.3338C162.199 56.8426 162.076 56.4878 161.954 56.1331C161.913 55.9967 161.858 55.8602 161.804 55.7101C161.408 55.8329 160.985 55.9148 160.549 55.9557C160.549 56.2695 160.535 56.5424 160.508 56.8153C160.48 57.1428 160.467 57.4702 160.48 57.8659C160.549 58.0706 160.371 58.3708 160.085 58.439L159.935 58.4799Z" fill="#FFFCF2"/>
<path fill-rule="evenodd" clip-rule="evenodd" d="M130.185 53.3767C128.152 56.2966 125.724 57.8929 122.164 56.2283C120.486 55.4506 119.859 54.632 118.863 53.213C118.822 53.1311 118.727 53.1039 118.645 53.1448C118.563 53.1857 118.536 53.2812 118.577 53.3631C118.986 53.9362 119.327 54.4137 119.695 54.8367C119.054 55.3415 118.427 55.86 117.785 56.3648C117.704 56.3784 117.635 56.4467 117.649 56.5422C117.663 56.624 117.731 56.6923 117.826 56.6786C118.549 56.2011 119.231 55.6007 119.913 55.055C120.404 55.5598 120.964 55.9828 121.796 56.3921C120.977 57.4973 121.387 56.9242 120.5 58.1931C120.473 58.275 120.5 58.3705 120.582 58.3978C120.664 58.4251 120.759 58.3978 120.786 58.3159C121.646 57.1016 121.237 57.6746 122.069 56.5285C122.696 56.815 123.283 57.0061 123.842 57.1152C123.76 57.9885 123.528 58.5615 123.446 59.4621C123.46 59.5439 123.528 59.6121 123.624 59.5985C123.705 59.5848 123.774 59.5166 123.76 59.4211C123.856 58.5479 124.074 58.0431 124.156 57.1562C124.824 57.238 125.465 57.2107 126.052 57.0607C126.27 57.8247 126.243 58.2068 126.556 59.1209V59.1619C126.57 59.2437 126.638 59.3119 126.734 59.2983C126.816 59.2846 126.884 59.2165 126.87 59.1209C126.87 59.1209 126.474 57.4973 126.352 56.9651C127.075 56.7468 127.729 56.3648 128.357 55.86C129.039 57.3745 128.698 56.6786 129.448 58.0703C129.462 58.1522 129.53 58.2204 129.625 58.2068C129.707 58.1931 129.775 58.1249 129.762 58.0294C128.971 56.5012 129.353 57.2926 128.602 55.6417C128.916 55.3688 129.216 55.055 129.503 54.7275C130.458 55.8191 129.994 55.2733 130.949 56.4603C131.003 56.5285 131.099 56.5422 131.167 56.4876C131.235 56.433 131.249 56.3375 131.194 56.2693C130.212 55.0413 130.689 55.628 129.694 54.4819C129.953 54.1681 130.198 53.8406 130.43 53.4995C130.471 53.4313 130.458 53.3222 130.376 53.2812C130.321 53.2676 130.226 53.2948 130.185 53.3767Z" fill="#FFFCF2"/>
<path fill-rule="evenodd" clip-rule="evenodd" d="M123.61 59.9945C123.337 59.9945 123.092 59.7899 123.064 59.5034C123.105 58.9576 123.187 58.5755 123.269 58.2071C123.323 57.9479 123.378 57.6887 123.419 57.4158C123.023 57.3203 122.614 57.1838 122.191 57.0064L122 57.252C121.741 57.6068 121.741 57.6068 121.482 57.9616L121.073 58.5346C121.032 58.6574 120.841 58.7938 120.609 58.7938L120.404 58.7529C120.268 58.6983 120.159 58.5892 120.104 58.4527C120.05 58.3163 120.05 58.1662 120.104 58.0298L120.595 57.3203C120.841 56.9655 120.841 56.9655 121.114 56.5971L121.182 56.5153C120.677 56.2287 120.241 55.9285 119.859 55.5602L119.668 55.7239C119.136 56.1605 118.59 56.6107 118.004 56.9928L117.84 57.0474C117.526 57.061 117.267 56.8427 117.24 56.5698C117.212 56.3106 117.363 56.0923 117.581 55.9968L119.122 54.7551C118.836 54.3868 118.549 53.9911 118.236 53.5544C118.072 53.2543 118.167 52.9268 118.44 52.7767L118.522 52.7358L118.686 52.7222C118.89 52.7222 119.068 52.8313 119.163 53.0087C120.104 54.3595 120.691 55.1235 122.287 55.8603C125.247 57.2384 127.525 56.4334 129.83 53.1315C129.912 52.995 130.089 52.8859 130.28 52.8859H130.389L130.567 52.9678C130.812 53.1178 130.894 53.4589 130.744 53.7182C130.553 53.9911 130.362 54.2503 130.171 54.4959L130.403 54.7688C130.703 55.1236 130.703 55.1235 131.003 55.4783L131.467 56.0514C131.658 56.297 131.603 56.638 131.371 56.8291C131.126 57.0064 130.771 56.9519 130.607 56.7199L130.157 56.1605C129.885 55.8194 129.885 55.8194 129.584 55.4783L129.462 55.3418C129.325 55.4919 129.175 55.642 129.025 55.7785L129.271 56.3242C129.475 56.7745 129.475 56.7745 129.707 57.2248L130.103 58.0298C130.116 58.1798 130.075 58.3163 129.98 58.4391C129.885 58.5483 129.762 58.6165 129.612 58.6301C129.325 58.6301 129.107 58.4664 129.039 58.2481L128.752 57.716C128.493 57.2384 128.493 57.2384 128.289 56.7881L128.166 56.5016C127.716 56.8291 127.252 57.0746 126.774 57.252C126.925 57.866 127.225 59.0804 127.225 59.1623C127.238 59.2714 127.197 59.4078 127.102 59.517C127.006 59.6261 126.884 59.6943 126.734 59.7216C126.734 59.7216 126.734 59.7216 126.72 59.7216C126.393 59.7216 126.161 59.517 126.133 59.2441C125.956 58.7256 125.888 58.3572 125.82 57.9888C125.792 57.8524 125.765 57.7023 125.724 57.5522C125.301 57.6204 124.892 57.6477 124.442 57.6204C124.401 57.9343 124.333 58.1935 124.278 58.4664C124.21 58.7802 124.142 59.1077 124.087 59.5034C124.115 59.7217 123.896 59.9945 123.61 60.0218V59.9945Z" fill="#FFFCF2"/>
</svg>
