<svg width="285" height="190" viewBox="0 0 285 190" fill="none" xmlns="http://www.w3.org/2000/svg">
<rect width="285" height="190" fill="#FBEAD5"/>
<path d="M42.5839 111.73C43.0622 117.218 44.581 122.61 47.3632 127.447C48.6346 129.66 50.1896 131.735 52.0607 133.567" stroke="#96886B" stroke-width="1.8951" stroke-miterlimit="10" stroke-linecap="round"/>
<path d="M41.3689 115.239C42.0105 115.534 42.6421 115.85 43.2594 116.183C43.7038 115.452 44.2466 114.765 44.8756 114.144" stroke="#96886B" stroke-width="1.8951" stroke-miterlimit="10" stroke-linecap="round"/>
<path d="M41.5407 118.643C42.6331 118.816 43.6165 119.382 44.2235 120.191C44.4249 119.291 44.9164 118.43 45.6226 117.743" stroke="#96886B" stroke-width="1.8951" stroke-miterlimit="10" stroke-linecap="round"/>
<path d="M43.4877 124.579C44.4357 124.407 45.4387 124.619 46.1659 125.141C46.3816 124.223 46.8828 123.347 47.5958 122.638" stroke="#96886B" stroke-width="1.8951" stroke-miterlimit="10" stroke-linecap="round"/>
<path d="M42.2106 109.613C42.0431 109.005 41.8779 108.395 41.7114 107.789" stroke="#BA7D4A" stroke-width="0.9476" stroke-miterlimit="10" stroke-linecap="round"/>
<path d="M42.8534 109.437C42.9531 108.834 43.0495 108.23 43.1492 107.628" stroke="#BA7D4A" stroke-width="0.9476" stroke-miterlimit="10" stroke-linecap="round"/>
<path d="M43.643 109.427C43.8834 108.916 44.1271 108.406 44.3676 107.895" stroke="#BA7D4A" stroke-width="0.9476" stroke-miterlimit="10" stroke-linecap="round"/>
<path d="M45.9017 112.197C46.3829 111.618 46.8664 111.039 47.3489 110.458" stroke="#BA7D4A" stroke-width="0.9476" stroke-miterlimit="10" stroke-linecap="round"/>
<path d="M46.6302 112.604C47.0897 112.163 47.6221 111.784 48.204 111.486" stroke="#BA7D4A" stroke-width="0.9476" stroke-miterlimit="10" stroke-linecap="round"/>
<path d="M46.8392 113.17C47.33 113.051 47.8263 112.957 48.3267 112.892" stroke="#BA7D4A" stroke-width="0.9476" stroke-miterlimit="10" stroke-linecap="round"/>
<path d="M47.471 116.167C47.9671 115.71 48.5768 115.351 49.2376 115.128" stroke="#BA7D4A" stroke-width="0.9476" stroke-miterlimit="10" stroke-linecap="round"/>
<path d="M47.7 116.841C47.9206 116.603 48.2474 116.452 48.5821 116.388C48.9167 116.324 49.2608 116.337 49.5932 116.38" stroke="#BA7D4A" stroke-width="0.9476" stroke-miterlimit="10" stroke-linecap="round"/>
<path d="M47.9598 117.181C48.5792 117.194 49.1878 117.307 49.7523 117.514" stroke="#BA7D4A" stroke-width="0.9476" stroke-miterlimit="10" stroke-linecap="round"/>
<path d="M49.1525 121.012C49.2476 120.368 49.6479 119.754 50.2343 119.349" stroke="#BA7D4A" stroke-width="0.9476" stroke-miterlimit="10" stroke-linecap="round"/>
<path d="M49.6244 121.106C49.9383 120.538 50.5336 120.09 51.2131 119.917" stroke="#BA7D4A" stroke-width="0.9476" stroke-miterlimit="10" stroke-linecap="round"/>
<path d="M49.8782 121.669C50.4268 121.302 51.0773 121.061 51.7443 120.977" stroke="#BA7D4A" stroke-width="0.9476" stroke-miterlimit="10" stroke-linecap="round"/>
<path d="M41.2831 124.357C40.6261 124.164 39.9061 124.127 39.2082 124.246" stroke="#BA7D4A" stroke-width="0.9476" stroke-miterlimit="10" stroke-linecap="round"/>
<path d="M41.2782 125.289C40.5658 125.344 39.8634 125.591 39.2842 125.988" stroke="#BA7D4A" stroke-width="0.9476" stroke-miterlimit="10" stroke-linecap="round"/>
<path d="M41.7799 126.014C41.3113 126.221 40.9541 126.634 40.8488 127.086" stroke="#BA7D4A" stroke-width="0.9476" stroke-miterlimit="10" stroke-linecap="round"/>
<path d="M40.0728 119.879C39.7322 120.036 39.4757 120.317 39.3032 120.621C39.1306 120.925 39.035 121.256 38.9407 121.584" stroke="#BA7D4A" stroke-width="0.9476" stroke-miterlimit="10" stroke-linecap="round"/>
<path d="M39.5561 119.463C38.8076 119.629 38.2846 120.237 37.8276 120.801" stroke="#BA7D4A" stroke-width="0.9476" stroke-miterlimit="10" stroke-linecap="round"/>
<path d="M37.4655 119.135C38.0309 118.875 38.6807 118.776 39.2897 118.86" stroke="#BA7D4A" stroke-width="0.9476" stroke-miterlimit="10" stroke-linecap="round"/>
<path d="M37.0262 113.262C37.6667 113.579 38.3071 113.897 38.9499 114.214" stroke="#BA7D4A" stroke-width="0.9476" stroke-miterlimit="10" stroke-linecap="round"/>
<path d="M37.7556 112.133C38.3309 112.627 38.9226 113.108 39.5285 113.571" stroke="#BA7D4A" stroke-width="0.9476" stroke-miterlimit="10" stroke-linecap="round"/>
<path d="M39.9219 113.217C39.6089 112.543 39.3358 111.855 39.0981 111.155" stroke="#BA7D4A" stroke-width="0.9476" stroke-miterlimit="10" stroke-linecap="round"/>
<path d="M40.3376 109.539C41.0653 109.063 41.9701 108.818 42.8453 108.862C43.7206 108.905 44.5584 109.238 45.1626 109.778C44.5806 109.907 44.2712 110.473 44.034 110.966C43.7944 111.461 43.444 112.02 42.8535 112.098C42.3925 112.16 41.9695 111.878 41.7322 111.535C41.495 111.191 41.3931 110.783 41.219 110.409C41.0471 110.034 40.7719 109.666 40.3376 109.539Z" fill="#EDB740"/>
<path d="M44.8466 114.378C44.5379 114.245 44.3966 113.928 44.3194 113.626C44.2722 113.437 44.24 113.238 44.2837 113.045C44.3585 112.704 44.6416 112.428 44.8865 112.152C45.224 111.775 45.5235 111.312 45.4299 110.854C46.7879 111.447 47.7085 112.725 47.7679 114.098C47.6364 113.959 47.4785 113.81 47.2714 113.81C47.1706 113.811 47.0691 113.847 46.9732 113.883C46.6547 114.003 46.3362 114.123 46.0209 114.244C45.6406 114.391 45.2034 114.533 44.8466 114.378Z" fill="#EDB740"/>
<path d="M40.637 115.711C40.298 115.752 39.9525 115.723 39.6349 115.633C39.2025 115.511 38.8673 115.155 38.4068 115.1C38.2511 115.081 37.6017 115.192 37.5578 115.348C37.8655 114.234 38.6851 113.219 39.7797 112.597C40.1177 112.403 40.5144 112.244 40.8998 112.302C40.7402 112.486 40.5744 112.725 40.6837 112.925C40.7236 112.998 40.7925 113.049 40.8602 113.104C41.3713 113.519 41.7534 114.114 41.7668 114.757C41.7753 115.132 41.6007 115.432 41.1888 115.582C41.0097 115.646 40.8239 115.689 40.637 115.711Z" fill="#EDB740"/>
<path d="M45.7535 116.156C45.9189 115.966 46.1114 115.795 46.2508 115.589C46.3913 115.386 46.4782 115.136 46.4045 114.917C47.0266 114.943 47.5887 115.262 47.9474 115.702C48.2607 116.089 48.3853 116.512 48.4413 116.984C48.4704 117.219 48.5037 117.439 48.4643 117.68C48.4413 117.821 48.2306 118.17 48.2583 118.283C48.2181 118.11 48.0734 117.965 47.8882 117.91C47.2184 117.706 46.5638 118.518 45.8014 118.177C45.4219 118.007 45.2256 117.608 45.2457 117.223C45.267 116.834 45.4776 116.467 45.7535 116.156Z" fill="#EDB740"/>
<path d="M40.9775 117.809C40.6984 117.776 40.4118 117.863 40.1291 117.896C39.611 117.959 39.0811 117.838 38.6743 117.568C38.4526 118.279 38.529 119.047 38.8864 119.685C39.2438 120.322 39.8779 120.825 40.6343 121.065C40.5199 120.791 40.7466 120.479 41.0128 120.289C41.279 120.099 41.6027 119.966 41.8144 119.727C42.1806 119.316 42.0958 118.709 41.7803 118.299C41.5939 118.053 41.3135 117.848 40.9775 117.809Z" fill="#EDB740"/>
<path d="M48.7683 122.994C47.7947 123.249 46.8937 122.691 47.16 121.639C47.2166 121.413 47.334 121.201 47.428 120.985C47.6074 120.571 47.6967 120.082 47.438 119.721C48.2397 119.671 49.0405 119.919 49.6183 120.386C50.2304 120.883 50.6556 121.701 50.5 122.475C50.3367 122.344 50.0762 122.36 49.867 122.443C49.6579 122.526 49.4816 122.666 49.29 122.777C49.118 122.876 48.942 122.948 48.7683 122.994Z" fill="#EDB740"/>
<path d="M43.0015 123.665C42.5946 123.569 42.1347 123.653 41.7494 123.507C41.4816 123.406 41.2731 123.197 41.1933 122.946C41.1893 122.937 40.8321 123.412 40.8046 123.467C40.6968 123.689 40.6531 123.882 40.6475 124.119C40.6374 124.677 40.7423 125.242 41.0153 125.737C41.3562 126.349 41.9794 126.846 42.7404 126.977C42.6628 126.812 42.5851 126.628 42.6535 126.454C42.7261 126.264 42.9446 126.152 43.1349 126.044C43.5478 125.81 43.9283 125.488 44.0841 125.076C44.3459 124.37 43.6993 123.826 43.0015 123.665Z" fill="#EDB740"/>
<path d="M41.4301 114.473C41.3345 114.31 41.3387 114.101 41.4426 113.933C41.4598 113.904 41.4803 113.876 41.5123 113.862C41.5892 113.825 41.6726 113.879 41.7245 113.935C41.9797 114.214 41.9811 114.617 41.9228 114.983C41.9021 115.123 41.8712 115.265 41.7854 115.387C41.6099 115.641 41.2514 115.732 40.9275 115.783C40.6882 115.822 40.3879 115.828 40.2745 115.643C40.4743 115.545 40.6855 115.466 40.9001 115.408C40.7756 115.304 40.6877 115.165 40.6464 115.014C40.6265 114.944 40.6406 114.845 40.7219 114.831C40.7501 114.827 40.7788 114.836 40.8051 114.847C40.9117 114.885 41.0183 114.923 41.1248 114.961C41.0412 114.825 41.0024 114.668 41.0129 114.51C41.0174 114.446 41.0405 114.368 41.1099 114.345C41.2297 114.301 41.3115 114.451 41.4301 114.473Z" fill="#96886B"/>
<path d="M42.1498 111.167C42.181 111.126 42.2221 111.089 42.2712 111.07C42.3936 111.02 42.5368 111.085 42.6057 111.181C42.6734 111.279 42.685 111.4 42.6923 111.517C42.8028 111.351 42.9831 111.221 43.1885 111.166C43.2157 111.16 43.2452 111.153 43.2679 111.167C43.2897 111.18 43.2938 111.208 43.2936 111.232C43.2971 111.359 43.2602 111.487 43.1861 111.598C43.2788 111.517 43.3783 111.433 43.5029 111.406C43.6264 111.376 43.7803 111.429 43.8014 111.54C43.8164 111.618 43.7608 111.697 43.7058 111.764C43.5756 111.922 43.4236 112.067 43.2568 112.197C43.1063 112.315 42.9304 112.424 42.7336 112.442C42.6077 112.454 42.4848 112.428 42.3693 112.388C41.9141 112.233 41.5806 111.844 41.5206 111.406C41.7357 111.468 41.9378 111.562 42.1185 111.683C42.0157 111.528 42.0277 111.319 42.1498 111.167Z" fill="#96886B"/>
<path d="M44.6229 113.409C44.632 113.299 44.7773 113.238 44.8973 113.213C45.0094 113.189 45.1531 113.181 45.2078 113.268C45.2533 113.341 45.2069 113.435 45.1529 113.505C45.0966 113.576 45.0259 113.645 45.0192 113.73C45.2138 113.669 45.4314 113.681 45.6098 113.758C45.6437 113.774 45.6796 113.793 45.6992 113.826C45.7354 113.884 45.6988 113.962 45.6384 114.005C45.578 114.048 45.5019 114.067 45.4295 114.083C45.5497 114.095 45.6742 114.112 45.7705 114.176C45.8667 114.241 45.9171 114.369 45.8485 114.461C45.7991 114.529 45.7058 114.559 45.6183 114.584C45.4024 114.645 45.181 114.706 44.9581 114.708C44.7353 114.71 44.5025 114.645 44.3673 114.492C44.2733 114.383 44.236 114.241 44.2052 114.102C44.1598 113.898 44.1214 113.691 44.1446 113.482C44.1678 113.272 44.2573 113.059 44.4306 112.912C44.4469 112.9 44.4678 112.885 44.4878 112.887C44.5145 112.892 44.5242 112.921 44.5296 112.945C44.5618 113.1 44.5917 113.256 44.6229 113.409Z" fill="#96886B"/>
<path d="M45.1265 116.825C45.2435 116.943 45.3369 117.082 45.3996 117.232C45.3837 117.108 45.3917 116.976 45.4493 116.858C45.507 116.74 45.6208 116.639 45.7601 116.608C45.8099 116.597 45.867 116.597 45.9059 116.623C45.9719 116.668 45.9557 116.763 45.9339 116.838C45.8828 117.002 45.8229 117.164 45.7508 117.324C45.8506 117.278 45.9549 117.229 46.0661 117.222C46.1773 117.214 46.2961 117.255 46.3374 117.343C46.3956 117.47 46.2787 117.609 46.1702 117.716C46.2937 117.643 46.4495 117.619 46.5856 117.649C46.6132 117.656 46.6418 117.666 46.6587 117.686C46.7053 117.736 46.6598 117.813 46.609 117.866C46.5265 117.945 46.4245 118.011 46.3136 118.057C46.4394 118.027 46.5706 118.021 46.6984 118.039C46.7539 118.048 46.8158 118.064 46.8403 118.108C46.8948 118.202 46.7599 118.299 46.6479 118.342C46.4319 118.428 46.2037 118.511 45.9713 118.504C45.5735 118.492 45.248 118.209 45.122 117.876C44.9981 117.549 45.0399 117.176 45.1265 116.825Z" fill="#96886B"/>
<path d="M46.9214 122.223C46.9178 122.078 46.9226 121.92 47.0262 121.801C47.1483 121.95 47.2485 122.111 47.3245 122.285C47.3792 122.135 47.4959 122.003 47.6446 121.919C47.7231 121.873 47.8506 121.853 47.8803 121.928C47.8923 121.955 47.884 121.986 47.878 122.016C47.8402 122.161 47.7936 122.304 47.7381 122.445C47.9261 122.401 48.1227 122.389 48.3115 122.416C48.3404 122.419 48.3704 122.425 48.3918 122.443C48.4466 122.488 48.413 122.573 48.3579 122.622C48.3027 122.67 48.2304 122.705 48.1905 122.763C48.3956 122.714 48.6167 122.746 48.7847 122.85C48.8889 122.914 48.9712 123.052 48.8772 123.137C48.8397 123.17 48.7876 123.181 48.7368 123.19C48.4484 123.248 48.1544 123.305 47.8631 123.288C47.5719 123.27 47.2772 123.17 47.1111 122.964C46.9439 122.756 46.9257 122.483 46.9214 122.223Z" fill="#96886B"/>
<path d="M41.462 119.594C41.3708 119.647 41.2743 119.695 41.1751 119.73C41.0667 119.769 40.9258 119.79 40.8616 119.712C40.809 119.647 40.8362 119.554 40.8761 119.476C40.9506 119.335 41.0515 119.203 41.1748 119.092C40.9692 119.065 40.7769 118.974 40.6385 118.838C40.6087 118.807 40.577 118.772 40.5826 118.729C40.5885 118.68 40.6418 118.646 40.6922 118.624C40.8414 118.553 41.0078 118.516 41.1723 118.518C41.004 118.439 40.8625 118.32 40.7624 118.179C40.7094 118.101 40.6648 118.011 40.6776 117.916C40.6914 117.822 40.7758 117.728 40.8801 117.724C41.0058 117.718 41.0961 117.831 41.2206 117.848C41.2326 117.769 41.1126 117.688 41.1792 117.634C41.2072 117.611 41.2483 117.617 41.2815 117.625C41.582 117.701 41.7893 117.932 41.9608 118.163C42.149 118.419 42.3179 118.7 42.3239 119.013C42.3281 119.341 42.1337 119.677 41.8259 119.872C41.7402 119.925 41.6316 119.97 41.5372 119.935C41.4088 119.885 41.4064 119.717 41.462 119.594Z" fill="#96886B"/>
<path d="M43.7539 125.763C43.8199 125.721 43.86 125.638 43.9411 125.63C43.9413 125.711 44.0715 125.747 44.1532 125.703C44.235 125.66 44.2741 125.574 44.3018 125.494C44.3843 125.264 44.4313 125.028 44.4448 124.791C44.4551 124.614 44.4411 124.432 44.3574 124.278C44.2553 124.088 44.0572 123.959 43.8583 123.847C43.6659 123.737 43.465 123.639 43.258 123.552C43.235 123.543 43.2109 123.532 43.185 123.535C43.1106 123.546 43.1064 123.649 43.153 123.699C43.1996 123.75 43.2704 123.787 43.286 123.854C43.141 123.822 42.9797 123.846 42.8493 123.922C42.7777 123.964 42.7092 124.032 42.7143 124.106C42.719 124.167 42.7702 124.215 42.8219 124.253C42.974 124.364 43.1582 124.436 43.355 124.462C43.1946 124.532 43.0506 124.633 42.9323 124.756C42.886 124.806 42.8395 124.861 42.835 124.926C42.8268 125.039 42.9521 125.126 43.0772 125.131C43.2023 125.137 43.3257 125.088 43.4435 125.04C43.2849 125.226 43.2549 125.501 43.4058 125.678C43.4858 125.774 43.6415 125.837 43.7539 125.763Z" fill="#96886B"/>
<path opacity="0.44" d="M88.9996 157.786C96.1495 160.142 103.579 161.628 111.084 162.212C112.761 162.339 114.45 162.428 116.069 162.86C117.415 163.215 118.691 163.806 119.98 164.339C131.562 169.165 144.541 169.819 156.695 166.777C160.301 165.876 163.946 164.574 166.619 161.996C167.997 160.663 169.128 158.707 168.512 156.891C167.61 154.211 163.724 153.913 161.432 153.265C157.431 152.128 153.418 151.011 149.392 149.963C141.449 147.899 133.467 145.995 125.492 144.064C120.45 142.845 115.396 141.62 110.252 140.978C104.988 140.324 99.6482 140.28 94.3779 140.851C89.9394 141.334 86.1676 142.089 83.1642 145.671C81.7418 147.36 80.8656 149.665 81.4053 151.805C82.2181 155.056 85.7549 156.719 88.9361 157.773C88.9615 157.773 88.9806 157.78 88.9996 157.786Z" fill="#D3CDA1"/>
<path d="M97.7814 48.6142C97.6862 44.7345 98.01 40.8039 99.28 37.1401C100.112 34.7399 101.56 32.2952 103.953 31.4571C105.541 30.9046 107.331 31.165 108.862 31.8635C110.392 32.5619 111.694 33.6731 112.9 34.8479C118.323 40.1372 122.101 47.0839 123.593 54.5068C125.276 62.9075 124.19 72.0893 128.311 79.5948C126.216 81.8553 123.923 83.938 121.472 85.8176C121.034 86.1478 120.583 86.4843 120.05 86.6113C119.485 86.7446 118.894 86.6367 118.329 86.497C114.17 85.462 110.532 82.8014 107.789 79.4995C105.052 76.1977 103.153 72.2798 101.661 68.2604C99.3371 61.9741 97.9465 55.3196 97.7814 48.6142Z" fill="#B7A3A3"/>
<path opacity="0.49" d="M104.874 53.6877C104.671 50.8874 104.671 48.0491 105.242 45.2996C105.579 43.6931 106.208 41.9914 107.617 41.1532C108.83 40.4357 110.398 40.5182 111.675 41.1151C112.951 41.712 113.967 42.7534 114.818 43.8773C118.406 48.646 119.244 54.8687 119.961 60.7931C120.558 65.7078 121.155 70.6226 121.752 75.5373C122.069 78.1343 122.565 81.0553 124.724 82.5411C123.733 84.0396 121.612 84.4397 119.904 83.9C118.196 83.3602 116.831 82.0776 115.624 80.7505C108.995 73.4101 105.592 63.5489 104.874 53.6877Z" fill="#A55520"/>
<path d="M139.284 56.2847C139.226 47.9157 139.938 39.3372 143.411 31.7238C144.611 29.1013 146.135 26.6122 148.129 24.5231C149.888 22.6817 152.161 21.1133 154.707 21.0053C157.52 20.891 160.181 22.6309 161.736 24.9739C163.292 27.317 163.876 30.1808 164.029 32.9874C164.359 39.0387 162.841 45.0583 160.682 50.7223C158.53 56.3863 155.736 61.7836 153.374 67.3651C152.288 69.9304 151.31 72.9466 152.625 75.3976C150.256 75.1944 147.869 75.2388 145.513 75.5373C145.113 75.5881 144.681 75.6389 144.325 75.442C144.097 75.315 143.932 75.1055 143.779 74.896C139.938 69.6637 139.328 62.7742 139.284 56.2847Z" fill="#B7A3A3"/>
<path opacity="0.49" d="M148.91 30.9681C149.367 30.3268 149.882 29.7426 150.485 29.241C154.18 26.2122 158.174 29.5839 158.53 33.7049C159.013 39.388 157.031 44.7154 154.834 49.8397C152.479 55.3386 150.282 61.0026 149.583 66.9905C149.266 69.7209 149.355 72.7624 151.152 74.8452C150.313 73.8673 147.875 75.5055 146.891 73.9752C145.983 72.5656 145.481 70.9337 145.068 69.3081C142.103 57.669 141.944 43.7058 147.748 32.8858C148.097 32.2254 148.478 31.5714 148.91 30.9681Z" fill="#A55520"/>
<path d="M158.835 144.058C161.641 140.426 163.432 136.12 163.527 131.403C163.749 131.955 164.575 132.012 165.045 131.65C166.296 130.691 166.93 126.12 165.743 124.996C166.283 125.504 166.937 125.891 167.648 126.12C168.156 122.316 166.651 118.462 164.365 115.376C161.705 111.794 157.723 107.737 153.704 105.711C149.373 103.521 144.319 103.083 139.544 103.203C132.908 103.368 126.133 104.435 119.713 102.733C117.364 102.111 115.11 101.127 112.716 100.663C109.376 100.016 105.903 100.46 102.741 101.654C100.721 102.416 98.829 103.514 97.0892 104.784C92.4158 108.194 88.7773 113.312 87.9646 119.128C87.4947 122.456 87.6661 125.815 88.3963 129.098C89.0694 132.126 90.4918 134.952 92.384 137.403C94.2 139.753 96.7209 141.581 98.2131 144.153C96.0034 145.385 94.5175 147.893 94.6636 150.42C94.816 152.947 96.6892 155.322 99.1529 155.906C99.5847 156.008 100.048 156.059 100.455 155.9C100.867 155.741 101.204 155.322 101.147 154.884C101.617 155.271 102.112 155.678 102.715 155.773C103.318 155.868 104.03 155.525 104.106 154.922C104.137 154.656 104.049 154.395 103.991 154.135C103.725 152.954 104.157 151.646 105.077 150.858C106.246 149.855 108.227 149.48 108.506 147.963C108.392 148.553 122.463 150.255 123.701 150.357C124.127 150.388 128.336 150.852 128.368 151.271C128.711 156.059 129.499 161.221 134.077 163.825C135.232 164.485 136.915 164.815 137.734 163.761C139.144 164.275 140.82 163.952 141.938 162.955C142.128 162.783 142.306 162.586 142.363 162.339C142.484 161.818 142.033 161.361 141.677 160.967C140.63 159.831 140.026 158.243 140.293 156.719C140.56 155.208 141.195 153.951 141.093 152.351C143.512 152.052 145.614 151.15 147.894 150.382C147.138 150.636 147.176 153.786 147.221 154.421C147.316 155.76 147.373 158.592 148.332 159.564C148.821 160.059 149.538 160.224 150.224 160.345C152.015 160.662 155.348 161.253 156.866 159.9C157.495 159.335 157.666 158.186 156.974 157.697C157.653 158.281 158.873 158.002 159.228 157.176C160.009 155.341 157.285 155.151 156.447 154.294C155.825 153.659 155.768 152.681 155.755 151.792C155.736 149.944 155.539 148.268 156.625 146.693C156.853 146.363 157.126 146.064 157.393 145.772C157.888 145.232 158.377 144.655 158.835 144.058Z" fill="#B7A3A3"/>
<path opacity="0.31" d="M157.533 143.715C154.58 145.931 151.602 148.166 148.23 149.677C147.868 150.636 147.373 151.138 147.265 152.211C147.189 152.941 147.17 153.697 147.221 154.427C147.316 155.767 147.373 158.599 148.332 159.57C148.821 160.066 149.538 160.231 150.224 160.351C152.015 160.669 155.348 161.259 156.866 159.907C157.495 159.342 157.666 158.192 156.974 157.703C157.653 158.288 158.873 158.008 159.228 157.183C159.647 156.192 158.942 155.678 158.231 155.132C158.549 155.589 158.276 156.268 157.793 156.541C157.311 156.814 156.707 156.77 156.168 156.637C155.628 156.503 155.101 156.294 154.542 156.262C154.713 156.878 154.796 157.519 154.79 158.154C153.666 158.357 152.548 157.488 152.142 156.421C151.735 155.354 151.888 154.154 152.18 153.043C153.101 149.563 155.298 146.56 157.533 143.715Z" fill="#B7A3A3"/>
<path opacity="0.31" d="M127.886 143.785C127.428 144.051 127.174 144.553 127.149 145.074C127.003 144.121 127.346 142.781 126.33 142.191C125.206 141.537 122.958 142.553 121.631 142.432C120.044 142.293 118.551 141.632 117.104 140.984C113.827 139.524 111.135 137.816 108.443 135.498C109.065 137.543 109.751 139.537 109.878 141.702C110.005 143.855 109.605 146.09 108.43 147.899C109.376 148.382 110.456 148.503 111.497 148.68C115.51 149.36 119.593 149.982 123.657 150.306C124.082 150.338 128.292 150.801 128.324 151.22C128.667 156.008 129.454 161.17 134.032 163.774C135.188 164.434 136.871 164.764 137.69 163.71C139.099 164.225 140.776 163.901 141.893 162.904C142.084 162.733 142.262 162.536 142.319 162.288C142.439 161.767 141.989 161.31 141.633 160.916C141.423 160.688 141.227 160.389 141.004 160.142C140.89 160.015 140.769 159.907 140.636 159.824C141.214 160.18 140.947 161.17 140.331 161.456C139.315 161.926 135.201 160.04 135.944 158.631C135.499 159.469 135.296 160.434 135.366 161.386C133.924 160.726 132.832 159.45 132.102 158.04C130.292 154.541 130.14 150.401 130.267 146.547C130.299 145.563 130.26 144.394 129.448 143.836C128.997 143.531 128.362 143.512 127.886 143.785Z" fill="#B7A3A3"/>
<path opacity="0.31" d="M101.534 143.194C101.464 143.074 101.388 142.959 101.305 142.851C99.3751 140.178 96.5812 138.356 94.9049 135.486C94.3016 134.457 93.7492 133.397 93.2539 132.317C91.603 128.729 90.5426 124.818 90.5426 120.843C90.5426 116.982 91.6665 112.849 93.3555 109.388C93.6984 108.677 94.0794 107.985 94.4858 107.312C92.6189 108.677 91.5331 110.677 90.3076 112.557C89.025 114.525 88.3011 116.817 87.9773 119.135C87.5074 122.462 87.6788 125.821 88.409 129.104C89.0821 132.133 90.5045 134.959 92.3967 137.41C94.2127 139.759 96.7336 141.588 98.2258 144.159C96.0161 145.391 94.5302 147.899 94.6763 150.427C94.8287 152.954 96.7019 155.329 99.1656 155.913C99.5974 156.015 100.061 156.065 100.467 155.907C100.88 155.748 101.217 155.329 101.159 154.891C101.629 155.278 102.125 155.684 102.728 155.78C103.198 155.78 103.903 155.691 104.049 155.145C104.099 154.948 104.08 154.745 104.055 154.548C104.03 154.345 103.991 154.141 103.947 153.938C103.35 155.507 101.667 153.875 101.242 153.075C101.147 153.5 101.051 153.938 100.817 154.306C100.582 154.675 100.188 154.973 99.7498 154.96C99.1656 154.941 98.7338 154.408 98.4988 153.875C97.6289 151.887 98.3719 148.96 100.188 147.753C100.785 147.36 101.439 146.998 101.82 146.395C102.41 145.423 102.125 144.179 101.534 143.194Z" fill="#B7A3A3"/>
<path opacity="0.49" d="M158.873 144.09C161.876 140.978 163.444 135.593 163.533 131.403C163.756 131.955 164.581 132.012 165.051 131.65C166.302 130.691 166.937 126.12 165.749 124.996C166.289 125.504 166.943 125.891 167.654 126.12C168.162 122.316 166.657 118.462 164.372 115.376C161.711 111.795 157.73 107.737 153.71 105.711C151.1 104.391 148.224 103.711 145.329 103.4C142.916 103.14 139.899 102.638 137.645 103.565C132.731 105.591 128.394 109.439 125.492 113.852C124.171 115.858 123.085 118.132 123.092 120.532C123.092 120.862 123.117 121.211 123.282 121.497C123.657 122.132 124.552 122.215 125.27 122.043C125.987 121.872 126.692 121.529 127.422 121.599C124.882 124.926 123.6 129.199 123.892 133.377C123.949 134.203 124.254 135.225 125.073 135.333C125.568 135.397 126.019 135.079 126.419 134.781C127.359 134.07 128.292 133.358 129.232 132.647C129.092 134.451 129.53 136.292 130.47 137.835C130.819 138.406 131.264 138.965 131.892 139.207C133.378 139.784 134.502 138.673 135.518 137.867C136.813 136.838 138.16 136.051 139.792 135.682C139.017 136.8 138.458 138.07 138.166 139.397C138.02 140.051 137.988 140.845 138.509 141.27C139.049 141.708 139.938 141.512 140.426 142.007C140.63 142.216 140.719 142.502 140.801 142.788C141.665 145.899 141.798 149.214 141.188 152.382C141.182 152.42 146.427 150.916 146.948 150.623C148.592 149.709 150.345 149.176 152.053 148.318C154.225 147.233 157.012 145.963 158.746 144.236C158.777 144.185 158.828 144.14 158.873 144.09Z" fill="#F4EAE9"/>
<path d="M92.6126 109.559C92.7904 109.223 92.9428 108.88 93.0508 108.537C93.508 107.127 93.4699 105.781 94.3525 104.467C95.0764 103.387 96.1622 102.289 95.8891 101.013C94.9684 101.076 94.0985 101.686 93.7239 102.53C94.7779 100.701 95.6669 98.7902 96.3971 96.809C97.5718 93.6087 96.4797 88.4845 91.9713 90.8339C90.4156 91.6467 89.3806 93.177 88.4154 94.6438C88.9361 93.8056 89.4632 92.942 89.6663 91.9769C89.8759 91.0117 89.7044 89.9068 88.9869 89.2274C87.9964 88.2876 86.3835 88.4908 85.1263 89.0242C80.4655 90.999 78.2748 95.7423 77.6335 100.543C77.824 99.895 77.57 99.1458 77.0366 98.7394C75.5 101.832 75.6841 105.711 77.5065 108.645C79.3289 111.579 82.7324 113.458 86.1803 113.445C85.4374 113.255 84.5992 113.503 84.0722 114.061C83.9325 114.207 83.8118 114.385 83.8118 114.588C83.8055 115.02 84.3008 115.262 84.7262 115.338C87.3931 115.789 89.6283 113.795 91.1078 111.82C91.6157 111.16 92.1936 110.372 92.6126 109.559Z" fill="#D6BAA1"/>
<path opacity="0.34" d="M91.1649 111.007C90.9427 111.394 90.314 111.337 90.0092 111.007C89.7108 110.677 89.6536 110.194 89.6282 109.744C89.5584 108.277 89.6981 106.804 90.0537 105.381C90.187 104.848 90.3521 104.302 90.2759 103.749C90.1997 103.203 89.806 102.651 89.26 102.606C88.7075 102.562 88.1995 103.267 88.5488 103.699C88.771 102.587 88.9933 101.425 88.6504 100.346C88.3075 99.2664 87.1899 98.3456 86.0978 98.6377C85.539 98.7838 85.0945 99.2092 84.7453 99.6728C83.6722 101.082 83.2531 102.892 83.1324 104.657C82.0085 101.832 81.9768 98.5933 83.0372 95.7486C84.1547 92.7578 86.2819 90.7958 88.8599 89.075C87.7424 88.3447 86.3073 88.5416 85.1326 89.0432C80.4719 91.018 78.2812 95.7613 77.6399 100.562C77.8303 99.914 77.5764 99.1648 77.043 98.7584C75.5063 101.851 75.6905 105.73 77.5129 108.664C79.3352 111.598 82.7387 113.477 86.1867 113.464C85.4437 113.274 84.6056 113.522 84.0785 114.08C83.9388 114.226 83.8182 114.404 83.8182 114.607C83.8118 115.039 84.3071 115.281 84.7326 115.357C88.0027 115.916 89.8378 113.312 91.1649 111.007Z" fill="#D6BAA1"/>
<path d="M105.725 150.192C105.725 150.192 105.877 150.128 106.125 150.001C106.366 149.881 106.703 149.677 107.046 149.379C107.388 149.08 107.744 148.693 108.055 148.23C108.22 148.001 108.347 147.747 108.487 147.487C108.62 147.233 108.735 146.947 108.83 146.68C108.944 146.369 109.02 146.109 109.09 145.81C109.154 145.518 109.224 145.232 109.274 144.947C109.37 144.375 109.439 143.836 109.497 143.366C109.598 142.42 109.706 141.778 109.706 141.778C109.706 141.778 109.89 142.407 109.992 143.372C110.043 143.855 110.068 144.426 110.03 145.042C110.005 145.347 109.973 145.671 109.909 145.994C109.846 146.312 109.751 146.661 109.655 146.953C109.528 147.29 109.389 147.588 109.23 147.88C109.065 148.172 108.868 148.439 108.665 148.687C108.258 149.176 107.776 149.55 107.331 149.785C107.109 149.906 106.893 149.988 106.696 150.052C106.5 150.109 106.328 150.147 106.182 150.166C106.036 150.192 105.928 150.185 105.852 150.192C105.769 150.192 105.725 150.192 105.725 150.192Z" fill="#96908F"/>
<path d="M128.991 156.173C128.991 156.173 128.921 156.027 128.819 155.767C128.717 155.513 128.584 155.126 128.47 154.662C128.349 154.198 128.248 153.646 128.171 153.062C128.089 152.471 128.044 151.843 128 151.22C127.943 149.976 127.886 148.738 127.841 147.804C127.778 146.864 127.74 146.236 127.74 146.236C127.74 146.236 127.816 146.376 127.93 146.63C128.044 146.884 128.197 147.258 128.324 147.722C128.463 148.185 128.571 148.731 128.66 149.322C128.749 149.912 128.8 150.541 128.844 151.17C128.87 151.798 128.902 152.421 128.914 153.005C128.927 153.589 128.94 154.135 128.952 154.598C128.965 155.068 128.978 155.462 128.984 155.735C128.991 156.015 128.991 156.173 128.991 156.173Z" fill="#96908F"/>
<path d="M140.553 155.297C140.553 155.297 140.553 154.808 140.611 154.116C140.636 153.767 140.674 153.367 140.719 152.935C140.763 152.509 140.807 152.052 140.852 151.595C140.903 151.138 140.954 150.687 140.998 150.262C141.042 149.836 141.093 149.43 141.144 149.087C141.233 148.395 141.334 147.918 141.334 147.918C141.334 147.918 141.519 148.369 141.633 149.08C141.754 149.785 141.804 150.744 141.696 151.69C141.595 152.636 141.347 153.563 141.081 154.23C140.827 154.897 140.553 155.297 140.553 155.297Z" fill="#96908F"/>
<path d="M145.468 151.093C145.468 151.093 145.671 151.011 146.027 150.865C146.389 150.725 146.884 150.516 147.481 150.255C147.779 150.128 148.097 149.976 148.433 149.823C148.77 149.671 149.113 149.481 149.475 149.309C150.186 148.934 150.935 148.515 151.659 148.065C152.383 147.614 153.088 147.125 153.736 146.649C154.047 146.401 154.371 146.179 154.656 145.937C154.942 145.702 155.221 145.487 155.463 145.277C155.958 144.858 156.364 144.496 156.65 144.242C156.936 143.988 157.101 143.842 157.101 143.842C157.101 143.842 156.987 144.032 156.777 144.356C156.676 144.521 156.542 144.712 156.377 144.921C156.218 145.137 156.034 145.379 155.812 145.626C155.387 146.141 154.834 146.687 154.212 147.239C153.888 147.499 153.57 147.791 153.209 148.039C152.859 148.306 152.485 148.541 152.116 148.788C151.729 149.011 151.354 149.239 150.961 149.442C150.58 149.658 150.18 149.817 149.799 149.995C149.03 150.312 148.294 150.566 147.652 150.725C147.011 150.897 146.459 150.992 146.084 151.036C145.684 151.068 145.468 151.093 145.468 151.093Z" fill="#96908F"/>
<path opacity="0.31" d="M159.33 130.101C159.895 128.387 160.219 126.59 160.289 124.786C161.114 125.586 161.793 126.539 162.276 127.58C163.032 125.205 163.222 122.659 162.835 120.195C162.797 119.948 162.759 119.662 162.924 119.471C163.057 119.319 163.286 119.281 163.489 119.275C164.797 119.218 166.111 119.872 166.861 120.945C166.53 120.475 166.537 119.154 166.257 118.513C165.781 117.401 165.076 116.347 164.359 115.382C161.698 111.801 157.717 107.743 153.697 105.718C149.367 103.527 144.312 103.089 139.537 103.21C132.902 103.375 126.127 104.442 119.707 102.74C117.358 102.118 115.103 101.133 112.71 100.67C109.103 99.9713 104.207 100.206 101.369 102.841C103.325 102.81 105.293 103.14 107.128 103.819C105.839 105.565 104.499 107.432 104.334 109.598C104.099 112.696 106.43 115.528 109.23 116.868C112.037 118.208 115.237 118.367 118.336 118.506C117.878 120.894 119.866 123.04 121.91 124.361C125.441 126.647 129.657 127.866 133.867 127.809C138.35 127.745 142.706 126.291 147.17 125.891C151.653 125.497 156.695 126.469 159.33 130.101Z" fill="#B7A3A3"/>
<path d="M171.426 104.988C173.077 101.305 173.338 96.8027 171.28 93.3294C169.845 90.9038 167.458 89.6973 165.781 87.5892C164.226 85.6335 163.686 83.0237 162.53 80.8394C161.406 78.7185 159.711 76.9851 157.711 75.6516C155.844 74.4134 153.717 73.5308 151.532 73.0355C147.011 72.0068 142.274 72.464 137.741 73.4228C127.429 75.6071 115.866 81.4934 115.897 93.5961C112.335 91.5769 112.234 96.6186 112.684 98.7521C113.294 101.673 115.186 104.372 117.885 105.718C117.186 105.299 116.253 106.067 116.221 106.88C116.189 107.693 116.736 108.41 117.301 109.001C120.076 111.89 123.892 113.522 127.714 114.715C142.522 119.332 163.724 122.164 171.426 104.988Z" fill="#B7A3A3"/>
<path opacity="0.31" d="M153.012 85.5763C153.037 85.5954 153.063 85.6081 153.088 85.6271C154.345 86.4145 155.812 86.9352 157.285 86.8336C157.558 86.8145 157.844 86.7637 158.047 86.5796C158.517 86.1414 158.181 85.3795 157.92 84.7889C157.419 83.6523 157.33 82.3443 157.673 81.1505C157.997 80.0203 158.504 79.4234 159.609 79.3408C160.225 79.2964 162.073 79.8107 162.206 80.5536C161.825 78.4392 159.495 76.7755 157.812 75.6516C155.946 74.4134 153.818 73.5308 151.634 73.0355C147.113 72.0068 142.376 72.464 137.842 73.4228C132.432 74.5721 126.946 76.585 122.622 80.1218C120.495 81.8617 118.679 84.0016 117.517 86.5034C116.488 88.7068 115.866 91.2784 115.916 93.7167C114.583 92.3071 112.926 93.5008 112.703 95.0629C112.538 96.1931 112.703 97.9076 113.554 98.7648C113.008 98.2124 113.402 97.171 114.119 96.8853C114.843 96.5995 115.675 96.8916 116.297 97.3488C116.92 97.8123 117.409 98.4283 118.006 98.9236C120.825 101.26 124.666 100.206 126.387 97.1202C127.505 95.12 127.714 92.7516 127.899 90.472C128.178 91.7356 128.87 93.0056 130.057 93.5262C132.388 94.5486 134.642 93.1579 135.912 91.253C137.322 89.1322 138.49 86.8336 140.173 84.9159C141.855 82.9983 144.205 81.468 146.751 81.5188C149.5 81.5759 150.885 84.2047 153.012 85.5763Z" fill="#B7A3A3"/>
<path opacity="0.77" d="M160.93 97.8695C161.051 97.8695 161.171 97.8631 161.298 97.8631C162.282 97.8695 163.267 98.1107 164.143 98.5616C164.752 98.8791 165.438 99.3045 166.073 99.0442C166.759 98.7648 166.911 97.8821 167.045 97.1456C167.191 96.3391 167.445 95.5454 167.794 94.8025C167.94 94.4914 168.105 94.1739 168.105 93.831C168.105 93.2976 167.68 92.8341 167.191 92.6245C164.911 91.6403 159.863 93.723 158.885 95.9455C158.746 96.2566 158.663 96.6122 158.758 96.936C158.892 97.4059 159.368 97.7044 159.844 97.806C160.2 97.8885 160.562 97.8822 160.93 97.8695Z" fill="#A55520"/>
<path d="M160.136 100.746C160.117 101.032 160.085 101.324 160.13 101.59C160.13 101.73 160.162 101.863 160.2 101.997C160.232 102.13 160.263 102.263 160.327 102.384C160.422 102.638 160.574 102.867 160.727 103.089L160.987 103.394C161.082 103.489 161.184 103.578 161.279 103.667C161.489 103.832 161.705 103.991 161.94 104.111C162.168 104.245 162.422 104.334 162.67 104.416C162.797 104.448 162.924 104.486 163.051 104.511L163.438 104.562C163.698 104.568 163.952 104.575 164.206 104.53C164.333 104.524 164.454 104.492 164.575 104.454C164.695 104.416 164.822 104.397 164.93 104.334C165.038 104.283 165.172 104.226 165.261 104.175C165.375 104.099 165.515 104.022 165.597 103.953C165.788 103.819 165.984 103.629 166.149 103.445C166.315 103.254 166.473 103.045 166.6 102.822C167.115 101.927 167.318 100.841 167.127 99.8252L167.934 99.6728C167.978 99.9204 168.118 100.162 168.34 100.346C168.562 100.524 168.848 100.644 169.134 100.67C169.204 100.676 169.28 100.676 169.35 100.67L169.401 100.663H169.413C169.356 100.676 169.407 100.663 169.394 100.67L169.426 100.663L169.559 100.632C169.648 100.613 169.743 100.594 169.82 100.568C169.883 100.536 169.94 100.511 170.004 100.486C170.124 100.428 170.258 100.333 170.359 100.232L170.512 100.066L170.632 99.8696C170.709 99.7363 170.772 99.5839 170.817 99.4252C170.861 99.2664 170.899 99.1013 170.912 98.9299C170.944 98.7584 170.925 98.587 170.937 98.4092C170.925 98.2377 170.931 98.0599 170.899 97.8821C170.88 97.7043 170.848 97.5329 170.804 97.3551C170.772 97.1773 170.709 97.0122 170.658 96.8344C170.531 96.4979 170.391 96.1614 170.194 95.8502C170.315 95.9899 170.442 96.1296 170.537 96.282C170.651 96.428 170.728 96.5995 170.823 96.7582C170.899 96.9297 170.988 97.0948 171.045 97.2726C171.115 97.4504 171.172 97.6282 171.223 97.8123C171.28 97.9901 171.306 98.1806 171.344 98.3711C171.363 98.5616 171.388 98.7521 171.382 98.9489C171.388 99.1458 171.363 99.3426 171.331 99.5394C171.299 99.7363 171.236 99.9331 171.153 100.124L171.007 100.403L170.81 100.657C170.747 100.746 170.658 100.809 170.575 100.879C170.493 100.949 170.417 101.025 170.309 101.07L170.004 101.222C169.909 101.26 169.826 101.279 169.737 101.305L169.604 101.343L169.572 101.355L169.521 101.368L169.502 101.375L169.42 101.387C169.312 101.406 169.197 101.406 169.083 101.406C168.639 101.394 168.213 101.235 167.851 100.968C167.496 100.701 167.204 100.301 167.115 99.8252L167.921 99.6728C168.162 100.892 167.959 102.194 167.318 103.26C167.159 103.527 166.969 103.781 166.759 104.01C166.537 104.238 166.327 104.454 166.042 104.638C165.902 104.746 165.788 104.797 165.661 104.873C165.495 104.962 165.362 105 165.21 105.07C165.064 105.14 164.905 105.165 164.753 105.203C164.6 105.248 164.441 105.273 164.289 105.28C163.978 105.324 163.66 105.299 163.356 105.267L162.898 105.178C162.752 105.14 162.606 105.083 162.46 105.032C162.175 104.918 161.895 104.797 161.648 104.619C161.387 104.461 161.159 104.251 160.943 104.041C160.841 103.927 160.739 103.819 160.644 103.699L160.397 103.318C160.257 103.051 160.13 102.778 160.066 102.486C160.016 102.346 160.009 102.194 159.99 102.048C159.965 101.902 159.958 101.756 159.978 101.603C159.971 101.298 160.066 101.025 160.136 100.746Z" fill="#775B52"/>
<path d="M156.745 97.0884C156.745 97.0884 156.403 97.1455 155.806 97.2217C155.202 97.2916 154.358 97.4313 153.336 97.59C152.828 97.6662 152.282 97.7678 151.697 97.8758C151.12 97.971 150.51 98.1171 149.881 98.2314C148.63 98.5044 147.297 98.8219 145.983 99.1902C144.668 99.5521 143.366 99.9775 142.147 100.384C141.55 100.613 140.954 100.797 140.407 101.013C139.855 101.222 139.334 101.419 138.858 101.609C137.899 101.99 137.099 102.308 136.547 102.556C135.994 102.797 135.671 102.924 135.671 102.924C135.671 102.924 135.956 102.733 136.471 102.41C136.725 102.251 137.042 102.06 137.41 101.851C137.772 101.635 138.185 101.4 138.655 101.165C139.112 100.917 139.62 100.67 140.166 100.422C140.706 100.162 141.29 99.9267 141.887 99.6791C142.497 99.4505 143.119 99.1902 143.773 98.987C144.421 98.7647 145.087 98.5679 145.754 98.3711C146.427 98.1996 147.1 98.0155 147.767 97.8758C148.434 97.717 149.1 97.6154 149.742 97.4948C150.383 97.3995 151.012 97.3043 151.602 97.2471C152.193 97.1773 152.758 97.1328 153.278 97.1074C153.799 97.0693 154.275 97.063 154.701 97.0566C155.126 97.0503 155.488 97.0503 155.793 97.0566C156.403 97.0693 156.745 97.0884 156.745 97.0884Z" fill="black"/>
<path d="M157.063 99.2727C157.063 99.2727 156.822 99.3489 156.39 99.4569C155.958 99.5585 155.361 99.7489 154.644 99.9648C154.282 100.073 153.901 100.2 153.494 100.339C153.088 100.466 152.675 100.651 152.231 100.797C151.367 101.146 150.459 101.533 149.57 101.978C148.681 102.416 147.818 102.905 147.011 103.368C146.618 103.616 146.224 103.838 145.862 104.073C145.5 104.302 145.157 104.524 144.84 104.721C144.211 105.134 143.671 105.464 143.309 105.718C142.941 105.965 142.725 106.099 142.725 106.099C142.725 106.099 142.897 105.908 143.208 105.591C143.525 105.28 143.97 104.822 144.547 104.327C145.119 103.819 145.824 103.279 146.611 102.733C147.011 102.479 147.418 102.187 147.862 101.946C148.294 101.686 148.751 101.451 149.202 101.216C149.665 101 150.129 100.784 150.599 100.6C151.062 100.397 151.539 100.257 151.989 100.098C152.91 99.8188 153.78 99.6029 154.536 99.495C154.91 99.4251 155.26 99.3934 155.571 99.3616C155.882 99.3299 156.149 99.3045 156.371 99.2981C156.809 99.2727 157.063 99.2727 157.063 99.2727Z" fill="black"/>
<path d="M169.661 91.1895C169.661 91.1895 169.693 91.0308 169.801 90.7514C169.909 90.4783 170.099 90.0974 170.404 89.6973C170.702 89.2909 171.109 88.8655 171.553 88.4464C171.998 88.0146 172.506 87.5955 173.026 87.1955C173.56 86.8082 174.099 86.4335 174.633 86.1287C175.166 85.8176 175.68 85.5573 176.131 85.3604C177.033 84.954 177.681 84.7953 177.681 84.7953C177.681 84.7953 177.554 84.9032 177.325 85.0747C177.096 85.2461 176.773 85.4874 176.379 85.7795C175.992 86.0652 175.534 86.3954 175.046 86.7574C174.798 86.9352 174.557 87.1257 174.303 87.3098C174.049 87.5003 173.795 87.6908 173.541 87.8813C173.026 88.2559 172.518 88.656 172.042 89.0179C171.559 89.3925 171.121 89.7227 170.759 90.0339C170.042 90.6434 169.661 91.1895 169.661 91.1895Z" fill="black"/>
<path d="M170.804 92.9992C170.804 92.9992 170.944 92.8658 171.191 92.6372C171.439 92.415 171.82 92.1039 172.296 91.78C172.772 91.4435 173.356 91.1069 174.01 90.7831C174.341 90.637 174.677 90.4593 175.033 90.3323C175.388 90.1862 175.757 90.0656 176.125 89.9386C176.5 89.837 176.874 89.7227 177.243 89.6401C177.611 89.5385 177.985 89.4941 178.341 89.4306C179.059 89.329 179.738 89.2718 180.316 89.2782C180.894 89.2718 181.376 89.3163 181.713 89.3544C182.049 89.3988 182.24 89.4306 182.24 89.4306C182.24 89.4306 181.491 89.5639 180.367 89.7671C180.087 89.8243 179.789 89.8814 179.471 89.9449C179.154 90.0084 178.83 90.0973 178.487 90.1672C177.808 90.3386 177.09 90.5228 176.379 90.7514C175.668 90.9672 174.969 91.2212 174.309 91.4689C173.985 91.6086 173.668 91.7165 173.369 91.8435C173.071 91.9705 172.791 92.0911 172.531 92.2054C171.502 92.6817 170.804 92.9992 170.804 92.9992Z" fill="black"/>
<path d="M141.817 95.1645C140.89 96.3709 138.871 96.2312 137.975 95.0438C136.439 93.0055 137.944 89.0941 140.839 90.4593C142.522 91.2466 142.916 93.7294 141.817 95.1645Z" fill="#34343F"/>
<path d="M164.01 86.0716C164.124 86.2938 164.238 86.5224 164.34 86.7574C165.134 88.548 163.394 89.5132 162.251 88.0019C160.72 85.9954 162.225 82.6364 164.01 86.0716Z" fill="#34343F"/>
<path d="M138.985 82.1856C138.985 82.1856 138.864 82.103 138.655 81.957C138.541 81.9062 138.426 81.83 138.268 81.7855C138.115 81.7284 137.937 81.703 137.753 81.6903C137.563 81.6966 137.366 81.722 137.163 81.7855C136.959 81.849 136.75 81.9443 136.54 82.0649C136.128 82.3062 135.715 82.6555 135.359 83.0428C135.004 83.4238 134.699 83.8683 134.483 84.3064C134.267 84.7509 134.127 85.2081 134.032 85.6081C133.943 86.0145 133.912 86.3637 133.893 86.6177C133.874 86.8717 133.874 87.0178 133.874 87.0178C133.874 87.0178 133.804 86.8844 133.721 86.6368C133.639 86.3891 133.55 86.0208 133.537 85.5637C133.524 85.1065 133.581 84.5667 133.778 84.0143C133.88 83.7413 134 83.4555 134.159 83.1952C134.318 82.9285 134.508 82.6809 134.718 82.4523C135.137 81.9951 135.645 81.6204 136.191 81.3792C136.458 81.2522 136.75 81.1823 137.029 81.1442C137.309 81.1061 137.582 81.1315 137.817 81.1887C138.058 81.2585 138.255 81.3601 138.407 81.4808C138.572 81.5823 138.674 81.7347 138.763 81.8236C138.915 82.0586 138.985 82.1856 138.985 82.1856Z" fill="#775B52"/>
<path d="M157.285 78.998C157.285 78.998 157.266 78.8964 157.253 78.7186C157.253 78.6297 157.228 78.5217 157.247 78.4011C157.266 78.2741 157.292 78.1217 157.342 77.9502C157.431 77.8042 157.482 77.6074 157.647 77.4677C157.73 77.3978 157.806 77.3089 157.907 77.2518C158.009 77.1946 158.123 77.1502 158.238 77.1057C158.466 77.0613 158.714 77.0232 158.942 77.0613C159.177 77.0803 159.393 77.1629 159.597 77.2391C159.8 77.328 159.99 77.4296 160.162 77.5502C160.346 77.6582 160.485 77.8106 160.638 77.9312C160.924 78.2042 161.152 78.49 161.305 78.763C161.387 78.8964 161.451 79.0234 161.495 79.144C161.54 79.2647 161.584 79.3599 161.597 79.4551C161.635 79.6329 161.647 79.7345 161.647 79.7345C161.647 79.7345 161.571 79.6583 161.451 79.5377C161.4 79.4742 161.305 79.4107 161.228 79.3281C161.146 79.2456 161.038 79.1694 160.93 79.0805C160.828 78.9853 160.695 78.9027 160.574 78.8075C160.447 78.7122 160.301 78.6297 160.168 78.5217C159.876 78.3503 159.571 78.1534 159.26 78.0328C159.108 77.9693 158.949 77.9058 158.803 77.8867C158.65 77.8486 158.523 77.8423 158.39 77.8423C158.333 77.8613 158.276 77.874 158.212 77.8804C158.155 77.8931 158.104 77.9312 158.053 77.9566C157.939 78.001 157.869 78.1217 157.761 78.1915C157.698 78.2931 157.622 78.3884 157.558 78.4836C157.501 78.5789 157.457 78.6868 157.419 78.763C157.342 78.9091 157.285 78.998 157.285 78.998Z" fill="#775B52"/>
<path d="M189.725 161.111C189.51 160.736 189.262 160.381 188.976 160.051C186.69 157.422 183.484 158.12 180.563 159.085C177.337 160.152 174.372 161.987 171.997 164.419C171.349 165.086 170.733 165.81 170.352 166.661C169.978 167.512 169.857 168.515 170.213 169.378C170.53 170.147 171.178 170.731 171.863 171.201C175.642 173.804 180.156 173.366 184.341 172.083C186.112 171.544 188.468 170.845 189.744 169.448C190.71 168.388 190.932 166.845 190.868 165.416C190.811 163.93 190.468 162.406 189.725 161.111Z" fill="#96886B"/>
<path d="M185.179 170.032C185.827 171.023 186.62 171.918 187.675 172.439C187.522 172.363 188.544 171.893 188.595 171.867C189.052 171.664 189.491 171.417 189.897 171.131C190.691 170.572 191.37 169.855 191.878 169.029C193.91 165.753 193.008 161.581 190.297 158.984C189.395 158.12 188.316 157.441 187.135 157.034C186.532 156.825 185.909 156.691 185.274 156.628C184.639 156.571 183.668 156.374 183.179 156.863C182.919 157.13 182.779 157.492 182.671 157.847C182.099 159.701 182.093 161.695 182.474 163.6C182.861 165.499 183.623 167.308 184.563 169.004C184.754 169.353 184.957 169.696 185.179 170.032Z" fill="#594B48"/>
<path d="M184.335 170.585C184.506 170.858 184.69 171.131 184.874 171.398C185.306 172.007 185.789 172.617 186.449 172.96C186.817 173.15 187.262 173.252 187.649 173.093C188.094 172.903 188.182 172.522 188.062 172.064C186.817 171.353 185.909 169.785 185.249 168.559C183.299 164.934 181.991 160.451 184.011 156.565C183.776 156.044 183.172 155.879 182.69 156.088C182.087 156.349 181.776 156.965 181.585 157.561C181.217 158.73 181.185 159.981 181.268 161.206C181.496 164.521 182.563 167.772 184.335 170.585Z" fill="#563A32"/>
<path d="M196.291 162.159C196.361 162.603 196.367 163.054 196.31 163.498C196.291 163.651 196.253 163.822 196.12 163.898C195.986 163.975 195.815 163.918 195.694 163.816C195.574 163.721 195.485 163.587 195.364 163.492C195.072 163.257 194.653 163.257 194.278 163.295C193.3 163.39 192.253 163.644 191.63 164.406C191.307 164.254 191.04 163.981 190.9 163.651C190.868 163.575 190.843 163.486 190.868 163.403C190.887 163.346 190.932 163.302 190.976 163.257C192.138 162.152 193.675 161.435 195.269 161.257C195.44 161.238 195.624 161.225 195.783 161.289C196.113 161.428 196.24 161.816 196.291 162.159Z" fill="#563A32"/>
<path d="M61.3718 37.5376C63.118 32.6546 66.7183 28.4574 71.2902 26" stroke="#BA7D4A" stroke-width="3" stroke-miterlimit="10"/>
<path d="M56.0316 53.5009C54.4696 54.2311 52.7043 54.2946 51.6947 52.4596C50.5962 50.4721 50.9454 48.11 51.2375 45.9701C51.4915 44.0905 52.3932 40.8077 50.7486 39.3536C50.2406 38.9028 49.4977 38.6869 49.1675 38.09C48.7611 37.3725 49.1548 36.4517 49.7009 35.8295C51.5614 33.715 54.6982 33.6261 57.2063 34.3436C59.1113 34.8897 60.9718 35.6072 62.756 36.4772C65.0674 37.6138 67.3469 39.1187 68.8455 41.2649C69.4551 42.1412 70.1408 43.1825 69.8996 44.2556C69.6646 45.278 68.7502 46.2368 67.6263 46.0463C67.2517 45.9828 66.9088 45.7923 66.5405 45.7034C65.7277 45.5002 64.8705 45.7923 64.1403 46.1987C61.4734 47.6782 59.9875 50.5038 57.7016 52.4342C57.2063 52.8405 56.6349 53.2215 56.0316 53.5009Z" fill="#EDB740"/>
<path d="M67.6899 44.008C64.6737 40.7379 60.7686 38.2995 56.5079 37.0296C53.8219 36.2295 51.4916 36.4327 49.1993 38.0709C48.977 37.2391 49.1104 36.5025 49.7009 35.8295C51.5614 33.715 54.6982 33.6261 57.2064 34.3436C59.1113 34.8897 60.9718 35.6072 62.7561 36.4772C65.0674 37.6138 67.347 39.1187 68.8455 41.2649C69.7408 42.5475 70.6362 44.2429 69.0741 45.443C68.6423 44.9414 68.1407 44.4969 67.6899 44.008Z" fill="#BA7D4A"/>
<path d="M62.5592 44.9541C62.229 44.9033 61.9369 44.7064 61.8481 44.3318C61.7719 44.008 61.9052 43.646 62.1528 43.4238C62.4576 43.1507 62.9339 43.0872 63.2958 43.2841C63.6514 43.4809 63.8482 43.9445 63.7212 44.3318C63.5752 44.7953 63.0291 45.0239 62.5592 44.9541Z" fill="#A55520"/>
<path d="M58.1652 48.2242C57.835 48.1734 57.5429 47.9766 57.454 47.602C57.3778 47.2781 57.5112 46.9162 57.7588 46.6939C58.0636 46.4209 58.5398 46.3574 58.9018 46.5542C59.2574 46.7511 59.4542 47.2146 59.3272 47.602C59.1748 48.0655 58.6287 48.2941 58.1652 48.2242Z" fill="#A55520"/>
<path d="M54.1712 49.5449C53.841 49.4941 53.5489 49.2973 53.46 48.9226C53.3838 48.5988 53.5171 48.2368 53.7648 48.0146C54.0696 47.7416 54.5458 47.6781 54.9077 47.8749C55.2633 48.0718 55.4602 48.5353 55.3332 48.9226C55.1871 49.3862 54.6411 49.6211 54.1712 49.5449Z" fill="#A55520"/>
<path d="M59.6955 40.8267C59.2002 40.6553 58.8192 40.2552 58.6668 39.7473C58.6351 39.633 58.616 39.5187 58.6478 39.4044C58.8891 38.6107 60.648 39.2647 61.029 39.5758C61.175 39.6965 61.3147 39.8425 61.3718 40.0267C61.6068 40.7759 60.3368 40.9791 59.8606 40.8712C59.8098 40.8585 59.7526 40.8458 59.6955 40.8267Z" fill="#A55520"/>
<path d="M55.9238 44.3762C54.7745 44.1984 54.8888 42.7507 55.5936 42.1157C55.7905 41.9443 56.0572 41.8109 56.3111 41.8808C56.4318 41.9189 56.5334 41.9951 56.6223 42.084C57.1049 42.5602 57.1874 43.392 56.8001 43.9571C56.6032 44.2492 56.2794 44.427 55.9238 44.3762Z" fill="#A55520"/>
<path d="M56.3174 52.8977C55.9935 52.8914 55.7014 52.7072 55.6062 52.3008C55.4665 51.7167 56.0189 51.3103 56.5333 51.2087C56.8444 51.1452 57.219 51.1769 57.4095 51.4373C57.5556 51.6341 57.5365 51.9199 57.4286 52.1421C57.3206 52.3643 57.1301 52.5294 56.9333 52.6818C56.7492 52.8215 56.5269 52.8977 56.3174 52.8977Z" fill="#A55520"/>
<path d="M52.0249 51.6911C51.7138 51.6784 51.3836 51.3673 51.3137 51.0752C51.2375 50.764 51.2756 50.2053 51.6185 50.0656C51.8535 49.9703 52.1329 50.0719 52.298 50.2624C52.463 50.4529 52.5265 50.7132 52.5392 50.9609C52.5456 51.1387 52.5265 51.3292 52.4249 51.4752C52.317 51.634 52.171 51.6975 52.0249 51.6911Z" fill="#A55520"/>
<path d="M53.6886 39.506C53.2758 39.506 52.8948 39.2965 52.8567 38.8075C52.7805 37.9186 53.7902 37.7217 54.4061 38.1027C54.6728 38.2678 54.8569 38.6107 54.7426 38.9091C54.6918 39.0425 54.5902 39.1441 54.4823 39.233C54.2791 39.4108 53.9806 39.5124 53.6886 39.506Z" fill="#A55520"/>
<path d="M52.4885 45.4621C52.1774 45.4494 51.8472 45.1383 51.7774 44.8462C51.7012 44.535 51.7393 43.9763 52.0821 43.8366C52.3171 43.7413 52.5965 43.8429 52.7616 44.0334C52.9267 44.2239 52.9902 44.4842 53.0029 44.7319C53.0092 44.9097 52.9902 45.1002 52.8886 45.2462C52.7743 45.4113 52.6346 45.4685 52.4885 45.4621Z" fill="#A55520"/>
<path d="M246.597 132.117C241.98 133.349 238.082 130.491 234.272 128.358C236.158 130.879 236.901 134.225 236.266 137.305C235.84 136.778 235.421 136.251 234.996 135.724C235.002 138.511 231.795 140.353 231.332 143.102C229.249 140.378 227.89 137.108 227.427 133.711C226.531 134.682 226.061 136.022 226.144 137.337C223.674 133.343 223.439 128.06 225.554 123.869C225.134 124.694 222.379 122.707 222.017 122.459C220.594 121.487 219.204 120.63 218.042 119.335C216.245 117.328 215.102 114.604 215.457 111.931C216.175 112.566 216.924 113.169 217.699 113.734C216.41 111.061 216.619 107.728 218.226 105.238C219.712 106.813 221.572 107.975 223.198 109.398C224.823 110.826 226.277 112.655 226.493 114.808C225.934 112.953 225.966 110.934 226.544 109.093C227.077 107.378 228.081 106.896 229.236 105.683C229.255 105.956 229.452 107.302 229.274 107.486C231.719 105.003 234.754 103.105 238.063 102C238.145 103.746 238.012 105.499 237.65 107.207C238.101 106.839 238.558 106.47 239.009 106.102C239.345 108.763 238.64 111.537 237.066 113.703C239.034 111.569 241.714 110.102 244.565 109.594C244.165 110.21 243.771 110.82 243.371 111.436C246.787 111.182 250.248 111.525 253.55 112.458C251.638 114.808 249.226 116.744 246.52 118.103C247.435 118.116 248.349 118.135 249.27 118.148C247.181 120.916 243.676 122.554 240.215 122.383C243.352 122.319 246.501 123.462 248.87 125.513C247.987 125.513 247.105 125.513 246.222 125.52C248.044 126.796 249.797 128.167 251.461 129.641C249.467 130.485 247.289 130.892 245.124 130.834C245.695 131.152 246.203 131.59 246.597 132.117Z" fill="#EDB740"/>
<path d="M242.768 116.243C242.768 116.243 242.311 116.528 241.498 116.992C240.685 117.455 239.517 118.109 238.094 118.846C237.383 119.214 236.615 119.614 235.789 120.014C234.964 120.421 234.107 120.852 233.199 121.272C232.291 121.691 231.37 122.148 230.424 122.573C229.478 123.005 228.519 123.456 227.566 123.913C226.608 124.358 225.661 124.821 224.734 125.278C223.814 125.742 222.893 126.186 222.029 126.656C221.166 127.126 220.328 127.577 219.547 128.028C219.147 128.244 218.785 128.485 218.416 128.701C218.048 128.91 217.699 129.133 217.369 129.342C216.696 129.761 216.099 130.168 215.559 130.523C215.032 130.898 214.568 131.222 214.187 131.488C213.444 132.047 213 132.358 213 132.358C213 132.358 213.324 131.933 213.927 131.209C214.245 130.86 214.626 130.434 215.089 129.964C215.559 129.507 216.086 128.98 216.715 128.466C217.324 127.926 218.016 127.386 218.766 126.84C219.515 126.294 220.321 125.735 221.191 125.208C222.055 124.681 222.95 124.135 223.89 123.646C224.823 123.145 225.788 122.669 226.76 122.205C227.738 121.754 228.716 121.322 229.681 120.91C230.646 120.484 231.618 120.122 232.538 119.748C233.465 119.373 234.373 119.043 235.231 118.725C236.088 118.401 236.907 118.116 237.663 117.855C239.174 117.328 240.45 116.928 241.345 116.655C242.247 116.382 242.768 116.243 242.768 116.243Z" fill="#BA7D4A"/>
<path d="M234.062 108.94C234.062 108.94 233.891 109.34 233.592 110.032C233.3 110.718 232.9 111.709 232.488 112.903C232.278 113.499 232.088 114.153 231.878 114.839C231.688 115.531 231.51 116.262 231.345 117.024C231.186 117.786 231.04 118.573 230.926 119.373C230.875 119.773 230.824 120.179 230.78 120.592C230.76 120.789 230.729 121.03 230.729 121.145C230.729 121.278 230.741 121.246 230.722 121.214C230.678 121.214 231.129 121.545 231.459 121.773C231.808 122.015 232.113 122.237 232.462 122.465C233.142 122.916 233.827 123.329 234.501 123.71C235.847 124.485 237.174 125.094 238.336 125.589C239.498 126.072 240.501 126.434 241.212 126.675C241.93 126.917 242.336 127.056 242.336 127.056C242.336 127.056 241.904 127.082 241.142 127.05C240.761 127.037 240.298 126.999 239.771 126.936C239.244 126.866 238.647 126.783 238.006 126.631C237.364 126.491 236.672 126.313 235.955 126.072C235.237 125.831 234.481 125.564 233.732 125.215C232.983 124.872 232.215 124.485 231.472 124.027C231.103 123.805 230.71 123.558 230.354 123.31L229.821 122.935C229.637 122.796 229.37 122.618 229.122 122.256C228.862 121.868 228.811 121.386 228.824 121.1C228.837 120.789 228.868 120.605 228.894 120.376C228.938 119.938 229.021 119.506 229.091 119.075C229.249 118.217 229.459 117.386 229.7 116.592C229.941 115.798 230.24 115.055 230.532 114.357C230.83 113.665 231.154 113.023 231.478 112.452C232.119 111.302 232.773 110.426 233.256 109.836C233.491 109.537 233.7 109.321 233.834 109.169C233.986 109.016 234.062 108.94 234.062 108.94Z" fill="#BA7D4A"/>
<path d="M220.677 112.299C220.677 112.299 220.721 112.395 220.804 112.572C220.893 112.744 220.988 113.023 221.179 113.322C221.268 113.468 221.363 113.633 221.471 113.817C221.591 113.988 221.725 114.173 221.864 114.369C222.156 114.757 222.512 115.169 222.918 115.601C223.325 116.033 223.807 116.471 224.303 116.947C224.817 117.417 225.369 117.893 225.941 118.427C226.512 118.948 227.09 119.525 227.655 120.148C228.208 120.789 228.76 121.468 229.205 122.262C229.44 122.643 229.605 123.069 229.802 123.488C229.96 123.888 230.1 124.345 230.195 124.758C230.405 125.602 230.5 126.421 230.589 127.19C230.748 128.72 230.875 130.149 230.938 131.387C231.014 132.619 231.033 133.654 231.04 134.378C231.046 135.101 231.027 135.52 231.027 135.52C231.027 135.52 230.881 135.127 230.665 134.435C230.449 133.743 230.157 132.752 229.859 131.552C229.548 130.358 229.237 128.955 228.925 127.45C228.773 126.701 228.621 125.951 228.417 125.234C228.309 124.866 228.195 124.548 228.055 124.186C227.897 123.869 227.763 123.526 227.56 123.215C227.217 122.561 226.728 121.964 226.265 121.354C225.77 120.764 225.268 120.179 224.747 119.614C223.731 118.478 222.747 117.366 222.068 116.281C221.712 115.747 221.445 115.214 221.242 114.738C221.147 114.49 221.052 114.268 220.982 114.058C220.925 113.836 220.874 113.633 220.829 113.449C220.721 113.093 220.747 112.801 220.709 112.61C220.683 112.401 220.677 112.299 220.677 112.299Z" fill="#BA7D4A"/>
<path d="M229.802 109.753C229.922 109.944 230.037 110.109 230.157 110.274L230.513 110.763C230.748 111.093 230.964 111.442 231.167 111.791C231.554 112.496 231.878 113.226 232.138 113.976L230.925 113.385L233.078 112.63C233.446 112.503 233.821 112.376 234.208 112.255C234.405 112.198 234.602 112.134 234.805 112.077C235.008 112.02 235.218 111.956 235.44 111.912C235.262 112.337 235.008 112.687 234.742 113.036C234.462 113.372 234.151 113.671 233.815 113.944C233.142 114.484 232.367 114.903 231.541 115.182L230.633 115.487L230.329 114.592C230.075 113.842 229.878 113.068 229.751 112.274C229.694 111.874 229.649 111.474 229.63 111.055C229.63 110.839 229.617 110.623 229.643 110.401C229.681 110.178 229.719 109.956 229.802 109.753Z" fill="#BA7D4A"/>
<path d="M240.348 113.849C240.044 114.452 239.694 114.985 239.358 115.525C239.015 116.058 238.666 116.585 238.31 117.093C237.605 118.122 236.888 119.119 236.164 120.116L235.497 118.643C236.526 118.782 237.555 118.973 238.57 119.233C239.078 119.36 239.586 119.513 240.088 119.684C240.59 119.856 241.091 120.04 241.587 120.287C241.047 120.414 240.52 120.478 239.986 120.535C239.459 120.592 238.932 120.624 238.405 120.63C237.358 120.656 236.316 120.611 235.281 120.516L233.726 120.376L234.615 119.043C235.338 117.963 236.17 116.954 237.123 116.065C237.599 115.62 238.101 115.207 238.634 114.827C238.901 114.642 239.18 114.465 239.459 114.293C239.752 114.134 240.037 113.976 240.348 113.849Z" fill="#BA7D4A"/>
<path d="M241.536 124.256C241.041 124.491 240.564 124.637 240.088 124.815C239.612 124.974 239.148 125.12 238.685 125.259C237.758 125.539 236.85 125.774 235.929 126.021L236.526 124.713C236.888 125.443 237.205 126.193 237.459 126.993L237.555 127.291L237.65 127.577C237.713 127.767 237.777 127.945 237.847 128.123C237.993 128.479 238.164 128.809 238.532 129.101C238.069 129.202 237.555 128.968 237.174 128.682C236.977 128.536 236.805 128.371 236.647 128.206C236.564 128.11 236.494 128.04 236.418 127.952L236.221 127.698C235.694 127.012 235.231 126.275 234.818 125.513L234.284 124.548L235.415 124.205C236.405 123.9 237.434 123.729 238.469 123.723C238.983 123.716 239.504 123.754 240.018 123.837C240.279 123.881 240.533 123.938 240.787 124.002C241.034 124.065 241.282 124.148 241.536 124.256Z" fill="#BA7D4A"/>
<path d="M223.795 112.655C223.992 112.826 224.15 113.011 224.309 113.226C224.455 113.436 224.582 113.658 224.709 113.88C224.944 114.331 225.115 114.795 225.268 115.246L225.693 116.528C225.757 116.731 225.833 116.922 225.903 117.112C225.973 117.297 226.062 117.474 226.144 117.646L226.735 118.973L225.35 119.03C224.538 119.062 223.668 119.132 222.741 119.056C221.814 118.973 220.836 118.713 220.093 118.109C220.569 118.027 220.994 117.97 221.414 117.874C221.833 117.786 222.233 117.69 222.639 117.589C223.452 117.398 224.309 117.189 225.242 117.132L224.449 118.516C224.315 118.268 224.214 118.008 224.125 117.754C224.036 117.5 223.979 117.239 223.922 116.985C223.826 116.477 223.776 115.982 223.769 115.506C223.757 115.03 223.763 114.566 223.776 114.096C223.788 113.861 223.788 113.626 223.795 113.391C223.801 113.169 223.795 112.915 223.795 112.655Z" fill="#BA7D4A"/>
<path d="M226.912 131.215C226.912 131.215 226.95 131.05 227.046 130.777C227.135 130.51 227.287 130.136 227.49 129.717C227.7 129.298 227.966 128.834 228.284 128.364C228.443 128.129 228.614 127.888 228.798 127.653L228.938 127.475L229.008 127.386L229.109 127.266C229.154 127.221 229.224 127.151 229.344 127.075C229.408 127.037 229.484 126.999 229.573 126.974L229.643 126.955L229.725 126.936H229.738L229.84 126.923C230.252 126.916 230.417 127.063 230.513 127.113L230.741 127.278C230.989 127.469 231.256 127.685 231.472 127.901C231.7 128.117 231.91 128.345 232.1 128.58C232.481 129.044 232.786 129.52 232.995 129.958C233.205 130.396 233.332 130.783 233.402 131.063C233.472 131.342 233.484 131.514 233.484 131.514C233.484 131.514 233.332 131.438 233.091 131.285C232.849 131.139 232.526 130.923 232.151 130.669C231.783 130.415 231.364 130.117 230.932 129.799C230.506 129.482 230.055 129.145 229.598 128.809L229.509 128.739C229.484 128.72 229.433 128.682 229.465 128.701C229.497 128.707 229.598 128.815 229.929 128.815C229.96 128.815 229.986 128.809 230.017 128.802C230.024 128.802 230.017 128.802 230.017 128.802H230.011L230.087 128.79L230.144 128.777C230.214 128.752 230.278 128.726 230.322 128.694C230.411 128.637 230.449 128.593 230.468 128.574L230.189 128.866C229.979 129.082 229.77 129.279 229.554 129.469C229.128 129.85 228.703 130.18 228.316 130.441C227.928 130.701 227.579 130.898 227.325 131.025C227.071 131.158 226.912 131.215 226.912 131.215Z" fill="#BA7D4A"/>
<path d="M215.431 73.2925C215.431 73.2925 215.278 73.2353 214.999 73.121C214.719 73.0067 214.3 72.8544 213.78 72.6258C213.291 72.34 212.637 72.0416 211.983 71.5717C211.659 71.3368 211.31 71.0828 210.941 70.8161C210.592 70.524 210.255 70.1938 209.881 69.8573C209.17 69.1588 208.446 68.346 207.798 67.4062C207.131 66.4728 206.515 65.4315 205.976 64.3139C205.69 63.7551 205.468 63.1709 205.207 62.5868C204.966 61.9962 204.75 61.3866 204.541 60.7707C204.153 59.5325 203.791 58.2689 203.499 56.9926C203.22 55.7163 202.979 54.4273 202.782 53.17C202.566 51.9128 202.439 50.6555 202.287 49.4617C202.153 48.268 202.02 47.1123 201.899 46.0202C201.759 44.9344 201.626 43.912 201.461 42.9723C201.29 42.0388 201.118 41.1816 200.921 40.4323C200.724 39.6831 200.528 39.0354 200.35 38.502C200.153 37.9813 200.013 37.5559 199.886 37.2829C199.772 37.0035 199.708 36.8511 199.708 36.8511C199.708 36.8511 199.804 36.9844 199.975 37.2321C200.153 37.4797 200.401 37.8543 200.693 38.3433C200.972 38.8386 201.302 39.4545 201.607 40.1911C201.931 40.9213 202.236 41.7722 202.521 42.7119C203.106 44.5915 203.537 46.8393 203.944 49.2141C204.153 50.3952 204.369 51.6143 204.591 52.8589C204.807 54.0971 205.068 55.3416 205.353 56.5735C205.62 57.8117 205.944 59.0309 206.293 60.2183C206.484 60.8025 206.674 61.3867 206.865 61.9581C207.081 62.5169 207.271 63.0884 207.506 63.6218C207.976 64.6949 208.452 65.7172 208.998 66.6379C209.538 67.5586 210.116 68.3904 210.7 69.127C211.005 69.4826 211.297 69.8255 211.576 70.1493C211.881 70.4541 212.173 70.7399 212.446 71.0066C212.713 71.2923 213.005 71.4891 213.259 71.705C213.519 71.9209 213.754 72.1178 213.97 72.2956C214.897 72.9242 215.431 73.2925 215.431 73.2925Z" fill="#BA7D4A"/>
<path d="M209.957 61.8628C209.595 63.1963 209.163 64.644 208.033 65.4377C207.049 66.1299 205.76 66.168 204.56 66.0918C203.385 66.0156 202.191 65.8378 201.143 65.3044C200.089 64.7774 199.188 63.844 198.934 62.6947C201.944 62.7963 205.252 63.2407 207.246 65.5013C206.566 63.8186 206.712 61.8882 207.347 60.1865C207.976 58.4847 209.055 56.9862 210.217 55.5956C211.049 57.564 210.509 59.8055 209.957 61.8628Z" fill="#A55520"/>
<path d="M209.03 47.36C209.728 50.4269 208.065 53.5066 206.242 56.0656C205.791 56.7005 205.328 57.3228 204.864 57.9451C204.706 58.161 204.541 58.3769 204.325 58.5356C204.026 58.7515 203.658 58.8404 203.29 58.8785C201.632 59.0563 199.981 58.3515 198.68 57.3038C197.384 56.256 196.387 54.8908 195.422 53.5383C198.832 53.6844 202.159 55.2401 204.452 57.7673C204.179 53.8304 205.95 49.8174 209.03 47.36Z" fill="#A55520"/>
<path d="M203.258 47.5568C203.239 47.5631 203.226 47.5631 203.22 47.5568C202.591 47.1631 201.817 47.1123 201.08 47.0425C199.613 46.9028 198.134 46.6424 196.832 45.9566C195.346 45.1693 194.362 43.8803 194 42.2484C196.972 42.7627 200.058 44.6803 202.388 46.5345C200.616 45.1439 199.613 42.9469 199.258 40.7244C198.902 38.502 199.137 36.2288 199.454 34C201.804 37.4162 202.953 41.6388 202.674 45.7725C202.96 42.8706 204.28 40.0831 206.338 38.0258C206.598 39.8228 206.236 41.6197 205.614 43.3024C205.461 43.6961 203.652 47.4234 203.258 47.5568Z" fill="#A55520"/>
<path d="M204.039 51.2143C203.925 51.392 203.804 51.5698 203.69 51.7476C203.594 51.9 203.48 52.0588 203.309 52.1096C203.15 52.154 202.979 52.0905 202.82 52.027C200.743 51.1825 198.616 50.6047 197.384 48.5918C197.448 48.6997 198.883 48.7696 199.099 48.8204C199.677 48.9664 200.21 49.176 200.731 49.4617C201.683 49.9887 202.591 50.6491 203.22 51.5508C202.725 50.8396 203.531 48.6426 203.855 47.9441C204.395 46.7758 205.652 46.3503 206.401 45.3534C206.23 45.582 206.274 46.4329 206.204 46.744C205.849 48.3505 204.941 49.8236 204.039 51.2143Z" fill="#A55520"/>
</svg>
