<svg width="285" height="190" viewBox="0 0 285 190" fill="none" xmlns="http://www.w3.org/2000/svg">
<rect width="285" height="190" fill="#FDE1BE"/>
<path d="M187.63 137.441C187.63 137.441 188.064 147.969 193.049 147.937C198.035 147.912 200.831 140.672 200.831 140.672C200.831 140.672 190.36 134.112 187.63 137.441Z" fill="#F06836"/>
<path opacity="0.45" d="M193.049 147.937C193.147 147.937 193.245 147.928 193.344 147.92C189.72 145.723 187.768 140.327 191.491 141.894C195.189 143.451 198.542 142.541 200.305 141.803C200.527 141.352 200.682 141.008 200.756 140.819L189.17 136.58C188.539 136.703 188.006 136.974 187.621 137.433C187.629 137.441 188.063 147.969 193.049 147.937Z" fill="#F06836"/>
<path d="M195.558 145.821C195.517 145.706 195.943 145.395 196.312 145.034C196.681 144.673 196.992 144.28 196.992 144.28C196.992 144.28 197.378 143.96 197.739 143.583C198.091 143.214 198.395 142.779 198.518 142.82C198.624 142.861 198.509 143.419 198.247 143.935C197.993 144.444 197.616 144.895 197.616 144.895C197.616 144.895 197.173 145.272 196.664 145.534C196.156 145.805 195.599 145.928 195.558 145.821Z" fill="#F06836"/>
<path d="M193.467 147.01C193.434 146.895 193.557 146.723 193.672 146.592C193.786 146.436 193.909 146.321 193.909 146.321C193.909 146.321 194.082 146.272 194.27 146.247C194.467 146.215 194.68 146.198 194.746 146.297C194.811 146.395 194.721 146.592 194.615 146.764C194.492 146.936 194.352 147.076 194.352 147.076C194.352 147.076 194.147 147.133 193.942 147.158C193.713 147.158 193.499 147.125 193.467 147.01Z" fill="#F06836"/>
<path d="M196.214 129.62C196.214 129.62 189.49 130.03 186.768 136.417C186.768 136.417 188.49 139.869 193.254 141.017C198.026 142.165 201.633 141.14 201.633 141.14C201.633 141.14 204.954 135.687 197.755 130.071C197.755 130.071 200.272 121.56 198.911 121.633C197.558 121.699 196.337 122.748 196.525 123.806C196.722 124.856 196.837 128.013 196.214 129.62Z" fill="#6F3014"/>
<path opacity="0.56" d="M200.723 135.088C200.748 135.088 200.756 135.236 200.756 135.506C200.715 135.76 200.641 136.187 200.256 136.507C199.485 137.154 198.026 137.072 197.009 136.285C196.894 136.17 196.763 136.072 196.665 135.941L196.574 135.818C196.558 135.801 196.558 135.793 196.55 135.777L196.525 135.744L196.509 135.793L196.492 135.834C196.492 135.842 196.492 135.842 196.492 135.842L196.435 135.924C196.082 136.425 195.558 136.761 195.049 136.875C194.541 136.998 194.082 136.884 193.795 136.744C193.508 136.58 193.393 136.433 193.393 136.433C193.393 136.433 193.254 136.302 193.122 135.998C193.073 135.851 193.008 135.654 193.008 135.441C193.008 135.334 192.999 135.219 193.016 135.104C193.049 134.94 193.04 134.998 193.049 134.973C193.057 134.957 193.057 134.949 193.065 134.932C193.073 134.916 193.081 134.891 193.073 134.908L193.032 134.924L193.008 134.932H192.999L192.95 134.957L192.852 135.006C192.581 135.121 192.286 135.219 191.966 135.268C191.655 135.309 191.278 135.301 190.95 135.104C190.622 134.908 190.458 134.555 190.384 134.252C190.285 133.948 190.335 133.563 190.466 133.292C190.728 132.727 191.163 132.382 191.54 132.12C192.311 131.603 192.967 131.595 192.958 131.636C192.967 131.677 192.368 131.775 191.696 132.325C191.368 132.587 190.991 132.956 190.818 133.424C190.736 133.661 190.712 133.883 190.802 134.137C190.876 134.383 191.007 134.604 191.196 134.703C191.589 134.908 192.179 134.727 192.63 134.506L192.852 134.391C192.967 134.334 193.081 134.26 193.188 134.186C193.409 134.055 193.655 133.883 193.869 133.735L194.033 133.628L194.115 133.571C194.139 133.555 194.106 133.62 194.098 133.637C194.057 133.751 194.016 133.866 193.983 133.973C193.91 134.202 193.828 134.407 193.77 134.637C193.713 134.834 193.631 135.129 193.631 135.162C193.631 135.244 193.639 135.326 193.639 135.4C193.631 135.473 193.655 135.539 193.672 135.596C193.688 135.654 193.688 135.711 193.721 135.752C193.803 135.924 193.885 135.998 193.885 135.998C193.885 135.998 193.901 136.015 193.934 136.056C193.967 136.097 194.033 136.129 194.106 136.187C194.279 136.277 194.565 136.367 194.934 136.293C195.295 136.228 195.705 135.998 196.009 135.605C196.033 135.572 196.041 135.572 196.074 135.514C196.107 135.457 196.156 135.4 196.181 135.342L196.369 134.998C196.435 134.891 196.492 134.76 196.558 134.67L196.73 135.031C196.788 135.154 196.837 135.268 196.911 135.391L197.009 135.572L197.066 135.654C197.14 135.76 197.247 135.842 197.337 135.941C198.149 136.646 199.461 136.81 200.133 136.318C200.477 136.08 200.584 135.728 200.658 135.498C200.666 135.236 200.699 135.088 200.723 135.088ZM201.584 139.704C201.371 140.147 200.731 140.516 200.092 140.565C199.772 140.582 199.452 140.508 199.174 140.393C198.903 140.254 198.657 140.09 198.452 139.909C198.345 139.819 198.272 139.753 198.157 139.655C197.985 139.499 197.837 139.368 197.706 139.253C197.452 139.016 197.288 138.868 197.255 138.843C197.247 139.016 197.247 139.024 197.247 139.024C197.247 139.024 197.239 139.229 197.214 139.614C197.206 139.704 197.214 139.819 197.181 139.917C197.157 140.016 197.157 140.008 197.14 140.065C197.107 140.139 197.066 140.213 197.001 140.286C196.878 140.418 196.64 140.516 196.337 140.508C196.041 140.508 195.705 140.409 195.394 140.262C194.77 139.983 194.254 139.385 194.377 138.901C194.5 138.417 194.885 138.212 194.836 138.163C194.828 138.146 194.738 138.179 194.59 138.261C194.459 138.36 194.246 138.515 194.131 138.827C194.008 139.13 194.09 139.548 194.303 139.868C194.516 140.196 194.828 140.467 195.172 140.672C195.517 140.869 195.91 141.016 196.304 141.049C196.697 141.09 197.132 140.983 197.411 140.721C197.55 140.598 197.64 140.45 197.706 140.319C197.73 140.262 197.747 140.213 197.771 140.163C197.771 140.172 197.771 140.163 197.771 140.163L197.78 140.172C197.78 140.172 197.78 140.163 197.78 140.155C197.78 140.155 197.78 140.155 197.788 140.155C197.845 140.204 197.976 140.303 198.091 140.385C198.321 140.565 198.624 140.737 198.977 140.885C199.338 141.008 199.748 141.074 200.149 141.016C200.936 140.893 201.633 140.377 201.822 139.803C202.019 139.237 201.806 138.868 201.797 138.884C201.715 138.884 201.814 139.27 201.584 139.704ZM191.917 138.524C191.573 138.548 191.122 138.417 190.769 138.13C190.408 137.851 190.146 137.466 190.015 137.171C189.998 137.138 189.982 137.097 189.974 137.064C189.949 136.982 189.916 136.908 189.892 136.843C189.843 136.703 189.802 136.58 189.769 136.474C189.761 136.449 189.752 136.425 189.744 136.4C189.736 136.384 189.703 136.408 189.695 136.416C189.654 136.433 189.629 136.449 189.605 136.466C189.556 136.49 189.531 136.507 189.531 136.507C189.531 136.507 189.424 136.572 189.236 136.679C189.113 136.752 189.096 136.744 189.031 136.769C188.973 136.793 188.908 136.826 188.842 136.826C188.703 136.867 188.564 136.843 188.424 136.769C188.285 136.703 188.178 136.531 188.121 136.334C187.99 135.933 188.113 135.457 188.285 135.162C188.465 134.867 188.67 134.711 188.637 134.662C188.621 134.629 188.359 134.711 188.08 135.006C187.809 135.301 187.555 135.851 187.67 136.433C187.719 136.72 187.858 137.023 188.121 137.212C188.375 137.392 188.695 137.458 188.924 137.417C189.047 137.417 189.146 137.384 189.236 137.359C189.318 137.335 189.433 137.302 189.4 137.31C189.408 137.31 189.4 137.318 189.4 137.318C189.4 137.318 189.4 137.318 189.408 137.31C189.408 137.31 189.408 137.31 189.416 137.31C189.416 137.31 189.416 137.31 189.424 137.318C189.449 137.359 189.465 137.408 189.49 137.449C189.695 137.81 190.048 138.245 190.523 138.524C190.991 138.811 191.581 138.901 191.966 138.786C192.36 138.679 192.557 138.491 192.532 138.458C192.499 138.401 192.261 138.507 191.917 138.524ZM198.706 132.628C198.534 132.702 198.288 132.727 198.05 132.71C197.812 132.694 197.575 132.612 197.402 132.554C197.23 132.481 197.124 132.431 197.124 132.431C197.124 132.431 197.009 132.39 196.837 132.317C196.665 132.235 196.435 132.128 196.238 131.98C196.033 131.833 195.845 131.661 195.73 131.505C195.607 131.357 195.549 131.234 195.492 131.242C195.459 131.251 195.426 131.406 195.5 131.62C195.558 131.841 195.722 132.095 195.918 132.317C196.312 132.768 196.87 133.03 196.87 133.03C196.87 133.03 197.017 133.079 197.23 133.128C197.452 133.169 197.755 133.219 198.067 133.169C198.37 133.12 198.673 133.005 198.837 132.841C199.01 132.686 199.067 132.538 199.034 132.522C199.001 132.489 198.887 132.563 198.706 132.628Z" fill="#A03202"/>
<path opacity="0.45" d="M202.323 139.024C200.708 140.426 198.158 141.582 194.656 140.139C188.023 137.417 191.688 133.21 194.378 131.603C196.181 130.529 197.83 130.677 198.74 130.882C198.436 130.611 198.117 130.332 197.764 130.062C197.764 130.062 197.838 129.816 197.953 129.414C197.346 128.668 197.707 125.068 197.805 123.519C197.862 122.617 198.346 122.018 198.879 121.625C197.543 121.715 196.354 122.748 196.542 123.789C196.731 124.847 196.846 127.995 196.222 129.611C196.222 129.611 189.499 130.021 186.777 136.408C186.777 136.408 188.499 139.86 193.262 141.008C198.035 142.156 201.642 141.131 201.642 141.131C201.642 141.131 202.126 140.336 202.323 139.024Z" fill="#6F3014"/>
<path opacity="0.35" d="M174.165 162.081C183.135 159.686 188.637 156.456 188.637 152.897C188.637 150.831 186.776 148.871 183.463 147.125C186.571 146.518 188.58 145.567 188.58 144.501C188.58 142.664 182.693 141.18 175.436 141.18C172.033 141.18 168.95 141.508 166.614 142.041C157.906 140.459 147.222 139.516 135.669 139.516C114.908 139.516 96.943 142.533 88.2598 146.928C85.9803 146.649 83.4303 146.485 80.7327 146.485C71.2049 146.485 63.4893 148.437 63.4893 150.839C63.4893 153.242 71.2131 155.193 80.7327 155.193C81.6674 155.193 82.5694 155.168 83.4631 155.136C87.694 161.449 109.447 166.262 135.669 166.262C140.498 166.262 145.18 166.098 149.624 165.787C149.608 165.861 149.583 165.934 149.583 166.008C149.583 168.411 157.307 170.362 166.827 170.362C176.355 170.362 184.07 168.411 184.07 166.008C184.078 164.278 180.011 162.778 174.165 162.081Z" fill="#CC893F"/>
<path opacity="0.35" d="M191.097 163.811C193.588 163.811 195.607 163.076 195.607 162.171C195.607 161.265 193.588 160.531 191.097 160.531C188.606 160.531 186.587 161.265 186.587 162.171C186.587 163.076 188.606 163.811 191.097 163.811Z" fill="#CC893F"/>
<path opacity="0.35" d="M142.925 172.83C145.756 172.83 148.05 172.004 148.05 170.985C148.05 169.966 145.756 169.14 142.925 169.14C140.095 169.14 137.801 169.966 137.801 170.985C137.801 172.004 140.095 172.83 142.925 172.83Z" fill="#CC893F"/>
<path d="M107.127 126.233C107.127 126.233 98.3778 123.502 96.4674 112.843C94.5569 102.184 101.658 88.794 86.8986 74.035C72.1396 59.276 57.1101 63.6463 57.93 65.5568C58.75 67.4672 62.5791 78.4053 61.7591 81.9556C60.9392 85.506 45.3603 126.233 69.9586 139.622C94.5569 153.012 107.405 133.883 107.405 133.883C107.405 133.883 109.316 126.782 107.127 126.233Z" fill="#86858D"/>
<path d="M107.405 133.883C107.405 133.883 109.316 126.774 107.135 126.233C107.135 126.233 100.378 124.117 97.4431 116.377C84.7421 126.692 89.7684 136.818 95.3194 142.886C103.306 139.983 107.405 133.883 107.405 133.883Z" fill="#4A4A4C"/>
<path d="M96.2952 103.537C96.6396 97.715 97.1151 91.3358 94.2453 84.5631C90.203 85.67 86.3083 87.3345 83.0367 88.9744C74.3863 93.3119 67.5808 100.454 61.8986 108.12C59.9717 110.719 58.094 113.638 56.3721 116.762C57.1839 125.232 60.3079 133.301 67.9415 138.392C68.1465 137.482 68.3925 136.531 68.6795 135.531C70.4998 129.299 74.0173 123.207 78.0596 117.566C81.528 112.728 86.2591 108.637 91.5477 105.668C93.1548 104.775 94.6553 104.111 96.2952 103.537Z" fill="#4A4A4C"/>
<path d="M60.7424 85.3174C62.4725 83.4397 64.3584 81.6605 66.359 79.9714C70.18 76.749 75.9032 73.6824 80.6179 71.9441C81.569 71.5916 82.5365 71.2718 83.5041 70.9766C69.9258 59.9484 57.1757 63.8021 57.93 65.565C58.75 67.4754 62.5791 78.4135 61.7592 81.9638C61.6526 82.4394 61.259 83.6201 60.7424 85.3174Z" fill="#4A4A4C"/>
<path opacity="0.45" d="M107.406 133.883C107.406 133.883 109.317 126.774 107.136 126.233C107.136 126.233 98.3868 123.503 96.4763 112.843C95.9762 110.039 96.091 107.054 96.2796 103.898C95.7794 108.407 95.804 113.401 96.6157 117.214C98.0506 123.978 92.721 137.917 76.5271 125.003C60.3332 112.089 72.0174 86.6707 66.8928 72.5266C65.2939 68.1071 64.9085 65.2701 65.1463 63.458C60.4808 63.3187 57.57 64.688 57.939 65.5571C58.7589 67.4676 62.5881 78.4056 61.7681 81.956C60.9482 85.5063 45.3692 126.233 69.9676 139.623C94.5659 153.012 107.406 133.883 107.406 133.883Z" fill="#4A4A4C"/>
<path d="M87.7924 79.4958C87.612 79.6106 86.2837 77.8559 84.734 76.339C83.9304 75.6011 83.1597 74.8467 82.5119 74.3466C81.8806 73.83 81.4624 73.4856 81.4624 73.4856C81.4624 73.4856 79.8389 72.0343 78.1416 70.624C76.4362 69.2219 74.7635 67.7624 74.8783 67.6148C74.9931 67.4673 76.8625 68.6398 78.7156 69.8615C80.5687 71.0832 82.3398 72.4607 82.3398 72.4607C82.3398 72.4607 82.7415 72.8461 83.3483 73.4364C83.9714 74.0022 84.7012 74.8631 85.4391 75.7077C86.8658 77.4378 87.9318 79.4138 87.7924 79.4958Z" fill="#A2A2A8"/>
<path d="M93.532 103.069C93.3434 103.069 93.1876 100.454 92.9662 97.8625C92.8104 96.5752 92.7202 95.2797 92.5398 94.3286C92.3922 93.3692 92.302 92.7379 92.302 92.7379C92.302 92.7379 92.2037 92.1065 92.0643 91.1472C91.9659 90.1797 91.6133 88.9497 91.3427 87.687C90.6458 85.2108 89.4568 82.8904 89.6372 82.7756C89.7684 82.6854 91.2853 84.8828 92.2447 87.3919C92.6464 88.6546 93.1056 89.9255 93.2778 90.9094C93.491 91.8851 93.6386 92.5411 93.6386 92.5411C93.6386 92.5411 93.6959 93.2053 93.7779 94.1974C93.8927 95.1895 93.8845 96.5096 93.9173 97.8297C93.8927 100.454 93.7124 103.069 93.532 103.069Z" fill="#A2A2A8"/>
<path d="M94.5569 114.138C94.3683 114.155 94.1142 113.351 93.901 112.556C93.6796 111.752 93.4992 110.941 93.4992 110.941C93.4992 110.941 93.491 110.096 93.532 109.26C93.6222 108.407 93.7534 107.571 93.942 107.579C94.1306 107.579 94.3273 108.399 94.4831 109.194C94.6881 109.998 94.8439 110.793 94.8439 110.793C94.8439 110.793 94.8685 111.621 94.8521 112.449C94.8193 113.286 94.7455 114.122 94.5569 114.138Z" fill="#86858D"/>
<path d="M64.6289 80.9307C64.4404 80.9307 64.2354 79.7008 64.0796 78.4873C63.8582 77.2738 63.6778 76.0685 63.6778 76.0685C63.6778 76.0685 63.5958 74.8468 63.5466 73.6087C63.4564 72.3787 63.4154 71.1324 63.5958 71.0914C63.7762 71.0586 64.1534 72.2475 64.4896 73.4611C64.7765 74.6828 65.0143 75.9209 65.0143 75.9209C65.0143 75.9209 65.0471 77.1836 65.0225 78.4381C64.9487 79.6844 64.8175 80.9307 64.6289 80.9307Z" fill="#A2A2A8"/>
<path d="M59.9143 101.019C59.5453 100.954 61.054 93.9187 61.054 93.9187C61.054 93.9187 63.4564 87.1705 63.809 87.2853C64.1616 87.4001 62.3495 94.2958 62.3495 94.2958C62.3495 94.2958 60.2832 101.085 59.9143 101.019Z" fill="#A2A2A8"/>
<path d="M83.6926 139.352C83.6926 139.401 83.4467 139.417 83.0203 139.401C82.5939 139.376 81.9708 139.401 81.2492 139.237C79.7733 139.048 77.8956 138.368 76.1164 137.515C74.3371 136.646 72.7218 135.482 71.5493 134.58C70.4095 133.637 69.6716 132.964 69.6716 132.964C69.6716 132.964 69.4994 132.784 69.2042 132.464C68.9172 132.136 68.4663 131.718 68.0071 131.128C67.0478 129.996 65.8671 128.414 64.8503 126.725C63.8664 125.019 62.9973 123.248 62.5463 121.846C62.0625 120.452 61.8985 119.485 61.9641 119.468C62.0707 119.435 62.4069 120.345 63.0301 121.649C63.6204 122.969 64.5961 124.626 65.6539 126.216C66.7362 127.791 67.9579 129.266 68.9336 130.308C69.401 130.849 69.8602 131.234 70.139 131.538C70.4341 131.833 70.6063 131.997 70.6063 131.997C70.6063 131.997 71.2787 132.661 72.3364 133.62C73.4187 134.547 74.911 135.736 76.5591 136.679C78.2154 137.605 79.9619 138.392 81.3558 138.729C82.0364 138.975 82.6349 139.024 83.0449 139.139C83.4631 139.229 83.7008 139.303 83.6926 139.352Z" fill="#A2A2A8"/>
<path d="M93.532 139.557C93.573 139.729 92.7284 140.049 91.8265 140.139C90.9328 140.221 90.0636 140.172 90.0636 140.172C90.0636 140.172 89.2191 139.975 88.4073 139.737C87.6038 139.508 86.7757 139.335 86.7675 139.139C86.7593 138.958 87.6366 138.794 88.5221 138.786C89.3995 138.778 90.2358 138.827 90.2358 138.827C90.2358 138.827 91.0312 138.999 91.8511 139.18C92.6546 139.335 93.491 139.368 93.532 139.557Z" fill="#A2A2A8"/>
<path d="M157.865 85.096C157.865 85.096 164.629 103.955 174.165 104.57C174.165 104.57 178.265 99.5434 180.217 101.183L178.47 103.545C178.47 103.545 184.825 104.266 184.111 109.391C183.398 114.516 179.397 115.95 179.397 115.95C179.397 115.95 180.627 113.794 179.913 112.564C179.913 112.564 175.297 114.614 173.452 111.433C173.452 111.433 160.226 116.049 150.904 104.873" fill="#86858D"/>
<g opacity="0.45">
<g opacity="0.45">
<path opacity="0.45" d="M157.865 85.096C157.865 85.096 164.629 103.955 174.165 104.57C174.165 104.57 178.265 99.5434 180.217 101.183L178.47 103.545C178.47 103.545 184.825 104.266 184.111 109.391C183.398 114.516 179.397 115.95 179.397 115.95C179.397 115.95 180.627 113.794 179.913 112.564C179.913 112.564 175.297 114.614 173.452 111.433C173.452 111.433 160.226 116.049 150.904 104.873" fill="#86858D"/>
</g>
</g>
<path opacity="0.45" d="M184.103 109.391C184.825 104.266 178.462 103.545 178.462 103.545L180.208 101.183C178.257 99.5434 174.157 104.57 174.157 104.57C172.074 104.438 170.18 103.422 168.59 102.134C168.032 101.683 167.04 100.281 166.22 100.404C165.302 100.544 165.876 101.913 166.22 102.454C166.687 103.184 167.409 103.692 167.868 104.406C167.253 104.201 165.826 103.561 165.343 104.225C164.679 105.135 166.409 106.3 166.901 106.816C166.343 106.48 164.023 105.75 163.555 106.406C162.826 107.431 165.974 109.243 166.491 109.743C164.793 109.825 163.055 109.629 161.366 109.686C159.71 109.744 161.448 111.367 162.137 111.4L162.104 111.851C168.27 113.236 173.444 111.433 173.444 111.433C175.28 114.598 179.872 112.572 179.905 112.564C179.397 112.794 179.93 115.303 181.11 114.967C182.816 114.483 183.906 110.818 184.103 109.391Z" fill="#4A4A4C"/>
<g opacity="0.5">
<path opacity="0.5" d="M178.306 103.938C178.618 103.906 178.872 103.93 178.872 103.93C178.872 103.93 179.077 103.815 179.347 103.717C178.823 103.594 178.462 103.545 178.462 103.545L179.118 102.659C178.823 102.602 178.577 102.61 178.577 102.61C178.577 102.61 178.134 102.799 177.83 103.11C177.527 103.438 177.379 103.832 177.511 103.955C177.65 104.086 178.003 103.979 178.306 103.938Z" fill="#4A4A4C"/>
<path opacity="0.5" d="M182.496 105.693C181.75 105.521 181.045 105.701 181.061 105.873C181.069 106.07 181.668 106.251 182.127 106.57C182.34 106.767 182.562 106.907 182.676 107.079C182.808 107.226 182.89 107.325 182.89 107.325C182.89 107.325 182.988 107.407 183.136 107.538C183.308 107.653 183.447 107.874 183.644 108.087C183.849 108.382 183.996 108.727 184.128 108.94C184.201 107.702 183.857 106.743 183.291 106.005C183.07 105.882 182.775 105.783 182.496 105.693Z" fill="#4A4A4C"/>
<path opacity="0.5" d="M183.177 111.941C183.259 111.096 182.98 110.268 182.98 110.268C182.98 110.268 182.865 110.096 182.685 109.825C182.529 109.555 182.193 109.276 181.906 108.997C181.233 108.481 180.438 108.3 180.381 108.464C180.307 108.645 180.856 109.104 181.209 109.653C181.356 109.957 181.545 110.211 181.602 110.449C181.684 110.67 181.742 110.818 181.742 110.818C181.75 110.818 181.807 110.957 181.914 111.162C182.045 111.367 182.102 111.662 182.217 111.982C182.357 112.605 182.242 113.294 182.422 113.392C182.455 113.417 182.512 113.392 182.578 113.335C182.709 113.154 182.832 112.966 182.947 112.761C183.054 112.523 183.144 112.244 183.177 111.941Z" fill="#4A4A4C"/>
</g>
<path d="M157.865 85.096C158.734 87.1295 159.71 89.1137 160.767 91.0406C161.3 92.0081 161.858 92.9511 162.448 93.8776L163.342 95.2633C163.645 95.7143 163.932 96.1816 164.244 96.6326C165.482 98.4283 166.884 100.126 168.516 101.536C168.934 101.88 169.352 102.216 169.795 102.512C170.016 102.667 170.238 102.815 170.476 102.938C170.705 103.069 170.935 103.209 171.181 103.315C171.656 103.553 172.148 103.733 172.657 103.889C172.911 103.947 173.165 104.02 173.419 104.07L174.198 104.168L173.854 104.315C174.682 103.34 175.567 102.438 176.592 101.642C177.109 101.249 177.658 100.888 178.306 100.642C178.634 100.527 178.987 100.437 179.38 100.454C179.577 100.462 179.774 100.503 179.962 100.568C180.151 100.642 180.323 100.749 180.479 100.872C180.651 101.003 180.676 101.249 180.545 101.429L178.806 103.783L178.519 103.135C178.921 103.184 179.282 103.266 179.651 103.364C180.02 103.463 180.381 103.578 180.741 103.717C181.102 103.848 181.446 104.02 181.791 104.201C182.127 104.397 182.455 104.602 182.758 104.857C182.922 104.971 183.054 105.119 183.193 105.258C183.341 105.398 183.472 105.537 183.587 105.701C183.849 106.005 184.029 106.374 184.201 106.734C184.283 106.923 184.324 107.12 184.39 107.308C184.464 107.497 184.497 107.694 184.505 107.899C184.529 108.095 184.554 108.292 184.57 108.497L184.538 109.088L184.521 109.383C184.513 109.522 184.488 109.58 184.472 109.678L184.374 110.219C184.3 110.58 184.177 110.965 184.07 111.334C183.931 111.687 183.808 112.056 183.628 112.392C183.472 112.745 183.259 113.064 183.054 113.392C182.619 114.024 182.102 114.606 181.52 115.106C181.135 115.45 179.183 116.533 179.159 115.385C179.151 115.065 180.356 113.031 179.552 112.777L180.069 112.949C179.47 113.204 178.88 113.368 178.265 113.491C177.962 113.556 177.642 113.589 177.33 113.614C177.011 113.638 176.691 113.638 176.371 113.614C176.207 113.614 176.051 113.573 175.887 113.548C175.723 113.532 175.567 113.491 175.412 113.441C175.092 113.368 174.789 113.212 174.493 113.064L174.075 112.777C173.936 112.687 173.829 112.548 173.706 112.441C173.444 112.22 173.296 111.916 173.099 111.654L173.591 111.834C172.55 112.162 171.533 112.376 170.484 112.531C169.959 112.622 169.434 112.654 168.91 112.72L167.327 112.802L165.745 112.777L164.162 112.638C163.637 112.589 163.121 112.466 162.596 112.384C162.071 112.31 161.563 112.146 161.054 112.015C160.538 111.884 160.03 111.744 159.546 111.515C159.062 111.301 158.562 111.113 158.094 110.883L156.709 110.112C156.233 109.883 155.831 109.53 155.397 109.235C154.979 108.915 154.52 108.661 154.151 108.284L152.986 107.226C152.584 106.898 152.273 106.472 151.92 106.078L150.904 104.898L152.01 105.988C152.388 106.349 152.724 106.734 153.15 107.038L154.364 107.997C154.749 108.341 155.225 108.555 155.651 108.842C156.094 109.096 156.504 109.407 156.979 109.604L158.365 110.26C158.832 110.457 159.324 110.604 159.808 110.777C160.284 110.957 160.776 111.088 161.268 111.219C161.76 111.359 162.243 111.515 162.752 111.58C163.252 111.662 163.752 111.777 164.26 111.826L165.786 111.966L167.311 111.99L168.836 111.916C169.344 111.851 169.852 111.826 170.353 111.736C171.361 111.597 172.37 111.367 173.313 111.08C173.485 111.031 173.657 111.088 173.764 111.219L173.796 111.26C173.96 111.465 174.075 111.72 174.28 111.884C174.379 111.966 174.461 112.08 174.567 112.146L174.895 112.367C175.133 112.482 175.362 112.605 175.633 112.663C175.764 112.704 175.887 112.736 176.027 112.753C176.166 112.769 176.297 112.802 176.437 112.802C176.715 112.827 176.994 112.818 177.273 112.802C177.552 112.777 177.831 112.745 178.118 112.687C178.667 112.581 179.241 112.417 179.757 112.195C179.946 112.113 180.167 112.195 180.266 112.367C180.454 112.704 180.528 113.064 180.545 113.409C180.561 113.753 180.512 114.081 180.438 114.393C180.364 114.704 180.274 115.008 180.159 115.303C180.044 115.598 179.921 115.868 179.757 116.164L179.265 115.573C179.552 115.459 179.872 115.286 180.159 115.106C180.446 114.917 180.733 114.721 180.996 114.491C181.528 114.04 181.988 113.515 182.381 112.941C182.562 112.646 182.75 112.351 182.898 112.031C183.07 111.728 183.168 111.392 183.308 111.072C183.406 110.736 183.513 110.432 183.578 110.071L183.677 109.53C183.685 109.448 183.726 109.325 183.718 109.284L183.734 109.03L183.767 108.522L183.71 108.022C183.701 107.849 183.669 107.694 183.611 107.538C183.562 107.382 183.529 107.218 183.464 107.071C183.316 106.775 183.177 106.48 182.955 106.226C182.865 106.087 182.75 105.964 182.627 105.849C182.504 105.734 182.398 105.603 182.258 105.504C181.996 105.283 181.709 105.103 181.405 104.93C181.102 104.775 180.791 104.619 180.463 104.496C180.135 104.365 179.798 104.258 179.462 104.168C179.126 104.078 178.765 104.004 178.437 103.963C178.216 103.938 178.052 103.733 178.085 103.504C178.093 103.43 178.126 103.364 178.159 103.315L179.897 100.962L179.962 101.519C179.872 101.454 179.782 101.396 179.684 101.355C179.577 101.323 179.47 101.298 179.356 101.29C179.118 101.282 178.864 101.339 178.601 101.429C178.085 101.626 177.576 101.946 177.101 102.307C176.15 103.036 175.28 103.922 174.502 104.84L174.485 104.865C174.403 104.963 174.28 105.004 174.157 104.988L173.288 104.881C173.001 104.832 172.722 104.75 172.443 104.684C171.886 104.52 171.345 104.315 170.836 104.061C170.574 103.947 170.328 103.799 170.082 103.651C169.828 103.512 169.59 103.364 169.361 103.192C168.885 102.881 168.442 102.52 168.008 102.159C166.294 100.683 164.859 98.9367 163.588 97.1C162.276 95.2879 161.292 93.2708 160.341 91.2702C159.382 89.2613 158.545 87.2033 157.865 85.096Z" fill="#4A4A4C"/>
<path d="M157.865 85.096C158.734 87.1295 159.71 89.1137 160.767 91.0406C161.3 92.0081 161.858 92.9511 162.448 93.8776L163.342 95.2633C163.645 95.7143 163.932 96.1816 164.244 96.6326C165.482 98.4283 166.884 100.126 168.516 101.536C168.934 101.88 169.352 102.216 169.795 102.512C170.016 102.667 170.238 102.815 170.476 102.938C170.705 103.069 170.935 103.209 171.181 103.315C171.656 103.553 172.148 103.733 172.657 103.889C172.911 103.947 173.165 104.02 173.419 104.07L174.198 104.168L173.854 104.315C174.682 103.34 175.567 102.438 176.592 101.642C177.109 101.249 177.658 100.888 178.306 100.642C178.634 100.527 178.987 100.437 179.38 100.454C179.577 100.462 179.774 100.503 179.962 100.568C180.151 100.642 180.323 100.749 180.479 100.872C180.651 101.003 180.676 101.249 180.545 101.429L178.806 103.783L178.519 103.135C178.921 103.184 179.282 103.266 179.651 103.364C180.02 103.463 180.381 103.578 180.741 103.717C181.102 103.848 181.446 104.02 181.791 104.201C182.127 104.397 182.455 104.602 182.758 104.857C182.922 104.971 183.054 105.119 183.193 105.258C183.341 105.398 183.472 105.537 183.587 105.701C183.849 106.005 184.029 106.374 184.201 106.734C184.283 106.923 184.324 107.12 184.39 107.308C184.464 107.497 184.497 107.694 184.505 107.899C184.529 108.095 184.554 108.292 184.57 108.497L184.538 109.088L184.521 109.383C184.513 109.522 184.488 109.58 184.472 109.678L184.374 110.219C184.3 110.58 184.177 110.965 184.07 111.334C183.931 111.687 183.808 112.056 183.628 112.392C183.472 112.745 183.259 113.064 183.054 113.392C182.619 114.024 182.102 114.606 181.52 115.106C181.135 115.45 179.183 116.533 179.159 115.385C179.151 115.065 180.356 113.031 179.552 112.777L180.069 112.949C179.47 113.204 178.88 113.368 178.265 113.491C177.962 113.556 177.642 113.589 177.33 113.614C177.011 113.638 176.691 113.638 176.371 113.614C176.207 113.614 176.051 113.573 175.887 113.548C175.723 113.532 175.567 113.491 175.412 113.441C175.092 113.368 174.789 113.212 174.493 113.064L174.075 112.777C173.936 112.687 173.829 112.548 173.706 112.441C173.444 112.22 173.296 111.916 173.099 111.654L173.591 111.834C172.55 112.162 171.533 112.376 170.484 112.531C169.959 112.622 169.434 112.654 168.91 112.72L167.327 112.802L165.745 112.777L164.162 112.638C163.637 112.589 163.121 112.466 162.596 112.384C162.071 112.31 161.563 112.146 161.054 112.015C160.538 111.884 160.03 111.744 159.546 111.515C159.062 111.301 158.562 111.113 158.094 110.883L156.709 110.112C156.233 109.883 155.831 109.53 155.397 109.235C154.979 108.915 154.52 108.661 154.151 108.284L152.986 107.226C152.584 106.898 152.273 106.472 151.92 106.078L150.904 104.898L152.01 105.988C152.388 106.349 152.724 106.734 153.15 107.038L154.364 107.997C154.749 108.341 155.225 108.555 155.651 108.842C156.094 109.096 156.504 109.407 156.979 109.604L158.365 110.26C158.832 110.457 159.324 110.604 159.808 110.777C160.284 110.957 160.776 111.088 161.268 111.219C161.76 111.359 162.243 111.515 162.752 111.58C163.252 111.662 163.752 111.777 164.26 111.826L165.786 111.966L167.311 111.99L168.836 111.916C169.344 111.851 169.852 111.826 170.353 111.736C171.361 111.597 172.37 111.367 173.313 111.08C173.485 111.031 173.657 111.088 173.764 111.219L173.796 111.26C173.96 111.465 174.075 111.72 174.28 111.884C174.379 111.966 174.461 112.08 174.567 112.146L174.895 112.367C175.133 112.482 175.362 112.605 175.633 112.663C175.764 112.704 175.887 112.736 176.027 112.753C176.166 112.769 176.297 112.802 176.437 112.802C176.715 112.827 176.994 112.818 177.273 112.802C177.552 112.777 177.831 112.745 178.118 112.687C178.667 112.581 179.241 112.417 179.757 112.195C179.946 112.113 180.167 112.195 180.266 112.367C180.454 112.704 180.528 113.064 180.545 113.409C180.561 113.753 180.512 114.081 180.438 114.393C180.364 114.704 180.274 115.008 180.159 115.303C180.044 115.598 179.921 115.868 179.757 116.164L179.265 115.573C179.552 115.459 179.872 115.286 180.159 115.106C180.446 114.917 180.733 114.721 180.996 114.491C181.528 114.04 181.988 113.515 182.381 112.941C182.562 112.646 182.75 112.351 182.898 112.031C183.07 111.728 183.168 111.392 183.308 111.072C183.406 110.736 183.513 110.432 183.578 110.071L183.677 109.53C183.685 109.448 183.726 109.325 183.718 109.284L183.734 109.03L183.767 108.522L183.71 108.022C183.701 107.849 183.669 107.694 183.611 107.538C183.562 107.382 183.529 107.218 183.464 107.071C183.316 106.775 183.177 106.48 182.955 106.226C182.865 106.087 182.75 105.964 182.627 105.849C182.504 105.734 182.398 105.603 182.258 105.504C181.996 105.283 181.709 105.103 181.405 104.93C181.102 104.775 180.791 104.619 180.463 104.496C180.135 104.365 179.798 104.258 179.462 104.168C179.126 104.078 178.765 104.004 178.437 103.963C178.216 103.938 178.052 103.733 178.085 103.504C178.093 103.43 178.126 103.364 178.159 103.315L179.897 100.962L179.962 101.519C179.872 101.454 179.782 101.396 179.684 101.355C179.577 101.323 179.47 101.298 179.356 101.29C179.118 101.282 178.864 101.339 178.601 101.429C178.085 101.626 177.576 101.946 177.101 102.307C176.15 103.036 175.28 103.922 174.502 104.84L174.485 104.865C174.403 104.963 174.28 105.004 174.157 104.988L173.288 104.881C173.001 104.832 172.722 104.75 172.443 104.684C171.886 104.52 171.345 104.315 170.836 104.061C170.574 103.947 170.328 103.799 170.082 103.651C169.828 103.512 169.59 103.364 169.361 103.192C168.885 102.881 168.442 102.52 168.008 102.159C166.294 100.683 164.859 98.9367 163.588 97.1C162.276 95.2879 161.292 93.2708 160.341 91.2702C159.382 89.2613 158.545 87.2033 157.865 85.096Z" fill="#86858D"/>
<path opacity="0.25" d="M182.873 105.53C182.307 107.325 181.061 109.834 178.396 110.654C174.092 111.991 173.477 107.58 173.477 107.58C173.477 107.58 172.345 109.121 165.581 107.58C159.439 106.186 160.038 93.1732 160.136 90.369C158.677 87.3762 157.857 85.105 157.857 85.105L150.887 104.89C160.218 116.066 173.436 111.45 173.436 111.45C175.281 114.631 179.897 112.581 179.897 112.581C180.618 113.811 179.38 115.968 179.38 115.968C179.38 115.968 183.382 114.533 184.095 109.408C184.349 107.629 183.751 106.399 182.873 105.53Z" fill="#4A4A4C"/>
<path d="M118.745 84.0058C118.745 84.0058 101.526 106.144 104.396 131.153C107.266 156.161 114.236 157.391 122.845 160.261C131.454 163.13 144.983 162.31 144.983 158.211C144.983 154.111 139.244 152.061 139.244 152.061C139.244 152.061 144.573 151.036 144.573 152.266C144.573 153.496 147.853 158.211 163.432 156.161C174.821 154.66 177.609 151.29 172.862 147.961C168.762 145.092 160.972 146.731 160.972 146.731C160.972 146.731 187.621 129.923 162.612 113.114C162.612 113.114 155.643 97.5348 157.693 87.2855C159.742 77.0362 120.385 79.906 118.745 84.0058Z" fill="#86858D"/>
<g opacity="0.6">
<path opacity="0.6" d="M143.344 155.136C143.262 155.226 142.015 154.103 139.736 153.119C138.613 152.602 137.235 152.151 135.751 151.725C134.997 151.553 134.226 151.339 133.422 151.208L132.824 151.102C132.496 151.036 132.135 151.003 131.791 150.954L130.725 150.815L130.184 150.741L130.044 150.724C130.028 150.716 129.987 150.724 129.995 150.708L130.044 150.667L130.257 150.519C130.831 150.118 131.413 149.732 132.012 149.289C132.381 149.019 132.422 148.961 132.602 148.814C132.75 148.683 132.914 148.56 133.053 148.429C133.332 148.15 133.603 147.863 133.873 147.592C134.119 147.289 134.357 146.994 134.595 146.707C135.497 145.501 136.12 144.222 136.546 143.099C136.989 141.976 137.194 140.983 137.333 140.295C137.415 139.95 137.432 139.672 137.465 139.491C137.489 139.303 137.506 139.204 137.506 139.204C137.506 139.204 137.522 139.106 137.555 138.917C137.571 138.729 137.604 138.45 137.637 138.105C137.719 137.4 137.743 136.392 137.694 135.178C137.645 134.571 137.596 133.916 137.481 133.235C137.374 132.546 137.153 131.833 136.981 131.095C136.874 130.726 136.825 130.332 136.678 129.972C136.538 129.603 136.399 129.234 136.251 128.865C136.104 128.496 135.981 128.102 135.808 127.741L135.226 126.675C133.668 123.806 131.118 121.6 129.175 120.058C127.224 118.501 125.854 117.533 125.92 117.443C125.944 117.402 126.313 117.607 126.945 117.984C127.576 118.361 128.462 118.911 129.495 119.64C131.545 121.067 134.283 123.215 136.054 126.2L136.71 127.307C136.907 127.684 137.055 128.086 137.219 128.471C137.383 128.865 137.547 129.25 137.702 129.627C137.875 130.004 137.94 130.414 138.063 130.792C138.268 131.57 138.514 132.3 138.654 133.03C138.801 133.76 138.875 134.457 138.941 135.096C139.031 136.384 139.023 137.466 138.957 138.22C138.924 138.597 138.9 138.893 138.883 139.098C138.85 139.294 138.842 139.409 138.842 139.409C138.842 139.409 138.826 139.516 138.793 139.713C138.752 139.909 138.727 140.204 138.629 140.573C138.457 141.311 138.211 142.369 137.702 143.566C137.21 144.763 136.497 146.124 135.48 147.404C135.218 147.715 134.939 148.027 134.669 148.338C134.365 148.625 134.062 148.92 133.75 149.216C133.595 149.355 133.414 149.486 133.25 149.617C133.111 149.732 132.84 149.945 132.865 149.921L132.545 150.109C132.43 150.159 132.553 150.15 132.594 150.167L132.775 150.208C133.045 150.273 133.316 150.331 133.586 150.388C134.406 150.552 135.185 150.806 135.948 151.02C137.448 151.52 138.834 152.053 139.949 152.659C140.515 152.946 141.023 153.225 141.441 153.537C141.868 153.832 142.253 154.062 142.516 154.324C143.081 154.808 143.376 155.103 143.344 155.136Z" fill="#4A4A4C"/>
</g>
<g opacity="0.6">
<path opacity="0.6" d="M136.169 162.105C136.063 162.113 135.948 161.761 135.718 161.285C135.505 160.801 135.079 160.252 134.603 159.768C134.119 159.285 133.529 158.907 133.094 158.629C132.635 158.374 132.332 158.21 132.332 158.21C132.332 158.21 131.151 157.448 129.823 156.849C128.511 156.234 127.117 155.726 127.158 155.546C127.199 155.365 128.691 155.546 130.151 155.956C130.881 156.161 131.602 156.415 132.135 156.644C132.668 156.866 133.012 157.046 133.012 157.054C133.012 157.054 133.34 157.267 133.808 157.62C134.267 157.989 134.865 158.506 135.333 159.153C135.8 159.801 136.145 160.539 136.227 161.129C136.317 161.712 136.251 162.097 136.169 162.105Z" fill="#4A4A4C"/>
</g>
<g opacity="0.6">
<path opacity="0.6" d="M142.729 160.67C142.68 160.662 142.639 160.555 142.606 160.383C142.548 160.211 142.573 159.965 142.45 159.703C142.335 159.153 141.876 158.555 141.335 158.079C140.794 157.587 140.097 157.259 139.588 157.021C139.326 156.915 139.105 156.825 138.949 156.759C138.793 156.702 138.695 156.669 138.695 156.669C138.695 156.669 138.604 156.628 138.457 156.554C138.301 156.48 138.088 156.382 137.809 156.275C137.268 156.046 136.522 155.783 135.767 155.546C134.251 155.062 132.668 154.709 132.693 154.521C132.709 154.34 134.349 154.357 135.981 154.619C136.792 154.75 137.612 154.922 138.211 155.103C138.514 155.185 138.76 155.267 138.941 155.332C139.113 155.39 139.219 155.431 139.219 155.431C139.219 155.431 139.318 155.472 139.482 155.554C139.646 155.644 139.884 155.767 140.162 155.923C140.712 156.259 141.45 156.726 142.024 157.415C142.598 158.087 143.016 158.948 142.975 159.629C143.032 159.957 142.917 160.227 142.885 160.408C142.827 160.58 142.778 160.678 142.729 160.67Z" fill="#4A4A4C"/>
</g>
<g opacity="0.6">
<path opacity="0.6" d="M158.308 117.828C158.406 117.812 158.726 119.083 159.259 120.985C159.775 122.887 160.546 125.413 160.989 128.053C161.464 130.685 161.382 133.456 160.899 135.449C160.767 135.941 160.644 136.4 160.53 136.802C160.39 137.195 160.259 137.531 160.161 137.81C160.062 138.097 159.972 138.31 159.898 138.45C159.833 138.597 159.792 138.671 159.792 138.671C159.792 138.671 159.636 138.975 159.365 139.507C159.062 140.024 158.652 140.77 158.045 141.582C156.881 143.255 154.921 145.206 152.675 146.666C150.444 148.158 148.058 149.298 146.312 150.208C144.549 151.101 143.393 151.725 143.344 151.643C143.294 151.569 144.369 150.79 146.058 149.749C147.739 148.699 150.051 147.42 152.133 145.887C154.241 144.37 155.995 142.476 157.037 140.869C157.578 140.081 157.947 139.368 158.209 138.884C158.447 138.384 158.578 138.097 158.578 138.097C158.578 138.097 158.611 138.023 158.685 137.892C158.759 137.761 158.849 137.564 158.947 137.302C159.054 137.048 159.177 136.736 159.324 136.375C159.439 136.006 159.562 135.588 159.702 135.137C160.21 133.309 160.39 130.734 160.054 128.168C159.751 125.593 159.119 123.035 158.759 121.092C158.373 119.156 158.226 117.845 158.308 117.828Z" fill="#4A4A4C"/>
</g>
<g opacity="0.6">
<path opacity="0.6" d="M166.917 155.956C166.819 155.947 166.737 155.636 166.638 155.201C166.491 154.775 166.335 154.209 165.982 153.774C165.654 153.332 165.244 152.971 164.892 152.766C164.539 152.553 164.285 152.438 164.285 152.438C164.285 152.438 164.228 152.405 164.121 152.34C164.014 152.282 163.867 152.184 163.67 152.094C163.285 151.897 162.727 151.692 162.153 151.52C160.997 151.175 159.742 151.019 159.742 150.831C159.734 150.65 161.013 150.462 162.325 150.577C162.981 150.642 163.637 150.765 164.121 150.937C164.367 151.003 164.564 151.101 164.703 151.151C164.843 151.208 164.925 151.241 164.925 151.241C164.925 151.241 165.228 151.421 165.638 151.757C166.048 152.085 166.523 152.659 166.819 153.299C167.138 153.938 167.171 154.652 167.163 155.144C167.106 155.652 167.007 155.964 166.917 155.956Z" fill="#4A4A4C"/>
</g>
<g opacity="0.6">
<path opacity="0.6" d="M171.427 154.111C171.345 154.078 171.353 153.758 171.41 153.324C171.418 152.881 171.459 152.315 171.287 151.815C171.131 151.315 170.869 150.897 170.574 150.634C170.451 150.487 170.312 150.396 170.221 150.323C170.131 150.249 170.082 150.208 170.082 150.208C170.082 150.208 170.033 150.167 169.943 150.085C169.852 150.011 169.738 149.888 169.565 149.773C169.246 149.511 168.745 149.224 168.229 148.937C167.188 148.387 166.04 147.937 166.089 147.748C166.138 147.576 167.36 147.699 168.581 148.051C169.188 148.24 169.795 148.469 170.23 148.724C170.451 148.83 170.623 148.961 170.754 149.043C170.877 149.125 170.951 149.175 170.951 149.175C170.951 149.175 171.008 149.24 171.115 149.347C171.213 149.462 171.377 149.601 171.525 149.831C171.861 150.241 172.156 150.938 172.214 151.634C172.361 153.102 171.55 154.184 171.427 154.111Z" fill="#4A4A4C"/>
</g>
<g opacity="0.6">
<path opacity="0.6" d="M133.709 147.756C133.775 147.822 133.455 148.24 132.922 148.838C132.356 149.396 131.561 150.134 130.618 150.675C129.692 151.241 128.658 151.659 127.863 151.856C127.47 151.979 127.133 152.036 126.896 152.085C126.658 152.135 126.527 152.159 126.527 152.159C126.527 152.159 125.977 152.208 125.174 152.217C124.362 152.233 123.304 152.151 122.255 152.028C120.164 151.766 118.122 151.421 118.13 151.241C118.139 151.044 120.246 151.052 122.312 151.077C123.345 151.069 124.37 151.052 125.116 150.979C125.871 150.905 126.354 150.823 126.354 150.823C126.354 150.823 126.477 150.806 126.691 150.782C126.904 150.757 127.215 150.733 127.576 150.651C128.306 150.536 129.257 150.249 130.167 149.831C131.094 149.437 131.93 148.863 132.578 148.437C133.201 147.986 133.644 147.691 133.709 147.756Z" fill="#4A4A4C"/>
</g>
<g opacity="0.6">
<path opacity="0.6" d="M172.042 132.382C172.124 132.415 171.878 133.218 171.394 134.375C170.902 135.531 170.139 137.023 169.213 138.433C168.278 139.827 167.22 141.164 166.327 142.074C165.909 142.549 165.499 142.894 165.236 143.156C164.966 143.41 164.81 143.558 164.81 143.558C164.81 143.558 164.638 143.689 164.342 143.911C164.039 144.124 163.637 144.476 163.096 144.812C162.055 145.55 160.563 146.37 159.029 147.059C157.48 147.731 155.864 148.223 154.643 148.502C153.413 148.765 152.584 148.855 152.568 148.773C152.543 148.674 153.339 148.412 154.495 147.994C155.651 147.568 157.176 146.953 158.619 146.19C160.054 145.411 161.423 144.542 162.375 143.788C162.875 143.443 163.236 143.082 163.514 142.869C163.785 142.64 163.941 142.517 163.941 142.517C163.941 142.517 164.096 142.385 164.359 142.156C164.621 141.918 165.023 141.615 165.449 141.18C166.343 140.36 167.425 139.155 168.434 137.868C169.426 136.572 170.295 135.186 170.927 134.12C171.55 133.071 171.952 132.341 172.042 132.382Z" fill="#4A4A4C"/>
</g>
<path opacity="0.25" d="M163.432 156.161C172.493 154.972 176.109 152.586 174.813 149.986C169.885 152.545 158.923 154.857 155.372 152.741C152.15 150.831 159.316 147.879 163.859 146.346C162.17 146.477 160.981 146.731 160.981 146.731C160.981 146.731 175.157 137.786 173.124 126.413C171.222 132.349 164.26 137.171 164.26 134.563C164.26 131.423 159.07 121.854 159.07 121.854C159.07 121.854 162.211 133.883 155.11 140.303C148.001 146.723 138.711 142.353 138.982 137.023C139.252 131.693 135.972 126.634 135.972 126.634C135.972 126.634 138.572 131.825 136.382 137.023C134.193 142.213 120.533 141.943 114.793 124.175C109.054 106.406 118.622 88.9169 134.472 91.3768C145.738 93.1233 153.757 90.5978 157.455 88.9825C157.512 88.4004 157.594 87.8264 157.709 87.2771C157.783 86.8917 157.799 86.5309 157.766 86.1783C155.495 84.3663 153.273 82.7756 151.092 81.4063C140.252 78.7742 119.934 81.0701 118.77 83.9973C118.77 83.9973 101.551 106.136 104.421 131.144C107.291 156.152 114.26 157.382 122.87 160.252C131.479 163.122 145.008 162.302 145.008 158.202C145.008 158.202 142.991 159.612 136.669 159.981C130.348 160.342 123.55 157.382 121.5 155.062C119.696 153.012 135.8 152.774 141.253 153.02C140.17 152.381 139.269 152.053 139.269 152.053C139.269 152.053 144.598 151.028 144.598 152.258C144.598 153.488 147.853 158.21 163.432 156.161Z" fill="#4A4A4C"/>
<path d="M154.724 115.811C155.446 110.687 149.091 109.965 149.091 109.965L150.838 107.604C148.886 105.964 144.787 110.99 144.787 110.99C142.704 110.859 140.81 109.842 139.219 108.555C138.662 108.104 137.67 106.702 136.85 106.825C135.931 106.964 136.505 108.333 136.85 108.874C137.317 109.604 138.039 110.113 138.498 110.826C137.883 110.621 136.456 109.981 135.972 110.646C135.308 111.556 137.038 112.72 137.53 113.237C136.973 112.9 134.652 112.171 134.185 112.827C133.455 113.851 136.604 115.664 137.12 116.164C135.423 116.246 133.685 116.049 131.996 116.106C130.339 116.164 132.078 117.787 132.766 117.82L132.734 118.271C138.9 119.657 144.073 117.853 144.073 117.853C145.91 121.018 150.502 118.993 150.535 118.984C150.026 119.214 150.559 121.723 151.74 121.387C153.429 120.903 154.52 117.246 154.724 115.811Z" fill="#4A4A4C"/>
<path opacity="0.45" d="M154.724 115.811C155.446 110.687 149.091 109.965 149.091 109.965L150.838 107.604C148.886 105.964 144.787 110.99 144.787 110.99C142.704 110.859 140.81 109.842 139.219 108.555C138.662 108.104 137.67 106.702 136.85 106.825C135.931 106.964 136.505 108.333 136.85 108.874C137.317 109.604 138.039 110.113 138.498 110.826C137.883 110.621 136.456 109.981 135.972 110.646C135.308 111.556 137.038 112.72 137.53 113.237C136.973 112.9 134.652 112.171 134.185 112.827C133.455 113.851 136.604 115.664 137.12 116.164C135.423 116.246 133.685 116.049 131.996 116.106C130.339 116.164 132.078 117.787 132.766 117.82L132.734 118.271C138.9 119.657 144.073 117.853 144.073 117.853C145.91 121.018 150.502 118.993 150.535 118.984C150.026 119.214 150.559 121.723 151.74 121.387C153.429 120.903 154.52 117.246 154.724 115.811Z" fill="#4A4A4C"/>
<g opacity="0.5">
<path opacity="0.5" d="M148.927 110.367C149.239 110.334 149.493 110.358 149.493 110.358C149.493 110.358 149.698 110.244 149.969 110.145C149.444 110.022 149.083 109.973 149.083 109.973L149.739 109.088C149.444 109.03 149.198 109.038 149.198 109.038C149.198 109.038 148.755 109.227 148.452 109.539C148.148 109.867 148.001 110.26 148.132 110.383C148.263 110.514 148.624 110.399 148.927 110.367Z" fill="#4A4A4C"/>
<path opacity="0.5" d="M153.117 112.113C152.371 111.941 151.666 112.121 151.682 112.294C151.691 112.49 152.289 112.671 152.748 112.991C152.962 113.187 153.183 113.327 153.298 113.499C153.429 113.646 153.511 113.745 153.511 113.745C153.511 113.745 153.609 113.827 153.757 113.958C153.929 114.073 154.068 114.294 154.265 114.507C154.47 114.803 154.618 115.147 154.749 115.36C154.823 114.122 154.478 113.163 153.913 112.425C153.691 112.31 153.396 112.212 153.117 112.113Z" fill="#4A4A4C"/>
<path opacity="0.5" d="M153.798 118.361C153.88 117.517 153.601 116.688 153.601 116.688C153.601 116.688 153.486 116.516 153.306 116.246C153.15 115.975 152.814 115.696 152.527 115.418C151.855 114.901 151.059 114.721 151.002 114.885C150.928 115.065 151.477 115.524 151.83 116.073C151.978 116.377 152.166 116.631 152.224 116.869C152.306 117.09 152.363 117.238 152.363 117.238C152.371 117.238 152.429 117.377 152.535 117.582C152.666 117.787 152.724 118.082 152.839 118.402C152.978 119.025 152.863 119.714 153.044 119.812C153.076 119.837 153.134 119.812 153.199 119.755C153.33 119.575 153.453 119.386 153.568 119.181C153.675 118.943 153.765 118.664 153.798 118.361Z" fill="#4A4A4C"/>
</g>
<path d="M128.486 91.5244C129.355 93.5579 130.331 95.5421 131.389 97.469C131.922 98.4365 132.479 99.3795 133.07 100.306L133.963 101.692C134.267 102.143 134.554 102.61 134.865 103.061C136.104 104.857 137.506 106.554 139.137 107.964C139.555 108.309 139.974 108.645 140.416 108.94C140.638 109.096 140.859 109.243 141.097 109.366C141.327 109.498 141.556 109.637 141.802 109.744C142.278 109.981 142.77 110.162 143.278 110.318C143.532 110.375 143.786 110.449 144.041 110.498L144.82 110.596L144.475 110.744C145.303 109.768 146.189 108.866 147.214 108.071C147.73 107.677 148.28 107.317 148.927 107.071C149.255 106.956 149.608 106.866 150.002 106.882C150.198 106.89 150.395 106.931 150.584 106.997C150.772 107.071 150.944 107.177 151.1 107.3C151.272 107.431 151.297 107.677 151.166 107.858L149.428 110.211L149.141 109.563C149.542 109.612 149.903 109.694 150.272 109.793C150.641 109.891 151.002 110.006 151.363 110.145C151.723 110.277 152.068 110.449 152.412 110.629C152.748 110.826 153.076 111.031 153.38 111.285C153.544 111.4 153.675 111.547 153.814 111.687C153.962 111.826 154.093 111.966 154.208 112.13C154.47 112.433 154.651 112.802 154.823 113.163C154.905 113.351 154.946 113.548 155.011 113.737C155.077 113.925 155.118 114.122 155.126 114.327C155.151 114.524 155.175 114.721 155.192 114.926L155.159 115.516L155.143 115.811C155.134 115.951 155.11 116.008 155.093 116.106L154.995 116.648C154.921 117.008 154.798 117.394 154.692 117.763C154.552 118.115 154.429 118.484 154.249 118.82C154.093 119.173 153.88 119.493 153.675 119.821C153.24 120.452 152.724 121.034 152.142 121.534C151.756 121.879 149.805 122.961 149.78 121.813C149.772 121.493 150.977 119.46 150.174 119.206L150.69 119.378C150.092 119.632 149.501 119.796 148.886 119.919C148.583 119.985 148.263 120.017 147.952 120.042C147.632 120.067 147.312 120.067 146.992 120.042C146.828 120.042 146.673 120.001 146.509 119.976C146.345 119.96 146.189 119.919 146.033 119.87C145.713 119.796 145.41 119.64 145.115 119.493L144.697 119.206C144.557 119.116 144.451 118.976 144.328 118.87C144.065 118.648 143.918 118.345 143.721 118.082L144.213 118.263C143.171 118.591 142.155 118.804 141.105 118.96C140.58 119.05 140.056 119.083 139.531 119.148L137.948 119.23L136.366 119.206L134.783 119.066C134.259 119.017 133.742 118.894 133.217 118.812C132.693 118.738 132.184 118.574 131.676 118.443C131.159 118.312 130.651 118.173 130.167 117.943C129.683 117.73 129.183 117.541 128.716 117.312L127.33 116.541C126.855 116.311 126.453 115.959 126.018 115.664C125.6 115.344 125.141 115.09 124.772 114.712L123.608 113.655C123.206 113.327 122.894 112.9 122.542 112.507L121.525 111.326L122.632 112.417C123.009 112.777 123.345 113.163 123.772 113.466L124.985 114.425C125.37 114.77 125.846 114.983 126.272 115.27C126.715 115.524 127.125 115.836 127.601 116.033L128.986 116.688C129.454 116.885 129.946 117.033 130.429 117.205C130.905 117.385 131.397 117.517 131.889 117.648C132.381 117.787 132.865 117.943 133.373 118.009C133.873 118.091 134.373 118.205 134.882 118.255L136.407 118.394L137.932 118.419L139.457 118.345C139.965 118.279 140.474 118.255 140.974 118.164C141.982 118.025 142.991 117.795 143.934 117.508C144.106 117.459 144.278 117.517 144.385 117.648L144.418 117.689C144.582 117.894 144.697 118.148 144.902 118.312C145 118.394 145.082 118.509 145.188 118.574L145.516 118.796C145.754 118.911 145.984 119.034 146.254 119.091C146.386 119.132 146.509 119.165 146.648 119.181C146.787 119.198 146.919 119.23 147.058 119.23C147.337 119.255 147.616 119.247 147.894 119.23C148.173 119.206 148.452 119.173 148.739 119.116C149.288 119.009 149.862 118.845 150.379 118.624C150.567 118.542 150.789 118.624 150.887 118.796C151.076 119.132 151.149 119.493 151.166 119.837C151.182 120.181 151.133 120.509 151.059 120.821C150.994 121.133 150.895 121.436 150.781 121.723C150.666 122.018 150.543 122.289 150.379 122.584L149.887 121.994C150.174 121.879 150.494 121.707 150.781 121.526C151.067 121.338 151.354 121.141 151.617 120.911C152.15 120.46 152.609 119.935 153.003 119.362C153.183 119.066 153.372 118.771 153.519 118.451C153.691 118.148 153.79 117.812 153.929 117.492C154.027 117.156 154.134 116.852 154.2 116.492L154.298 115.951C154.306 115.869 154.347 115.746 154.339 115.705L154.355 115.45L154.388 114.942L154.331 114.442C154.323 114.27 154.29 114.114 154.232 113.958C154.183 113.802 154.15 113.638 154.085 113.491C153.937 113.196 153.798 112.9 153.577 112.646C153.486 112.507 153.372 112.384 153.249 112.269C153.126 112.154 153.019 112.023 152.88 111.933C152.617 111.711 152.33 111.531 152.027 111.359C151.723 111.203 151.412 111.047 151.084 110.924C150.756 110.793 150.42 110.687 150.084 110.596C149.747 110.506 149.387 110.432 149.059 110.391C148.837 110.367 148.673 110.162 148.706 109.932C148.714 109.858 148.747 109.793 148.78 109.744L150.518 107.39L150.584 107.948C150.494 107.882 150.403 107.825 150.305 107.784C150.198 107.751 150.092 107.727 149.977 107.718C149.739 107.71 149.485 107.768 149.223 107.858C148.706 108.054 148.198 108.374 147.722 108.735C146.771 109.465 145.902 110.35 145.123 111.269L145.106 111.293C145.024 111.392 144.901 111.433 144.779 111.416L143.909 111.31C143.622 111.26 143.344 111.178 143.065 111.113C142.507 110.949 141.966 110.744 141.458 110.49C141.195 110.375 140.949 110.227 140.703 110.08C140.449 109.94 140.211 109.793 139.982 109.621C139.506 109.309 139.063 108.948 138.629 108.587C136.915 107.112 135.48 105.365 134.209 103.528C132.898 101.716 131.914 99.6993 130.962 97.6986C130.003 95.6815 129.167 93.6235 128.486 91.5244Z" fill="#4A4A4C"/>
<path d="M134.529 130.742C134.324 130.767 134.037 129.693 133.553 128.725C133.07 127.758 132.463 126.864 132.463 126.864C132.463 126.864 131.963 125.888 131.454 124.888C130.93 123.888 130.47 122.838 130.626 122.74C130.79 122.641 131.52 123.494 132.25 124.363C132.98 125.232 133.635 126.192 133.635 126.192C133.635 126.192 134.16 127.249 134.447 128.397C134.742 129.562 134.693 130.726 134.529 130.742Z" fill="#C7C7C7"/>
<path d="M130.635 130.127C130.454 130.168 130.2 129.931 130.003 129.717C129.765 129.496 129.585 129.283 129.585 129.283C129.585 129.283 129.511 128.988 129.478 128.651C129.437 128.315 129.446 127.963 129.61 127.881C129.774 127.799 130.069 127.996 130.315 128.209C130.569 128.43 130.782 128.684 130.782 128.684C130.782 128.684 130.856 129.029 130.881 129.373C130.881 129.734 130.815 130.086 130.635 130.127Z" fill="#C7C7C7"/>
<path d="M133.094 145.911C132.922 145.821 133.472 144.247 133.832 142.631C133.972 141.82 134.16 141.016 134.201 140.401C134.275 139.794 134.324 139.384 134.324 139.384C134.324 139.384 134.382 138.983 134.472 138.376C134.595 137.769 134.611 136.957 134.693 136.129C134.751 134.489 134.537 132.833 134.734 132.776C134.898 132.727 135.456 134.358 135.644 136.097C135.685 136.957 135.767 137.827 135.71 138.474C135.677 139.122 135.661 139.557 135.661 139.557C135.661 139.557 135.562 139.983 135.423 140.614C135.3 141.254 135.013 142.074 134.742 142.886C134.136 144.526 133.25 145.993 133.094 145.911Z" fill="#C7C7C7"/>
<path d="M130.43 141.607C130.069 141.516 130.085 140.213 130.085 140.213C130.085 140.213 130.684 139.057 131.045 139.147C131.405 139.237 131.389 140.541 131.389 140.541C131.389 140.541 130.79 141.697 130.43 141.607Z" fill="#C7C7C7"/>
<path d="M164.662 123.773C164.482 123.806 164.236 123.445 164.031 123.084C163.924 122.912 163.826 122.731 163.76 122.6C163.695 122.469 163.645 122.387 163.645 122.387C163.645 122.387 163.596 122.018 163.572 121.616C163.514 121.239 163.481 120.796 163.637 120.698C163.793 120.6 164.137 120.887 164.441 121.231C164.711 121.584 164.925 121.985 164.925 121.985C164.925 121.985 164.941 122.092 164.949 122.264C164.957 122.428 164.966 122.649 164.957 122.871C164.933 123.305 164.843 123.74 164.662 123.773Z" fill="#C7C7C7"/>
<path d="M169.787 129.922C169.697 129.922 169.582 129.594 169.475 129.111C169.418 128.873 169.377 128.586 169.303 128.291C169.213 128.004 169.123 127.692 169.033 127.389C168.967 127.077 168.803 126.798 168.705 126.52C168.59 126.249 168.5 125.987 168.368 125.782C168.147 125.363 167.999 125.085 167.999 125.085C167.999 125.085 167.868 124.79 167.671 124.347C167.466 123.896 167.188 123.297 166.909 122.69C166.343 121.461 165.941 120.157 166.105 120.091C166.286 120.017 166.974 121.149 167.737 122.223C168.114 122.772 168.5 123.314 168.762 123.765C169.033 124.199 169.205 124.503 169.205 124.503C169.205 124.503 169.328 124.831 169.516 125.322C169.623 125.56 169.688 125.864 169.762 126.183C169.828 126.503 169.943 126.839 169.959 127.192C169.992 127.536 170.016 127.881 170.049 128.209C170.066 128.528 170.016 128.832 170 129.094C169.951 129.586 169.885 129.922 169.787 129.922Z" fill="#C7C7C7"/>
<path d="M166.302 135.867C166.122 135.818 166.073 135.186 166.064 134.588C165.991 133.981 165.966 133.399 165.966 133.399C165.966 133.399 166.032 132.817 166.146 132.21C166.212 131.603 166.327 130.972 166.507 130.947C166.696 130.923 166.917 131.529 167.097 132.153C167.229 132.784 167.311 133.44 167.311 133.44C167.311 133.44 167.188 134.088 167.007 134.711C166.769 135.334 166.482 135.916 166.302 135.867Z" fill="#C7C7C7"/>
<path d="M156.053 97.5346C155.872 97.5756 155.594 96.854 155.356 96.1079C155.184 95.3535 155.077 94.5664 155.077 94.5664C155.077 94.5664 155.192 93.7792 155.356 93.0249C155.594 92.2705 155.872 91.5572 156.053 91.5982C156.233 91.6392 156.291 92.4017 156.299 93.1315C156.381 93.8694 156.422 94.5746 156.422 94.5746C156.422 94.5746 156.381 95.2797 156.299 96.0177C156.291 96.731 156.233 97.4936 156.053 97.5346Z" fill="#C7C7C7"/>
<path d="M158.923 110.039C158.767 110.121 158.029 109.038 157.504 107.833C156.987 106.628 156.651 105.357 156.651 105.357C156.651 105.357 156.471 104.07 156.397 102.782C156.323 101.503 156.274 100.224 156.463 100.191C156.643 100.158 157.028 101.388 157.34 102.635C157.66 103.865 157.971 105.078 157.971 105.078C157.971 105.078 158.144 106.308 158.414 107.53C158.685 108.751 159.103 109.949 158.923 110.039Z" fill="#C7C7C7"/>
<path d="M131.864 106.349C131.733 106.472 130.823 105.709 130.077 104.775C129.331 103.848 128.749 102.807 128.749 102.807C128.749 102.807 128.306 101.692 128.043 100.527C127.789 99.3548 127.789 98.1659 127.961 98.1495C128.15 98.1249 128.486 99.2154 128.945 100.24C129.413 101.265 129.962 102.225 129.962 102.225C129.962 102.225 130.372 103.258 130.872 104.258C131.381 105.258 132.004 106.218 131.864 106.349Z" fill="#C7C7C7"/>
<path d="M135.349 109.219C135.267 109.391 134.767 109.284 134.25 109.12C133.775 108.899 133.308 108.596 133.308 108.596C133.308 108.596 133.004 108.128 132.783 107.653C132.619 107.136 132.52 106.636 132.684 106.554C132.857 106.472 133.242 106.792 133.562 107.103C133.939 107.374 134.259 107.636 134.259 107.636C134.259 107.636 134.521 107.956 134.792 108.333C135.111 108.661 135.431 109.055 135.349 109.219Z" fill="#86858D"/>
<path d="M132.889 110.859C132.734 110.957 132.43 110.859 132.201 110.76C131.93 110.678 131.717 110.58 131.717 110.58C131.717 110.58 131.569 110.375 131.43 110.121C131.282 109.867 131.143 109.58 131.249 109.424C131.356 109.268 131.676 109.284 131.979 109.342C132.283 109.416 132.57 109.539 132.57 109.539C132.57 109.539 132.758 109.809 132.889 110.104C133.004 110.432 133.045 110.76 132.889 110.859Z" fill="#86858D"/>
<path d="M170 42.4999C170 42.4999 177.535 25.6993 174.116 21.6734C172.066 19.2545 157.578 26.3389 151.346 34.5383C151.346 34.5383 163.465 44.0578 170 42.4999Z" fill="#605F65"/>
<path opacity="0.45" d="M174.116 21.6734C173.952 21.4848 173.706 21.3618 173.403 21.2798C173.755 25.3304 171.23 31.5619 163.572 31.6603C158.562 31.7259 157.807 29.8483 158.308 27.9214C155.635 29.8975 153.15 32.1687 151.354 34.5301C151.354 34.5301 163.473 44.0497 170.008 42.4918C170 42.5 177.535 25.6993 174.116 21.6734Z" fill="#232326"/>
<path d="M171.919 32.6278C171.738 32.5868 171.804 31.4471 171.902 30.332C171.951 29.2169 172.001 28.1182 172.001 28.1182C172.001 28.1182 172.148 27.0276 172.296 25.9125C172.394 24.7974 172.534 23.6659 172.722 23.6495C172.911 23.6413 173.108 24.7646 173.255 25.9125C173.337 27.0604 173.353 28.2247 173.353 28.2247C173.353 28.2247 173.14 29.3727 172.853 30.4878C172.493 31.5947 172.099 32.6688 171.919 32.6278Z" fill="#C7C7C7"/>
<path d="M99.4766 72.9363C99.4766 72.9363 122.845 94.2548 149.493 90.1551C176.141 86.0554 184.751 76.626 185.571 74.1662C186.391 71.7063 182.291 73.7562 182.291 73.7562C182.291 73.7562 187.621 69.6565 187.621 68.0166C187.621 66.3767 179.831 64.3268 179.831 64.3268C179.831 64.3268 176.551 49.5679 173.681 44.2382C170.812 38.9086 155.233 27.4294 134.324 32.349C113.416 37.2687 108.496 48.3379 106.446 52.8476C104.396 57.3573 100.706 63.5069 97.8367 65.5568C94.9669 67.6066 99.0666 70.8864 103.986 69.6565C103.986 69.6565 97.8367 71.2964 99.4766 72.9363Z" fill="#86858D"/>
<path d="M99.3781 71.8868C100.756 71.2062 102.486 70.7471 102.486 70.7471C101.797 70.9193 101.125 70.9931 100.477 71.0095C99.9931 71.28 99.5913 71.5752 99.3781 71.8868Z" fill="#86858D"/>
<path d="M187.621 68.0166C187.621 66.3767 179.831 64.3268 179.831 64.3268C179.831 64.3268 176.551 49.5679 173.681 44.2382C170.812 38.9086 155.233 27.4294 134.324 32.349C125.846 34.3415 119.992 37.3507 115.9 40.5239C119.893 37.7607 125.321 35.2106 132.824 33.4478C153.732 28.5281 169.311 40.0073 172.181 45.3369C175.051 50.6666 178.331 65.4256 178.331 65.4256C178.331 65.4256 186.12 67.4754 186.12 69.1153C186.12 70.7552 180.79 74.8549 180.79 74.8549C180.79 74.8549 184.89 72.8051 184.07 75.2649C183.783 76.1258 182.545 77.8313 179.921 79.873C183.586 77.3639 185.243 75.1829 185.579 74.1744C186.399 71.7145 182.299 73.7644 182.299 73.7644C182.299 73.7644 187.621 69.6565 187.621 68.0166Z" fill="#86858D"/>
<path d="M175.116 47.5344C164.227 48.215 161.792 70.0665 161.792 70.0665L155.643 70.4765C155.643 70.4765 148.263 53.2576 130.634 51.2078C113.006 49.1579 103.166 65.5568 103.166 65.5568C121.615 86.4654 153.183 74.1662 153.183 74.1662L164.662 73.3463C180.651 74.3056 183.111 66.1062 183.111 66.1062C183.111 66.1062 182.955 65.77 182.693 65.196C181.143 64.6795 179.831 64.3269 179.831 64.3269C179.831 64.3269 177.543 54.0366 175.116 47.5344Z" fill="#4A4A4C"/>
<path d="M166.523 76.9458C166.425 76.9048 166.122 77.4623 165.63 78.2249C165.097 78.9628 164.318 79.8894 163.342 80.5453C162.604 81.0291 161.809 81.3981 161.095 81.6277C161.128 81.3899 161.153 81.1275 161.177 80.8651C161.259 80.0042 161.292 79.135 161.292 79.135C161.292 79.135 161.136 78.2659 160.931 77.4131C160.644 76.5522 160.308 75.7405 160.136 75.7979C159.956 75.8471 159.956 76.7162 159.988 77.5443C159.947 78.3971 159.947 79.2252 159.947 79.2252C159.947 79.2252 160.062 80.0698 160.226 80.9143C160.292 81.2259 160.357 81.5375 160.431 81.808C160.423 81.808 160.415 81.808 160.415 81.8162C159.997 81.9392 159.619 81.9392 159.373 81.9884C159.119 82.0294 158.98 82.0294 158.98 82.0376C158.98 82.0376 158.832 82.0458 158.578 82.0704C158.324 82.0868 157.963 82.1524 157.52 82.1114C156.635 82.1442 155.462 81.931 154.314 81.5949C153.166 81.2341 152.1 80.6519 151.33 80.16C150.575 79.6434 150.075 79.258 150.001 79.3318C149.944 79.3892 150.313 79.9058 151.002 80.5699C151.707 81.2177 152.773 81.972 153.978 82.4886C155.183 82.9724 156.471 83.3167 157.463 83.3577C157.955 83.4315 158.373 83.3905 158.66 83.3905C158.947 83.3823 159.119 83.3823 159.119 83.3823C159.119 83.3823 159.283 83.3659 159.57 83.3003C159.849 83.2265 160.267 83.1937 160.743 83.0216C161.702 82.751 162.916 82.1442 163.932 81.3161C164.957 80.4715 165.687 79.3564 166.097 78.4955C166.466 77.5935 166.605 76.9704 166.523 76.9458Z" fill="#4A4A4C"/>
<path d="M161.973 76.8966C163.539 75.9372 169.008 71.5669 162.989 70.4436C156.963 69.3203 153.527 72.8051 154.823 74.1908C156.11 75.5847 159.267 78.5447 161.973 76.8966Z" fill="#6F3014"/>
<path opacity="0.45" d="M161.973 76.8966C163.539 75.9372 169.008 71.5669 162.989 70.4436C156.963 69.3203 153.527 72.8051 154.823 74.1908C156.11 75.5847 159.267 78.5447 161.973 76.8966Z" fill="#6F3014"/>
<path opacity="0.45" d="M160.046 73.215C157.889 73.4528 155.938 73.3134 154.692 72.9035C155.364 71.3784 158.43 69.5991 162.989 70.4518C164.293 70.6978 165.047 71.0914 165.433 71.567C164.359 72.3131 162.366 72.9527 160.046 73.215Z" fill="#6F3014"/>
<path d="M156.668 72.5263C156.709 72.9034 157.66 73.1002 158.783 72.9772C159.906 72.8542 160.784 72.4443 160.743 72.0671C160.702 71.6899 159.751 71.4931 158.619 71.6161C157.504 71.7391 156.627 72.1491 156.668 72.5263Z" fill="#6F3014"/>
<path d="M156.61 74.7647C156.578 74.8385 156.938 75.0517 157.283 75.2485C157.586 75.5027 157.898 75.7241 157.898 75.7241C157.898 75.7241 158.201 75.9537 158.537 76.175C158.808 76.4374 159.119 76.708 159.193 76.6752C159.267 76.6424 159.103 76.2898 158.89 75.9291C158.619 75.6175 158.324 75.3141 158.324 75.3141C158.324 75.3141 157.922 75.1009 157.529 74.9205C157.078 74.7893 156.643 74.6991 156.61 74.7647Z" fill="#6F3014"/>
<path d="M163.842 83.7349C163.908 83.7841 163.744 84.1613 163.375 84.6615C163.006 85.1616 162.415 85.752 161.735 86.244C161.046 86.7195 160.292 87.1131 159.701 87.3345C159.111 87.5641 158.709 87.6789 158.709 87.6789C158.709 87.6789 158.291 87.7608 157.676 87.8264C157.053 87.9002 156.225 87.9166 155.405 87.8756C153.757 87.7773 152.199 87.3263 152.232 87.1459C152.265 86.9573 153.855 87.0639 155.397 86.9245C156.946 86.8015 158.398 86.3751 158.398 86.3751C158.398 86.3751 158.767 86.3095 159.308 86.162C159.857 86.0226 160.562 85.7602 161.243 85.4322C161.915 85.0878 162.547 84.6533 163.006 84.3007C163.457 83.9317 163.76 83.6693 163.842 83.7349Z" fill="#4A4A4C"/>
<path d="M178.708 75.9127C178.634 75.7815 179.798 74.9042 180.856 73.9039C181.914 72.8953 182.906 71.8376 182.906 71.8376C182.906 71.8376 183.972 70.8455 185.054 69.8369C186.12 68.8202 187.21 67.8199 187.317 67.9183C187.415 68.0167 186.522 69.181 185.579 70.3289C184.636 71.4768 183.619 72.5592 183.619 72.5592C183.619 72.5592 182.52 73.5677 181.315 74.4532C180.102 75.3388 178.773 76.0275 178.708 75.9127Z" fill="#4A4A4C"/>
<path d="M177.371 79.9059C177.306 79.7665 178.404 79.0941 179.396 78.307C180.389 77.5116 181.323 76.6425 181.323 76.6425C181.323 76.6425 182.324 75.8471 183.332 75.0436C184.333 74.2318 185.374 73.4365 185.464 73.5431C185.554 73.6497 184.702 74.6172 183.816 75.5683C182.93 76.5195 181.971 77.4132 181.971 77.4132C181.971 77.4132 180.93 78.2168 179.798 78.8891C178.659 79.5697 177.429 80.0206 177.371 79.9059Z" fill="#4A4A4C"/>
<path d="M105.421 69.7631C105.421 69.9025 104.15 70.0419 102.863 69.9927C101.576 69.9681 100.28 69.6729 100.28 69.6729C100.28 69.6729 99.9685 69.5663 99.5011 69.3859C99.042 69.1809 98.4352 68.8939 97.9104 68.4758C97.3857 68.0576 96.9265 67.541 96.7133 67.0819C96.4919 66.6309 96.4427 66.2947 96.5001 66.2783C96.5739 66.2455 96.7461 66.5243 97.0413 66.8605C97.3201 67.2131 97.8038 67.582 98.304 67.8854C98.8124 68.1888 99.3863 68.3774 99.8127 68.5168C100.247 68.6316 100.542 68.7054 100.542 68.7054C100.542 68.7054 101.699 69.0825 102.928 69.2875C104.158 69.5007 105.421 69.6155 105.421 69.7631Z" fill="#4A4A4C"/>
<path d="M107.881 75.8061C107.848 75.9373 106.725 75.7241 105.585 75.4453C104.495 75.0682 103.404 74.65 103.404 74.65C103.404 74.65 102.404 74.0514 101.436 73.4201C100.501 72.7313 99.6077 72.018 99.6815 71.9032C99.7635 71.7884 100.788 72.2886 101.797 72.8051C102.838 73.2643 103.847 73.7399 103.847 73.7399C103.847 73.7399 104.839 74.24 105.839 74.773C106.872 75.2076 107.914 75.6667 107.881 75.8061Z" fill="#4A4A4C"/>
<path d="M169.992 46.3947C170.131 46.4931 168.426 49.0759 167.106 51.8555C166.507 53.274 165.843 54.6597 165.507 55.7585C165.13 56.8408 164.875 57.5624 164.875 57.5624C164.875 57.5624 164.646 58.2921 164.293 59.3908C163.9 60.4732 163.58 61.9819 163.186 63.4742C162.53 66.4833 162.161 69.5663 161.997 69.5581C161.932 69.5499 161.948 68.771 162.014 67.6067C162.047 66.4341 162.284 64.8927 162.481 63.343C162.784 61.8097 163.039 60.26 163.391 59.1366C163.703 58.0051 163.908 57.2426 163.908 57.2426C163.908 57.2426 164.195 56.5128 164.629 55.4223C165.023 54.3154 165.769 52.9297 166.458 51.5276C167.261 50.1829 168.024 48.8218 168.754 47.9034C169.459 46.9605 169.934 46.3537 169.992 46.3947Z" fill="#4A4A4C"/>
<path d="M170.197 49.9779C170.303 50.0681 169.295 51.421 168.327 52.7903C167.36 54.1596 166.474 55.5617 166.474 55.5617C166.474 55.5617 166.236 55.9061 165.884 56.4145C165.507 56.9146 165.105 57.628 164.67 58.3413C164.457 58.6939 164.301 59.0793 164.121 59.4237C164.031 59.5958 163.949 59.768 163.867 59.9238C163.801 60.0878 163.744 60.2436 163.695 60.3912C163.473 60.9734 163.301 61.3669 163.227 61.3505C163.162 61.3341 163.203 60.916 163.309 60.2764C163.342 60.1206 163.367 59.9402 163.408 59.7598C163.465 59.5877 163.531 59.3991 163.588 59.2105C163.727 58.8333 163.842 58.4151 164.022 58.0216C164.383 57.2426 164.744 56.4637 165.088 55.9143C165.408 55.3567 165.63 54.9878 165.63 54.9878C165.63 54.9878 166.638 53.6021 167.761 52.3393C168.893 51.0766 170.098 49.8877 170.197 49.9779Z" fill="#4A4A4C"/>
<path d="M136.071 49.9779C136.103 49.9205 136.932 50.3304 138.153 50.9864C138.752 51.3308 139.432 51.7736 140.17 52.2327C140.884 52.7247 141.646 53.2576 142.384 53.8152C143.844 54.9549 145.246 56.1849 146.238 57.1606C146.73 57.6526 147.148 58.0625 147.435 58.3495C147.714 58.6447 147.87 58.8169 147.87 58.8169C147.87 58.8169 150.346 61.5883 152.469 64.6303C153.552 66.1308 154.511 67.7297 155.167 68.9514C155.757 70.2223 156.118 71.0668 156.053 71.0914C155.987 71.116 155.503 70.3289 154.823 69.14C154.068 67.992 153.035 66.4833 151.887 65.0484C150.764 63.5971 149.567 62.2114 148.657 61.1783C148.214 60.6535 147.812 60.2436 147.542 59.9484C147.271 59.6532 147.115 59.4892 147.115 59.4892C147.115 59.4892 146.968 59.317 146.705 59.0137C146.435 58.7267 146.041 58.3085 145.574 57.8083C144.639 56.808 143.311 55.5535 141.933 54.3646C141.228 53.7824 140.515 53.2166 139.834 52.6919C139.137 52.1917 138.489 51.7244 137.932 51.3226C136.792 50.5682 136.038 50.0353 136.071 49.9779Z" fill="#4A4A4C"/>
<path d="M141.499 50.2894C141.556 50.2484 142.007 50.7732 142.647 51.5767C142.966 51.9785 143.327 52.4459 143.721 52.9542C144.122 53.4544 144.59 53.9546 145.033 54.4711C145.918 55.5043 146.828 56.5292 147.517 57.2999C148.198 58.0707 148.657 58.5872 148.657 58.5872C148.657 58.5872 149.075 59.1366 149.698 59.9566C150.01 60.3665 150.37 60.8503 150.756 61.3669C151.141 61.8834 151.502 62.5066 151.879 63.0887C152.543 64.3187 153.117 65.5568 153.56 66.4833C154.052 67.3688 154.372 67.9838 154.314 68.0248C154.257 68.0658 153.831 67.5246 153.216 66.6801C152.683 65.7946 151.969 64.6302 151.264 63.4659C150.854 62.9247 150.502 62.3754 150.092 61.8834C149.682 61.3915 149.296 60.9323 148.968 60.5387C148.312 59.7516 147.878 59.2268 147.878 59.2268C147.878 59.2268 147.451 58.6938 146.804 57.8903C146.156 57.095 145.303 56.0208 144.483 54.9139C144.073 54.3645 143.639 53.8234 143.278 53.2904C142.934 52.7492 142.606 52.2327 142.327 51.7981C141.777 50.9208 141.441 50.3222 141.499 50.2894Z" fill="#4A4A4C"/>
<path d="M149.493 45.2632C149.37 45.337 148.665 44.599 148.001 43.8693C147.238 43.2051 146.508 42.5328 146.508 42.5328C146.508 42.5328 145.795 41.8276 145.098 41.0897C144.368 40.3763 143.663 39.6384 143.745 39.5236C143.835 39.417 144.705 39.9582 145.557 40.5403C146.386 41.1553 147.197 41.803 147.197 41.803C147.197 41.803 147.886 42.5984 148.534 43.4019C149.108 44.2957 149.616 45.1894 149.493 45.2632Z" fill="#4A4A4C"/>
<path d="M150.723 42.3934C150.576 42.4262 150.231 41.516 149.739 40.7043C149.231 39.8925 148.657 39.13 148.657 39.13C148.657 39.13 148.165 38.3019 147.657 37.4573C147.148 36.6046 146.714 35.7026 146.828 35.6288C146.951 35.555 147.583 36.3012 148.23 37.0391C148.886 37.7771 149.493 38.5724 149.493 38.5724C149.493 38.5724 150.01 39.4416 150.379 40.3927C150.748 41.3602 150.846 42.3688 150.723 42.3934Z" fill="#4A4A4C"/>
<path d="M155.438 48.133C155.306 48.1822 154.65 46.7063 154.085 45.1894C153.519 43.6725 153.084 42.1064 153.084 42.1064C153.084 42.1064 152.765 40.5075 152.633 38.8758C152.519 37.2441 152.642 35.6206 152.773 35.6288C152.92 35.6288 153.052 37.2277 153.347 38.7856C153.658 40.3435 154.068 41.8768 154.068 41.8768C154.068 41.8768 154.388 43.4265 154.765 44.9844C155.159 46.5341 155.577 48.0838 155.438 48.133Z" fill="#4A4A4C"/>
<path d="M158.717 50.3878C158.578 50.3878 158.471 48.8627 158.406 47.3294C158.398 45.7961 158.439 44.2546 158.439 44.2546C158.439 44.2546 158.685 42.7295 158.972 41.2208C159.373 39.7285 159.808 38.2608 159.939 38.2936C160.07 38.3264 159.89 39.8433 159.677 41.3356C159.562 42.8525 159.447 44.3448 159.447 44.3448C159.447 44.3448 159.283 45.8371 159.119 47.354C159.004 48.8709 158.857 50.3878 158.717 50.3878Z" fill="#4A4A4C"/>
<path d="M155.028 57.9723C154.896 58.0133 154.405 57.1688 153.954 56.3406C153.396 55.5535 152.879 54.7745 152.879 54.7745C152.879 54.7745 152.371 53.971 151.887 53.1346C151.346 52.3393 150.821 51.5112 150.928 51.421C151.035 51.3308 151.756 51.9949 152.453 52.7001C153.101 53.4462 153.724 54.2252 153.724 54.2252C153.724 54.2252 154.183 55.1189 154.593 56.0209C154.905 56.9802 155.159 57.9313 155.028 57.9723Z" fill="#4A4A4C"/>
<path d="M156.873 56.5374C156.61 56.6276 155.471 53.93 155.471 53.93C155.471 53.93 154.765 51.093 155.028 51.0028C155.29 50.9126 156.43 53.6102 156.43 53.6102C156.43 53.6102 157.143 56.4472 156.873 56.5374Z" fill="#4A4A4C"/>
<path d="M159.537 62.277C159.398 62.2934 159.177 61.1127 158.996 59.9074C158.922 58.7021 158.906 57.4722 158.906 57.4722C158.906 57.4722 159.127 56.2586 159.39 55.0779C159.792 53.9218 160.226 52.7985 160.357 52.8395C160.488 52.8887 160.308 54.0694 160.087 55.2173C159.997 56.3898 159.906 57.5541 159.906 57.5541C159.906 57.5541 159.808 58.7103 159.701 59.8828C159.71 61.0635 159.677 62.2606 159.537 62.277Z" fill="#4A4A4C"/>
<path d="M157.488 62.892C157.233 62.9986 156.52 61.7195 156.52 61.7195C156.52 61.7195 156.217 60.3666 156.463 60.2272C156.709 60.0878 157.479 61.3833 157.479 61.3833C157.479 61.3833 157.75 62.7854 157.488 62.892Z" fill="#4A4A4C"/>
<path d="M149.083 49.1579C148.985 49.2563 148.698 49.1251 148.435 48.953C148.165 48.7808 147.919 48.584 147.919 48.584C147.919 48.584 147.878 48.5184 147.837 48.4118C147.796 48.3052 147.738 48.1576 147.689 48.01C147.591 47.7148 147.533 47.3951 147.648 47.3213C147.763 47.2475 148.034 47.4115 148.271 47.5918C148.394 47.682 148.501 47.7804 148.583 47.8542C148.665 47.928 148.722 47.9772 148.722 47.9772C148.722 47.9772 148.854 48.215 148.968 48.4938C149.083 48.748 149.182 49.0596 149.083 49.1579Z" fill="#4A4A4C"/>
<path d="M151.953 59.2022C151.855 59.3006 151.559 59.1612 151.272 58.9808C151.01 58.7759 150.764 58.5299 150.764 58.5299C150.764 58.5299 150.649 58.1937 150.584 57.8657C150.559 57.5132 150.584 57.1852 150.723 57.1524C150.862 57.1196 151.076 57.3656 151.24 57.5869C151.453 57.7919 151.617 57.9969 151.617 57.9969C151.617 57.9969 151.723 58.2429 151.814 58.5299C151.945 58.7923 152.051 59.1038 151.953 59.2022Z" fill="#4A4A4C"/>
<path d="M162.202 50.1828C161.923 50.1582 162.153 47.8952 162.153 47.8952C162.153 47.8952 162.965 45.8043 163.227 45.8781C163.498 45.9601 163.137 48.1412 163.137 48.1412C163.137 48.1412 162.481 50.2074 162.202 50.1828Z" fill="#4A4A4C"/>
<path d="M159.742 68.2216C159.603 68.2216 159.505 67.7378 159.464 67.2212C159.472 66.7293 159.513 66.2209 159.513 66.2209C159.513 66.2209 159.701 65.7617 159.923 65.3272C160.161 64.9008 160.423 64.4908 160.562 64.5318C160.694 64.5728 160.669 65.0648 160.612 65.5404C160.571 66.0159 160.497 66.4669 160.497 66.4669C160.497 66.4669 160.357 66.8933 160.169 67.3278C160.046 67.7624 159.882 68.2216 159.742 68.2216Z" fill="#4A4A4C"/>
<path d="M157.078 67.1967C156.955 67.2541 156.651 66.9999 156.389 66.7457C156.126 66.4833 155.897 66.2209 155.897 66.2209C155.897 66.2209 155.216 64.909 155.438 64.7368C155.659 64.5646 156.725 65.647 156.725 65.647C156.725 65.647 156.881 66.0077 157.004 66.3849C157.127 66.7539 157.201 67.1393 157.078 67.1967Z" fill="#4A4A4C"/>
<path d="M131.733 56.6768C131.651 56.7342 131.446 56.6112 131.176 56.4718C130.897 56.3324 130.528 56.2504 130.167 56.275C129.798 56.2996 129.437 56.4308 129.167 56.5374C128.896 56.6686 128.724 56.7588 128.724 56.7588C128.724 56.7588 127.953 57.013 127.191 57.4475C126.428 57.8657 125.731 58.4233 125.584 58.3167C125.436 58.2019 125.912 57.3655 126.608 56.6932C126.953 56.357 127.33 56.0536 127.642 55.8486C127.953 55.6436 128.183 55.5207 128.183 55.5207C128.183 55.5207 128.429 55.4387 128.798 55.3485C129.183 55.2829 129.716 55.2091 130.257 55.3239C130.798 55.4469 131.274 55.7584 131.512 56.07C131.733 56.3816 131.799 56.6276 131.733 56.6768ZM173.46 51.8391C173.214 51.5357 172.911 51.257 172.632 51.1012C172.361 50.9372 172.148 50.8634 172.148 50.8634C172.148 50.8634 172.091 50.8552 171.992 50.847C171.894 50.8388 171.755 50.8142 171.591 50.8388C171.254 50.8388 170.812 50.9618 170.467 51.1832C169.738 51.6259 169.451 52.3475 169.59 52.4377C169.738 52.5607 170.287 52.1343 170.844 52.0605C171.115 52.0113 171.361 52.0195 171.533 52.0769C171.705 52.1179 171.812 52.1753 171.812 52.1671C171.812 52.1753 171.927 52.1753 172.115 52.2245C172.304 52.2655 172.558 52.3803 172.821 52.5361C173.345 52.8394 173.796 53.3478 173.96 53.2576C174.116 53.1838 173.952 52.4541 173.46 51.8391Z" fill="#86858D"/>
<path d="M135.948 73.5021C135.841 75.3633 132.635 76.6916 128.79 76.4703C124.944 76.2407 121.918 74.5434 122.033 72.6821C122.14 70.8208 125.346 69.4925 129.191 69.7139C133.029 69.9435 136.054 71.6326 135.948 73.5021Z" fill="#ED7590"/>
<path d="M180.028 67.0901C180.487 68.9022 178.224 71.0422 174.96 71.8704C171.697 72.6985 168.688 71.9114 168.221 70.0993C167.761 68.2872 170.024 66.1472 173.288 65.319C176.543 64.4827 179.56 65.278 180.028 67.0901Z" fill="#ED7590"/>
<path d="M127.543 67.0573C127.576 69.3941 128.724 71.2718 130.118 71.2554C131.512 71.239 132.619 69.3285 132.586 66.9917C132.553 64.6548 131.405 62.7772 130.011 62.7936C128.626 62.81 127.519 64.7204 127.543 67.0573Z" fill="#282828"/>
<path d="M127.543 67.0573C127.576 69.3941 128.724 71.2718 130.118 71.2554C131.512 71.239 132.619 69.3285 132.586 66.9917C132.553 64.6548 131.405 62.7772 130.011 62.7936C128.626 62.81 127.519 64.7204 127.543 67.0573Z" fill="#282828"/>
<path d="M128.568 63.6053C128.47 64.0809 128.404 64.5892 128.412 65.1222C128.445 67.459 129.593 69.3367 130.987 69.3203C131.536 69.3121 132.028 69.0087 132.438 68.5085C132.094 70.0992 131.2 71.2472 130.118 71.2636C128.724 71.28 127.568 69.4023 127.543 67.0654C127.527 65.6387 127.937 64.376 128.568 63.6053Z" fill="#333333"/>
<path d="M130.356 65.9668C130.364 66.8195 130.717 67.5083 131.143 67.5001C131.569 67.4919 131.905 66.8031 131.897 65.9504C131.889 65.0976 131.536 64.4089 131.11 64.4171C130.684 64.4171 130.348 65.114 130.356 65.9668Z" fill="#5C5C60"/>
<path d="M168.746 64.0891C168.778 66.4259 169.926 68.3036 171.32 68.2872C172.714 68.2708 173.821 66.3603 173.788 64.0235C173.755 61.6866 172.607 59.809 171.214 59.8254C169.828 59.8418 168.721 61.7522 168.746 64.0891Z" fill="#4A4A4C"/>
<path d="M168.746 64.0891C168.778 66.4259 169.926 68.3036 171.32 68.2872C172.714 68.2708 173.821 66.3603 173.788 64.0235C173.755 61.6866 172.607 59.809 171.214 59.8254C169.828 59.8418 168.721 61.7522 168.746 64.0891Z" fill="#282828"/>
<path d="M169.77 60.6288C169.672 61.1044 169.606 61.6128 169.615 62.1457C169.647 64.4826 170.795 66.3603 172.189 66.3439C172.739 66.3357 173.231 66.0323 173.641 65.5321C173.296 67.1228 172.402 68.2707 171.32 68.2871C169.926 68.3035 168.77 66.4258 168.745 64.089C168.729 62.6623 169.139 61.4078 169.77 60.6288Z" fill="#333333"/>
<path d="M171.558 62.9986C171.566 63.8513 171.919 64.5401 172.345 64.5319C172.771 64.5237 173.108 63.8349 173.099 62.9822C173.091 62.1294 172.739 61.4407 172.312 61.4489C171.886 61.4489 171.55 62.1458 171.558 62.9986Z" fill="#5C5C60"/>
<path opacity="0.45" d="M185.571 74.1662C186.391 71.7064 182.291 73.7562 182.291 73.7562C182.291 73.7562 187.621 69.6565 187.621 68.0166C187.621 67.3935 186.489 66.7047 185.087 66.098C184.71 68.9186 180.43 74.363 179.962 74.7074C179.413 75.1173 185.021 72.6575 184.611 74.158C184.201 75.6585 161.792 91.6474 140.334 88.7776C109.373 84.6369 107.881 75.7979 104.937 73.3381C102.002 70.8782 108.898 69.6483 109.586 69.3777C110.267 69.1072 104.937 67.0573 102.478 65.0074C100.346 63.2282 116.376 46.3701 113.932 42.172C109.39 46.3127 107.52 50.478 106.438 52.8477C104.388 57.3574 100.698 63.5069 97.8285 65.5568C94.9587 67.6067 99.0584 70.8864 103.978 69.6565C103.978 69.6565 97.8285 71.2964 99.4683 72.9363C99.4683 72.9363 122.837 94.2548 149.485 90.1551C176.133 86.0554 184.751 76.626 185.571 74.1662Z" fill="#86858D"/>
<path d="M110.144 46.4357C110.144 46.4357 99.78 29.9056 102.92 25.2893C104.806 22.5179 121.377 28.0854 129.183 35.8256C129.183 35.8256 117.392 47.2392 110.144 46.4357Z" fill="#4A4A4C"/>
<path opacity="0.5" d="M110.316 44.8368C110.316 44.8368 103.806 34.8335 105.765 32.0457C106.946 30.373 117.327 33.7593 122.222 38.4494C122.222 38.4576 114.859 45.3369 110.316 44.8368Z" fill="#4A4A4C"/>
<path d="M109.045 31.8407C108.406 35.3665 113.908 43.8201 113.908 43.8201C114.121 43.8447 114.35 43.8365 114.58 43.8283C118.409 42.0162 122.23 38.4576 122.23 38.4576C118.836 35.2107 112.817 32.5868 109.045 31.8407Z" fill="#ED7590"/>
<path opacity="0.45" d="M117.048 27.946C118.581 31.1356 119.081 35.0795 115.269 38.4003C111.759 41.4505 108.717 41.0979 106.422 39.7696C108.316 43.5085 110.152 46.4357 110.152 46.4357C117.401 47.2393 129.191 35.8338 129.191 35.8338C126.043 32.7099 121.492 29.9548 117.048 27.946Z" fill="#4A4A4C"/>
<path d="M114.555 29.2579C114.482 29.43 113.268 29.0611 112.087 28.6347C110.907 28.2329 109.751 27.8393 109.751 27.8393C109.751 27.8393 108.652 27.331 107.496 26.9456C106.34 26.5766 105.11 26.4126 105.11 26.2077C105.101 26.0355 106.389 25.8633 107.701 26.0109C108.996 26.1749 110.243 26.5766 110.243 26.5766C110.243 26.5766 111.415 27.1178 112.497 27.7656C113.571 28.4215 114.629 29.0857 114.555 29.2579Z" fill="#86858D"/>
<path d="M118.401 31.5045C118.196 31.8161 116.999 31.4963 116.999 31.4963C116.999 31.4963 116.031 30.7338 116.154 30.3812C116.277 30.0286 117.606 30.291 117.606 30.291C117.606 30.291 118.606 31.1848 118.401 31.5045Z" fill="#86858D"/>
<path d="M170.639 36.7931C170.287 36.6783 170.484 35.2762 170.484 35.2762C170.484 35.2762 171.254 34.0791 171.599 34.2267C171.943 34.3661 171.755 35.7436 171.755 35.7436C171.755 35.7436 170.992 36.8997 170.639 36.7931Z" fill="#4A4A4C"/>
<g opacity="0.6">
<g opacity="0.6">
<path opacity="0.6" d="M154.003 35.2189C153.954 35.3993 152.97 35.3501 152.018 35.2599C151.043 35.2271 150.092 35.1451 150.092 35.1451C150.092 35.1451 149.14 34.9319 148.189 34.6695C147.238 34.3743 146.312 34.0382 146.344 33.8578C146.385 33.6774 147.369 33.6774 148.329 33.7266C149.304 33.7512 150.28 33.8168 150.28 33.8168C150.28 33.8168 151.24 34.0464 152.191 34.3251C153.142 34.6531 154.06 35.0385 154.003 35.2189Z" fill="#86858D"/>
</g>
<g opacity="0.6">
<path opacity="0.6" d="M157.012 36.4488C156.905 36.6046 156.659 36.662 156.479 36.703C156.274 36.7686 156.126 36.7932 156.126 36.7932C156.126 36.7932 155.995 36.6948 155.848 36.539C155.7 36.4078 155.511 36.2274 155.511 36.0388C155.511 35.8502 155.716 35.6944 155.962 35.5879C156.2 35.5059 156.463 35.4813 156.463 35.4813C156.463 35.4813 156.684 35.6289 156.856 35.8256C157.02 36.047 157.119 36.3012 157.012 36.4488Z" fill="#86858D"/>
</g>
<g opacity="0.6">
<path opacity="0.6" d="M166.171 42.049C166.072 42.0736 165.933 41.8358 165.695 41.5324C165.474 41.2208 165.105 40.8683 164.728 40.5485C163.94 39.9171 163.014 39.458 163.014 39.458C163.014 39.458 162.178 38.8512 161.259 38.2936C160.349 37.7279 159.406 37.1539 159.488 36.9817C159.562 36.8177 160.62 37.0719 161.669 37.4327C162.719 37.7771 163.727 38.31 163.727 38.31C163.727 38.31 163.957 38.4822 164.293 38.7446C164.621 39.0234 165.056 39.4088 165.416 39.8761C165.769 40.3435 166.072 40.8601 166.179 41.2946C166.277 41.7374 166.244 42.0326 166.171 42.049Z" fill="#86858D"/>
</g>
<g opacity="0.6">
<path opacity="0.6" d="M176.691 76.4866C176.551 76.3718 177.183 75.4125 177.896 74.5352C178.626 73.6742 179.339 72.8297 179.339 72.8297C179.339 72.8297 180.167 72.1081 180.946 71.3456C181.717 70.583 182.381 69.7057 182.561 69.7877C182.725 69.8615 182.324 70.9602 181.692 71.9441C181.053 72.9117 180.298 73.7726 180.298 73.7726C180.298 73.7726 179.446 74.5188 178.568 75.2075C177.691 75.9045 176.838 76.6096 176.691 76.4866Z" fill="#86858D"/>
</g>
<g opacity="0.6">
<path opacity="0.6" d="M173.55 80.7257C173.353 80.4059 176.469 78.1757 176.469 78.1757C176.469 78.1757 179.913 76.4456 180.11 76.7654C180.307 77.0852 177.183 79.3236 177.183 79.3236C177.183 79.3236 173.747 81.0455 173.55 80.7257Z" fill="#86858D"/>
</g>
<g opacity="0.6">
<path opacity="0.6" d="M122.435 83.1856C122.41 83.3659 121.131 83.3249 119.86 83.1036C118.598 82.874 117.359 82.464 117.359 82.464C117.359 82.464 116.187 81.8982 115.121 81.1685C114.063 80.4223 113.161 79.4958 113.276 79.3564C113.399 79.2088 114.473 79.8402 115.597 80.3403C116.72 80.8323 117.868 81.2177 117.868 81.2177C117.868 81.2177 118.967 81.7342 120.114 82.1852C121.271 82.628 122.468 82.997 122.435 83.1856Z" fill="#C7C7C7"/>
</g>
<g opacity="0.6">
<path opacity="0.6" d="M111.644 76.8966C111.603 77.077 110.956 77.036 110.292 76.9048C109.98 76.8064 109.668 76.6916 109.439 76.6096C109.209 76.5194 109.053 76.4538 109.053 76.4538C109.053 76.4538 108.553 76.0029 108.119 75.5191C107.733 74.9697 107.405 74.4204 107.545 74.2974C107.684 74.1744 108.242 74.4778 108.734 74.7893C109.283 75.0435 109.775 75.3141 109.775 75.3141C109.775 75.3141 110.226 75.6421 110.685 76.0357C111.169 76.3554 111.685 76.7162 111.644 76.8966Z" fill="#C7C7C7"/>
</g>
</g>
<path d="M218.81 31.83C218.81 31.83 210.788 21.3885 201.866 27.5961C194.027 33.0397 197.051 47.9936 201.333 54.7026C203.474 58.0531 207.485 60.7669 211.368 58.7295C210.931 58.9603 212.3 60.5838 212.491 60.7351C213.764 61.8254 216.207 61.7935 217.751 61.2842C219.295 60.7748 220.895 60.2894 222.343 59.5572C226.354 57.5198 229.872 54.4479 232.427 50.7392C238.475 41.9611 236.963 35.6102 232.124 31.6788C225.67 26.4342 218.81 31.83 218.81 31.83Z" fill="#DB3731"/>
<path opacity="0.45" d="M201.977 28.8376C210.907 22.638 218.921 33.0715 218.921 33.0715C218.921 33.0715 225.781 27.6757 232.235 32.9203C234.44 34.711 235.936 37.003 236.366 39.7964C236.247 36.43 234.647 33.7241 232.124 31.6708C225.662 26.4262 218.81 31.822 218.81 31.822C218.81 31.822 210.787 21.3806 201.866 27.5882C197.576 30.5726 196.542 36.4061 197.186 42.176C196.82 36.8279 197.998 31.6072 201.977 28.8376Z" fill="#C52620"/>
<path opacity="0.45" d="M233 32.4508C232.458 34.7269 231.304 37.2497 229.402 40.0034C226.848 43.704 223.33 46.776 219.319 48.8213C216.088 50.4608 211.305 51.9172 207.668 51.0974C203.911 50.2538 200.346 47.1501 198.309 43.9587C197.911 43.338 197.521 42.6456 197.155 41.8895C197.648 46.7521 199.351 51.5988 201.333 54.7026C203.474 58.0531 207.485 60.7669 211.368 58.7296C210.931 58.9604 212.3 60.5839 212.491 60.7351C213.764 61.8254 216.207 61.7936 217.751 61.2842C219.295 60.7749 220.895 60.2894 222.343 59.5573C226.354 57.5199 229.872 54.4479 232.426 50.7393C238.101 42.5182 237.13 36.4221 233 32.4508Z" fill="#C52620"/>
<path d="M225.741 21.0622C225.9 21.7228 224.245 22.8927 223.752 23.4259C223.155 24.1023 222.653 24.8186 222.351 25.4075C222.176 25.6861 222.088 25.9567 221.993 26.1238C221.913 26.2989 221.866 26.3944 221.866 26.3944C221.866 26.3944 221.81 26.4899 221.698 26.657C221.603 26.8241 221.428 27.047 221.277 27.3574C220.926 27.9463 220.544 28.7899 220.186 29.6812C219.486 31.456 219.072 33.4296 218.65 33.4217C218.244 33.4217 217.894 31.3445 218.125 29.2037C218.244 28.1373 218.475 27.0629 218.746 26.275C219.287 24.3252 220.131 22.0491 221.977 20.9588C222.852 20.4415 223.672 20.537 224.635 20.5927C225.375 20.6325 225.686 20.8155 225.741 21.0622Z" fill="#6F3014"/>
<path opacity="0.45" d="M225.049 20.6404C224.715 21.301 223.553 22.1525 223.155 22.5903C222.558 23.2667 222.057 23.983 221.754 24.5719C221.579 24.8505 221.491 25.121 221.396 25.2882C221.316 25.4633 221.269 25.5588 221.269 25.5588C221.269 25.5588 221.213 25.6543 221.102 25.8214C221.006 25.9885 220.831 26.2114 220.68 26.5217C220.33 27.1107 219.948 27.9543 219.589 28.8456C218.985 30.3816 218.595 32.0529 218.229 32.4826C218.34 33.0556 218.491 33.4217 218.658 33.4217C219.072 33.4297 219.486 31.456 220.194 29.6812C220.552 28.7978 220.934 27.9463 221.285 27.3574C221.436 27.047 221.611 26.8321 221.706 26.657C221.81 26.4899 221.873 26.3944 221.873 26.3944C221.873 26.3944 221.921 26.2909 222.001 26.1238C222.088 25.9567 222.184 25.6861 222.359 25.4076C222.661 24.8186 223.163 24.0944 223.76 23.4259C224.245 22.8927 225.9 21.7228 225.749 21.0622C225.702 20.8633 225.487 20.72 225.049 20.6404Z" fill="#6F3014"/>
<path opacity="0.45" d="M232.427 50.7393C237.966 42.7012 237.154 36.7085 233.262 32.7293C236.931 40.3933 228.384 54.7742 220.393 56.8673C213.82 58.5863 212.562 52.896 212.562 52.896C212.562 52.896 206.888 58.1167 200.76 50.0628C197.744 46.0995 197.011 41.4518 197.043 37.6954C196.669 43.7915 198.77 50.7074 201.325 54.7026C203.466 58.0531 207.477 60.7669 211.361 58.7295C210.923 58.9603 212.292 60.5839 212.483 60.7351C213.756 61.8254 216.199 61.7935 217.743 61.2842C219.287 60.7749 220.887 60.2894 222.335 59.5572C226.354 57.5199 229.872 54.4479 232.427 50.7393Z" fill="#C52620"/>
<path opacity="0.45" d="M199.184 42.5739C199.184 42.5739 197.712 30.6601 205.312 28.5034C212.912 26.3466 218.818 33.7241 216.096 34.9736C213.374 36.2231 207.246 35.5386 205.766 37.9262C204.285 40.3058 200.091 45.9722 199.184 42.5739Z" fill="#C52620"/>
<g opacity="0.45">
<g opacity="0.45">
<path opacity="0.45" d="M203.036 31.5276C203.179 31.6788 203.004 32.1563 202.813 32.5781C202.654 33.0317 202.471 33.4376 202.471 33.4376C202.471 33.4376 202.184 33.7798 201.842 34.1141C201.548 34.4643 201.19 34.8304 200.991 34.7746C200.792 34.711 200.808 34.1857 200.887 33.6445C201.015 33.1352 201.206 32.6338 201.206 32.6338C201.206 32.6338 201.58 32.2518 201.977 31.9176C202.431 31.6151 202.901 31.3764 203.036 31.5276Z" fill="#C52620"/>
</g>
<g opacity="0.45">
<path opacity="0.45" d="M210.978 30.4691C210.851 30.6601 209.976 30.302 209.116 30.2224C208.241 30.1587 207.413 30.302 207.413 30.302C207.413 30.302 206.562 30.294 205.654 30.4293C204.747 30.5726 203.816 30.8113 203.728 30.6203C203.641 30.4452 204.429 29.8483 205.344 29.4186C206.259 28.9888 207.31 28.8058 207.31 28.8058C207.31 28.8058 208.392 28.8137 209.379 29.1957C210.366 29.5937 211.09 30.3179 210.978 30.4691Z" fill="#C52620"/>
</g>
</g>
<g opacity="0.45">
<g opacity="0.45">
<path opacity="0.45" d="M206.936 57.3209C206.872 57.4562 206.164 57.2811 205.487 57.0026C204.811 56.724 204.174 56.3102 204.174 56.3102C204.174 56.3102 203.609 55.7929 203.195 55.1403C202.781 54.4797 202.638 53.7237 202.773 53.6839C202.925 53.6282 203.315 54.2012 203.8 54.6389C204.309 55.0766 204.859 55.4268 204.859 55.4268C204.859 55.4268 205.344 55.8804 205.885 56.3102C206.426 56.7558 206.999 57.1776 206.936 57.3209Z" fill="#C52620"/>
</g>
<g opacity="0.45">
<path opacity="0.45" d="M209.435 57.9257C209.419 58.0769 209.172 58.1645 208.909 58.2042C208.647 58.244 208.376 58.2361 208.376 58.2361C208.376 58.2361 208.177 58.0689 208.002 57.8779C207.827 57.679 207.692 57.4641 207.771 57.3288C207.851 57.1935 208.114 57.1696 208.336 57.1617C208.567 57.1617 208.766 57.1935 208.766 57.1935C208.766 57.1935 208.925 57.297 209.092 57.4402C209.26 57.5835 209.451 57.7745 209.435 57.9257Z" fill="#C52620"/>
</g>
<g opacity="0.45">
<path opacity="0.45" d="M230.914 51.0417C231.026 51.1293 229.673 52.9756 227.994 54.5673C227.11 55.2995 226.267 56.0953 225.519 56.5489C224.794 57.0344 224.317 57.3607 224.317 57.3607C224.317 57.3607 223.792 57.6074 222.996 57.9735C222.224 58.3874 221.086 58.6739 219.987 59.032C217.703 59.5572 215.387 59.4219 215.403 59.2946C215.403 59.1116 217.656 58.9604 219.773 58.268C220.799 57.8303 221.85 57.488 222.558 57.0424C223.29 56.6444 223.776 56.3898 223.776 56.3898C223.776 56.3898 224.253 56.1112 224.961 55.6894C225.702 55.3074 226.561 54.5991 227.484 53.9704C229.227 52.5777 230.779 50.9382 230.914 51.0417Z" fill="#C52620"/>
</g>
<g opacity="0.45">
<path opacity="0.45" d="M233.565 45.9721C233.851 46.0915 233.35 47.731 233.35 47.731C233.35 47.731 232.395 49.1555 232.124 49.0043C231.854 48.8531 232.339 47.2455 232.339 47.2455C232.339 47.2455 233.278 45.8607 233.565 45.9721Z" fill="#C52620"/>
</g>
</g>
<path d="M219.287 26.1397C219.287 26.1397 225.121 15.937 213.398 10C213.398 10 208.838 18.3802 218.579 25.2882" fill="#B63E3E"/>
<path d="M219.661 25.3598C219.605 24.5878 219.406 23.3304 219.096 22.0889C218.587 20.1231 217.902 18.2211 217.902 18.2211C217.902 18.2211 217.059 16.3827 216.12 14.6079C215.188 12.8332 214.233 11.0664 214.042 11.146C213.851 11.2256 214.464 13.1436 215.149 15.0297C215.833 16.9159 216.51 18.7861 216.51 18.7861C216.51 18.7861 217.329 20.5847 218.077 22.4231C218.65 23.8636 219.128 25.3359 219.406 25.893C219.486 25.7498 219.566 25.5747 219.661 25.3598Z" fill="#6F3014"/>
<path opacity="0.45" d="M219.494 18.6269C218.929 20.8951 214.958 13.7484 214.958 13.7484C214.958 13.7484 217.457 19.765 215.189 20.33C214.544 20.4892 213.859 19.9321 213.223 19.0408C214.09 21.0861 215.714 23.2508 218.587 25.2882L219.295 26.1397C219.295 26.1397 222.455 20.6006 219.43 15.3083C219.605 16.5816 219.693 17.8311 219.494 18.6269Z" fill="#B63E3E"/>
<path d="M61.5524 30.3311C61.5524 30.3311 66.2756 23.1209 72.4083 26.7298C77.7967 29.9043 76.5528 39.8145 74.0844 44.4112C72.8532 46.706 70.3624 48.6791 67.7249 47.5341C68.0236 47.6661 67.208 48.7882 67.0959 48.9041C66.3143 49.6745 64.717 49.7742 63.6909 49.5222C62.6576 49.264 61.5858 49.0288 60.6082 48.6187C57.8906 47.4798 55.4367 45.6495 53.5861 43.3577C49.2028 37.9188 49.8798 33.6982 52.8518 30.89C56.8075 27.1418 61.5524 30.3311 61.5524 30.3311Z" fill="#DC8748"/>
<path opacity="0.45" d="M72.3964 27.5565C66.2632 23.941 61.5334 31.1516 61.5334 31.1516C61.5334 31.1516 56.7885 27.9624 52.8257 31.7044C51.4778 32.9806 50.609 34.5566 50.4654 36.4005C50.374 34.1982 51.2895 32.3501 52.838 30.8843C56.8008 27.1423 61.5457 30.3315 61.5457 30.3315C61.5457 30.3315 66.2689 23.1214 72.4016 26.7303C75.3523 28.4695 76.3123 32.2248 76.1747 36.0289C76.1602 32.5249 75.1363 29.1706 72.3964 27.5565Z" fill="#C56C2A"/>
<path opacity="0.45" d="M52.3152 31.4338C52.7809 32.8962 53.6586 34.4821 55.0359 36.1917C56.8865 38.4835 59.3342 40.321 62.058 41.4528C64.2486 42.3694 67.4447 43.0831 69.7816 42.3705C72.1905 41.6324 74.369 39.4344 75.5413 37.2514C75.7712 36.8246 75.9908 36.3515 76.1946 35.846C76.106 39.0489 75.2351 42.297 74.0916 44.4173C72.8604 46.7121 70.3696 48.6851 67.7322 47.5401C68.0308 47.6722 67.2152 48.7943 67.1031 48.9101C66.3216 49.6805 64.7242 49.7803 63.6981 49.5283C62.6648 49.2701 61.593 49.0349 60.6155 48.6248C57.8978 47.4858 55.4439 45.6556 53.5933 43.3638C49.477 38.2607 49.8121 34.2269 52.3152 31.4338Z" fill="#C56C2A"/>
<path d="M56.4976 23.6398C56.43 24.0813 57.5688 24.7614 57.9087 25.085C58.3291 25.4966 58.6913 25.9395 58.9207 26.3117C59.0477 26.4835 59.1214 26.6592 59.1895 26.7616C59.2514 26.8711 59.2898 26.9353 59.2898 26.9353C59.2898 26.9353 59.3343 26.9924 59.4091 27.0942C59.4777 27.2032 59.6085 27.3344 59.7237 27.5272C59.9797 27.8975 60.2746 28.4259 60.5519 28.9893C61.0998 30.1165 61.4635 31.3852 61.7368 31.3579C61.9972 31.3384 62.1292 29.9654 61.8704 28.5748C61.7381 27.8864 61.5386 27.1963 61.3198 26.6957C60.8707 25.4536 60.2114 24.0057 58.9493 23.382C58.35 23.0912 57.8203 23.1914 57.1957 23.2786C56.7169 23.3413 56.519 23.4771 56.4976 23.6398Z" fill="#6F3014"/>
<path opacity="0.45" d="M56.9304 23.3325C57.1833 23.75 57.9794 24.2476 58.2613 24.5151C58.6817 24.9268 59.0439 25.3696 59.2733 25.7418C59.4003 25.9136 59.474 26.0894 59.5421 26.1917C59.604 26.3012 59.6424 26.3655 59.6424 26.3655C59.6424 26.3655 59.687 26.4225 59.7617 26.5244C59.8304 26.6334 59.9611 26.7646 60.0763 26.9574C60.3318 27.3209 60.6272 27.8561 60.9045 28.4194C61.3736 29.3914 61.7161 30.4669 61.9704 30.7231C61.925 31.1026 61.8429 31.3505 61.7361 31.3585C61.4628 31.3857 61.099 30.1171 60.5511 28.9898C60.2738 28.4265 59.979 27.898 59.7229 27.5278C59.6077 27.335 59.4832 27.1966 59.4084 27.0948C59.3336 26.993 59.289 26.9359 59.289 26.9359C59.289 26.9359 59.2506 26.8716 59.1887 26.7621C59.1201 26.6531 59.047 26.484 58.9199 26.3122C58.6906 25.94 58.3283 25.4972 57.908 25.0855C57.5614 24.7624 56.4221 24.0757 56.4969 23.6404C56.5141 23.5115 56.6468 23.4008 56.9304 23.3325Z" fill="#6F3014"/>
<path opacity="0.45" d="M53.586 43.3577C49.5732 38.3811 49.8066 34.4221 52.1556 31.6339C50.1343 36.8215 56.4209 45.7905 61.745 46.7675C66.1226 47.567 66.6652 43.793 66.6652 43.793C66.6652 43.793 70.6266 46.9201 74.2379 41.358C76.0132 38.6195 76.2665 35.552 76.0554 33.0969C76.5944 37.0584 75.5649 41.6814 74.0915 44.4174C72.8604 46.7122 70.3696 48.6852 67.7321 47.5402C68.0307 47.6723 67.2152 48.7944 67.103 48.9102C66.3215 49.6806 64.7242 49.7804 63.698 49.5284C62.6648 49.2702 61.5929 49.035 60.6154 48.6249C57.8839 47.4803 55.4367 45.6495 53.586 43.3577Z" fill="#C56C2A"/>
<path opacity="0.45" d="M74.8989 36.3865C74.8989 36.3865 75.2766 28.5356 70.2099 27.499C65.1364 26.463 61.6455 31.5729 63.4894 32.2538C65.3267 32.9351 69.2998 32.1937 70.3781 33.6773C71.4558 35.1542 74.4715 38.6546 74.8989 36.3865Z" fill="#C56C2A"/>
<g opacity="0.45">
<g opacity="0.45">
<path opacity="0.45" d="M71.8405 29.3642C71.7546 29.4714 71.8911 29.77 72.0323 30.0414C72.155 30.3344 72.3015 30.5853 72.3015 30.5853C72.3015 30.5853 72.505 30.7916 72.749 31.0016C72.9597 31.214 73.2047 31.4374 73.3353 31.3873C73.4591 31.3377 73.4269 30.9977 73.3469 30.6478C73.2418 30.32 73.0903 30.0023 73.0903 30.0023C73.0903 30.0023 72.8309 29.7666 72.5545 29.5725C72.239 29.3947 71.9198 29.2575 71.8405 29.3642Z" fill="#C56C2A"/>
</g>
<g opacity="0.45">
<path opacity="0.45" d="M66.6004 29.0591C66.6895 29.1733 67.2467 28.9032 67.8036 28.8077C68.3748 28.7245 68.9227 28.7774 68.9227 28.7774C68.9227 28.7774 69.4763 28.7291 70.0776 28.778C70.6722 28.8274 71.2985 28.9415 71.3491 28.8102C71.394 28.6927 70.8508 28.344 70.2355 28.1081C69.6135 27.8728 68.9234 27.8037 68.9234 27.8037C68.9234 27.8037 68.2162 27.8635 67.587 28.1592C66.9584 28.4615 66.5199 28.9711 66.6004 29.0591Z" fill="#C56C2A"/>
</g>
</g>
<g opacity="0.45">
<g opacity="0.45">
<path opacity="0.45" d="M70.5608 46.4013C70.6074 46.4851 71.0596 46.337 71.4934 46.1231C71.9206 45.9098 72.3212 45.6111 72.3212 45.6111C72.3212 45.6111 72.6629 45.2431 72.9051 44.8019C73.1396 44.3478 73.2026 43.8462 73.1072 43.8265C73.0045 43.8006 72.7788 44.1936 72.4799 44.5047C72.1738 44.8097 71.8307 45.0705 71.8307 45.0705C71.8307 45.0705 71.539 45.3878 71.2066 45.7015C70.8604 46.0095 70.5071 46.3113 70.5608 46.4013Z" fill="#C56C2A"/>
</g>
<g opacity="0.45">
<path opacity="0.45" d="M68.9549 46.9247C68.9758 47.0238 69.1334 47.0657 69.309 47.0794C69.4846 47.0931 69.6577 47.0734 69.6577 47.0734C69.6577 47.0734 69.7833 46.9565 69.8872 46.8211C69.9912 46.6857 70.067 46.5323 70.0071 46.4495C69.9471 46.3667 69.7787 46.3592 69.6251 46.3708C69.4782 46.3818 69.3462 46.4118 69.3462 46.4118C69.3462 46.4118 69.2444 46.4866 69.1446 46.5881C69.0514 46.6891 68.9403 46.8183 68.9549 46.9247Z" fill="#C56C2A"/>
</g>
<g opacity="0.45">
<path opacity="0.45" d="M54.5887 43.4772C54.5193 43.5361 55.498 44.678 56.6645 45.638C57.2748 46.0756 57.8681 46.5548 58.3776 46.8121C58.869 47.0975 59.1984 47.2809 59.1984 47.2809C59.1984 47.2809 59.5576 47.4151 60.0898 47.6169C60.6106 47.8464 61.373 47.9839 62.1045 48.1573C63.619 48.3861 65.1282 48.1856 65.1155 48.1059C65.1065 47.9857 63.6233 47.9963 62.2143 47.6522C61.525 47.4152 60.8208 47.2465 60.338 46.9872C59.8444 46.7624 59.5114 46.6195 59.5114 46.6195C59.5114 46.6195 59.1902 46.4556 58.7022 46.217C58.1963 46.0065 57.6008 45.5879 56.9688 45.219C55.7589 44.3966 54.67 43.3972 54.5887 43.4772Z" fill="#C56C2A"/>
</g>
<g opacity="0.45">
<path opacity="0.45" d="M52.6109 40.2952C52.4295 40.3826 52.8373 41.4331 52.8373 41.4331C52.8373 41.4331 53.5279 42.3146 53.7007 42.2009C53.8734 42.0872 53.4743 41.063 53.4743 41.063C53.4743 41.063 52.7924 40.2077 52.6109 40.2952Z" fill="#C56C2A"/>
</g>
</g>
<path d="M60.9661 26.635C60.9661 26.635 56.6534 20.2574 64.0208 15.8033C64.0208 15.8033 67.4097 21.055 61.3852 26.0462" fill="#B63725"/>
<path d="M60.681 26.146C60.683 25.6355 60.7482 24.8047 60.8879 23.9818C61.1255 22.6747 61.4792 21.3926 61.4792 21.3926C61.4792 21.3926 61.9432 20.1491 62.4636 18.9417C62.984 17.7343 63.5188 16.5392 63.6492 16.5765C63.78 16.6204 63.4736 17.9057 63.1118 19.1684C62.7566 20.4305 62.4076 21.6855 62.4076 21.6855C62.4076 21.6855 61.9617 22.9007 61.5577 24.1397C61.2545 25.1092 61.0128 26.0942 60.8596 26.4683C60.814 26.3979 60.7516 26.2817 60.681 26.146Z" fill="#6F3014"/>
<path opacity="0.45" d="M60.458 21.7445C60.9432 23.1988 63.1836 18.3371 63.1836 18.3371C63.1836 18.3371 61.849 22.3855 63.3594 22.6481C63.7881 22.7234 64.2079 22.3226 64.5849 21.7101C64.1176 23.0881 63.1622 24.5833 61.3857 26.0529L60.9665 26.6416C60.9665 26.6416 58.6251 23.178 60.3486 19.5705C60.2844 20.4146 60.2921 21.2332 60.458 21.7445Z" fill="#B63725"/>
</svg>
