<svg width="285" height="190" viewBox="0 0 285 190" fill="none" xmlns="http://www.w3.org/2000/svg">
<rect width="285" height="190" fill="#FFC7DD"/>
<path d="M124.63 33.7719C124.63 33.7719 133.079 49.7971 143 47.5274C152.922 45.2577 161.29 32.8553 161.29 32.8553L168.828 35.0564L161.227 57.367L124.767 58.3397L116.555 36.1476L124.63 33.7719Z" fill="#510F56"/>
<path d="M127.587 51.6366L160.385 50.6701L176.534 85.2957C176.534 85.2957 185.563 123.65 176.896 162.865L155.605 162.03C155.605 162.03 162.6 146.21 152.928 139.513C143.256 132.816 135.574 140.686 134.008 146.042C132.442 151.392 134.002 161.531 134.002 161.531L109.547 163.426C109.547 163.426 104.799 101.602 109.909 84.1297C110.19 83.1383 127.587 51.6366 127.587 51.6366Z" fill="#C161D8"/>
<path d="M155.605 162.03C158.07 154.778 159.187 144.988 152.984 140.449C150.937 138.983 148.56 137.867 146.089 137.711C142.183 137.53 138.844 139.544 136.504 142.619C134.058 145.805 133.777 148.979 133.696 153.599C133.64 156.237 133.802 158.881 134.002 161.531C133.072 157.047 132.286 149.97 133.559 145.543C133.971 144.196 134.62 142.955 135.437 141.833C138.301 137.855 142.195 136.034 146.176 136.202C149.04 136.421 151.636 137.668 153.852 139.32C158.426 142.874 159.168 148.742 158.101 154.435C157.571 157.072 156.778 159.641 155.605 162.03Z" fill="#823D93"/>
<path d="M160.385 50.6701C165.246 60.2229 172.434 75.1755 177.177 85.1461C184.534 118.469 179.723 148.056 179.716 148.48C179.704 148.555 178.412 156.2 178.493 155.713C178.475 155.788 176.79 163.345 176.902 162.865C178.656 152.508 179.604 145.075 179.929 133.814C179.941 130.565 180.053 127.323 179.96 124.081C179.773 111.504 178.281 96.7503 175.898 85.4454L175.941 85.5701C173.745 80.8374 167.137 66.1528 164.198 59.4309C162.912 56.519 161.633 53.6008 160.385 50.6701Z" fill="#823D93"/>
<path d="M109.541 163.433C107.513 144.857 105.341 107.556 108.23 88.8001C108.405 87.6278 108.998 84.3542 109.566 83.3128C112.293 78.0376 123.55 58.3834 127.587 51.6366C124.779 57.1737 110.783 83.7992 110.733 83.8927C110.184 84.772 109.435 89.7292 109.329 90.7892C107.55 105.43 108.405 133.995 108.986 148.873C109.129 153.73 109.354 158.575 109.541 163.433Z" fill="#823D93"/>
<path opacity="0.42" d="M133.203 57.8409C133.203 57.8409 112.686 74.3525 117.753 79.7212C122.82 85.09 165.021 85.5888 165.121 82.2154C165.221 78.8483 161.558 62.8978 158.188 59.3249C154.812 55.752 133.203 57.8409 133.203 57.8409Z" fill="#C161D8"/>
<path d="M162.355 65.4348L123.167 66.371L123.606 84.7228L162.794 83.7866L162.355 65.4348Z" fill="#7F2096"/>
<path d="M125.147 70.1621C125.353 70.1559 125.522 69.9875 125.516 69.7755L125.472 67.8986C125.466 67.6929 125.297 67.5245 125.085 67.5307C124.879 67.537 124.711 67.7053 124.717 67.9173L124.761 69.8005C124.767 70.0062 124.941 70.1684 125.147 70.1621Z" fill="#F2E977"/>
<path d="M125.316 77.0461C125.521 77.0399 125.69 76.8715 125.684 76.6595L125.603 73.2175C125.596 73.0117 125.428 72.8434 125.216 72.8496C125.01 72.8558 124.841 73.0242 124.848 73.2362L124.929 76.6782C124.935 76.884 125.103 77.0461 125.316 77.0461Z" fill="#F2E977"/>
<path d="M127.306 81.5669L125.802 81.6043L125.765 80.1016C125.759 79.8958 125.59 79.7274 125.378 79.7337C125.172 79.7399 125.004 79.9083 125.01 80.1203L125.066 82.3775L127.325 82.3214C127.531 82.3151 127.699 82.1468 127.693 81.9348C127.687 81.7228 127.512 81.5607 127.306 81.5669Z" fill="#F2E977"/>
<path d="M140.972 81.2364L137.558 81.3175C137.353 81.3237 137.184 81.4921 137.19 81.7041C137.197 81.9098 137.365 82.0782 137.577 82.072L140.991 81.9909C141.196 81.9847 141.365 81.8163 141.359 81.6043C141.352 81.3985 141.184 81.2364 140.972 81.2364Z" fill="#F2E977"/>
<path d="M134.139 81.4047L130.719 81.4858C130.513 81.492 130.345 81.6604 130.351 81.8724C130.357 82.0781 130.526 82.2465 130.738 82.2403L134.158 82.1592C134.364 82.153 134.532 81.9846 134.526 81.7726C134.52 81.5606 134.345 81.3985 134.139 81.4047Z" fill="#F2E977"/>
<path d="M154.644 80.9122L151.224 80.9932C151.018 80.9995 150.85 81.1678 150.856 81.3798C150.862 81.5856 151.031 81.754 151.243 81.7477L154.662 81.6667C154.868 81.6604 155.037 81.4921 155.031 81.2801C155.024 81.0681 154.85 80.9059 154.644 80.9122Z" fill="#F2E977"/>
<path d="M147.805 81.0743L144.385 81.1554C144.179 81.1616 144.011 81.3299 144.017 81.542C144.023 81.7477 144.192 81.9161 144.404 81.9098L147.823 81.8288C148.029 81.8226 148.198 81.6542 148.192 81.4422C148.185 81.2364 148.017 81.0681 147.805 81.0743Z" fill="#F2E977"/>
<path d="M159.892 78.9043C159.686 78.9106 159.517 79.0789 159.523 79.2909L159.561 80.7937L158.057 80.8311C157.851 80.8373 157.683 81.0057 157.689 81.2177C157.695 81.4235 157.864 81.5918 158.076 81.5856L160.335 81.5295L160.279 79.2722C160.272 79.0664 160.104 78.8981 159.892 78.9043Z" fill="#F2E977"/>
<path d="M159.73 72.0266C159.524 72.0328 159.355 72.2012 159.361 72.4132L159.442 75.8552C159.449 76.0609 159.617 76.2293 159.829 76.2231C160.035 76.2168 160.204 76.0485 160.198 75.8365L160.116 72.3945C160.11 72.1825 159.935 72.0203 159.73 72.0266Z" fill="#F2E977"/>
<path d="M159.598 66.7077C159.392 66.7139 159.224 66.8823 159.23 67.0943L159.274 68.9774C159.28 69.1832 159.449 69.3516 159.661 69.3453C159.867 69.3391 160.035 69.1707 160.029 68.9587L159.985 67.0756C159.979 66.8636 159.81 66.7015 159.598 66.7077Z" fill="#F2E977"/>
<path d="M107.12 93.6388C105.31 93.1088 103.994 91.4439 104 89.4673C104.006 87.0729 105.953 85.1336 108.349 85.1399C127.456 85.1835 166.176 84.7221 175.985 82.6581C178.331 82.1655 180.634 83.662 181.127 86.0066C181.62 88.3511 180.122 90.652 177.776 91.1446C164.628 93.9132 110.621 93.8196 108.331 93.8134C107.913 93.8134 107.501 93.7511 107.12 93.6388Z" fill="#B746CE"/>
<path d="M116.642 99.6623C116.592 101.352 115.182 102.687 113.491 102.637C111.8 102.587 110.464 101.178 110.514 99.4877C110.564 97.7979 111.975 96.4635 113.666 96.5134C115.363 96.5633 116.692 97.9725 116.642 99.6623Z" fill="#823D93"/>
<path d="M116.729 111.641C116.679 113.331 115.269 114.665 113.578 114.615C111.887 114.565 110.552 113.156 110.602 111.466C110.652 109.776 112.062 108.442 113.753 108.492C115.45 108.542 116.779 109.951 116.729 111.641Z" fill="#823D93"/>
<path d="M176.677 98.5025C176.627 100.192 175.217 101.527 173.526 101.477C171.835 101.427 170.5 100.018 170.549 98.3279C170.599 96.638 172.01 95.3036 173.701 95.3535C175.398 95.3972 176.727 96.8126 176.677 98.5025Z" fill="#823D93"/>
<path d="M176.765 110.481C176.715 112.171 175.304 113.505 173.613 113.455C171.922 113.405 170.587 111.996 170.637 110.306C170.687 108.616 172.097 107.282 173.788 107.332C175.485 107.382 176.815 108.791 176.765 110.481Z" fill="#823D93"/>
<path opacity="0.42" d="M119.407 117.384C119.407 117.384 108.749 116.835 110.203 125.022C111.657 133.209 109.011 152.945 113.635 157.846C118.265 162.747 121.248 159.959 124.492 156.91C127.731 153.861 131.962 117.751 119.407 117.384Z" fill="#C161D8"/>
<path d="M124.66 31.7827L133.783 56.7745L129.833 63.3716L119.962 61.7816L114.776 32.9362L124.66 31.7827Z" fill="#B746CE"/>
<path d="M163.018 28.085L150.862 55.5274L155.236 62.6546L162.886 60.7964L174.081 27L163.018 28.085Z" fill="#B746CE"/>
<path d="M130.638 55.7145C130.564 58.3147 128.392 60.3537 125.796 60.2789C123.194 60.204 121.154 58.0341 121.228 55.4401C121.303 52.8399 123.475 50.8009 126.071 50.8757C128.673 50.9506 130.72 53.1205 130.638 55.7145Z" fill="#823D93"/>
<path d="M163.124 55.4588C163.049 58.059 160.877 60.098 158.281 60.0232C155.679 59.9483 153.639 57.7784 153.714 55.1782C153.789 52.578 155.96 50.539 158.556 50.6138C161.152 50.6949 163.199 52.8586 163.124 55.4588Z" fill="#823D93"/>
</svg>
