<svg width="285" height="190" viewBox="0 0 285 190" fill="none" xmlns="http://www.w3.org/2000/svg">
<rect width="285" height="190" fill="#F1F8DB"/>
<path d="M203.735 116.565C202.846 123.426 198.756 131.461 193.777 138.359C188.087 146.18 183.962 151.549 176.778 153.753C164.971 157.451 152.987 157.095 147.083 148.811C145.661 146.785 144.665 144.829 144.06 142.945C142.104 136.972 143.491 131.532 144.7 126.306C145.376 123.426 146.265 118.022 147.083 112.192C148.186 104.228 149.11 95.446 149.004 91.2152C148.968 88.7976 148.826 85.5267 148.755 81.7581C148.648 76.7451 148.648 70.8434 148.968 64.7993C149.146 61.564 149.395 58.3287 149.821 55.1289C151.564 41.4054 160.028 38.2056 169.772 38.0634C177.063 37.9567 184.851 41.5121 190.577 47.4494C192.888 49.8315 194.809 52.569 196.267 55.6266C199.148 61.6351 201.744 75.5008 203.166 89.082C203.664 93.8106 203.984 98.5392 204.126 102.877C204.269 108.21 204.197 113.009 203.735 116.565Z" fill="url(#paint0_linear)"/>
<path opacity="0.5" d="M203.732 116.565C202.843 123.427 198.754 131.462 193.775 138.359C178.732 145.079 175.744 138.537 175.744 138.537C175.744 138.537 164.969 144.51 155.758 145.363C149.534 145.932 145.942 144.403 144.058 142.945C142.102 136.973 143.489 131.533 144.698 126.307C145.373 123.427 146.262 118.023 147.08 112.192C150.637 116.387 159.705 120.334 163.76 121.045C168.418 121.898 172.366 121.507 172.366 121.507C170.801 114.219 188.511 111.694 196.442 107.855C200.069 106.077 202.523 104.299 204.088 102.877C204.266 108.21 204.195 113.01 203.732 116.565Z" fill="#835839"/>
<path opacity="0.4" d="M196.229 55.5915C194.771 52.5339 192.815 49.7963 190.539 47.4142C188.405 46.3476 185.916 45.4944 183.035 45.0322C166.96 42.2946 153.553 48.6231 151.526 64.5508L148.93 64.7997C148.61 70.8438 148.61 76.7456 148.717 81.7585L151.064 82.3985C151.064 82.3985 151.668 99.6417 162.444 106.823C173.22 114.005 182.324 112.939 189.152 108.992C195.126 105.544 200.674 96.7264 203.128 89.1181C201.706 75.4657 199.074 61.6 196.229 55.5915ZM191.143 92.0689C187.409 102.237 176.171 105.472 167.921 97.2242C159.67 88.9758 160.132 77.7055 161.199 67.4306C162.302 57.1558 172.722 54.596 178.198 54.1338C181.186 53.8849 186.947 57.0135 190.29 62.3821C193.633 67.7861 193.277 78.772 190.894 84.2828C188.512 89.7935 191.143 92.0689 191.143 92.0689Z" fill="#835839"/>
<path d="M204.195 117.525C203.377 125.524 196.691 135.23 196.691 135.23C196.691 135.23 188.37 138.928 183.924 139.532C180.795 139.995 178.483 139.888 176.883 137.79C176.563 137.364 176.278 136.901 175.994 136.333C175.851 136.013 175.709 135.693 175.602 135.337C175.531 135.124 175.46 134.91 175.389 134.697C175.318 134.413 175.247 134.128 175.14 133.844C174.358 130.573 174.038 127.409 174.038 124.885V124.565C174.038 123.782 174.109 123.071 174.144 122.431C174.18 121.862 174.287 121.365 174.358 120.938C174.393 120.689 174.429 120.476 174.5 120.298C175.14 118.058 182.786 115.498 189.33 112.939C195.873 110.379 203.697 105.295 204.657 104.015C204.657 104.015 204.657 104.442 204.693 105.224C204.693 105.401 204.693 105.615 204.693 105.864C204.764 108.068 204.693 112.263 204.195 117.525Z" fill="#DC8E96"/>
<path d="M153.269 80.94V80.9756H153.233L152.878 80.9046L152.522 80.8334L147.579 80.0157C147.579 80.0157 147.579 79.6602 147.614 79.0203C147.65 78.8069 147.65 78.558 147.65 78.3092C147.721 76.0338 147.863 71.9807 147.97 68.9587C147.97 68.7098 148.005 68.461 148.005 68.2121C148.041 67.7499 148.041 67.2878 148.041 66.9323C148.041 66.9323 150.282 66.7544 152.451 66.5055C153.091 66.4344 153.731 66.3633 154.265 66.2922C154.265 66.2922 152.522 74.6827 153.198 80.1935C153.198 80.4423 153.233 80.6912 153.269 80.94Z" fill="#E4858E"/>
<path d="M200.568 68.2126C199.999 68.3548 199.358 68.7104 198.612 69.3503C198.612 69.3503 198.647 69.1014 198.647 68.6748C198.718 64.8706 198.007 46.1697 177.238 46.063C170.446 46.0275 154.62 47.7696 152.415 66.5416C152.344 66.9682 152.308 67.4305 152.273 67.8926C152.273 68.106 152.237 68.3548 152.237 68.5682C152.202 68.9592 152.202 69.3859 152.166 69.8125C152.059 73.1545 152.131 76.4254 152.344 79.554C152.379 79.874 152.379 80.194 152.415 80.5139C152.415 80.6561 152.451 80.7628 152.451 80.8695C153.98 97.3305 160.844 109.383 177.025 110.059C188.441 110.521 194.664 103.375 198.185 96.6195C198.576 95.8728 198.932 95.0907 199.252 94.3796C199.75 93.2775 200.176 92.1754 200.568 91.1444C200.817 90.4333 201.065 89.7578 201.279 89.1534C201.741 87.7668 202.061 86.629 202.31 85.9535C202.346 85.8469 202.381 85.7403 202.417 85.6692C202.559 85.2781 202.737 84.6737 202.915 83.8915C203.057 83.2871 203.199 82.5761 203.306 81.7939C204.159 76.141 204.266 67.2882 200.568 68.2126ZM193.491 82.0783C191.108 87.5179 191.108 87.8378 192.068 89.7222C192.068 89.7222 192.246 89.9 192.388 90.3622C192.601 90.5044 192.815 90.6466 192.993 90.7532C192.886 91.0732 192.779 91.3932 192.673 91.6776C192.637 91.7487 192.637 91.7843 192.601 91.8554C192.601 93.1708 192.281 95.1263 190.966 98.0061C188.085 104.406 182.964 106.148 171.975 104.086C160.95 102.024 157.75 87.0201 157.287 73.6166C156.825 60.2131 165.111 52.7115 173.895 51.1116C182.679 49.5117 189.223 53.0315 192.566 59.5732C195.873 66.1506 195.873 76.6742 193.491 82.0783Z" fill="url(#paint1_linear)"/>
<path opacity="0.4" d="M200.568 68.2126C199.786 69.3859 198.825 71.2346 198.292 75.0744C197.616 79.8029 195.34 87.6246 192.673 91.7132C192.78 91.3932 192.886 91.1089 192.993 90.7889C192.495 90.5756 191.926 90.0778 191.499 89.4379C191.748 88.7268 192.104 87.8736 192.531 86.9136C195.091 81.3318 196.371 76.2477 197.154 71.9102C197.403 70.4881 197.972 69.4215 198.612 68.6749C198.612 69.1015 198.576 69.3504 198.576 69.3504C199.359 68.6749 199.999 68.3193 200.568 68.2126Z" fill="#E4858E"/>
<path d="M173.859 51.1107C165.075 52.7106 156.789 60.2123 157.252 73.6158C157.714 87.0193 160.914 102.023 171.939 104.12C182.964 106.183 188.049 104.44 190.93 98.0409C192.246 95.1611 192.566 93.1701 192.566 91.8901C190.112 98.4319 185.489 103.552 177.842 103.48C165.715 103.338 158.852 90.0769 158.674 74.8958C158.532 59.7501 167.92 52.3907 177.025 52.7106C181.434 52.8529 190.539 55.8037 192.352 63.2343C194.913 73.7581 192.566 82.8596 191.534 84.6017C190.396 86.5927 190.716 88.2638 191.463 89.3659C191.712 89.757 192.032 90.1125 192.352 90.3258C192.21 89.8636 192.032 89.6859 192.032 89.6859C191.072 87.766 191.072 87.446 193.455 82.042C195.837 76.6023 195.837 66.0786 192.495 59.5368C189.187 53.0306 182.644 49.5464 173.859 51.1107Z" fill="#E4858E"/>
<path opacity="0.5" d="M173.859 51.1107C165.075 52.7106 156.789 60.2123 157.252 73.6158C157.714 87.0193 160.914 102.023 171.939 104.12C182.964 106.183 188.049 104.44 190.93 98.0409C192.246 95.1611 192.566 93.1701 192.566 91.8901C190.112 98.4319 185.489 103.552 177.842 103.48C165.715 103.338 158.852 90.0769 158.674 74.8958C158.532 59.7501 167.92 52.3907 177.025 52.7106C181.434 52.8529 190.539 55.8037 192.352 63.2343C194.913 73.7581 192.566 82.8596 191.534 84.6017C190.396 86.5927 190.716 88.2638 191.463 89.3659C191.712 89.757 192.032 90.1125 192.352 90.3258C192.21 89.8636 192.032 89.6859 192.032 89.6859C191.072 87.766 191.072 87.446 193.455 82.042C195.837 76.6023 195.837 66.0786 192.495 59.5368C189.187 53.0306 182.644 49.5464 173.859 51.1107Z" fill="#E4858E"/>
<g opacity="0.5">
<g opacity="0.5">
<path opacity="0.5" d="M148.681 68.5353C148.717 68.7486 148.574 68.9264 148.361 68.9264L147.934 68.9619C147.934 68.713 147.97 68.4642 147.97 68.2153L148.325 68.1797C148.468 68.1797 148.681 68.3219 148.681 68.5353Z" fill="#E4858E"/>
</g>
<g opacity="0.5">
<path opacity="0.5" d="M150.744 68.7142C150.566 68.7142 150.388 68.5713 150.388 68.3928C150.388 68.2142 150.53 68.0357 150.708 68L152.131 67.8572C152.344 67.8572 152.486 68 152.522 68.1785C152.522 68.3571 152.38 68.5357 152.202 68.5714L150.744 68.7142Z" fill="#E4858E"/>
</g>
</g>
<path opacity="0.6" d="M197.118 127.977C195.411 130.715 181.221 136.154 176.847 137.79C176.527 137.363 176.242 136.901 175.958 136.332C175.816 136.012 175.673 135.692 175.567 135.336C175.496 135.123 175.424 134.91 175.353 134.696C175.282 134.412 175.211 134.128 175.104 133.843C174.322 130.572 174.002 127.408 174.002 124.884V124.564C174.002 123.782 174.073 123.071 174.109 122.431C174.144 121.862 174.251 121.364 174.322 120.937C177.452 120.582 187.303 118.591 192.779 117.382C198.79 116.067 196.478 116.707 196.976 117.098C197.474 117.453 199.181 124.742 197.118 127.977Z" fill="#E4858E"/>
<g opacity="0.5">
<g opacity="0.5">
<path opacity="0.5" d="M148.361 78.7013C148.361 78.9146 148.148 79.0567 147.97 79.0567C147.828 79.0567 147.685 79.0567 147.543 79.0567C147.579 78.8434 147.579 78.5946 147.579 78.3457C147.721 78.3457 147.863 78.3457 148.005 78.3457C148.219 78.3457 148.361 78.4879 148.361 78.7013Z" fill="#E4858E"/>
</g>
<g opacity="0.5">
<path opacity="0.5" d="M180.475 108.71C179.586 108.817 178.697 108.888 177.808 108.888H177.736C177.523 108.888 177.416 109.065 177.416 109.243C177.416 109.457 177.63 109.599 177.808 109.599C178.732 109.599 179.657 109.528 180.546 109.421C180.759 109.385 180.902 109.208 180.866 108.994C180.83 108.817 180.653 108.674 180.475 108.71ZM174.998 108.674C174.109 108.568 173.184 108.39 172.295 108.141C172.117 108.106 171.904 108.212 171.868 108.39C171.833 108.568 171.94 108.781 172.117 108.817C173.042 109.065 173.967 109.279 174.891 109.385H174.927C175.105 109.385 175.247 109.243 175.283 109.065C175.354 108.888 175.211 108.71 174.998 108.674ZM186.2 107.466C186.129 107.288 185.916 107.181 185.738 107.252C184.885 107.608 184.031 107.928 183.142 108.141C182.964 108.177 182.857 108.39 182.893 108.568C182.929 108.71 183.071 108.817 183.249 108.817C183.284 108.817 183.32 108.817 183.355 108.817C184.28 108.568 185.169 108.248 186.023 107.892C186.2 107.857 186.272 107.643 186.2 107.466ZM169.699 107.288C168.881 106.968 168.028 106.577 167.21 106.15C167.032 106.079 166.819 106.115 166.712 106.292C166.605 106.47 166.676 106.683 166.854 106.79C167.708 107.217 168.561 107.608 169.415 107.963C169.45 107.963 169.486 107.963 169.557 107.963C169.699 107.963 169.841 107.892 169.877 107.75C169.984 107.572 169.913 107.359 169.699 107.288ZM190.966 104.586C190.824 104.444 190.61 104.408 190.468 104.515C189.757 105.083 188.974 105.581 188.192 106.043C188.014 106.15 187.979 106.363 188.05 106.541C188.121 106.648 188.228 106.719 188.37 106.719C188.441 106.719 188.476 106.719 188.548 106.683C189.366 106.221 190.148 105.688 190.895 105.119C191.073 104.977 191.073 104.728 190.966 104.586ZM164.827 104.728L164.649 104.586C163.938 104.124 163.298 103.626 162.658 103.057C162.515 102.915 162.266 102.915 162.16 103.093C162.017 103.235 162.053 103.484 162.195 103.59C162.835 104.159 163.547 104.692 164.258 105.155L164.471 105.297C164.542 105.332 164.614 105.368 164.649 105.368C164.791 105.368 164.898 105.297 164.969 105.19C165.04 105.083 165.005 104.835 164.827 104.728ZM194.913 100.639C194.771 100.497 194.522 100.533 194.415 100.675C193.811 101.422 193.171 102.097 192.531 102.701C192.388 102.844 192.388 103.057 192.531 103.199C192.602 103.27 192.673 103.306 192.78 103.306C192.886 103.306 192.957 103.27 193.029 103.199C193.669 102.559 194.309 101.848 194.949 101.137C195.056 100.995 195.056 100.782 194.913 100.639ZM160.737 101.137C160.168 100.462 159.635 99.715 159.101 98.9329C158.995 98.7551 158.746 98.7195 158.603 98.8261C158.426 98.9328 158.39 99.1462 158.497 99.3239C159.03 100.142 159.599 100.888 160.168 101.599C160.239 101.67 160.346 101.706 160.453 101.706C160.524 101.706 160.631 101.67 160.666 101.635C160.879 101.528 160.879 101.279 160.737 101.137ZM198.114 96.0886C197.936 95.9819 197.723 96.0175 197.616 96.1952C197.118 96.9774 196.62 97.7595 196.087 98.5062C195.98 98.6484 196.016 98.8973 196.158 99.004C196.229 99.0395 196.3 99.075 196.371 99.075C196.478 99.075 196.585 99.0395 196.656 98.9329C197.189 98.1863 197.723 97.4041 198.221 96.5864C198.327 96.4086 198.292 96.1952 198.114 96.0886ZM157.75 96.5508C157.359 95.7686 156.968 94.9154 156.647 94.0265C156.576 93.8488 156.363 93.7421 156.185 93.8132C156.007 93.8843 155.901 94.0976 155.972 94.2753C156.327 95.1642 156.683 96.0174 157.11 96.8352C157.181 96.9774 157.288 97.0485 157.43 97.0485C157.501 97.0485 157.537 97.0485 157.572 97.013C157.785 96.9419 157.857 96.7285 157.75 96.5508ZM155.758 91.4311C155.509 90.5779 155.26 89.689 155.047 88.7647C155.012 88.5513 154.798 88.4447 154.62 88.4803C154.407 88.5158 154.3 88.7291 154.336 88.9069C154.549 89.8668 154.798 90.7556 155.047 91.6444C155.083 91.8222 155.225 91.8933 155.403 91.8933C155.438 91.8933 155.474 91.8933 155.509 91.8933C155.723 91.8222 155.83 91.6089 155.758 91.4311ZM154.087 83.2895C154.051 83.0761 153.874 82.9695 153.66 82.9695C153.482 83.005 153.34 83.1828 153.376 83.3961C153.482 84.1783 153.625 85.1027 153.802 86.1338C153.838 86.3115 153.98 86.4181 154.158 86.4181C154.194 86.4181 154.194 86.4181 154.229 86.4181C154.443 86.3826 154.549 86.2048 154.514 85.9915C154.336 84.996 154.194 84.0716 154.087 83.2895ZM153.376 80.4453C153.305 80.3742 153.233 80.2675 153.162 80.1964C152.949 79.9475 152.664 79.7342 152.38 79.5564C151.882 79.272 151.349 79.0231 150.886 78.8809C150.708 78.8098 150.495 78.9165 150.424 79.0942C150.353 79.272 150.459 79.4853 150.673 79.5564C151.42 79.8053 152.06 80.1608 152.487 80.5163C152.629 80.6585 152.736 80.7652 152.842 80.8719C152.842 80.9074 152.878 80.9074 152.878 80.9429C152.949 81.0141 153.02 81.0496 153.091 81.0496C153.162 81.0496 153.198 81.0497 153.233 81.0141C153.269 81.0141 153.269 81.0141 153.269 80.9785H153.305C153.447 80.8008 153.482 80.5875 153.376 80.4453ZM200.177 91.3245C199.821 92.1422 199.394 92.9955 198.968 93.8132C198.861 93.991 198.932 94.2042 199.11 94.2753C199.181 94.3109 199.216 94.3109 199.288 94.3109C199.786 93.2088 200.212 92.1066 200.603 91.0756C200.426 91.0756 200.283 91.1823 200.177 91.3245ZM202.062 86.1338C201.813 86.987 201.564 87.8758 201.208 88.7647C201.172 88.8713 201.172 89.0136 201.279 89.1202C201.741 87.7336 202.062 86.596 202.311 85.9205C202.204 85.9205 202.097 86.0271 202.062 86.1338Z" fill="#E4858E"/>
</g>
<g opacity="0.5">
<path opacity="0.5" d="M203.342 81.7587C203.235 82.5409 203.093 83.2519 202.951 83.8563C202.773 83.8207 202.666 83.643 202.702 83.4653C202.773 83.0031 202.844 82.5409 202.915 82.0787C202.915 81.8654 203.093 81.7587 203.306 81.7587C203.306 81.7232 203.306 81.7587 203.342 81.7587Z" fill="#E4858E"/>
</g>
</g>
<g opacity="0.4">
<g opacity="0.4">
<path opacity="0.4" d="M204.728 105.792C204.551 105.685 204.515 105.472 204.622 105.294C204.657 105.223 204.693 105.187 204.728 105.152C204.728 105.365 204.728 105.578 204.728 105.792Z" fill="#E4858E"/>
</g>
<g opacity="0.4">
<path opacity="0.4" d="M181.292 137.577C180.866 137.577 180.51 137.505 180.19 137.434C179.799 137.328 179.407 137.043 179.052 136.581C178.945 136.439 178.696 136.403 178.554 136.51C178.376 136.617 178.376 136.865 178.483 137.008C178.945 137.577 179.443 137.932 180.012 138.074C180.368 138.181 180.794 138.252 181.257 138.252C181.435 138.252 181.612 138.11 181.612 137.896C181.648 137.754 181.47 137.612 181.292 137.577ZM187.231 136.936C187.16 136.759 186.982 136.617 186.805 136.688C185.809 136.972 184.884 137.185 184.031 137.363C183.853 137.399 183.711 137.577 183.746 137.79C183.782 137.968 183.924 138.074 184.102 138.074C184.137 138.074 184.137 138.074 184.173 138.074C185.026 137.932 185.987 137.683 186.982 137.399C187.196 137.328 187.302 137.114 187.231 136.936ZM192.637 135.017C192.566 134.839 192.352 134.732 192.175 134.839C191.25 135.194 190.361 135.55 189.507 135.834C189.33 135.905 189.223 136.119 189.294 136.297C189.365 136.439 189.507 136.545 189.65 136.545C189.685 136.545 189.721 136.545 189.756 136.51C190.61 136.225 191.534 135.87 192.459 135.514C192.601 135.408 192.708 135.194 192.637 135.017ZM177.843 134.163C177.807 134.057 177.771 133.986 177.771 133.879C177.7 133.666 177.629 133.417 177.594 133.168C177.451 132.635 177.309 132.066 177.203 131.426C177.167 131.212 176.989 131.106 176.776 131.141C176.598 131.177 176.456 131.355 176.491 131.568C176.598 132.244 176.74 132.883 176.918 133.488C176.989 133.737 177.06 133.95 177.131 134.199C177.131 134.27 177.167 134.341 177.203 134.412C177.238 134.554 177.38 134.661 177.558 134.661C177.594 134.661 177.629 134.661 177.665 134.661C177.807 134.554 177.878 134.341 177.843 134.163ZM197.865 132.635C197.758 132.457 197.58 132.386 197.402 132.457C196.584 132.884 195.695 133.275 194.842 133.666C194.664 133.737 194.593 133.95 194.664 134.128C194.735 134.27 194.842 134.341 194.984 134.341C195.02 134.341 195.091 134.341 195.126 134.306C196.015 133.915 196.869 133.488 197.722 133.061C197.865 133.026 197.936 132.812 197.865 132.635ZM176.74 125.986V125.808C176.74 125.595 176.598 125.453 176.385 125.453C176.171 125.453 176.029 125.631 176.029 125.808V126.022C176.029 126.911 176.064 127.799 176.136 128.724C176.171 128.902 176.313 129.044 176.491 129.044C176.491 129.044 176.491 129.044 176.527 129.044C176.74 129.008 176.882 128.866 176.847 128.653C176.776 127.764 176.74 126.875 176.74 125.986ZM177.736 120.049C177.594 119.907 177.38 119.907 177.238 120.049C177.025 120.262 176.882 120.511 176.74 120.724C176.598 121.009 176.456 121.4 176.349 121.898C176.278 122.182 176.242 122.538 176.171 122.893C176.136 123.071 176.278 123.284 176.491 123.284H176.527C176.705 123.284 176.847 123.142 176.882 122.964C176.954 122.502 177.025 122.075 177.096 121.755C177.167 121.435 177.238 121.186 177.345 121.044C177.416 120.902 177.558 120.724 177.736 120.547C177.878 120.404 177.878 120.191 177.736 120.049ZM182.75 117.24C182.679 117.062 182.466 116.991 182.288 117.062C181.257 117.525 180.403 117.951 179.692 118.342C179.514 118.449 179.443 118.662 179.55 118.84C179.621 118.947 179.728 119.018 179.87 119.018C179.941 119.018 179.976 119.018 180.048 118.982C180.759 118.591 181.577 118.2 182.573 117.738C182.75 117.667 182.822 117.453 182.75 117.24ZM188.049 115.107C187.978 114.929 187.765 114.823 187.587 114.894C186.662 115.249 185.773 115.605 184.92 115.96C184.742 116.031 184.671 116.245 184.706 116.422C184.777 116.565 184.92 116.636 185.062 116.636C185.098 116.636 185.169 116.636 185.204 116.6C186.058 116.245 186.947 115.889 187.871 115.534C188.014 115.498 188.085 115.285 188.049 115.107ZM193.384 113.009C193.313 112.832 193.099 112.725 192.921 112.796C192.032 113.152 191.143 113.507 190.254 113.827C190.076 113.898 189.97 114.111 190.041 114.289C190.076 114.431 190.219 114.503 190.361 114.503C190.396 114.503 190.468 114.503 190.503 114.467C191.392 114.112 192.281 113.792 193.17 113.436C193.348 113.4 193.455 113.187 193.384 113.009ZM198.576 110.663C198.505 110.485 198.256 110.414 198.078 110.521C197.296 110.947 196.407 111.338 195.518 111.729C195.34 111.836 195.233 112.014 195.34 112.192C195.411 112.334 195.518 112.405 195.66 112.405C195.695 112.405 195.767 112.405 195.802 112.369C196.727 111.978 197.58 111.552 198.398 111.125C198.612 111.054 198.683 110.841 198.576 110.663ZM203.27 107.392C203.128 107.25 202.915 107.214 202.772 107.356C202.132 107.925 201.386 108.494 200.532 109.063C200.354 109.17 200.319 109.418 200.425 109.561C200.496 109.667 200.603 109.738 200.71 109.738C200.781 109.738 200.852 109.703 200.923 109.667C201.777 109.099 202.559 108.494 203.235 107.89C203.377 107.783 203.413 107.534 203.27 107.392Z" fill="#E4858E"/>
</g>
</g>
<path d="M203.235 82.078C203.199 82.3979 203.093 82.9668 202.915 83.7134C202.382 82.2557 200.461 79.4116 199.501 78.5939C199.394 78.4872 199.323 78.4516 199.252 78.416C199.252 78.416 197.687 83.8201 197.367 87.1976C197.26 88.2998 197.26 89.1531 197.509 89.5797C197.509 89.5797 199.003 91.784 200.781 92.1039C200.603 92.7083 200.461 93.2061 200.354 93.5616C199.892 95.1971 197.936 93.4905 196.834 91.8906C196.442 91.3218 196.158 90.7529 196.051 90.3974C195.731 88.9752 196.691 76.9939 198.932 76.4961C199.359 76.425 199.75 76.4962 200.177 76.7095C201.919 77.6695 203.342 80.9758 203.235 82.078Z" fill="#E0C0A4"/>
<path d="M200.177 76.7095C199.963 77.2428 199.75 77.8828 199.501 78.5938C199.394 78.4872 199.323 78.4516 199.252 78.416C199.252 78.416 197.687 83.8201 197.367 87.1976C197.118 88.6908 196.94 90.2552 196.834 91.8906C196.442 91.3217 196.158 90.7529 196.051 90.3973C195.731 88.9752 196.691 76.9939 198.932 76.4961C199.359 76.425 199.75 76.4962 200.177 76.7095Z" fill="#E0C0A4"/>
<path d="M197.189 125.808C195.767 128.19 187.303 134.732 176.598 135.549C176.598 135.549 173.255 141.131 160.132 143.051C147.045 144.971 141.782 141.913 142.742 134.91C143.56 129.008 146.049 115.675 146.832 111.658C146.974 110.911 147.045 110.485 147.045 110.485C147.507 112.085 150.388 119.586 160.63 121.826C170.837 124.066 174.82 122.146 174.82 122.146C174.82 122.146 193.811 119.124 197.011 117.026C197.011 117.026 197.26 118.022 197.474 119.337C197.794 121.435 198.043 124.35 197.189 125.808Z" fill="url(#paint2_linear)"/>
<path opacity="0.4" d="M197.473 119.373C194.024 121.15 187.445 121.826 187.445 121.826L175.638 123.426C169.734 125.026 164.613 124.706 156.967 122.146C150.708 120.048 147.863 115.498 146.831 111.658C146.974 110.911 147.045 110.485 147.045 110.485C147.507 112.084 150.388 119.586 160.63 121.826C170.837 124.066 174.82 122.146 174.82 122.146C174.82 122.146 193.81 119.124 197.011 117.026C197.011 117.026 197.26 118.022 197.473 119.373Z" fill="#E4858E"/>
<g opacity="0.4">
<g opacity="0.4">
<path opacity="0.4" d="M157.216 141.096L156.896 141.132C156.043 141.203 155.189 141.203 154.407 141.203C154.229 141.203 154.051 141.345 154.051 141.559C154.051 141.772 154.193 141.914 154.407 141.914C154.585 141.914 154.762 141.914 154.94 141.914C155.58 141.914 156.256 141.914 156.967 141.843H157.287C157.501 141.807 157.643 141.665 157.607 141.452C157.607 141.203 157.43 141.061 157.216 141.096ZM151.668 140.954C150.708 140.812 149.819 140.634 148.966 140.35C148.788 140.279 148.574 140.385 148.503 140.599C148.432 140.776 148.574 140.99 148.752 141.061C149.641 141.345 150.601 141.523 151.562 141.665H151.597C151.775 141.665 151.917 141.523 151.953 141.345C151.988 141.168 151.846 140.99 151.668 140.954ZM162.8 140.35C161.911 140.528 160.95 140.67 160.026 140.812C159.848 140.848 159.67 141.025 159.706 141.203C159.741 141.381 159.883 141.523 160.061 141.523C160.097 141.523 160.097 141.523 160.097 141.523C161.057 141.381 161.982 141.239 162.906 141.061C163.12 141.025 163.226 140.848 163.191 140.634C163.155 140.421 162.977 140.314 162.8 140.35ZM168.632 139.034C168.561 138.857 168.347 138.75 168.17 138.821C167.316 139.141 166.427 139.425 165.502 139.674C165.325 139.71 165.182 139.923 165.253 140.137C165.289 140.279 165.431 140.385 165.609 140.385C165.645 140.385 165.68 140.385 165.716 140.385C166.64 140.136 167.565 139.816 168.419 139.497C168.596 139.425 168.703 139.212 168.632 139.034ZM146.405 139.319C145.587 138.892 144.84 138.359 144.129 137.79C143.987 137.648 143.773 137.683 143.631 137.826C143.489 137.968 143.524 138.217 143.667 138.323C144.378 138.928 145.196 139.497 146.049 139.959C146.12 139.994 146.156 139.994 146.227 139.994C146.334 139.994 146.476 139.923 146.547 139.817C146.654 139.603 146.583 139.39 146.405 139.319ZM173.646 136.475C173.54 136.297 173.326 136.261 173.148 136.368C172.402 136.866 171.584 137.328 170.73 137.719C170.552 137.826 170.481 138.039 170.552 138.181C170.623 138.323 170.73 138.394 170.872 138.394C170.908 138.394 170.979 138.394 171.015 138.359C171.904 137.932 172.722 137.47 173.504 136.937C173.682 136.866 173.753 136.652 173.646 136.475ZM178.234 133.275C178.163 133.097 177.949 133.026 177.772 133.097C177.701 133.133 177.629 133.168 177.558 133.204C177.274 133.31 177.06 133.417 176.883 133.488C176.456 133.701 176.242 133.808 176.242 133.808C176.207 133.844 176.171 133.879 176.136 133.915C176.136 133.915 175.887 134.199 175.353 134.697C175.353 134.697 175.353 134.732 175.318 134.732C175.176 134.875 175.176 135.088 175.282 135.23C175.353 135.301 175.425 135.337 175.531 135.337C175.602 135.337 175.709 135.301 175.78 135.23C176.242 134.839 176.491 134.519 176.598 134.412C176.669 134.377 176.811 134.306 177.025 134.199C177.203 134.128 177.416 134.021 177.701 133.915C177.807 133.879 177.878 133.808 177.985 133.772C178.234 133.666 178.305 133.452 178.234 133.275ZM183.533 131.319C183.462 131.142 183.284 131.035 183.071 131.106C182.039 131.426 181.15 131.746 180.368 132.03C180.19 132.102 180.083 132.315 180.154 132.493C180.19 132.635 180.332 132.706 180.474 132.706C180.51 132.706 180.546 132.706 180.581 132.706C181.328 132.422 182.217 132.102 183.248 131.782C183.497 131.71 183.604 131.497 183.533 131.319ZM188.618 129.791L188.476 129.471C187.516 129.755 186.627 130.004 185.809 130.253C185.631 130.324 185.524 130.502 185.56 130.715C185.596 130.857 185.738 130.964 185.916 130.964C185.951 130.964 185.987 130.964 186.022 130.964C186.84 130.715 187.729 130.466 188.69 130.182L188.618 129.791ZM193.953 127.16C193.811 127.017 193.597 126.982 193.455 127.088C192.815 127.622 191.997 128.084 191.108 128.475C190.93 128.582 190.859 128.759 190.93 128.937C191.001 129.079 191.108 129.151 191.25 129.151C191.286 129.151 191.357 129.151 191.392 129.115C192.353 128.688 193.171 128.191 193.882 127.622C194.06 127.551 194.06 127.302 193.953 127.16ZM196.371 122.253C196.158 122.218 196.016 122.396 195.98 122.573C195.909 123.462 195.66 124.315 195.198 125.098C195.091 125.275 195.162 125.489 195.34 125.595C195.411 125.631 195.447 125.631 195.518 125.631C195.624 125.631 195.767 125.56 195.838 125.453C196.336 124.6 196.62 123.64 196.727 122.644C196.727 122.431 196.585 122.253 196.371 122.253ZM168.063 124.635C167.138 124.671 166.214 124.671 165.253 124.635C165.076 124.635 164.898 124.813 164.898 124.991C164.898 125.204 165.04 125.346 165.253 125.346C165.68 125.346 166.036 125.346 166.463 125.346C167.032 125.346 167.565 125.346 168.134 125.346C168.347 125.346 168.49 125.169 168.49 124.991C168.419 124.813 168.312 124.635 168.063 124.635ZM162.444 124.564C161.519 124.493 160.559 124.422 159.634 124.351C159.457 124.315 159.243 124.493 159.243 124.671C159.208 124.884 159.386 125.062 159.563 125.062C160.488 125.169 161.448 125.24 162.408 125.275H162.444C162.622 125.275 162.8 125.133 162.8 124.92C162.8 124.742 162.622 124.564 162.444 124.564ZM174.038 124.564C174.038 124.529 174.038 124.529 174.038 124.529C173.966 124.386 173.824 124.315 173.682 124.351C172.757 124.422 171.833 124.493 170.872 124.564C170.659 124.564 170.517 124.742 170.552 124.955C170.552 125.133 170.695 125.311 170.908 125.311H170.944C171.904 125.24 172.864 125.169 173.753 125.098C173.895 125.098 174.002 124.991 174.038 124.884C174.073 124.813 174.109 124.778 174.073 124.706C174.073 124.6 174.038 124.6 174.038 124.564ZM179.265 123.64C178.376 123.782 177.452 123.889 176.456 124.031C176.278 124.067 176.136 124.244 176.136 124.422C176.136 124.6 176.314 124.742 176.491 124.742H176.527C177.523 124.635 178.447 124.493 179.336 124.351C179.514 124.315 179.692 124.138 179.621 123.924C179.657 123.747 179.479 123.604 179.265 123.64ZM156.861 123.96C155.9 123.782 154.976 123.569 154.158 123.32C153.98 123.249 153.767 123.355 153.695 123.533C153.624 123.711 153.731 123.924 153.944 123.995C154.798 124.244 155.758 124.493 156.718 124.671C156.754 124.671 156.754 124.671 156.789 124.671C156.967 124.671 157.11 124.529 157.145 124.386C157.181 124.173 157.038 123.995 156.861 123.96ZM185.24 122.893C185.204 122.715 184.991 122.573 184.813 122.609C184.6 122.644 184.386 122.715 184.173 122.751C183.533 122.893 182.822 123.035 182.075 123.178C181.861 123.213 181.755 123.391 181.79 123.604C181.826 123.782 181.968 123.889 182.146 123.889H182.217C182.999 123.747 183.711 123.604 184.351 123.462C184.564 123.427 184.813 123.391 184.991 123.32C185.169 123.249 185.275 123.071 185.24 122.893ZM151.633 122.253C150.815 121.791 150.068 121.258 149.428 120.653C149.286 120.511 149.072 120.511 148.93 120.653C148.788 120.796 148.788 121.009 148.93 121.151C149.606 121.791 150.424 122.395 151.277 122.858C151.348 122.893 151.384 122.893 151.455 122.893C151.562 122.893 151.704 122.822 151.775 122.715C151.882 122.538 151.811 122.324 151.633 122.253ZM190.646 121.222C190.574 121.044 190.397 120.938 190.183 121.009C189.33 121.293 188.441 121.613 187.516 121.898C187.338 121.969 187.231 122.147 187.267 122.36C187.303 122.502 187.445 122.609 187.623 122.609C187.658 122.609 187.694 122.609 187.729 122.609C188.654 122.324 189.579 122.004 190.432 121.72C190.61 121.613 190.717 121.4 190.646 121.222ZM195.838 119.622C195.304 119.48 194.486 119.622 192.886 120.085C192.708 120.156 192.601 120.333 192.637 120.547C192.673 120.689 192.815 120.796 192.993 120.796C193.028 120.796 193.064 120.796 193.099 120.796C193.811 120.582 194.806 120.298 195.375 120.298C195.518 120.298 195.589 120.333 195.66 120.333C195.838 120.405 196.051 120.298 196.122 120.085C196.158 119.871 196.051 119.693 195.838 119.622ZM147.756 118.485C147.33 117.738 146.974 116.92 146.654 115.996C146.583 115.783 146.405 115.711 146.192 115.747C146.121 115.783 146.049 115.818 146.014 115.889C145.943 115.96 145.943 116.067 145.978 116.138C145.978 116.138 145.978 116.138 145.978 116.174C145.978 116.174 145.978 116.174 145.978 116.209C146.298 117.205 146.654 118.094 147.116 118.876C147.187 118.982 147.33 119.053 147.436 119.053C147.507 119.053 147.543 119.054 147.614 119.018C147.792 118.876 147.863 118.662 147.756 118.485Z" fill="#E4858E"/>
</g>
</g>
<path d="M187.767 119.907C187.767 119.907 178.165 121.471 175.462 122.004C175.177 122.075 174.964 122.111 174.857 122.147C173.577 122.502 172.474 131.71 175.035 136.51C175.035 136.51 175.319 136.439 175.817 136.297C178.165 135.621 185.313 133.524 190.043 131.568C190.007 131.568 189.651 121.187 187.767 119.907ZM177.382 134.128C176.102 131.248 176.742 123.284 176.742 123.284C176.742 123.284 183.606 122.324 185.704 122.004V122.04L187.091 130.715L187.126 130.928L177.382 134.128Z" fill="#E0C0A4"/>
<path d="M187.907 130.502L187.089 130.715L185.702 122.04C186.058 121.898 186.378 121.756 186.378 121.756L187.907 130.502Z" fill="#E0C0A4"/>
<path d="M175.78 136.296C175.282 136.439 174.998 136.51 174.998 136.51C172.437 131.71 173.575 122.502 174.82 122.146C174.927 122.111 175.14 122.075 175.424 122.004C174.749 124.919 173.895 130.928 175.78 136.296Z" fill="#E0C0A4"/>
<path d="M119.768 92.0683C122.187 93.9882 110.202 86.6999 101.311 86.6999L101.133 82.5045L110.877 82.0068C110.877 82.0068 118.061 90.7173 119.768 92.0683Z" fill="#AD606D"/>
<path d="M122.115 43.396C122.613 44.2137 121.12 55.6263 122.791 63.8746C124.463 72.0874 134.385 89.5439 137.052 92.0682C137.052 92.0682 123.467 77.9892 120.764 67.2522C118.061 56.5152 122.115 43.396 122.115 43.396Z" fill="#AD606D"/>
<path d="M98.786 148.597C98.786 148.597 93.6294 149.842 90.0731 149.309C89.5041 149.237 89.0062 149.095 88.5439 148.917C88.5439 148.917 83.3516 141.878 82.3203 130.288C81.3245 118.697 83.1738 43.8938 83.1738 43.8938C83.1738 43.8938 83.7428 43.8582 84.6675 43.7871C88.1527 43.5027 96.6878 42.8627 97.6125 42.7205C97.6125 42.7205 97.7903 73.7583 97.7903 84.4953C97.7903 95.2323 97.9681 138.18 98.1103 141.38C98.2882 144.58 98.786 148.597 98.786 148.597Z" fill="url(#paint3_linear)"/>
<path opacity="0.5" d="M90.073 149.308C89.504 149.237 89.0061 149.095 88.5438 148.917C88.5438 148.917 83.3516 141.878 82.3203 130.287C81.3245 118.697 83.1738 43.8935 83.1738 43.8935C83.1738 43.8935 83.7428 43.858 84.6675 43.7869C84.5608 54.7016 84.0629 102.201 84.3474 114.36C84.5964 125.417 87.5836 141.131 90.073 149.308Z" fill="#835839"/>
<path d="M101.524 126.804C101.382 129.826 101.169 132.776 100.955 135.443C100.386 142.447 99.6393 147.815 98.7858 148.597C98.7858 148.597 97.9323 145.042 97.4344 135.443C97.2921 132.954 97.1855 130.11 97.1143 126.768C97.0432 123.07 97.0432 118.84 97.0788 114.004C97.1855 105.827 97.2566 95.7657 97.3277 85.7753C97.3633 83.8554 97.3633 81.9356 97.3633 80.0157C97.5056 60.3904 97.5767 42.7205 97.5767 42.7205L99.6037 43.7159C99.6037 43.7159 100.351 62.2036 101.026 78.9136C101.133 81.5445 101.24 84.1043 101.311 86.5574C101.595 93.1703 101.809 98.9298 101.951 102.272C102.2 107.96 102.022 117.702 101.524 126.804Z" fill="#97694E"/>
<path opacity="0.4" d="M101.311 86.5927L97.3278 85.8105C97.3633 83.8907 97.3634 81.9707 97.3634 80.0509L100.991 78.9487C101.133 81.5441 101.24 84.1395 101.311 86.5927Z" fill="#97694E"/>
<path d="M108.636 109.702C110.699 111.018 118.594 114.893 117.741 122.928C116.887 130.963 111.375 135.514 100.955 134.163L101.133 131.461C101.133 131.461 112.193 131.816 112.726 123.568C113.224 115.391 108.636 109.702 108.636 109.702Z" fill="#CC6E7C"/>
<path opacity="0.4" d="M101.524 126.804C101.382 129.826 101.169 132.777 100.955 135.443C99.497 135.408 98.2523 135.443 97.4343 135.443C97.2921 132.954 97.1854 130.11 97.1143 126.768H101.524V126.804Z" fill="#97694E"/>
<path d="M137.051 92.0686L135.878 94.4507L135.522 95.1617L132.499 101.455C132.499 101.455 121.084 95.9439 112.691 84.6381C112.051 83.7848 111.446 82.9315 110.841 82.0072L108.992 82.1494L82.142 84.3537L82.4265 71.5546V70.808L82.4621 69.2436L103.018 67.5726L105.294 67.3948C105.294 67.3948 105.4 66.9682 105.614 66.2572C105.649 66.0794 105.72 65.9016 105.756 65.6883C106.04 64.5151 106.503 62.7729 107.036 60.7464C107.107 60.462 107.178 60.1775 107.25 59.8576C107.57 58.6488 107.854 57.3689 108.21 56.0179C109.241 51.716 110.308 46.9518 111.019 43.2188L122.079 43.3965C122.079 43.3965 119.626 55.6268 120.835 65.1195C121.084 67.2526 121.546 69.2081 122.257 70.9146C122.613 71.8034 123.075 72.7278 123.573 73.6878C128.161 82.3627 137.051 92.0686 137.051 92.0686Z" fill="url(#paint4_linear)"/>
<path opacity="0.6" d="M123.573 73.6872C123.182 76.4248 122.328 79.4823 120.479 81.1177C118.203 83.1798 114.931 84.1753 112.691 84.6375C112.051 83.7842 111.446 82.9309 110.842 82.0066L108.992 82.1488C107.356 78.1669 104.44 71.0207 103.018 67.5721L105.294 67.3942C105.294 67.3942 105.4 66.9677 105.614 66.2566C105.649 66.0788 105.72 65.9011 105.756 65.6878C106.041 64.5145 106.503 62.7724 107.036 60.7458C107.107 60.4614 107.179 60.177 107.25 59.857C107.57 58.6482 107.854 57.3683 108.21 56.0173C111.802 56.7284 117.421 61.7414 120.835 65.1189C121.084 67.2521 121.546 69.2075 122.257 70.914C122.649 71.8029 123.075 72.7272 123.573 73.6872Z" fill="#E4858E"/>
<path d="M130.508 33.1923C127.841 31.3436 121.439 43.4316 121.439 43.4316L121.617 43.8583C122.826 41.9384 128.019 34.1523 129.583 34.8633C131.29 35.6811 126.632 41.8317 121.724 44.0716L121.937 44.5694C131.681 41.9029 133.175 35.0411 130.508 33.1923Z" fill="#E4858E"/>
<g opacity="0.5">
<g opacity="0.5">
<path opacity="0.5" d="M82.8889 71.1987C82.8889 71.412 82.7111 71.5542 82.4977 71.5542H82.4622V70.8076H82.4977C82.7111 70.8076 82.8889 70.9853 82.8889 71.1987Z" fill="#E4858E"/>
</g>
<g opacity="0.5">
<path opacity="0.5" d="M88.6501 70.9145C87.5476 70.9145 86.5163 70.8789 85.5561 70.8789C85.3783 70.8789 85.1649 71.0567 85.1649 71.2344C85.1649 71.4122 85.3072 71.6255 85.5206 71.6255C86.4808 71.6255 87.5121 71.6611 88.6145 71.6611C88.8279 71.6611 89.0057 71.4832 89.0057 71.2699C89.0413 71.0922 88.8635 70.9145 88.6501 70.9145ZM94.8026 70.8078C93.7712 70.8434 92.7399 70.8789 91.7441 70.9145C91.5307 70.9145 91.3885 71.0922 91.3885 71.3055C91.3885 71.5188 91.5663 71.6966 91.7797 71.6966C92.811 71.6611 93.8423 71.6611 94.8736 71.59C95.087 71.59 95.2293 71.4122 95.2293 71.1989C95.1937 70.95 95.0159 70.7723 94.8026 70.8078ZM100.919 70.2744C99.9948 70.4167 98.9634 70.5234 97.861 70.5945C97.6476 70.6301 97.5053 70.8078 97.5053 71.0211C97.5053 71.2345 97.6831 71.3767 97.8965 71.3767H97.9321C99.0701 71.3056 100.101 71.1633 101.026 71.0566C101.239 71.0211 101.382 70.8433 101.346 70.63C101.311 70.3811 101.133 70.2389 100.919 70.2744ZM107.036 68.4968C106.894 68.3546 106.681 68.3547 106.538 68.4613C106.538 68.4613 106.538 68.4613 106.503 68.4613C106.361 68.6035 106.183 68.7457 106.04 68.8523C105.934 68.9234 105.792 68.9945 105.685 69.0657C105.223 69.3145 104.654 69.5279 103.942 69.7057C103.729 69.7768 103.622 69.9545 103.693 70.1678C103.729 70.3456 103.907 70.4523 104.049 70.4523C104.084 70.4523 104.12 70.4523 104.156 70.4523C104.902 70.239 105.543 70.0256 106.04 69.7768C106.147 69.7056 106.254 69.6701 106.361 69.599C106.574 69.4568 106.787 69.3146 107.001 69.1368C107.036 69.1013 107.036 69.0657 107.072 69.0657C107.179 68.8879 107.178 68.639 107.036 68.4968ZM109.668 62.9861C109.455 62.915 109.277 63.0572 109.206 63.235C108.886 64.3016 108.494 65.2616 108.139 66.0437C108.032 66.2215 108.139 66.4703 108.317 66.5414C108.352 66.577 108.423 66.577 108.459 66.577C108.601 66.577 108.743 66.5059 108.814 66.3637C109.206 65.546 109.561 64.5504 109.917 63.4127C109.988 63.2705 109.881 63.0217 109.668 62.9861ZM111.019 56.9421C110.806 56.9065 110.628 57.0488 110.593 57.2265C110.415 58.2931 110.237 59.2175 110.024 60.1063C110.024 60.1419 109.988 60.1775 109.988 60.2486C109.952 60.3552 109.988 60.4619 110.059 60.5685C110.13 60.6396 110.201 60.6752 110.272 60.7108C110.308 60.7108 110.308 60.7108 110.344 60.7108C110.521 60.7108 110.664 60.6041 110.699 60.4263C110.913 59.5019 111.09 58.5065 111.304 57.3688C111.339 57.191 111.197 56.9776 111.019 56.9421ZM111.908 50.8625C111.695 50.827 111.517 50.9692 111.482 51.1825C111.339 52.2135 111.197 53.2091 111.055 54.2401C111.019 54.4534 111.162 54.6312 111.375 54.6667C111.41 54.6667 111.411 54.6667 111.446 54.6667C111.624 54.6667 111.766 54.5245 111.802 54.3468C111.944 53.3513 112.086 52.3202 112.228 51.2891C112.264 51.0758 112.122 50.8625 111.908 50.8625ZM112.762 44.7474C112.549 44.7118 112.371 44.854 112.335 45.0674C112.193 46.0628 112.051 47.0939 111.944 48.125C111.908 48.3383 112.051 48.516 112.264 48.5516H112.3C112.477 48.5516 112.655 48.4094 112.655 48.2316C112.797 47.2006 112.94 46.1695 113.082 45.174C113.118 44.9251 112.94 44.7474 112.762 44.7474Z" fill="#E4858E"/>
</g>
</g>
<g opacity="0.5">
<g opacity="0.5">
<path opacity="0.5" d="M133.353 91.9618C132.677 91.2508 131.966 90.5042 131.326 89.7575C131.184 89.6153 130.935 89.5797 130.792 89.722C130.615 89.8642 130.615 90.1131 130.757 90.2553C131.397 91.002 132.108 91.784 132.819 92.4951C132.891 92.5662 132.997 92.6373 133.104 92.6373C133.211 92.6373 133.282 92.6018 133.353 92.5307C133.495 92.3529 133.495 92.1396 133.353 91.9618ZM129.405 87.4466C128.801 86.6644 128.161 85.8468 127.627 85.029C127.521 84.8513 127.272 84.8157 127.094 84.9224C126.916 85.029 126.88 85.2779 126.987 85.4557C127.556 86.2734 128.161 87.0911 128.801 87.9088C128.872 88.0155 128.979 88.051 129.085 88.051C129.156 88.051 129.263 88.051 129.334 87.9799C129.512 87.8377 129.548 87.5888 129.405 87.4466ZM125.991 82.5047C125.458 81.6514 124.96 80.7627 124.498 79.9094C124.391 79.7316 124.178 79.6605 124 79.7671C123.822 79.8738 123.751 80.0872 123.858 80.2649C124.32 81.1538 124.853 82.0426 125.387 82.8958C125.458 83.0025 125.565 83.0735 125.707 83.0735C125.778 83.0735 125.849 83.038 125.885 83.0025C126.027 82.8958 126.098 82.6469 125.991 82.5047ZM123.146 77.1717C122.72 76.2473 122.328 75.323 121.973 74.3986C121.902 74.2208 121.688 74.1142 121.475 74.1853C121.261 74.2564 121.19 74.5053 121.261 74.6831C121.617 75.643 122.044 76.5673 122.435 77.4917C122.506 77.6339 122.648 77.7051 122.791 77.7051C122.826 77.7051 122.897 77.7051 122.933 77.6695C123.146 77.5984 123.217 77.385 123.146 77.1717ZM120.977 71.59C120.657 70.63 120.408 69.6701 120.159 68.7102C120.123 68.4969 119.91 68.3901 119.697 68.4257C119.483 68.4613 119.377 68.6746 119.412 68.8879C119.661 69.8834 119.946 70.8433 120.23 71.8388C120.266 72.0165 120.408 72.0877 120.586 72.0877C120.621 72.0877 120.657 72.0876 120.692 72.0521C120.906 71.981 121.048 71.7677 120.977 71.59ZM119.056 62.7728C119.021 62.5595 118.843 62.4173 118.63 62.4528C118.416 62.4884 118.274 62.6661 118.31 62.8794C118.416 63.8749 118.594 64.906 118.772 65.9015C118.808 66.0792 118.95 66.2214 119.163 66.2214C119.199 66.2214 119.199 66.2214 119.234 66.2214C119.448 66.1859 119.59 66.0081 119.519 65.7948C119.341 64.7638 119.199 63.7683 119.056 62.7728ZM118.701 56.7643C118.701 56.551 118.523 56.3733 118.31 56.3733C118.096 56.3733 117.918 56.551 117.918 56.7643C117.918 57.7953 117.954 58.8264 118.025 59.8219C118.061 60.0352 118.203 60.1774 118.416 60.1774C118.416 60.1774 118.416 60.1774 118.452 60.1774C118.665 60.1774 118.808 59.9996 118.808 59.7863C118.736 58.7908 118.701 57.7953 118.701 56.7643ZM118.701 50.3292C118.487 50.2936 118.31 50.4714 118.274 50.6492C118.167 51.6802 118.061 52.6757 118.025 53.7068C117.99 53.8845 118.167 54.0978 118.381 54.0978C118.381 54.0978 118.381 54.0978 118.416 54.0978C118.63 54.0978 118.772 53.9556 118.808 53.7423C118.843 52.7468 118.95 51.7513 119.056 50.7558C119.021 50.5425 118.879 50.3647 118.701 50.3292ZM119.768 44.3918C119.554 44.3207 119.377 44.4629 119.305 44.6763C119.092 45.6362 118.879 46.6672 118.701 47.6627C118.665 47.876 118.808 48.0538 119.021 48.0893C119.056 48.0893 119.056 48.0893 119.092 48.0893C119.27 48.0893 119.448 47.9471 119.448 47.7694C119.625 46.7739 119.803 45.7784 120.052 44.8185C120.088 44.6407 119.946 44.4273 119.768 44.3918Z" fill="#E4858E"/>
</g>
<g opacity="0.5">
<path opacity="0.5" d="M135.878 94.4501L135.522 95.161C135.344 95.0188 135.167 94.8411 134.989 94.6634C134.847 94.5212 134.811 94.2723 134.989 94.1301C135.131 93.9523 135.38 93.9523 135.522 94.0945C135.629 94.2367 135.771 94.3434 135.878 94.4501Z" fill="#E4858E"/>
</g>
</g>
<g opacity="0.5">
<g opacity="0.5">
<path opacity="0.5" d="M87.9391 81.5088C86.8366 81.5799 85.7342 81.651 84.774 81.7221C84.5606 81.7221 84.4183 81.8999 84.4183 82.1132C84.4183 82.3266 84.5962 82.4688 84.774 82.4688H84.8095C85.7697 82.3977 86.8722 82.3266 87.9746 82.2555C88.188 82.2555 88.3659 82.0777 88.3303 81.8643C88.3659 81.651 88.1525 81.5088 87.9391 81.5088ZM94.3049 81.1177C93.238 81.1888 92.1711 81.2244 91.1398 81.2955C90.9264 81.331 90.7842 81.4733 90.7842 81.6866C90.7842 81.8999 90.962 82.0422 91.1754 82.0422C91.1754 82.0422 91.1753 82.0422 91.2109 82.0422C92.2422 81.9711 93.3091 81.8999 94.376 81.8643C94.5894 81.8643 94.7317 81.6866 94.7317 81.4377C94.6961 81.2955 94.4827 81.1177 94.3049 81.1177ZM100.671 80.8332C99.6394 80.8688 98.5725 80.9399 97.5056 80.9755C97.2922 80.9755 97.1144 81.1533 97.1499 81.3666C97.1499 81.58 97.3277 81.7221 97.5411 81.7221C98.608 81.6865 99.6749 81.6155 100.706 81.58C100.92 81.58 101.097 81.4021 101.062 81.1888C101.026 80.9755 100.849 80.8332 100.671 80.8332ZM107.036 80.6555C106.041 80.6555 104.974 80.691 103.836 80.7266C103.622 80.7266 103.445 80.9044 103.48 81.1177C103.48 81.3311 103.658 81.4733 103.836 81.4733C104.938 81.4377 106.005 81.4377 107.001 81.4021C107.214 81.4021 107.392 81.2243 107.392 81.0466C107.392 80.8332 107.214 80.6555 107.036 80.6555Z" fill="#E4858E"/>
</g>
<g opacity="0.5">
<path opacity="0.5" d="M111.695 81.5483C111.233 81.5126 110.735 81.4769 110.166 81.4769C109.953 81.4769 109.775 81.2983 109.81 81.0841C109.81 80.8699 109.953 80.7271 110.202 80.7271C110.735 80.7271 111.269 80.7628 111.731 80.7985C111.944 80.7985 112.087 80.977 112.087 81.1912C112.051 81.3697 111.909 81.5483 111.695 81.5483Z" fill="#E4858E"/>
</g>
</g>
<path d="M123.644 75.821C123.822 75.1455 113.936 59.431 108.566 58.7555C102.555 58.0089 102.271 64.0529 104.12 68.2482C105.97 72.4434 113.793 84.1404 113.793 84.1404L123.644 75.821Z" fill="#EB919E"/>
<g opacity="0.5">
<g opacity="0.5">
<path opacity="0.5" d="M117.421 67.9281C117.278 67.9281 117.172 67.8569 117.1 67.7502C117.1 67.7502 116.78 67.2525 116.211 66.5414C116.069 66.3637 116.105 66.1504 116.283 66.0082C116.46 65.866 116.674 65.9015 116.816 66.0792C117.385 66.8259 117.705 67.3236 117.705 67.3236C117.812 67.5014 117.776 67.7147 117.598 67.8569C117.563 67.928 117.492 67.9281 117.421 67.9281Z" fill="#E4858E"/>
</g>
<g opacity="0.5">
<path opacity="0.5" d="M131.006 98.895C130.152 98.4328 129.263 97.9351 128.41 97.3662C128.232 97.2596 127.983 97.2951 127.876 97.4729C127.77 97.6506 127.805 97.8995 127.983 98.0062C128.872 98.6106 129.761 99.1083 130.65 99.5705C130.721 99.606 130.757 99.606 130.828 99.606C130.97 99.606 131.077 99.5349 131.148 99.3927C131.255 99.2149 131.184 99.0016 131.006 98.895ZM125.956 95.5886C125.174 94.9842 124.427 94.3086 123.644 93.6331C123.467 93.4909 123.253 93.4909 123.111 93.6687C122.969 93.8109 122.969 94.0597 123.146 94.202C123.929 94.913 124.711 95.5885 125.494 96.1929C125.565 96.2285 125.636 96.2641 125.743 96.2641C125.849 96.2641 125.956 96.2285 126.027 96.1218C126.134 95.9796 126.098 95.7308 125.956 95.5886ZM121.511 91.5355C120.835 90.8244 120.159 90.0778 119.483 89.2956C119.341 89.1534 119.092 89.1179 118.95 89.2601C118.772 89.4024 118.772 89.6512 118.914 89.7934C119.59 90.5756 120.301 91.3577 120.977 92.0688C121.048 92.1399 121.155 92.1754 121.262 92.1754C121.368 92.1754 121.439 92.1399 121.511 92.0688C121.653 91.9265 121.653 91.6777 121.511 91.5355ZM117.527 86.9491C116.923 86.167 116.318 85.3492 115.714 84.496C115.607 84.3182 115.358 84.2827 115.18 84.4249C115.002 84.5315 114.967 84.7804 115.109 84.9582C115.714 85.8114 116.318 86.6292 116.958 87.4113C117.03 87.518 117.136 87.5536 117.243 87.5536C117.314 87.5536 117.385 87.5536 117.492 87.4825C117.634 87.3403 117.67 87.0913 117.527 86.9491ZM114.007 82.0073C113.402 81.1185 112.869 80.2297 112.371 79.4475C112.264 79.2697 112.015 79.2342 111.837 79.3408C111.66 79.4475 111.588 79.6963 111.695 79.8741C112.193 80.6918 112.726 81.5451 113.331 82.4695C113.402 82.5762 113.509 82.6472 113.651 82.6472C113.722 82.6472 113.793 82.6117 113.864 82.5762C114.042 82.434 114.113 82.1851 114.007 82.0073ZM110.806 76.8166C110.166 75.6789 109.668 74.719 109.348 74.1501C109.241 73.9724 109.028 73.9012 108.85 74.0079C108.672 74.1145 108.601 74.3278 108.708 74.5412C109.028 75.1456 109.526 76.07 110.166 77.2432C110.237 77.3499 110.344 77.4209 110.486 77.4209C110.557 77.4209 110.628 77.3854 110.664 77.3499C110.877 77.2432 110.913 76.9944 110.806 76.8166ZM107.997 71.4481C107.605 70.5948 107.25 69.8482 106.965 69.1016C106.894 68.9593 106.823 68.8171 106.787 68.6749C106.752 68.5683 106.645 68.4972 106.574 68.4616C106.503 68.4261 106.396 68.4261 106.325 68.4616C106.183 68.5327 106.076 68.6749 106.112 68.8527C106.112 68.8882 106.112 68.9238 106.147 68.9593C106.218 69.1726 106.325 69.3504 106.396 69.5638C106.716 70.2393 107.036 70.9859 107.392 71.768C107.463 71.9102 107.605 71.9813 107.748 71.9813C107.783 71.9813 107.854 71.9813 107.89 71.9458C107.997 71.8391 108.068 71.6258 107.997 71.4481ZM105.792 65.6885C105.614 64.9063 105.507 64.2308 105.507 63.6264C105.507 63.3775 105.507 63.1642 105.543 62.9508C105.578 62.7375 105.4 62.5598 105.223 62.5242C105.009 62.4887 104.831 62.6309 104.796 62.8442C104.76 63.0931 104.76 63.342 104.76 63.5909C104.76 64.3019 104.867 65.084 105.08 65.9729C105.116 66.1506 105.258 66.2574 105.436 66.2574C105.472 66.2574 105.507 66.2574 105.543 66.2574C105.578 66.2574 105.578 66.2218 105.614 66.2218C105.756 66.1507 105.827 65.9729 105.792 65.7952C105.792 65.7952 105.792 65.7241 105.792 65.6885ZM114.825 63.7686C114.042 62.9509 113.295 62.2398 112.549 61.6354C112.406 61.4932 112.157 61.5288 112.015 61.7066C111.873 61.8843 111.908 62.0976 112.086 62.2399C112.798 62.8087 113.544 63.4842 114.291 64.2664C114.362 64.3375 114.469 64.3731 114.576 64.3731C114.682 64.3731 114.753 64.3375 114.825 64.2664C114.967 64.1597 114.967 63.9108 114.825 63.7686ZM110.024 60.1422C109.988 60.1067 109.917 60.0356 109.881 60.0356C108.957 59.7156 108.068 59.6444 107.285 59.8578C107.143 59.8933 107.001 59.9289 106.859 60C106.752 60.0355 106.681 60.0711 106.61 60.1422C106.432 60.2489 106.361 60.4622 106.467 60.6399C106.538 60.7821 106.681 60.8532 106.787 60.8532C106.859 60.8532 106.894 60.8533 106.965 60.8178C107.001 60.7822 107.036 60.7821 107.072 60.7466C107.107 60.7466 107.143 60.7111 107.179 60.7111C107.89 60.4267 108.708 60.4266 109.632 60.7466C109.81 60.8177 109.988 60.7465 110.095 60.6043C110.095 60.5688 110.13 60.5688 110.13 60.5333C110.13 60.3911 110.095 60.2489 110.024 60.1422Z" fill="#E4858E"/>
</g>
</g>
<path d="M118.915 66.7195C116.745 65.1907 110.379 67.6083 108.032 73.2968C107.819 73.7945 107.641 74.3635 107.499 74.9323C107.357 75.6434 109.526 79.6252 110.877 81.9717C112.229 84.3182 113.545 86.167 114.398 87.0203C114.398 87.0203 114.718 86.8425 115.216 86.4514C117.172 85.0293 122.186 81.0473 124.462 75.6077C124.462 75.6433 121.262 68.426 118.915 66.7195ZM113.865 83.5005C113.011 82.505 110.984 77.9543 110.344 76.1055C109.49 73.759 117.065 68.3905 118.239 68.5683C119.412 68.7105 122.578 74.9323 122.578 74.9323C121.084 77.8121 113.865 83.5005 113.865 83.5005Z" fill="#E0C0A4"/>
<path d="M115.216 86.4865C114.718 86.842 114.398 87.0552 114.398 87.0552C113.545 86.202 112.229 84.3533 110.877 82.0068C109.526 79.6602 107.357 75.6427 107.499 74.9672C107.641 74.3983 107.819 73.8295 108.032 73.3318C109.206 76.5316 111.873 82.8955 114.042 85.2776C114.469 85.7398 114.86 86.1665 115.216 86.4865Z" fill="#E0C0A4"/>
<path d="M114.896 122.751C115.003 127.088 112.975 130.146 110.095 132.065C109.099 132.741 107.961 133.239 106.788 133.63C99.4259 133.239 90.1084 131.959 82 128.475L82.1778 101.454V100.672V99.4634C82.1778 99.4634 99.6393 104.761 108.637 109.703C110.237 111.231 111.695 113.116 112.798 115.178C114.042 117.524 114.825 120.12 114.896 122.751Z" fill="url(#paint5_linear)"/>
<g opacity="0.5">
<g opacity="0.5">
<path opacity="0.5" d="M82.5333 101.241C82.4622 101.384 82.3555 101.49 82.2133 101.49H82.1777V100.708C82.2489 100.744 82.2844 100.744 82.3556 100.779C82.5334 100.815 82.6045 101.028 82.5333 101.241Z" fill="#E4858E"/>
</g>
<g opacity="0.5">
<path opacity="0.5" d="M105.009 130.608C104.156 130.75 103.231 130.821 102.164 130.821H102.022C101.808 130.821 101.631 130.999 101.631 131.177C101.631 131.39 101.773 131.568 101.986 131.568H102.128C103.231 131.568 104.227 131.497 105.08 131.319C105.294 131.283 105.436 131.106 105.4 130.892C105.4 130.679 105.222 130.572 105.009 130.608ZM99.0344 130.643C98.1098 130.537 97.114 130.395 96.0472 130.217C95.8338 130.181 95.656 130.323 95.6204 130.501C95.5848 130.714 95.7271 130.892 95.9405 130.963C97.0074 131.141 98.0387 131.283 98.9634 131.39H98.9989C99.1767 131.39 99.3545 131.248 99.3901 131.035C99.3901 130.857 99.2478 130.643 99.0344 130.643ZM93.0954 129.612C92.1708 129.399 91.175 129.15 90.1437 128.901C89.9303 128.866 89.7525 128.972 89.6814 129.186C89.6458 129.399 89.7525 129.612 89.9659 129.648C90.9972 129.897 91.993 130.146 92.9176 130.359C92.9532 130.359 92.9887 130.359 92.9887 130.359C93.1665 130.359 93.3088 130.252 93.3444 130.075C93.4155 129.861 93.3088 129.683 93.0954 129.612ZM110.379 127.621C110.201 127.515 109.988 127.55 109.846 127.728C109.241 128.581 108.601 129.186 107.747 129.684C107.57 129.79 107.498 130.039 107.605 130.217C107.676 130.323 107.783 130.395 107.925 130.395C107.996 130.395 108.067 130.395 108.103 130.359C109.028 129.826 109.775 129.115 110.45 128.19C110.592 127.977 110.521 127.764 110.379 127.621ZM87.192 128.119C86.2673 127.87 85.2715 127.586 84.2758 127.266C84.0624 127.195 83.849 127.301 83.8134 127.515C83.7423 127.728 83.849 127.941 84.0624 127.977C85.0937 128.261 86.0539 128.581 86.9786 128.83C87.0141 128.83 87.0497 128.83 87.0852 128.83C87.2631 128.83 87.4053 128.724 87.4409 128.546C87.512 128.404 87.4054 128.19 87.192 128.119ZM112.122 121.862C111.908 121.826 111.731 122.004 111.695 122.217C111.624 123.284 111.446 124.244 111.161 125.097C111.09 125.31 111.197 125.524 111.41 125.559C111.446 125.559 111.482 125.595 111.517 125.595C111.659 125.595 111.837 125.488 111.873 125.346C112.193 124.422 112.371 123.355 112.442 122.253C112.477 122.075 112.335 121.897 112.122 121.862ZM111.624 116.138C111.553 115.924 111.339 115.818 111.161 115.889C110.984 115.96 110.877 116.173 110.948 116.387C111.268 117.275 111.517 118.271 111.659 119.266C111.695 119.444 111.837 119.586 112.051 119.586H112.122C112.335 119.551 112.477 119.373 112.442 119.16C112.228 118.093 111.944 117.062 111.624 116.138ZM110.13 113.329C109.775 112.831 109.348 112.405 108.921 112.049C108.637 111.836 108.245 111.587 107.712 111.267C107.534 111.16 107.285 111.231 107.214 111.409C107.107 111.587 107.178 111.836 107.356 111.942C107.854 112.191 108.21 112.44 108.459 112.654C108.85 112.974 109.206 113.365 109.561 113.791C109.632 113.898 109.739 113.933 109.846 113.933C109.917 113.933 109.988 113.898 110.059 113.862C110.237 113.756 110.272 113.507 110.13 113.329ZM104.938 109.916C104.084 109.525 103.16 109.098 102.128 108.672C101.951 108.601 101.702 108.672 101.631 108.885C101.559 109.063 101.631 109.312 101.844 109.383C102.84 109.809 103.764 110.236 104.618 110.627C104.653 110.663 104.725 110.663 104.796 110.663C104.938 110.663 105.08 110.591 105.116 110.449C105.222 110.236 105.151 109.987 104.938 109.916ZM99.3189 107.498C98.3943 107.107 97.4341 106.716 96.5095 106.361C96.2961 106.29 96.0827 106.396 96.0116 106.574C95.9405 106.752 96.0472 107.001 96.225 107.072C97.1852 107.463 98.1454 107.818 99.0344 108.209C99.07 108.245 99.1412 108.245 99.1767 108.245C99.319 108.245 99.4612 108.138 99.5323 107.996C99.6034 107.783 99.5323 107.569 99.3189 107.498ZM93.6644 105.223L90.8194 104.121C90.606 104.05 90.3926 104.156 90.3215 104.334C90.2504 104.547 90.357 104.761 90.5349 104.832L93.3799 105.934C93.451 105.97 93.4866 105.97 93.5222 105.97C93.6645 105.97 93.8067 105.863 93.8778 105.721C93.9489 105.543 93.8422 105.294 93.6644 105.223ZM87.9743 103.019C86.9786 102.628 86.0184 102.237 85.1649 101.917C84.987 101.845 84.7381 101.917 84.667 102.13C84.5959 102.308 84.7025 102.556 84.8803 102.628C85.7339 102.983 86.6941 103.339 87.7254 103.765C87.761 103.765 87.8321 103.801 87.8676 103.801C88.0099 103.801 88.1522 103.694 88.2233 103.552C88.2588 103.303 88.1877 103.09 87.9743 103.019Z" fill="#E4858E"/>
</g>
</g>
<path opacity="0.6" d="M114.896 122.751C115.002 127.088 112.975 130.146 110.095 132.066C107.285 131.461 104.298 130.075 103.16 128.191C101.026 124.671 102.662 117.134 104.405 115.854C105.756 114.894 110.521 115 112.797 115.178C114.042 117.525 114.825 120.12 114.896 122.751Z" fill="#E4858E"/>
<path d="M114.718 116.565C112.513 116.103 106.147 115.071 104.974 116.067C103.8 117.062 102.769 126.626 104.618 127.657C106.468 128.653 114.683 130.182 116.212 128.653C117.741 127.124 120.088 117.738 114.718 116.565Z" fill="#EB919E"/>
<path d="M114.718 116.564C114.291 116.457 113.9 116.386 113.545 116.386C113.545 116.386 110.522 125.097 111.518 129.47C111.518 129.47 111.98 129.541 112.656 129.577C113.971 129.612 115.998 129.399 116.888 127.977C118.239 125.772 118.31 118.591 118.31 118.591C117.101 117.595 115.856 116.884 114.718 116.564ZM113.722 127.621L114.896 118.057C114.896 118.057 117.172 118.697 117.172 119.977C116.888 129.043 113.722 127.621 113.722 127.621Z" fill="#E0C0A4"/>
<path d="M114.718 116.564C113.936 119.373 112.656 125.523 112.656 129.576C111.98 129.541 111.518 129.47 111.518 129.47C110.522 125.097 113.545 116.386 113.545 116.386C113.9 116.386 114.291 116.457 114.718 116.564Z" fill="#E0C0A4"/>
<defs>
<linearGradient id="paint0_linear" x1="168.298" y1="156.179" x2="179.785" y2="60.4251" gradientUnits="userSpaceOnUse">
<stop stop-color="#835839"/>
<stop offset="1" stop-color="#754830"/>
</linearGradient>
<linearGradient id="paint1_linear" x1="161.677" y1="105.689" x2="194.468" y2="42.7226" gradientUnits="userSpaceOnUse">
<stop stop-color="#E4858E"/>
<stop offset="1" stop-color="#D9998E"/>
</linearGradient>
<linearGradient id="paint2_linear" x1="142.625" y1="127.058" x2="197.773" y2="127.058" gradientUnits="userSpaceOnUse">
<stop stop-color="#E4858E"/>
<stop offset="1" stop-color="#D9998E"/>
</linearGradient>
<linearGradient id="paint3_linear" x1="93.3374" y1="151.705" x2="88.4741" y2="57.9285" gradientUnits="userSpaceOnUse">
<stop stop-color="#835839"/>
<stop offset="1" stop-color="#754830"/>
</linearGradient>
<linearGradient id="paint4_linear" x1="82.1701" y1="72.3481" x2="137.043" y2="72.3481" gradientUnits="userSpaceOnUse">
<stop stop-color="#E4858E"/>
<stop offset="1" stop-color="#D9998E"/>
</linearGradient>
<linearGradient id="paint5_linear" x1="81.9932" y1="116.527" x2="114.896" y2="116.527" gradientUnits="userSpaceOnUse">
<stop stop-color="#E4858E"/>
<stop offset="1" stop-color="#D9998E"/>
</linearGradient>
</defs>
</svg>
