<svg width="285" height="190" viewBox="0 0 285 190" fill="none" xmlns="http://www.w3.org/2000/svg">
<g clip-path="url(#clip0)">
<rect width="285" height="190" fill="#FBDEBB"/>
<path d="M286.003 -13H0.10498V224.628H286.003V-13Z" fill="#ECF4F4"/>
<g opacity="0.7">
<path opacity="0.7" d="M260.786 100.028C260.311 106.691 263.639 112.78 266.956 118.687C269.637 123.464 272.085 128.278 273.903 133.331C275.544 137.889 276.893 142.556 277.465 147.299C277.951 151.33 278.18 156.263 275.47 159.851C272.416 163.891 265.641 166.667 261.312 162.237C257.458 158.292 255.977 152.95 254.233 148.183C253.393 145.888 252.449 143.174 251.397 141.182C250.894 140.232 250.351 139.276 249.619 138.43C249.562 138.364 249.487 138.24 249.001 137.884C249.173 138.007 248.384 137.656 248.938 137.803C248.835 137.775 248.79 137.756 248.761 137.741C248.258 137.846 248.784 137.613 248.046 138.031C247.612 138.278 246.4 139.295 245.771 140.037C243.884 142.242 243.18 143.967 242.517 146.686C240.968 153.064 240.533 159.652 238.309 165.911C236.485 171.035 232.717 177.266 225.163 176.98C214.791 176.586 205.202 168.497 201.731 160.883C197.025 150.564 200.65 139.562 211.057 132.727C216.037 129.457 222.59 127 225.924 122.304C228.342 118.892 229.492 114.419 228.062 110.546C226.541 106.439 221.795 104.747 216.975 106.397C211.898 108.136 208.73 112.77 206.311 116.615C203.789 120.626 195.63 137.665 187.671 129.951C183.308 125.726 183.033 118.554 183.731 113.331C184.606 106.777 186.819 100.455 188.145 93.9727C189.003 89.7664 189.334 85.3463 188.814 81.0925C188.523 78.7399 187.716 73.6592 183.822 73.5071C172.301 73.0603 171.26 87.005 171.094 93.7255C170.928 100.427 172.461 107.01 173.09 113.678C173.496 117.984 174.799 127.352 167.343 128.098C163.747 128.454 160.19 125.783 157.834 123.887C154.369 121.097 151.344 117.936 147.29 115.684C143.791 113.74 138.799 111.72 136.912 116.259C136.083 118.255 136.037 119.885 137.821 121.563C139.554 123.193 141.601 124.49 143.785 125.669C148.543 128.24 153.186 130.498 157.188 133.915C161.865 137.908 166.125 142.513 168.761 147.675C171.283 152.608 172.735 157.874 171.683 163.24C170.574 168.905 166.863 173.801 161.82 177.646C157.291 181.092 149.149 185.645 144.637 179.566C141.064 174.756 141.361 167.979 140.898 162.537C140.652 159.637 140.469 156.686 139.726 153.839C139.034 151.196 138.691 150.141 135.849 148.92C134.551 148.364 133.361 148.074 132.384 148.407C132.052 148.521 131.24 149.291 130.76 150.08C129.147 152.698 128.621 155.83 128.084 158.711C127.095 163.977 127.232 173.202 119.021 174.509C111.822 175.654 106.19 171.448 102.37 166.843C98.5106 162.185 97.1726 156.472 96.9667 150.902C96.6922 143.487 97.9216 136.102 98.1503 128.692C98.339 122.466 98.259 116.211 97.59 110.004C97.0468 104.971 96.5665 98.3595 92.8098 94.2721C91.9521 93.3405 90.9571 93.0886 89.8707 93.5211C86.5772 94.8282 83.7239 97.5943 81.9914 100.199C75.9647 109.286 77.1769 121.187 77.8001 131.168C78.309 139.291 79.161 147.575 78.5435 155.712C78.0117 162.77 76.5022 172.674 68.1139 176.472C59.8343 180.227 48.6958 177.384 46.4029 169.409C44.2872 162.061 47.0147 154.747 48.0897 147.461C48.5014 144.676 48.1926 141.729 47.8152 138.953C47.4035 135.926 46.9175 132.233 44.8247 129.638C44.2129 128.877 44.0242 128.763 43.6011 128.958C41.7084 129.814 40.662 131.168 40.542 132.974C40.2504 137.437 42.1487 142.86 38.3977 146.662C35.6474 149.447 30.4955 151.41 26.5787 149.081C23.0736 147 21.7013 142.984 20.9809 139.628C18.5793 128.374 23.2223 116.952 20.3462 105.693C19.5857 102.713 18.5164 99.6855 16.5494 97.081C15.7089 95.9688 14.5253 94.4479 12.9185 94.0107C9.71649 93.1362 6.73744 95.351 4.70185 97.2141C3.05508 98.716 1.51123 100.427 0.104614 102.271V242.688H286.002V84.1011C274.229 83.2979 261.529 89.5335 260.786 100.028Z" fill="#B4D8D3"/>
<g opacity="0.7">
<g opacity="0.7">
<path opacity="0.7" d="M100.064 203.779C96.8137 200.542 91.9406 199.463 88.695 196.051C84.724 191.741 93.2054 185.268 86.7095 183.29C83.4591 182.392 74.0756 183.11 74.257 178.077C74.257 175.563 77.8653 174.665 77.8653 172.326C77.8653 170.169 75.159 169.09 73.5362 168.372C70.2859 166.756 65.4127 166.215 63.79 162.441C63.2506 161.182 62.7065 158.667 64.1527 157.589C66.3196 155.973 68.1238 158.667 69.5652 159.927C72.9921 162.983 76.7818 162.441 80.2135 165.14C81.8363 166.4 83.2825 168.196 83.2825 170.354C83.2825 171.97 80.7577 174.308 81.8411 176.105C82.7432 177.72 86.7143 177.003 88.3371 177.545C90.8619 178.443 91.764 179.883 92.1267 182.216C92.4895 184.193 91.406 186.708 93.2102 188.148C95.3771 189.763 97.902 188.148 98.8041 186.351C101.51 180.962 95.9164 178.086 92.8475 174.85C88.695 170.535 95.0144 166.224 89.9598 162.27C86.3515 159.395 81.8363 157.779 79.8556 153.107C78.4142 149.695 77.3307 144.481 80.939 141.786C82.5618 140.527 85.2728 140.17 86.3515 142.504C87.2536 144.3 85.4494 145.74 85.4494 147.537C84.9101 152.746 90.6853 152.028 93.7495 154.186C97.902 156.88 98.8041 160.654 97.1765 164.789C95.9117 167.845 96.093 168.382 98.7993 170.178C101.324 171.794 102.77 173.234 103.854 175.929C104.937 178.086 104.393 179.341 104.756 181.318C104.937 183.115 106.56 184.731 108.546 182.758C111.796 179.346 107.104 172.336 106.021 169.099C105.3 167.303 104.579 164.789 104.937 162.631C105.3 160.117 106.923 158.496 106.202 155.802C104.761 151.31 99.5248 148.255 99.3434 143.041C99.162 139.087 100.785 133.873 104.579 132.438C110.355 130.28 112.703 134.234 108.908 138.189C104.217 143.041 107.643 144.3 110.35 149.329C112.698 153.82 111.433 156.519 110.712 161.01C109.992 165.145 113.6 169.275 113.419 173.771C113.419 175.387 111.977 187.249 116.488 181.86C119.194 178.267 116.488 170.72 116.85 166.766C117.032 163.891 117.39 162.631 120.101 162.275C122.988 161.913 124.435 162.992 125.155 159.219C126.239 153.829 124.072 149.514 129.847 145.74C132.553 143.944 139.951 142.865 140.314 147.898C140.677 152.57 131.289 149.158 131.833 155.626C132.195 158.682 134.72 160.835 133.274 164.252C132.009 167.308 129.666 167.308 126.959 167.845C120.282 169.285 124.611 173.595 124.072 178.628C123.89 180.966 122.807 182.944 120.645 184.379C119.022 185.277 114.87 185.995 117.037 188.514C119.561 191.75 127.866 185.819 128.587 183.124C129.126 181.328 128.048 179.351 128.95 177.554C130.391 175.04 131.475 176.295 133.642 176.295C140.319 176.114 139.417 170.007 140.5 165.335C141.125 162.631 144.829 158.24 148.018 159.214C152.986 160.735 148.915 168.843 146.781 171.076C145.774 172.127 144.533 172.996 143.879 174.313C143.13 175.81 143.226 177.545 142.352 179.032C140.314 182.53 135.517 180.772 133.828 184.022C132.143 187.264 133.694 192.168 129.632 194.041C125.451 195.97 120.196 193.048 117.533 198.038C116.068 200.775 115.084 202.505 112.159 203.974C109.815 205.148 107.257 205.048 104.589 205.048" fill="#6EB7AC"/>
</g>
<g opacity="0.4">
<g opacity="0.4">
<g opacity="0.4">
<path opacity="0.4" d="M107.643 204.34C107.787 202.254 107.004 200.362 105.352 199.055C103.715 197.758 101.668 197.083 99.687 196.484C97.8733 195.938 95.6587 195.6 94.1886 194.326C92.8427 193.157 92.2795 191.427 91.8881 189.745C91.0481 186.133 90.7283 181.96 87.225 179.822C85.2872 178.643 83.0487 178.614 80.9343 177.978C80.161 177.745 79.3687 177.369 79.1015 176.547C78.7387 175.435 79.2494 174.119 79.4881 173.03C79.7744 171.747 80.0274 170.402 79.7267 169.095C79.3831 167.622 78.333 166.609 77.1541 165.74C74.4765 163.758 71.0448 163.221 68.2097 161.524C67.551 161.13 66.9496 162.156 67.6083 162.551C70.1188 164.053 73.0494 164.656 75.5743 166.125C76.7245 166.795 77.9989 167.693 78.4571 168.995C78.8389 170.074 78.6528 171.238 78.4237 172.327C78.0085 174.309 77.0539 176.889 79.0203 178.363C80.6431 179.579 82.9675 179.498 84.848 180.059C86.7477 180.63 88.2082 181.846 89.0673 183.624C89.8596 185.263 90.1317 187.117 90.4896 188.885C90.838 190.6 91.239 192.402 92.2365 193.875C93.3486 195.519 94.9714 196.285 96.8137 196.86C99.0188 197.549 101.329 198.052 103.372 199.165C104.274 199.654 105.147 200.281 105.72 201.151C106.355 202.111 106.527 203.204 106.45 204.335C106.398 205.105 107.591 205.101 107.643 204.34Z" fill="#155449"/>
</g>
</g>
<g opacity="0.4">
<g opacity="0.4">
<path opacity="0.4" d="M82.0272 143.84C81.1442 145.598 80.8149 147.547 81.3829 149.462C81.9174 151.263 83.0916 152.813 84.3946 154.143C87.2345 157.052 91.2628 158.939 93.2101 162.631C94.3175 164.737 94.37 166.985 93.9786 169.28C93.7781 170.445 93.654 171.68 94.1218 172.797C94.5322 173.786 95.2959 174.617 96.05 175.363C96.8328 176.138 97.7015 176.846 98.4031 177.702C99.1858 178.652 99.8636 179.712 100.532 180.748C101.806 182.72 102.928 184.797 103.787 186.984C104.799 189.559 105.515 192.264 105.696 195.03C105.887 197.919 105.777 200.871 106.469 203.708C106.651 204.449 107.801 204.136 107.62 203.394C107.009 200.875 107.066 198.247 106.927 195.676C106.794 193.233 106.355 190.885 105.605 188.552C104.904 186.375 103.973 184.279 102.851 182.288C102.269 181.252 101.634 180.24 100.966 179.251C100.327 178.305 99.687 177.322 98.909 176.485C97.4628 174.926 95.0716 173.496 94.9904 171.153C94.9475 169.969 95.3245 168.81 95.3866 167.631C95.4439 166.528 95.4009 165.445 95.1384 164.366C94.6325 162.313 93.444 160.483 91.9549 158.996C90.566 157.603 88.8907 156.515 87.3824 155.265C85.7405 153.901 84.1034 152.39 83.0868 150.489C82.0415 148.535 82.0606 146.416 83.0534 144.443C83.4018 143.759 82.3756 143.155 82.0272 143.84Z" fill="#155449"/>
</g>
</g>
<g opacity="0.4">
<g opacity="0.4">
<path opacity="0.4" d="M105.83 134.691C104.25 136.293 103.3 138.298 102.909 140.503C102.527 142.661 102.465 144.88 103.305 146.943C104.059 148.792 105.333 150.346 106.336 152.062C106.951 153.107 107.481 154.205 107.729 155.398C107.973 156.577 107.92 157.788 107.801 158.977C107.567 161.282 107.066 163.606 107.749 165.882C108.35 167.883 109.581 169.613 110.307 171.566C111.137 173.795 111.261 176.262 111.195 178.619C111.123 181.147 110.779 183.661 110.312 186.147C109.782 188.956 109.18 191.779 108.479 194.55C108.102 196.037 107.51 197.477 107.209 198.984C106.918 200.448 106.823 201.94 106.469 203.394C106.288 204.136 107.438 204.454 107.62 203.708C107.93 202.429 108.044 201.118 108.264 199.825C108.493 198.485 108.975 197.235 109.343 195.933C110.049 193.442 110.541 190.881 111.08 188.352C112.078 183.661 112.856 178.714 112.121 173.928C111.782 171.732 110.87 169.86 109.882 167.897C109.414 166.966 108.98 166.015 108.746 164.993C108.493 163.876 108.574 162.741 108.689 161.61C108.923 159.262 109.386 156.919 108.76 154.59C108.188 152.461 106.851 150.655 105.672 148.83C105.104 147.946 104.565 147.033 104.236 146.031C103.83 144.809 103.768 143.564 103.878 142.29C104.088 139.757 104.861 137.381 106.675 135.537C107.209 134.986 106.369 134.144 105.83 134.691Z" fill="#155449"/>
</g>
</g>
<g opacity="0.4">
<g opacity="0.4">
<path opacity="0.4" d="M137.116 146.24C134.811 146.264 132.439 147.243 130.573 148.54C129.623 149.201 128.73 149.99 128.11 150.973C127.47 152 127.37 153.188 127.57 154.362C127.986 156.752 129.699 159.062 128.673 161.529C127.952 163.254 126.091 163.568 124.449 163.881C122.716 164.214 120.912 164.68 119.929 166.281C118.655 168.363 119.452 171.11 119.948 173.306C120.196 174.399 120.483 175.516 120.454 176.642C120.421 177.977 120.086 179.341 119.476 180.534C118.278 182.877 115.948 184.275 114.55 186.48C112.975 188.965 112.373 191.998 111.562 194.783C111.104 196.36 110.536 197.862 109.71 199.283C108.856 200.761 107.686 202.073 107.104 203.703C106.846 204.426 108.001 204.734 108.254 204.017C108.751 202.624 109.782 201.479 110.541 200.224C111.28 198.998 111.877 197.701 112.33 196.341C113.194 193.746 113.672 190.985 114.817 188.49C115.304 187.435 115.934 186.461 116.712 185.591C117.59 184.607 118.64 183.809 119.452 182.763C120.955 180.834 121.848 178.263 121.614 175.806C121.385 173.424 120.373 171.129 120.459 168.715C120.492 167.74 120.807 166.79 121.58 166.148C122.201 165.63 123.003 165.397 123.776 165.217C125.423 164.837 127.232 164.727 128.587 163.601C130.339 162.151 130.429 159.661 129.828 157.641C129.441 156.344 128.802 155.075 128.673 153.716C128.549 152.385 129.122 151.358 130.057 150.46C131.847 148.74 134.601 147.447 137.111 147.418C137.885 147.418 137.885 146.23 137.116 146.24Z" fill="#155449"/>
</g>
</g>
<g opacity="0.4">
<g opacity="0.4">
<path opacity="0.4" d="M146.199 162.479C143.149 164.575 142.438 168.282 141.507 171.609C141.059 173.215 140.538 174.888 139.488 176.214C138.968 176.875 138.319 177.417 137.574 177.816C136.462 178.405 135.293 178.424 134.071 178.581C132.821 178.742 131.666 179.199 130.826 180.168C130.086 181.024 129.694 182.088 129.403 183.167C128.878 185.135 128.363 187.159 127.184 188.861C126.038 190.515 124.325 191.227 122.459 191.779C120.464 192.368 118.511 193.167 116.865 194.45C115.013 195.895 113.805 197.815 112.469 199.697C111.782 200.661 111.023 201.588 110.135 202.377C109.414 203.019 108.398 203.765 107.367 203.603C106.617 203.484 106.293 204.63 107.052 204.749C109.118 205.076 110.865 203.489 112.125 202.054C113.514 200.471 114.497 198.599 115.891 197.021C117.247 195.481 118.893 194.34 120.812 193.594C122.812 192.815 124.96 192.492 126.678 191.128C128.153 189.959 129.012 188.281 129.651 186.551C130.048 185.486 130.305 184.403 130.606 183.31C130.921 182.174 131.384 181.019 132.415 180.344C133.575 179.584 135.04 179.75 136.348 179.503C137.326 179.318 138.271 178.866 139.064 178.272C140.486 177.207 141.364 175.677 141.985 174.047C143.312 170.549 143.44 165.82 146.81 163.501C147.431 163.073 146.834 162.047 146.199 162.479Z" fill="#155449"/>
</g>
</g>
</g>
</g>
<g opacity="0.7">
<g opacity="0.7">
<path opacity="0.7" d="M183.056 203.779C179.805 200.542 174.932 199.463 171.686 196.051C167.715 191.741 176.197 185.268 169.701 183.29C166.451 182.392 157.067 183.11 157.248 178.077C157.248 175.563 160.857 174.665 160.857 172.326C160.857 170.169 158.15 169.09 156.528 168.372C153.277 166.756 148.404 166.215 146.781 162.441C146.242 161.182 145.698 158.667 147.144 157.589C149.311 155.973 151.115 158.667 152.557 159.927C155.984 162.983 159.778 162.441 163.205 165.14C164.828 166.4 166.274 168.196 166.274 170.354C166.274 171.97 163.749 174.308 164.828 176.105C165.73 177.72 169.701 177.003 171.324 177.545C173.849 178.443 174.751 179.883 175.113 182.216C175.476 184.193 174.393 186.708 176.197 188.148C178.364 189.763 180.889 188.148 181.791 186.351C184.497 180.962 178.903 178.086 175.834 174.85C171.682 170.535 178.001 166.224 172.947 162.27C169.338 159.395 164.823 157.779 162.842 153.107C161.396 149.695 160.317 144.481 163.926 141.786C165.549 140.527 168.26 140.17 169.338 142.504C170.24 144.3 168.436 145.74 168.436 147.537C167.897 152.746 173.672 152.028 176.736 154.186C180.889 156.88 181.791 160.654 180.163 164.789C178.898 167.845 179.08 168.382 181.786 170.178C184.311 171.794 185.757 173.234 186.84 175.929C187.924 178.086 187.38 179.341 187.743 181.318C187.924 183.115 189.547 184.731 191.532 182.758C194.783 179.346 190.086 172.336 189.007 169.099C188.287 167.303 187.561 164.789 187.924 162.631C188.287 160.117 189.909 158.496 189.189 155.802C187.747 151.31 182.511 148.255 182.33 143.041C182.149 139.087 183.771 133.873 187.566 132.438C193.341 130.28 195.689 134.234 191.895 138.189C187.203 143.041 190.63 144.3 193.341 149.329C195.689 153.82 194.425 156.519 193.704 161.01C192.983 165.145 196.592 169.275 196.41 173.771C196.41 175.387 194.969 187.249 199.479 181.86C202.185 178.267 199.479 170.72 199.842 166.766C200.023 163.891 200.381 162.631 203.092 162.275C205.98 161.913 207.426 162.992 208.147 159.219C209.23 153.829 207.063 149.514 212.839 145.74C215.545 143.944 222.943 142.865 223.306 147.898C223.668 152.57 214.28 149.158 214.824 155.626C215.187 158.682 217.712 160.835 216.266 164.252C215.001 167.308 212.657 167.308 209.951 167.845C203.274 169.285 207.603 173.595 207.063 178.628C206.882 180.966 205.799 182.944 203.632 184.379C202.009 185.277 197.856 185.995 200.023 188.514C202.548 191.75 210.853 185.819 211.574 183.124C212.113 181.328 211.034 179.351 211.936 177.554C213.383 175.04 214.461 176.295 216.628 176.295C223.306 176.114 222.403 170.007 223.487 165.335C224.112 162.631 227.816 158.24 231.004 159.214C235.973 160.735 231.902 168.843 229.768 171.076C228.761 172.127 227.52 172.996 226.866 174.313C226.117 175.81 226.212 177.545 225.339 179.032C223.301 182.53 218.504 180.772 216.814 184.022C215.13 187.264 216.681 192.168 212.619 194.041C208.438 195.97 203.183 193.048 200.52 198.038C199.054 200.775 198.071 202.505 195.145 203.974C192.802 205.148 190.244 205.048 187.576 205.048" fill="#6EB7AC"/>
</g>
<g opacity="0.4">
<g opacity="0.4">
<g opacity="0.4">
<path opacity="0.4" d="M190.635 204.34C190.778 202.254 189.995 200.362 188.344 199.055C186.707 197.758 184.659 197.083 182.678 196.484C180.865 195.938 178.65 195.6 177.18 194.326C175.834 193.157 175.271 191.427 174.88 189.745C174.04 186.133 173.72 181.96 170.216 179.822C168.279 178.643 166.04 178.614 163.926 177.978C163.153 177.745 162.36 177.369 162.093 176.547C161.73 175.435 162.241 174.119 162.48 173.03C162.766 171.747 163.019 170.402 162.718 169.095C162.375 167.622 161.324 166.609 160.146 165.74C157.468 163.758 154.036 163.221 151.201 161.524C150.542 161.13 149.941 162.156 150.6 162.551C153.11 164.053 156.041 164.656 158.566 166.125C159.716 166.795 160.99 167.693 161.449 168.995C161.83 170.074 161.644 171.238 161.415 172.327C161 174.309 160.045 176.889 162.012 178.363C163.635 179.579 165.959 179.498 167.835 180.059C169.734 180.63 171.195 181.846 172.054 183.624C172.846 185.263 173.123 187.117 173.476 188.885C173.825 190.6 174.226 192.402 175.223 193.875C176.335 195.519 177.958 196.285 179.8 196.86C182.006 197.549 184.316 198.052 186.358 199.165C187.26 199.654 188.134 200.281 188.707 201.151C189.341 202.111 189.513 203.204 189.437 204.335C189.389 205.105 190.582 205.101 190.635 204.34Z" fill="#155449"/>
</g>
</g>
<g opacity="0.4">
<g opacity="0.4">
<path opacity="0.4" d="M165.023 143.84C164.126 145.622 163.802 147.599 164.403 149.528C164.961 151.33 166.14 152.869 167.448 154.2C170.298 157.099 174.331 158.991 176.249 162.707C177.328 164.798 177.361 167.027 176.975 169.294C176.784 170.425 176.66 171.628 177.089 172.726C177.476 173.719 178.24 174.555 178.984 175.297C179.767 176.076 180.636 176.789 181.347 177.635C182.134 178.571 182.812 179.636 183.476 180.662C184.755 182.635 185.881 184.707 186.745 186.893C187.776 189.497 188.506 192.23 188.692 195.029C188.883 197.919 188.773 200.87 189.466 203.708C189.647 204.449 190.797 204.135 190.616 203.394C190.005 200.875 190.062 198.247 189.924 195.676C189.79 193.228 189.351 190.885 188.602 188.552C187.891 186.347 186.941 184.222 185.8 182.202C185.227 181.195 184.612 180.211 183.962 179.251C183.309 178.281 182.65 177.274 181.843 176.423C180.387 174.879 178.044 173.448 177.982 171.11C177.953 169.998 178.307 168.924 178.373 167.821C178.44 166.69 178.416 165.573 178.154 164.461C177.672 162.403 176.493 160.559 175.013 159.067C173.629 157.665 171.954 156.576 170.441 155.322C168.794 153.958 167.152 152.451 166.121 150.56C165.047 148.592 165.047 146.449 166.05 144.448C166.393 143.759 165.367 143.155 165.023 143.84Z" fill="#155449"/>
</g>
</g>
<g opacity="0.4">
<g opacity="0.4">
<path opacity="0.4" d="M188.821 134.691C187.241 136.293 186.292 138.298 185.9 140.503C185.518 142.661 185.456 144.88 186.296 146.943C187.051 148.792 188.325 150.346 189.327 152.062C189.943 153.107 190.473 154.205 190.721 155.398C190.964 156.577 190.912 157.788 190.792 158.977C190.559 161.282 190.057 163.606 190.74 165.882C191.341 167.883 192.573 169.613 193.298 171.566C194.129 173.795 194.253 176.262 194.186 178.619C194.114 181.147 193.771 183.661 193.303 186.147C192.773 188.956 192.172 191.779 191.47 194.55C191.093 196.037 190.501 197.477 190.201 198.984C189.909 200.448 189.814 201.94 189.461 203.394C189.279 204.136 190.43 204.454 190.611 203.708C190.921 202.429 191.036 201.118 191.255 199.825C191.485 198.485 191.967 197.235 192.334 195.933C193.041 193.442 193.532 190.881 194.071 188.352C195.069 183.661 195.847 178.714 195.112 173.928C194.773 171.732 193.861 169.86 192.873 167.897C192.406 166.966 191.971 166.015 191.738 164.993C191.485 163.876 191.566 162.741 191.68 161.61C191.914 159.262 192.377 156.919 191.752 154.59C191.179 152.461 189.843 150.655 188.664 148.83C188.096 147.946 187.556 147.033 187.227 146.031C186.821 144.809 186.759 143.564 186.869 142.29C187.079 139.757 187.852 137.381 189.666 135.537C190.201 134.986 189.361 134.144 188.821 134.691Z" fill="#155449"/>
</g>
</g>
<g opacity="0.4">
<g opacity="0.4">
<path opacity="0.4" d="M220.108 146.24C217.802 146.264 215.43 147.243 213.564 148.54C212.614 149.201 211.722 149.99 211.101 150.973C210.462 152 210.361 153.188 210.562 154.362C210.977 156.752 212.691 159.062 211.664 161.529C210.944 163.254 209.082 163.568 207.44 163.881C205.708 164.214 203.904 164.68 202.92 166.281C201.646 168.363 202.443 171.11 202.94 173.306C203.188 174.399 203.474 175.516 203.445 176.642C203.412 177.977 203.078 179.341 202.467 180.534C201.269 182.877 198.94 184.275 197.541 186.48C195.966 188.965 195.365 191.998 194.554 194.783C194.095 196.36 193.527 197.862 192.702 199.283C191.847 200.761 190.678 202.073 190.096 203.703C189.838 204.426 190.993 204.734 191.246 204.017C191.742 202.624 192.773 201.479 193.532 200.224C194.272 198.998 194.869 197.701 195.322 196.341C196.186 193.746 196.663 190.985 197.809 188.49C198.295 187.435 198.925 186.461 199.703 185.591C200.582 184.607 201.632 183.809 202.443 182.763C203.947 180.834 204.839 178.263 204.605 175.806C204.376 173.424 203.364 171.129 203.45 168.715C203.484 167.74 203.799 166.79 204.572 166.148C205.192 165.63 205.994 165.397 206.767 165.217C208.414 164.837 210.223 164.727 211.578 163.601C213.33 162.151 213.421 159.661 212.819 157.641C212.433 156.344 211.793 155.075 211.664 153.716C211.54 152.385 212.113 151.358 213.049 150.46C214.838 148.74 217.592 147.447 220.103 147.418C220.876 147.418 220.876 146.23 220.108 146.24Z" fill="#155449"/>
</g>
</g>
<g opacity="0.4">
<g opacity="0.4">
<path opacity="0.4" d="M229.195 162.479C226.145 164.575 225.434 168.282 224.504 171.609C224.055 173.215 223.535 174.888 222.485 176.214C221.964 176.875 221.315 177.417 220.571 177.816C219.459 178.405 218.284 178.424 217.067 178.581C215.817 178.742 214.662 179.199 213.822 180.168C213.082 181.024 212.691 182.088 212.399 183.167C211.874 185.135 211.359 187.159 210.18 188.861C209.035 190.515 207.321 191.227 205.455 191.779C203.46 192.368 201.508 193.167 199.861 194.45C198.009 195.895 196.802 197.815 195.465 199.697C194.778 200.661 194.019 201.588 193.131 202.377C192.41 203.019 191.394 203.765 190.363 203.603C189.614 203.484 189.289 204.63 190.048 204.749C192.115 205.076 193.861 203.489 195.121 202.054C196.51 200.471 197.494 198.599 198.887 197.021C200.243 195.481 201.889 194.34 203.808 193.594C205.808 192.815 207.956 192.492 209.674 191.128C211.149 189.959 212.008 188.281 212.648 186.551C213.044 185.486 213.302 184.403 213.602 183.31C213.917 182.174 214.38 181.019 215.406 180.344C216.566 179.584 218.031 179.75 219.339 179.503C220.318 179.318 221.263 178.866 222.055 178.272C223.477 177.207 224.356 175.677 224.976 174.047C226.303 170.549 226.432 165.82 229.801 163.501C230.422 163.073 229.825 162.047 229.195 162.479Z" fill="#155449"/>
</g>
</g>
</g>
</g>
<g opacity="0.7">
<path opacity="0.7" d="M272.137 201.835C263.769 205.585 254.84 207.666 245.722 204.33C240.191 202.306 235.443 199.074 230.753 195.97C226.337 193.048 221.641 189.759 216.132 188.4C201.397 184.764 191.096 195.467 179.106 200.29C164.703 206.089 147.829 207.239 133.592 200.424C126.442 197.002 119.835 192.876 111.77 190.975C104.311 189.222 96.4973 189.407 89.4216 192.235C76.7745 197.292 64.1332 209.092 48.609 204.962C42.1453 203.242 37.5464 199.383 31.9923 196.37C27.0844 193.703 21.7248 192.23 15.8331 192.197C10.5421 192.168 4.93069 193.005 0 194.868V242.669H286.003V195.766C281.129 197.325 276.725 199.777 272.137 201.835Z" fill="#FFD6A1"/>
</g>
</g>
<path d="M19.5451 1.43344C14.9583 1.3574 10.3715 2.20336 6.0043 3.56259C4.05695 4.16617 2.02847 4.85054 0.10498 5.73927V50.518C10.6388 52.0198 21.2394 53.4266 31.8878 53.0654C37.854 52.861 43.8583 52.2242 49.6001 50.518C53.0127 49.5057 59.7712 48.1274 57.7761 43.1563C56.9408 41.0794 54.5926 38.9312 52.3016 38.5463C50.6788 38.2754 48.9844 38.532 47.3473 38.3657C43.8583 38.0045 39.5293 35.6947 41.2618 31.4554C42.8226 27.6439 47.4189 26.2656 49.4521 22.7962C50.3685 21.2279 50.5833 19.6263 48.7123 18.69C48.3401 18.5047 47.9534 18.3003 47.543 18.2053C47.4714 18.1958 47.3998 18.191 47.3616 18.191C46.9559 18.1815 46.5502 18.1958 46.1445 18.2338C40.5888 18.7233 35.0379 20.3962 29.4011 20.8144C27.2438 20.976 24.4803 21.1661 22.5615 19.9495C20.4042 18.5855 20.2085 16.2377 21.1917 14.0563C22.6379 10.8435 25.7594 8.76191 27.344 5.66323C29.0336 2.35069 21.6499 1.46671 19.5451 1.43344Z" fill="#F0FFFD"/>
<path d="M243.44 38.5369C240.791 40.3334 241.732 43.8265 244.046 45.4091C246.514 47.0963 249.569 47.8662 252.509 48.2226C260.637 49.2112 269.023 48.4365 277.07 47.139C280.072 46.6543 283.17 46.1553 286.22 45.4851V1.76626C284.903 2.04191 283.609 2.43638 282.397 2.98767C279.123 4.47523 276.636 7.16043 273.424 8.70977C270.064 10.3304 267.181 9.51295 264.074 7.68321C260.251 5.43525 256.79 2.55994 252.843 0.516339C249.478 -1.22785 243.593 -3.0671 241.073 1.18645C239.14 4.45147 241.913 8.61472 243.259 11.6231C243.97 13.2105 243.159 15.2065 241.197 15.197C237.656 15.1875 234.124 15.0402 230.582 15.1828C226.683 15.3396 222.01 15.4394 218.468 17.2929C217.81 17.6351 217.27 17.9298 216.788 18.4715C216.55 18.7424 216.33 19.2129 216.321 19.403C216.249 21.2518 217.643 23.3667 219.008 24.6784C223.728 29.2028 231.059 27.6202 236.954 27.2733C239.555 27.1212 242.195 27.0547 244.772 27.5347C246.82 27.9197 249.507 28.3331 250.81 30.1486C253.688 34.1313 245.641 37.0446 243.44 38.5369Z" fill="#F0FFFD"/>
<path d="M190.139 90.6339C189.91 85.6817 192.211 80.1117 195.022 76.1528C200.024 68.8291 207.336 66.8616 215.087 63.5205C215.417 72.1559 214.62 80.991 207.293 88.8469C211.283 87.3166 224.318 87.3499 232.485 97.5394C223.058 106.203 203.322 107.539 192.975 99.507" fill="#86A3A2"/>
<path d="M144.186 85.7718C147.866 82.1978 156.576 69.6653 161.64 70.6016C166.49 71.4428 163.201 81.1665 162.504 84.4981C161.082 90.6289 159.388 93.2571 152.577 91.5509C149.885 91.1422 145.546 89.7497 144.673 87.0217" fill="#86A3A2"/>
<path d="M101.955 69.214C87.4359 62.5462 69.2129 86.4753 78.5535 98.9128C80.9542 99.9726 82.5627 94.0129 84.0566 93.9796C84.911 94.0129 84.6007 97.3397 86.4574 97.3777C87.7413 97.4253 88.0468 94.0082 88.4334 93.1384C89.9894 96.6839 94.3948 94.9919 97.5926 94.8399" fill="#6B8E8B"/>
<path d="M151.164 86.5133C155.607 74.1804 156.643 41.3639 138.42 40.0807C117.725 38.4838 97.8312 60.897 94.9675 79.6458C91.6217 101.821 101.239 124.781 123.199 132.917C147.441 141.795 194.65 104.93 195.738 100.733C196.464 97.9337 193.91 89.0084 191.361 87.1074C188.378 85.0067 171.086 89.8496 151.164 86.5133Z" fill="#86A3A2"/>
<path d="M147.407 47.3997C147.937 53.4212 148.042 59.8277 145.217 65.3692C142.401 70.8916 137.795 75.3305 132.277 78.1631C129.915 79.375 129.819 81.6467 129.189 84.0467C128.54 86.5228 127.824 89.0084 127.423 91.5416C126.588 96.7979 127.461 103.043 131.604 106.873C139.728 114.392 152.93 107.572 161.507 104.297C167.578 101.983 186.846 90.0017 190.459 86.751C185.791 85.6864 169.606 89.6025 151.164 86.5181C154.729 76.6232 156.099 53.5543 147.092 44.1489C147.202 45.2278 147.312 46.3161 147.407 47.3997Z" fill="#BCD8D5"/>
<path d="M151.579 86.5797C151.441 86.556 151.302 86.537 151.164 86.5132C154.729 76.6184 156.099 53.5494 147.092 44.144C147.202 45.2276 147.312 46.316 147.407 47.3996C147.937 53.4211 148.042 59.8275 145.217 65.369C142.401 70.8915 137.795 75.3304 132.277 78.1629C129.915 79.3748 129.819 81.6466 129.189 84.0466C128.54 86.5227 127.824 89.0083 127.423 91.5414C126.588 96.7978 127.461 103.043 131.604 106.873C133.805 108.912 136.382 109.891 139.141 110.176C144.84 103.309 149.283 95.0583 151.579 86.5797Z" fill="#C6E0DE"/>
<path d="M125.18 104.416C127.29 103.789 129.275 102.843 131.261 101.902C135.766 99.9917 140.172 95.9568 144.797 94.3599C152.452 91.2375 148.715 111.944 142.2 114.268C141.885 114.392 141.57 114.511 141.036 114.535" fill="#86A3A2"/>
<path d="M145.56 64.8935C149.465 63.3917 150.08 61.7711 147.293 58.834C146.925 61.0915 146.276 63.2919 145.221 65.3688C142.405 70.8913 137.8 75.3302 132.282 78.1627C131.714 78.4526 131.28 78.809 130.936 79.2082C133.743 80.8812 136.893 81.5323 134.654 76.889C135.671 77.3405 138.243 78.9944 139.356 78.4431C141.098 77.6542 139.546 74.8882 139.126 73.4909C142.811 74.5983 145.04 73.5004 142.582 69.6413C143.666 69.9455 146.816 70.2972 147.474 69.2041C148.133 68.1063 146.176 65.8583 145.56 64.8935Z" fill="white"/>
<path d="M147.465 48.0791C147.746 51.5295 147.856 55.0891 147.336 58.5253C150.61 56.6765 151.111 55.707 147.713 53.017C150.973 50.7025 150.496 49.9326 147.465 48.0791Z" fill="white"/>
<path d="M154.853 45.2517C153.397 43.1795 150.968 41.4211 148.353 42.3003C145.284 43.3269 144.63 47.1574 144.763 50.1848C144.157 55.156 145.513 60.5264 150.939 60.2223C158.991 59.7613 158.194 49.9995 154.853 45.2517ZM149.813 45.475C149.398 45.5226 148.973 45.7174 148.543 46.1119C148.744 45.879 148.997 45.6794 149.321 45.5273C149.551 45.418 149.775 45.3847 149.985 45.3942C149.928 45.418 149.87 45.4465 149.813 45.475Z" fill="#FF8D8D"/>
<path d="M153.98 47.4424C152.992 46.0356 151.34 44.838 149.56 45.4368C147.474 46.1354 147.03 48.7399 147.116 50.8025C146.701 54.1815 147.627 57.8363 151.317 57.6272C156.791 57.3135 156.252 50.6742 153.98 47.4424Z" fill="#FFBDBD"/>
<path d="M161.679 48.3837C159.774 42.6901 152.266 45.8648 150.19 49.6098C149.446 50.9501 151.632 51.9053 152.371 50.5746C153.383 48.7496 158.705 45.5939 159.45 49.2819C159.726 50.6554 158.667 52.219 157.607 52.9794C156.385 53.8586 153.98 52.5849 152.834 52.0812C151.426 51.4633 150.457 53.6353 151.865 54.2531C154.161 55.2606 157.006 56.3395 159.278 54.7093C161.063 53.4262 162.399 50.5413 161.679 48.3837Z" fill="#AA5F5F"/>
<path d="M132.869 70.83C132.115 70.6731 131.872 71.8328 132.621 71.9944C133.375 72.1512 133.623 70.9916 132.869 70.83Z" fill="#426864"/>
<path d="M135.16 66.9423C134.406 66.7854 134.158 67.9451 134.912 68.1067C135.666 68.2635 135.914 67.0991 135.16 66.9423Z" fill="#426864"/>
<path d="M138.377 69.3993C137.623 69.2425 137.375 70.4021 138.129 70.5637C138.883 70.7205 139.131 69.5609 138.377 69.3993Z" fill="#426864"/>
<path d="M135.127 72.4408C134.373 72.284 134.125 73.4436 134.879 73.6052C135.633 73.762 135.881 72.5976 135.127 72.4408Z" fill="#426864"/>
<path d="M130.201 74.9647C129.447 74.8079 129.199 75.9675 129.953 76.1291C130.707 76.286 130.955 75.1216 130.201 74.9647Z" fill="#426864"/>
<path d="M82.1999 79.218C79.193 83.6094 77.7754 88.7041 78.5677 93.9985C78.6823 94.7494 79.8755 94.6876 79.7609 93.9272C78.9925 88.8134 80.3576 83.9991 83.2595 79.7645C83.6938 79.1277 82.6247 78.5906 82.1999 79.218Z" fill="#426864"/>
<path d="M82.6486 84.6553L82.0567 87.445C81.8992 88.1959 83.0638 88.4431 83.2261 87.6922L83.8179 84.9024C83.9754 84.1515 82.8061 83.9044 82.6486 84.6553Z" fill="#426864"/>
<path d="M159.049 79.1848C158.543 78.7903 158.003 78.4434 157.502 78.0489C156.901 77.5784 156.094 78.4529 156.7 78.9281C157.206 79.3226 157.746 79.6695 158.247 80.064C158.848 80.5345 159.65 79.66 159.049 79.1848Z" fill="#426864"/>
<path d="M160.915 76.6041C160.046 76.0766 159.325 75.3399 158.538 74.7078C157.941 74.2278 157.139 75.1071 157.736 75.5871C158.61 76.2905 159.407 77.0746 160.366 77.6592C161.025 78.0584 161.564 76.9986 160.915 76.6041Z" fill="#426864"/>
<path d="M140.472 104.659C139.57 104.469 138.644 104.274 137.89 103.713C137.279 103.257 136.473 104.131 137.088 104.592C138.024 105.291 139.098 105.586 140.224 105.823C140.983 105.98 141.227 104.816 140.472 104.659Z" fill="#426864"/>
<path d="M143.064 101.664C142.215 101.346 141.322 101.141 140.487 100.795C139.78 100.505 139.227 101.56 139.938 101.85C140.778 102.197 141.67 102.396 142.52 102.719C143.226 102.985 143.78 101.935 143.064 101.664Z" fill="#426864"/>
<path d="M141.164 126.749C135.566 129.101 129.142 127.504 123.863 125.066C118.612 122.638 113.243 118.55 111.095 113.018C110.818 112.306 109.682 112.676 109.964 113.394C112.255 119.292 117.772 123.441 123.314 126.121C128.788 128.768 135.728 130.323 141.542 127.88C142.243 127.58 141.871 126.449 141.164 126.749Z" fill="#426864"/>
<path d="M127.648 121.388C126.593 121.165 125.562 120.932 124.598 120.442C123.91 120.095 123.362 121.15 124.049 121.497C125.108 122.029 126.249 122.305 127.404 122.548C128.154 122.709 128.402 121.545 127.648 121.388Z" fill="#426864"/>
<path d="M188.259 102.767C186.67 104.064 185.08 105.367 183.572 106.759C183.004 107.282 183.896 108.076 184.455 107.558C185.887 106.236 187.395 104.996 188.908 103.76C189.495 103.28 188.851 102.277 188.259 102.767Z" fill="#426864"/>
<path d="M182.417 103.475C181.505 104.065 180.589 104.659 179.62 105.153C178.933 105.5 179.591 106.493 180.269 106.151C181.238 105.657 182.154 105.063 183.066 104.473C183.71 104.055 183.061 103.057 182.417 103.475Z" fill="#426864"/>
<path d="M181.696 107.358C180.942 107.201 180.699 108.361 181.448 108.523C182.202 108.68 182.45 107.515 181.696 107.358Z" fill="#426864"/>
<path d="M185.949 101.127C185.195 100.971 184.951 102.13 185.701 102.292C186.455 102.449 186.698 101.289 185.949 101.127Z" fill="#426864"/>
<path d="M177.272 106.75C176.518 106.593 176.274 107.753 177.023 107.914C177.778 108.071 178.026 106.907 177.272 106.75Z" fill="#426864"/>
<path d="M120.975 118.36C120.221 118.203 119.973 119.363 120.727 119.525C121.481 119.681 121.724 118.517 120.975 118.36Z" fill="#426864"/>
<path d="M84.7917 81.2616C84.0375 81.1048 83.7893 82.2644 84.5435 82.426C85.2976 82.5828 85.5458 81.4185 84.7917 81.2616Z" fill="#426864"/>
<path d="M124.082 79.1136C121.944 78.857 120.469 77.4977 119.586 75.6062C119.262 74.9123 118.235 75.5159 118.555 76.205C119.634 78.5148 121.529 79.9928 124.082 80.3017C124.846 80.392 124.836 79.2039 124.082 79.1136Z" fill="#426864"/>
<path d="M124.402 82.4596C121.615 82.9966 118.527 81.5423 117.5 78.8334C117.228 78.1252 116.078 78.4294 116.35 79.147C117.62 82.4928 121.252 84.2703 124.722 83.6002C125.471 83.4624 125.151 82.317 124.402 82.4596Z" fill="#426864"/>
<path d="M202.439 98.5752C208.062 100.557 214.663 101.327 220.404 99.3926C221.999 98.8556 223.507 98.0999 224.853 97.0924C225.459 96.6409 224.867 95.6048 224.251 96.0658C218.209 100.581 209.494 99.8061 202.754 97.4298C202.029 97.1779 201.719 98.3233 202.439 98.5752Z" fill="#426864"/>
<path d="M210.062 96.0991C211.976 96.8025 214.162 96.8785 216.123 96.3082C216.858 96.0944 216.543 94.9443 215.808 95.1629C214.037 95.6809 212.114 95.5906 210.381 94.9538C210.081 94.8444 209.727 95.0773 209.646 95.3672C209.556 95.6999 209.756 95.9851 210.062 96.0991Z" fill="#426864"/>
<path d="M190.187 85.6484C187.323 86.8366 183.982 86.3613 180.88 86.8366C174.437 87.5495 174.437 89.2129 175.152 95.3912C176.346 102.52 179.925 101.57 185.892 98.9556C192.096 96.3417 193.528 94.6783 191.142 88.2624C190.664 87.3118 190.426 86.3613 189.948 85.6484" fill="#FF8D8D"/>
<path d="M192.812 93.2524C188.517 93.7277 177.3 96.5792 174.437 99.906C172.05 102.758 176.823 111.55 179.687 113.451C184.698 116.778 190.903 110.124 194.006 106.56C197.585 102.758 195.199 97.2921 192.812 93.2524Z" fill="#FFBDBD"/>
<path d="M190.664 85.8857C187.233 89.1888 175.152 93.4899 172.289 90.4007C171.334 89.4502 171.334 84.6976 171.811 83.9847C173.005 82.0837 177.062 81.8461 178.971 81.8461C182.789 81.6084 189.233 82.5589 190.664 85.8857Z" fill="#FFBDBD"/>
<path d="M179.725 91.1139C179.544 90.4961 179.314 89.8925 179.09 89.2937C178.861 88.6901 178.293 88.2814 177.62 88.462C177.038 88.6236 176.56 89.3175 176.785 89.9258C177.014 90.5294 177.238 91.1282 177.42 91.746C177.601 92.3686 178.255 92.7488 178.89 92.5777C179.51 92.4066 179.906 91.7365 179.725 91.1139Z" fill="#AA5F5F"/>
<path d="M181.233 95.8663C181.009 95.2579 180.436 94.854 179.763 95.0346C179.176 95.1962 178.704 95.89 178.928 96.4984C179.133 97.0544 179.372 97.6865 179.443 98.2426C179.524 98.8842 179.925 99.4307 180.637 99.4307C181.224 99.4307 181.911 98.8889 181.83 98.2426C181.73 97.4156 181.524 96.6457 181.233 95.8663Z" fill="#AA5F5F"/>
<path d="M125.801 67.5269C124.965 66.6857 124.445 66.0299 123.868 64.9605C123.576 64.4187 123.486 64.2334 123.309 63.6061C123.276 63.4825 123.242 63.3589 123.218 63.2354C123.204 63.1641 123.152 62.8599 123.166 62.9692C123.18 63.0785 123.152 62.7744 123.147 62.7078C123.142 62.57 123.142 62.4322 123.147 62.2943C123.152 62.2278 123.156 62.1565 123.161 62.09C123.161 62.1042 123.128 62.2896 123.152 62.1518C123.175 62.033 123.199 61.9189 123.228 61.8048C123.247 61.7383 123.343 61.4627 123.3 61.5625C123.247 61.6908 123.314 61.5339 123.323 61.5149C123.366 61.4389 123.405 61.3581 123.448 61.282C123.662 60.9161 123.982 60.5977 124.364 60.3505C124.841 60.0416 125.213 59.9798 125.801 59.9989C126.106 60.0084 126.168 60.0179 126.526 60.1034C126.86 60.1842 127.189 60.2888 127.509 60.4171C128.803 60.9304 130.149 61.8904 131.342 62.7411C131.867 63.1118 132.669 62.8314 132.974 62.3134C133.323 61.7145 133.074 61.0634 132.545 60.688C130.053 58.9153 126.664 56.5818 123.505 58.0978C122.23 58.7109 121.171 59.9846 120.875 61.3676C120.574 62.7601 120.88 64.1383 121.438 65.4263C122.054 66.8426 123.013 68.1162 124.097 69.2093C125.194 70.2929 126.884 68.6153 125.801 67.5269Z" fill="#284C48"/>
<path d="M106.698 27.3731C106.698 30.2959 104.322 32.6627 101.386 32.6627C98.4509 32.6627 96.074 30.2959 96.074 27.3731C96.074 24.4503 98.4509 22.0835 101.386 22.0835C104.322 22.0835 106.698 24.455 106.698 27.3731Z" fill="white"/>
<path d="M122.573 14.0181C122.573 16.941 120.196 19.3077 117.261 19.3077C114.326 19.3077 111.949 16.941 111.949 14.0181C111.949 11.0953 114.326 8.72852 117.261 8.72852C120.196 8.72852 122.573 11.0953 122.573 14.0181Z" fill="white"/>
<path d="M107.071 13.1722C107.071 15.2919 105.348 17.0076 103.219 17.0076C101.09 17.0076 99.3673 15.2919 99.3673 13.1722C99.3673 11.0526 101.09 9.33691 103.219 9.33691C105.348 9.33691 107.071 11.0526 107.071 13.1722Z" fill="white"/>
<path d="M96.2316 12.5736C96.2316 14.6933 94.5085 16.4089 92.3798 16.4089C90.2511 16.4089 88.5281 14.6933 88.5281 12.5736C88.5281 10.454 90.2511 8.73828 92.3798 8.73828C94.5085 8.73828 96.2316 10.454 96.2316 12.5736Z" fill="white"/>
<path d="M112.77 2.26522C112.77 3.29653 111.93 4.13298 110.894 4.13298C109.858 4.13298 109.018 3.29653 109.018 2.26522C109.018 1.23391 109.858 0.397461 110.894 0.397461C111.93 0.397461 112.77 1.23391 112.77 2.26522Z" fill="white"/>
<path d="M101.243 0.397545C101.243 1.42885 100.403 2.2653 99.3673 2.2653C98.3316 2.2653 97.4916 1.42885 97.4916 0.397545C97.4916 -0.633762 98.3316 -1.47021 99.3673 -1.47021C100.403 -1.47021 101.243 -0.633762 101.243 0.397545Z" fill="white"/>
<path d="M58.2343 65.8358C58.1102 65.1752 57.8191 64.5573 57.3274 64.0535C56.182 62.8844 54.2012 62.8369 52.8027 63.5165C52.3684 63.7256 52.0391 64.0298 51.8004 64.391C51.1847 64.9518 50.7599 65.6266 50.4497 66.4488C49.9772 67.7083 50.4592 68.9677 51.242 69.9562C52.3302 71.3297 54.0532 71.6814 55.6235 70.9875C56.0388 70.8022 56.4158 70.5408 56.7547 70.2176C56.8263 70.1654 56.8931 70.1131 56.9647 70.056C58.1723 69.0295 58.6352 67.2758 58.2343 65.8358Z" fill="#6EB7AC"/>
<path d="M64.1718 77.9735C64.0477 77.3129 63.7566 76.695 63.265 76.1912C62.1195 75.0221 60.1387 74.9746 58.7402 75.6542C58.3059 75.8633 57.9766 76.1675 57.7379 76.5287C57.1222 77.0895 56.6974 77.7643 56.3872 78.5913C55.9147 79.8507 56.3967 81.1102 57.1795 82.0987C58.2677 83.4722 59.9907 83.8239 61.561 83.13C61.9763 82.9446 62.3533 82.6833 62.6922 82.3601C62.7638 82.3078 62.8306 82.2555 62.9022 82.1985C64.1145 81.1672 64.5727 79.4135 64.1718 77.9735Z" fill="#6EB7AC"/>
<path d="M68.5873 67.9837C68.4966 67.5084 68.2866 67.0617 67.9334 66.6957C67.1077 65.8498 65.6758 65.8165 64.6687 66.3108C64.3537 66.4628 64.1198 66.6815 63.9432 66.9429C63.4993 67.3468 63.1891 67.8363 62.9648 68.4304C62.6211 69.3381 62.9743 70.2459 63.5375 70.9635C64.3251 71.9568 65.566 72.2087 66.702 71.7097C67.0027 71.5766 67.2747 71.3865 67.5181 71.1536C67.5706 71.1156 67.6184 71.0776 67.6661 71.0348C68.5491 70.2887 68.8784 69.0245 68.5873 67.9837Z" fill="#6EB7AC"/>
<path d="M173.624 5.7203C173.524 5.19276 173.29 4.6985 172.899 4.29453C171.982 3.35827 170.398 3.32025 169.281 3.8668C168.937 4.03314 168.67 4.28027 168.479 4.56542C167.988 5.01217 167.644 5.55396 167.396 6.21457C167.019 7.22211 167.405 8.22966 168.03 9.01858C168.899 10.1164 170.279 10.4016 171.534 9.84553C171.868 9.6982 172.169 9.48909 172.436 9.23245C172.493 9.18967 172.546 9.1469 172.603 9.10413C173.581 8.27243 173.949 6.87042 173.624 5.7203Z" fill="#6EB7AC"/>
<path d="M178.378 15.4298C178.278 14.9022 178.044 14.408 177.653 14.004C176.736 13.0677 175.152 13.0297 174.035 13.5763C173.686 13.7426 173.424 13.9897 173.233 14.2749C172.741 14.7216 172.398 15.2634 172.149 15.924C171.772 16.9316 172.159 17.9391 172.784 18.7281C173.653 19.8259 175.032 20.1111 176.288 19.555C176.622 19.4077 176.922 19.1986 177.19 18.9419C177.247 18.8991 177.299 18.8564 177.357 18.8136C178.33 17.9867 178.698 16.5846 178.378 15.4298Z" fill="#6EB7AC"/>
<path d="M181.91 7.44061C181.839 7.0604 181.672 6.69921 181.385 6.4093C180.722 5.73444 179.581 5.70592 178.774 6.10038C178.526 6.22395 178.335 6.3998 178.192 6.60416C177.839 6.92733 177.591 7.31704 177.409 7.7923C177.137 8.51944 177.414 9.24659 177.867 9.81689C178.498 10.6106 179.49 10.8149 180.397 10.4157C180.636 10.3112 180.855 10.1591 181.051 9.97373C181.094 9.94521 181.132 9.91195 181.17 9.87868C181.877 9.28461 182.144 8.27231 181.91 7.44061Z" fill="#6EB7AC"/>
</g>
<defs>
<clipPath id="clip0">
<rect width="285" height="190" fill="white"/>
</clipPath>
</defs>
</svg>
