<svg width="285" height="190" viewBox="0 0 285 190" fill="none" xmlns="http://www.w3.org/2000/svg">
<rect width="285" height="190" fill="#457DD0"/>
<path d="M102 96.6094C102.069 96.6209 108.182 97.7526 107.791 97.678L115.185 99.0511C115.461 92.7371 117.259 52.6475 121.034 47.6378C122.499 45.7304 122.981 43.5472 122.097 41.2951C121.281 39.2556 119.776 38.0778 119.718 38.0089C119.649 38.0663 111.767 41.7318 108.061 49.6658C104.649 56.8587 102.477 90.1001 102 96.6094Z" fill="#99E0FF"/>
<path d="M145.875 41.3297C150.908 46.0637 169.85 76.6968 169.689 91.617C169.689 91.617 176.876 90.6231 180.725 89.2672H180.731C181.731 88.9168 182.506 88.5433 182.868 88.1584C180.226 79.9026 169.488 44.3459 162.783 39.0259C155.682 33.637 148.409 34.1253 148.334 34.1023C148.277 34.177 145.784 36.4349 145.14 38.641C144.841 39.6521 144.95 40.6231 145.875 41.3297Z" fill="#99E0FF"/>
<path d="M159.618 36.9804L145.14 38.6752C145.146 38.6637 145.146 38.6523 145.152 38.6408C145.295 38.1524 145.525 37.6641 145.801 37.193L157.245 35.8544C158.009 36.1703 158.808 36.5438 159.618 36.9804Z" fill="#1B3377"/>
<path d="M163.209 39.3934C163.571 39.7381 163.944 40.1632 164.329 40.6631L147.116 42.6739C146.68 42.1511 146.289 41.7259 145.956 41.4042L163.209 39.3934Z" fill="#1B3377"/>
<path d="M166.5 44.0871C166.736 44.5065 166.972 44.9489 167.207 45.4028L150.575 47.3446C150.265 46.8908 149.966 46.4599 149.673 46.0462L166.5 44.0871Z" fill="#1B3377"/>
<path d="M169.138 49.4129C169.333 49.8495 169.528 50.2919 169.724 50.74L153.971 52.5785C153.695 52.1361 153.425 51.7052 153.161 51.2801L169.138 49.4129Z" fill="#1B3377"/>
<path d="M171.527 55.0661C171.706 55.5085 171.878 55.9509 172.056 56.399L157.251 58.1283C157.004 57.6916 156.751 57.255 156.504 56.8241L171.527 55.0661Z" fill="#1B3377"/>
<path d="M173.406 59.915C173.573 60.3631 173.739 60.8113 173.906 61.2594L159.859 62.8968C159.629 62.4544 159.394 62.0177 159.158 61.5754L173.406 59.915Z" fill="#1B3377"/>
<path d="M175.233 64.9363C175.394 65.3844 175.549 65.8325 175.71 66.2806L162.352 67.8433C162.14 67.4009 161.921 66.9586 161.703 66.5162L175.233 64.9363Z" fill="#1B3377"/>
<path d="M177.428 71.2789C177.577 71.727 177.732 72.1751 177.876 72.6175L165.173 74.1055C164.99 73.6631 164.8 73.2207 164.61 72.7783L177.428 71.2789Z" fill="#1B3377"/>
<path d="M179.157 76.4954C179.306 76.9493 179.45 77.3974 179.594 77.834L167.155 79.2933C167 78.8509 166.845 78.4028 166.678 77.9547L179.157 76.4954Z" fill="#1B3377"/>
<path d="M181.013 82.2693C181.162 82.7347 181.3 83.177 181.438 83.6079L168.856 85.0844C168.753 84.6363 168.638 84.1882 168.517 83.7286L181.013 82.2693Z" fill="#1B3377"/>
<path d="M182.714 87.6582C182.771 87.8363 182.823 88.0029 182.874 88.158C182.512 88.543 181.737 88.9221 180.737 89.2668H180.731C180.714 89.2726 180.697 89.2783 180.674 89.2841C177.744 89.623 172.487 90.2435 169.672 90.571C169.655 90.1229 169.615 89.6633 169.569 89.1979L182.714 87.6582Z" fill="#1B3377"/>
<path d="M121.43 39.9968C121.671 40.3818 121.901 40.8126 122.096 41.2952C122.096 41.301 122.102 41.3067 122.102 41.3125L113.599 42.2834C114.249 41.6859 114.892 41.1573 115.501 40.692L121.43 39.9968Z" fill="#1B3377"/>
<path d="M122.516 44.0989C122.47 44.5872 122.361 45.064 122.2 45.5294L109.566 46.9772C109.917 46.4429 110.284 45.9373 110.658 45.4547L122.516 44.0989Z" fill="#1B3377"/>
<path d="M107.573 50.8839L120.178 49.4361C120.028 49.867 119.885 50.3496 119.747 50.8839L107.136 52.3259C107.28 51.7974 107.423 51.3148 107.573 50.8839Z" fill="#1B3377"/>
<path d="M106.171 56.675L118.839 55.2272C118.758 55.6868 118.684 56.1637 118.603 56.6577L105.912 58.1055C105.998 57.6115 106.079 57.1346 106.171 56.675Z" fill="#1B3377"/>
<path d="M105.2 62.7074L117.966 61.2424C117.908 61.7077 117.851 62.1846 117.793 62.6614L105.005 64.1264C105.068 63.6496 105.137 63.1785 105.2 62.7074Z" fill="#1B3377"/>
<path d="M104.539 67.855L117.391 66.3785C117.345 66.8496 117.293 67.3207 117.247 67.7976L104.373 69.2741C104.43 68.7972 104.482 68.3261 104.539 67.855Z" fill="#1B3377"/>
<path d="M103.953 73.1578L116.897 71.6756C116.857 72.1467 116.817 72.6178 116.777 73.0889L103.81 74.5711C103.856 74.1 103.907 73.6289 103.953 73.1578Z" fill="#1B3377"/>
<path d="M103.316 79.8222L116.374 78.3284C116.34 78.7995 116.305 79.2649 116.277 79.7302L103.195 81.2297C103.229 80.7644 103.27 80.2933 103.316 79.8222Z" fill="#1B3377"/>
<path d="M102.85 85.2801L116.007 83.7749C115.978 84.246 115.949 84.7171 115.921 85.1767L102.741 86.6877C102.77 86.2338 102.81 85.7627 102.85 85.2801Z" fill="#1B3377"/>
<path d="M102.379 91.3297L115.645 89.8073C115.616 90.2841 115.593 90.7552 115.57 91.2091L102.281 92.7316C102.31 92.2892 102.345 91.8181 102.379 91.3297Z" fill="#1B3377"/>
<path d="M115.289 96.8393L107.826 97.6838L107.797 97.6781C107.607 97.6436 104.832 97.1323 103.189 96.8278L115.352 95.4375C115.329 95.943 115.306 96.4141 115.289 96.8393Z" fill="#1B3377"/>
<path d="M121.66 36.6819C121.66 36.6819 124.004 36.3601 130.116 35.5271C136.229 34.694 148.34 34.1023 148.34 34.1023L144.094 47.6666L121.033 47.6321L121.66 36.6819Z" fill="#494968"/>
<path d="M121.66 36.6818C121.66 36.6818 123.797 42.2202 130.174 42.5476C136.551 42.8694 142.727 41.502 148.34 34.108L152.5 34.47C152.5 34.47 154.482 47.9136 161.669 66.4187C168.85 84.9296 175.894 139.014 169.149 147.879C162.41 156.75 155.378 151.613 156.05 145.954C156.722 140.296 158.888 127.018 154.177 119.705C149.472 112.397 137.488 115.884 138.907 126.289C140.326 136.699 150.351 140.893 146.479 149.109C142.606 157.324 135.189 155.417 131.357 150.637C127.525 145.857 115.679 117.263 115.179 99.0396C114.685 80.8218 119.712 37.9975 119.712 37.9975L121.66 36.6818Z" fill="white"/>
<path d="M136.258 41.2263L147.042 110.105L147.053 110.082L142.894 111.782C142.963 111.754 147.162 110.082 147.088 110.111C145.818 101.476 138.212 49.7521 136.942 41.1171L136.258 41.2263Z" fill="#4F6FB7"/>
<path d="M151.029 34.2402C151.029 34.2402 148.742 33.7978 148.076 34.1138C148.076 34.1138 139.516 43.0475 130.254 40.8184C125.262 39.6176 121.729 36.8714 121.654 36.6876L119.712 38.0147C119.816 38.2848 123.515 42.766 131.128 43.7541C139.045 44.7768 145.617 41.3642 151.029 34.2402Z" fill="#1B3377"/>
<path d="M133.834 47.8217C133.851 48.3446 134.282 48.7525 134.805 48.7352C135.328 48.718 135.735 48.2871 135.718 47.7643C135.701 47.2415 135.27 46.8336 134.747 46.8508C134.224 46.8681 133.817 47.2989 133.834 47.8217Z" fill="#1B3377"/>
<path d="M136.925 72.2615C136.942 72.7843 137.373 73.1922 137.896 73.175C138.418 73.1578 138.826 72.7269 138.809 72.2041C138.792 71.6813 138.361 71.2734 137.838 71.2906C137.315 71.3021 136.907 71.7387 136.925 72.2615Z" fill="#1B3377"/>
<path d="M135.161 61.0471C135.178 61.5699 135.609 61.9778 136.132 61.9606C136.655 61.9433 137.063 61.5124 137.045 60.9896C137.028 60.4668 136.597 60.0589 136.074 60.0762C135.557 60.0876 135.149 60.5243 135.161 61.0471Z" fill="#1B3377"/>
<path d="M139.183 84.9641C139.2 85.4869 139.631 85.8948 140.154 85.8775C140.676 85.8603 141.084 85.4294 141.067 84.9066C141.05 84.3838 140.619 83.9759 140.096 83.9931C139.579 84.0046 139.165 84.4412 139.183 84.9641Z" fill="#1B3377"/>
<path d="M130.766 139.974C134.793 142.536 137.936 138.928 137.177 134.085C137.057 133.229 136.798 132.31 136.54 131.655C134.23 125.709 128.565 124.307 126.865 128.794C125.457 132.361 127.376 137.842 130.766 139.974Z" fill="#1B3377"/>
<path d="M164.323 137.038C166.845 136.963 168.224 133.712 168.615 131.195C169.775 122.962 163.973 117.194 160.727 122.934C157.78 128.035 160.078 137.159 164.323 137.038Z" fill="#1B3377"/>
<path d="M160.738 122.911C161.077 122.313 161.445 121.842 161.83 121.486L165.874 121.405C166.305 121.756 166.713 122.21 167.075 122.756L160.738 122.911Z" fill="#99E0FF"/>
<path d="M159.859 125.008L168.075 124.806C168.224 125.237 168.356 125.691 168.46 126.174L159.555 126.409C159.63 125.932 159.733 125.461 159.859 125.008Z" fill="#99E0FF"/>
<path d="M168.759 129.403L159.446 129.655C159.405 129.196 159.394 128.736 159.4 128.271L168.724 128.018C168.759 128.472 168.77 128.931 168.759 129.403Z" fill="#99E0FF"/>
<path d="M168.305 132.597L160.078 132.809C159.934 132.373 159.808 131.913 159.704 131.436L168.609 131.201C168.54 131.649 168.443 132.126 168.305 132.597Z" fill="#99E0FF"/>
<path d="M167.523 134.59C167.236 135.125 166.903 135.613 166.512 136.004L162.048 136.113C161.646 135.751 161.284 135.291 160.962 134.757L167.523 134.59Z" fill="#99E0FF"/>
<path d="M126.865 128.805V128.8C127.204 127.915 127.692 127.26 128.284 126.823L130.105 126.168C130.886 126.122 131.719 126.318 132.535 126.749L126.865 128.805Z" fill="#99E0FF"/>
<path d="M135.385 129.42L126.48 132.637C126.417 132.143 126.394 131.655 126.411 131.172L134.471 128.254C134.787 128.598 135.098 128.989 135.385 129.42Z" fill="#99E0FF"/>
<path d="M127.347 135.757C127.164 135.332 127.003 134.895 126.865 134.453L136.281 131.034C136.373 131.236 136.459 131.442 136.54 131.655C136.62 131.856 136.7 132.08 136.775 132.321L127.347 135.757Z" fill="#99E0FF"/>
<path d="M128.181 137.32L137.183 134.096C137.258 134.591 137.298 135.073 137.292 135.533L129.048 138.48C128.738 138.124 128.445 137.733 128.181 137.32Z" fill="#99E0FF"/>
<path d="M135.994 139.566L132.742 140.772C132.122 140.669 131.455 140.41 130.772 139.974C130.766 139.974 130.766 139.968 130.76 139.968L136.988 137.699C136.758 138.434 136.425 139.066 135.994 139.566Z" fill="#99E0FF"/>
<path d="M166.615 150.258C166.615 150.258 165.622 147.052 161.284 145.443C156.946 143.835 156.154 144.208 156.154 144.208L157.308 150.528L160.313 152.51L164.019 152.401L166.615 150.258Z" fill="#99E0FF"/>
<path d="M147.938 146.678C147.938 146.678 144.864 145.415 140.515 146.897C136.166 148.379 136.321 153.607 136.321 153.607L139.343 154.739L143.646 152.992L147.438 148.655L147.938 146.678Z" fill="#99E0FF"/>
<path d="M117.127 63.2474C116.242 71.9168 114.473 91.1803 114.915 99.9072C116.144 116.666 122.832 137.159 129.737 149.246C133.977 156.319 141.027 156.956 144.916 152.619C152.454 144.3 144.204 138.118 141.17 131.5C136.402 121.451 142.687 115.247 148.961 116.735C153.649 117.821 155.05 123.037 155.016 122.957C155.039 123.026 155.545 124.646 155.516 124.542C157.383 133.614 156.085 138.4 155.424 145.972C155.343 153.94 163.323 155.652 168.442 149.66C168.632 148.258 174.946 149.08 171.338 113.368C167.793 78.9029 160.974 64.6894 159.233 59.7773C160.583 63.8506 167.242 78.3284 170.47 113.448C171.148 120.9 172.619 140.049 169.201 146.69C168.511 147.833 167.512 148.913 167.569 148.844C161.807 154.601 155.998 151.981 156.814 144.978C158.141 134.763 159.411 117.775 149.288 115.402C146.071 114.632 142.566 115.666 140.308 118.315C134.092 125.691 142.641 136.418 144.813 139.939C147.111 143.708 147.949 147.437 144.008 151.78C141.929 154.107 139.131 154.676 136.339 153.619C131.949 151.958 129.628 147.908 124.555 135.2C113.835 107.663 114.501 96.9254 117.127 63.2474Z" fill="#4F6FB7"/>
</svg>
