<svg width="285" height="190" viewBox="0 0 285 190" fill="none" xmlns="http://www.w3.org/2000/svg">
<g clip-path="url(#clip0)">
<path d="M285 -69H0V216H285V-69Z" fill="#FBEAD5"/>
<path d="M0 145.805C0 145.805 6.6234 131.703 33.4647 135.99C60.306 140.276 65.7837 176.454 65.7837 176.454C65.7837 176.454 70.9992 165.624 82.878 166.479C94.7625 167.334 102.543 178.164 104.065 188.709C104.065 188.709 109.85 176.169 120.829 176.169C131.807 176.169 137.199 185.289 137.199 185.289C137.199 185.289 140.072 164.467 164.382 156.641C188.693 148.815 205.166 173.889 205.166 173.889C205.166 173.889 207.657 163.327 223.315 159.348C238.972 155.364 246.331 168.474 246.331 168.474C246.331 168.474 235.98 128.859 284.994 125V217.066H0V145.805Z" fill="url(#paint0_linear)"/>
<path d="M42.7814 120.264C41.7098 119.096 40.4729 117.198 41.2367 115.203C42.485 111.948 46.7543 115.636 46.7543 115.636C46.7543 115.636 44.2463 108.961 48.3845 108.078C52.517 107.2 55.7774 114.063 55.7774 114.063C55.7774 114.063 55.2473 110.631 58.5932 111.07C61.9391 111.509 61.0556 116.172 61.0556 116.172C61.0556 116.172 63.8714 114.04 65.8037 115.636C67.2173 116.799 65.6783 119.101 64.7435 120.264H42.7814Z" fill="url(#paint1_linear)"/>
<path d="M286 24C281.153 29.6043 278.181 35.7303 278.181 35.7303C278.181 35.7303 280.025 23.9553 268.304 25.4756C256.583 26.981 259.662 42.9742 259.662 42.9742C259.662 42.9742 249.785 35.6707 243.003 41.126C238.049 45.1206 243.445 53.0203 246.722 57H286V24Z" fill="url(#paint2_linear)"/>
<path d="M189.781 16.2641C188.71 15.0957 187.473 13.1976 188.237 11.2026C189.485 7.94786 193.754 11.6358 193.754 11.6358C193.754 11.6358 191.246 4.96106 195.385 4.07756C199.517 3.19976 202.777 10.0626 202.777 10.0626C202.777 10.0626 202.247 6.63116 205.593 7.07006C208.939 7.50896 208.056 12.1716 208.056 12.1716C208.056 12.1716 210.871 10.0398 212.804 11.6358C214.217 12.7986 212.678 15.1013 211.744 16.2641H189.781Z" fill="url(#paint3_linear)"/>
<path d="M-2.86102e-05 61C5.79117 61.1995 10.1688 70.4335 10.1688 70.4335C10.1688 70.4335 9.34797 65.0926 14.5521 65.7766C19.7562 66.4606 18.3882 73.7224 18.3882 73.7224C18.3882 73.7224 22.7715 70.405 25.7868 72.8845C27.987 74.6971 25.5873 78.2824 24.1338 80.0893H-2.86102e-05V61Z" fill="url(#paint4_linear)"/>
<path d="M64.8409 15C66.7417 12.9043 68.9371 9.50122 67.578 5.92509C65.3589 0.0850449 57.7938 6.69896 57.7938 6.69896C57.7938 6.69896 62.2416 -5.27915 54.9047 -6.86053C47.5724 -8.4371 41.7988 3.87266 41.7988 3.87266C41.7988 3.87266 42.735 -2.28462 36.8046 -1.49634C30.8742 -0.70805 32.4375 7.66028 32.4375 7.66028C32.4375 7.66028 27.4433 3.83902 24.0124 6.69415C21.5081 8.78023 24.2357 12.9139 25.8941 15H64.8409Z" fill="url(#paint5_linear)"/>
<path d="M177.109 49.3714C177.109 49.3714 169.199 61.1502 163.899 76.1128C158.599 91.0754 150.022 99.2139 151.293 105.125C152.564 111.03 163.72 112.214 168.971 104.471C174.221 96.7273 186.426 62.9643 189.054 56.936C191.683 50.9078 180.916 46.5147 177.109 49.3714Z" fill="#A85D3B"/>
<path d="M147.573 92.655C147.573 92.655 152.706 80.9935 150.905 57.985C149.276 37.2163 139.823 39.2339 136.627 44.5711C133.431 49.9083 139.934 58.3305 139.255 64.9141C138.577 71.4976 130.253 92.6057 134.43 97.4369C138.614 102.268 145.314 98.8005 147.573 92.655Z" fill="#A85D3B"/>
<path d="M213.032 57.985C210.169 65.3399 205.078 84.4735 201.808 101.133L201.802 101.145C201.438 103.015 201.092 104.847 200.778 106.637C200.698 107.081 200.623 107.519 200.549 107.957C199.815 112.245 198.791 116.614 197.366 120.871C190.609 140.955 174.789 158.453 137.762 153.036C124.225 151.055 114.087 144.817 106.529 137.08C105.936 136.475 105.363 135.858 104.801 135.235C94.1329 123.37 89.0549 108.63 86.8522 100.127C86.3339 98.128 85.976 96.4744 85.7416 95.2836C85.4762 93.9446 85.3713 93.1857 85.3713 93.1857L141.063 89.1689C140.298 90.4091 139.86 92.3281 139.619 93.8151C139.422 95.0553 139.36 95.9931 139.36 95.9931C153.064 86.8551 152.694 48.6866 154.138 44.1516C155.581 39.6165 162.406 39.4993 165.818 45.9286C169.23 52.3579 163.325 80.975 160.832 88.8419C159.228 93.9138 156.785 98.2823 155.248 100.75C154.458 102.021 153.909 102.786 153.835 102.885C153.829 102.891 153.829 102.898 153.829 102.898C154.156 103.693 155.082 104.773 156.353 105.625C158.093 106.791 160.487 107.525 162.893 106.526C164.516 105.853 166.145 104.391 167.589 101.744C168.101 100.806 168.588 99.7261 169.045 98.4735C177.967 74.0089 194.7 49.3839 203.622 45.256C205.627 44.3305 208.305 44.8858 210.36 45.7065C213.772 47.0639 215.895 50.6117 213.032 57.985Z" fill="#CC8057"/>
<path d="M154.73 44.4107C154.73 44.4107 155.322 41.159 159.586 41.8316C163.849 42.5041 165.293 46.0458 165.756 48.9334C166.219 51.8211 165.299 61.4588 165.299 61.4588C165.299 61.4588 154.576 63.0877 154.008 59.2006C153.422 55.1653 154.73 44.4107 154.73 44.4107Z" fill="url(#paint6_linear)"/>
<path d="M210.73 47.9339C210.317 46.6752 209.218 45.7559 207.904 45.5522C206.929 45.4042 205.652 45.3486 204.344 45.6941C201.629 46.4099 192.991 55.8934 191.22 59.1759C189.449 62.4584 201.722 66.3271 204.807 65.019C207.546 63.8529 212.637 53.7277 210.73 47.9339Z" fill="url(#paint7_linear)"/>
<path d="M191.948 83.9368C191.196 83.9368 190.733 83.6036 190.467 83.3074C189.918 82.6842 189.758 81.7032 189.758 80.8023C189.19 81.5859 188.468 82.3202 187.765 82.3572C187.45 82.3757 187.006 82.277 186.642 81.7032C185.346 79.667 188.215 75.2245 188.549 74.7247C188.69 74.5149 188.974 74.4532 189.184 74.5951C189.394 74.7371 189.456 75.0209 189.314 75.2307C188.191 76.9275 186.685 80.0496 187.419 81.2095C187.567 81.444 187.672 81.4378 187.716 81.4378C188.283 81.407 189.357 79.9262 190.029 78.5687C190.134 78.3589 190.375 78.2602 190.597 78.3404C190.819 78.4206 190.943 78.6489 190.893 78.8711C190.72 79.6485 190.43 81.8574 191.165 82.6904C191.393 82.9434 191.702 83.0483 192.133 83.0051C192.436 82.9742 192.652 82.8446 192.812 82.5978C193.633 81.3206 192.683 77.7296 192.251 76.4585C192.17 76.2179 192.3 75.9588 192.534 75.8785C192.775 75.7983 193.034 75.9217 193.121 76.1624C193.293 76.6745 194.793 81.2219 193.59 83.0976C193.281 83.5789 192.812 83.8627 192.232 83.9183C192.127 83.9306 192.035 83.9368 191.948 83.9368Z" fill="#A85D3B"/>
<path d="M145.549 103.539C145.333 103.539 145.117 103.49 144.907 103.391C144.247 103.076 144.031 102.589 143.963 102.243C143.846 101.62 144.111 100.917 144.457 100.325C143.772 100.602 143.019 100.781 142.538 100.528C142.316 100.411 142.044 100.152 142.032 99.6027C141.982 97.6837 145.746 95.8389 146.172 95.6353C146.369 95.5427 146.604 95.6229 146.696 95.8204C146.789 96.0178 146.709 96.2523 146.511 96.3448C145.067 97.0297 142.791 98.5105 142.822 99.578C142.828 99.7816 142.889 99.8124 142.914 99.8248C143.29 100.022 144.611 99.4731 145.61 98.8314C145.777 98.7265 145.999 98.7573 146.129 98.9116C146.258 99.0659 146.246 99.288 146.11 99.4361C145.678 99.8865 144.592 101.25 144.747 102.095C144.777 102.256 144.858 102.49 145.253 102.675C145.462 102.774 145.647 102.774 145.845 102.675C146.789 102.213 147.634 99.7631 147.943 98.3254C147.986 98.1156 148.202 97.9799 148.412 98.0231C148.621 98.0663 148.757 98.2761 148.714 98.492C148.621 98.9116 147.782 102.601 146.19 103.385C145.981 103.49 145.765 103.539 145.549 103.539Z" fill="#A85D3B"/>
<path d="M132.499 139.394C132.314 139.394 132.123 139.369 131.925 139.314C130.71 138.993 129.494 137.685 128.643 136.568C128.63 136.889 128.562 137.204 128.408 137.481C128.235 137.802 127.865 138.209 127.106 138.32C126.644 138.388 126.218 138.265 125.866 137.956C124.614 136.846 124.669 133.563 124.681 133.193C124.688 132.977 124.873 132.804 125.089 132.81C125.305 132.817 125.477 132.996 125.471 133.218C125.447 134.119 125.558 136.63 126.391 137.364C126.563 137.518 126.755 137.574 126.989 137.537C127.347 137.481 127.588 137.339 127.717 137.099C128.069 136.451 127.662 135.235 127.476 134.828C127.39 134.637 127.47 134.409 127.655 134.316C127.841 134.223 128.069 134.285 128.174 134.47C128.754 135.47 130.586 138.148 132.123 138.549C132.474 138.641 132.783 138.604 133.06 138.444C133.295 138.308 133.418 138.129 133.443 137.888C133.56 136.741 131.592 134.507 130.327 133.372C130.173 133.236 130.154 133.002 130.278 132.835C130.407 132.675 130.636 132.638 130.808 132.749C131.561 133.261 133.893 134.513 134.671 133.643C134.986 133.286 134.967 133.033 134.924 132.872C134.677 131.934 132.641 131.058 131.95 130.824C131.746 130.756 131.635 130.527 131.703 130.324C131.771 130.12 131.999 130.009 132.203 130.077C132.518 130.182 135.282 131.163 135.683 132.675C135.775 133.033 135.782 133.582 135.257 134.174C134.585 134.933 133.48 134.822 132.487 134.483C133.4 135.55 134.325 136.92 134.22 137.975C134.171 138.468 133.906 138.87 133.455 139.129C133.165 139.308 132.845 139.394 132.499 139.394Z" fill="#A85D3B"/>
<path d="M171.84 138.061C169.347 138.061 166.231 135.377 166.058 135.229C165.892 135.087 165.879 134.84 166.021 134.674C166.163 134.507 166.41 134.495 166.577 134.637C167.897 135.784 171.661 138.401 173.191 136.716C173.561 136.309 173.697 135.963 173.592 135.686C173.333 134.976 171.673 134.495 170.686 134.365C170.489 134.341 170.34 134.162 170.347 133.964C170.353 133.761 170.513 133.6 170.711 133.582C171.439 133.532 173.45 133.224 173.987 132.409C174.129 132.193 174.154 131.959 174.055 131.669C173.962 131.391 173.777 131.194 173.493 131.064C172.383 130.552 170.125 131.231 169.347 131.539C169.143 131.62 168.915 131.521 168.835 131.317C168.755 131.114 168.853 130.885 169.057 130.805C169.187 130.756 172.173 129.59 173.82 130.349C174.302 130.571 174.629 130.929 174.795 131.41C174.974 131.928 174.919 132.422 174.641 132.841C174.234 133.452 173.407 133.822 172.617 134.044C173.358 134.328 174.092 134.76 174.326 135.414C174.536 135.988 174.345 136.605 173.765 137.241C173.24 137.833 172.568 138.061 171.84 138.061Z" fill="#A85D3B"/>
<path d="M201.605 114.331C201.679 114.454 204.708 119.656 202.968 120.995C201.845 121.858 201.025 120.341 200.58 119.137C201.111 121.025 201.882 124.388 200.809 124.826C199.642 125.301 198.026 122.247 197.366 120.871C197.174 120.476 197.069 120.223 197.069 120.223L200.617 105.933L201.802 101.151L201.808 101.139C201.808 101.139 201.068 107.365 202.32 110.499C202.437 110.801 202.573 111.073 202.734 111.307C204.541 113.991 203.301 116.379 201.605 114.331Z" fill="#CC8057"/>
<path d="M163.257 79.198C163.257 79.198 162.93 83.4616 163.849 85.6951C164.769 87.9287 163.51 89.4775 162.578 87.7313C162.578 87.7313 164.059 92.0627 162.578 92.7847C161.098 93.5066 161.03 90.0945 161.03 90.0945C161.03 90.0945 161.622 95.0306 160.437 95.2527C159.259 95.4748 158.994 92.7229 158.994 92.7229L163.257 79.198Z" fill="#CC8057"/>
<path d="M90.8812 112.338C90.8812 112.338 92.1338 116.453 91.6957 120.217C91.2576 123.981 92.0474 127.899 93.5529 127.961C95.3669 128.041 95.805 124.678 95.805 124.678C95.805 124.678 94.6574 132.058 97.0946 132.946C99.7847 133.933 99.6552 130.015 99.6552 130.015C99.6552 130.015 100.926 138.394 103.462 138.394C105.998 138.394 104.116 131.502 104.116 131.502L90.8812 112.338Z" fill="#CC8057"/>
<path d="M127.223 150.445C127.223 150.445 131.055 152.209 133.461 155.14C135.868 158.071 139.23 160.224 140.323 159.182C141.637 157.929 139.527 155.282 139.527 155.282C139.527 155.282 144.037 161.23 146.376 160.095C148.955 158.842 146.042 156.22 146.042 156.22C146.042 156.22 152.953 161.125 154.718 159.299C156.482 157.472 150.213 154.042 150.213 154.042L127.223 150.445Z" fill="#CC8057"/>
<path d="M197.316 121.001C194.848 128.294 191.177 135.241 185.723 140.862C186.667 141.023 187.45 141.294 188.104 141.646C192.775 144.145 190.245 150.605 184.55 149.26C177.905 147.693 174.481 149.063 174.079 149.242C174.067 149.248 174.055 149.254 174.036 149.26C167.625 152.327 159.765 154.097 150.121 154.03L150.207 154.042C150.207 154.042 156.47 157.472 154.705 159.299C152.941 161.125 146.036 156.22 146.036 156.22C146.036 156.22 148.942 158.842 146.369 160.095C144.179 161.162 140.088 156.004 139.576 155.35C139.897 155.776 141.507 158.052 140.316 159.182C139.218 160.218 135.855 158.071 133.455 155.14C131.049 152.209 127.217 150.445 127.217 150.445C118.77 147.458 111.977 142.658 106.523 137.074C105.93 136.469 105.356 135.852 104.795 135.229C104.789 135.217 104.776 135.211 104.77 135.198C104.887 136.833 104.678 138.401 103.468 138.401C100.932 138.401 99.6614 130.021 99.6614 130.021C99.6614 130.021 99.7909 133.94 97.1007 132.952C94.8486 132.126 95.6569 125.764 95.7927 124.802C95.6939 125.4 95.1633 128.035 93.5591 127.961C92.0474 127.893 91.2638 123.981 91.7019 120.217C92.1338 116.521 90.9306 112.486 90.8874 112.344C88.9993 107.686 87.7098 103.434 86.8521 100.127C86.7226 99.6335 86.6053 99.1584 86.5004 98.708C87.8393 98.9178 89.3017 99.4361 90.8874 100.325C90.8874 100.325 109.003 145.817 144.37 148.18C144.37 148.18 141.464 143.849 146.425 143.978C151.312 144.108 155.588 145.799 155.717 145.854C155.606 145.78 151.083 142.788 153.848 142.14C156.643 141.486 175.671 145.293 184.994 137.808C193.651 130.848 196.897 122.185 197.316 121.001Z" fill="#A85D3B"/>
<path d="M184.55 149.26C177.461 147.588 174.042 149.26 174.042 149.26C174.042 149.26 172.827 140.869 183.329 140.696C184.217 140.684 185.013 140.739 185.729 140.862C186.673 141.023 187.456 141.294 188.11 141.646C192.775 144.145 190.245 150.605 184.55 149.26Z" fill="#A85D3B"/>
<path d="M188.104 141.646C186.006 144.244 179.88 145.854 179.88 145.854L185.723 140.869C186.661 141.029 187.45 141.301 188.104 141.646Z" fill="#894226"/>
<path d="M104.795 135.229L104.32 129.731C104.32 129.731 106.029 133.785 106.523 137.074C105.936 136.469 105.363 135.852 104.795 135.229Z" fill="#894226"/>
<path d="M201.802 101.133C201.802 101.133 201.062 107.358 202.314 110.493L202.308 110.487C201.629 109.345 201.129 108.05 200.772 106.637C200.71 106.402 200.654 106.168 200.605 105.927C197.279 90.1376 210.107 61.1502 211.668 55.9118C213.772 48.8593 210.446 45.7927 210.354 45.7002C213.76 47.0638 215.888 50.6116 213.019 57.985C210.169 65.3398 205.072 84.4734 201.802 101.133Z" fill="#A85D3B"/>
<path d="M110.953 104.551C110.953 104.551 100.186 108.34 86.846 100.115C86.3277 98.1156 85.9698 96.462 85.7354 95.2712L85.7785 95.2095C85.7785 95.2156 96.7799 104.816 110.953 104.551Z" fill="#A85D3B"/>
<path d="M155.248 100.744C154.458 102.015 153.909 102.78 153.835 102.879C153.909 102.762 154.532 101.688 155.248 100.744Z" fill="#A85D3B"/>
<path d="M156.353 105.619C153.095 111.406 143.161 112.868 143.161 112.868C150.3 109.327 153.829 102.891 153.829 102.891C154.162 103.687 155.088 104.767 156.353 105.619Z" fill="#A85D3B"/>
<path d="M141.063 89.1628C140.298 90.403 139.86 92.3219 139.619 93.8089C135.504 97.801 128.026 100.232 127.76 100.318C134.985 97.4123 139.977 90.7177 141.063 89.1628Z" fill="#A85D3B"/>
<path d="M163.325 120.217C163.325 120.217 161.986 113.195 162.893 106.513C164.516 105.841 166.145 104.378 167.588 101.731C165.737 106.427 163.158 114.127 163.325 120.217Z" fill="#A85D3B"/>
<path d="M56.0385 29.1581C55.4893 28.683 54.7057 29.374 55.113 29.9726C60.0306 37.3089 75.1227 53.2463 113.402 53.3636C163.14 53.5178 176.455 49.3653 200.346 58.8303C224.866 68.5421 231.585 99.9296 231.585 99.9296V72.2689C231.585 72.2689 219.004 49.3345 179.651 47.0947C140.298 44.8549 135.263 49.6121 100.389 46.9651C77.1651 45.2128 62.0605 34.3719 56.0385 29.1581Z" fill="#5A1728"/>
<path d="M189.702 56.7448C189.597 56.8805 189.486 57.0101 189.381 57.1273C186.438 60.4901 177.812 58.9352 175.425 55.7822C173.037 52.6293 173.401 49.2604 177.88 43.0594C179.565 40.7333 181.601 39.8201 183.489 39.5918C184.785 39.4314 186.043 39.5918 187.185 40.0114C189.998 41.0356 192.152 43.6024 192.602 46.7677C193.151 50.6055 191.516 54.468 189.702 56.7448Z" fill="#CC8057"/>
<path d="M186.21 40.4926C186.21 40.4926 189.27 40.7579 191.066 44.0712C193.417 48.4212 191.461 54.2273 189.227 56.0228C189.227 56.0228 182.138 54.1841 180.213 50.7288C178.294 47.2736 181.527 39.53 186.21 40.4926Z" fill="url(#paint8_linear)"/>
<path d="M189.702 56.7448C189.597 56.8805 189.486 57.0101 189.381 57.1273C186.438 60.4901 177.812 58.9352 175.425 55.7822C173.037 52.6293 173.401 49.2604 177.88 43.0594C179.565 40.7333 181.601 39.8201 183.489 39.5918C184.785 39.4314 186.043 39.5918 187.185 40.0114C187.191 40.0114 187.191 40.0175 187.197 40.0175C187.197 40.0175 179.793 38.8699 177.893 46.8541C176.257 53.7523 187.08 56.6708 189.702 56.7448Z" fill="#A85D3B"/>
<path d="M186.475 58.8057C182.785 64.0565 179.207 66.2778 177.183 67.1848C176.122 67.6599 175.492 67.7709 175.492 67.7709C175.301 67.3205 175.147 66.8331 175.017 66.3209C173.925 61.9216 174.906 55.3936 175.431 52.5862C175.548 51.9692 176.27 51.6977 176.77 52.0864C180.422 54.9309 183.952 56.3685 185.883 57.004C186.629 57.2508 186.932 58.1579 186.475 58.8057Z" fill="#F4E1DC"/>
<path d="M177.177 67.1847C176.116 67.6598 175.486 67.7708 175.486 67.7708C175.295 67.3204 175.141 66.833 175.011 66.3209C175.011 63.3839 175.239 57.6642 176.942 54.8752C176.942 54.8752 175.653 61.1935 175.832 66.2036C176.504 64.4636 178.121 60.6875 180.971 56.3067C180.971 56.3067 179.546 61.1873 176.276 66.907C180.058 63.5813 183.81 58.1824 183.81 58.1824C183.008 61.1873 179.361 65.0683 177.177 67.1847Z" fill="#DCC3BA"/>
<path d="M101.685 103.804C89.8508 100.133 81.0213 91.9208 77.5475 82.6224C77.3871 82.1966 77.239 81.7771 77.1033 81.3451C75.641 76.7422 75.4929 71.9172 76.9305 67.2834C80.54 55.6465 93.0408 48.6989 107.207 49.2789C107.948 49.3098 108.688 49.3591 109.441 49.4332C112.261 49.7047 115.136 50.2723 117.999 51.1608C136.176 56.7942 147.258 73.145 142.747 87.688C138.249 102.225 119.862 109.438 101.685 103.804Z" fill="#CC8057"/>
<path d="M143.753 81.6846C143.753 81.6846 144.179 85.0843 145.907 86.849C147.634 88.6137 146.425 89.8168 145.253 89.2492C144.08 88.6815 143.543 87.429 143.543 87.429C143.543 87.429 145.092 90.2488 144.346 91.5692C143.599 92.8896 142.007 90.1377 141.865 89.1073C141.729 88.083 143.753 81.6846 143.753 81.6846Z" fill="#CC8057"/>
<path d="M112.1 53.5117L107.22 49.2789C107.96 49.3098 108.701 49.3591 109.453 49.4332L112.1 53.5117Z" fill="#A85D3B"/>
<path d="M77.5537 82.6224C77.3933 82.1966 77.2452 81.7771 77.1095 81.3451L78.3682 78.8771C78.3682 78.8771 78.1029 80.796 77.5537 82.6224Z" fill="#A85D3B"/>
<path d="M76.0359 71.7876C76.0359 71.7876 74.6661 74.6444 71.7847 76.878C68.9032 79.1054 70.4272 81.1169 72.2536 80.5245C74.08 79.9322 75.1165 78.2169 75.1165 78.2169C75.1165 78.2169 72.2844 82.0239 73.1051 84.1094C73.9257 86.1949 76.8133 82.4928 77.2267 81.012C77.6401 79.525 76.0359 71.7876 76.0359 71.7876Z" fill="#CC8057"/>
<path d="M117.555 100.306C113.051 100.787 108.145 100.343 103.234 98.819C98.2853 97.2827 93.9477 94.8454 90.4986 91.8653C83.4893 85.8185 80.0896 77.5382 82.4281 69.9798C83.4955 66.5307 85.6366 63.6369 88.5304 61.4094C95.0892 56.3499 105.492 54.7457 115.901 57.9727C122.435 59.9965 127.89 63.5937 131.672 67.9375C136.571 73.5646 138.681 80.4443 136.707 86.8058C134.35 94.395 126.804 99.3126 117.555 100.306Z" fill="#F4E1DC"/>
<path d="M128.291 62.9211C128.291 62.9211 122.028 58.7685 121.886 61.2366C121.818 62.4151 124.743 63.0013 127.334 64.2662C129.383 65.2657 129.846 63.8713 128.291 62.9211Z" fill="#A85D3B"/>
<path d="M100.581 55.5478C100.581 55.5478 107.701 54.4433 107.078 56.8311C106.8 57.8986 103.703 57.1643 100.852 57.1705C98.5755 57.1828 98.7667 55.7267 100.581 55.5478Z" fill="#A85D3B"/>
<path d="M101.58 79.8027C94.3304 82.6595 90.3753 87.5771 90.4925 91.8715C83.4832 85.8247 80.0835 77.5444 82.422 69.986C83.4894 66.5369 85.6304 63.6431 88.5242 61.4157C93.0285 59.577 99.2356 57.8863 103.882 59.9101C113.359 64.0503 106.936 77.6925 101.58 79.8027Z" fill="#643526"/>
<path d="M117.555 100.306C121.639 97.3444 121.621 89.9711 116.241 82.5608C112.859 77.9023 114.772 62.952 124.984 64.5501C127.402 64.9265 129.661 66.2346 131.672 67.9375C136.571 73.5647 138.681 80.4444 136.707 86.8058C134.35 94.3951 126.804 99.3127 117.555 100.306Z" fill="#643526"/>
<path d="M109.972 50.1489C109.972 50.1489 104.82 43.5777 105.936 38.9624C107.053 34.3472 112.872 43.553 113.995 48.9334C113.995 48.9334 113.476 40.7086 116.882 40.4865C120.288 40.2643 118.992 50.2723 118.992 50.2723C118.992 50.2723 120.023 45.6324 121.491 45.3917C125.755 44.7007 123.083 53.9806 123.083 53.9806C123.083 53.9806 116.265 56.3684 109.972 50.1489Z" fill="#CC8057"/>
<path d="M102.055 60.231L102.025 60.2248C101.821 60.1508 101.617 60.0891 101.401 60.0336C100.766 59.8731 100.118 59.8053 99.4824 59.8299C94.8795 57.6827 92.9297 54.8136 92.868 54.7211C95.3114 57.2261 100.192 59.4474 102.055 60.231Z" fill="#0A0206"/>
<path d="M90.3753 55.4492C90.4308 55.5356 92.3251 58.3183 96.7799 60.4532C97.0884 60.3236 97.3969 60.2064 97.7178 60.1138C95.441 59.0588 92.2202 57.3435 90.3753 55.4492Z" fill="#0A0206"/>
<path d="M88.7587 57.0288C88.8143 57.1152 90.5604 59.6758 94.6327 61.7736C94.8363 61.6071 95.0461 61.4466 95.2621 61.2985C93.0902 60.2311 90.3876 58.7009 88.7587 57.0288Z" fill="#0A0206"/>
<path d="M106.486 72.6578C104.567 77.9703 99.5195 81.0121 95.2065 79.4573C93.2136 78.7354 91.7266 77.1558 90.8936 75.1443C89.9249 72.8058 89.8447 69.875 90.8751 67.0182C91.9055 64.1615 93.8429 61.9649 96.0765 60.7802C98.0078 59.7621 100.155 59.4968 102.154 60.2126C106.467 61.7736 108.404 67.3453 106.486 72.6578Z" fill="white"/>
<path d="M101.87 70.9917C100.34 75.2245 96.3233 77.6432 92.8927 76.403C92.1276 76.1253 91.4612 75.6934 90.8998 75.1381C89.9311 72.7996 89.8508 69.8688 90.8813 67.012C91.9117 64.1552 93.8491 61.9587 96.0827 60.774C96.8725 60.7061 97.6623 60.7987 98.4274 61.0763C101.858 62.3289 103.4 66.759 101.87 70.9917Z" fill="#0A0206"/>
<path d="M95.4965 61.6749C95.4965 61.6749 99.4515 61.4898 100.679 64.3095C101.907 67.1293 101.815 71.436 98.8715 74.1756C98.8715 74.1756 95.5026 75.9649 94.1822 73.9843C92.8618 72.0037 92.1276 65.7101 95.4965 61.6749Z" fill="url(#paint9_linear)"/>
<path d="M102.315 66.3456C101.796 67.7709 100.445 68.5915 99.285 68.1719C98.125 67.7524 97.6067 66.2592 98.1188 64.8277C98.6371 63.4024 99.9884 62.5818 101.148 63.0014C102.308 63.4209 102.833 64.9141 102.315 66.3456Z" fill="white"/>
<path d="M127.717 65.9939L127.742 66.0062C127.945 66.0679 128.155 66.1358 128.359 66.2222C128.97 66.469 129.525 66.796 130.025 67.1909C135.01 68.172 138.28 67.012 138.379 66.9749C134.93 67.5488 129.679 66.4628 127.717 65.9939Z" fill="#0A0206"/>
<path d="M139.965 69.0296C139.866 69.0666 136.695 70.1957 131.839 69.2887C131.666 68.9987 131.481 68.7272 131.283 68.4619C133.745 68.9494 137.361 69.4676 139.965 69.0296Z" fill="#0A0206"/>
<path d="M140.335 71.2569C140.242 71.2939 137.318 72.3305 132.789 71.6209C132.721 71.3618 132.647 71.115 132.561 70.8682C134.948 71.2877 138.033 71.6456 140.335 71.2569Z" fill="#0A0206"/>
<path d="M132.851 78.0256C131.314 83.4615 126.495 86.855 122.084 85.6087C120.041 85.0287 118.449 83.5602 117.475 81.6104C116.345 79.346 116.055 76.4275 116.876 73.509C117.703 70.5905 119.474 68.2582 121.621 66.9193C123.472 65.7655 125.601 65.3459 127.643 65.9259C132.061 67.1723 134.387 72.5897 132.851 78.0256Z" fill="white"/>
<path d="M128.13 76.6929C126.909 81.0182 123.071 83.7269 119.56 82.7335C118.777 82.5114 118.079 82.1288 117.481 81.6167C116.352 79.3522 116.062 76.4338 116.882 73.5153C117.709 70.5968 119.48 68.2645 121.627 66.9256C122.411 66.8022 123.207 66.8392 123.99 67.0613C127.501 68.0485 129.352 72.3615 128.13 76.6929Z" fill="#0A0206"/>
<path d="M121.109 67.851C121.109 67.851 125.039 67.3882 126.464 70.1092C127.89 72.8303 128.1 77.137 125.36 80.0802C125.36 80.0802 122.127 82.104 120.671 80.2221C119.215 78.3464 118.036 72.1145 121.109 67.851Z" fill="url(#paint10_linear)"/>
<path d="M128.242 72.0221C127.828 73.4844 126.532 74.3976 125.348 74.0582C124.163 73.725 123.54 72.2689 123.947 70.8066C124.36 69.3442 125.656 68.431 126.841 68.7704C128.026 69.1098 128.655 70.5659 128.242 72.0221Z" fill="white"/>
<path d="M89.4929 81.4315C89.4929 81.4315 97.8041 82.573 96.2369 78.7969C95.0029 75.829 87.5925 72.417 87.5925 72.417C87.5925 72.417 82.1196 72.2442 82.0024 75.5452C81.879 78.8339 85.3589 81.3513 89.4929 81.4315Z" fill="#643526"/>
<path opacity="0.2" d="M83.5326 75.9463C83.2734 76.8348 85.5317 78.2662 88.5736 79.1486C91.6155 80.0247 94.2871 80.0124 94.5401 79.1239C94.7992 78.2354 92.541 76.8039 89.4991 75.9216C86.4634 75.0454 83.7917 75.0578 83.5326 75.9463Z" fill="white"/>
<path d="M127.211 89.9154C127.211 89.9154 119.116 87.7065 122.04 84.8498C124.342 82.6038 132.493 82.3694 132.493 82.3694C132.493 82.3694 137.589 84.3562 136.411 87.4412C135.232 90.5139 131.043 91.4641 127.211 89.9154Z" fill="#643526"/>
<path opacity="0.2" d="M134.843 87.2068C134.732 88.1262 132.092 88.5581 128.951 88.1755C125.81 87.793 123.355 86.7317 123.472 85.8124C123.589 84.893 126.224 84.4611 129.364 84.8437C132.499 85.2324 134.954 86.2875 134.843 87.2068Z" fill="white"/>
<path d="M113.476 76.2734C113.519 75.8044 113.519 75.3293 113.452 74.8666C113.285 73.6942 112.724 71.9604 110.916 72.0777C108.201 72.2566 106.239 80.2037 102.524 82.1473C99.1122 83.9367 94.6142 86.8366 97.872 91.5568C101.13 96.2769 113.421 99.325 117.012 94.6727C120.128 90.6374 116.222 88.12 114.63 82.9186C113.637 79.6854 113.39 77.2174 113.476 76.2734Z" fill="#DCC3BA"/>
<path d="M110.613 76.5448C110.613 76.5448 107.973 74.2125 106.874 75.6871C105.381 77.6986 106.609 81.666 109.293 82.4311C112.347 83.3011 114.371 79.6299 114.377 77.9516C114.383 77.1063 113.186 75.6193 110.613 76.5448Z" fill="#0A0206"/>
<path d="M106.578 76.9582C106.578 76.9582 106.899 75.2984 108.238 75.5514C109.577 75.8044 110.533 76.8533 110.533 76.8533C110.533 76.8533 112.378 76.1807 113.402 76.8286C114.426 77.4765 114.099 78.9882 113.575 79.7718C113.044 80.5554 111.779 81.9745 110.114 81.5303C108.441 81.0798 106.566 79.8335 106.578 76.9582Z" fill="url(#paint11_linear)"/>
<g opacity="0.5">
<path opacity="0.5" d="M112.902 91.8098C112.563 91.8098 112.211 91.7542 111.847 91.6493C109.478 90.9459 108.676 88.8357 108.497 86.7934C108.01 87.6264 107.386 88.4038 106.615 88.9221C105.745 89.496 104.789 89.6811 103.771 89.4713C102.716 89.2492 101.765 88.5951 101.167 87.6634C100.692 86.9292 100.204 85.6828 100.599 83.912C100.673 83.5788 101 83.369 101.333 83.443C101.667 83.5171 101.876 83.8441 101.802 84.1773C101.568 85.2447 101.704 86.2196 102.203 86.9909C102.629 87.6449 103.289 88.1077 104.024 88.2619C104.715 88.4038 105.338 88.2866 105.93 87.8917C107.664 86.7379 108.534 83.696 108.781 82.6903C108.824 82.4928 108.855 82.3633 108.861 82.3262C108.941 82.0054 109.268 81.8018 109.595 81.8758C109.922 81.9498 110.132 82.2707 110.064 82.5977C110.058 82.6224 110.033 82.7458 109.99 82.9371C109.719 84.2637 108.88 89.4836 112.199 90.4647C112.81 90.6436 113.341 90.6004 113.822 90.3289C114.969 89.6749 115.445 87.9226 115.451 87.9102C115.537 87.577 115.87 87.3796 116.204 87.466C116.537 87.5524 116.734 87.8855 116.648 88.2187C116.623 88.3113 116.049 90.4893 114.433 91.4087C113.958 91.674 113.445 91.8098 112.902 91.8098Z" fill="#CBB2AA"/>
</g>
<g opacity="0.5">
<path opacity="0.5" d="M105.77 81.8018C105.714 81.9684 105.529 82.061 105.363 81.9993C105.196 81.9437 105.103 81.7586 105.165 81.592C105.221 81.4254 105.406 81.3329 105.572 81.3946C105.733 81.4501 105.825 81.6352 105.77 81.8018Z" fill="#CBB2AA"/>
<path opacity="0.5" d="M106.862 83.443C106.806 83.6096 106.621 83.7022 106.455 83.6405C106.288 83.585 106.195 83.3999 106.257 83.2333C106.313 83.0667 106.498 82.9741 106.664 83.0358C106.825 83.0913 106.917 83.2764 106.862 83.443Z" fill="#CBB2AA"/>
<path opacity="0.5" d="M104.425 83.7516C104.369 83.9182 104.184 84.0108 104.017 83.9491C103.851 83.8936 103.758 83.7085 103.82 83.5419C103.876 83.3753 104.061 83.2827 104.227 83.3444C104.388 83.3999 104.48 83.5789 104.425 83.7516Z" fill="#CBB2AA"/>
<path opacity="0.5" d="M113.291 84.3747C113.236 84.5413 113.322 84.7264 113.489 84.782C113.655 84.8375 113.84 84.7511 113.896 84.5845C113.951 84.4179 113.865 84.2328 113.698 84.1773C113.532 84.1156 113.353 84.2081 113.291 84.3747Z" fill="#CBB2AA"/>
<path opacity="0.5" d="M111.428 85.0041C111.372 85.1707 111.459 85.3559 111.625 85.4114C111.792 85.4669 111.977 85.3805 112.032 85.2139C112.088 85.0473 112.001 84.8622 111.835 84.8067C111.662 84.745 111.483 84.8375 111.428 85.0041Z" fill="#CBB2AA"/>
<path opacity="0.5" d="M113.162 86.7379C113.106 86.9045 113.193 87.0896 113.359 87.1451C113.526 87.2006 113.711 87.1143 113.766 86.9477C113.822 86.7811 113.735 86.596 113.569 86.5405C113.402 86.4849 113.223 86.5713 113.162 86.7379Z" fill="#CBB2AA"/>
</g>
<path d="M149.461 50.297C149.455 50.6672 149.424 51.0127 149.381 51.3397C148.887 54.9493 142.328 57.769 139.286 56.7016C136.244 55.6342 134.973 53.1785 135.239 46.9404C135.337 44.602 136.312 43.0656 137.491 42.0599C138.219 41.4428 139.039 41.0109 139.903 40.758C142.353 40.0484 145.117 40.8073 146.919 42.8435C148.831 45.003 149.516 47.9955 149.461 50.297Z" fill="#CC8057"/>
<path d="M137.25 44.6637C137.25 44.6637 137.861 40.9431 141.538 41.0294C145.216 41.1158 148.233 43.7443 148.714 48.3349C148.714 48.3349 147.314 51.5804 141.668 50.8523C136.022 50.1366 137.25 44.6637 137.25 44.6637Z" fill="url(#paint12_linear)"/>
<path d="M149.461 50.297C149.455 50.6672 149.424 51.0127 149.381 51.3397C148.887 54.9493 142.328 57.769 139.286 56.7016C136.244 55.6342 134.973 53.1784 135.239 46.9404C135.337 44.6019 136.312 43.0656 137.491 42.0598C138.219 41.4428 139.039 41.0109 139.903 40.7579H139.909C139.909 40.7579 134.535 44.3119 136.689 50.0872C138.626 55.2763 147.437 52.6848 149.461 50.297Z" fill="#A85D3B"/>
<path d="M148.159 53.7893C148.011 59.0154 146.573 62.1375 145.604 63.6677C145.098 64.4698 144.716 64.8277 144.716 64.8277C144.383 64.6056 144.062 64.3464 143.741 64.0564C141.02 61.5575 138.756 56.6708 137.842 54.5297C137.645 54.0546 138.015 53.5487 138.527 53.5857C142.291 53.8757 145.339 53.271 146.937 52.8329C147.566 52.6602 148.177 53.1414 148.159 53.7893Z" fill="#F4E1DC"/>
<path d="M145.598 63.6616C145.092 64.4637 144.71 64.8216 144.71 64.8216C144.377 64.5994 144.056 64.3403 143.735 64.0503C142.414 62.0512 140.002 58.0591 139.903 55.3936C139.903 55.3936 141.865 60.2742 144.241 63.5999C143.914 62.1129 143.321 58.818 143.284 54.5544C143.284 54.5544 144.506 58.5157 144.858 63.8775C145.931 59.9163 146.055 54.5544 146.055 54.5544C146.869 56.967 146.135 61.2429 145.598 63.6616Z" fill="#DCC3BA"/>
<path d="M221.318 74.0459C220.966 74.0459 220.627 74.0582 220.288 74.0829C208.139 74.9221 206.448 90.1068 206.282 96.5176C206.251 97.6467 207.583 98.2699 208.423 97.5233C223.465 84.2452 221.96 76.0389 221.435 74.3667C221.374 74.1508 221.318 74.0459 221.318 74.0459Z" fill="#00A8AF"/>
<path d="M221.318 74.0459C220.966 74.0459 220.627 74.0582 220.288 74.0829C218.616 76.9952 214.889 83.2086 209.206 91.1249C209.163 91.1804 209.138 91.2421 209.12 91.3038C209.058 91.5259 209.138 91.7727 209.336 91.9146C209.589 92.0997 209.947 92.0381 210.125 91.7851C216.024 83.5726 219.831 77.1742 221.429 74.3606C221.374 74.1508 221.318 74.0459 221.318 74.0459Z" fill="#00886F"/>
<path d="M132.986 50.2969C132.752 50.3401 132.517 50.3771 132.289 50.4018C123.978 51.3828 120.899 41.344 119.961 37.0311C119.795 36.2722 120.615 35.686 121.282 36.0809C133.141 43.1334 133.171 48.8654 133.023 50.0624C133.011 50.2167 132.986 50.2969 132.986 50.2969Z" fill="#00A8AF"/>
<path d="M132.986 50.2969C132.752 50.3401 132.517 50.3771 132.289 50.4018C130.79 48.6433 127.476 44.9227 122.627 40.3013C122.59 40.2705 122.565 40.2334 122.546 40.1902C122.479 40.0483 122.497 39.8694 122.614 39.746C122.762 39.5917 123.009 39.5856 123.163 39.7337C128.192 44.5279 131.586 48.3657 133.023 50.0625C133.011 50.2167 132.986 50.2969 132.986 50.2969Z" fill="#00886F"/>
<path d="M223.367 63.2912C223.169 63.2172 222.978 63.137 222.793 63.0506C216.086 59.984 218.363 51.0188 219.634 47.3476C219.856 46.6997 220.744 46.6318 221.065 47.2365C226.76 57.9726 224.163 62.2978 223.509 63.137C223.422 63.2419 223.367 63.2912 223.367 63.2912Z" fill="#00A8AF"/>
<path d="M223.367 63.2913C223.169 63.2173 222.978 63.1371 222.793 63.0507C222.466 61.0454 221.676 56.7263 220.146 51.0251C220.134 50.9819 220.134 50.9449 220.134 50.9078C220.146 50.7659 220.245 50.6425 220.387 50.6055C220.572 50.5561 220.757 50.6672 220.806 50.8461C222.398 56.7571 223.194 61.1996 223.502 63.1309C223.422 63.2419 223.367 63.2913 223.367 63.2913Z" fill="#00886F"/>
<path d="M75.4745 44.1947C75.2338 44.0589 74.987 43.9355 74.7464 43.8245C66.0033 39.7337 58.994 49.6059 56.4087 53.9867C55.9521 54.758 56.637 55.6958 57.507 55.5045C73.0434 52.0863 75.1536 45.8236 75.4374 44.46C75.4683 44.2872 75.4745 44.1947 75.4745 44.1947Z" fill="#00A8AF"/>
<path d="M75.4745 44.1945C75.2338 44.0588 74.987 43.9354 74.7464 43.8243C72.4696 45.2003 67.4965 48.0756 60.5119 51.3704C60.4625 51.3951 60.4193 51.426 60.3823 51.463C60.2527 51.5926 60.2157 51.7962 60.2959 51.9689C60.4008 52.1911 60.6723 52.2898 60.8944 52.1849C68.1382 48.7605 73.2409 45.7926 75.4313 44.4599C75.4683 44.2871 75.4745 44.1945 75.4745 44.1945Z" fill="#00886F"/>
<path d="M86.0316 45.4781C85.8403 45.4534 85.6552 45.4287 85.4762 45.3917C78.9606 44.1577 79.0223 35.828 79.3431 32.348C79.3987 31.7372 80.1576 31.4842 80.5648 31.9408C87.8518 40.0977 86.5067 44.4353 86.1118 45.3115C86.0686 45.4226 86.0316 45.4781 86.0316 45.4781Z" fill="#00A8AF"/>
<path d="M86.0316 45.478C85.8403 45.4533 85.6552 45.4287 85.4762 45.3916C84.7605 43.7072 83.1439 40.1038 80.5771 35.4577C80.5586 35.4269 80.5463 35.3898 80.5401 35.3528C80.5216 35.2294 80.5771 35.0998 80.6944 35.0381C80.8425 34.9579 81.0337 35.0073 81.1139 35.1615C83.7733 39.9866 85.4269 43.6948 86.1118 45.3176C86.0686 45.4225 86.0316 45.478 86.0316 45.478Z" fill="#00886F"/>
</g>
<defs>
<linearGradient id="paint0_linear" x1="143.5" y1="150.5" x2="144" y2="211" gradientUnits="userSpaceOnUse">
<stop stop-color="white"/>
<stop offset="1" stop-color="white" stop-opacity="0"/>
</linearGradient>
<linearGradient id="paint1_linear" x1="53.6891" y1="112.309" x2="53.6891" y2="127.062" gradientUnits="userSpaceOnUse">
<stop stop-color="white"/>
<stop offset="1" stop-color="white" stop-opacity="0"/>
</linearGradient>
<linearGradient id="paint2_linear" x1="263.5" y1="29.7316" x2="263.5" y2="80.3361" gradientUnits="userSpaceOnUse">
<stop stop-color="white"/>
<stop offset="1" stop-color="white" stop-opacity="0"/>
</linearGradient>
<linearGradient id="paint3_linear" x1="200.69" y1="8.30941" x2="200.69" y2="23.0626" gradientUnits="userSpaceOnUse">
<stop stop-color="white"/>
<stop offset="1" stop-color="white" stop-opacity="0"/>
</linearGradient>
<linearGradient id="paint4_linear" x1="13.3381" y1="67.7059" x2="13.3381" y2="90.6772" gradientUnits="userSpaceOnUse">
<stop stop-color="white"/>
<stop offset="1" stop-color="white" stop-opacity="0"/>
</linearGradient>
<linearGradient id="paint5_linear" x1="45.4985" y1="0.729755" x2="45.4985" y2="27.1987" gradientUnits="userSpaceOnUse">
<stop stop-color="white"/>
<stop offset="1" stop-color="white" stop-opacity="0"/>
</linearGradient>
<linearGradient id="paint6_linear" x1="167.817" y1="20.9714" x2="160.991" y2="48.9306" gradientUnits="userSpaceOnUse">
<stop stop-color="white"/>
<stop offset="1" stop-color="white" stop-opacity="0"/>
</linearGradient>
<linearGradient id="paint7_linear" x1="188.723" y1="26.6971" x2="201.521" y2="55.4426" gradientUnits="userSpaceOnUse">
<stop stop-color="white"/>
<stop offset="1" stop-color="white" stop-opacity="0"/>
</linearGradient>
<linearGradient id="paint8_linear" x1="211.579" y1="30.0305" x2="186.335" y2="48.4609" gradientUnits="userSpaceOnUse">
<stop stop-color="white"/>
<stop offset="1" stop-color="white" stop-opacity="0"/>
</linearGradient>
<linearGradient id="paint9_linear" x1="103.014" y1="64.2267" x2="98.0605" y2="67.3683" gradientUnits="userSpaceOnUse">
<stop stop-color="white"/>
<stop offset="1" stop-color="white" stop-opacity="0"/>
</linearGradient>
<linearGradient id="paint10_linear" x1="128.788" y1="69.8622" x2="124.07" y2="73.348" gradientUnits="userSpaceOnUse">
<stop stop-color="white"/>
<stop offset="1" stop-color="white" stop-opacity="0"/>
</linearGradient>
<linearGradient id="paint11_linear" x1="112.395" y1="71.8923" x2="110.145" y2="78.2674" gradientUnits="userSpaceOnUse">
<stop stop-color="white"/>
<stop offset="1" stop-color="white" stop-opacity="0"/>
</linearGradient>
<linearGradient id="paint12_linear" x1="152.416" y1="31.9329" x2="143.665" y2="45.1468" gradientUnits="userSpaceOnUse">
<stop stop-color="white"/>
<stop offset="1" stop-color="white" stop-opacity="0"/>
</linearGradient>
<clipPath id="clip0">
<rect width="285" height="190" fill="white"/>
</clipPath>
</defs>
</svg>
