<svg width="285" height="190" viewBox="0 0 285 190" fill="none" xmlns="http://www.w3.org/2000/svg">
<rect width="285" height="190" fill="#D9EFE2"/>
<path fill-rule="evenodd" clip-rule="evenodd" d="M75.3115 131.242C93.3779 154.327 140.056 148.066 147.372 111.711C152.623 85.6304 137.946 56.4284 114.511 56.1255C86.3797 55.7629 47.0585 95.1439 75.3115 131.242Z" fill="#D89A87"/>
<path fill-rule="evenodd" clip-rule="evenodd" d="M194.465 68.7218C199.695 59.1119 205.775 52.7156 217.666 48.3986C217.666 48.3986 219.715 50.0633 220.666 49.5444C224.611 47.3975 225.11 43.991 222.859 43.0285C220.174 41.8788 214.378 43.6033 216.874 46.7803C206.517 48.6841 195.904 55.256 189.261 63.9632C184.254 60.5567 177.572 58.6837 168.888 58.9518C166.928 59.1138 165.14 59.382 163.506 59.7427C164.501 51.2535 167.393 44.8166 175.39 37.0334C175.39 37.0334 177.94 37.7066 178.592 36.8444C181.308 33.2643 180.361 29.9523 177.913 30.0005C174.993 30.0565 170.419 34.0127 173.999 35.8838C165.412 41.8268 158.479 52.0636 155.95 62.6457C140.538 72.057 149.116 96.7839 140.864 116.741C138.06 123.525 132.956 129.425 123.874 132.795C99.0277 142.015 80.0991 142.397 62 135.685C80.9459 166.154 172.541 169.746 188.632 141.136C200.952 119.227 208.085 85.301 194.465 68.7218Z" fill="#C49065"/>
<path fill-rule="evenodd" clip-rule="evenodd" d="M155.077 84.0143C155.675 84.9209 155.985 85.2604 156.22 85.2816C156.498 85.3105 161.847 79.0222 163.502 87.5924C164.646 85.1871 163.433 82.8049 161.386 82.1047C159.87 81.5858 157.904 81.8288 156.051 84.5332C156.01 84.5235 154.967 83.5475 154.866 83.5089L155.077 84.0143Z" fill="#473732"/>
<path fill-rule="evenodd" clip-rule="evenodd" d="M165.099 87.4227C165.678 86.5334 165.813 85.9432 165.826 85.3915C165.871 83.7018 164.133 83.0286 164.158 83.0633C164.162 83.0671 165.296 84.5929 165.099 87.4227Z" fill="#473732"/>
<path fill-rule="evenodd" clip-rule="evenodd" d="M158.14 75.3788C159.114 75.1377 160.615 75.4463 160.69 76.1543C160.962 78.6599 158.014 76.8699 156.514 77.5296C155.144 78.1295 156.517 75.782 158.14 75.3788Z" fill="#8E6F55"/>
<path fill-rule="evenodd" clip-rule="evenodd" d="M161.567 97.3101C155.655 96.988 157.148 91.7837 159.338 90.501C160.964 89.5462 163.743 90.3563 164.694 91.9207C165.915 93.9249 164.692 97.4799 161.567 97.3101Z" fill="#FFE1E0"/>
<path fill-rule="evenodd" clip-rule="evenodd" d="M196.539 83.3296C196.024 84.2073 195.752 84.541 195.534 84.5757C195.274 84.6143 189.959 79.0107 188.844 87.1026C187.654 84.9132 188.667 82.6256 190.546 81.8675C191.936 81.3081 193.788 81.4335 195.654 83.8678C195.692 83.8582 196.618 82.8918 196.709 82.8513L196.539 83.3296Z" fill="#473732"/>
<path fill-rule="evenodd" clip-rule="evenodd" d="M187.344 87.0212C186.759 86.2227 186.603 85.6768 186.563 85.1598C186.435 83.582 188.027 82.8644 188.003 82.8991C188 82.9069 187.016 84.3883 187.344 87.0212Z" fill="#473732"/>
<path fill-rule="evenodd" clip-rule="evenodd" d="M194.234 74.6805C193.248 74.4934 191.767 74.883 191.73 75.5909C191.595 78.1101 194.44 76.1657 195.972 76.7406C197.372 77.2652 195.875 74.9968 194.234 74.6805Z" fill="#8E6F55"/>
<path fill-rule="evenodd" clip-rule="evenodd" d="M191.996 96.7666C197.882 96.1262 196.111 91.0126 193.854 89.8456C192.18 88.9815 189.446 89.9421 188.582 91.5527C187.471 93.6205 188.883 97.1061 191.996 96.7666Z" fill="#FFE1E0"/>
<path fill-rule="evenodd" clip-rule="evenodd" d="M173.697 86.0745C173.745 90.8062 179.02 90.3065 179.157 87.2569C178.588 88.1982 177.078 88.8772 176.077 88.5107C174.628 87.9841 173.695 86.0475 173.697 86.0745Z" fill="#473732"/>
<path fill-rule="evenodd" clip-rule="evenodd" d="M109.309 158.878C132.853 153.78 147.071 137.938 162.088 113.731C170.049 100.9 185.797 98.9906 190.343 111.149C195.179 124.08 192.037 142.704 178.717 150.751C170.705 155.593 156.695 159.353 141.198 160.437C130.882 161.158 120.078 160.51 109.309 158.878Z" fill="#D6A77C"/>
<path fill-rule="evenodd" clip-rule="evenodd" d="M75.028 112.719C89.5451 131.266 127.051 126.239 132.931 97.0233C137.149 76.0674 125.356 52.6039 106.525 52.3609C83.9222 52.0715 52.3264 83.7136 75.028 112.719Z" fill="#BF8173"/>
<path fill-rule="evenodd" clip-rule="evenodd" d="M73.0567 96.6835C83.7391 110.333 111.342 106.635 115.669 85.135C118.772 69.7132 110.094 52.4416 96.2366 52.2641C79.6016 52.052 56.3483 75.338 73.0567 96.6835Z" fill="#B27267"/>
<path fill-rule="evenodd" clip-rule="evenodd" d="M70.306 74.3407C75.6472 81.1653 89.4506 79.3154 91.6149 68.5636C93.1657 60.8517 88.8276 52.2179 81.8989 52.1291C73.5794 52.023 61.9537 63.668 70.306 74.3407Z" fill="#A56158"/>
<path fill-rule="evenodd" clip-rule="evenodd" d="M98.561 52.2663C95.2086 46.4757 103.449 39.5045 102.041 46.5779C101.937 47.1045 101.535 51.242 98.561 52.2663Z" fill="#B2D6C8"/>
<path fill-rule="evenodd" clip-rule="evenodd" d="M100.449 53.4813C101.634 46.896 112.428 46.8998 106.78 51.3865C106.356 51.726 103.379 54.6232 100.449 53.4813Z" fill="#B2D6C8"/>
<path fill-rule="evenodd" clip-rule="evenodd" d="M97.2802 53.7091C95.1448 47.3687 84.4663 48.9562 90.7102 52.5653C91.1809 52.8353 94.5488 55.2677 97.2802 53.7091Z" fill="#B2D6C8"/>
<path fill-rule="evenodd" clip-rule="evenodd" d="M97.822 55.9889C92.095 52.5303 84.9696 60.6415 92.0681 59.3626C92.6024 59.2661 96.7438 58.944 97.822 55.9889Z" fill="#B2D6C8"/>
<path fill-rule="evenodd" clip-rule="evenodd" d="M98.7056 55.7129C94.2652 60.7204 100.951 69.1961 100.982 61.9838C100.984 61.4418 101.418 57.31 98.7056 55.7129Z" fill="#B2D6C8"/>
<path fill-rule="evenodd" clip-rule="evenodd" d="M100.606 54.5498C100.924 61.2335 111.626 62.63 106.612 57.447C106.236 57.0574 103.661 53.7994 100.606 54.5498Z" fill="#B2D6C8"/>
<path fill-rule="evenodd" clip-rule="evenodd" d="M96.5723 55.4468C97.7219 57.017 101.325 56.6544 101.346 54.2953C101.402 48.5123 94.0165 51.9632 96.5723 55.4468Z" fill="#FFCA6E"/>
</svg>
