<svg width="285" height="190" viewBox="0 0 285 190" fill="none" xmlns="http://www.w3.org/2000/svg">
<rect width="285" height="190" fill="#8AB8A2"/>
<path d="M206.467 150.28C206.467 150.28 199.628 153.588 182.238 155.867C175.326 156.786 166.686 157.521 156.207 157.815C131.243 158.513 111.573 157.117 100.359 155.61C94.9908 154.911 91.5716 154.139 90.4318 153.625C88.8876 152.89 87.7111 147.817 86.8287 141.532C86.0566 135.982 85.5786 129.403 85.3948 124.11C85.358 123.411 85.358 122.713 85.358 122.015C85.358 116.501 86.1301 111.319 87.7111 107.459C89.145 104.004 91.2039 101.615 93.9982 100.88C95.7997 100.402 97.013 100.218 97.8954 100.218C100.101 100.255 100.101 101.615 101.131 102.975C101.976 104.041 104.477 106.945 107.786 108.856C110.286 110.289 113.19 110.988 116.205 110.142C126.978 107.092 129 95.6606 129 95.6606C129 95.6606 132.934 94.8886 139.589 95.2562C146.574 95.6238 156.501 97.241 168.156 102.13C173.745 104.482 178.782 107.312 183.267 110.363C197.091 119.736 205.364 131.02 206.504 136.092C206.614 136.607 206.724 137.121 206.798 137.636C207.717 143.848 206.467 150.28 206.467 150.28Z" fill="#D6C996"/>
<path opacity="0.5" d="M139.552 95.2198C139.478 105.365 134.662 120.949 116.426 122.015C99.8809 122.971 91.057 112.716 87.6744 107.46C89.1083 104.005 91.1673 101.615 93.9615 100.88C100.249 99.1895 99.6236 101.101 101.094 102.975C101.94 104.041 104.44 106.945 107.749 108.856C110.249 110.29 113.154 111.025 116.168 110.143C126.242 107.166 128.963 95.661 128.963 95.661C128.963 95.661 132.897 94.8523 139.552 95.2198Z" fill="#CEC397"/>
<path d="M87.3801 114.994C87.3801 114.994 81.718 105.842 78.5561 108.746C75.4309 111.65 86.4977 118.964 86.4977 118.964L87.3801 114.994Z" fill="#EDDFA5"/>
<path d="M107.749 108.82C103.227 111.429 93.5202 117.053 85.358 122.015C85.358 111.576 88.0787 102.424 93.9982 100.844C100.285 99.1528 99.6602 101.064 101.131 102.939C101.94 104.005 104.44 106.908 107.749 108.82Z" fill="#D17700"/>
<path d="M206.467 150.28C206.467 150.28 199.591 153.588 182.238 155.867C173.267 130.799 179.958 115.509 183.267 110.326C197.091 119.699 205.401 130.983 206.503 136.018C206.614 136.533 206.724 137.048 206.798 137.562C207.717 143.848 206.467 150.28 206.467 150.28Z" fill="#E5D098"/>
<path d="M206.467 150.28C206.467 150.28 193.047 156.749 156.17 157.815C119.293 158.844 93.9611 155.316 90.3947 153.625C88.8505 152.89 87.674 147.854 86.7916 141.532C95.395 143.186 117.161 146.641 149.626 146.31C177.09 146.053 196.356 141.165 206.761 137.562C207.717 143.848 206.467 150.28 206.467 150.28Z" fill="#F9EABD"/>
<path d="M184.002 116.538C183.488 119.111 178.818 119.074 173.009 117.861C166.575 116.538 158.744 113.818 153.817 111.76C144.405 107.827 125.323 105.107 123.448 103.526C122.602 102.828 122.419 100.439 122.896 98.0129C123.485 94.9621 125.213 91.7644 128.044 91.7644C136.537 91.8012 152.567 95.5502 168.119 102.056C183.708 108.599 184.885 111.98 184.002 116.538Z" fill="#DDCD9B"/>
<path opacity="0.5" d="M100.359 155.61C94.9908 154.912 91.5716 154.14 90.4318 153.625C88.8876 152.89 87.7111 147.818 86.8287 141.533C86.0566 135.982 85.5786 129.403 85.3948 124.11C85.358 123.412 85.358 122.713 85.358 122.015C85.358 116.502 86.1301 111.319 87.7111 107.46C89.145 104.005 91.2039 101.615 93.9982 100.88C95.7997 100.403 97.013 100.219 97.8954 100.219C94.1084 111.981 94.329 138.445 100.359 155.61Z" fill="#DDCCA1"/>
<path d="M173.009 117.861C166.575 116.538 158.744 113.818 153.817 111.759C144.405 107.827 125.323 105.107 123.448 103.526C122.602 102.828 122.419 100.439 122.896 98.0127C127.014 102.019 131.279 101.468 142.272 105.217C154.847 109.481 170.362 115.178 173.009 117.861Z" fill="#EDDFA5"/>
<path d="M158.597 97.1676C158.082 101.064 155.177 110.179 152.162 114.663C151.684 115.399 151.207 115.987 150.729 116.428C149.037 118.008 140.985 115.803 140.691 112.973C140.618 112.421 140.765 111.429 141.022 110.143C142.088 104.96 145.324 95.4032 146.243 93.3816C146.611 92.573 158.891 95.0358 158.597 97.1676Z" fill="#EAD9AD"/>
<path opacity="0.8" d="M152.162 114.664C151.684 115.399 151.207 115.987 150.729 116.428C149.037 118.009 140.985 115.803 140.691 112.973C140.618 112.422 140.765 111.429 141.022 110.143C143.265 111.76 147.677 113.965 152.162 114.664Z" fill="#DDCCA1"/>
<path d="M182.091 106.871C182.091 106.871 178.966 115.986 175.657 120.544C174.774 121.757 173.892 122.676 173.046 122.97C169.112 124.514 162.752 120.581 164.112 116.501C164.149 116.391 164.186 116.28 164.259 116.17C166.134 111.98 171.429 100.181 171.429 100.181C174.37 100.181 179.958 103.305 182.091 106.871Z" fill="#EAD9AD"/>
<path opacity="0.8" d="M175.657 120.543C174.774 121.756 173.892 122.675 173.046 122.969C169.112 124.513 162.752 120.58 164.112 116.5C166.686 118.265 171.282 120.139 175.657 120.543Z" fill="#DDCCA1"/>
<path d="M201.025 69.6371C198.121 72.6878 193.929 75.3711 188.819 77.5764C172.016 84.9644 145.434 87.7579 124.367 84.4866C118.448 83.5677 112.933 82.2076 108.227 80.2963C102.638 78.0542 98.41 75.7019 95.248 73.3495C83.4092 64.6016 86.4241 55.7801 87.0491 51.3693C87.9315 45.2311 90.9096 40.8203 95.1377 37.6961C104.219 30.933 118.154 30.492 129.845 31.3374C137.015 31.8519 143.339 32.8443 147.199 33.1384C159.516 34.1308 174.884 31.1536 184.848 31.0066C187.348 30.9698 189.517 31.08 191.209 31.5211C206.283 35.307 216.099 53.7217 201.025 69.6371Z" fill="#D6C996"/>
<path d="M86.9022 52.2886H78.4459V57.5447H86.2404L86.9022 52.2886Z" fill="#EDDFA5"/>
<path d="M201.025 69.6368C198.121 72.6875 193.929 75.3707 188.819 77.5761C182.422 57.9116 183.929 38.3574 184.848 31.0429C187.348 31.0062 189.518 31.1165 191.209 31.5576C206.283 35.3067 216.1 53.7214 201.025 69.6368Z" fill="#E5D098"/>
<path opacity="0.5" d="M143.89 74.747C143.449 75.3351 142.897 75.9231 142.309 76.5112C138.375 80.1868 131.426 82.9436 124.367 84.5241C118.448 83.6052 112.933 82.2452 108.227 80.3339C102.638 78.0918 98.41 75.7394 95.248 73.3871C83.4092 64.6391 86.4241 55.8176 87.0491 51.4069C87.9315 45.2686 90.9096 40.8579 95.1377 37.7337C104.219 30.9705 118.154 30.5294 129.845 31.3748C134.772 33.2126 138.816 35.4915 141.096 37.4763C142.015 38.285 142.64 39.0569 142.934 39.7185C142.897 39.7185 96.2775 31.5586 96.2775 57.5451C96.3143 74.8204 132.713 74.6 142.199 74.2692C142.75 74.4897 143.339 74.6367 143.89 74.747Z" fill="#CEC397"/>
<path d="M101.094 66.2924C101.094 66.2924 98.2629 70.2253 95.248 73.3864C83.4092 64.6384 86.4241 55.8169 87.0491 51.4062C87.9315 45.2679 90.9096 40.8572 95.1377 37.7329L101.609 45.2679C101.572 45.2679 90.1743 57.2871 101.094 66.2924Z" fill="#D17700"/>
<path d="M142.897 74.2313C134.699 74.5622 96.2776 75.2605 96.2776 57.5441C96.2776 49.1637 101.094 44.3487 107.675 41.6287C113.631 39.1661 120.985 38.4678 127.419 38.4678C135.397 38.4678 142.015 39.5336 142.824 39.6807C132.235 38.5045 137.419 44.8633 139.515 50.3032C141.647 55.7431 139.589 61.8078 138.044 67.6888C137.971 67.9828 137.897 68.2768 137.861 68.5709C137.493 71.5849 139.294 73.5697 142.897 74.2313Z" fill="#926D3C"/>
<path d="M186.576 65.2267C186.576 65.2267 165.987 70.5931 154.295 73.3866C149.516 74.526 145.655 74.7465 142.898 74.2319C142.824 74.2319 142.751 74.1952 142.714 74.1952C138.89 73.4233 137.199 71.1076 138.081 67.6893C139.626 61.8083 141.648 55.7436 139.552 50.3037C137.456 44.8638 132.235 38.4682 142.934 39.6812H143.008C144.846 39.865 170.473 42.3644 184.481 42.5849C184.481 42.6217 186.576 62.9478 186.576 65.2267Z" fill="#DDCD9B"/>
<path d="M142.714 74.1952C138.89 73.4234 137.199 71.1076 138.081 67.6893C139.625 61.8083 141.648 55.7437 139.552 50.3038C137.456 44.8638 132.235 38.4682 142.934 39.6812H143.008C141.023 40.3795 139.148 43.2098 141.868 49.0173C145.03 55.7436 145.177 62.8008 142.199 67.6893C140.324 70.7768 141.059 72.9088 142.714 74.1952Z" fill="#EDDFA5"/>
<path d="M165.288 71.6219C165.288 71.6219 159.553 72.7613 154.994 72.7245C153.927 72.7245 152.935 72.6511 152.089 72.4673C152.089 72.4673 149.589 41.9966 150.508 40.3058C150.655 40.0485 151.28 39.9015 152.199 39.828C155.398 39.6074 162.016 40.3793 163.082 40.6366C164.847 41.0409 166.538 67.836 165.288 71.6219Z" fill="#EAD9AD"/>
<path opacity="0.8" d="M155.033 72.7274C153.967 72.7274 152.974 72.654 152.128 72.4702C152.128 72.4702 149.628 41.9994 150.547 40.3087C150.695 40.0514 151.32 39.9043 152.239 39.8308C152.459 45.9691 153.452 63.2076 155.033 72.7274Z" fill="#DDCCA1"/>
<path d="M185.106 67.7631C185.106 67.7631 179.48 68.5349 175.84 68.7555C174.223 68.8657 173.009 68.8289 172.899 68.5716C172.605 67.91 170.656 40.8576 170.656 40.8576C170.656 40.8576 171.723 40.784 173.304 40.7105C176.355 40.6002 181.282 40.5635 183.561 41.4824C183.561 41.4456 185.914 62.3232 185.106 67.7631Z" fill="#EAD9AD"/>
<path opacity="0.8" d="M175.84 68.7586C174.223 68.8689 173.009 68.832 172.899 68.5747C172.605 67.9131 170.656 40.8607 170.656 40.8607C170.656 40.8607 171.723 40.7871 173.304 40.7136C173.929 46.9989 175.473 60.2679 175.84 68.7586Z" fill="#DDCCA1"/>
<path opacity="0.6" d="M143.89 74.7459C143.449 75.334 142.897 75.9221 142.309 76.5102C121.83 77.8334 92.0494 75.9589 93.9245 54.3096C95.7996 32.4398 129.588 36.2991 141.096 37.4753C142.015 38.2839 142.64 39.0559 142.934 39.7175C142.897 39.7175 96.2775 31.5575 96.2775 57.5441C96.3143 74.8194 132.713 74.5989 142.199 74.2681C142.75 74.4886 143.339 74.6357 143.89 74.7459Z" fill="#DDCCA1"/>
<path opacity="0.3" d="M142.897 74.2319C134.699 74.5628 96.2776 75.2611 96.2776 57.5447C96.2776 49.1643 101.094 44.3493 107.675 41.6294C103.631 51.4432 102.969 66.5499 137.897 68.5715C137.493 71.5855 139.294 73.5703 142.897 74.2319Z" fill="#926D3C"/>
<path opacity="0.4" d="M110.212 55.9641C110.212 58.0592 108.521 59.75 106.462 59.75C104.366 59.75 102.675 58.0592 102.675 55.9641C102.675 53.869 104.366 52.1782 106.462 52.1782C108.521 52.215 110.212 53.9058 110.212 55.9641Z" fill="#D17700"/>
</svg>
