<svg width="285" height="190" viewBox="0 0 285 190" fill="none" xmlns="http://www.w3.org/2000/svg">
<rect width="285" height="190" fill="#FFD1D1"/>
<path d="M166.032 146.801C166.032 146.801 164.955 152.079 159.05 155.378C156.167 157.01 152.103 158.156 146.476 157.983C142.03 157.844 136.646 156.177 131.054 153.295C127.789 151.593 124.385 149.475 121.05 147.009C115.18 142.704 109.414 137.286 104.447 131.14C101.147 127.077 98.1943 122.667 95.7976 118.049C93.8177 114.229 92.2199 110.27 91.1084 106.242C89.858 101.728 88.8506 96.8665 87.9823 91.9008C87.3223 88.081 86.7665 84.1918 86.2803 80.3373C85.655 75.1286 85.1687 70.0239 84.8214 65.2319C84.4046 59.6411 84.1962 54.5019 84.092 50.2307C83.8835 42.7301 84.0572 37.8338 84.3351 37.7643C85.0298 37.5907 102.189 37.8338 117.854 33.9098C120.077 33.3542 122.231 32.7292 124.35 32L126.955 41.4452L131.019 56.1686L132.304 60.8565C132.304 60.8565 133.485 63.9471 135.43 68.9822C136.75 72.42 138.383 76.7259 140.258 81.5527C142.516 87.4212 145.087 94.019 147.726 100.721C149.185 104.402 150.609 108.117 152.068 111.729C153.874 116.243 155.611 120.653 157.244 124.751C158.981 129.091 160.613 133.085 162.002 136.418C163.774 140.655 165.198 143.919 166.066 145.69C171.867 157.531 166.032 146.801 166.032 146.801Z" fill="#BFCACC"/>
<path d="M130.949 56.2034C116.361 60.4051 95.2071 63.7388 84.8214 65.2667C84.4045 59.6759 84.1961 54.5366 84.0919 50.2654C98.3333 47.2791 118.584 43.1815 126.92 41.48L130.949 56.2034Z" fill="#032B35"/>
<path d="M140.189 81.5522C127.719 84.608 104.377 89.9556 87.9474 91.8655C87.2874 88.0458 86.7317 84.1565 86.2454 80.3021C97.951 77.8713 121.779 72.8362 135.326 68.9817C136.646 72.4195 138.313 76.7254 140.189 81.5522Z" fill="#052730"/>
<path d="M151.999 111.763C142.898 114.958 118.792 123.709 104.446 131.14C101.147 127.077 98.1941 122.667 95.7974 118.049C106.009 113.083 131.679 101.415 147.691 100.721C149.116 104.436 150.54 108.117 151.999 111.763Z" fill="#002F3A"/>
<path d="M161.933 136.453C153.076 140.724 139.772 147.495 131.019 153.294C127.754 151.593 124.35 149.474 121.015 147.009C127.788 142.078 143.072 131.348 157.174 124.785C158.911 129.126 160.544 133.119 161.933 136.453Z" fill="#03323D"/>
<path d="M86.9402 85.3718C86.9402 85.3718 102.085 89.1569 105.489 102.943C108.893 116.763 98.3333 122.528 98.3333 122.528C98.3333 122.528 90.8652 117.458 86.9402 85.3718Z" fill="#E8EAEA"/>
<path opacity="0.4" d="M166.032 146.801C166.032 146.801 164.955 152.079 159.05 155.378C134.944 137.217 124.801 99.679 122.196 80.4412C119.799 62.662 118.063 43.841 117.785 33.9443C120.008 33.3887 122.161 32.7637 124.28 32.0344L126.885 41.4797L130.949 56.2031L132.235 60.891C132.235 60.891 133.416 63.9815 135.361 69.0166C136.681 72.4544 138.313 76.7604 140.189 81.5872C142.447 87.4557 145.017 94.0535 147.657 100.755C149.116 104.436 150.54 108.152 151.999 111.763C153.805 116.278 155.542 120.688 157.174 124.785C158.911 129.126 160.544 133.119 161.933 136.453C163.704 140.689 165.129 143.953 165.997 145.724C171.867 157.531 166.032 146.801 166.032 146.801Z" fill="#BFCACC"/>
<path d="M190.207 154.615C189.234 155.031 188.157 155.378 187.011 155.691C181.732 157.184 176.174 155.795 170.721 152.739C167.039 150.656 163.391 147.774 159.953 144.475C153.249 138.12 147.205 130.168 142.759 123.292C142.585 123.049 142.446 122.772 142.273 122.528C141.856 121.869 141.439 121.209 141.057 120.549C140.536 119.716 140.084 118.882 139.598 118.049C139.39 117.702 139.181 117.32 139.008 116.972C138.73 116.452 138.417 115.896 138.139 115.306C137.757 114.576 137.375 113.778 137.028 113.049C136.646 112.215 136.263 111.382 135.916 110.514C132.165 101.52 130.463 92.3524 130.428 82.7682C130.428 80.1986 130.532 77.5942 130.741 74.9551C130.845 73.5661 130.984 72.177 131.157 70.7533C131.574 67.3155 131.956 63.9819 132.269 60.8567C132.894 55.1965 133.415 50.196 133.763 46.3416C134.249 41.3759 134.527 38.3201 134.527 38.3201H173.673C174.229 40.4036 174.646 42.6954 175.028 45.1609C175.549 48.8071 175.861 52.731 176.035 56.6202C176.313 61.6554 176.313 66.621 176.243 70.9269C176.139 78.115 175.757 83.2891 175.757 83.2891C175.757 83.2891 176.382 84.5045 177.459 86.5185C179.126 89.748 181.94 95.0262 185.031 100.86C188.157 106.694 191.631 113.083 194.618 118.431C195.417 119.855 196.216 121.209 196.911 122.494C198.96 126.07 200.419 129.751 201.148 133.293C202.955 142.287 200.002 150.552 190.207 154.615Z" fill="#BFCACC"/>
<path d="M176.278 70.9268C169.713 72.6978 150.539 77.2121 130.706 74.9549C130.81 73.5659 130.949 72.1769 131.123 70.7532C131.539 67.3154 131.921 63.9818 132.234 60.8566C133.137 60.8566 159.258 60.3357 176.07 56.6201C176.313 61.6553 176.347 66.6556 176.278 70.9268Z" fill="#104149"/>
<path d="M185.066 100.895C176.834 106.312 158.911 117.494 142.724 123.258C142.099 122.355 141.543 121.418 140.987 120.515C138.973 117.181 137.271 113.882 135.847 110.514C143.106 107.007 163.53 96.8322 177.459 86.5188C179.161 89.783 181.975 95.0612 185.066 100.895Z" fill="#082F35"/>
<path d="M201.183 133.293C194.583 138.398 183.364 146.384 170.72 152.704C167.038 150.621 163.391 147.739 159.953 144.44C167.837 139.127 184.788 127.459 194.653 118.431C195.452 119.854 196.251 121.209 196.945 122.494C198.995 126.07 200.453 129.751 201.183 133.293Z" fill="#0D434C"/>
<path d="M146.371 118.188C144.913 120.306 143.384 121.834 142.273 122.494C142.273 122.494 141.161 120.827 139.598 118.049C139.39 117.702 139.181 117.32 139.008 116.972C138.73 116.452 138.417 115.896 138.139 115.306C137.757 114.576 137.375 113.778 137.028 113.049C133.381 105.409 129.421 94.0886 130.428 82.803C130.428 82.803 133.728 83.2197 137.688 85.2337C141.543 87.2478 146.059 90.7898 148.664 97.075C152.207 105.756 149.532 113.5 146.371 118.188Z" fill="#E8EAEA"/>
<path opacity="0.4" d="M175.028 45.1954C158.737 47.3483 140.57 46.7233 133.728 46.376C134.214 41.4104 134.492 38.3545 134.492 38.3545H173.673C174.229 40.438 174.68 42.7646 175.028 45.1954Z" fill="#BFCACC"/>
<path opacity="0.4" d="M190.207 154.614C189.234 155.03 188.158 155.378 187.011 155.69C181.732 157.183 176.174 155.794 170.721 152.738C167.039 150.655 163.392 147.773 159.953 144.474C153.249 138.119 147.205 130.167 142.759 123.292C142.585 123.048 142.446 122.771 142.273 122.528C142.273 122.528 141.161 120.861 139.598 118.083C139.39 117.736 139.181 117.354 139.008 117.006C138.73 116.485 138.417 115.93 138.139 115.34C137.757 114.61 137.375 113.812 137.028 113.082C133.381 105.443 129.421 94.1225 130.428 82.8368C130.428 80.2672 130.532 77.6628 130.741 75.0237C130.845 73.6347 130.984 72.2456 131.158 70.8219C131.574 67.3841 131.956 64.0505 132.269 60.9252C132.894 55.265 133.415 50.2647 133.763 46.4102C134.249 41.4445 134.527 38.3887 134.527 38.3887H141.856C140.05 47.7297 137.063 67.6966 137.653 85.2328C137.896 92.1084 138.66 98.602 140.293 103.95C141.648 108.394 143.697 113.291 146.406 118.222C155.507 135.063 171.763 152.495 190.207 154.614Z" fill="#BFCACC"/>
</svg>
