<svg width="285" height="190" viewBox="0 0 285 190" fill="none" xmlns="http://www.w3.org/2000/svg">
<rect width="285" height="190" fill="#FFEFBF"/>
<path fill-rule="evenodd" clip-rule="evenodd" d="M162.833 127.602C162.019 131.603 160.164 152.49 161.268 153.585C168.585 155.183 165.483 155.185 161.659 154.906C161.023 154.858 167.806 157.545 166.229 158.528C165.66 158.883 161.103 155.265 160.9 155.04C160.614 154.726 163.186 159.35 162.344 159.549C161.075 158.235 159.161 154.144 159.092 153.808C158.819 152.507 156.739 126.444 157.689 126.191C157.726 126.182 157.408 130.07 158.144 129.977C158.464 129.936 159.328 125.548 159.674 125.76C160.096 126.022 158.988 130.016 159.458 130.092C159.893 130.161 160.38 126.99 160.724 127.143C161.307 127.405 160.542 129.834 161.023 129.927C161.843 130.09 162.93 127.13 162.833 127.602Z" fill="#522626"/>
<path fill-rule="evenodd" clip-rule="evenodd" d="M75.3696 148.948C90.4978 157.343 164.641 135.385 179.78 118.451C187.84 109.437 191.468 94.867 192.219 87.9827C194.618 65.9766 173.116 49.6815 171.112 48.8589C169.804 42.3058 161.826 32.9817 153.201 32.1049C147.008 31.4749 140.792 34.4235 136.164 38.5865C129.6 44.4902 126.223 54.1261 123.893 64.7535C120.15 81.8257 128.966 117.471 124.027 125.665C115.268 140.195 95.9749 132.155 76.9175 138.94C72.8626 140.384 73.0207 143.906 77.4782 144.133C84.9557 144.514 100.831 141.04 102.147 142.499C102.783 143.2 75.1228 147.365 75.3696 148.948Z" fill="#E3781F"/>
<path fill-rule="evenodd" clip-rule="evenodd" d="M154.598 44.343C150.948 43.3363 148.995 46.5469 149.123 49.411C149.218 51.6019 150.727 53.494 152.45 53.717C152.569 53.5092 149.855 50.5519 150.472 48.1424C150.939 46.3088 152.132 45.0141 154.598 44.343Z" fill="#400000"/>
<path fill-rule="evenodd" clip-rule="evenodd" d="M154.206 43.9318C152.84 41.9271 150.575 42.7021 149.43 44.1374C148.569 45.2156 148.584 45.51 148.774 45.4104C149.131 45.2242 150.199 44.3712 150.614 44.0768C151.602 43.3754 152.723 43.2369 154.206 43.9318Z" fill="#400000"/>
<path fill-rule="evenodd" clip-rule="evenodd" d="M141.526 49.7832C141.762 50.647 143.401 51.9157 144.475 51.697C145.157 51.5563 144.018 50.8094 143.36 49.8179C142.927 49.1641 143.052 48.1336 142.598 47.9929C142.206 47.8716 141.169 48.4756 141.526 49.7832Z" fill="#4A1600"/>
<path fill-rule="evenodd" clip-rule="evenodd" d="M157.739 37.9393C157.713 39.9029 161.757 40.6844 163.682 39.7665C163.838 39.6929 166.576 33.6139 170.04 30.0895C164.076 30.5549 161.92 35.0492 161.82 34.863C160.703 32.7328 161.132 28.6173 158.01 26C158.014 26.1754 157.746 37.4674 157.739 37.9393Z" fill="#FEC66C"/>
<path fill-rule="evenodd" clip-rule="evenodd" d="M113.281 152.854C123.359 155.25 129.113 109.034 126.112 135.13C123.958 153.862 133.512 117.791 137.086 114.827C138.385 113.749 137.268 120.218 134.597 132.14C138.649 128.154 143.845 117.066 147.346 106.432C151.05 95.1833 158.263 65.1867 136.634 71.5428C128.693 73.8765 123.09 82.0446 119.267 92.4339C117.754 93.9146 117.63 95.5102 117.94 96.3458C117.34 98.2682 116.795 100.247 116.297 102.26C116.05 102.464 115.844 102.674 115.673 102.884C115.797 101.892 116.225 99.2446 116.152 99.3052C113.381 101.578 114.221 104.323 115.015 104.2C114.864 104.964 115.219 105.399 115.686 104.86C115.628 105.12 115.574 105.38 115.517 105.64C115.292 106.12 115.219 106.575 115.242 106.947C114.392 111.099 113.738 115.334 113.253 119.488C111.333 121.333 112.32 123.433 112.904 122.764C111.644 135.831 112.045 147.63 113.281 152.854ZM113.179 108.543C113.236 108.497 112.915 110.48 112.822 111.223C112.5 113.78 110.38 110.84 113.179 108.543ZM113.039 114.31C113.112 114.249 112.686 116.897 112.56 117.889C112.134 121.303 109.302 117.375 113.039 114.31ZM126.238 78.9813C126.311 78.9553 124.958 80.737 124.476 81.4125C122.811 83.7397 122.527 80.3084 126.238 78.9813ZM120.391 86.6212C120.458 86.5865 119.52 88.4916 119.193 89.2104C118.07 91.6848 116.994 88.392 120.391 86.6212ZM116.292 93.5401C116.347 93.4946 116.028 95.4755 115.935 96.2202C115.615 98.777 113.493 95.8349 116.292 93.5401Z" fill="#B07951"/>
<path fill-rule="evenodd" clip-rule="evenodd" d="M180.871 111.454C185.014 109.157 184.506 104.33 182.741 107.811C182.228 108.824 180.788 111.498 180.871 111.454ZM186.168 69.9016C186.712 65.3943 182.031 65.2449 184.062 67.5072C184.653 68.1654 186.157 69.9904 186.168 69.9016ZM179.037 59.4214C178.465 56.4837 174.634 57.5596 176.79 58.458C177.416 58.72 179.048 59.4799 179.037 59.4214ZM183.436 63.6971C183.843 60.322 180.338 60.2094 181.858 61.9045C182.299 62.3981 183.427 63.7642 183.436 63.6971ZM180.455 64.366C180.444 64.4548 178.937 62.6298 178.349 61.9717C176.318 59.7115 180.998 59.8587 180.455 64.366ZM191.295 93.0789C192.336 90.9508 190.786 89.8857 191.039 91.4401C191.113 91.8925 191.273 93.12 191.295 93.0789ZM189.74 91.702C190.782 89.5739 189.231 88.5088 189.485 90.0654C189.558 90.5157 189.719 91.7431 189.74 91.702ZM192.968 88.7231C194.009 86.595 192.459 85.5299 192.713 87.0865C192.786 87.5389 192.946 88.7664 192.968 88.7231ZM190.972 85.9672C192.013 83.8391 190.463 82.774 190.717 84.3306C190.79 84.783 190.953 86.0084 190.972 85.9672ZM193.929 85.1532C195.64 81.6591 193.096 79.9121 193.511 82.4645C193.633 83.207 193.895 85.2225 193.929 85.1532ZM191.461 81.7912C192.648 78.2732 189.638 77.1908 190.537 79.4293C190.799 80.0809 191.437 81.8605 191.461 81.7912ZM192.834 76.4829C194.02 72.9649 191.011 71.8825 191.909 74.121C192.171 74.7726 192.812 76.5522 192.834 76.4829ZM189.192 76.8487C189.599 73.4737 186.095 73.3611 187.614 75.0562C188.056 75.5476 189.184 76.9137 189.192 76.8487ZM190.998 69.5119C191.405 66.1369 187.9 66.0243 189.42 67.7194C189.861 68.213 190.989 69.579 190.998 69.5119ZM175.002 62.5107C174.993 62.5778 173.865 61.2118 173.423 60.7182C171.904 59.0252 175.409 59.1356 175.002 62.5107ZM187.155 66.1196C187.145 66.2083 185.638 64.3833 185.049 63.7252C183.018 61.4629 187.699 61.6123 187.155 66.1196ZM189.612 72.8913C189.602 72.9801 188.095 71.1551 187.506 70.497C185.475 68.2347 190.156 68.384 189.612 72.8913ZM189.351 97.623C189.301 97.6706 189.76 95.5404 189.911 94.7415C190.426 91.9943 191.925 95.1875 189.351 97.623ZM186.097 104.771C189.199 103.05 188.818 99.4371 187.497 102.044C187.112 102.804 186.034 104.806 186.097 104.771ZM185.081 102.18C184.999 102.226 186.441 99.5497 186.952 98.5366C188.714 95.0554 189.225 99.8831 185.081 102.18ZM160.651 131.272C162.716 130.982 163.463 128.741 162.095 129.979C161.696 130.341 160.61 131.278 160.651 131.272ZM161.679 128.83C161.638 128.836 162.725 127.899 163.123 127.537C164.493 126.301 163.744 128.54 161.679 128.83ZM164.814 130.215C166.879 129.923 167.626 127.685 166.258 128.923C165.857 129.284 164.77 130.22 164.814 130.215ZM167.026 126.457C169.092 126.167 169.838 123.926 168.47 125.165C168.072 125.524 166.985 126.461 167.026 126.457ZM168.169 128.932C168.102 128.94 169.886 127.403 170.538 126.812C172.787 124.779 171.56 128.455 168.169 128.932ZM170.865 124.314C174.205 123.294 174.768 119.564 172.869 121.889C172.317 122.565 170.8 124.333 170.865 124.314ZM175.848 122.35C179.189 121.331 179.751 117.601 177.853 119.926C177.299 120.599 175.781 122.37 175.848 122.35ZM175.015 118.897C174.954 118.932 176.032 116.927 176.415 116.17C177.736 113.561 178.119 117.176 175.015 118.897ZM181.888 116.092C181.828 116.126 182.906 114.122 183.289 113.364C184.609 110.755 184.99 114.371 181.888 116.092ZM186.006 95.4949C189.11 93.7738 188.727 90.1606 187.406 92.7671C187.023 93.5248 185.943 95.5274 186.006 95.4949ZM184.421 110.065C184.339 110.11 185.778 107.434 186.292 106.423C188.056 102.94 188.565 107.765 184.421 110.065ZM178.645 116.823C178.563 116.869 180.003 114.193 180.516 113.182C182.28 109.699 182.791 114.526 178.645 116.823Z" fill="#B07951"/>
<path fill-rule="evenodd" clip-rule="evenodd" d="M147.707 129.393C146.893 133.798 145.038 156.802 146.142 158.008C153.459 159.768 150.357 159.77 146.534 159.463C145.897 159.411 152.68 162.368 151.104 163.45C150.534 163.842 145.977 159.857 145.774 159.61C145.488 159.264 148.062 164.355 147.218 164.576C145.947 163.13 144.035 158.623 143.966 158.253C143.693 156.819 141.613 128.115 142.563 127.838C142.6 127.827 142.282 132.112 143.018 132.008C143.338 131.962 144.202 127.128 144.549 127.364C144.971 127.652 143.862 132.053 144.332 132.136C144.767 132.213 145.254 128.717 145.598 128.888C146.181 129.176 145.417 131.852 145.897 131.954C146.718 132.133 147.805 128.873 147.707 129.393Z" fill="#522626"/>
<path fill-rule="evenodd" clip-rule="evenodd" d="M128.836 51.2102C124.696 53.3794 126.935 57.1051 127.848 54.2258C128.115 53.3902 128.918 51.169 128.836 51.2102ZM123.454 62.7836C121.224 64.9182 124.084 67.2822 123.765 65.087C123.672 64.4484 123.499 62.7425 123.454 62.7836ZM124.896 56.9038C124.956 56.8713 124.356 58.5361 124.157 59.1618C123.473 61.318 121.795 58.5274 124.896 56.9038ZM126.978 58.8392C127.06 58.7959 126.257 61.017 125.991 61.8549C125.077 64.7341 122.839 61.0062 126.978 58.8392ZM146.12 33.9019C143.767 34.3154 143.639 36.1339 144.845 35.0407C145.193 34.7246 146.166 33.8933 146.12 33.9019ZM145.724 35.9023C145.769 35.8936 144.799 36.7249 144.449 37.041C143.243 38.1343 143.373 36.3158 145.724 35.9023ZM141.537 35.1013C139.184 35.5148 139.056 37.3311 140.262 36.24C140.613 35.9239 141.585 35.0948 141.537 35.1013ZM140.184 38.2382C137.831 38.6517 137.703 40.468 138.909 39.3769C139.26 39.0608 140.229 38.2317 140.184 38.2382ZM137.989 36.4067C138.065 36.3937 136.471 37.7554 135.895 38.2772C133.917 40.0675 134.129 37.0843 137.989 36.4067ZM136.354 40.258C132.737 41.3556 133.33 44.3215 134.798 42.3341C135.222 41.7583 136.426 40.2364 136.354 40.258ZM131.107 42.241C127.489 43.3386 128.082 46.3045 129.55 44.3172C129.977 43.7413 131.178 42.2194 131.107 42.241ZM133.263 44.867C133.323 44.8346 132.724 46.4994 132.525 47.125C131.84 49.2812 130.163 46.4907 133.263 44.867ZM126.058 47.6771C126.119 47.6446 125.517 49.3072 125.32 49.935C124.636 52.0913 122.958 49.3007 126.058 47.6771ZM128.145 64.1475C125.045 65.7711 126.723 68.5617 127.405 66.4054C127.606 65.7798 128.206 64.115 128.145 64.1475ZM125.093 52.6173C125.175 52.574 124.372 54.7952 124.105 55.633C123.192 58.5123 120.953 54.7844 125.093 52.6173ZM129.656 46.8133C129.738 46.77 128.935 48.9912 128.669 49.829C127.755 52.7083 125.517 48.9825 129.656 46.8133Z" fill="#FEC66C"/>
<path fill-rule="evenodd" clip-rule="evenodd" d="M78.9394 141.951C84.2628 141.951 97.8128 139.134 108.557 138.275C104.827 140.702 73.1332 144.754 78.9394 141.951Z" fill="#814C33"/>
<path fill-rule="evenodd" clip-rule="evenodd" d="M81.5742 148.816C86.8587 148.169 99.9649 143.728 110.527 141.57C107.12 144.432 76.1533 152.301 81.5742 148.816Z" fill="#814C33"/>
<path fill-rule="evenodd" clip-rule="evenodd" d="M83.8493 137.913C87.7612 138.383 98.0899 136.788 106.1 136.885C103.041 138.961 79.2164 140.178 83.8493 137.913Z" fill="#814C33"/>
<path fill-rule="evenodd" clip-rule="evenodd" d="M86.0617 149.335C89.9975 149.117 99.8888 145.748 107.793 144.447C105.141 147.025 81.8922 152.375 86.0617 149.335Z" fill="#814C33"/>
<path fill-rule="evenodd" clip-rule="evenodd" d="M130.182 121.015C132.782 116.566 136.991 104.133 141.502 94.5338C141.061 93.3929 144.893 87.9634 145.365 87.6733C144.899 90.4292 144.295 93.6873 141.883 94.4753C140.903 100.992 129.699 127.107 130.182 121.015ZM131.122 77.2061C130.925 76.7558 133.46 74.3268 133.735 74.1947C133.228 75.4482 132.59 76.9419 131.122 77.2061ZM148.209 87.0822C147.858 86.7402 149.285 83.5319 149.491 83.3067C149.495 84.6598 149.469 86.2834 148.209 87.0822ZM141.251 84.3653C140.898 84.0233 142.327 80.8149 142.533 80.5898C142.537 81.9428 142.511 83.5665 141.251 84.3653ZM125.259 86.1016C125.025 85.6707 127.346 83.0339 127.61 82.8802C127.21 84.1726 126.701 85.714 125.259 86.1016ZM136.27 82.2524C135.941 81.6441 139.214 77.9226 139.586 77.7083C139.021 79.5333 138.303 81.7068 136.27 82.2524ZM138.956 82.4213C140.989 81.8757 141.708 79.7 142.273 77.8772C141.903 78.0937 138.627 81.8129 138.956 82.4213ZM120.715 97.2594C120.386 96.651 123.659 92.9296 124.032 92.7153C123.467 94.5381 122.748 96.7116 120.715 97.2594ZM123.402 97.4261C125.435 96.8805 126.153 94.7048 126.718 92.882C126.346 93.0985 123.073 96.8177 123.402 97.4261ZM118.163 105.17C117.834 104.562 121.107 100.84 121.479 100.626C120.917 102.449 120.198 104.624 118.163 105.17ZM120.852 105.337C122.884 104.791 123.603 102.615 124.168 100.792C123.796 101.009 120.522 104.728 120.852 105.337ZM122.254 109.368C121.839 108.601 125.967 103.91 126.435 103.639C125.725 105.938 124.818 108.679 122.254 109.368ZM125.642 109.58C128.206 108.891 129.111 106.151 129.823 103.851C129.355 104.122 125.229 108.813 125.642 109.58ZM127.199 91.1068C129.199 90.6889 129.673 88.1539 130.031 86.0258C129.68 86.2401 126.794 90.3339 127.199 91.1068ZM130.104 91.7736C132.105 91.3557 132.579 88.8206 132.936 86.6926C132.585 86.9069 129.697 91.0029 130.104 91.7736ZM132.854 92.2931C134.854 91.8753 135.328 89.3402 135.685 87.2121C135.335 87.4265 132.447 91.5224 132.854 92.2931ZM135.971 92.0788C137.971 91.661 138.446 89.1259 138.803 86.9978C138.452 87.2121 135.564 91.3059 135.971 92.0788ZM138.218 93.8735C140.935 93.3063 141.578 89.8641 142.065 86.974C141.585 87.2663 137.666 92.8257 138.218 93.8735ZM125.164 100.643C124.748 99.8767 128.877 95.1854 129.344 94.9148C128.634 97.2139 127.727 99.9546 125.164 100.643ZM128.552 100.855C131.115 100.167 132.02 97.4261 132.732 95.127C132.265 95.3997 128.136 100.089 128.552 100.855ZM132.494 100.247C135.058 99.5585 135.962 96.8155 136.675 94.5186C136.205 94.7892 132.079 99.4784 132.494 100.247ZM118.851 142.598C120.648 139.091 122.731 128.849 125.595 121.37C126.485 124.961 119.373 147.731 118.851 142.598ZM112.911 133.383C114.132 129.635 114.569 119.194 116.217 111.357C117.663 114.76 114.236 138.368 112.911 133.383ZM116.139 146.21C116.414 152.65 125.242 121.943 124.491 117.557C121.025 127.765 118.247 141.321 116.139 146.21ZM115.92 138.985C117.544 145.224 119.717 113.347 118.057 109.216C116.816 119.924 116.953 133.761 115.92 138.985ZM140.152 118.59C140.671 123.723 147.785 100.95 146.895 97.3611C144.031 104.843 141.948 115.083 140.152 118.59ZM129.173 114.736C128.792 119.88 139.762 98.6968 139.511 95.0079C135.387 101.873 131.555 111.595 129.173 114.736ZM137.439 122.201C137.714 128.641 146.542 97.9348 145.791 93.5487C142.325 103.756 139.547 117.313 137.439 122.201Z" fill="#D3A263"/>
<path fill-rule="evenodd" clip-rule="evenodd" d="M175.742 109.363C179.262 107.413 178.829 103.315 177.331 106.27C176.896 107.129 175.673 109.402 175.742 109.363ZM180.243 74.0778C180.704 70.2503 176.729 70.1225 178.453 72.045C178.955 72.6035 180.232 74.1536 180.243 74.0778ZM174.186 65.1779C173.699 62.6818 170.447 63.5954 172.276 64.3596C172.809 64.5826 174.197 65.2277 174.186 65.1779ZM177.922 68.8106C178.267 65.9443 175.292 65.849 176.582 67.2887C176.957 67.7065 177.916 68.8669 177.922 68.8106ZM175.389 69.3778C175.381 69.4536 174.101 67.9035 173.601 67.345C171.876 65.4247 175.851 65.5503 175.389 69.3778ZM184.595 93.7609C185.48 91.9532 184.164 91.0483 184.378 92.371C184.441 92.7542 184.577 93.7955 184.595 93.7609ZM183.274 92.5897C184.159 90.782 182.843 89.8771 183.057 91.1998C183.12 91.583 183.257 92.6265 183.274 92.5897ZM186.017 90.0611C186.9 88.2534 185.586 87.3507 185.8 88.6712C185.861 89.0566 185.997 90.0979 186.017 90.0611ZM184.322 87.7208C185.207 85.9132 183.891 85.0083 184.105 86.331C184.168 86.7142 184.304 87.7577 184.322 87.7208ZM186.831 87.0303C188.283 84.0622 186.123 82.5793 186.476 84.7485C186.58 85.3785 186.803 87.0887 186.831 87.0303ZM184.737 84.1748C185.746 81.1872 183.19 80.2672 183.952 82.1701C184.175 82.7222 184.718 84.2332 184.737 84.1748ZM185.902 79.6653C186.911 76.6778 184.354 75.7577 185.116 77.6606C185.339 78.2149 185.883 79.7259 185.902 79.6653ZM182.808 79.9771C183.153 77.1108 180.178 77.0155 181.468 78.4552C181.845 78.873 182.802 80.0334 182.808 79.9771ZM184.343 73.7465C184.688 70.8802 181.713 70.785 183.003 72.2246C183.38 72.6446 184.337 73.805 184.343 73.7465ZM170.759 67.8018C170.752 67.8581 169.793 66.6977 169.419 66.2799C168.128 64.8424 171.105 64.9355 170.759 67.8018ZM181.081 70.8672C181.072 70.943 179.793 69.393 179.291 68.8344C177.567 66.912 181.542 67.0397 181.081 70.8672ZM183.168 76.6172C183.159 76.693 181.88 75.1429 181.377 74.5844C179.654 72.6619 183.627 72.7897 183.168 76.6172ZM182.945 97.6187C182.902 97.6598 183.293 95.85 183.421 95.1724C183.858 92.8386 185.131 95.5513 182.945 97.6187ZM180.18 103.691C182.815 102.23 182.49 99.1601 181.371 101.375C181.044 102.018 180.128 103.719 180.18 103.691ZM179.319 101.49C179.249 101.528 180.473 99.2554 180.908 98.3959C182.404 95.4387 182.837 99.5368 179.319 101.49ZM158.573 126.193C160.326 125.946 160.963 124.043 159.798 125.095C159.46 125.403 158.538 126.199 158.573 126.193ZM159.447 124.121C159.413 124.126 160.335 123.331 160.673 123.024C161.835 121.971 161.201 123.874 159.447 124.121ZM162.108 125.297C163.861 125.05 164.496 123.147 163.333 124.201C162.995 124.504 162.073 125.301 162.108 125.297ZM163.987 122.104C165.741 121.857 166.375 119.954 165.212 121.006C164.875 121.313 163.952 122.108 163.987 122.104ZM164.957 124.206C164.901 124.214 166.414 122.907 166.968 122.404C168.877 120.679 167.836 123.801 164.957 124.206ZM167.247 120.285C170.083 119.419 170.562 116.252 168.949 118.224C168.479 118.798 167.191 120.302 167.247 120.285ZM171.477 118.616C174.313 117.75 174.792 114.583 173.179 116.555C172.711 117.131 171.421 118.633 171.477 118.616ZM170.772 115.685C170.72 115.713 171.636 114.011 171.962 113.368C173.082 111.154 173.406 114.223 170.772 115.685ZM176.606 113.301C176.554 113.329 177.47 111.63 177.797 110.985C178.918 108.772 179.243 111.842 176.606 113.301ZM180.105 95.811C182.739 94.3497 182.417 91.2799 181.295 93.4946C180.966 94.1376 180.05 95.8392 180.105 95.811ZM178.758 108.183C178.689 108.222 179.912 105.949 180.347 105.09C181.845 102.135 182.278 106.233 178.758 108.183ZM173.855 113.925C173.785 113.964 175.008 111.69 175.444 110.831C176.939 107.874 177.372 111.972 173.855 113.925Z" fill="#814C33"/>
<path fill-rule="evenodd" clip-rule="evenodd" d="M172.588 98.9611C173.729 103.492 169.458 104.306 170.997 101.706C171.443 100.951 172.564 98.8702 172.588 98.9611ZM167.54 110.682C167.434 113.767 163.766 113.208 165.615 111.983C166.152 111.628 167.542 110.621 167.54 110.682ZM170.964 105.69C171.817 109.084 168.62 109.692 169.772 107.744C170.107 107.179 170.949 105.622 170.964 105.69ZM168.135 105.425C168.113 105.337 166.992 107.415 166.544 108.17C165.002 110.771 169.276 109.959 168.135 105.425ZM173.984 74.5391C175.244 76.5697 173.974 77.8751 173.984 76.2493C173.987 75.7774 173.959 74.5001 173.984 74.5391ZM172.755 76.167C172.731 76.1281 172.757 77.4054 172.755 77.8773C172.744 79.5031 174.015 78.1955 172.755 76.167ZM176.141 78.7563C177.399 80.7848 176.13 82.0923 176.141 80.4665C176.143 79.9924 176.115 78.7151 176.141 78.7563ZM174.703 81.8564C175.961 83.887 174.692 85.1924 174.703 83.5666C174.705 83.0925 174.677 81.8152 174.703 81.8564ZM177.531 82.272C179.598 85.6038 177.513 87.7492 177.531 85.0799C177.535 84.3027 177.489 82.2049 177.531 82.272ZM175.747 86.0562C177.338 89.4854 174.729 91.0181 175.236 88.6C175.383 87.8985 175.716 85.9891 175.747 86.0562ZM177.762 91.2909C179.353 94.7201 176.747 96.2528 177.251 93.8346C177.399 93.1332 177.732 91.2238 177.762 91.2909ZM174.37 91.4316C175.223 94.8262 172.025 95.4345 173.177 93.4883C173.513 92.9211 174.353 91.3645 174.37 91.4316ZM177.072 98.6775C177.927 102.072 174.727 102.68 175.879 100.732C176.216 100.167 177.056 98.6104 177.072 98.6775ZM163.398 108.093C163.381 108.025 162.541 109.582 162.205 110.147C161.054 112.095 164.251 111.487 163.398 108.093ZM174.032 102.689C174.01 102.6 172.889 104.679 172.441 105.434C170.902 108.034 175.173 107.22 174.032 102.689ZM175.32 95.4193C175.299 95.3306 174.175 97.4088 173.729 98.1644C172.188 100.762 176.459 99.9504 175.32 95.4193Z" fill="#814C33"/>
</svg>
