<svg width="285" height="190" viewBox="0 0 285 190" fill="none" xmlns="http://www.w3.org/2000/svg">
<rect width="285" height="190" fill="#BBDDFB"/>
<path d="M176.684 100.92C177.553 102.851 178.857 106.472 177.939 109.561C177.939 109.561 202.179 95.4657 211.691 90.4936C218.017 87.2111 224.825 82.6252 229.992 80.8391C232.599 79.922 234.724 79.7289 236.173 80.6943C240.567 83.5907 242.063 87.9835 244.719 86.5353C244.767 86.5353 244.816 86.487 244.864 86.4387C246.313 85.2802 245.347 79.391 240.953 75.8671C238.876 74.1775 236.028 73.019 232.358 73.1638C220.673 73.6465 176.008 99.6171 176.008 99.6171C176.008 99.6171 176.298 100.1 176.684 100.92Z" fill="url(#paint0_linear)"/>
<path opacity="0.4" d="M176.008 99.6171C176.008 99.6171 176.298 100.1 176.684 100.969C181.368 98.7482 190.494 92.9555 203.676 86.487C214.637 81.1288 227.384 73.019 240.953 75.8671C238.877 74.1775 236.028 73.019 232.358 73.1638C220.673 73.6465 176.008 99.6171 176.008 99.6171Z" fill="#EAB200"/>
<path d="M229.992 80.8395C232.6 79.9224 234.724 79.7293 236.173 80.6947C240.567 83.5911 242.064 87.9839 244.719 86.5357C244.768 86.5357 244.816 86.4874 244.864 86.4392C242.546 83.8324 237.718 76.8812 232.358 79.4879C231.585 79.8258 230.813 80.2603 229.992 80.8395Z" fill="#EAB200"/>
<path d="M41.437 80.6472H57.9509C57.9509 80.6472 69.7327 75.5786 81.7077 70.8962C81.756 70.8962 81.756 70.8962 81.756 70.8962C92.9101 66.5034 104.161 62.4002 105.899 62.9795C109.569 64.1863 115.122 68.1446 117.295 68.1446C117.729 68.1446 118.116 67.9516 118.405 67.5654C119.709 66.0207 119.468 61.8209 113.19 58.3453C113.094 58.2971 112.949 58.2005 112.852 58.1522C103.098 52.8905 90.7372 58.635 81.5146 63.0278C72.2919 67.324 41.437 80.6472 41.437 80.6472Z" fill="url(#paint1_linear)"/>
<path d="M50.4156 117.334C57.0791 122.547 64.8048 124.382 74.0758 123.996C79.8218 123.754 85.7128 121.968 91.1691 117.672C94.9837 114.679 98.074 110.19 100.392 105.99C102.999 101.694 104.061 98.1215 107.104 98.3146C108.6 98.4594 109.711 99.7145 110.435 100.97C111.16 102.273 111.498 103.576 111.594 103.866C114.008 113.327 120.286 128.002 135.979 132.154C144.042 134.278 151.285 135.34 157.514 134.712C157.514 134.712 157.514 134.712 157.563 134.712C169.682 133.457 177.843 125.782 180.016 107.148C180.016 107.148 180.402 102.225 177.988 98.9904C177.457 98.3146 176.877 97.687 176.105 97.2526C176.105 97.2526 176.056 97.2526 176.008 97.2043C171.372 94.5011 157.997 91.7495 141.725 91.7495C128.253 91.7495 109.663 93.1011 109.663 93.1011L105.365 92.8598C105.365 92.8598 86.099 86.1016 68.6194 82.4329C49.6912 78.4263 43.8969 79.44 42.1586 80.2124C41.5792 80.502 41.4343 80.7434 41.4343 80.7434C41.4343 80.7434 41.4343 80.8399 41.4343 80.9848C41.4343 81.0813 41.386 81.1778 41.386 81.3709C40.9514 85.5224 39.9375 109.079 50.4156 117.334Z" fill="url(#paint2_linear)"/>
<path d="M119.658 98.9424C117.775 100.439 115.506 110.045 124.004 119.651C132.503 129.257 144.188 129.547 152.445 129.933C152.445 129.933 136.462 130.078 128.591 119.651C120.673 109.128 119.658 98.9424 119.658 98.9424Z" fill="#EAB200"/>
<path d="M125.453 118.781C131.778 128.773 149.016 132.152 159.494 128.532C162.295 127.566 164.564 125.491 166.303 122.884C168.959 118.926 170.407 113.857 170.842 109.754C171.18 106.471 170.842 103.768 169.876 102.803C164.613 97.3479 151.431 95.8032 140.035 95.8997H139.939C139.069 95.8997 138.248 95.8997 137.428 95.948C131.15 96.0928 125.694 96.7203 122.845 97.3479C122.7 97.3962 122.555 97.3962 122.411 97.4444C122.024 97.541 121.735 97.6375 121.445 97.7341C116.037 99.6167 119.127 108.788 125.453 118.781Z" fill="#282323"/>
<path d="M49.7876 107.148C53.6988 115.692 64.1769 122.064 79.0974 118.685C85.8574 117.14 90.2997 113.182 93.0037 109.03H93.0521C96.2872 103.962 97.0115 98.6517 96.0458 96.9622C93.6798 92.8108 73.641 88.3214 60.3623 86.5353C54.5197 85.763 49.9808 85.4733 48.8219 86.0043C48.7736 86.0043 48.7736 86.0526 48.7253 86.0526C48.5322 86.1492 48.339 86.294 48.0976 86.4388C45.1038 89.1421 46.1179 99.1827 49.7876 107.148Z" fill="#282323"/>
<path d="M140.034 95.8521C151.333 96.7693 166.157 100.148 170.793 109.755C171.131 106.472 170.793 103.769 169.827 102.803C164.564 97.3003 151.43 95.7556 140.034 95.8521Z" fill="#1E1818"/>
<path opacity="0.4" d="M49.7876 107.147C53.6988 115.691 64.1769 122.063 79.0974 118.684C85.8574 117.14 90.2997 113.181 93.0037 109.03C88.9477 112.505 82.3808 117.091 73.8825 117.236C63.0663 117.429 44.283 108.885 48.0976 86.4866C45.1038 89.1416 46.1179 99.1822 49.7876 107.147Z" fill="#282323"/>
<path opacity="0.4" d="M125.453 118.782C131.778 128.775 149.016 132.154 159.494 128.533C162.295 127.568 164.564 125.492 166.303 122.885C156.984 128.775 142.015 129.45 133.275 123.754C122.7 116.803 121.107 103.818 122.411 97.3975C122.024 97.494 121.735 97.5905 121.445 97.6871C116.037 99.618 119.127 108.79 125.453 118.782Z" fill="#282323"/>
<path opacity="0.4" d="M41 81.3227C41.0966 81.3227 41.2414 81.3227 41.338 81.3227C45.0077 81.1296 51.7195 80.3572 69.6337 84.6052C88.1273 88.9497 105.365 94.4528 105.365 94.4528C105.365 94.4528 125.646 93.1494 142.449 93.0046C156.549 92.9081 170.262 95.1286 177.94 98.9904C177.408 98.2663 176.781 97.687 175.96 97.2043C171.324 94.501 157.949 91.7495 141.677 91.7495C128.205 91.7495 109.615 93.1011 109.615 93.1011L105.317 92.8598C105.317 92.8598 86.051 86.1016 68.5714 82.4329C49.6432 78.4263 43.8489 79.44 42.1106 80.2124L41.3862 80.9847L41 81.3227Z" fill="#EAB200"/>
<path d="M74.0763 123.995C79.8224 123.754 85.7133 121.968 91.1697 117.672C94.9843 114.679 98.0746 110.189 100.392 105.99C103 101.693 104.062 98.1211 107.104 98.3142C104.69 97.8315 101.455 98.6521 98.5091 104.638C95.8534 110.044 87.4999 121.292 74.0763 123.995Z" fill="#EAB200"/>
<path d="M157.515 134.663C169.635 133.408 177.795 125.733 179.968 107.1C179.968 107.1 180.354 102.176 177.94 98.9417C177.409 98.2658 179.63 110.141 174.994 119.602C170.842 128.002 164.565 132.588 157.515 134.663Z" fill="#EAB200"/>
<path opacity="0.4" d="M41.437 80.6462H45.493C64.7592 73.1157 81.8525 63.3163 93.0067 60.2752C103.05 57.5236 108.893 57.5719 113.19 58.296C113.094 58.2477 112.949 58.1512 112.852 58.1029C103.098 52.8412 90.7373 58.5856 81.5146 62.9784C72.2919 67.323 41.437 80.6462 41.437 80.6462Z" fill="#EAB200"/>
<path d="M81.7532 70.8949C92.9073 66.5021 104.158 62.3989 105.896 62.9782C109.566 64.185 115.119 68.1433 117.292 68.1433C117.726 68.1433 118.113 67.9502 118.402 67.5641C115.216 65.9711 111.497 62.5437 107.103 61.7714C101.599 60.7576 82.8638 70.2673 81.7532 70.8949Z" fill="#EAB200"/>
<path opacity="0.5" d="M48.6769 86.0528L64.7562 108.065H78.4212L60.3139 86.4872C54.4712 85.7149 49.9323 85.4253 48.7734 85.9562C48.7251 86.0045 48.7252 86.0528 48.6769 86.0528Z" fill="#282323"/>
<path opacity="0.5" d="M122.845 97.3005L142.449 116.803H154.617L137.427 95.8523C131.15 96.0454 125.694 96.6247 122.845 97.3005Z" fill="#282323"/>
<defs>
<linearGradient id="paint0_linear" x1="167.814" y1="100.372" x2="259.856" y2="77.7796" gradientUnits="userSpaceOnUse">
<stop offset="0.0153" stop-color="#F5A900"/>
<stop offset="1" stop-color="#F55F2A"/>
</linearGradient>
<linearGradient id="paint1_linear" x1="52.215" y1="77.6258" x2="127.261" y2="56.976" gradientUnits="userSpaceOnUse">
<stop offset="0.0153" stop-color="#F5A900"/>
<stop offset="1" stop-color="#F55F2A"/>
</linearGradient>
<linearGradient id="paint2_linear" x1="111.21" y1="87.6034" x2="108.783" y2="117.462" gradientUnits="userSpaceOnUse">
<stop stop-color="#EAB200"/>
<stop offset="0.9847" stop-color="#F5A900"/>
</linearGradient>
</defs>
</svg>
