<svg width="285" height="190" viewBox="0 0 285 190" fill="none" xmlns="http://www.w3.org/2000/svg">
<rect width="285" height="190" fill="#F3D8B5"/>
<path d="M82.7025 145.604L82.0581 152.503H79.0256L79.6321 146.779L79.7459 145.604H82.7025Z" fill="#3F3426"/>
<path opacity="0.5" d="M80.9968 152.503H79.0256L79.6321 146.78C80.0112 148.106 80.6177 150.836 80.9968 152.503Z" fill="#755733"/>
<path d="M144.755 150.798H140.548V158H144.755V150.798Z" fill="#3A2A14"/>
<path opacity="0.5" d="M142.443 158H140.548V150.798H141.419C141.609 152.731 142.14 156.143 142.443 158Z" fill="#755733"/>
<path d="M209.234 157.545H205.368L204.155 150.494H207.945L209.234 157.545Z" fill="#3F3426"/>
<path opacity="0.5" d="M206.922 157.545H205.368L204.155 150.494H205.178L206.922 157.545Z" fill="#755733"/>
<path d="M205.216 150.873C201.198 150.873 200.477 148.485 200.44 148.409C200.364 148.182 200.515 147.955 200.743 147.917C200.97 147.841 201.198 147.992 201.236 148.182C201.273 148.296 201.956 150.343 206.012 150.039C208.817 149.812 209.461 149.168 209.575 148.902C209.689 148.675 209.613 148.523 209.613 148.523C209.499 148.334 209.575 148.068 209.764 147.955C209.954 147.841 210.219 147.917 210.333 148.106C210.447 148.334 210.598 148.789 210.333 149.281C209.878 150.153 208.476 150.684 206.088 150.873C205.784 150.873 205.519 150.873 205.216 150.873Z" fill="#3D3933"/>
<path d="M142.784 151.215C142.746 151.215 142.67 151.215 142.632 151.215C140.737 151.177 139.372 150.722 138.538 149.812C137.704 148.94 137.742 147.955 137.742 147.917C137.742 147.69 137.932 147.538 138.159 147.538C138.387 147.538 138.576 147.727 138.538 147.955C138.538 147.993 138.538 148.637 139.107 149.244C139.751 149.926 140.964 150.343 142.594 150.343C144.073 150.381 145.096 150.078 145.551 149.433C145.968 148.827 145.703 148.069 145.703 148.069C145.627 147.841 145.741 147.614 145.968 147.538C146.195 147.462 146.423 147.576 146.499 147.765C146.537 147.803 146.954 148.94 146.271 149.926C145.703 150.798 144.528 151.215 142.784 151.215Z" fill="#3D3933"/>
<path d="M81.5656 146.022C76.8652 146.022 76.4862 143.672 76.4862 143.596C76.4482 143.368 76.5999 143.179 76.8273 143.141C77.0547 143.103 77.2443 143.255 77.2822 143.482C77.2822 143.52 77.6992 145.301 81.7551 145.226C84.1432 145.188 84.9014 144.619 85.1667 144.278C85.3941 143.975 85.3183 143.672 85.3183 143.672C85.2425 143.444 85.3941 143.217 85.6216 143.179C85.849 143.103 86.0764 143.255 86.1144 143.444C86.1523 143.52 86.3039 144.126 85.849 144.771C85.2425 145.605 83.8779 146.022 81.7551 146.06C81.7172 146.022 81.6414 146.022 81.5656 146.022Z" fill="#3D3933"/>
<path d="M210.561 148.296H200.326C200.326 148.296 199.568 141.586 198.468 131.617C198.43 131.389 198.43 131.2 198.393 130.972C198.317 130.366 198.279 129.797 198.203 129.191C198.165 128.812 198.127 128.433 198.051 128.054C194.829 99.4723 189.181 50.232 188.12 45.2662C186.338 36.7373 179.591 32.2265 174.019 37.5333C169.091 42.2337 162.95 61.9829 159.614 74.1508C156.279 86.3188 145.817 117.857 145.817 117.857L145.248 116.075L140.51 100.685C141.609 96.5535 156.734 52.2789 165.338 41.2102C173.905 30.1416 183.988 30.5207 190.622 41.2102C195.057 48.3366 203.169 98.9416 207.566 127.978C207.604 128.281 207.68 128.622 207.718 128.925C207.793 129.418 207.869 129.911 207.945 130.404C207.983 130.669 208.021 130.897 208.059 131.162C209.575 141.435 210.561 148.296 210.561 148.296Z" fill="url(#paint0_linear)"/>
<path d="M140.547 100.686L137.325 115.696L136.87 117.857C136.87 117.857 118.372 54.5915 115.378 44.5084C111.701 32.0372 102.072 32.0372 97.3721 35.6383C92.6717 39.2394 92.6717 67.4796 91.2692 86.5844C90.5111 97.1982 89.0327 113.687 87.9334 126.234C87.8955 126.613 87.8576 126.955 87.8197 127.334C87.7439 127.978 87.706 128.585 87.6302 129.191C87.5923 129.57 87.5544 129.911 87.5165 130.252C86.7962 138.251 86.2656 143.861 86.2656 143.861H76.4099C76.4099 143.861 76.4857 138.137 76.8648 129.305C76.8648 129.039 76.9027 128.736 76.9027 128.433C76.9406 127.713 76.9785 126.955 77.0164 126.159C77.0543 125.855 77.0543 125.514 77.0922 125.173C78.6464 92.8769 83.9912 30.2556 102.11 32.0372C120.571 33.8946 125.84 44.1293 130.351 60.3532C134.065 73.9995 140.547 100.686 140.547 100.686Z" fill="url(#paint1_linear)"/>
<path d="M136.833 117.857L140.548 100.686L145.817 117.857H136.833Z" fill="#7A3425"/>
<path d="M140.547 106.599C142.367 106.599 142.481 116.19 140.547 116.19C138.614 116.19 138.728 106.599 140.547 106.599Z" fill="#A85B14"/>
<path opacity="0.4" d="M137.326 115.697L136.871 117.857C136.871 117.857 118.373 54.5918 115.378 44.5087C111.701 32.0375 102.073 32.0375 97.3725 35.6386C92.6721 39.2397 92.6721 67.4799 91.2696 86.5847C89.9049 105.689 86.3038 143.861 86.3038 143.861H84.8634C85.1287 139.919 86.0764 128.357 87.0999 117.857C88.1992 106.637 89.867 91.0197 90.284 82.9836C90.701 74.9475 93.1649 44.2434 93.9988 40.5285C94.8328 36.7758 98.0548 31.9617 104.802 33.061C111.549 34.1603 114.203 36.6621 115.757 41.9311C117.273 47.2001 124.324 71.4222 126.522 79.1551C128.456 85.8266 135.468 109.442 137.326 115.697Z" fill="url(#paint2_linear)"/>
<path opacity="0.4" d="M208.021 131.162C204.23 133.436 199.833 132.147 198.43 131.617C198.393 131.389 198.393 131.2 198.355 130.972C198.885 131.238 200.212 131.617 203.32 131.541C206.315 131.427 207.49 130.821 207.907 130.404C207.945 130.631 207.983 130.897 208.021 131.162Z" fill="url(#paint3_linear)"/>
<path opacity="0.4" d="M201.728 148.296H200.326C200.326 148.296 189.598 52.2788 188.12 45.2282C186.338 36.6993 179.591 32.1885 174.019 37.4953C169.091 42.1957 162.95 61.9449 159.614 74.1128C156.279 86.2808 145.817 117.819 145.817 117.819L145.248 116.037C146.385 111.602 149.039 103.604 151.161 97.8801C153.777 90.8295 158.629 74.9089 160.827 66.8727C163.026 58.8366 168.409 42.7264 172.465 37.9502C176.521 33.174 181.752 33.0982 185.618 37.9502C189.485 42.8022 191.418 62.2482 192.82 72.1796C194.185 82.1111 197.369 113.384 198.506 121.117C199.34 127.03 200.97 141.51 201.728 148.296Z" fill="url(#paint4_linear)"/>
<path opacity="0.4" d="M87.6307 129.228C87.5928 129.607 87.5549 129.949 87.517 130.29C82.3238 131.844 78.1162 130.024 76.8274 129.342C76.8274 129.077 76.8653 128.773 76.8653 128.47C77.5097 128.811 78.9122 129.418 81.3003 129.759C84.1812 130.176 86.683 129.494 87.6307 129.228Z" fill="url(#paint5_linear)"/>
<path opacity="0.4" d="M87.9336 126.272C87.8957 126.651 87.8577 126.992 87.8198 127.371C82.5888 125.514 78.4191 125.969 76.9786 126.234C77.0165 125.931 77.0165 125.59 77.0545 125.248C78.0021 125.021 80.049 124.642 82.9678 124.907C86.0003 125.135 87.4029 125.893 87.9336 126.272Z" fill="url(#paint6_linear)"/>
<path d="M82.6647 124.415C81.7549 124.339 80.921 124.263 80.1629 124.263C76.9787 124.263 75.1213 125.022 75.0076 126.424C74.9318 127.182 75.4246 127.978 76.4101 128.585C76.5618 128.661 76.7134 128.774 76.9029 128.85C78.1917 129.532 79.9733 129.987 82.134 130.215C82.8921 130.291 83.6123 130.328 84.2567 130.328C87.4788 130.328 89.412 129.457 89.5636 127.978C89.5636 127.902 89.5636 127.865 89.5636 127.789C89.5257 126.083 86.986 124.832 82.6647 124.415ZM75.9932 126.538C76.069 125.969 77.1683 125.249 80.1629 125.249C80.921 125.249 81.717 125.287 82.5889 125.401C86.8344 125.818 88.6539 126.993 88.5402 127.902C88.4643 128.661 87.0997 129.419 84.2188 129.419C83.6123 129.419 82.93 129.381 82.2098 129.305C79.6701 129.078 78.1538 128.509 77.3578 128.054C76.448 127.561 75.9553 126.993 75.9932 126.538Z" fill="#423D37"/>
<path opacity="0.4" d="M89.5259 127.788C89.5259 127.864 89.5259 127.902 89.5259 127.978C89.3743 129.494 87.4411 130.328 84.219 130.328C83.5746 130.328 82.8544 130.29 82.0963 130.214C79.9356 129.987 78.154 129.532 76.8652 128.85C76.6757 128.774 76.5241 128.66 76.3724 128.584C78.4573 129.305 82.4374 130.214 85.3183 129.759C87.7822 129.418 88.8436 128.698 89.5259 127.788Z" fill="#423D37"/>
<path opacity="0.4" d="M207.718 128.888C207.035 128.623 205.216 128.016 203.283 128.092C201.084 128.168 198.81 128.774 198.203 129.191C198.165 128.812 198.127 128.433 198.052 128.054C198.772 127.751 200.515 127.144 203.017 127.106C205.633 127.106 207.073 127.713 207.604 127.978C207.604 128.282 207.642 128.585 207.718 128.888Z" fill="url(#paint7_linear)"/>
<path d="M202.979 126.727C201.16 126.765 199.643 127.03 198.582 127.447C197.142 128.016 196.838 128.812 196.838 129.38C196.838 129.911 197.142 130.366 197.634 130.783C198.582 131.541 200.364 131.996 202.638 131.996H203.131C204.912 131.958 206.429 131.655 207.452 131.162C208.362 130.707 208.931 130.139 209.006 129.418C209.006 129.343 209.006 129.229 209.006 129.153C208.968 127.523 206.732 126.613 202.979 126.727ZM198.885 128.205C199.833 127.826 201.236 127.599 202.979 127.561C203.169 127.561 203.358 127.561 203.51 127.561C206.884 127.561 208.097 128.433 208.134 129.191C208.172 129.797 207.452 130.214 207.035 130.404C206.125 130.859 204.761 131.086 203.093 131.162C199.643 131.276 197.71 130.29 197.71 129.343C197.71 128.812 198.355 128.395 198.885 128.205Z" fill="#423D37"/>
<path opacity="0.4" d="M209.006 129.418C208.893 130.1 208.362 130.707 207.452 131.162C206.429 131.654 204.95 131.92 203.131 131.996H202.638C200.364 131.996 198.582 131.541 197.634 130.783C199.302 131.351 203.169 131.92 205.936 131.275C207.907 130.783 208.703 129.987 209.006 129.418Z" fill="#423D37"/>
<path d="M146.613 148.296H137.78L136.833 117.857L137.97 117.781L145.779 117.212L146.613 148.296Z" fill="#0B1428"/>
<path d="M140.548 148.295H137.78L136.871 117.856L137.97 117.781C138.273 120.623 138.538 125.855 139.145 131.957C139.827 139.311 140.548 148.295 140.548 148.295Z" fill="#142442"/>
<defs>
<linearGradient id="paint0_linear" x1="182.014" y1="34.0638" x2="173.713" y2="150.017" gradientUnits="userSpaceOnUse">
<stop stop-color="#777570"/>
<stop offset="0.9898" stop-color="#535353"/>
</linearGradient>
<linearGradient id="paint1_linear" x1="100.118" y1="33.7377" x2="108.973" y2="127.55" gradientUnits="userSpaceOnUse">
<stop stop-color="#777570"/>
<stop offset="0.9898" stop-color="#535353"/>
</linearGradient>
<linearGradient id="paint2_linear" x1="84.8805" y1="88.3762" x2="137.312" y2="88.3762" gradientUnits="userSpaceOnUse">
<stop stop-color="#777570"/>
<stop offset="0.9898" stop-color="#535353"/>
</linearGradient>
<linearGradient id="paint3_linear" x1="198.355" y1="131.416" x2="208.029" y2="131.416" gradientUnits="userSpaceOnUse">
<stop stop-color="#777570"/>
<stop offset="0.9898" stop-color="#535353"/>
</linearGradient>
<linearGradient id="paint4_linear" x1="145.26" y1="91.353" x2="201.712" y2="91.353" gradientUnits="userSpaceOnUse">
<stop stop-color="#777570"/>
<stop offset="0.9898" stop-color="#535353"/>
</linearGradient>
<linearGradient id="paint5_linear" x1="76.8626" y1="129.666" x2="87.6477" y2="129.666" gradientUnits="userSpaceOnUse">
<stop stop-color="#777570"/>
<stop offset="0.9898" stop-color="#535353"/>
</linearGradient>
<linearGradient id="paint6_linear" x1="76.9953" y1="126.046" x2="87.9214" y2="126.046" gradientUnits="userSpaceOnUse">
<stop stop-color="#777570"/>
<stop offset="0.9898" stop-color="#535353"/>
</linearGradient>
<linearGradient id="paint7_linear" x1="198.024" y1="128.136" x2="207.704" y2="128.136" gradientUnits="userSpaceOnUse">
<stop stop-color="#777570"/>
<stop offset="0.9898" stop-color="#535353"/>
</linearGradient>
</defs>
</svg>
