<svg width="285" height="190" viewBox="0 0 285 190" fill="none" xmlns="http://www.w3.org/2000/svg">
<rect width="285" height="190" fill="#E3F7F3"/>
<path fill-rule="evenodd" clip-rule="evenodd" d="M149.049 41.038C149.167 40.9653 160.917 33.7689 161.032 33.6983C185.837 18.6096 145.44 54.98 155.738 48.6728C166.583 42.0311 172.782 37.8657 161.136 53.8997C146.518 74.0221 148.953 68.9074 172.098 55.3622C166.807 72.9169 136.272 95.63 156.889 82.4255C163.356 78.283 140.454 118.813 115.487 112.734C107.252 110.729 93.2789 122.913 91.5962 116.885C91.4321 116.297 90.7839 115.395 90.9168 115.046C94.0164 112.505 72.2819 98.3598 103.153 78.7193C115.3 70.9911 126.062 55.1171 143.595 44.3765C145.415 43.2651 147.231 42.1516 149.049 41.038Z" fill="#7368AF"/>
<path fill-rule="evenodd" clip-rule="evenodd" d="M135.603 55.9377C140.834 50.8355 147.003 45.8038 153.409 41.7611C162.542 36.0023 163.575 37.309 159.476 40.5727C156.241 43.1488 148.629 47.2581 147.472 47.9499C143.342 50.4241 139.355 53.692 135.603 55.9377Z" fill="#7282C0"/>
<path fill-rule="evenodd" clip-rule="evenodd" d="M128.789 64.634C134.02 59.5318 140.188 54.5001 146.595 50.4573C155.728 44.6986 156.76 46.0053 152.661 49.269C149.427 51.8451 141.815 55.9543 140.658 56.6461C136.528 59.1204 132.541 62.3883 128.789 64.634Z" fill="#7282C0"/>
<path fill-rule="evenodd" clip-rule="evenodd" d="M140.005 69.7134C144.412 63.884 149.753 57.9819 155.483 53.025C163.647 45.9616 164.862 47.098 161.302 50.9413C158.491 53.9744 151.581 59.1785 150.54 60.0365C146.828 63.0987 143.377 66.9296 140.005 69.7134Z" fill="#7282C0"/>
<path fill-rule="evenodd" clip-rule="evenodd" d="M143.994 83.7573C148.4 77.9278 153.742 72.0257 159.471 67.0689C167.636 60.0054 168.851 61.1418 165.29 64.9851C162.48 68.0183 155.57 73.2224 154.529 74.0804C150.817 77.1426 147.366 80.9734 143.994 83.7573Z" fill="#7282C0"/>
<path fill-rule="evenodd" clip-rule="evenodd" d="M129.036 92.709C133.443 86.8796 138.784 80.9775 144.514 76.0206C152.678 68.9572 153.893 70.0936 150.333 73.9369C147.522 76.9701 140.612 82.1741 139.571 83.0321C135.857 86.0964 132.406 89.9273 129.036 92.709Z" fill="#7282C0"/>
<path fill-rule="evenodd" clip-rule="evenodd" d="M83.4297 152.476C78.8842 154.792 66.571 153.066 61.2672 145.888C51.9435 133.27 61.0657 120.178 73.516 114.18C84.9151 108.691 98.6722 109.56 112.55 113.638C115.845 114.606 163.311 124.754 165.307 121.798C166.005 120.763 219.544 100.113 231.203 109.105C232.3 109.95 230.233 109.368 223.709 112.8C219.423 115.057 205.565 115.268 198.47 118.85C191.909 122.162 195.084 121.416 195.057 133.137C195.032 143.458 197.919 140.379 211.321 143.744C213.644 144.328 238.385 146.574 226.657 149.298C211.888 152.727 180.564 148.099 165.773 144.567C159.665 143.109 119.474 164.795 94.378 157.248C93.2292 156.901 83.6395 152.368 83.4297 152.476Z" fill="#7368AF"/>
<path fill-rule="evenodd" clip-rule="evenodd" d="M54 148.873C54.0499 148.466 58.6764 139.816 59.6819 139.71C62.3141 139.433 66.28 144.332 64.3375 147.128C63.4338 148.431 56.1772 149.522 54 148.873Z" fill="#4A1600"/>
<path fill-rule="evenodd" clip-rule="evenodd" d="M79.5654 131.45C79.2621 130.914 77.8515 129.324 75.907 129.395C73.2062 129.493 69.9757 131.77 71.7084 135.397C74.0019 140.2 83.12 137.726 79.5654 131.45Z" fill="white"/>
<path fill-rule="evenodd" clip-rule="evenodd" d="M78.3189 131.895C78.0488 131.402 76.8231 129.925 75.1944 129.935C72.9341 129.948 70.2915 131.913 71.8455 135.241C73.9043 139.644 81.4766 137.668 78.3189 131.895Z" fill="#400000"/>
<path fill-rule="evenodd" clip-rule="evenodd" d="M75.7326 134.383C75.6266 134.19 75.1467 133.612 74.511 133.616C73.626 133.621 72.5935 134.389 73.2022 135.692C74.0062 137.414 76.9666 136.641 75.7326 134.383Z" fill="white"/>
<path fill-rule="evenodd" clip-rule="evenodd" d="M64.1609 148.822C72.9154 142.436 85.5901 151.938 83.4274 152.476C76.4969 154.202 69.8719 153.45 64.1609 148.822Z" fill="#F9B421"/>
<path fill-rule="evenodd" clip-rule="evenodd" d="M185.479 124.145C186.08 123.653 192.991 120.279 193.261 121.359C193.962 124.168 190.197 124.33 187.831 124.854C187.432 124.945 184.152 125.236 185.479 124.145Z" fill="#FFEBCA"/>
<path fill-rule="evenodd" clip-rule="evenodd" d="M186.302 139.07C187.015 139.384 194.579 140.767 194.547 139.652C194.464 136.76 190.798 137.618 188.375 137.751C187.968 137.774 184.727 138.378 186.302 139.07Z" fill="#FFEBCA"/>
<path fill-rule="evenodd" clip-rule="evenodd" d="M188.33 136.452C188.849 136.681 194.365 137.689 194.342 136.876C194.279 134.768 191.606 135.393 189.842 135.491C189.545 135.507 187.183 135.948 188.33 136.452Z" fill="#FFEBCA"/>
<path fill-rule="evenodd" clip-rule="evenodd" d="M188.13 133.768C188.65 133.997 194.165 135.004 194.142 134.194C194.08 132.085 191.406 132.711 189.643 132.808C189.345 132.823 186.983 133.263 188.13 133.768Z" fill="#FFEBCA"/>
<path fill-rule="evenodd" clip-rule="evenodd" d="M187.467 126.634C187.966 126.362 193.376 124.889 193.422 125.699C193.54 127.806 190.823 127.409 189.055 127.463C188.76 127.473 186.369 127.235 187.467 126.634Z" fill="#FFEBCA"/>
<path fill-rule="evenodd" clip-rule="evenodd" d="M188.257 128.547C188.753 128.275 194.165 126.802 194.211 127.613C194.329 129.719 191.612 129.322 189.846 129.376C189.547 129.385 187.158 129.148 188.257 128.547Z" fill="#FFEBCA"/>
<path fill-rule="evenodd" clip-rule="evenodd" d="M188.311 131.269C188.808 130.997 194.219 129.524 194.265 130.334C194.383 132.441 191.666 132.044 189.9 132.098C189.601 132.106 187.21 131.867 188.311 131.269Z" fill="#FFEBCA"/>
<path fill-rule="evenodd" clip-rule="evenodd" d="M181.592 128.668C181.844 128.46 184.746 127.046 184.858 127.499C185.151 128.676 183.572 128.745 182.579 128.965C182.413 129.003 181.033 129.125 181.592 128.668Z" fill="#FEC66C"/>
<path fill-rule="evenodd" clip-rule="evenodd" d="M181.937 134.932C182.237 135.063 185.411 135.644 185.399 135.177C185.363 133.964 183.824 134.323 182.808 134.379C182.635 134.388 181.277 134.641 181.937 134.932Z" fill="#FEC66C"/>
<path fill-rule="evenodd" clip-rule="evenodd" d="M182.789 133.833C183.007 133.928 185.321 134.352 185.313 134.011C185.288 133.126 184.164 133.388 183.425 133.43C183.298 133.436 182.307 133.621 182.789 133.833Z" fill="#FEC66C"/>
<path fill-rule="evenodd" clip-rule="evenodd" d="M182.704 132.707C182.922 132.802 185.236 133.226 185.228 132.885C185.203 132 184.079 132.262 183.34 132.304C183.215 132.31 182.224 132.495 182.704 132.707Z" fill="#FEC66C"/>
<path fill-rule="evenodd" clip-rule="evenodd" d="M182.428 129.713C182.637 129.599 184.908 128.98 184.927 129.32C184.977 130.205 183.836 130.037 183.094 130.06C182.968 130.064 181.964 129.964 182.428 129.713Z" fill="#FEC66C"/>
<path fill-rule="evenodd" clip-rule="evenodd" d="M182.758 130.515C182.968 130.401 185.238 129.782 185.257 130.122C185.307 131.007 184.166 130.839 183.425 130.862C183.3 130.866 182.297 130.766 182.758 130.515Z" fill="#FEC66C"/>
<path fill-rule="evenodd" clip-rule="evenodd" d="M182.781 131.658C182.991 131.543 185.261 130.924 185.28 131.265C185.33 132.15 184.189 131.984 183.448 132.005C183.321 132.009 182.318 131.909 182.781 131.658Z" fill="#FEC66C"/>
<path fill-rule="evenodd" clip-rule="evenodd" d="M193.143 119.65C197.938 116.712 203.425 114.159 208.926 112.607C216.766 110.395 217.321 111.959 213.689 113.581C210.822 114.861 204.403 116.064 203.416 116.309C199.893 117.188 196.342 118.852 193.143 119.65Z" fill="#FFEBCA"/>
<path fill-rule="evenodd" clip-rule="evenodd" d="M191.358 141.949C196.484 144.262 202.249 146.104 207.901 146.954C215.958 148.163 216.313 146.543 212.505 145.39C209.499 144.48 202.98 144.093 201.97 143.973C198.366 143.545 194.635 142.34 191.358 141.949Z" fill="#FFEBCA"/>
<path fill-rule="evenodd" clip-rule="evenodd" d="M117.064 155.312C121.362 156.836 125.438 153.282 121.352 154.283C120.165 154.574 116.979 155.283 117.064 155.312ZM134.089 152.418C137.668 152.702 139.742 149.497 136.987 150.93C136.185 151.346 134.018 152.411 134.089 152.418ZM125.895 154.742C129.113 155.885 132.167 153.222 129.107 153.972C128.218 154.19 125.831 154.72 125.895 154.742ZM127.686 152.289C127.601 152.258 130.788 151.551 131.974 151.261C136.06 150.259 131.984 153.814 127.686 152.289ZM88.3302 153.542C89.7034 154.865 92.1237 153.938 90.2706 153.749C89.7304 153.693 88.3032 153.515 88.3302 153.542ZM91.0829 152.688C91.0559 152.661 92.4852 152.841 93.0232 152.895C94.8763 153.082 92.4561 154.011 91.0829 152.688ZM91.5212 155.897C92.8944 157.221 95.3147 156.294 93.4616 156.105C92.9214 156.049 91.4942 155.87 91.5212 155.897ZM96.0979 155.044C97.4711 156.367 99.8914 155.438 98.0383 155.251C97.5002 155.197 96.0709 155.019 96.0979 155.044ZM94.4816 157.514C96.7357 159.685 100.708 158.164 97.6664 157.854C96.7814 157.765 94.438 157.47 94.4816 157.514ZM100.093 156.448C100.039 156.413 102.451 156.361 103.357 156.319C106.471 156.18 102.808 158.224 100.093 156.448ZM104.543 158.808C107.258 160.584 110.921 158.542 107.807 158.679C106.901 158.719 104.489 158.773 104.543 158.808ZM107.206 155.922C110.426 157.065 113.478 154.404 110.418 155.152C109.529 155.37 107.144 155.9 107.206 155.922ZM113.43 159.113C116.648 160.256 119.702 157.595 116.642 158.343C115.753 158.561 113.368 159.091 113.43 159.113ZM134.209 148.562C134.145 148.539 136.532 148.009 137.421 147.791C140.479 147.041 137.427 149.704 134.209 148.562ZM120.226 157.001C120.141 156.969 123.327 156.263 124.516 155.972C128.6 154.971 124.524 158.525 120.226 157.001ZM111.027 157.219C110.941 157.19 114.128 156.481 115.317 156.19C119.403 155.189 115.327 158.744 111.027 157.219Z" fill="#8B79B8"/>
<path fill-rule="evenodd" clip-rule="evenodd" d="M173.638 73.6253C173.771 73.592 187.143 70.2618 187.272 70.2307C215.468 63.3023 166.003 85.8388 177.72 82.9199C190.06 79.8473 197.225 77.7407 181.295 89.5283C161.302 104.324 165.162 100.177 191.311 94.2214C180.984 109.37 145.033 121.848 168.666 115.457C176.081 113.453 142.048 145.217 120.066 131.911C112.815 127.521 95.8257 134.94 96.0335 128.685C96.6567 109.902 91.6064 102.957 118.535 95.7628C132.445 92.0462 147.48 80.1444 167.434 75.173C169.501 74.6557 171.571 74.1405 173.638 73.6253Z" fill="#8B79B8"/>
<path fill-rule="evenodd" clip-rule="evenodd" d="M72.3525 116.849C74.0519 113.095 78.7407 113.822 75.6183 115.289C74.7084 115.715 72.3172 116.924 72.3525 116.849ZM84.5805 109.641C86.6019 107.362 89.8469 108.926 87.275 109.267C86.5271 109.366 84.541 109.686 84.5805 109.641ZM78.1217 112.312C79.3931 109.501 82.9061 110.046 80.5668 111.145C79.8875 111.465 78.0967 112.368 78.1217 112.312ZM80.731 113.395C80.6977 113.467 83.0868 112.26 83.9967 111.834C87.1192 110.368 82.4303 109.641 80.731 113.395ZM55.8096 134.718C55.8366 132.802 57.8933 132.221 56.8712 133.436C56.5762 133.789 55.8096 134.755 55.8096 134.718ZM58.0262 133.883C58.0532 131.967 60.1099 131.385 59.0878 132.601C58.7907 132.954 58.0242 133.92 58.0262 133.883ZM56.3165 130.883C56.3435 128.967 58.4002 128.386 57.3781 129.601C57.0831 129.954 56.3165 130.92 56.3165 130.883ZM59.6508 129.009C59.6778 127.093 61.7345 126.512 60.7124 127.727C60.4174 128.08 59.6508 129.046 59.6508 129.009ZM57.1392 127.814C57.1371 127.877 58.396 126.289 58.8842 125.71C60.5587 123.713 57.1828 124.671 57.1392 127.814ZM61.238 125.533C61.8093 122.465 65.3161 122.132 63.3196 123.786C62.74 124.266 61.2276 125.593 61.238 125.533ZM62.5157 120.979C63.087 117.913 66.5937 117.579 64.5973 119.232C64.0156 119.714 62.5032 121.04 62.5157 120.979ZM65.9269 121.935C65.9019 121.991 67.6927 121.087 68.3721 120.767C70.7113 119.668 67.1983 119.124 65.9269 121.935ZM67.78 115.659C67.7551 115.715 69.5458 114.811 70.2252 114.491C72.5644 113.392 69.0535 112.848 67.78 115.659ZM87.0299 112.877C88.3013 110.066 91.8143 110.611 89.4751 111.71C88.7937 112.028 87.0049 112.931 87.0299 112.877ZM73.2521 113.604C73.2188 113.679 75.61 112.47 76.5178 112.044C79.6403 110.575 74.9514 109.85 73.2521 113.604ZM67.4725 118.651C67.4393 118.725 69.8284 117.518 70.7383 117.09C73.8628 115.624 69.1719 114.897 67.4725 118.651Z" fill="#8B79B8"/>
<path fill-rule="evenodd" clip-rule="evenodd" d="M158.339 82.4587C164.829 79.0994 172.194 76.0788 179.5 74.0761C189.913 71.2237 190.519 72.7756 185.65 74.7056C181.804 76.2283 173.326 77.9443 172.019 78.2705C167.347 79.4339 162.581 81.4013 158.339 82.4587Z" fill="#FFEBCA"/>
<path fill-rule="evenodd" clip-rule="evenodd" d="M149.292 88.7951C155.78 85.4358 163.147 82.4152 170.453 80.4125C180.865 77.5601 181.472 79.112 176.602 81.042C172.757 82.5648 164.279 84.2808 162.972 84.607C158.3 85.7703 153.534 87.7398 149.292 88.7951Z" fill="#FFEBCA"/>
<path fill-rule="evenodd" clip-rule="evenodd" d="M158.545 96.918C164.455 92.6218 171.284 88.5312 178.208 85.4545C188.074 81.071 188.907 82.5128 184.383 85.1533C180.811 87.237 172.684 90.2057 171.442 90.723C166.996 92.5761 162.579 95.2373 158.545 96.918Z" fill="#FFEBCA"/>
<path fill-rule="evenodd" clip-rule="evenodd" d="M158.275 111.514C164.185 107.218 171.014 103.128 177.938 100.051C187.804 95.6673 188.637 97.1091 184.113 99.7496C180.541 101.833 172.416 104.802 171.172 105.319C166.726 107.172 162.309 109.834 158.275 111.514Z" fill="#FFEBCA"/>
<path fill-rule="evenodd" clip-rule="evenodd" d="M141.358 115.727C147.268 111.431 154.097 107.341 161.021 104.264C170.887 99.8805 171.72 101.324 167.195 103.963C163.622 106.046 155.497 109.015 154.255 109.532C149.809 111.386 145.392 114.047 141.358 115.727Z" fill="#FFEBCA"/>
<path fill-rule="evenodd" clip-rule="evenodd" d="M54 148.874C54.0748 148.566 58.6847 139.851 59.6819 139.71C62.2891 139.338 62.9996 140.981 63.7911 142.363C64.4954 143.593 56.4618 147.532 54 148.874Z" fill="#945637"/>
<path fill-rule="evenodd" clip-rule="evenodd" d="M138.082 93.8932C138.468 93.2181 143.731 87.6089 144.366 88.5251C146.018 90.9017 142.559 92.3891 140.533 93.7208C140.193 93.9452 137.228 95.3849 138.082 93.8932Z" fill="#FFEBCA"/>
<path fill-rule="evenodd" clip-rule="evenodd" d="M144.152 107.553C144.929 107.592 152.491 106.198 152.065 105.168C150.958 102.494 147.836 104.598 145.621 105.583C145.249 105.749 142.436 107.463 144.152 107.553Z" fill="#FFEBCA"/>
<path fill-rule="evenodd" clip-rule="evenodd" d="M145.118 104.382C145.686 104.412 151.199 103.394 150.89 102.644C150.083 100.695 147.807 102.23 146.19 102.947C145.918 103.07 143.868 104.32 145.118 104.382Z" fill="#FFEBCA"/>
<path fill-rule="evenodd" clip-rule="evenodd" d="M143.978 101.946C144.543 101.975 150.059 100.957 149.749 100.207C148.943 98.2561 146.666 99.7934 145.05 100.51C144.778 100.631 142.727 101.881 143.978 101.946Z" fill="#FFEBCA"/>
<path fill-rule="evenodd" clip-rule="evenodd" d="M140.826 95.5135C141.194 95.0835 145.729 91.7824 146.059 92.524C146.919 94.4519 144.237 95.0461 142.604 95.7233C142.33 95.8376 140.01 96.465 140.826 95.5135Z" fill="#FFEBCA"/>
<path fill-rule="evenodd" clip-rule="evenodd" d="M142.243 97.0199C142.611 96.5898 147.146 93.2887 147.476 94.0304C148.336 95.9583 145.654 96.5524 144.021 97.2297C143.747 97.346 141.427 97.9714 142.243 97.0199Z" fill="#FFEBCA"/>
<path fill-rule="evenodd" clip-rule="evenodd" d="M143.259 99.5461C143.627 99.1161 148.162 95.815 148.492 96.5566C149.35 98.4845 146.67 99.0787 145.037 99.7559C144.763 99.8702 142.443 100.498 143.259 99.5461Z" fill="#FFEBCA"/>
<path fill-rule="evenodd" clip-rule="evenodd" d="M136.863 98.8273C137.025 98.5448 139.233 96.1889 139.501 96.5733C140.195 97.5705 138.743 98.1958 137.893 98.7546C137.75 98.8481 136.505 99.4526 136.863 98.8273Z" fill="#FEC66C"/>
<path fill-rule="evenodd" clip-rule="evenodd" d="M139.412 104.559C139.738 104.576 142.912 103.99 142.733 103.558C142.268 102.436 140.959 103.319 140.029 103.732C139.871 103.803 138.691 104.522 139.412 104.559Z" fill="#FEC66C"/>
<path fill-rule="evenodd" clip-rule="evenodd" d="M139.817 103.229C140.053 103.242 142.37 102.814 142.239 102.5C141.9 101.682 140.945 102.326 140.267 102.627C140.153 102.677 139.291 103.202 139.817 103.229Z" fill="#FEC66C"/>
<path fill-rule="evenodd" clip-rule="evenodd" d="M139.339 102.205C139.576 102.218 141.892 101.79 141.761 101.476C141.422 100.657 140.467 101.302 139.79 101.603C139.673 101.655 138.813 102.178 139.339 102.205Z" fill="#FEC66C"/>
<path fill-rule="evenodd" clip-rule="evenodd" d="M138.013 99.5066C138.169 99.3258 140.072 97.9401 140.209 98.2518C140.571 99.0599 139.445 99.3113 138.759 99.5938C138.645 99.6416 137.673 99.9055 138.013 99.5066Z" fill="#FEC66C"/>
<path fill-rule="evenodd" clip-rule="evenodd" d="M138.609 100.138C138.763 99.9575 140.666 98.5717 140.805 98.8834C141.165 99.6915 140.041 99.9429 139.355 100.225C139.241 100.275 138.267 100.539 138.609 100.138Z" fill="#FEC66C"/>
<path fill-rule="evenodd" clip-rule="evenodd" d="M139.036 101.198C139.191 101.017 141.094 99.6312 141.231 99.9428C141.593 100.751 140.467 101.002 139.781 101.285C139.667 101.335 138.693 101.599 139.036 101.198Z" fill="#FEC66C"/>
<path fill-rule="evenodd" clip-rule="evenodd" d="M148.862 94.2402C149.231 93.8102 153.765 90.509 154.095 91.2507C154.953 93.1786 152.273 93.7728 150.64 94.45C150.366 94.5643 148.045 95.1917 148.862 94.2402Z" fill="#FFEBCA"/>
<path fill-rule="evenodd" clip-rule="evenodd" d="M149.92 97.5663C150.485 97.5953 156 96.5774 155.691 95.8274C154.885 93.8788 152.608 95.414 150.992 96.1307C150.722 96.2512 148.669 97.5019 149.92 97.5663Z" fill="#FFEBCA"/>
<path fill-rule="evenodd" clip-rule="evenodd" d="M153.424 93.9182C153.578 93.7374 155.483 92.3518 155.62 92.6634C155.981 93.4715 154.855 93.7208 154.17 94.0054C154.056 94.0553 153.081 94.317 153.424 93.9182Z" fill="#FEC66C"/>
<path fill-rule="evenodd" clip-rule="evenodd" d="M148.074 91.8904C148.228 91.7097 150.131 90.3241 150.27 90.6357C150.63 91.4438 149.506 91.6952 148.82 91.9777C148.706 92.0276 147.734 92.2914 148.074 91.8904Z" fill="#FEC66C"/>
<path fill-rule="evenodd" clip-rule="evenodd" d="M145.557 91.1904C145.712 91.0096 147.613 89.624 147.752 89.9356C148.114 90.7437 146.988 90.9951 146.302 91.2776C146.188 91.3275 145.216 91.5892 145.557 91.1904Z" fill="#FEC66C"/>
<path fill-rule="evenodd" clip-rule="evenodd" d="M150.514 99.4858C150.669 99.3051 152.572 97.9194 152.709 98.231C153.071 99.0391 151.945 99.2905 151.259 99.573C151.145 99.6229 150.171 99.8847 150.514 99.4858Z" fill="#FEC66C"/>
<path fill-rule="evenodd" clip-rule="evenodd" d="M152.057 101.601C152.211 101.42 154.116 100.034 154.253 100.346C154.614 101.154 153.488 101.405 152.803 101.688C152.686 101.738 151.714 102.002 152.057 101.601Z" fill="#FEC66C"/>
<path fill-rule="evenodd" clip-rule="evenodd" d="M138.942 107.32C139.098 107.139 140.999 105.753 141.138 106.065C141.499 106.873 140.373 107.125 139.688 107.409C139.574 107.457 138.599 107.719 138.942 107.32Z" fill="#FEC66C"/>
<path fill-rule="evenodd" clip-rule="evenodd" d="M132.591 97.7781C132.745 97.5973 134.65 96.2116 134.787 96.5233C135.148 97.3314 134.022 97.5807 133.337 97.8653C133.222 97.9152 132.248 98.179 132.591 97.7781Z" fill="#FEC66C"/>
<path fill-rule="evenodd" clip-rule="evenodd" d="M126.049 95.3454C126.203 95.1646 128.106 93.779 128.245 94.0906C128.607 94.8987 127.481 95.148 126.795 95.4326C126.681 95.4825 125.706 95.7463 126.049 95.3454Z" fill="#FEC66C"/>
<path fill-rule="evenodd" clip-rule="evenodd" d="M132.743 93.3677C132.896 93.1869 134.802 91.8012 134.939 92.1129C135.3 92.921 134.174 93.1703 133.489 93.4549C133.372 93.5027 132.4 93.7665 132.743 93.3677Z" fill="#FEC66C"/>
<path fill-rule="evenodd" clip-rule="evenodd" d="M131.704 102.999C131.86 102.818 133.761 101.432 133.9 101.744C134.259 102.552 133.135 102.801 132.45 103.086C132.336 103.136 131.361 103.398 131.704 102.999Z" fill="#FEC66C"/>
</svg>
