<svg width="285" height="190" viewBox="0 0 285 190" fill="none" xmlns="http://www.w3.org/2000/svg">
<rect width="285" height="190" fill="#FFE8A2"/>
<path fill-rule="evenodd" clip-rule="evenodd" d="M150.64 133.812C150.085 137.839 155.633 156.523 157.015 157.476C165.632 158.22 162.045 158.573 157.595 158.73C156.853 158.755 164.957 160.63 163.23 161.775C162.605 162.19 156.988 159.145 156.73 158.948C156.37 158.67 159.79 162.928 158.832 163.22C157.238 162.073 154.633 158.263 154.518 157.94C154.078 156.693 140.203 134.892 141.278 134.537C141.318 134.524 143.431 136.794 144.273 136.619C144.641 136.544 143.506 132.324 143.928 132.494C144.443 132.702 146.183 136.154 146.733 136.177C147.243 136.197 146.226 132.407 146.638 132.519C147.338 132.712 148.965 136.027 149.53 136.064C150.498 136.129 150.705 133.339 150.64 133.812Z" fill="#522626"/>
<path fill-rule="evenodd" clip-rule="evenodd" d="M60.7675 145.044C61.1049 145.954 64.8022 146.279 66.9796 144.221C69.5945 141.747 96.7131 123.772 103.695 110.138C94.2157 114.85 59.225 140.897 60.7675 145.044Z" fill="#FEC66C"/>
<path fill-rule="evenodd" clip-rule="evenodd" d="M137.573 45.0366C127.614 61.0358 64.9772 154.778 59 151.381C72.5568 162.713 103.448 114.441 114.477 127.182C134.984 150.869 169.824 152.719 187.436 124.948C199.605 105.754 191.391 79.5323 194.546 60.4058C195.63 53.8187 190.583 42.2643 181.551 36.0646C169.354 27.685 149.248 26.2851 137.573 45.0366Z" fill="#F15F3D"/>
<path fill-rule="evenodd" clip-rule="evenodd" d="M101.298 128.22C117.327 146.736 150.897 151.701 172.884 139.534C179.024 136.137 183.593 131.01 187.436 124.947C199.605 105.753 191.39 79.5321 194.545 60.4056C195.63 53.8185 190.583 42.264 181.551 36.0619C180.911 35.6219 180.248 35.2044 179.569 34.8044C181.023 38.4493 181.603 41.9666 181.161 44.6564C178.006 63.7854 191.308 95.8713 179.139 115.065C161.529 142.836 121.601 135.119 101.095 111.433C101.095 111.433 90.8531 116.155 101.298 128.22Z" fill="#F5DB36"/>
<path fill-rule="evenodd" clip-rule="evenodd" d="M203.233 49.1013C202.788 48.8813 191.016 47.8514 190.248 48.7963C188.238 51.2687 190.566 58.4958 194.666 58.3783C196.575 58.3233 202.453 51.7236 203.233 49.1013Z" fill="#9C5A3B"/>
<path fill-rule="evenodd" clip-rule="evenodd" d="M202.687 49.394C198.658 51.9664 192.338 54.2188 187.671 53.6588C187.716 53.0264 188.011 51.1214 187.246 52.0314C187.233 52.0439 186.956 54.7988 186.956 54.8038C187.453 54.8563 187.478 54.1213 187.656 54.1463C188.356 54.2513 188.766 54.3213 189.586 54.3263C193.003 54.3438 200.7 52.3664 202.687 49.394Z" fill="#400000"/>
<path fill-rule="evenodd" clip-rule="evenodd" d="M163.104 57.2534C162.764 56.5934 162.089 54.1261 163.442 52.2112C165.319 49.5538 169.742 47.7939 172.261 51.9287C175.596 57.4059 167.094 64.973 163.104 57.2534Z" fill="white"/>
<path fill-rule="evenodd" clip-rule="evenodd" d="M164.377 56.2908C164.057 55.6933 163.377 53.4834 164.457 51.8485C165.957 49.5761 169.682 48.2062 172.012 51.966C175.099 56.9407 168.119 63.2754 164.377 56.2908Z" fill="#400000"/>
<path fill-rule="evenodd" clip-rule="evenodd" d="M168.589 55.321C168.464 55.0885 168.199 54.2235 168.622 53.5836C169.209 52.6961 170.664 52.1587 171.577 53.6286C172.784 55.5734 170.054 58.0533 168.589 55.321Z" fill="white"/>
<path fill-rule="evenodd" clip-rule="evenodd" d="M159.837 48.1889C163.765 39.8144 168.529 44.7441 164.69 45.2441C164.245 45.3016 160.25 47.624 159.837 48.1889Z" fill="#4A1600"/>
<path fill-rule="evenodd" clip-rule="evenodd" d="M130.554 137.139C129.999 141.167 135.546 159.851 136.929 160.803C145.546 161.548 141.958 161.901 137.509 162.058C136.766 162.083 144.871 163.958 143.143 165.103C142.518 165.518 136.901 162.473 136.644 162.276C136.284 161.998 139.704 166.255 138.749 166.548C137.154 165.4 134.549 161.591 134.434 161.268C133.994 160.021 120.12 138.219 121.194 137.864C121.234 137.852 123.347 140.122 124.189 139.947C124.557 139.872 123.422 135.652 123.844 135.822C124.359 136.029 126.099 139.482 126.652 139.504C127.162 139.524 126.144 135.734 126.557 135.847C127.257 136.039 128.884 139.354 129.449 139.392C130.412 139.454 130.619 136.664 130.554 137.139Z" fill="#522626"/>
<path fill-rule="evenodd" clip-rule="evenodd" d="M189.966 44.8241C188.988 47.229 186.161 49.2164 178.441 41.9742C168.969 33.0872 155.042 34.4371 143.048 38.1919C145.498 35.3045 149.53 32.8122 156.302 30.9073C159.247 30.0798 165.082 29.6773 167.572 28.8749C167.844 28.7874 166.932 27.395 167.194 27.31C167.559 27.1925 168.389 28.3324 168.737 28.2149C169.164 28.0699 166.974 24.8151 167.382 24.6876C167.737 24.5776 170.577 27.6749 170.904 27.5674C172.079 27.18 166.444 22.8077 167.517 23.1777C170.047 24.0451 172.611 25.505 173.614 26.655C172.681 24.9051 168.607 22.4177 170.514 23.1227C176.826 25.4626 187.178 38.4569 189.966 44.8241Z" fill="#BC8E50"/>
<path fill-rule="evenodd" clip-rule="evenodd" d="M168.727 36.1494C165.917 32.7996 161.64 35.3294 165.102 35.7169C166.107 35.8294 168.782 36.2144 168.727 36.1494ZM154.72 33.0745C152.063 31.4096 149.438 34.292 152.015 33.687C152.763 33.512 154.77 33.107 154.72 33.0745ZM161.76 33.492C161.802 33.542 159.797 33.252 159.045 33.167C156.455 32.877 159.657 30.9822 161.76 33.492ZM159.595 35.6194C159.65 35.6844 156.975 35.2994 155.97 35.1869C152.508 34.7994 156.785 32.2696 159.595 35.6194ZM190.223 48.9287C189.596 46.9038 187.438 47.0563 188.801 47.9638C189.196 48.2313 190.236 48.9687 190.223 48.9287ZM187.833 48.8737C187.846 48.9137 186.806 48.1737 186.411 47.9112C185.046 47.0013 187.206 46.8488 187.833 48.8737ZM188.531 45.0464C187.903 43.0215 185.746 43.174 187.108 44.084C187.506 44.3465 188.546 45.0864 188.531 45.0464ZM184.741 44.3065C184.114 42.2816 181.956 42.434 183.319 43.344C183.714 43.6065 184.754 44.344 184.741 44.3065ZM186.778 42.0915C185.749 38.7692 182.206 39.0192 184.444 40.5116C185.094 40.9441 186.801 42.159 186.778 42.0915ZM182.126 41.2066C180.614 38.1618 177.141 39.1217 179.579 40.1317C180.286 40.4241 182.156 41.2666 182.126 41.2066ZM179.471 36.8493C177.959 33.8045 174.487 34.7645 176.924 35.7744C177.631 36.0669 179.501 36.9068 179.471 36.8493ZM176.494 39.1442C176.534 39.1942 174.532 38.9042 173.779 38.8192C171.187 38.5292 174.389 36.6344 176.494 39.1442ZM172.744 33.1695C172.787 33.2195 170.782 32.9295 170.029 32.8445C167.437 32.5545 170.639 30.6622 172.744 33.1695ZM153.383 37.4318C151.28 34.922 148.075 36.8168 150.668 37.1068C151.42 37.1918 153.423 37.4818 153.383 37.4318ZM166.844 33.037C166.899 33.102 164.225 32.7171 163.22 32.6046C159.757 32.2171 164.035 29.6872 166.844 33.037ZM173.977 36.2319C174.032 36.2969 171.357 35.9119 170.352 35.7994C166.892 35.4119 171.169 32.882 173.977 36.2319Z" fill="#B07951"/>
<path fill-rule="evenodd" clip-rule="evenodd" d="M179.354 105.876C180.504 110.093 175.987 112.166 177.642 109.101C178.124 108.211 179.331 105.793 179.354 105.876ZM147.756 130.842C144.306 133.527 140.656 130.155 144.121 130.502C145.128 130.605 147.823 130.79 147.756 130.842ZM133.414 130.9C130.466 131.967 128.504 128.6 130.899 129.732C131.596 130.06 133.474 130.88 133.414 130.9ZM140.388 131.975C137.804 133.985 135.071 131.46 137.666 131.72C138.419 131.797 140.438 131.935 140.388 131.975ZM138.716 129.437C138.784 129.385 136.089 129.2 135.081 129.097C131.616 128.75 135.266 132.122 138.716 129.437ZM171.459 122.87C170.419 124.717 168.342 124.115 169.864 123.513C170.309 123.338 171.482 122.835 171.459 122.87ZM169.112 122.423C169.132 122.385 167.962 122.89 167.517 123.065C165.995 123.668 168.072 124.27 169.112 122.423ZM168.99 126.312C167.95 128.16 165.872 127.557 167.395 126.955C167.84 126.78 169.012 126.275 168.99 126.312ZM165.13 126.24C164.09 128.087 162.012 127.485 163.535 126.882C163.977 126.707 165.15 126.202 165.13 126.24ZM166.655 128.83C164.95 131.862 161.537 130.872 164.04 129.885C164.767 129.597 166.69 128.77 166.655 128.83ZM161.92 128.717C161.962 128.665 159.957 129.095 159.203 129.232C156.608 129.705 159.8 131.375 161.92 128.717ZM158.408 132.42C156.288 135.077 153.095 133.407 155.69 132.935C156.445 132.797 158.45 132.367 158.408 132.42ZM155.98 129.55C153.395 131.56 150.663 129.035 153.258 129.295C154.01 129.372 156.03 129.51 155.98 129.55ZM151.055 134.599C148.471 136.609 145.738 134.084 148.333 134.344C149.088 134.422 151.108 134.559 151.055 134.599ZM133.024 126.36C130.439 128.37 127.707 125.845 130.302 126.105C131.056 126.182 133.076 126.32 133.024 126.36ZM145.261 133.487C145.328 133.435 142.633 133.25 141.626 133.147C138.161 132.8 141.808 136.172 145.261 133.487ZM152.908 131.865C152.975 131.812 150.28 131.627 149.273 131.525C145.806 131.177 149.456 134.549 152.908 131.865ZM173.892 119.135C173.744 122.268 169.879 122.783 171.844 121.008C172.414 120.493 173.894 119.073 173.892 119.135ZM177.564 113.113C178.427 116.273 175.044 117.823 176.282 115.528C176.642 114.86 177.547 113.051 177.564 113.113ZM174.579 113.678C174.557 113.596 173.349 116.013 172.869 116.903C171.214 119.968 175.732 117.898 174.579 113.678ZM181.111 80.9298C182.416 82.5997 181.061 84.2846 181.091 82.6472C181.101 82.1722 181.086 80.8973 181.111 80.9298ZM179.796 82.9247C179.771 82.8922 179.786 84.1671 179.776 84.6421C179.744 86.2795 181.101 84.5946 179.796 82.9247ZM183.339 84.5321C184.644 86.202 183.289 87.8869 183.319 86.2495C183.326 85.7745 183.311 84.4996 183.339 84.5321ZM181.786 88.0694C183.091 89.7393 181.736 91.4242 181.766 89.7868C181.774 89.3119 181.759 88.0369 181.786 88.0694ZM184.764 87.6569C186.906 90.3968 184.681 93.1642 184.731 90.4768C184.746 89.6943 184.724 87.6019 184.764 87.6569ZM182.839 91.9842C184.476 94.9616 181.709 97.2664 182.269 94.6916C182.431 93.9416 182.806 91.9242 182.839 91.9842ZM184.906 96.6515C184.874 96.594 184.501 98.6089 184.336 99.3588C183.776 101.934 186.544 99.6288 184.906 96.6515ZM181.321 97.7889C182.184 100.949 178.799 102.499 180.039 100.204C180.401 99.5363 181.304 97.7264 181.321 97.7889ZM184.091 104.274C184.954 107.433 181.571 108.983 182.809 106.688C183.169 106.023 184.074 104.211 184.091 104.274ZM169.549 117.75C170.412 120.91 167.027 122.46 168.267 120.165C168.627 119.498 169.532 117.688 169.549 117.75ZM180.834 109.196C180.811 109.113 179.604 111.531 179.122 112.421C177.469 115.485 181.986 113.416 180.834 109.196ZM182.279 101.514C182.256 101.431 181.049 103.849 180.566 104.739C178.912 107.803 183.429 105.733 182.279 101.514Z" fill="#FEC66C"/>
<path fill-rule="evenodd" clip-rule="evenodd" d="M174.419 92.9169C175.477 98.0066 170.902 100.621 172.629 96.8667C173.134 95.7767 174.399 92.8169 174.419 92.9169ZM142.181 123.918C138.661 127.253 135.079 123.243 138.543 123.588C139.551 123.688 142.251 123.853 142.181 123.918ZM127.804 124.313C124.824 125.675 122.934 121.633 125.309 122.953C125.999 123.335 127.861 124.285 127.804 124.313ZM134.769 125.458C132.131 127.955 129.451 124.953 132.046 125.21C132.799 125.285 134.821 125.408 134.769 125.458ZM133.151 122.418C133.221 122.353 130.521 122.188 129.514 122.088C126.049 121.743 129.631 125.753 133.151 122.418ZM166.122 113.711C165.04 115.976 162.97 115.291 164.51 114.526C164.957 114.303 166.144 113.666 166.122 113.711ZM163.777 113.221C163.797 113.176 162.612 113.813 162.165 114.036C160.625 114.801 162.695 115.486 163.777 113.221ZM163.567 117.941C162.485 120.203 160.415 119.52 161.955 118.756C162.405 118.533 163.59 117.896 163.567 117.941ZM159.7 117.938C158.617 120.2 156.547 119.518 158.087 118.753C158.535 118.533 159.72 117.896 159.7 117.938ZM161.17 121.048C159.392 124.763 155.995 123.643 158.522 122.385C159.26 122.023 161.207 120.975 161.17 121.048ZM156.427 121.018C156.47 120.953 154.45 121.52 153.693 121.705C151.08 122.338 154.243 124.29 156.427 121.018ZM152.823 125.588C150.638 128.86 147.475 126.908 150.088 126.275C150.845 126.093 152.865 125.525 152.823 125.588ZM150.453 122.163C147.815 124.66 145.133 121.658 147.73 121.915C148.483 121.99 150.505 122.113 150.453 122.163ZM145.403 128.4C142.766 130.897 140.083 127.895 142.681 128.153C143.436 128.228 145.456 128.35 145.403 128.4ZM127.516 118.816C124.879 121.313 122.199 118.311 124.794 118.568C125.547 118.643 127.566 118.766 127.516 118.816ZM139.618 127.183C139.688 127.118 136.989 126.953 135.981 126.853C132.516 126.508 136.099 130.517 139.618 127.183ZM147.32 125.043C147.39 124.978 144.693 124.813 143.683 124.713C140.218 124.368 143.801 128.375 147.32 125.043ZM168.644 109.124C168.424 112.926 164.54 113.638 166.549 111.441C167.134 110.803 168.647 109.049 168.644 109.124ZM172.462 101.736C173.254 105.549 169.827 107.506 171.122 104.694C171.497 103.876 172.447 101.661 172.462 101.736ZM169.457 102.491C169.437 102.391 168.172 105.351 167.667 106.441C165.94 110.196 170.517 107.581 169.457 102.491ZM176.746 62.6184C178.016 64.6133 176.619 66.6907 176.686 64.7033C176.709 64.1234 176.721 62.5784 176.746 62.6184ZM175.384 65.0683C175.359 65.0283 175.344 66.5757 175.324 67.1532C175.257 69.1406 176.654 67.0632 175.384 65.0683ZM178.899 66.9382C180.169 68.9331 178.771 71.0105 178.839 69.0231C178.859 68.4456 178.871 66.8982 178.899 66.9382ZM177.261 71.263C178.531 73.2579 177.134 75.3353 177.201 73.3479C177.221 72.7704 177.236 71.223 177.261 71.263ZM180.256 70.6955C180.216 70.6305 180.191 73.1679 180.159 74.1178C180.049 77.3777 182.341 73.9703 180.256 70.6955ZM178.229 75.9877C179.804 79.5626 176.976 82.4224 177.596 79.2851C177.776 78.3701 178.196 75.9177 178.229 75.9877ZM180.194 81.5999C180.164 81.5299 179.741 83.9848 179.561 84.8973C178.941 88.0346 181.769 85.1773 180.194 81.5999ZM176.576 83.0624C177.369 86.8747 173.942 88.8321 175.237 86.0222C175.614 85.2048 176.561 82.9874 176.576 83.0624ZM179.204 90.867C179.996 94.6793 176.569 96.6367 177.864 93.8243C178.241 93.0094 179.189 90.792 179.204 90.867ZM164.322 107.541C165.115 111.353 161.687 113.311 162.982 110.498C163.36 109.683 164.307 107.466 164.322 107.541ZM175.829 96.9116C175.809 96.8117 174.542 99.7715 174.039 100.864C172.312 104.616 176.886 102.004 175.829 96.9116ZM177.451 87.5596C177.431 87.4596 176.166 90.4195 175.662 91.5094C173.934 95.2667 178.509 92.6519 177.451 87.5596Z" fill="#B07951"/>
<path fill-rule="evenodd" clip-rule="evenodd" d="M152.89 74.52C161.982 91.0092 154.208 104.563 138.268 113.508C123.504 121.795 109.135 129.305 92.2032 131.495C83.4537 132.627 96.913 123.35 97.4054 123.04C97.1854 123.198 69.6694 140.807 89.3334 123.592C97.8504 116.138 87.071 125.732 80.3938 128.532C77.9789 129.545 88.3834 120.673 86.2385 121.49C83.6011 122.498 78.8589 129.52 77.4015 128.717C77.3465 128.687 100.7 94.6365 113.2 77.9798C123.304 64.518 144.893 60.0183 152.89 74.52Z" fill="#BC8E50"/>
<path fill-rule="evenodd" clip-rule="evenodd" d="M91.7657 129.16C92.0607 127.01 109.98 114.935 111.89 114.345C102.163 119.575 92.7056 131.402 91.7657 129.16Z" fill="#B07951"/>
<path fill-rule="evenodd" clip-rule="evenodd" d="M85.0538 128.555C85.3488 126.405 103.268 114.33 105.178 113.74C95.4507 118.968 85.9937 130.795 85.0538 128.555Z" fill="#B07951"/>
<path fill-rule="evenodd" clip-rule="evenodd" d="M81.2089 125.64C81.5039 123.49 99.423 111.416 101.333 110.826C91.6059 116.055 82.1489 127.882 81.2089 125.64Z" fill="#B07951"/>
<path fill-rule="evenodd" clip-rule="evenodd" d="M98.8631 128.375C101.538 129.805 120.544 119.303 121.727 117.613C113.015 124.4 96.3807 125.46 98.8631 128.375Z" fill="#B07951"/>
<path fill-rule="evenodd" clip-rule="evenodd" d="M144.995 100.121C144.335 99.0687 149.773 92.0291 150.415 91.5991C151.723 90.7267 148.575 98.9112 144.995 100.121Z" fill="#FFD78F"/>
<path fill-rule="evenodd" clip-rule="evenodd" d="M141.213 100.916C140.553 99.8639 145.991 92.8218 146.633 92.3943C145.831 95.7266 144.793 99.7039 141.213 100.916Z" fill="#FFD78F"/>
<path fill-rule="evenodd" clip-rule="evenodd" d="M136.701 101.699C136.041 100.646 141.478 93.6042 142.121 93.1768C141.316 96.5066 140.281 100.486 136.701 101.699Z" fill="#FFD78F"/>
<path fill-rule="evenodd" clip-rule="evenodd" d="M132.429 101.619C131.769 100.566 137.206 93.5239 137.849 93.0964C137.046 96.4288 136.009 100.409 132.429 101.619Z" fill="#FFD78F"/>
<path fill-rule="evenodd" clip-rule="evenodd" d="M129.596 100.091C129.109 99.3161 133.116 94.1314 133.589 93.814C132.996 96.2688 132.234 99.2012 129.596 100.091Z" fill="#FFD78F"/>
<path fill-rule="evenodd" clip-rule="evenodd" d="M125.514 100.996C125.026 100.221 129.034 95.0365 129.504 94.719C128.914 97.1714 128.149 100.104 125.514 100.996Z" fill="#FFD78F"/>
<path fill-rule="evenodd" clip-rule="evenodd" d="M121.952 101.001C121.464 100.226 125.472 95.0416 125.942 94.7241C125.352 97.179 124.589 100.109 121.952 101.001Z" fill="#FFD78F"/>
<path fill-rule="evenodd" clip-rule="evenodd" d="M118.197 100.874C117.71 100.099 121.717 94.9139 122.189 94.5964C121.597 97.0513 120.835 99.9811 118.197 100.874Z" fill="#FFD78F"/>
<path fill-rule="evenodd" clip-rule="evenodd" d="M136.678 91.004C136.003 89.8991 139.888 83.5644 140.391 83.2095C141.411 82.492 139.601 90.1965 136.678 91.004Z" fill="#FFD78F"/>
<path fill-rule="evenodd" clip-rule="evenodd" d="M133.539 91.3817C132.864 90.2768 136.749 83.9421 137.251 83.5896C136.921 86.7744 136.461 90.5742 133.539 91.3817Z" fill="#FFD78F"/>
<path fill-rule="evenodd" clip-rule="evenodd" d="M129.777 91.6691C129.102 90.5642 132.986 84.2295 133.489 83.8745C133.159 87.0618 132.699 90.8616 129.777 91.6691Z" fill="#FFD78F"/>
<path fill-rule="evenodd" clip-rule="evenodd" d="M126.127 91.1367C125.452 90.0317 129.336 83.697 129.839 83.342C129.509 86.5319 129.049 90.3292 126.127 91.1367Z" fill="#FFD78F"/>
<path fill-rule="evenodd" clip-rule="evenodd" d="M123.549 89.3369C123.052 88.5245 125.914 83.8572 126.281 83.5972C126.041 85.9421 125.701 88.7394 123.549 89.3369Z" fill="#FFD78F"/>
<path fill-rule="evenodd" clip-rule="evenodd" d="M120.167 89.7865C119.67 88.9741 122.532 84.3069 122.902 84.0469C122.657 86.3942 122.319 89.1916 120.167 89.7865Z" fill="#FFD78F"/>
<path fill-rule="evenodd" clip-rule="evenodd" d="M117.132 89.4145C116.634 88.602 119.497 83.9348 119.864 83.6748C119.622 86.0222 119.284 88.8195 117.132 89.4145Z" fill="#FFD78F"/>
<path fill-rule="evenodd" clip-rule="evenodd" d="M113.917 88.8891C113.42 88.0767 116.282 83.4094 116.649 83.1494C116.41 85.4968 116.07 88.2942 113.917 88.8891Z" fill="#FFD78F"/>
<path fill-rule="evenodd" clip-rule="evenodd" d="M185.061 122.473C185.679 128.057 180.134 129.02 182.551 125.835C183.254 124.907 185.049 122.363 185.061 122.473ZM176.554 136.847C175.859 140.642 171.327 139.922 173.887 138.432C174.629 137.999 176.569 136.772 176.554 136.847ZM181.789 130.735C182.251 134.917 178.099 135.637 179.909 133.252C180.436 132.56 181.781 130.652 181.789 130.735ZM178.262 130.387C178.249 130.277 176.454 132.824 175.752 133.749C173.334 136.934 178.879 135.972 178.262 130.387ZM191.266 92.4416C192.488 94.949 190.646 96.5464 190.956 94.5465C191.046 93.964 191.241 92.3916 191.266 92.4416ZM189.418 94.434C190.641 96.9414 188.799 98.5388 189.109 96.5389C189.196 95.9564 189.394 94.384 189.418 94.434ZM193.223 97.6488C194.443 100.156 192.603 101.754 192.913 99.7537C193.001 99.1687 193.198 97.5988 193.223 97.6488ZM190.843 101.449C192.063 103.956 190.223 105.553 190.533 103.554C190.623 102.971 190.821 101.399 190.843 101.449ZM194.341 101.984C196.346 106.101 193.323 108.721 193.831 105.436C193.978 104.483 194.301 101.904 194.341 101.984ZM191.398 106.626C192.783 110.858 189.214 112.721 190.291 109.751C190.603 108.888 191.373 106.543 191.398 106.626ZM192.996 113.083C194.381 117.315 190.811 119.178 191.888 116.208C192.198 115.345 192.968 113.001 192.996 113.083ZM188.684 113.226C189.146 117.408 184.994 118.128 186.804 115.745C187.329 115.05 188.674 113.143 188.684 113.226ZM190.778 122.163C191.241 126.345 187.089 127.065 188.899 124.68C189.426 123.987 190.771 122.08 190.778 122.163ZM171.792 133.627C171.782 133.544 170.44 135.452 169.912 136.144C168.102 138.529 172.254 137.807 171.792 133.627ZM186.209 127.07C186.196 126.96 184.401 129.507 183.699 130.432C181.281 133.617 186.826 132.655 186.209 127.07ZM189.159 118.138C189.146 118.028 187.351 120.575 186.649 121.5C184.231 124.685 189.773 123.722 189.159 118.138Z" fill="#FFD78F"/>
<path fill-rule="evenodd" clip-rule="evenodd" d="M123.544 111.196C123.152 110.016 130.104 104.466 130.829 104.201C132.306 103.661 127.309 110.868 123.544 111.196Z" fill="#FEC66C"/>
<path fill-rule="evenodd" clip-rule="evenodd" d="M119.682 111.07C119.289 109.89 126.241 104.341 126.966 104.076C125.396 107.123 123.447 110.743 119.682 111.07Z" fill="#FEC66C"/>
<path fill-rule="evenodd" clip-rule="evenodd" d="M115.11 110.761C114.717 109.581 121.669 104.031 122.394 103.766C120.827 106.811 118.877 110.433 115.11 110.761Z" fill="#FEC66C"/>
<path fill-rule="evenodd" clip-rule="evenodd" d="M110.98 109.673C110.587 108.493 117.54 102.944 118.264 102.679C116.695 105.724 114.745 109.343 110.98 109.673Z" fill="#FEC66C"/>
<path fill-rule="evenodd" clip-rule="evenodd" d="M108.59 107.518C108.3 106.651 113.422 102.561 113.955 102.366C112.8 104.608 111.363 107.276 108.59 107.518Z" fill="#FEC66C"/>
<path fill-rule="evenodd" clip-rule="evenodd" d="M104.408 107.426C104.118 106.558 109.24 102.468 109.772 102.273C108.617 104.518 107.182 107.183 104.408 107.426Z" fill="#FEC66C"/>
<path fill-rule="evenodd" clip-rule="evenodd" d="M100.948 106.588C100.658 105.721 105.78 101.631 106.313 101.436C105.158 103.678 103.723 106.345 100.948 106.588Z" fill="#FEC66C"/>
<path fill-rule="evenodd" clip-rule="evenodd" d="M97.3303 105.573C97.0403 104.706 102.163 100.616 102.695 100.421C101.54 102.666 100.103 105.333 97.3303 105.573Z" fill="#FEC66C"/>
</svg>
