<svg width="285" height="190" viewBox="0 0 285 190" fill="none" xmlns="http://www.w3.org/2000/svg">
<rect width="285" height="190" fill="#FFF8EF"/>
<path d="M172.204 70.825C162.054 116.268 86.483 111.247 89.6034 61.6073C90.6435 44.9653 98.57 29.8296 114.1 24.4138C140.283 15.3037 173.746 32.8783 173.28 62.0377C173.208 64.9788 172.85 67.9198 172.204 70.825Z" fill="#BF2226"/>
<path d="M112.989 41.0558C111.841 41.0917 125.363 56.5143 124.394 58.7022C123.426 60.9259 106.568 73.8378 106.568 74.4476C106.568 75.0573 127.12 64.6202 128.268 65.6961C129.415 66.7721 131.675 86.7857 132.966 87.0367C134.293 87.2878 134.975 64.9788 136.409 64.0104C137.844 63.042 153.769 62.8627 154.773 61.428C155.777 59.9934 138.346 57.8055 138.346 56.4784C138.346 55.1155 140.462 37.6485 139.386 35.9628C138.346 34.2771 132.5 53.2863 131.603 52.8918C130.742 52.4973 114.71 41.02 112.989 41.0558Z" fill="#779831"/>
<path d="M134.329 60.3878C134.078 61.679 132.858 62.5398 131.567 62.2887C130.276 62.0377 129.415 60.8182 129.666 59.527C129.917 58.2358 131.137 57.375 132.428 57.6261C133.719 57.8771 134.58 59.0966 134.329 60.3878Z" fill="#9EBD48"/>
<path d="M144.695 136.247C134.544 181.69 58.9736 176.668 62.094 127.029C63.1341 110.387 71.0606 95.2515 86.5908 89.8356C112.773 80.7255 146.237 98.3001 145.771 127.46C145.699 130.437 145.34 133.378 144.695 136.247Z" fill="#ED2C24"/>
<path d="M85.4787 106.513C84.3309 106.549 97.8527 121.972 96.8843 124.16C95.9159 126.383 79.0586 139.295 79.0586 139.905C79.0586 140.515 99.6101 130.078 100.758 131.154C101.906 132.23 104.165 152.243 105.456 152.494C106.783 152.745 107.465 130.436 108.9 129.468C110.334 128.5 126.259 128.32 127.263 126.886C128.267 125.451 110.836 123.263 110.836 121.936C110.836 120.573 112.952 103.106 111.876 101.42C110.836 99.7346 104.99 118.744 104.093 118.349C103.197 117.955 87.2003 106.442 85.4787 106.513Z" fill="#779831"/>
<path d="M106.819 125.81C106.568 127.101 105.349 127.962 104.058 127.711C102.766 127.46 101.906 126.24 102.157 124.949C102.408 123.658 103.627 122.797 104.918 123.048C106.21 123.299 107.07 124.554 106.819 125.81Z" fill="#9EBD48"/>
<path d="M223.063 130.651C213.953 171.395 146.165 166.912 148.963 122.402C149.895 107.445 156.997 93.8877 170.913 89.0458C194.405 80.8682 224.426 96.6495 223.995 122.796C223.96 125.45 223.637 128.069 223.063 130.651Z" fill="#ED2C24"/>
<path d="M169.944 104.001C168.904 104.037 181.027 117.846 180.166 119.818C179.306 121.791 164.17 133.412 164.17 133.95C164.17 134.488 182.605 125.127 183.645 126.095C184.686 127.063 186.694 144.997 187.878 145.248C189.061 145.463 189.671 125.449 190.998 124.589C192.289 123.728 206.564 123.549 207.461 122.293C208.358 121.038 192.72 119.065 192.72 117.846C192.72 116.626 194.621 100.953 193.652 99.4462C192.72 97.9398 187.483 115.012 186.658 114.618C185.869 114.223 171.487 103.93 169.944 104.001Z" fill="#779831"/>
<path d="M189.097 121.326C188.882 122.474 187.77 123.227 186.622 123.012C185.475 122.796 184.722 121.685 184.937 120.537C185.152 119.389 186.264 118.636 187.412 118.851C188.559 119.066 189.312 120.178 189.097 121.326Z" fill="#9EBD48"/>
</svg>
