<svg width="285" height="190" viewBox="0 0 285 190" fill="none" xmlns="http://www.w3.org/2000/svg">
<rect width="285" height="190" fill="#C0E7EE"/>
<path fill-rule="evenodd" clip-rule="evenodd" d="M193.289 47.2236C184.256 47.2236 178.266 54.5458 179.913 63.5789C181.556 72.6119 190.214 79.9342 199.248 79.9342C208.281 79.9342 214.271 72.6119 212.624 63.5789C210.981 54.5458 202.327 47.2236 193.289 47.2236ZM113.826 15.2201C98.9716 13.3497 83.2459 23.6054 78.6974 38.1176C74.1489 52.6343 82.5022 65.9147 97.3566 67.7852C112.211 69.6557 127.937 59.4 132.485 44.8878C137.034 30.371 128.68 17.0906 113.826 15.2201ZM167.44 21.3745C176.473 21.3745 185.132 28.6967 186.775 37.7298C188.422 46.7628 182.431 54.0851 173.398 54.0851C164.365 54.0851 155.706 46.7628 154.064 37.7298C152.417 28.6967 158.407 21.3745 167.44 21.3745Z" fill="#1F4359"/>
<path fill-rule="evenodd" clip-rule="evenodd" d="M142.759 31.6436C102.434 31.6436 69.7466 64.3313 69.7466 104.656C69.7466 135.049 88.3191 161.104 114.734 172.098C120.108 174.334 164.667 174.557 169.909 172.459C196.789 161.688 215.776 135.391 215.776 104.661C215.772 64.3313 183.084 31.6436 142.759 31.6436Z" fill="#1F4359"/>
<path fill-rule="evenodd" clip-rule="evenodd" d="M73.0494 126.418C73.9847 129.415 75.107 132.33 76.4072 135.15C99.4643 133.859 129.209 143.704 151.304 139.995C176.263 135.802 192.368 113.438 207.377 107.07C209.991 105.961 212.806 105.112 215.772 104.451C215.767 103.643 215.749 102.841 215.721 102.038C197.751 104.871 192.267 109.588 179.817 119.132C163.982 131.267 142.631 135.77 110.331 129.917C99.3274 127.923 88.506 126.436 77.6207 125.761L75.253 126.048C74.5048 126.144 73.7703 126.267 73.0494 126.418Z" fill="#2A5066"/>
<path fill-rule="evenodd" clip-rule="evenodd" d="M193.289 47.2227C184.256 47.2227 178.266 54.5449 179.913 63.578C180.15 64.8736 180.529 66.1328 181.035 67.3417C191.638 62.3462 200.917 59.2804 210.402 57.5833C206.907 51.5156 200.21 47.2227 193.289 47.2227ZM184.092 49.2939C181.884 51.9947 178.567 53.7511 174.571 54.0431C176.186 53.0075 177.819 52.0722 179.484 51.2647C181.072 50.4983 182.605 49.8505 184.092 49.2939Z" fill="#2A5066"/>
<path fill-rule="evenodd" clip-rule="evenodd" d="M73.8613 80.4528C72.6341 83.952 71.6624 87.5743 70.9735 91.2925C77.3377 91.2195 84.1216 91.2697 91.4211 91.3792C139.962 92.1091 148.931 83.4821 176.345 69.6314C185.1 65.2107 192.874 62.0582 200.443 59.8958C196.985 55.4431 193.02 51.4056 188.64 47.8608C185.766 48.5999 182.732 49.6948 179.484 51.2642C159.926 60.7215 145.026 87.9347 104.692 85.4301C93.2003 84.7184 83.0495 82.7932 73.8613 80.4528Z" fill="#2A5066"/>
<path fill-rule="evenodd" clip-rule="evenodd" d="M172.153 22.0264C168.873 23.8786 165.392 26.0137 161.345 28.459C158.959 29.9006 156.509 31.21 153.982 32.3961C153.708 34.0659 153.722 35.8634 154.064 37.7293C154.205 38.5185 154.406 39.2895 154.652 40.0468C163.462 35.4573 171.523 29.9828 178.964 25.4297C176.911 23.8786 174.594 22.7016 172.153 22.0264ZM133.671 38.66C118.762 41.1418 101.335 39.9191 80.2165 34.2529C79.6234 35.5029 79.1125 36.794 78.6973 38.1216C78.1727 39.7959 77.8214 41.4566 77.6298 43.0852C93.9622 46.8262 110.409 50.663 124.903 49.4722C126.974 49.3034 129.013 49.0206 131.016 48.6511C131.586 47.4375 132.079 46.1829 132.485 44.8918C133.147 42.775 133.534 40.6901 133.671 38.66Z" fill="#2A5066"/>
<path fill-rule="evenodd" clip-rule="evenodd" d="M109.692 39.545C105.363 41.7485 101.284 44.3671 97.507 47.3554C107.037 49.1163 116.312 50.1748 124.903 49.4676C139.506 48.2678 152.422 41.7439 163.973 34.7775C160.679 33.7784 157.289 33.0028 153.818 32.4736C141.345 38.2721 127.001 40.8589 109.692 39.545Z" fill="#2A5066"/>
<path fill-rule="evenodd" clip-rule="evenodd" d="M172.368 27.3056C167.212 24.8694 161.154 26.7992 158.836 31.6168C157.354 34.6963 176.054 43.4419 177.505 40.4309C179.822 35.6133 177.523 29.7372 172.368 27.3056Z" fill="#C87D70"/>
<path fill-rule="evenodd" clip-rule="evenodd" d="M166.783 26.293C163.407 26.5895 160.337 28.4965 158.836 31.6124C157.354 34.6919 176.054 43.4375 177.505 40.4265C177.733 39.9566 177.915 39.473 178.052 38.9849C175.351 35.1298 169.375 31.7995 167.139 30.8414C165.255 30.0431 164.922 28.1863 166.783 26.293Z" fill="#BF6355"/>
<path fill-rule="evenodd" clip-rule="evenodd" d="M169.612 33.0263C163.594 30.1841 157.732 29.924 156.519 32.4469C155.305 34.9698 159.196 39.3175 165.214 42.1597C171.231 45.0019 177.094 45.262 178.307 42.7391C179.525 40.2162 175.629 35.8685 169.612 33.0263Z" fill="#C87D70"/>
<path fill-rule="evenodd" clip-rule="evenodd" d="M168.987 34.3268C163.617 31.7902 158.562 31.2017 157.696 33.0083C156.824 34.8149 160.474 38.3323 165.839 40.8643C171.204 43.4009 176.264 43.9894 177.13 42.1828C178.002 40.3807 174.352 36.8588 168.987 34.3268Z" fill="#914F48"/>
<path fill-rule="evenodd" clip-rule="evenodd" d="M171.122 37.8526C171.532 37.7066 171.907 37.9621 171.957 38.4229C172.007 38.8882 171.71 39.3809 171.3 39.5315C169.831 40.0561 169.607 42.1091 169.375 44.2852C168.982 47.8939 168.558 51.7626 163.777 52.4652C163.366 52.5245 163.051 52.1869 163.079 51.7033C163.106 51.2197 163.462 50.7817 163.873 50.7224C167.253 50.2251 167.582 47.2096 167.887 44.3947C168.198 41.5114 168.494 38.7924 171.122 37.8526Z" fill="#D69F95"/>
<path fill-rule="evenodd" clip-rule="evenodd" d="M172.691 39.6326C173.015 39.2676 173.49 39.2311 173.741 39.5505C173.996 39.8698 173.937 40.4264 173.608 40.7914C173.052 41.4118 173.179 42.6801 173.33 44.1491C173.658 47.3974 175.438 48.4512 170.246 51.9504C169.863 52.2105 169.425 52.0873 169.274 51.6767C169.124 51.2661 169.311 50.7232 169.699 50.4632C173.823 47.6894 172.112 47.3472 171.843 44.6783C171.647 42.6984 171.473 40.9967 172.691 39.6326Z" fill="#D69F95"/>
<path fill-rule="evenodd" clip-rule="evenodd" d="M168.115 35.0701C168.531 34.9424 168.891 35.2206 168.923 35.6905C168.955 36.1604 168.645 36.644 168.229 36.7763C166.227 37.3968 165.456 40.2208 164.835 42.5931C164.119 45.3075 163.325 48.3231 160.56 50.5631C160.191 50.8642 159.739 50.7912 159.552 50.408C159.365 50.0248 159.511 49.4728 159.876 49.1717C162.089 47.3833 162.782 44.7464 163.407 42.3741C164.196 39.3768 165.109 36.0008 168.115 35.0701Z" fill="#D69F95"/>
<path fill-rule="evenodd" clip-rule="evenodd" d="M164.639 33.3546C165.036 33.131 165.456 33.2953 165.574 33.7287C165.693 34.1621 165.871 34.1301 165.474 34.3537C163.873 35.2616 162.394 37.9669 161.842 39.9195C161.071 42.6431 160.227 45.6359 156.792 47.7846C156.4 48.031 155.971 47.8896 155.834 47.4699C155.697 47.0501 155.902 46.5118 156.29 46.2655C159.041 44.541 159.762 41.9907 160.419 39.664C161.108 37.2461 162.303 34.6776 164.639 33.3546Z" fill="#D69F95"/>
<path fill-rule="evenodd" clip-rule="evenodd" d="M161.281 32.8439C161.601 32.4652 162.075 32.4059 162.34 32.7116C162.609 33.0173 162.887 33.0903 162.572 33.4689C161.509 34.7418 160.392 35.8275 159.384 36.813C158.895 37.292 158.43 37.7391 158.024 38.1634C156.715 39.5274 155.985 40.6406 156.815 41.7994C157.057 42.137 156.975 42.6936 156.637 43.0449C156.3 43.3961 155.83 43.4098 155.592 43.0722C154.023 40.8778 155.113 39.0758 157.157 36.9407C157.591 36.4891 158.065 36.0283 158.562 35.5401C159.525 34.6049 160.278 34.0437 161.281 32.8439Z" fill="#D69F95"/>
<path fill-rule="evenodd" clip-rule="evenodd" d="M157.696 33.0037C157.636 33.1314 157.595 33.2637 157.582 33.4051C157.723 33.3823 157.883 33.3413 158.061 33.282C160.05 32.5976 158.95 33.4873 160.177 34.3039C161.405 35.1205 162.312 33.7473 163.239 33.8522C164.16 33.9572 163.033 35.9599 164.73 36.1105C166.428 36.2565 167.066 34.7282 167.431 35.9645C167.801 37.2009 167.933 37.6571 169.543 37.6114C171.158 37.5658 171.286 36.8359 171.482 38.4098C171.679 39.9838 172.044 40.659 173.873 40.0796C175.702 39.5002 174.995 41.0969 175.593 42.1325C176.026 42.8853 176.743 42.7074 177.103 42.2329C177.112 42.2147 177.121 42.201 177.13 42.1827C178.262 39.8332 173.011 35.9736 167.673 33.7154C163.17 31.8175 158.613 31.0967 157.696 33.0037Z" fill="#BF6355"/>
<path fill-rule="evenodd" clip-rule="evenodd" d="M168.919 29.0758C168.923 28.948 168.832 28.8477 168.709 28.8477C168.617 28.8522 168.531 28.9161 168.494 29.0028C168.335 29.3312 168.307 29.6871 168.394 29.9973C168.481 30.3167 168.686 30.5858 168.992 30.7364C169.293 30.8869 169.635 30.8869 169.94 30.7683C170.246 30.6497 170.524 30.4079 170.689 30.0749C170.748 29.9563 170.707 29.8194 170.602 29.7692C170.497 29.719 170.36 29.7692 170.305 29.8878C170.196 30.1022 170.018 30.2619 169.817 30.3395C169.621 30.417 169.407 30.417 169.211 30.3258C169.201 30.3212 169.192 30.3167 169.188 30.3121C168.996 30.2117 168.868 30.0384 168.814 29.8376C168.759 29.6369 168.777 29.4042 168.877 29.1944C168.905 29.1533 168.919 29.1168 168.919 29.0758Z" fill="#2C516C"/>
<path fill-rule="evenodd" clip-rule="evenodd" d="M174.357 32.1324C174.361 32.0047 174.27 31.9043 174.147 31.9043C174.055 31.9089 173.969 31.9727 173.932 32.0594C173.773 32.3879 173.745 32.7437 173.832 33.0585C173.919 33.3779 174.124 33.647 174.43 33.7976H174.434C174.735 33.9481 175.077 33.9481 175.383 33.825C175.689 33.7063 175.967 33.4646 176.131 33.1315C176.149 33.0996 176.159 33.0631 176.159 33.0311C176.163 32.9034 176.072 32.803 175.949 32.803C175.857 32.8076 175.775 32.8669 175.739 32.9536C175.629 33.1634 175.456 33.314 175.26 33.3916C175.064 33.4691 174.849 33.4691 174.653 33.3779C174.644 33.3733 174.635 33.3687 174.63 33.3642C174.443 33.2638 174.311 33.0905 174.256 32.8897C174.201 32.689 174.215 32.4563 174.32 32.2465C174.343 32.21 174.357 32.1735 174.357 32.1324Z" fill="#2C516C"/>
<path fill-rule="evenodd" clip-rule="evenodd" d="M166.432 27.5154C166.117 27.5245 165.844 27.7754 165.83 28.0765C165.816 28.3776 166.058 28.6103 166.377 28.6012C166.697 28.5921 166.966 28.3411 166.98 28.04C166.993 27.7435 166.747 27.5063 166.432 27.5154Z" fill="#BF6355"/>
<path fill-rule="evenodd" clip-rule="evenodd" d="M167.395 26.6671C167.623 26.6625 167.796 26.8131 167.787 27.0093C167.778 27.2054 167.586 27.3697 167.358 27.3742C167.13 27.3834 166.957 27.2282 166.966 27.0321C166.975 26.8359 167.171 26.6717 167.395 26.6671Z" fill="#BF6355"/>
<path fill-rule="evenodd" clip-rule="evenodd" d="M166.674 29.085C166.409 29.0942 166.181 29.2812 166.172 29.5048C166.158 29.7283 166.368 29.9017 166.633 29.8925C166.897 29.8834 167.121 29.6964 167.135 29.4774C167.144 29.2538 166.938 29.0805 166.674 29.085Z" fill="#BF6355"/>
<path fill-rule="evenodd" clip-rule="evenodd" d="M165.424 28.5648C165.729 28.5557 165.967 28.7245 165.953 28.9435C165.939 29.1624 165.684 29.3449 165.383 29.3541C165.077 29.3632 164.84 29.1944 164.853 28.9754C164.863 28.7564 165.118 28.5739 165.424 28.5648Z" fill="#BF6355"/>
<path fill-rule="evenodd" clip-rule="evenodd" d="M175.274 29.801C175.187 29.7189 175.05 29.728 174.963 29.8238C174.877 29.9196 174.877 30.0701 174.963 30.1523C175.78 30.9552 176.674 32.2052 177.149 33.7427C177.509 34.9015 177.628 36.229 177.299 37.6524C177.272 37.7802 177.34 37.8988 177.459 37.9216C177.577 37.9398 177.696 37.8577 177.723 37.73C178.079 36.2108 177.952 34.8011 177.568 33.5693C177.066 31.9543 176.127 30.645 175.274 29.801Z" fill="#D69F95"/>
<path fill-rule="evenodd" clip-rule="evenodd" d="M178.034 42.1096C178.029 42.2373 178.12 42.3377 178.243 42.3377C178.362 42.3331 178.467 42.2282 178.476 42.0959C178.531 41.0648 178.066 39.9836 177.285 38.9297C176.396 37.7253 175.086 36.5529 173.672 35.5401C173.152 35.166 172.682 34.8329 172.262 34.5592C171.829 34.2764 171.437 34.0437 171.076 33.8794C170.967 33.8293 170.835 33.884 170.78 34.0026C170.725 34.1212 170.766 34.2581 170.876 34.3083C171.218 34.468 171.596 34.6915 172.012 34.9607C172.445 35.2435 172.901 35.5674 173.408 35.9324C174.79 36.927 176.067 38.0675 176.93 39.2354C177.65 40.2117 178.079 41.1971 178.034 42.1096Z" fill="#D69F95"/>
<path fill-rule="evenodd" clip-rule="evenodd" d="M106.782 157.053C106.782 154.27 106.558 144.927 100.217 134.917C93.8757 124.903 89.7606 116.787 93.9897 107.554C100.477 93.3835 90.9878 85.9609 90.9878 100.099C90.9878 105.327 88.8756 105.884 87.7624 113.115C86.6492 120.346 86.8728 126.573 92.6576 132.582C98.4424 138.59 101.225 145.488 101.668 150.269C102.11 155.05 106.782 157.053 106.782 157.053Z" fill="#3E706C"/>
<path fill-rule="evenodd" clip-rule="evenodd" d="M114.679 163.946C112.453 158.162 108.228 155.269 98.2144 147.482C79.5506 132.965 73.743 123.348 77.3197 100.665C79.6054 86.1755 68.0495 89.9073 68.0997 102.421C68.1863 125.077 67.8944 133.407 91.0974 146.373C98.6615 150.602 103.11 153.714 105.112 160.612C107.115 167.509 112.453 171.51 115.569 170.178C118.685 168.842 114.679 163.946 114.679 163.946Z" fill="#518C80"/>
<path fill-rule="evenodd" clip-rule="evenodd" d="M118.251 43.3919C119.789 40.8964 125.122 35.8506 126.805 37.4109C127.184 37.7622 126.783 44.1172 123.922 48.0589C121.354 51.5946 118.895 49.9978 118.251 43.3919Z" fill="#508B9D"/>
<path fill-rule="evenodd" clip-rule="evenodd" d="M100.633 24.3671C95.7374 24.3671 88.3969 29.2622 87.0602 37.3829C86.9872 37.8254 86.9324 38.2542 86.8822 38.6831L86.8686 38.6648C86.5948 38.8063 86.239 39.4085 86.3257 39.8236C86.3667 40.0289 86.5492 40.622 86.7317 41.1877C86.6633 60.0522 111.568 62.9902 118.247 47.082C121.322 39.7506 118.279 31.5023 111.308 27.3507C108.343 25.5852 105.14 23.7649 100.633 24.3671Z" fill="#FFFAD7"/>
<path fill-rule="evenodd" clip-rule="evenodd" d="M90.2763 30.1522C88.3054 32.6386 88.4332 33.8247 86.1156 35.9096C85.5636 36.4069 85.924 37.5383 86.8957 38.5785C86.8912 38.615 86.8866 38.6515 86.882 38.688C87.0235 38.7883 87.1694 38.8887 87.32 38.9891C87.7443 39.3632 88.2461 39.7144 88.8118 39.9973C89.0126 40.0977 89.2178 40.1935 89.4186 40.2756C96.9598 44.4545 108.242 46.471 118.698 45.8642C124.73 27.5563 101.18 16.3699 90.2763 30.1522Z" fill="#65A3AF"/>
<path fill-rule="evenodd" clip-rule="evenodd" d="M103.301 39.1622C102.786 40.1933 101.408 40.7179 102.357 42.1641C103.301 43.6103 102.526 43.9981 101.522 43.9981C100.523 43.9981 100.801 45.2755 100.523 46.1104C99.8889 48.0082 93.8714 44.1988 95.8468 40.1294C97.4755 36.7808 103.717 38.3319 103.301 39.1622Z" fill="#EADAB7"/>
<path fill-rule="evenodd" clip-rule="evenodd" d="M108.119 50.1023C109.314 49.97 110.364 50.6315 110.468 51.5804C110.573 52.5294 109.688 53.4007 108.498 53.533C107.302 53.6653 106.253 53.0038 106.148 52.0549C106.043 51.106 106.924 50.2346 108.119 50.1023Z" fill="#EADAB7"/>
<path d="M101.075 55.0977C102.159 55.0977 103.037 54.4012 103.037 53.542C103.037 52.6828 102.159 51.9863 101.075 51.9863C99.9917 51.9863 99.1134 52.6828 99.1134 53.542C99.1134 54.4012 99.9917 55.0977 101.075 55.0977Z" fill="#EADAB7"/>
<path fill-rule="evenodd" clip-rule="evenodd" d="M94.9982 48.706C95.9654 49.1987 96.4307 50.2206 96.0384 50.987C95.646 51.7535 94.5466 51.9725 93.5794 51.4797C92.6122 50.987 92.1469 49.9651 92.5392 49.1987C92.9316 48.4322 94.0356 48.2132 94.9982 48.706Z" fill="#EADAB7"/>
<path fill-rule="evenodd" clip-rule="evenodd" d="M92.1652 43.4736C92.9773 44.126 93.2191 45.1707 92.7035 45.8185C92.188 46.4618 91.1113 46.4572 90.2993 45.8094C89.4872 45.1616 89.2454 44.1123 89.7609 43.4645C90.2765 42.8212 91.3531 42.8258 92.1652 43.4736Z" fill="#EADAB7"/>
<path fill-rule="evenodd" clip-rule="evenodd" d="M100.628 47.1048C101.664 47.2188 102.425 47.9761 102.334 48.7973C102.243 49.6185 101.331 50.1888 100.299 50.0747C99.2639 49.9607 98.502 49.2033 98.5932 48.3822C98.6845 47.5655 99.5969 46.9907 100.628 47.1048Z" fill="#EADAB7"/>
<path fill-rule="evenodd" clip-rule="evenodd" d="M112.293 47.1142C113.283 46.7903 114.292 47.1644 114.547 47.949C114.803 48.7337 114.209 49.6325 113.224 49.9564C112.234 50.2803 111.226 49.9062 110.97 49.1215C110.71 48.3368 111.303 47.4381 112.293 47.1142Z" fill="#EADAB7"/>
<path fill-rule="evenodd" clip-rule="evenodd" d="M95.9472 34.9975C96.0977 34.8788 96.3167 34.9062 96.4353 35.0568C96.5266 35.1754 96.5311 35.3305 96.4581 35.4491C96.2163 35.9281 95.8057 36.2657 95.3358 36.4254C94.8568 36.5896 94.3139 36.5714 93.8212 36.3296L93.8166 36.325C93.3285 36.0833 92.9818 35.6681 92.8221 35.1891C92.6579 34.71 92.6761 34.1672 92.9179 33.6744C92.9407 33.6243 92.9772 33.5832 93.0137 33.5558C93.1643 33.4372 93.3832 33.4646 93.5019 33.6151C93.5931 33.7292 93.5977 33.8843 93.5292 34.0029C93.3832 34.3177 93.3741 34.6599 93.479 34.9655C93.584 35.2712 93.803 35.5358 94.1086 35.6909C94.1223 35.6955 94.136 35.7046 94.1497 35.7092C94.4645 35.8551 94.8066 35.8643 95.1123 35.7593C95.418 35.6544 95.6826 35.4354 95.8422 35.1298C95.8605 35.0841 95.897 35.034 95.9472 34.9975Z" fill="#2C516C"/>
<path fill-rule="evenodd" clip-rule="evenodd" d="M90.0117 33.7059C89.9661 33.8839 89.7791 33.9933 89.6012 33.9477C89.4232 33.9021 89.3137 33.7151 89.3594 33.5371C92.5164 26.0233 100.514 23.8791 106.431 25.7541C106.609 25.8089 106.705 26.0005 106.65 26.1784C106.595 26.3563 106.404 26.4521 106.226 26.3974C103.383 25.4941 99.8295 25.4941 96.6086 26.8946C93.5565 28.2222 90.7736 30.85 90.0117 33.7059Z" fill="#9DC4D6"/>
<path fill-rule="evenodd" clip-rule="evenodd" d="M106.686 31.5622C105.847 31.1836 105.409 30.335 105.71 29.669C106.011 29.0029 106.933 28.7702 107.772 29.1489C108.612 29.5275 109.05 30.3715 108.749 31.0422C108.447 31.7082 107.526 31.9409 106.686 31.5622Z" fill="#508B9D"/>
<path fill-rule="evenodd" clip-rule="evenodd" d="M112.07 33.0629C111.353 32.6386 111.043 31.8357 111.381 31.27C111.714 30.6997 112.567 30.5857 113.283 31.0054C114 31.4297 114.31 32.2326 113.972 32.7983C113.639 33.3686 112.791 33.4872 112.07 33.0629Z" fill="#508B9D"/>
<path fill-rule="evenodd" clip-rule="evenodd" d="M114.812 37.5976C114.364 36.895 114.456 36.0373 115.012 35.686C115.569 35.3347 116.381 35.6176 116.828 36.3202C117.275 37.0227 117.184 37.8804 116.627 38.2317C116.066 38.583 115.254 38.3001 114.812 37.5976Z" fill="#508B9D"/>
<path fill-rule="evenodd" clip-rule="evenodd" d="M114.643 42.1592C114.36 41.411 114.611 40.6263 115.199 40.4028C115.792 40.1793 116.5 40.599 116.782 41.3472C117.065 42.0954 116.814 42.88 116.226 43.1036C115.637 43.3271 114.93 42.9029 114.643 42.1592Z" fill="#508B9D"/>
<path fill-rule="evenodd" clip-rule="evenodd" d="M110.469 36.4616C109.83 35.9826 109.62 35.1842 109.999 34.6778C110.377 34.1714 111.203 34.1486 111.842 34.6277C112.48 35.1067 112.69 35.9051 112.312 36.4115C111.928 36.9179 111.107 36.9407 110.469 36.4616Z" fill="#508B9D"/>
<path fill-rule="evenodd" clip-rule="evenodd" d="M102.763 31.9129C101.983 31.7395 101.463 31.1008 101.6 30.4849C101.737 29.869 102.476 29.5041 103.256 29.6774C104.036 29.8508 104.556 30.4895 104.419 31.1054C104.287 31.7213 103.543 32.0817 102.763 31.9129Z" fill="#508B9D"/>
<path fill-rule="evenodd" clip-rule="evenodd" d="M138.927 172.737C136.035 161.391 139.374 156.273 150.939 151.159C162.509 146.04 160.059 140.926 164.288 132.472C168.517 124.018 175.41 122.905 184.311 123.795C193.212 124.684 194.658 117.344 197.66 122.016C200.662 126.687 196.994 133.471 188.54 135.811C180.087 138.147 173.969 138.257 170.406 146.158C166.847 154.055 163.731 153.499 155.387 155.835C147.043 158.171 142.818 160.283 142.148 165.735C141.482 171.186 142.704 171.852 142.704 171.852L138.927 172.737Z" fill="#518C80"/>
<path fill-rule="evenodd" clip-rule="evenodd" d="M140.706 169.849C140.72 170.037 140.578 170.196 140.391 170.21C140.204 170.224 140.045 170.082 140.031 169.895C139.858 167.345 139.798 164.617 140.647 162.13C141.505 159.617 143.275 157.372 146.751 155.839C147.668 155.433 148.658 155.018 149.634 154.607C155.278 152.23 160.469 150.045 162.472 145.269C163.677 142.394 165.346 138.777 167.317 135.665C169.311 132.522 171.628 129.894 174.115 129.064C179.001 127.435 185.926 128.703 185.949 128.708C186.132 128.74 186.255 128.913 186.218 129.1C186.186 129.283 186.008 129.406 185.826 129.374C185.808 129.37 179.047 128.133 174.325 129.707C172.012 130.478 169.808 133.001 167.883 136.03C165.935 139.096 164.288 142.682 163.093 145.533C160.98 150.561 155.666 152.801 149.89 155.232C148.964 155.625 148.028 156.017 147.016 156.464C143.745 157.906 142.079 160.009 141.281 162.354C140.478 164.717 140.537 167.368 140.706 169.849Z" fill="#5DA291"/>
<path fill-rule="evenodd" clip-rule="evenodd" d="M162.176 171.848C164.621 166.729 168.964 160.725 184.202 160.388C199.439 160.055 208.673 152.714 208.116 148.485C207.56 144.256 202.332 141.363 196.994 144.703C191.656 148.038 195.215 147.819 186.98 148.152C178.75 148.485 177.86 151.601 176.077 154.493C174.297 157.386 167.513 156.606 163.061 160.611C158.613 164.617 158.832 172.623 158.832 172.623L162.176 171.848Z" fill="#5DA291"/>
<path fill-rule="evenodd" clip-rule="evenodd" d="M161.4 170.42C161.35 170.598 161.167 170.708 160.985 170.657C160.807 170.607 160.697 170.42 160.747 170.242C161.304 168.226 162.563 165.096 165.291 162.496C167.148 160.726 169.68 159.206 173.125 158.449C175.469 157.934 177.956 157.464 180.424 156.994C186.638 155.812 192.701 154.658 196.268 152.874C201.227 150.397 203.23 147.609 203.239 147.6C203.349 147.45 203.559 147.418 203.709 147.527C203.86 147.637 203.892 147.847 203.782 147.997C203.778 148.006 201.679 150.922 196.569 153.476C192.915 155.306 186.806 156.465 180.552 157.655C178.111 158.121 175.647 158.591 173.271 159.111C169.963 159.836 167.536 161.291 165.761 162.984C163.143 165.475 161.934 168.481 161.4 170.42Z" fill="#3E706C"/>
<path fill-rule="evenodd" clip-rule="evenodd" d="M179.708 101.039C181.934 110.829 189.498 121.509 202.624 121.728C215.749 121.951 229.321 111.271 229.321 111.271C229.321 111.271 215.749 113.274 211.301 105.487C206.853 97.6991 201.068 96.1434 194.17 96.8095C187.272 97.4755 186.606 93.251 186.606 93.251L179.708 101.039Z" fill="#5E9575"/>
<path fill-rule="evenodd" clip-rule="evenodd" d="M179.708 101.039C181.934 110.829 189.498 121.509 202.624 121.728C212.884 121.901 223.418 115.414 227.528 112.572C225.708 113.046 223.482 113.457 220.799 113.685C211.191 114.483 208.331 106.937 201.009 102.59C193.686 98.242 188.997 100.418 186.711 96.1845C185.844 96.075 185.023 95.9975 184.229 95.9336L179.708 101.039Z" fill="#507E62"/>
<path fill-rule="evenodd" clip-rule="evenodd" d="M102.384 101.381C114.227 130.643 181.419 120.743 188.038 93.8169C191.373 80.2446 169.794 80.6916 169.794 80.6916C169.794 80.6916 122.631 90.0304 102.384 101.381Z" fill="#EADAB7"/>
<path fill-rule="evenodd" clip-rule="evenodd" d="M165.848 97.2615C174.63 100.984 187.044 98.58 189.544 91.6729C192.327 83.9994 182.979 83.5523 182.09 83.5523C176.825 83.5523 168.476 83.5021 164.055 86.4994C160.246 89.0771 159.347 94.506 165.848 97.2615Z" fill="#FFFAD7"/>
<path fill-rule="evenodd" clip-rule="evenodd" d="M207.396 69.455C203.609 47.3013 177.568 47.9673 174.525 68.4559C173.613 74.5966 169.014 76.2937 166.669 80.3996C165.871 81.8002 164.466 82.9225 164.178 84.2501C163.959 85.2674 164.958 88.5841 165.515 89.4783C169.174 95.3544 187.45 97.3754 192.213 80.8057C192.213 80.8057 199.22 81.2528 202.222 76.2435C206.424 69.2406 202.003 70.7872 207.396 69.455Z" fill="#76B17F"/>
<path fill-rule="evenodd" clip-rule="evenodd" d="M171.802 71.344C138.306 58.5837 92.9633 91.9558 101.992 102.8C110.359 112.855 144.256 115.688 157.563 103.826C167.796 94.7067 158.676 78.4655 171.802 71.344Z" fill="#76B17F"/>
<path fill-rule="evenodd" clip-rule="evenodd" d="M158.654 68.5789C156.377 68.4375 154.087 68.4557 151.801 68.6063C151.286 68.8298 150.893 69.1035 150.601 69.4183C150.104 69.9567 149.899 70.5771 149.908 71.2523C149.11 71.0607 148.325 70.9421 147.595 70.9102C146.482 70.8645 145.474 71.0242 144.68 71.4348C143.813 71.8819 143.206 72.6118 142.992 73.6703C142.974 73.7569 142.96 73.8436 142.946 73.9348C142.522 73.5106 142.066 73.1639 141.582 72.8992C140.852 72.5023 140.077 72.3016 139.26 72.3381C138.452 72.3746 137.631 72.6346 136.806 73.1593C135.66 73.8847 134.502 75.1301 133.388 76.9915C133.192 76.5763 132.905 76.2387 132.54 75.9741C132.002 75.5818 131.308 75.3674 130.528 75.3217C129.401 75.2533 128.06 75.5453 126.737 76.1794C125.14 76.9459 123.539 78.1412 122.125 79.3638C122.029 79.1996 121.878 79.0627 121.673 78.9623C121.422 78.8346 121.093 78.7844 120.706 78.7981C120.414 78.8118 120.072 78.862 119.693 78.9487C118.502 79.6467 117.357 80.3675 116.253 81.0974C116.258 81.1065 116.262 81.1157 116.271 81.1294C116.454 81.4533 116.864 81.5719 117.188 81.3894C118.488 80.6595 119.834 80.2124 120.669 80.1485C120.619 80.1987 120.564 80.258 120.5 80.3219C118.52 82.3018 117.918 83.1458 117.914 83.1504C117.818 83.2827 117.777 83.4424 117.786 83.5929C114.802 86.6632 112.558 90.6186 110.4 94.4189C109.241 96.4627 108.105 98.4564 106.919 100.213C106.709 100.518 106.791 100.938 107.097 101.148C107.402 101.358 107.822 101.276 108.032 100.97C109.264 99.1498 110.404 97.1425 111.572 95.0895C113.716 91.3121 115.952 87.3749 118.872 84.4141C119.013 84.2727 119.173 84.1039 119.36 83.9123C120.884 82.3292 124.182 78.903 127.321 77.3975C128.434 76.8638 129.538 76.6174 130.45 76.6721C130.98 76.7041 131.427 76.8364 131.751 77.0736C132.038 77.2835 132.234 77.5891 132.298 77.9952C132.371 78.4559 132.289 79.0445 132.011 79.7744C131.641 80.7416 131.153 82.3794 130.555 84.3776C129.132 89.1359 127.079 96.0111 124.702 100.4C124.597 100.473 124.511 100.582 124.46 100.715C124.419 100.82 124.387 100.92 124.351 101.025C123.096 103.178 121.76 104.597 120.386 104.624C120.012 104.634 119.72 104.939 119.725 105.309C119.734 105.678 120.04 105.975 120.409 105.97C121.673 105.947 122.864 105.122 123.977 103.776C124.187 106.144 125.847 107.225 125.856 107.229C126.167 107.435 126.582 107.353 126.792 107.042C126.997 106.732 126.915 106.317 126.609 106.107C126.605 106.103 124.419 104.684 125.719 101.18L125.724 101.171C128.315 96.5677 130.396 89.615 131.846 84.7608C132.435 82.7945 132.914 81.1841 133.27 80.2534C134.068 78.1731 135.665 75.4951 137.526 74.3135C138.147 73.9212 138.749 73.725 139.315 73.6976C139.876 73.6748 140.419 73.8117 140.934 74.0945C141.692 74.5097 142.39 75.2259 142.996 76.1749C144.954 79.2634 145.912 85.0528 145.738 90.6414C145.579 95.8605 144.438 100.856 142.212 103.228C139.319 106.312 138.133 106.714 138.133 106.714C137.782 106.837 137.599 107.225 137.723 107.572C137.846 107.923 138.233 108.105 138.585 107.982C138.589 107.982 140.081 107.476 143.197 104.15C145.661 101.522 146.92 96.189 147.089 90.6779C147.262 85.0939 146.322 79.2771 144.401 75.8875C144.415 75.8053 144.415 75.7186 144.392 75.632C144.237 74.9522 144.219 74.3956 144.31 73.944C144.433 73.3281 144.789 72.9038 145.296 72.6438C145.875 72.3427 146.655 72.2332 147.545 72.2697C149.023 72.329 150.757 72.8034 152.381 73.5379C156.957 75.5955 158.695 76.2935 158.699 76.2935C159.046 76.4303 159.438 76.2661 159.575 75.9194C159.712 75.5727 159.548 75.1803 159.201 75.0435C159.197 75.0435 157.513 74.3683 152.937 72.3107C152.403 72.0689 151.856 71.8545 151.304 71.6675C151.213 71.1474 151.281 70.6912 151.596 70.349C152.043 69.8654 152.965 69.5141 154.552 69.359L158.097 69.0169C158.353 68.9758 158.562 68.807 158.654 68.5789Z" fill="#679F79"/>
<path fill-rule="evenodd" clip-rule="evenodd" d="M161.738 109.716C163.622 112.705 163.467 115.629 163.006 119.502C160.698 138.951 145.04 156.474 125.642 160.283C120.282 161.337 115.61 161.036 113.064 159.001C113.064 159.001 126.481 154.772 125.815 145.429C125.149 136.086 123.306 127.632 133.097 121.624C142.887 115.615 149.466 114.306 149.466 114.306C148.07 113.918 147.426 114.931 147.664 114.192C149.078 109.707 158.348 104.329 161.738 109.716Z" fill="#76B17F"/>
<path fill-rule="evenodd" clip-rule="evenodd" d="M161.738 109.716C163.622 112.704 163.467 115.628 163.006 119.502C160.698 138.95 145.04 156.473 125.642 160.283C121.313 161.136 117.43 161.099 114.757 159.981C117.782 159.849 121.637 159.201 126.322 157.491C139.475 152.687 151.259 138.503 155.26 127.636C159.265 116.769 160.693 109.848 158.061 109.848C158.061 109.843 156.263 109.456 155.146 109.483C152.705 109.538 150.25 109.843 153.891 108.279C156.824 107.02 160.027 107.001 161.738 109.716Z" fill="#5E9575"/>
<path fill-rule="evenodd" clip-rule="evenodd" d="M105.5 112.727C105.5 112.727 97.7126 109.388 89.706 110.948C81.6949 112.504 75.9101 121.181 69.0167 127.855C62.1187 134.53 57 133.859 57 133.859C57 133.859 74.5779 140.981 96.604 130.743C109.67 124.671 114.985 118.754 117.147 114.949C121.824 106.714 107.129 112.54 105.5 112.727Z" fill="#76B17F"/>
<path fill-rule="evenodd" clip-rule="evenodd" d="M166.902 70.7556C163.093 71.8322 160.948 74.7018 159.79 81.2439C158.229 90.0306 161.993 102.216 153.649 106.441C145.305 110.67 162.125 106.048 164.685 97.3757C167.244 88.6985 161.236 86.5862 168.467 78.9081C170.273 76.9875 172.267 74.6197 172.523 72.3934C172.655 71.2027 170.15 69.834 166.902 70.7556Z" fill="#FFFAD7"/>
<path fill-rule="evenodd" clip-rule="evenodd" d="M151.623 107.622C149.278 109.456 162.445 104.971 164.68 97.3754C167.24 88.6982 161.231 86.5859 168.462 78.9078C170.269 76.9872 172.263 74.6194 172.518 72.3931C172.555 72.0783 172.409 71.7544 172.112 71.4624C172.586 72.571 172.139 73.7115 169.151 76.28C165.091 79.7701 162.801 83.1415 163.033 89.492C163.261 95.8379 162.062 100.989 158.398 103.676C156.044 105.405 153.289 106.824 151.623 107.622Z" fill="#EADAB7"/>
<path fill-rule="evenodd" clip-rule="evenodd" d="M192.067 61.6904C192.044 61.3436 192.304 61.0425 192.655 61.0152C192.925 60.9969 193.162 61.1475 193.271 61.3756C193.741 62.2241 193.828 63.1822 193.595 64.0536C193.353 64.9386 192.774 65.7324 191.916 66.2251L191.907 66.2297C191.05 66.7178 190.078 66.8137 189.193 66.5719C188.308 66.3301 187.514 65.7507 187.021 64.893C186.971 64.8063 186.944 64.7151 186.939 64.6238C186.916 64.2771 187.176 63.976 187.528 63.9486C187.792 63.9304 188.029 64.0764 188.139 64.2999C188.458 64.8382 188.965 65.2032 189.53 65.3538C190.091 65.5089 190.712 65.4496 191.264 65.1485C191.287 65.1348 191.31 65.1211 191.332 65.1074C191.871 64.7881 192.236 64.2817 192.386 63.7205C192.537 63.1594 192.482 62.5389 192.181 61.9869C192.112 61.9048 192.076 61.8044 192.067 61.6904Z" fill="#2C516C"/>
<path fill-rule="evenodd" clip-rule="evenodd" d="M190.844 72.3381C190.716 72.2012 190.726 71.9868 190.862 71.8636C190.999 71.7359 191.214 71.745 191.337 71.8819C192.062 72.6666 193.841 73.5562 195.717 73.798C197.09 73.9759 198.499 73.798 199.558 72.9585C200.023 72.589 200.457 72.2332 200.854 71.9047C202.719 70.3672 203.86 69.4229 205.981 69.3271C206.168 69.3179 206.324 69.4639 206.333 69.651C206.342 69.838 206.196 69.9931 206.009 70.0023C204.111 70.0889 203.034 70.9786 201.278 72.4293C200.885 72.7532 200.461 73.1045 199.973 73.4923C198.755 74.4549 197.163 74.6648 195.634 74.4686C193.604 74.204 191.656 73.214 190.844 72.3381Z" fill="#679F79"/>
<path fill-rule="evenodd" clip-rule="evenodd" d="M101.235 97.1567C99.6332 97.6129 98.6021 98.0144 98.8896 98.9861C99.177 99.9578 100.833 104.306 109.186 107.91C117.535 111.514 145.218 115.118 154.023 106.422C162.833 97.7315 158.371 90.0671 160.314 81.0295C161.989 73.2465 166.254 71.8276 168.426 70.9243C170.337 70.1305 169.945 68.3194 168.394 67.6533C166.715 66.937 163.594 67.5712 161.459 69.0174C157.572 71.6497 152.08 78.055 153.339 88.1191C156.628 114.443 115.172 106.838 101.235 97.1567Z" fill="#5E9575"/>
<path fill-rule="evenodd" clip-rule="evenodd" d="M102.019 98.931C101.878 98.8124 101.86 98.598 101.978 98.4565C102.097 98.3151 102.311 98.2969 102.453 98.4155C103.949 99.6746 107.936 102.106 113.808 104.004C117.686 105.259 122.376 106.276 127.704 106.573C134.502 106.947 139.885 106.39 143.982 105.122C148.371 103.762 151.268 101.586 152.828 98.858C154.187 96.4903 154.142 94.1773 154.064 90.4774C154.028 88.7209 153.987 86.6543 154.082 84.136C154.165 81.9963 154.607 79.7746 155.647 77.5163C156.683 75.2672 158.316 72.9906 160.784 70.7324C163.188 68.5334 164.89 68.1502 164.895 68.1502C165.077 68.1091 165.255 68.2186 165.301 68.4011C165.342 68.5836 165.228 68.7615 165.05 68.8072C165.045 68.8072 163.512 69.1539 161.24 71.2297C158.845 73.4195 157.267 75.6276 156.259 77.7991C155.259 79.9662 154.835 82.1012 154.753 84.1588C154.657 86.668 154.698 88.7209 154.735 90.4637C154.812 94.2822 154.858 96.6636 153.412 99.1911C151.765 102.065 148.74 104.351 144.173 105.765C140.004 107.056 134.543 107.622 127.663 107.243C122.271 106.947 117.521 105.916 113.598 104.643C107.635 102.713 103.561 100.222 102.019 98.931Z" fill="#76B17F"/>
<path fill-rule="evenodd" clip-rule="evenodd" d="M166.501 81.371C166.523 81.3117 166.551 81.2478 166.574 81.1885C166.528 81.257 166.482 81.3208 166.437 81.3847C165.223 83.1731 164.808 84.6512 164.749 86.07C164.726 86.6494 164.758 87.2151 164.822 87.79C165.059 88.5199 165.314 89.154 165.515 89.4734C168.449 94.1861 180.78 96.417 188.007 88.5746C188.517 88.0181 189.006 87.4113 189.462 86.7498C190.57 85.1439 191.497 83.0818 192.167 80.8099C190.648 80.6365 189.257 80.2077 187.596 79.1538C182.432 99.3732 161.92 91.7362 166.501 81.371Z" fill="#679F79"/>
<path fill-rule="evenodd" clip-rule="evenodd" d="M144.726 116.117C144.552 116.176 144.356 116.085 144.297 115.911C144.215 115.679 149.397 113.881 149.963 113.726C151.537 113.293 152.869 113.014 154.023 112.905C154.21 112.887 154.37 113.024 154.388 113.211C154.406 113.398 154.27 113.557 154.083 113.576C152.974 113.681 151.678 113.95 150.141 114.374C148.599 114.803 146.81 115.387 144.726 116.117Z" fill="#5E9575"/>
<path fill-rule="evenodd" clip-rule="evenodd" d="M102.64 123.521C94.0127 129.416 65.1252 135.168 57.0319 133.864C57.0137 133.864 57 133.859 57 133.859C57 133.859 74.5779 140.981 96.604 130.743C109.355 124.817 114.725 119.041 116.988 115.227C117.042 115.131 117.097 115.04 117.147 114.949C119.771 110.328 116.299 110.131 112.457 110.884C114.437 116.774 107.663 120.086 102.64 123.521Z" fill="#5E9575"/>
<path fill-rule="evenodd" clip-rule="evenodd" d="M195.922 55.0342C196.095 55.098 196.186 55.2942 196.118 55.4676C196.05 55.6409 195.858 55.7322 195.685 55.6637C195.105 55.4448 194.526 55.2668 193.946 55.1254C190.338 54.2358 186.93 54.8426 184.106 56.5214C181.277 58.2003 179.033 60.9558 177.755 64.3546C177.514 64.9979 177.308 65.664 177.139 66.3528C177.094 66.5353 176.911 66.6448 176.733 66.5992C176.551 66.5536 176.441 66.3711 176.487 66.1932C176.66 65.4815 176.875 64.788 177.13 64.1174C178.458 60.5726 180.807 57.6985 183.768 55.9375C186.738 54.1765 190.319 53.5332 194.111 54.4685C194.704 54.619 195.31 54.8061 195.922 55.0342Z" fill="#A0C8A8"/>
<path fill-rule="evenodd" clip-rule="evenodd" d="M104.008 113.995C104.186 114.054 104.278 114.251 104.214 114.424C104.154 114.602 103.958 114.693 103.785 114.629C97.6488 112.494 93.26 112.147 89.5373 113.251C85.8146 114.355 82.726 116.919 79.204 120.606C79.0763 120.738 78.8618 120.747 78.7295 120.619C78.5972 120.492 78.5881 120.277 78.7159 120.145C82.3154 116.377 85.4861 113.753 89.3457 112.608C93.2098 111.459 97.7263 111.81 104.008 113.995Z" fill="#A0C8A8"/>
<path fill-rule="evenodd" clip-rule="evenodd" d="M127.626 142.021C127.626 142.208 127.476 142.358 127.289 142.358C127.102 142.358 126.951 142.208 126.951 142.021C126.951 141.66 126.942 141.332 126.938 140.958C126.851 136.838 126.664 127.937 133.055 123.781C139.944 119.301 147.385 116.213 147.408 116.203C147.581 116.13 147.777 116.213 147.85 116.386C147.923 116.559 147.841 116.755 147.668 116.824C147.645 116.833 140.259 119.903 133.425 124.342C127.344 128.293 127.531 136.943 127.613 140.939C127.617 141.386 127.626 141.774 127.626 142.021Z" fill="#A0C8A8"/>
<path fill-rule="evenodd" clip-rule="evenodd" d="M188.691 97.4939C188.518 97.4209 188.445 97.2202 188.518 97.0514C188.591 96.8826 188.791 96.805 188.96 96.878C189.553 97.1381 190.621 97.2978 191.862 97.3662C193.217 97.4392 194.763 97.3981 196.113 97.2521C198.823 96.9556 201.611 97.7768 204.061 99.2504C206.73 100.856 209.006 103.233 210.347 105.779C210.434 105.943 210.37 106.148 210.206 106.235C210.042 106.322 209.836 106.258 209.75 106.094C208.463 103.653 206.278 101.367 203.714 99.8252C201.383 98.4246 198.741 97.6445 196.186 97.9182C194.804 98.0688 193.221 98.1098 191.83 98.0323C190.516 97.9638 189.362 97.7859 188.691 97.4939Z" fill="#A0C8A8"/>
<path fill-rule="evenodd" clip-rule="evenodd" d="M104.081 94.9802C103.972 95.1308 103.762 95.1627 103.611 95.0578C103.461 94.9483 103.429 94.7384 103.534 94.5879C109.237 86.7273 117.106 80.4543 126.044 76.0975C135.25 71.6083 145.588 69.1448 155.848 69.0581C156.035 69.0581 156.186 69.2041 156.186 69.3911C156.186 69.5782 156.04 69.7287 155.853 69.7287C145.693 69.8154 135.455 72.2562 126.336 76.7043C117.503 81.0109 109.72 87.2109 104.081 94.9802Z" fill="#A0C8A8"/>
<path fill-rule="evenodd" clip-rule="evenodd" d="M138.193 148.166C139.255 147.381 140.492 147.249 140.953 147.874C141.413 148.499 140.921 149.64 139.853 150.424C138.786 151.209 137.554 151.341 137.093 150.716C136.637 150.091 137.13 148.951 138.193 148.166Z" fill="#5E9575"/>
<path fill-rule="evenodd" clip-rule="evenodd" d="M144.142 141.988C145.209 141.204 146.441 141.071 146.902 141.696C147.358 142.321 146.87 143.462 145.802 144.247C144.739 145.031 143.503 145.164 143.042 144.539C142.586 143.914 143.079 142.773 144.142 141.988Z" fill="#5E9575"/>
<path fill-rule="evenodd" clip-rule="evenodd" d="M139.543 143.111C140.309 142.408 141.258 142.203 141.669 142.65C142.079 143.097 141.792 144.028 141.026 144.726C140.259 145.428 139.31 145.634 138.9 145.187C138.489 144.739 138.776 143.809 139.543 143.111Z" fill="#5E9575"/>
<path fill-rule="evenodd" clip-rule="evenodd" d="M147.855 135.282C148.777 134.333 149.972 134 150.528 134.539C151.085 135.077 150.789 136.286 149.867 137.235C148.945 138.184 147.75 138.517 147.194 137.979C146.637 137.436 146.934 136.231 147.855 135.282Z" fill="#5E9575"/>
<path fill-rule="evenodd" clip-rule="evenodd" d="M150.789 129.671C151.336 128.79 152.194 128.334 152.709 128.653C153.225 128.973 153.202 129.944 152.654 130.829C152.107 131.71 151.249 132.166 150.734 131.847C150.218 131.527 150.241 130.556 150.789 129.671Z" fill="#5E9575"/>
<path fill-rule="evenodd" clip-rule="evenodd" d="M80.3673 129.529C81.5808 129.507 82.5753 130.063 82.589 130.775C82.6027 131.487 81.631 132.08 80.4175 132.103C79.2039 132.125 78.2094 131.569 78.1957 130.857C78.1774 130.145 79.1537 129.552 80.3673 129.529Z" fill="#5E9575"/>
<path fill-rule="evenodd" clip-rule="evenodd" d="M88.0956 128.056C89.3091 128.033 90.3036 128.59 90.3173 129.301C90.331 130.013 89.3593 130.606 88.1457 130.629C86.9322 130.652 85.9377 130.095 85.924 129.383C85.9103 128.672 86.882 128.079 88.0956 128.056Z" fill="#5E9575"/>
<path fill-rule="evenodd" clip-rule="evenodd" d="M84.0581 126.454C85.0024 126.336 85.8236 126.687 85.892 127.239C85.9605 127.791 85.2533 128.334 84.309 128.457C83.3646 128.576 82.5434 128.224 82.475 127.672C82.402 127.12 83.1137 126.573 84.0581 126.454Z" fill="#5E9575"/>
<path fill-rule="evenodd" clip-rule="evenodd" d="M94.4324 124.999C95.6277 124.776 96.6998 125.164 96.8275 125.862C96.9598 126.56 96.0976 127.308 94.9023 127.531C93.707 127.755 92.6349 127.372 92.5072 126.674C92.3794 125.966 93.2417 125.223 94.4324 124.999Z" fill="#5E9575"/>
<path fill-rule="evenodd" clip-rule="evenodd" d="M99.6013 122.353C100.477 121.984 101.362 122.098 101.581 122.609C101.8 123.12 101.266 123.836 100.391 124.21C99.5146 124.579 98.6296 124.465 98.4106 123.954C98.1916 123.439 98.7254 122.723 99.6013 122.353Z" fill="#5E9575"/>
<path fill-rule="evenodd" clip-rule="evenodd" d="M211.511 113.411C210.945 113.27 210.557 112.891 210.639 112.558C210.721 112.23 211.246 112.075 211.807 112.216C212.373 112.357 212.761 112.736 212.679 113.069C212.596 113.398 212.072 113.548 211.511 113.411Z" fill="#5E9575"/>
<path fill-rule="evenodd" clip-rule="evenodd" d="M203.376 108.872C202.642 107.905 202.505 106.773 203.071 106.345C203.636 105.916 204.69 106.349 205.425 107.316C206.159 108.284 206.296 109.415 205.73 109.844C205.165 110.273 204.111 109.839 203.376 108.872Z" fill="#5E9575"/>
<path fill-rule="evenodd" clip-rule="evenodd" d="M208.418 111.016C207.765 110.323 207.56 109.456 207.966 109.073C208.372 108.69 209.23 108.941 209.882 109.634C210.535 110.328 210.74 111.194 210.334 111.578C209.928 111.961 209.07 111.71 208.418 111.016Z" fill="#5E9575"/>
<path fill-rule="evenodd" clip-rule="evenodd" d="M199.827 104.757C198.942 103.926 198.618 102.831 199.106 102.316C199.594 101.796 200.703 102.051 201.588 102.886C202.473 103.716 202.797 104.811 202.309 105.327C201.825 105.842 200.712 105.587 199.827 104.757Z" fill="#5E9575"/>
<path fill-rule="evenodd" clip-rule="evenodd" d="M194.722 101.988C193.787 101.819 193.107 101.235 193.208 100.687C193.308 100.14 194.147 99.8342 195.083 100.003C196.018 100.172 196.698 100.756 196.597 101.303C196.497 101.851 195.657 102.156 194.722 101.988Z" fill="#5E9575"/>
<path fill-rule="evenodd" clip-rule="evenodd" d="M184.813 26.1597C183.942 26.0821 183.175 26.7254 183.098 27.5922C183.02 28.4635 183.663 29.23 184.53 29.3075C185.402 29.3851 186.168 28.7418 186.246 27.875C186.323 27.0082 185.68 26.2418 184.813 26.1597Z" fill="#62A3AD"/>
<path fill-rule="evenodd" clip-rule="evenodd" d="M183.408 27.6242C183.399 27.7291 183.476 27.8158 183.577 27.8249C183.682 27.8341 183.768 27.7565 183.777 27.6561C183.8 27.4098 183.919 27.1954 184.092 27.0494C184.266 26.9034 184.498 26.8213 184.745 26.8441C184.849 26.8532 184.936 26.7756 184.945 26.6753C184.954 26.5749 184.877 26.4837 184.776 26.4745C184.43 26.4426 184.101 26.5567 183.85 26.7665C183.609 26.9718 183.44 27.2729 183.408 27.6242Z" fill="white"/>
<path fill-rule="evenodd" clip-rule="evenodd" d="M181.213 28.6915C180.611 28.6368 180.082 29.0839 180.027 29.6815C179.972 30.2837 180.42 30.8129 181.017 30.8677C181.619 30.9224 182.149 30.4753 182.203 29.8777C182.258 29.2755 181.816 28.7463 181.213 28.6915Z" fill="#62A3AD"/>
<path fill-rule="evenodd" clip-rule="evenodd" d="M180.241 29.6993C180.237 29.7723 180.287 29.8316 180.36 29.8407C180.433 29.8453 180.492 29.7951 180.502 29.7221C180.515 29.5533 180.597 29.4027 180.721 29.3024C180.844 29.202 181.003 29.1473 181.172 29.161C181.245 29.1655 181.304 29.1153 181.314 29.0423C181.318 28.9693 181.268 28.91 181.195 28.9009C180.953 28.8781 180.725 28.9557 180.556 29.1016C180.383 29.2522 180.264 29.4621 180.241 29.6993Z" fill="white"/>
<path fill-rule="evenodd" clip-rule="evenodd" d="M184.138 18.7781C182.92 18.6686 181.848 19.5673 181.738 20.7854C181.629 22.0035 182.527 23.0756 183.745 23.1851C184.964 23.2946 186.036 22.3959 186.145 21.1778C186.255 19.9597 185.356 18.8876 184.138 18.7781Z" fill="#62A3AD"/>
<path fill-rule="evenodd" clip-rule="evenodd" d="M182.176 20.8218C182.162 20.9677 182.267 21.0909 182.413 21.1046C182.555 21.1183 182.683 21.0134 182.696 20.8674C182.728 20.5252 182.892 20.2241 183.139 20.0188C183.385 19.8135 183.709 19.704 184.051 19.7314C184.197 19.7451 184.32 19.6356 184.334 19.4942C184.348 19.3527 184.243 19.225 184.097 19.2113C183.609 19.1657 183.152 19.3254 182.801 19.6174C182.459 19.9139 182.222 20.3336 182.176 20.8218Z" fill="white"/>
<path fill-rule="evenodd" clip-rule="evenodd" d="M183.435 32.7384C182.833 32.6837 182.304 33.1308 182.249 33.7284C182.194 34.3306 182.641 34.8598 183.239 34.9146C183.841 34.9693 184.37 34.5268 184.425 33.9246C184.48 33.3224 184.033 32.7932 183.435 32.7384Z" fill="#62A3AD"/>
<path fill-rule="evenodd" clip-rule="evenodd" d="M182.463 33.7514C182.459 33.8244 182.509 33.8837 182.582 33.8928C182.655 33.8974 182.714 33.8472 182.723 33.7742C182.737 33.6054 182.819 33.4548 182.942 33.3545C183.065 33.2541 183.225 33.1994 183.394 33.213C183.467 33.2176 183.526 33.1674 183.535 33.0944C183.54 33.0214 183.49 32.9621 183.417 32.953C183.175 32.9302 182.947 33.0123 182.778 33.1537C182.6 33.2997 182.486 33.5096 182.463 33.7514Z" fill="white"/>
<path fill-rule="evenodd" clip-rule="evenodd" d="M83.7251 25.663C82.6028 25.5626 81.6082 26.3929 81.5079 27.5152C81.4075 28.6375 82.2378 29.6321 83.3601 29.7324C84.4824 29.8328 85.4769 29.0025 85.5773 27.8802C85.6777 26.7534 84.8473 25.7634 83.7251 25.663Z" fill="#62A3AD"/>
<path fill-rule="evenodd" clip-rule="evenodd" d="M81.914 27.5512C81.9003 27.6835 82.0007 27.8022 82.133 27.8113C82.2653 27.825 82.3839 27.7246 82.393 27.5923C82.4204 27.2729 82.5755 26.9992 82.8036 26.8076C83.0317 26.616 83.3282 26.5156 83.6476 26.543C83.7799 26.5567 83.8985 26.4563 83.9076 26.324C83.9213 26.1917 83.8209 26.0731 83.6886 26.064C83.237 26.0229 82.8127 26.1689 82.4934 26.4381C82.1695 26.7072 81.9505 27.0996 81.914 27.5512Z" fill="white"/>
<path fill-rule="evenodd" clip-rule="evenodd" d="M79.0764 28.9294C78.3008 28.8609 77.6119 29.4358 77.5435 30.2113C77.4751 30.9869 78.0499 31.6758 78.8255 31.7442C79.601 31.8126 80.2899 31.2378 80.3583 30.4622C80.4268 29.6867 79.8519 28.9978 79.0764 28.9294Z" fill="#62A3AD"/>
<path fill-rule="evenodd" clip-rule="evenodd" d="M77.8219 30.2341C77.8127 30.3253 77.8812 30.4074 77.9724 30.4165C78.0637 30.4257 78.1458 30.3572 78.1549 30.266C78.1731 30.047 78.2826 29.8554 78.4378 29.7231C78.5929 29.5908 78.8027 29.5224 79.0217 29.5406C79.1129 29.5497 79.1951 29.4813 79.2042 29.3901C79.2133 29.2988 79.1449 29.2167 79.0536 29.2076C78.7434 29.1802 78.4469 29.2806 78.2279 29.4676C77.9998 29.6547 77.8492 29.9238 77.8219 30.2341Z" fill="white"/>
<path fill-rule="evenodd" clip-rule="evenodd" d="M82.8538 16.1235C81.2799 15.9821 79.893 17.1409 79.7516 18.7148C79.6101 20.2887 80.7689 21.6756 82.3429 21.8171C83.9168 21.9585 85.3037 20.7951 85.4451 19.2258C85.5865 17.6518 84.4278 16.2649 82.8538 16.1235Z" fill="#62A3AD"/>
<path fill-rule="evenodd" clip-rule="evenodd" d="M80.3173 18.7648C80.2991 18.9519 80.4359 19.1161 80.623 19.1298C80.81 19.1481 80.9743 19.0112 80.9879 18.8242C81.029 18.3816 81.2434 17.9938 81.5628 17.7292C81.8821 17.4646 82.2973 17.3186 82.7444 17.3597C82.9314 17.378 83.0957 17.2411 83.1093 17.054C83.1276 16.867 82.9907 16.7028 82.8037 16.6891C82.1741 16.6343 81.581 16.8351 81.1294 17.2137C80.6823 17.5878 80.3766 18.1353 80.3173 18.7648Z" fill="white"/>
<path fill-rule="evenodd" clip-rule="evenodd" d="M81.9459 34.1623C81.1703 34.0939 80.4814 34.6641 80.413 35.4443C80.3446 36.2198 80.9194 36.9087 81.695 36.9771C82.4705 37.0456 83.1594 36.4708 83.2278 35.6952C83.2963 34.9196 82.7214 34.2307 81.9459 34.1623Z" fill="#62A3AD"/>
<path fill-rule="evenodd" clip-rule="evenodd" d="M80.6912 35.467C80.6821 35.5582 80.7506 35.6403 80.8418 35.6495C80.933 35.6586 81.0152 35.5901 81.0243 35.4989C81.0425 35.2799 81.152 35.0883 81.3071 34.956C81.4622 34.8237 81.6721 34.7553 81.8911 34.7735C81.9823 34.7826 82.0645 34.7142 82.0736 34.623C82.0827 34.5317 82.0143 34.4496 81.923 34.4405C81.6128 34.4131 81.3163 34.5135 81.0973 34.7005C80.8692 34.8876 80.7186 35.1567 80.6912 35.467Z" fill="white"/>
<path fill-rule="evenodd" clip-rule="evenodd" d="M213.732 51.2428C212.263 51.1105 210.968 52.1963 210.835 53.6653C210.703 55.1344 211.789 56.43 213.253 56.5623C214.722 56.6946 216.018 55.6088 216.15 54.1444C216.283 52.6708 215.197 51.3706 213.732 51.2428Z" fill="#62A3AD"/>
<path fill-rule="evenodd" clip-rule="evenodd" d="M211.365 53.711C211.351 53.8844 211.479 54.0395 211.652 54.0532C211.825 54.0669 211.981 53.9391 211.994 53.7658C212.031 53.3506 212.231 52.9902 212.528 52.7439C212.825 52.4975 213.212 52.3606 213.627 52.3971C213.801 52.4108 213.956 52.2831 213.97 52.1097C213.983 51.9363 213.856 51.7812 213.682 51.7675C213.094 51.7128 212.542 51.9044 212.122 52.2557C211.702 52.6115 211.415 53.1225 211.365 53.711Z" fill="white"/>
<path fill-rule="evenodd" clip-rule="evenodd" d="M207.656 55.5134C206.638 55.4221 205.744 56.1703 205.653 57.1877C205.562 58.2051 206.314 59.0992 207.327 59.1905C208.344 59.2817 209.239 58.5335 209.33 57.5162C209.421 56.4988 208.673 55.6001 207.656 55.5134Z" fill="#62A3AD"/>
<path fill-rule="evenodd" clip-rule="evenodd" d="M206.018 57.2197C206.008 57.3383 206.095 57.4478 206.214 57.4569C206.332 57.466 206.437 57.3793 206.451 57.2607C206.478 56.9733 206.615 56.7224 206.82 56.5536C207.026 56.3802 207.295 56.289 207.582 56.3164C207.701 56.3255 207.81 56.2388 207.82 56.1202C207.829 56.0016 207.742 55.8921 207.623 55.8829C207.217 55.8465 206.834 55.9788 206.542 56.2205C206.25 56.4578 206.054 56.8136 206.018 57.2197Z" fill="white"/>
<path fill-rule="evenodd" clip-rule="evenodd" d="M212.596 38.7747C210.543 38.5922 208.728 40.1068 208.545 42.1598C208.363 44.2127 209.877 46.0285 211.93 46.211C213.983 46.3935 215.799 44.8788 215.981 42.8259C216.164 40.7729 214.649 38.9572 212.596 38.7747Z" fill="#62A3AD"/>
<path fill-rule="evenodd" clip-rule="evenodd" d="M209.28 42.2281C209.257 42.4699 209.435 42.6843 209.681 42.7071C209.923 42.7299 210.137 42.5474 210.16 42.3056C210.21 41.7263 210.493 41.2199 210.908 40.8731C211.324 40.5264 211.871 40.3394 212.45 40.3895C212.692 40.4124 212.907 40.2344 212.929 39.9881C212.952 39.7463 212.774 39.5319 212.528 39.509C211.707 39.4361 210.931 39.7007 210.343 40.1934C209.754 40.6861 209.353 41.4023 209.28 42.2281Z" fill="white"/>
<path fill-rule="evenodd" clip-rule="evenodd" d="M211.406 62.3469C210.388 62.2556 209.494 63.0038 209.403 64.0212C209.312 65.0386 210.064 65.9327 211.077 66.024C212.094 66.1152 212.989 65.367 213.08 64.3497C213.171 63.3369 212.418 62.4381 211.406 62.3469Z" fill="#62A3AD"/>
<path fill-rule="evenodd" clip-rule="evenodd" d="M209.763 64.0575C209.754 64.1762 209.841 64.2857 209.959 64.2948C210.078 64.3039 210.187 64.2172 210.197 64.0986C210.224 63.8112 210.361 63.5603 210.566 63.3915C210.771 63.2181 211.041 63.1269 211.328 63.1542C211.447 63.1634 211.556 63.0767 211.565 62.9581C211.574 62.8395 211.488 62.73 211.369 62.7208C210.963 62.6843 210.58 62.8166 210.288 63.0584C210 63.2957 209.8 63.647 209.763 64.0575Z" fill="white"/>
<path fill-rule="evenodd" clip-rule="evenodd" d="M117.357 143.431C116.468 143.349 115.683 144.006 115.601 144.895C115.523 145.785 116.176 146.57 117.065 146.652C117.955 146.729 118.74 146.072 118.822 145.187C118.904 144.298 118.247 143.513 117.357 143.431Z" fill="#62A3AD"/>
<path fill-rule="evenodd" clip-rule="evenodd" d="M115.925 144.927C115.916 145.032 115.993 145.123 116.098 145.132C116.203 145.142 116.295 145.064 116.304 144.959C116.327 144.708 116.45 144.489 116.628 144.339C116.806 144.188 117.043 144.106 117.294 144.129C117.399 144.138 117.49 144.06 117.499 143.955C117.508 143.85 117.431 143.759 117.326 143.746C116.97 143.714 116.632 143.828 116.381 144.042C116.13 144.261 115.957 144.571 115.925 144.927Z" fill="white"/>
<path fill-rule="evenodd" clip-rule="evenodd" d="M113.68 146.017C113.064 145.962 112.521 146.419 112.467 147.03C112.412 147.646 112.868 148.189 113.484 148.243C114.1 148.298 114.643 147.842 114.698 147.231C114.748 146.619 114.296 146.076 113.68 146.017Z" fill="#62A3AD"/>
<path fill-rule="evenodd" clip-rule="evenodd" d="M112.686 147.053C112.681 147.126 112.731 147.19 112.804 147.195C112.877 147.199 112.941 147.149 112.946 147.076C112.96 146.903 113.046 146.752 113.169 146.647C113.293 146.542 113.457 146.487 113.63 146.501C113.703 146.506 113.767 146.455 113.772 146.383C113.776 146.31 113.726 146.246 113.653 146.241C113.407 146.218 113.174 146.3 112.996 146.446C112.827 146.592 112.709 146.807 112.686 147.053Z" fill="white"/>
<path fill-rule="evenodd" clip-rule="evenodd" d="M116.673 135.88C115.428 135.77 114.328 136.687 114.219 137.933C114.109 139.178 115.026 140.278 116.272 140.387C117.517 140.497 118.616 139.58 118.726 138.334C118.835 137.089 117.914 135.989 116.673 135.88Z" fill="#62A3AD"/>
<path fill-rule="evenodd" clip-rule="evenodd" d="M114.661 137.969C114.647 138.115 114.757 138.248 114.903 138.257C115.049 138.271 115.181 138.161 115.195 138.015C115.227 137.664 115.395 137.358 115.646 137.148C115.897 136.938 116.23 136.824 116.582 136.856C116.728 136.87 116.86 136.76 116.874 136.614C116.887 136.468 116.778 136.336 116.632 136.322C116.135 136.277 115.665 136.441 115.309 136.738C114.948 137.039 114.707 137.472 114.661 137.969Z" fill="white"/>
<path fill-rule="evenodd" clip-rule="evenodd" d="M115.948 150.16C115.332 150.105 114.789 150.561 114.734 151.173C114.679 151.788 115.136 152.331 115.747 152.386C116.363 152.441 116.906 151.985 116.96 151.373C117.02 150.762 116.563 150.214 115.948 150.16Z" fill="#62A3AD"/>
<path fill-rule="evenodd" clip-rule="evenodd" d="M114.958 151.196C114.953 151.269 115.003 151.333 115.076 151.337C115.149 151.342 115.213 151.292 115.218 151.219C115.231 151.045 115.318 150.895 115.441 150.79C115.564 150.685 115.729 150.63 115.902 150.644C115.975 150.653 116.039 150.598 116.043 150.525C116.048 150.452 115.998 150.388 115.925 150.384C115.678 150.361 115.446 150.443 115.268 150.589C115.099 150.735 114.98 150.949 114.958 151.196Z" fill="white"/>
<path fill-rule="evenodd" clip-rule="evenodd" d="M202.35 157.856C201.041 157.737 199.886 158.705 199.772 160.014C199.654 161.323 200.621 162.477 201.926 162.592C203.235 162.71 204.389 161.743 204.508 160.434C204.626 159.129 203.659 157.975 202.35 157.856Z" fill="#62A3AD"/>
<path fill-rule="evenodd" clip-rule="evenodd" d="M200.242 160.055C200.228 160.21 200.342 160.347 200.498 160.361C200.653 160.375 200.79 160.261 200.803 160.105C200.835 159.736 201.018 159.417 201.282 159.193C201.547 158.974 201.894 158.851 202.263 158.887C202.418 158.901 202.555 158.787 202.569 158.632C202.582 158.477 202.468 158.34 202.313 158.326C201.789 158.281 201.296 158.449 200.922 158.764C200.543 159.079 200.288 159.535 200.242 160.055Z" fill="white"/>
<path fill-rule="evenodd" clip-rule="evenodd" d="M196.939 161.661C196.036 161.579 195.233 162.25 195.155 163.153C195.073 164.056 195.744 164.859 196.647 164.937C197.555 165.019 198.353 164.348 198.436 163.445C198.513 162.542 197.842 161.743 196.939 161.661Z" fill="#62A3AD"/>
<path fill-rule="evenodd" clip-rule="evenodd" d="M195.479 163.185C195.47 163.29 195.548 163.386 195.657 163.395C195.762 163.404 195.858 163.326 195.867 163.217C195.89 162.961 196.013 162.738 196.195 162.587C196.378 162.437 196.62 162.35 196.875 162.377C196.985 162.386 197.076 162.309 197.085 162.199C197.094 162.094 197.017 161.999 196.907 161.99C196.547 161.958 196.205 162.076 195.945 162.291C195.685 162.505 195.511 162.82 195.479 163.185Z" fill="white"/>
<path fill-rule="evenodd" clip-rule="evenodd" d="M200.279 167.756C199.375 167.674 198.573 168.344 198.495 169.248C198.413 170.151 199.083 170.954 199.987 171.031C200.895 171.114 201.693 170.443 201.775 169.54C201.853 168.636 201.182 167.833 200.279 167.756Z" fill="#62A3AD"/>
<path fill-rule="evenodd" clip-rule="evenodd" d="M198.819 169.275C198.81 169.38 198.887 169.476 198.997 169.485C199.102 169.494 199.198 169.417 199.207 169.307C199.229 169.052 199.353 168.828 199.535 168.678C199.718 168.523 199.959 168.44 200.215 168.463C200.32 168.472 200.416 168.395 200.425 168.285C200.434 168.18 200.356 168.085 200.247 168.075C199.886 168.044 199.544 168.162 199.284 168.377C199.029 168.6 198.851 168.915 198.819 169.275Z" fill="white"/>
<path fill-rule="evenodd" clip-rule="evenodd" d="M88.6567 156.714C87.3473 156.596 86.1931 157.563 86.0791 158.868C85.9604 160.177 86.9276 161.331 88.237 161.45C89.5463 161.569 90.7005 160.601 90.8146 159.292C90.9286 157.983 89.9614 156.828 88.6567 156.714Z" fill="#62A3AD"/>
<path fill-rule="evenodd" clip-rule="evenodd" d="M86.5443 158.913C86.5306 159.068 86.6447 159.205 86.7998 159.219C86.9549 159.233 87.0918 159.118 87.1055 158.963C87.1374 158.594 87.3199 158.27 87.5799 158.051C87.8445 157.832 88.1913 157.709 88.5608 157.745C88.7159 157.759 88.8528 157.645 88.8665 157.49C88.8801 157.335 88.7661 157.198 88.611 157.184C88.0863 157.139 87.5936 157.307 87.2195 157.622C86.8454 157.932 86.5899 158.389 86.5443 158.913Z" fill="white"/>
<path fill-rule="evenodd" clip-rule="evenodd" d="M83.2414 160.52C82.3381 160.437 81.5352 161.108 81.4576 162.011C81.3755 162.915 82.0461 163.718 82.9494 163.8C83.8527 163.882 84.6557 163.211 84.7332 162.308C84.8154 161.4 84.1493 160.597 83.2414 160.52Z" fill="#62A3AD"/>
<path fill-rule="evenodd" clip-rule="evenodd" d="M81.7816 162.039C81.7725 162.144 81.85 162.239 81.9595 162.249C82.0645 162.258 82.1603 162.18 82.1694 162.075C82.1922 161.82 82.3154 161.596 82.4979 161.446C82.6804 161.295 82.9221 161.208 83.1776 161.236C83.2826 161.245 83.3784 161.167 83.3875 161.058C83.3966 160.948 83.3191 160.857 83.2096 160.848C82.8492 160.816 82.507 160.935 82.247 161.149C81.9915 161.363 81.8135 161.674 81.7816 162.039Z" fill="white"/>
<path fill-rule="evenodd" clip-rule="evenodd" d="M86.581 166.61C85.6777 166.528 84.8748 167.198 84.7972 168.102C84.7151 169.005 85.3857 169.808 86.289 169.885C87.1923 169.968 87.9953 169.297 88.0728 168.394C88.155 167.49 87.4889 166.692 86.581 166.61Z" fill="#62A3AD"/>
<path fill-rule="evenodd" clip-rule="evenodd" d="M85.121 168.129C85.1118 168.234 85.1894 168.329 85.2989 168.339C85.4038 168.348 85.4996 168.27 85.5088 168.161C85.5316 167.905 85.6547 167.682 85.8372 167.531C86.0197 167.376 86.2615 167.294 86.517 167.317C86.6219 167.326 86.7177 167.248 86.7268 167.143C86.736 167.034 86.6584 166.942 86.5489 166.933C86.1885 166.901 85.8463 167.02 85.5863 167.234C85.3308 167.453 85.1529 167.768 85.121 168.129Z" fill="white"/>
<path fill-rule="evenodd" clip-rule="evenodd" d="M156.281 172.623C154.726 168.175 153.389 161.277 162.956 159.941C172.523 158.604 168.517 155.046 176.081 149.484C183.645 143.923 195.881 146.149 201.666 141.254C207.451 136.359 204.111 133.243 206.784 121.007C209.453 108.772 215.685 106.545 212.569 96.755C209.453 86.9646 199.444 87.6352 198.554 100.984C197.665 114.333 201.67 120.118 192.993 125.013C184.316 129.908 176.086 127.682 171.191 137.249C166.295 146.815 168.298 148.818 157.842 152.377C147.385 155.935 151.833 172.4 151.833 172.4L156.281 172.623Z" fill="#3E706C"/>
<path fill-rule="evenodd" clip-rule="evenodd" d="M153.859 170.365C153.841 170.552 153.672 170.684 153.485 170.661C153.302 170.643 153.166 170.474 153.188 170.292C153.594 166.711 154.115 163.444 155.556 160.666C157.007 157.865 159.379 155.579 163.467 154C167.418 152.477 169.553 151.304 170.839 149.822C172.117 148.353 172.591 146.528 173.207 143.722C174.293 138.795 180.055 136.778 187.482 134.178C188.992 133.649 190.575 133.097 192.181 132.495C201.47 129.027 201.912 120.346 201.912 120.323C201.921 120.136 202.081 119.994 202.268 120.003C202.455 120.017 202.596 120.177 202.583 120.359C202.583 120.387 202.113 129.502 192.414 133.124C190.78 133.735 189.207 134.283 187.701 134.812C180.475 137.34 174.868 139.301 173.864 143.863C173.225 146.774 172.728 148.667 171.346 150.26C169.977 151.838 167.764 153.065 163.704 154.63C159.79 156.14 157.527 158.316 156.149 160.976C154.762 163.659 154.256 166.857 153.859 170.365Z" fill="#518C80"/>
<path fill-rule="evenodd" clip-rule="evenodd" d="M133.699 174.403C194.015 174.403 194.015 174.403 194.015 174.403C194.015 174.403 191.606 168.285 186.935 166.948C182.263 165.612 180.849 167.614 176.88 168.728C172.915 169.841 172.491 166.501 166.683 167.729C160.88 168.951 159.037 169.617 159.037 169.617C159.037 169.617 149.698 162.167 133.699 174.403Z" fill="#704435"/>
<path fill-rule="evenodd" clip-rule="evenodd" d="M158.782 171.428C158.599 171.474 158.417 171.364 158.371 171.182C158.325 170.999 158.435 170.817 158.617 170.771C161.213 170.119 163.061 169.558 164.471 169.124C167.659 168.153 168.7 167.833 170.734 168.791C172.103 169.435 173.262 169.909 174.48 170.032C175.689 170.156 176.975 169.932 178.631 169.188C180.132 168.513 181.565 168.093 182.765 167.865C184.393 167.555 185.639 167.601 186.113 167.82C186.282 167.897 186.355 168.098 186.278 168.267C186.2 168.436 185.999 168.509 185.831 168.431C185.456 168.258 184.375 168.244 182.888 168.527C181.734 168.746 180.356 169.152 178.905 169.804C177.13 170.603 175.73 170.84 174.407 170.703C173.093 170.571 171.875 170.073 170.442 169.398C168.636 168.55 167.659 168.851 164.658 169.768C163.239 170.21 161.364 170.781 158.782 171.428Z" fill="#935B47"/>
<path fill-rule="evenodd" clip-rule="evenodd" d="M116.773 168.686C115.633 164.594 112.229 160.306 111.198 156.843C108.817 148.832 109.697 142.751 113.119 135.912C118.014 126.122 118.68 126.569 115.122 116.336C111.563 106.103 112.786 105.879 114.008 102.654C115.231 99.4285 108.78 97.9823 107.225 102.211C105.669 106.44 110.783 116.559 112.006 123.904C113.507 132.924 100.947 140.866 106.809 155.926C107.494 157.692 110.815 167.637 113.11 168.043L116.773 168.686Z" fill="#5DA291"/>
<path fill-rule="evenodd" clip-rule="evenodd" d="M87.7443 174.403C143.877 174.403 143.877 174.403 143.877 174.403C143.877 174.403 142.517 170.648 139.949 169.973C137.38 169.302 123.019 168.363 123.019 168.363C123.019 168.363 116.217 161.921 112.74 161.25C109.264 160.58 95.8102 164.471 95.0574 167.286C94.2591 170.274 80.8737 174.403 87.7443 174.403Z" fill="#935B47"/>
<path fill-rule="evenodd" clip-rule="evenodd" d="M112.384 163.112C112.211 163.044 112.129 162.843 112.197 162.674C112.266 162.501 112.462 162.419 112.635 162.487C117.727 164.549 122.531 169.212 123.247 169.919L136.468 170.808C136.655 170.822 136.796 170.982 136.783 171.169C136.769 171.356 136.609 171.493 136.422 171.484L123.073 170.585C122.996 170.58 122.918 170.544 122.854 170.484C122.841 170.471 117.768 165.293 112.384 163.112Z" fill="#D69F95"/>
<path fill-rule="evenodd" clip-rule="evenodd" d="M110.345 100.108C110.514 100.026 110.714 100.099 110.792 100.268C110.874 100.436 110.801 100.637 110.632 100.715C110.021 101.007 109.282 101.454 108.821 102.348C108.347 103.265 108.151 104.661 108.643 106.86C109.337 109.949 110.322 113.019 111.134 115.542C111.527 116.76 111.873 117.85 112.129 118.735C112.234 119.096 112.412 119.483 112.617 119.921C113.794 122.44 115.715 126.55 109.683 137.198C109.022 138.366 107.922 140.802 107.202 143.216C106.709 144.872 106.394 146.5 106.536 147.668C106.558 147.855 106.426 148.02 106.239 148.042C106.052 148.065 105.888 147.933 105.865 147.746C105.71 146.478 106.038 144.753 106.554 143.02C107.288 140.561 108.42 138.061 109.099 136.861C114.962 126.509 113.132 122.595 112.01 120.2C111.791 119.73 111.595 119.31 111.481 118.913C111.221 117.996 110.874 116.929 110.496 115.742C109.679 113.201 108.689 110.117 107.991 107.001C107.457 104.625 107.69 103.073 108.228 102.033C108.776 100.97 109.638 100.446 110.345 100.108Z" fill="#8BBFA9"/>
<path fill-rule="evenodd" clip-rule="evenodd" d="M113.584 67.9182C112.371 67.3251 108.726 65.815 108.224 65.9884C107.968 66.0751 110.477 67.2749 110.509 68.014C110.541 68.7393 109.77 69.4693 110.062 69.597C110.099 69.6153 112.959 68.8397 113.593 68.0733C113.79 67.8315 113.99 68.1965 113.584 67.9182Z" fill="#508B9D"/>
<path fill-rule="evenodd" clip-rule="evenodd" d="M122.964 66.6316C123.799 67.1289 124.433 67.5988 124.866 67.9592C125.66 68.6162 122.969 69.4328 121.062 69.6518C118.297 69.9757 115.446 69.3917 112.822 68.1463C112.485 67.9866 112.526 67.9136 112.859 67.6536C114.378 66.4583 121.048 65.4957 122.964 66.6316Z" fill="#EADAB7"/>
<path fill-rule="evenodd" clip-rule="evenodd" d="M122.038 66.2893C117.804 63.4562 115.82 66.1114 117.407 67.5302L122.038 66.2893Z" fill="#65A3AF"/>
<path fill-rule="evenodd" clip-rule="evenodd" d="M122.517 66.3988C122.576 66.4262 122.64 66.4399 122.699 66.4673C122.699 66.4673 122.088 66.5174 121.732 66.6817C121.176 66.9372 120.765 67.366 120.656 67.553C120.364 68.0458 120.5 68.4563 119.593 68.1142C118.384 67.658 118.452 67.0649 117.421 67.6443C116.44 68.1963 115.158 68.3514 113.233 67.9271C112.526 67.772 112.781 67.6306 113.215 67.3842C115.724 65.9837 119.118 64.907 122.517 66.3988Z" fill="#508B9D"/>
<path fill-rule="evenodd" clip-rule="evenodd" d="M123.069 67.5854C123.128 67.5534 123.206 67.5717 123.242 67.6355C123.27 67.6812 123.261 67.7405 123.229 67.777C123.115 67.9366 122.95 68.0325 122.772 68.0644C122.59 68.0963 122.398 68.0598 122.234 67.9458C122.074 67.8317 121.97 67.6629 121.938 67.4804C121.906 67.2979 121.942 67.1063 122.056 66.9421C122.07 66.9239 122.084 66.9147 122.097 66.9056C122.157 66.8691 122.234 66.8919 122.271 66.9558C122.298 67.0014 122.289 67.0562 122.257 67.0972C122.188 67.2021 122.166 67.3253 122.184 67.4394C122.202 67.5534 122.266 67.6629 122.371 67.7359C122.376 67.7405 122.38 67.7405 122.385 67.745C122.49 67.8135 122.613 67.8363 122.727 67.818C122.841 67.7998 122.95 67.7359 123.023 67.631C123.032 67.6127 123.051 67.5945 123.069 67.5854Z" fill="#1F4359"/>
<path fill-rule="evenodd" clip-rule="evenodd" d="M113.776 67.5577C113.726 67.5988 113.634 67.6079 113.571 67.576C113.507 67.544 113.493 67.4893 113.539 67.4482C113.908 67.138 114.852 66.6681 115.915 66.3123C116.755 66.0294 117.676 65.815 118.443 65.8013C120.177 65.7694 120.897 66.0568 120.897 66.0568C120.966 66.0842 120.989 66.1389 120.943 66.1845C120.902 66.2256 120.811 66.2393 120.742 66.2119C120.742 66.2119 120.094 65.9519 118.452 65.9838C117.731 65.9975 116.86 66.2028 116.057 66.4719C115.03 66.8187 114.123 67.2658 113.776 67.5577Z" fill="#65A3AF"/>
<path fill-rule="evenodd" clip-rule="evenodd" d="M120.441 68.7756C119.807 69.8751 119.656 70.0986 119.013 69.7382C118.37 69.3778 118.516 68.7939 118.516 68.7939L120.272 68.4106L120.441 68.7756Z" fill="#508B9D"/>
<path fill-rule="evenodd" clip-rule="evenodd" d="M90.0255 80.8415C88.812 80.2484 85.1714 78.7383 84.665 78.9071C84.4095 78.9938 86.9187 80.1936 86.9506 80.9327C86.9826 81.6581 86.2116 82.388 86.5035 82.5158C86.54 82.534 89.4005 81.7585 90.0346 80.992C90.2262 80.7548 90.427 81.1198 90.0255 80.8415Z" fill="#508B9D"/>
<path fill-rule="evenodd" clip-rule="evenodd" d="M99.4053 79.5555C100.24 80.0528 100.874 80.5227 101.308 80.8831C102.101 81.54 99.4098 82.3567 97.5029 82.5756C94.7382 82.8996 91.8869 82.3156 89.2636 81.0701C88.926 80.9105 88.9671 80.8375 89.3001 80.5774C90.8193 79.3867 97.4892 78.4195 99.4053 79.5555Z" fill="#EADAB7"/>
<path fill-rule="evenodd" clip-rule="evenodd" d="M98.4745 79.2131C94.2408 76.38 92.2563 79.0352 93.8439 80.454L98.4745 79.2131Z" fill="#65A3AF"/>
<path fill-rule="evenodd" clip-rule="evenodd" d="M98.9537 79.3272C99.013 79.3546 99.0769 79.3683 99.1362 79.3956C99.1362 79.3956 98.5249 79.4458 98.169 79.61C97.6124 79.8655 97.2018 80.2944 97.0924 80.4814C96.8004 80.9741 96.9372 81.3847 96.0294 81.0426C94.8204 80.5863 94.8888 79.9933 93.8578 80.5727C92.8769 81.1247 91.595 81.2798 89.6697 80.8555C88.9626 80.7004 89.2181 80.559 89.6515 80.3126C92.1607 78.9075 95.5549 77.8308 98.9537 79.3272Z" fill="#508B9D"/>
<path fill-rule="evenodd" clip-rule="evenodd" d="M99.5057 80.5086C99.565 80.4767 99.6425 80.4949 99.679 80.5588C99.7064 80.6044 99.6973 80.6637 99.6654 80.7002C99.5513 80.8599 99.3871 80.9557 99.2046 80.9877C99.0221 81.0196 98.8305 80.9831 98.6662 80.869C98.502 80.755 98.4016 80.5862 98.3697 80.4037C98.3378 80.2212 98.3743 80.0296 98.4883 79.8654C98.4974 79.8471 98.5157 79.838 98.5294 79.8289C98.5887 79.7969 98.6662 79.8152 98.7027 79.8791C98.7301 79.9247 98.721 79.9794 98.6891 80.0205C98.6206 80.1254 98.5978 80.2486 98.6161 80.3626C98.6343 80.4767 98.6982 80.5862 98.8031 80.6592C98.8077 80.6637 98.8122 80.6637 98.8168 80.6683C98.9217 80.7367 99.0449 80.7595 99.159 80.7413C99.273 80.723 99.3825 80.6592 99.4555 80.5542C99.4692 80.536 99.4874 80.5177 99.5057 80.5086Z" fill="#1F4359"/>
<path fill-rule="evenodd" clip-rule="evenodd" d="M90.2126 80.4816C90.1624 80.5226 90.0712 80.5317 90.0073 80.4998C89.9434 80.4679 89.9297 80.4131 89.9754 80.3721C90.3449 80.0618 91.2892 79.5919 92.3522 79.2361C93.1917 78.9532 94.1132 78.7388 94.8797 78.7251C96.6133 78.6932 97.3341 78.9806 97.3341 78.9806C97.4025 79.008 97.4253 79.0627 97.3797 79.1084C97.3387 79.1494 97.2474 79.1631 97.179 79.1357C97.179 79.1357 96.5312 78.8757 94.8888 78.9076C94.168 78.9213 93.2966 79.1266 92.4937 79.4003C91.4672 79.7425 90.5593 80.1896 90.2126 80.4816Z" fill="#65A3AF"/>
<path fill-rule="evenodd" clip-rule="evenodd" d="M96.8778 81.6994C96.2437 82.7989 96.0931 83.0225 95.4499 82.6621C94.8066 82.3016 94.9526 81.7177 94.9526 81.7177L96.709 81.3345L96.8778 81.6994Z" fill="#508B9D"/>
<path fill-rule="evenodd" clip-rule="evenodd" d="M152.746 62.6574C153.959 62.0643 157.604 60.5542 158.106 60.723C158.362 60.8097 155.852 62.0096 155.821 62.7486C155.789 63.474 156.56 64.204 156.268 64.3317C156.231 64.3499 153.371 63.5744 152.737 62.8079C152.54 62.5661 152.344 62.9311 152.746 62.6574Z" fill="#508B9D"/>
<path fill-rule="evenodd" clip-rule="evenodd" d="M143.366 61.3665C142.531 61.8638 141.897 62.3337 141.463 62.6941C140.67 63.3511 143.361 64.1677 145.268 64.3867C148.033 64.7106 150.884 64.1266 153.508 62.8812C153.845 62.7215 153.804 62.6485 153.471 62.3885C151.952 61.1977 145.282 60.2306 143.366 61.3665Z" fill="#EADAB7"/>
<path fill-rule="evenodd" clip-rule="evenodd" d="M144.297 61.029C148.53 58.196 150.515 60.8511 148.927 62.27L144.297 61.029Z" fill="#65A3AF"/>
<path fill-rule="evenodd" clip-rule="evenodd" d="M143.818 61.1384C143.758 61.1658 143.694 61.1794 143.635 61.2114C143.631 61.2114 144.246 61.2616 144.602 61.4258C145.159 61.6813 145.57 62.1101 145.679 62.2972C145.971 62.7899 145.834 63.2005 146.742 62.8583C147.951 62.4021 147.883 61.809 148.914 62.3884C149.894 62.9404 151.176 63.0955 153.102 62.6713C153.809 62.5162 153.553 62.3747 153.12 62.1284C150.611 60.7232 147.216 59.6466 143.818 61.1384Z" fill="#508B9D"/>
<path fill-rule="evenodd" clip-rule="evenodd" d="M143.265 62.3245C143.206 62.2926 143.129 62.3109 143.092 62.3747C143.065 62.4204 143.074 62.4797 143.106 62.5162C143.22 62.6758 143.384 62.7716 143.567 62.8036C143.749 62.8355 143.941 62.799 144.105 62.685C144.265 62.5709 144.37 62.4021 144.401 62.2196C144.433 62.0371 144.397 61.8455 144.283 61.6813C144.269 61.663 144.255 61.6539 144.242 61.6448C144.182 61.6129 144.105 61.6311 144.068 61.695C144.041 61.7406 144.05 61.7953 144.082 61.8364C144.151 61.9413 144.173 62.0645 144.155 62.1786C144.137 62.2926 144.073 62.4021 143.968 62.4751C143.964 62.4797 143.959 62.4797 143.954 62.4842C143.849 62.5527 143.726 62.5755 143.612 62.5572C143.498 62.539 143.389 62.4751 143.316 62.3702C143.302 62.3474 143.284 62.3337 143.265 62.3245Z" fill="#1F4359"/>
<path fill-rule="evenodd" clip-rule="evenodd" d="M152.559 62.2931C152.604 62.3341 152.7 62.3433 152.764 62.3113C152.828 62.284 152.842 62.2247 152.796 62.1836C152.426 61.8734 151.482 61.4035 150.419 61.0476C149.58 60.7648 148.658 60.5503 147.892 60.5367C146.158 60.5047 145.437 60.7921 145.437 60.7921C145.369 60.8195 145.346 60.8743 145.392 60.9199C145.433 60.9609 145.524 60.9746 145.592 60.9473C145.592 60.9473 146.24 60.6872 147.882 60.7191C148.603 60.7328 149.475 60.9381 150.282 61.2073C151.304 61.554 152.212 62.0011 152.559 62.2931Z" fill="#65A3AF"/>
<path fill-rule="evenodd" clip-rule="evenodd" d="M145.893 63.5154C146.527 64.6148 146.678 64.8338 147.321 64.478C147.969 64.1176 147.819 63.5336 147.819 63.5336L146.062 63.1504L145.893 63.5154Z" fill="#508B9D"/>
<path fill-rule="evenodd" clip-rule="evenodd" d="M139.465 52.8618C138.772 52.7979 138.161 53.3134 138.097 54.0069C138.033 54.7003 138.548 55.3162 139.242 55.3755C139.935 55.4394 140.551 54.9239 140.61 54.2304C140.674 53.537 140.159 52.9257 139.465 52.8618Z" fill="#62A3AD"/>
<path fill-rule="evenodd" clip-rule="evenodd" d="M138.348 54.0301C138.338 54.1123 138.402 54.1852 138.484 54.1898C138.567 54.1989 138.64 54.1351 138.644 54.0529C138.662 53.8568 138.758 53.688 138.895 53.5694C139.036 53.4507 139.219 53.3869 139.415 53.4051C139.497 53.4142 139.57 53.3504 139.575 53.2683C139.584 53.1861 139.52 53.1131 139.438 53.1086C139.16 53.0858 138.9 53.1724 138.699 53.3412C138.507 53.51 138.37 53.7518 138.348 54.0301Z" fill="white"/>
<path fill-rule="evenodd" clip-rule="evenodd" d="M136.596 54.8831C136.117 54.8421 135.692 55.1934 135.647 55.677C135.606 56.156 135.957 56.5803 136.441 56.6259C136.92 56.6669 137.344 56.3157 137.389 55.8321C137.43 55.3485 137.075 54.9242 136.596 54.8831Z" fill="#62A3AD"/>
<path fill-rule="evenodd" clip-rule="evenodd" d="M135.82 55.6909C135.816 55.7457 135.857 55.7959 135.916 55.805C135.971 55.8096 136.021 55.7685 136.03 55.7137C136.044 55.5769 136.108 55.4583 136.203 55.3807C136.299 55.2986 136.427 55.2575 136.564 55.2667C136.619 55.2712 136.669 55.2302 136.678 55.1709C136.682 55.1161 136.641 55.0659 136.582 55.0568C136.39 55.0385 136.208 55.1024 136.071 55.2165C135.93 55.3305 135.834 55.4993 135.82 55.6909Z" fill="white"/>
<path fill-rule="evenodd" clip-rule="evenodd" d="M138.927 46.9676C137.955 46.8809 137.097 47.5971 137.011 48.5689C136.924 49.5406 137.64 50.3983 138.612 50.485C139.584 50.5717 140.441 49.8554 140.528 48.8837C140.615 47.9119 139.898 47.0542 138.927 46.9676Z" fill="#62A3AD"/>
<path fill-rule="evenodd" clip-rule="evenodd" d="M137.362 48.6005C137.353 48.7145 137.435 48.8149 137.549 48.8286C137.663 48.8377 137.764 48.7556 137.777 48.6415C137.8 48.3678 137.937 48.1306 138.133 47.9663C138.329 47.8021 138.589 47.7154 138.863 47.7382C138.977 47.7473 139.078 47.6652 139.091 47.5512C139.1 47.4371 139.018 47.3367 138.9 47.3231C138.512 47.2866 138.142 47.4143 137.864 47.647C137.586 47.8705 137.399 48.2127 137.362 48.6005Z" fill="white"/>
<path fill-rule="evenodd" clip-rule="evenodd" d="M138.366 58.1126C137.887 58.0716 137.462 58.4229 137.417 58.9064C137.376 59.3855 137.727 59.8098 138.211 59.8554C138.69 59.8964 139.114 59.5452 139.159 59.0616C139.201 58.5825 138.845 58.1583 138.366 58.1126Z" fill="#62A3AD"/>
<path fill-rule="evenodd" clip-rule="evenodd" d="M137.59 58.9203C137.586 58.975 137.627 59.0252 137.686 59.0343C137.741 59.0389 137.791 58.9978 137.8 58.9431C137.814 58.8062 137.877 58.6876 137.973 58.61C138.069 58.5279 138.197 58.4869 138.334 58.496C138.388 58.5005 138.439 58.4595 138.448 58.4047C138.452 58.35 138.411 58.2952 138.352 58.2907C138.16 58.2724 137.978 58.3363 137.841 58.4504C137.7 58.5644 137.608 58.7286 137.59 58.9203Z" fill="white"/>
<path fill-rule="evenodd" clip-rule="evenodd" d="M126.427 59.0395C125.733 58.9757 125.118 59.4912 125.058 60.1846C124.994 60.8781 125.51 61.4894 126.203 61.5533C126.897 61.6171 127.513 61.1016 127.572 60.4082C127.631 59.7147 127.12 59.1034 126.427 59.0395Z" fill="#62A3AD"/>
<path fill-rule="evenodd" clip-rule="evenodd" d="M125.309 60.2074C125.3 60.2895 125.364 60.3625 125.446 60.3671C125.528 60.3762 125.601 60.3123 125.606 60.2302C125.624 60.034 125.72 59.8652 125.857 59.7466C125.998 59.628 126.18 59.5641 126.377 59.5824C126.459 59.5915 126.532 59.5276 126.536 59.4455C126.545 59.3634 126.482 59.2904 126.399 59.2858C126.121 59.263 125.861 59.3497 125.66 59.5185C125.469 59.6873 125.332 59.9291 125.309 60.2074Z" fill="white"/>
<path fill-rule="evenodd" clip-rule="evenodd" d="M123.553 61.0609C123.074 61.0198 122.649 61.3711 122.604 61.8547C122.563 62.3337 122.914 62.758 123.397 62.8036C123.876 62.8447 124.301 62.4934 124.346 62.0098C124.387 61.5262 124.036 61.1019 123.553 61.0609Z" fill="#62A3AD"/>
<path fill-rule="evenodd" clip-rule="evenodd" d="M122.777 61.8684C122.773 61.9231 122.814 61.9733 122.873 61.9824C122.928 61.987 122.978 61.9459 122.987 61.8866C123.001 61.7497 123.064 61.6311 123.16 61.5536C123.256 61.4714 123.384 61.4304 123.521 61.4395C123.575 61.4441 123.626 61.403 123.635 61.3437C123.639 61.289 123.598 61.2388 123.539 61.2296C123.347 61.2114 123.165 61.2753 123.028 61.3893C122.891 61.5079 122.795 61.6722 122.777 61.8684Z" fill="white"/>
<path fill-rule="evenodd" clip-rule="evenodd" d="M125.888 53.1453C124.917 53.0586 124.059 53.7749 123.972 54.7466C123.886 55.7183 124.602 56.576 125.574 56.6627C126.545 56.7494 127.403 56.0331 127.49 55.0614C127.576 54.0897 126.86 53.232 125.888 53.1453Z" fill="#62A3AD"/>
<path fill-rule="evenodd" clip-rule="evenodd" d="M124.324 54.7787C124.314 54.8927 124.397 54.9931 124.511 55.0068C124.625 55.0159 124.725 54.9338 124.739 54.8197C124.762 54.546 124.898 54.3042 125.095 54.1445C125.291 53.9803 125.551 53.8936 125.825 53.9164C125.939 53.9256 126.039 53.8434 126.053 53.7294C126.062 53.6153 125.98 53.515 125.866 53.5013C125.478 53.4648 125.108 53.5925 124.83 53.8252C124.547 54.0487 124.356 54.3909 124.324 54.7787Z" fill="white"/>
<path fill-rule="evenodd" clip-rule="evenodd" d="M125.327 64.2909C124.848 64.2498 124.424 64.6011 124.378 65.0847C124.337 65.5637 124.689 65.988 125.172 66.0336C125.651 66.0747 126.075 65.7234 126.121 65.2398C126.162 64.7608 125.806 64.3365 125.327 64.2909Z" fill="#62A3AD"/>
<path fill-rule="evenodd" clip-rule="evenodd" d="M124.552 65.098C124.547 65.1527 124.588 65.2029 124.648 65.212C124.702 65.2166 124.752 65.1756 124.762 65.1208C124.775 64.9839 124.839 64.8653 124.935 64.7878C125.031 64.7056 125.158 64.6646 125.295 64.6737C125.35 64.6783 125.4 64.6372 125.409 64.5825C125.414 64.5277 125.373 64.4775 125.314 64.4684C125.122 64.4502 124.94 64.514 124.803 64.6281C124.661 64.7376 124.57 64.9064 124.552 65.098Z" fill="white"/>
<path fill-rule="evenodd" clip-rule="evenodd" d="M104.693 72.311C103.999 72.2471 103.383 72.7627 103.324 73.4561C103.26 74.1496 103.776 74.7609 104.469 74.8248C105.163 74.8886 105.779 74.3731 105.838 73.6797C105.902 72.9816 105.386 72.3703 104.693 72.311Z" fill="#62A3AD"/>
<path fill-rule="evenodd" clip-rule="evenodd" d="M103.575 73.4745C103.566 73.5566 103.63 73.6296 103.712 73.6341C103.794 73.6433 103.867 73.5794 103.872 73.4973C103.89 73.3011 103.986 73.1323 104.122 73.0137C104.264 72.8951 104.446 72.8312 104.643 72.8495C104.725 72.8586 104.798 72.7947 104.802 72.7126C104.807 72.6305 104.747 72.5575 104.665 72.5529C104.387 72.5301 104.127 72.6168 103.926 72.7856C103.735 72.9544 103.598 73.1962 103.575 73.4745Z" fill="white"/>
<path fill-rule="evenodd" clip-rule="evenodd" d="M101.823 74.3275C101.344 74.2864 100.92 74.6377 100.874 75.1213C100.833 75.6003 101.184 76.0246 101.668 76.0702C102.147 76.1113 102.571 75.76 102.617 75.2764C102.658 74.7928 102.302 74.3685 101.823 74.3275Z" fill="#62A3AD"/>
<path fill-rule="evenodd" clip-rule="evenodd" d="M101.047 75.1349C101.043 75.1897 101.084 75.2399 101.143 75.249C101.198 75.2536 101.248 75.2125 101.253 75.1532C101.266 75.0163 101.33 74.8977 101.426 74.8202C101.522 74.738 101.65 74.697 101.787 74.7061C101.841 74.7107 101.891 74.6696 101.901 74.6103C101.905 74.5556 101.864 74.5054 101.805 74.4963C101.613 74.478 101.431 74.5419 101.294 74.6559C101.157 74.7745 101.066 74.9433 101.047 75.1349Z" fill="white"/>
<path fill-rule="evenodd" clip-rule="evenodd" d="M104.154 66.4119C103.183 66.3252 102.325 67.0415 102.238 68.0132C102.152 68.9849 102.868 69.8426 103.839 69.9293C104.811 70.016 105.669 69.2997 105.756 68.328C105.847 67.3563 105.126 66.4986 104.154 66.4119Z" fill="#62A3AD"/>
<path fill-rule="evenodd" clip-rule="evenodd" d="M102.589 68.0453C102.58 68.1593 102.662 68.2597 102.776 68.2734C102.891 68.2825 102.991 68.2004 103.005 68.0863C103.027 67.8126 103.164 67.5708 103.36 67.4111C103.557 67.2469 103.817 67.1602 104.09 67.183C104.204 67.1922 104.305 67.11 104.318 66.996C104.328 66.8819 104.245 66.7816 104.127 66.7679C103.739 66.7314 103.37 66.8591 103.091 67.0918C102.813 67.3199 102.626 67.6575 102.589 68.0453Z" fill="white"/>
<path fill-rule="evenodd" clip-rule="evenodd" d="M103.593 77.5619C103.114 77.5208 102.69 77.8721 102.644 78.3557C102.603 78.8347 102.955 79.259 103.438 79.3046C103.917 79.3457 104.341 78.9944 104.387 78.5108C104.428 78.0272 104.072 77.6029 103.593 77.5619Z" fill="#62A3AD"/>
<path fill-rule="evenodd" clip-rule="evenodd" d="M102.818 78.3693C102.813 78.4241 102.854 78.4743 102.914 78.4834C102.968 78.4879 103.019 78.4469 103.028 78.3876C103.041 78.2507 103.105 78.1321 103.201 78.0545C103.297 77.9724 103.425 77.9314 103.561 77.9405C103.621 77.945 103.666 77.904 103.676 77.8447C103.68 77.7899 103.639 77.7397 103.58 77.7306C103.388 77.7124 103.206 77.7762 103.069 77.8903C102.932 78.0089 102.836 78.1732 102.818 78.3693Z" fill="white"/>
</svg>
