<svg width="285" height="190" viewBox="0 0 285 190" fill="none" xmlns="http://www.w3.org/2000/svg">
<rect width="285" height="190" fill="#E5F3FF"/>
<path fill-rule="evenodd" clip-rule="evenodd" d="M67.6027 99.0586C93.0122 160.813 156.919 168.3 202.297 122.495C213.909 110.777 221.075 78.4498 238.021 66.2695C240.955 64.1714 232.348 62.0733 222.053 66.1095C189.583 78.8412 185.138 110.759 165.774 121.019C135.279 137.182 92.9231 121.374 67.6027 99.0586Z" fill="#F5D6BA"/>
<path fill-rule="evenodd" clip-rule="evenodd" d="M236.366 62.9617C236.669 62.7302 233.735 60.419 232.97 60.7744C232.739 60.8812 227.529 69.6829 225.075 79.1959C224.471 81.5077 224.578 80.2272 224.293 82.823L227.92 77.0794C232.97 68.9007 234.304 64.6159 236.366 62.9617Z" fill="#FFE4D9"/>
<path fill-rule="evenodd" clip-rule="evenodd" d="M87.1624 122.192C87.6961 122.192 89.8827 124.557 86.8601 124.557C84.6728 124.557 82.6101 124.237 81.8993 123.775C81.4548 123.241 80.8503 122.424 79.6412 120.806C82.877 122.476 86.3618 122.21 87.1624 122.192Z" fill="#FFE4D9"/>
<path fill-rule="evenodd" clip-rule="evenodd" d="M98.6843 131.118C99.0397 130.994 103.325 132.097 103.023 132.897C102.934 133.146 99.7688 134.017 96.6039 134.017C93.8298 134.017 91.0563 133.199 90.5226 133.057C89.9358 132.666 89.0822 131.653 87.7308 130.354C91.554 131.563 97.9198 131.367 98.6843 131.118Z" fill="#FFE4D9"/>
<path fill-rule="evenodd" clip-rule="evenodd" d="M117.07 136.026C117.248 135.688 121.747 135.422 121.463 136.239C121.285 136.701 110.278 142.374 100.765 140.969C100.178 140.578 98.0089 139.404 96.6753 138.124C102.703 140.116 116.501 137.146 117.07 136.026Z" fill="#FFE4D9"/>
<path fill-rule="evenodd" clip-rule="evenodd" d="M137.893 135.208C138.017 135.118 142.57 133.892 141.467 135.243C140.436 136.47 137.288 140.435 133.021 143.902C128.824 147.316 124.148 150.108 122.405 150.126C121.729 149.931 120.129 149.699 118.209 149.024C119.987 148.828 125.374 146.303 129.677 143.032C134.176 139.618 137.555 135.439 137.893 135.208Z" fill="#FFE4D9"/>
<path fill-rule="evenodd" clip-rule="evenodd" d="M152.26 143.637C152.473 143.263 156.492 140.56 156.794 141.289C156.901 141.521 155.052 144.543 152.616 147.051C150.5 149.238 147.797 150.927 147.299 151.247C146.588 151.478 145.254 151.531 143.351 151.798C147.104 149.522 151.851 144.383 152.26 143.637Z" fill="#FFE4D9"/>
<path fill-rule="evenodd" clip-rule="evenodd" d="M179.91 107.184C179.75 106.846 183.894 104.161 184.338 104.891C184.48 105.104 184.143 115.328 181.102 124.646C178.079 133.91 172.371 142.267 168.904 145.574C168.246 145.806 166.308 146.677 164.281 147.353C167.268 145.343 174.434 133.394 177.937 122.921C180.604 114.955 180.141 107.682 179.91 107.184Z" fill="#FFE4D9"/>
<path fill-rule="evenodd" clip-rule="evenodd" d="M195.825 85.6333C195.593 85.2064 199.328 81.917 199.896 82.8061C200.056 83.0552 201.355 95.6446 199.79 107.131C198.243 118.529 194.135 128.291 191.201 132.381C190.561 132.648 189.138 134.212 186.773 135.635C189.441 133.181 194.508 117.907 196.339 104.998C197.745 95.2 196.127 86.2378 195.825 85.6333Z" fill="#FFE4D9"/>
<path fill-rule="evenodd" clip-rule="evenodd" d="M223.599 67.3006C223.919 67.0875 217.998 68.1005 217.216 68.4743C216.984 68.5811 211.774 77.3828 209.321 86.8958C206.885 96.3203 207.24 109.46 208.379 114.119C208.788 113.408 209.001 113.034 210.779 109.727C209.339 106.437 210.245 97.8486 212.931 87.1266C214.958 78.9826 223.137 67.5852 223.599 67.3006Z" fill="#FFE4D9"/>
<path fill-rule="evenodd" clip-rule="evenodd" d="M61.5745 65.3443C57.3245 59.619 40.6634 51.0836 33 51.0836C35.7381 63.2285 38.0853 73.5774 58.2142 77.6314C73.2931 121.16 92.6568 136.791 124.752 136.239C161.773 135.582 164.422 128.789 186.507 102.294C200.039 86.0416 214.94 65.6111 238.571 65.1666C220.577 34.3688 193.442 36.4492 165.97 48.2564C147.441 56.205 136.897 76.1555 124.272 85.8285C103.841 101.494 85.7756 89.2957 70.2521 75.7287C80.0674 66.9271 81.4365 41.4106 80.0674 38.2097C79.3206 36.4138 62.2681 46.212 61.5745 65.3443Z" fill="#B29E9F"/>
<path fill-rule="evenodd" clip-rule="evenodd" d="M238.571 65.1668C235.477 63.3886 225.573 65.7713 218.016 69.8613C212.041 73.08 207.507 77.3293 205.728 78.9829C204.537 80.0674 201.977 80.9388 200.163 80.6902C198.723 80.4771 197.656 79.7303 197.141 79.4458C197.461 79.1612 197.763 78.9304 198.012 78.8058C198.207 78.7167 198.279 78.1299 197.657 78.2544C197.159 78.3613 195.789 79.6412 195.576 80.0503C195.114 80.9217 195.612 80.8686 195.825 80.6725C196.092 80.4234 196.501 80.0326 196.91 79.6412C198.617 84.1043 203.916 82.0593 206.583 79.7303C209.908 76.8317 218.621 69.7013 227.458 66.9279C232.881 65.2382 236.331 65.2736 238.571 65.1668Z" fill="#614456"/>
<path fill-rule="evenodd" clip-rule="evenodd" d="M185.423 78.272C184.836 78.5566 184.32 79.9256 185.245 81.1347C185.814 81.8815 186.774 81.3301 187.023 80.6193C187.414 79.445 186.702 77.5961 185.423 78.272Z" fill="#614456"/>
<path fill-rule="evenodd" clip-rule="evenodd" d="M184.836 70.4303C182.845 68.9898 181.599 72.5107 181.831 72.7776C182.524 73.5598 185.813 71.1417 184.836 70.4303Z" fill="#FFD3D1"/>
<path fill-rule="evenodd" clip-rule="evenodd" d="M148.241 120.254C151.318 118.423 179.928 106.794 179.91 107.185C179.714 114.351 178.434 117.089 174.629 123.526C171.09 129.518 163.177 139.405 156.722 142.641C146.391 147.816 135.278 150.358 132.397 148.171C129.481 145.984 138.728 143.708 142.889 134.462C145.574 128.522 146.001 121.588 148.241 120.254Z" fill="#CCC2C0"/>
<path fill-rule="evenodd" clip-rule="evenodd" d="M121.427 126.655C121.09 124.788 116.893 125.962 116.875 126.229C116.804 128.291 121.534 127.153 121.427 126.655ZM140.115 118.814C139.973 117.871 138.764 118.102 138.195 118.334C136.595 119.009 140.24 119.81 140.115 118.814ZM126.299 121.161C126.174 120.236 124.965 120.45 124.396 120.699C122.796 121.356 126.441 122.156 126.299 121.161ZM143.618 126.371C143.281 123.917 140.115 124.504 138.604 125.126C134.443 126.868 143.974 128.967 143.618 126.371ZM109.3 126.424C109.158 125.482 107.949 125.713 107.38 125.944C105.779 126.602 109.425 127.42 109.3 126.424ZM111.167 131.207C111.042 130.265 109.833 130.496 109.264 130.727C107.664 131.385 111.309 132.203 111.167 131.207ZM114.848 128.896C114.723 127.954 113.514 128.184 112.927 128.416C111.327 129.091 114.99 129.891 114.848 128.896ZM140.862 131.634C140.667 130.193 138.817 130.532 137.946 130.905C135.51 131.918 141.076 133.145 140.862 131.634ZM135.207 133.626C134.958 131.741 131.846 132.932 131.846 133.199C131.776 135.262 135.279 134.123 135.207 133.626ZM119.115 132.897C119.08 130.994 114.741 131.456 114.688 131.723C114.279 133.732 119.115 133.394 119.115 132.897ZM136.523 129.358C136.186 127.473 131.989 128.647 131.971 128.913C131.9 130.976 136.63 129.838 136.523 129.358ZM135.386 124.753C135.403 128.736 126.353 127.935 126.228 127.384C125.286 123.224 135.386 123.704 135.386 124.753ZM131.296 130.922C130.567 127.011 121.818 129.464 121.8 130.033C121.64 134.319 131.473 131.954 131.296 130.922Z" fill="#CCB3B4"/>
<path fill-rule="evenodd" clip-rule="evenodd" d="M195.665 49.3592C195.363 51.2265 191.735 50.0529 191.735 49.786C191.664 47.7233 195.753 48.8609 195.665 49.3592ZM211.793 57.2009C211.668 58.1431 210.619 57.9123 210.139 57.6809C208.752 57.0049 211.899 56.205 211.793 57.2009ZM199.879 54.8359C199.754 55.7781 198.723 55.565 198.225 55.3159C196.838 54.6576 199.986 53.8577 199.879 54.8359ZM214.815 49.626C214.513 52.0802 211.793 51.4934 210.495 50.8705C206.884 49.1455 215.118 47.0473 214.815 49.626ZM185.191 49.59C185.067 50.5322 184.035 50.3014 183.538 50.07C182.151 49.4123 185.298 48.5947 185.191 49.59ZM186.809 44.8069C186.703 45.7491 185.653 45.5183 185.156 45.2869C183.769 44.6293 186.934 43.811 186.809 44.8069ZM189.975 47.1188C189.868 48.061 188.819 47.8302 188.321 47.5987C186.952 46.9228 190.099 46.1229 189.975 47.1188ZM212.433 44.3801C212.273 45.8206 210.672 45.4823 209.908 45.1092C207.81 44.0956 212.61 42.8688 212.433 44.3801ZM207.56 42.3888C207.329 44.2562 204.662 43.0825 204.644 42.8157C204.609 40.753 207.614 41.8906 207.56 42.3888ZM193.655 43.1002C193.637 45.0207 189.886 44.5584 189.85 44.2916C189.494 42.282 193.673 42.6019 193.655 43.1002ZM208.699 46.6566C208.396 48.5416 204.769 47.3679 204.769 47.1011C204.698 45.0384 208.77 46.176 208.699 46.6566ZM207.703 51.2619C207.72 47.2788 199.915 48.0793 199.808 48.6124C198.99 52.7909 207.703 52.2927 207.703 51.2619ZM204.182 45.0915C203.542 49.0032 196.002 46.532 195.985 45.9806C195.842 41.6952 204.342 44.0601 204.182 45.0915Z" fill="#CCB3B4"/>
<path fill-rule="evenodd" clip-rule="evenodd" d="M37.0185 54.0706C39.988 54.8528 46.8875 57.0755 52.2397 60.6318C58.0187 64.4904 62.1264 69.6649 60.3483 69.398C59.9746 69.3272 55.5115 64.9881 49.9108 61.3609C43.562 57.2538 36.0226 53.8044 37.0185 54.0706Z" fill="#CCB3B4"/>
<path fill-rule="evenodd" clip-rule="evenodd" d="M36.218 59.7612C45.8202 78.2719 60.5608 75.2132 58.9072 72.1729C58.7472 71.8884 53.6619 73.2751 49.4296 70.8216C42.673 66.9093 35.6672 58.6944 36.218 59.7612Z" fill="#CCB3B4"/>
<path fill-rule="evenodd" clip-rule="evenodd" d="M76.1912 43.3843C80.352 66.5003 66.9804 74.2883 66.3582 70.4297C66.2874 70.092 71.1236 67.6733 72.8663 62.5172C75.6575 54.2669 75.9597 42.069 76.1912 43.3843Z" fill="#CCB3B4"/>
<path fill-rule="evenodd" clip-rule="evenodd" d="M105.957 59.5299C106.437 59.5122 106.686 58.6231 105.992 58.4985C105.352 58.3739 105.122 59.5476 105.957 59.5299Z" fill="#F5D6BA"/>
<path fill-rule="evenodd" clip-rule="evenodd" d="M145.503 76.6C142.481 74.4304 140.613 79.7472 140.951 80.1386C141.36 80.6008 141.965 81.4899 142.942 80.9208C144.507 80.0501 146.41 77.2583 145.503 76.6Z" fill="#A68586"/>
<path fill-rule="evenodd" clip-rule="evenodd" d="M149.717 71.3724C145.699 68.4921 143.689 77.6851 147.174 75.6932C148.721 74.8219 150.642 72.0307 149.717 71.3724Z" fill="#A68586"/>
<path fill-rule="evenodd" clip-rule="evenodd" d="M148.508 78.4495C146.783 77.2051 145.912 81.1699 147.424 80.3168C148.081 79.9254 148.899 78.7341 148.508 78.4495Z" fill="#FFD3D1"/>
<path fill-rule="evenodd" clip-rule="evenodd" d="M143.814 73.3284C142.088 72.084 141.217 76.0488 142.729 75.1957C143.387 74.8043 144.223 73.613 143.814 73.3284Z" fill="#FFD3D1"/>
<path fill-rule="evenodd" clip-rule="evenodd" d="M152.402 74.6798C151.833 72.6347 149.877 75.5688 151.3 76.5471C152.029 77.0624 152.722 75.9248 152.402 74.6798Z" fill="#FFD3D1"/>
<path fill-rule="evenodd" clip-rule="evenodd" d="M154.216 68.8653C154.839 66.0027 150.589 68.3499 151.709 70.4481C152.278 71.5325 153.86 70.5903 154.216 68.8653Z" fill="#CCB3B4"/>
<path fill-rule="evenodd" clip-rule="evenodd" d="M131.243 86.0423C130.211 84.4418 127.491 87.8735 129.198 87.625C130.122 87.5005 131.545 86.5222 131.243 86.0423Z" fill="#CCB3B4"/>
<path fill-rule="evenodd" clip-rule="evenodd" d="M137.786 79.7118C135.723 78.2359 134.674 82.9658 136.47 81.9345C137.27 81.4899 138.248 80.0501 137.786 79.7118Z" fill="#D9EFE2"/>
<path fill-rule="evenodd" clip-rule="evenodd" d="M137.164 83.3575C136.275 82.7176 135.83 84.7442 136.595 84.3174C136.932 84.122 137.359 83.4998 137.164 83.3575Z" fill="#FFD3D1"/>
<path fill-rule="evenodd" clip-rule="evenodd" d="M134.745 80.7257C133.856 80.0858 133.411 82.1124 134.176 81.6679C134.532 81.4725 134.941 80.868 134.745 80.7257Z" fill="#FFD3D1"/>
<path fill-rule="evenodd" clip-rule="evenodd" d="M140.026 80.637C139.724 79.5702 137.857 81.8637 138.586 82.3797C138.96 82.6282 140.186 81.2592 140.026 80.637Z" fill="#FFD3D1"/>
<path fill-rule="evenodd" clip-rule="evenodd" d="M141.236 76.5648C140.844 75.1066 138.177 78.7521 139.173 79.4451C139.689 79.8011 141.485 77.4362 141.236 76.5648Z" fill="#CCB3B4"/>
<path fill-rule="evenodd" clip-rule="evenodd" d="M141.253 83.0726C139.191 81.5967 138.142 86.3266 139.937 85.2953C140.738 84.8508 141.716 83.4103 141.253 83.0726Z" fill="#FFD3D1"/>
<path fill-rule="evenodd" clip-rule="evenodd" d="M136.897 86.0952C135.35 84.9746 133.128 88.727 133.305 88.9401C134.674 90.4697 137.306 86.3974 136.897 86.0952Z" fill="#CCB3B4"/>
<path fill-rule="evenodd" clip-rule="evenodd" d="M157.95 62.6415C156.404 61.521 154.181 65.2734 154.359 65.4865C155.728 67.0161 158.359 62.9438 157.95 62.6415Z" fill="#A68586"/>
<path fill-rule="evenodd" clip-rule="evenodd" d="M150.82 67.1224C149.806 66.3933 148.366 68.8474 148.473 68.9714C149.362 69.9679 151.069 67.3184 150.82 67.1224Z" fill="#FFD3D1"/>
<path fill-rule="evenodd" clip-rule="evenodd" d="M145.023 81.8282C144.01 81.0991 142.569 83.5356 142.676 83.6772C143.565 84.6732 145.29 82.0236 145.023 81.8282Z" fill="#FFD3D1"/>
<path fill-rule="evenodd" clip-rule="evenodd" d="M144.721 66.7495C143.779 66.0558 142.427 68.35 142.534 68.4746C143.369 69.4168 144.97 66.9272 144.721 66.7495Z" fill="#D9EFE2"/>
<path fill-rule="evenodd" clip-rule="evenodd" d="M152.402 62.1969C151.442 61.5209 150.535 62.7306 150.695 63.3528C151.033 64.5619 152.651 62.3746 152.402 62.1969Z" fill="#CCB3B4"/>
<path fill-rule="evenodd" clip-rule="evenodd" d="M127.899 89.1007C125.872 85.9713 122.192 90.239 122.369 90.7366C122.583 91.3057 122.814 92.3548 123.935 92.1948C125.712 91.9457 128.504 90.0606 127.899 89.1007Z" fill="#A68586"/>
<path fill-rule="evenodd" clip-rule="evenodd" d="M121.107 92.4081C120.467 91.5013 119.382 93.2972 120.253 93.1195C120.644 93.048 121.249 92.6035 121.107 92.4081Z" fill="#FFD3D1"/>
<path fill-rule="evenodd" clip-rule="evenodd" d="M130.175 88.5139C129.553 87.6248 128.468 89.403 129.339 89.243C129.731 89.1538 130.336 88.7093 130.175 88.5139Z" fill="#FFD3D1"/>
<path fill-rule="evenodd" clip-rule="evenodd" d="M130.816 93.2971C130.176 92.408 129.091 94.1862 129.962 94.0262C130.354 93.9371 130.958 93.4925 130.816 93.2971Z" fill="#FFD3D1"/>
<path fill-rule="evenodd" clip-rule="evenodd" d="M142.889 90.2385C142.249 89.3494 141.182 91.1276 142.053 90.9676C142.427 90.8791 143.031 90.4345 142.889 90.2385Z" fill="#FFD3D1"/>
<path fill-rule="evenodd" clip-rule="evenodd" d="M116.377 93.2971C115.737 92.408 114.669 94.1862 115.541 94.0262C115.933 93.9371 116.537 93.4925 116.377 93.2971Z" fill="#D9EFE2"/>
<path fill-rule="evenodd" clip-rule="evenodd" d="M141.289 70.6079C140.293 70.0033 139.101 72.386 139.226 72.4929C140.115 73.382 141.538 70.7678 141.289 70.6079Z" fill="#A68586"/>
</svg>
