<svg width="285" height="190" viewBox="0 0 285 190" fill="none" xmlns="http://www.w3.org/2000/svg">
<rect width="285" height="190" fill="#C6A4EA"/>
<g clip-path="url(#clip0)">
<path d="M169.38 100.901C170.917 102.531 173.922 103.471 174.676 104.412C175.429 105.353 171.755 109.162 171.517 109.162C171.278 109.162 166.459 105.353 166.459 105.353L169.38 100.901Z" fill="#DDDBCE"/>
<path d="M202.877 39.5186C202.877 41.2243 204.068 42.6011 205.544 42.6011C207.02 42.6011 208.211 41.2243 208.211 39.5186C208.211 37.8128 207.02 36.436 205.544 36.436C204.068 36.436 202.877 37.8128 202.877 39.5186Z" fill="#FF2E56"/>
<path d="M212.316 32.8789C212.316 32.8789 209.472 46.0658 203.945 43.1515C198.419 40.2372 205.998 29.7964 205.998 29.7964C205.998 29.7964 199.364 34.0798 197.781 38.0114C196.197 41.9506 201.255 44.1765 201.255 44.1765C201.255 44.1765 144.068 167.631 144.068 168.143L145.49 168.312L203.154 46.0581C216.736 49.3166 212.316 32.8789 212.316 32.8789Z" fill="#4F3C44"/>
<path d="M80.5558 160.602C76.2898 158.376 78.7418 150 84.5066 153.236C83.0846 147.943 73.369 149.74 73.0154 159.141C72.608 169.819 82.9309 168.985 82.9309 168.985H91.1399L96.5127 154.957C91.3013 160.785 84.8217 162.827 80.5558 160.602Z" fill="#544048"/>
<path d="M136.997 51.9712C147.304 64.8138 154.061 84.8465 154.061 84.8465C154.061 84.8465 156.666 84.0739 163.184 95.3791C163.184 95.3791 165.198 94.0941 168.158 98.7217L154.291 138.787L136.405 61.9913L136.997 51.9712Z" fill="#5E4951"/>
<path d="M160.01 107.533C161.025 102.844 162.339 98.6067 163.753 95.2258C163.384 95.2564 163.184 95.3864 163.184 95.3864C162.954 94.9887 162.731 94.6062 162.508 94.2314C161.793 97.8724 160.271 100.397 158.503 100.397C156.051 100.397 154.061 95.5394 154.061 89.5426C154.061 87.8751 154.222 86.2995 154.491 84.892C154.414 84.8691 154.345 84.8615 154.291 84.8538C153.961 85.5881 153.546 86.047 153.038 86.1694C150.702 86.7049 147.381 79.8208 145.629 70.8026C145.144 68.3014 144.829 65.892 144.676 63.712C142.439 59.6351 139.856 55.5353 137.005 51.9785L136.413 61.9987L154.307 138.794L158.588 126.426C157.896 122.165 158.35 115.19 160.01 107.533Z" fill="#4F3C44"/>
<path d="M167.212 97.3066L152.277 138.657L155.121 147.514L169.818 100.772L167.212 97.3066Z" fill="#784EA5"/>
<path d="M167.212 97.3066L158.48 121.493C158.457 122.411 158.442 123.336 158.442 124.277C158.442 128.124 158.642 131.788 159.011 135.169L169.818 100.779L167.212 97.3066Z" fill="#885EBF"/>
<path d="M124.314 28.0754C113.192 23.815 111.593 25.949 111.593 25.949C110.356 25.5589 104.699 25.8419 104.699 25.8419C100.463 29.131 88.8724 31.3492 88.8724 31.3492C77.2736 42.7003 81.2013 43.1516 81.6933 41.9889C82.1775 40.8416 90.6095 35.5714 92.7002 34.6306C94.7755 33.6974 105.813 37.499 105.813 37.499L110.871 44.712C110.871 44.712 112.554 52.3227 113.523 57.6234L141.885 34.1181C140.34 32.1141 135.398 32.3283 124.314 28.0754Z" fill="#6D5A61"/>
<path d="M85.5826 36.3746C85.5826 36.3746 88.0961 36.0533 91.1783 35.4337C91.824 35.0742 92.3543 34.7912 92.7079 34.6306C93.1307 34.4394 93.9224 34.447 94.9139 34.5771C97.3505 33.9345 99.6718 33.1314 101.055 32.1676C101.055 32.1676 106.382 32.2288 107.566 32.6342C107.566 32.6342 108.903 30.852 119.349 35.1507C127.873 38.6616 132.216 39.2429 134.314 40.3903L141.893 34.1105C140.356 32.0988 135.414 32.3206 124.33 28.0678C113.192 23.8149 111.593 25.949 111.593 25.949C110.356 25.5589 104.699 25.8419 104.699 25.8419C100.463 29.131 88.8724 31.3492 88.8724 31.3492C84.0761 36.0457 81.9393 38.8681 81.1091 40.4897C82.2775 39.3271 83.7379 37.9655 85.5826 36.3746Z" fill="#7F6B73"/>
<path d="M160.932 21.5357C156.666 26.0333 130.125 35.5333 125.736 38.4858C94.9677 59.2222 99.787 77.5262 102.516 77.7862C105.244 78.0463 109.503 79.2013 128.819 55.0535L134.622 52.3534C159.387 41.9584 165.198 17.0457 160.932 21.5357Z" fill="#443032"/>
<path d="M130.433 37.7286C139.172 36.2983 147.789 36.0152 155.06 36.7189C162.339 27.326 163.584 18.7439 160.932 21.5434C156.666 26.0333 130.125 35.5334 125.736 38.4859C125.644 38.5471 125.56 38.6082 125.475 38.6694C127.074 38.3252 128.726 38.004 130.433 37.7286Z" fill="#382729"/>
<path d="M104.537 59.291C98.1806 70.099 100.779 77.618 102.516 77.7862C104.875 78.0081 108.38 78.903 121.786 63.5209C114.476 62.9931 108.35 61.5322 104.537 59.291Z" fill="#382729"/>
<path d="M159.234 169H82.9231C82.9231 169 85.6056 163.692 93.9838 157.527C102.354 151.362 110.256 120.031 108.995 114.035C107.735 108.045 108.995 64.7217 121.001 56.675C133.008 48.6359 135.69 46.7466 141.54 59.2451C147.381 71.7435 153.092 109.751 153.546 124.307C154.176 144.692 159.702 160.097 159.234 169Z" fill="#5E4951"/>
<path d="M144.145 63.9566L141.301 58.48L136.167 66.2743L144.222 91.5235C145.483 82.1077 144.145 63.9566 144.145 63.9566Z" fill="#4F3C44"/>
<path d="M153.546 124.315C153.484 122.234 153.307 119.664 153.046 116.765C145.636 96.2506 137.427 58.7324 137.427 58.7324L136.797 80.3102C136.797 80.3102 145.752 106.37 154.637 137.655C154.099 133.486 153.692 129.034 153.546 124.315Z" fill="#544048"/>
<path d="M143.592 116.268C143.592 90.3381 132.008 70.7108 121.555 56.3154C121.37 56.4378 121.194 56.5602 121.001 56.6826C108.995 64.7293 107.735 108.053 108.995 114.042C110.256 120.031 102.362 151.369 93.9838 157.534C85.6133 163.699 82.9231 169.008 82.9231 169.008H129.387C135.26 155.484 143.592 134.939 143.592 116.268Z" fill="#544048"/>
<path d="M108.519 114.723C108.911 117.874 107.85 127.03 104.799 136.699C119.526 119.045 122.739 102.905 122.739 102.905L113.261 71.5752C113.307 73.7628 105.36 89.382 108.519 114.723Z" fill="#47343C"/>
<path d="M111.401 104.236C124.437 126.449 132.031 140.508 132.031 140.508C132.031 140.508 117.566 117.721 112.347 111.939C108.442 107.61 111.401 104.236 111.401 104.236Z" fill="#47343C"/>
<path d="M148.965 163.952C148.965 163.952 155.483 112.841 134.983 65.8384L130.794 70.7184C142.985 94.7133 148.411 125.569 145.168 165.237L148.965 163.952Z" fill="#784EA5"/>
<path d="M138.696 167.119C143.123 142.29 151.363 109.461 119.134 58.2662L121.501 55.8721C140.825 85.6648 152.816 120.146 145.483 167.639L138.696 167.119Z" fill="#784EA5"/>
<path d="M144.068 107.563C143.853 113.729 143.43 119.611 142.823 125.072C143.769 141.647 140.802 155.293 138.688 167.118L145.483 167.631C148.988 144.944 148.081 125.225 144.068 107.563Z" fill="#885EBF"/>
<path d="M140.586 82.8806L118.788 57.1953C130.794 71.7513 146.751 103.426 147.696 145.549C149.749 117.982 140.118 88.3572 140.586 82.8806Z" fill="#3A292B"/>
<path d="M119.895 50.0052C117.766 52.9883 115.867 57.7995 115.867 57.7995C115.867 57.7995 134.899 76.8837 138.849 88.6172C143.138 101.345 148.25 93.4972 147.22 89.9864C145.244 94.6063 141.924 93.6655 141.455 86.9038C140.986 80.1421 142.639 56.4227 142.401 53.6843C142.401 53.6843 139.48 44.0084 137.427 42.9834C135.375 41.9585 125.583 42.0426 119.895 50.0052Z" fill="#938A90"/>
<path d="M130.955 49.3473C130.979 49.4008 130.994 49.4544 131.017 49.5079C132.285 52.7205 135.844 55.4435 135.844 55.4435L134.929 49.0107L130.955 49.3473Z" fill="#82757E"/>
<path d="M141.455 86.9039C141.371 85.6572 141.355 83.8367 141.386 81.6797C136.567 76.5243 129.603 68.4087 126.128 56.5834C125.037 52.8583 124.361 49.2098 124.084 45.8442C122.57 46.8998 121.132 48.269 119.895 50.0053C117.766 52.9884 115.867 57.7996 115.867 57.7996C115.867 57.7996 134.899 76.8838 138.849 88.6173C143.138 101.345 148.25 93.4973 147.22 89.9865C145.252 94.6064 141.932 93.6656 141.455 86.9039Z" fill="#82757E"/>
<path d="M116.259 63.9109C107.035 85.0756 109.864 97.2987 110.809 102.691C111.755 108.084 124.076 116.559 124.076 116.559L131.071 90.7435L125.621 88.0434C125.621 88.0587 120.287 54.671 116.259 63.9109Z" fill="#5E4951"/>
<path d="M111.64 94.7974C111.64 81.3581 116.167 70.4354 121.801 70.0912C120.079 64.0791 117.812 59.1761 116.028 63.2683C106.805 84.433 109.864 97.2986 110.817 102.691C111.032 103.907 111.832 105.284 112.931 106.684C112.108 103.165 111.64 99.1114 111.64 94.7974Z" fill="#544048"/>
<path d="M117.942 90.0326C117.942 90.0326 120.809 90.7516 122.854 89.1529C119.28 88.9005 117.942 90.0326 117.942 90.0326Z" fill="#47343C"/>
<path d="M124.391 79.6834C124.084 78.2301 123.623 76.5779 122.969 74.6963C123.284 76.4556 123.784 78.123 124.391 79.6834Z" fill="#47343C"/>
<path d="M124.391 79.6836C125.56 85.2291 124.46 87.8986 122.854 89.153C125.137 89.3137 128.334 90.0403 132.685 91.9908C132.693 91.9984 127.274 87.0496 124.391 79.6836Z" fill="#47343C"/>
<path d="M121.555 102.913C116.013 102.913 111.524 92.8319 111.524 80.3947C111.524 79.3162 111.563 78.253 111.624 77.2051C108.257 90.369 110.087 98.5457 110.809 102.691C111.755 108.084 124.076 116.559 124.076 116.559L131.071 90.7438L130.517 90.4684C128.872 97.8497 125.475 102.913 121.555 102.913Z" fill="#544048"/>
<path d="M132.016 136.339C122.654 127.481 113.653 107.449 113.653 107.449C117.35 95.0269 122.055 85.8634 131.071 90.7511L132.016 136.339Z" fill="#5E4951"/>
<path d="M111.839 106.761C112.977 109.239 123.323 128.101 132.024 136.339L131.355 104.198C124.998 108.069 105.936 88.2348 111.839 106.761Z" fill="#544048"/>
<path d="M132.031 140.508C141.194 115.519 135.029 88.2195 128.557 88.1048C121.609 87.9824 117.504 101.865 117.819 109.285C117.981 113.071 121.916 118.288 124.138 126.702C125.713 132.691 132.031 140.508 132.031 140.508Z" fill="#784EA5"/>
<path d="M118.819 100.879C120.84 101.468 123.077 101.796 125.444 101.796C129.149 101.796 132.554 100.986 135.267 99.6318C133.746 92.6483 131.178 88.1507 128.557 88.1048C123.822 88.0207 120.417 94.4305 118.819 100.879Z" fill="#885EBF"/>
<path d="M132.016 136.339C138.888 114.127 134.268 90.1089 129.41 90.1089C124.199 90.1089 121.125 102.439 121.355 108.987C121.47 112.329 124.43 116.873 126.098 124.269C127.281 129.539 132.016 136.339 132.016 136.339Z" fill="#2D1E20"/>
<path d="M126.098 124.269C127.281 129.532 132.024 136.339 132.024 136.339C134.906 127.023 135.767 117.385 135.437 109.338C132.055 111.067 128.334 116.268 125.836 123.16C125.921 123.527 126.005 123.894 126.098 124.269Z" fill="#443032"/>
<path d="M109.626 168.962H158.795C158.795 168.962 159.818 165.29 154.822 164.487C147.504 163.317 143.73 166.491 135.183 167.562C126.859 168.595 116.981 167.891 109.626 168.962Z" fill="#443032"/>
<path d="M125.383 46.5171C123.799 48.6588 124.138 50.3722 124.138 50.3722C124.138 50.3722 131.663 48.7047 135.99 50.0509C135.99 50.0509 137.766 47.9321 139.126 47.8021C139.126 47.8021 138.596 43.8858 134.03 44.0159C129.472 44.1382 126.328 45.2321 125.383 46.5171Z" fill="#DDDBCE"/>
<path d="M125.383 46.5174C125.383 46.5174 126.567 48.8503 131.701 49.3628L132.254 46.3262L125.383 46.5174Z" fill="#ADA997"/>
<path d="M137.52 44.9414C137.52 44.9414 137.543 48.0545 133.746 49.6073L132.877 46.693L137.52 44.9414Z" fill="#ADA997"/>
<path d="M121.77 49.1484C120.348 49.2785 115.667 53.516 115.667 53.516C115.667 53.516 119.61 54.824 121.055 53.516C121.77 52.8735 121.77 49.1484 121.77 49.1484Z" fill="#DDDBCE"/>
<path d="M121.148 50.4106C120.333 50.4871 117.635 52.9195 117.635 52.9195C117.635 52.9195 119.902 53.6691 120.733 52.9195C121.148 52.5524 121.148 50.4106 121.148 50.4106Z" fill="#ADA997"/>
<path d="M118.396 96.1895C118.288 97.4975 119.38 98.0941 120.241 98.1247C121.101 98.1553 122.885 100.458 124.23 102.966L125.652 98.836C122.985 95.8912 118.503 94.8815 118.396 96.1895Z" fill="#DDDBCE"/>
<path d="M123.607 98.4385C122.623 101.544 124.614 105.889 128.642 105.437C132.67 104.986 133.438 101.582 133.384 100.618C133.323 99.6547 130.01 100.488 128.227 100.167C126.997 99.9453 124.314 96.1897 123.607 98.4385Z" fill="#DDDBCE"/>
<path d="M124.353 46.3185C129.964 47.2593 134.899 46.1043 134.899 46.1043L138.134 44.5669C138.134 44.5669 137.189 42.5552 132.37 43.1136C128.357 43.5725 124.353 46.3185 124.353 46.3185Z" fill="#938A90"/>
<path d="M130.579 46.5786L127.912 46.6781C127.912 46.6781 127.666 47.6495 128.196 48.009C128.734 48.3761 130.579 46.5786 130.579 46.5786Z" fill="#443032"/>
<path d="M134.26 46.3334L136.351 45.4614C136.351 45.4614 136.843 46.081 136.536 46.5399C136.244 46.9989 134.26 46.3334 134.26 46.3334Z" fill="#443032"/>
<path d="M130.832 49.2327C132.37 50.686 137.489 53.0113 138.296 53.4473C139.103 53.8909 135.483 47.3587 133.876 45.7218C132.27 44.0849 130.832 49.2327 130.832 49.2327Z" fill="#DDDBCE"/>
<path d="M137.65 89.2828C137.427 88.6326 137.051 87.9442 136.367 87.6918C136.197 87.6306 136.005 87.5923 135.882 87.47C135.544 87.1258 136.013 86.4832 135.667 86.1467C135.583 86.0625 135.46 86.0166 135.39 85.9249C135.267 85.7795 135.306 85.5654 135.329 85.3818C135.49 84.3568 135.168 83.2707 134.46 82.4599C133.461 81.3202 131.87 80.823 130.502 80.0887C127.865 78.6736 125.913 76.2642 123.115 75.1475C124.522 76.4784 125.982 76.3789 126.843 78.0617C127.496 79.3314 127.873 81.8709 127.804 83.2707C127.789 83.6302 127.735 84.0432 127.412 84.2421C127.22 84.3645 126.966 84.3721 126.736 84.3492C125.367 84.2268 124.23 83.286 123.415 82.261C123.776 82.8576 123.407 83.7067 122.708 83.8979C122.792 84.701 123.377 85.443 124.168 85.7719C124.491 86.9651 124.053 88.2043 123.523 89.3134C122.992 90.4301 122.347 91.5316 122.239 92.7478C122.124 93.9563 122.57 95.2031 123.438 96.1209C124.061 96.7864 124.883 97.2606 125.682 97.7272C126.267 98.0714 126.851 98.408 127.435 98.7522L125.536 96.6181C127.566 98.2091 130.502 98.8669 133.146 98.4309C133.845 98.3162 134.545 98.125 135.137 97.7655C135.598 97.4825 135.982 97.0924 136.313 96.6793C137.981 94.6141 138.503 91.7687 137.65 89.2828Z" fill="#FFDCB3"/>
<path d="M130.241 98.8439C133.904 98.8439 136.874 95.6248 136.874 91.6539C136.874 87.683 133.904 84.4639 130.241 84.4639C126.577 84.4639 123.607 87.683 123.607 91.6539C123.607 95.6248 126.577 98.8439 130.241 98.8439Z" fill="#FF2E56"/>
<path d="M132.831 96.6793C134.038 96.4039 135.129 95.8532 136.051 95.1036C136.29 94.6293 136.49 94.1245 136.62 93.5967C135.483 94.5758 134.053 95.1648 132.485 95.1648C128.819 95.1648 125.852 91.9446 125.852 87.9747C125.852 87.3016 125.944 86.6515 126.105 86.0396C124.583 87.3552 123.607 89.3745 123.607 91.6386C125.175 95.3713 128.972 97.5666 132.831 96.6793Z" fill="#F21C4F"/>
<path d="M124.799 92.289C124.537 95.1497 126.72 97.7351 129.687 98.0563C132.654 98.3776 135.267 96.32 135.529 93.4516C135.79 90.5909 133.607 88.0056 130.64 87.6843C127.681 87.363 125.06 89.4283 124.799 92.289Z" fill="#AD2747"/>
<path d="M126.39 90.1009C125.729 90.7587 126.612 93.0687 128.742 94.1166C130.871 95.1645 133.438 94.5602 134.091 93.8948C134.752 93.237 133.254 92.7704 131.124 91.7225C129.003 90.6669 127.043 89.4354 126.39 90.1009Z" fill="#911C3D"/>
<path d="M132.193 86.5289C131.44 87.0414 131.632 88.8466 132.623 90.5599C133.615 92.2733 135.029 93.2447 135.782 92.7322C136.536 92.2198 136.343 90.4146 135.352 88.7012C134.368 86.9879 132.954 86.0164 132.193 86.5289Z" fill="#F9E7BB"/>
<path d="M125.928 94.1396C125.644 94.5374 126.051 95.6847 126.958 96.442C127.865 97.2069 128.934 97.291 129.218 96.8933C129.503 96.4955 128.78 96.1284 127.865 95.3711C126.951 94.6139 126.213 93.7419 125.928 94.1396Z" fill="#EA888F"/>
<path d="M130.064 96.7861C130.095 97.0997 130.656 97.4439 131.271 97.3675C131.885 97.2986 132.331 96.8473 132.3 96.5337C132.27 96.2201 131.862 96.3884 131.247 96.4572C130.633 96.5261 130.033 96.4725 130.064 96.7861Z" fill="#EA888F"/>
<path d="M131.332 86.2918C131.263 85.7257 130.471 85.3586 129.549 85.4886C128.626 85.611 127.935 86.177 128.004 86.743C128.073 87.3091 128.865 87.6762 129.787 87.5462C130.702 87.4238 131.393 86.8654 131.332 86.2918Z" fill="#F9E7BB"/>
<path d="M124.952 169C129.802 157.022 137.742 134.067 137.742 134.067C137.742 134.067 123.999 151.821 102.493 169H124.952Z" fill="#5E4951"/>
<path d="M132.846 51.711C131.086 50.2577 128.895 51.3362 129.825 51.7416C130.756 52.1546 131.232 51.0685 131.978 51.6192C132.731 52.1623 133.546 52.2923 132.846 51.711Z" fill="#DDDBCE"/>
<path d="M131.901 46.6089L124.168 46.7389L125.383 43.5952L132.762 45.4233L131.901 46.6089Z" fill="#82757E"/>
<path d="M134.506 46.3872L133.592 45.324L138.473 41.7979L140.548 43.8784L134.506 46.3872Z" fill="#82757E"/>
<path opacity="0.63" d="M140.871 49.1942C140.256 47.5727 139.526 45.844 138.803 44.6049L140.548 43.8782L138.473 41.79L137.035 42.8303C135.398 42.3178 131.386 42.2872 127.281 44.0618L125.383 43.5875L124.66 45.4539C124.468 45.5763 124.276 45.7063 124.084 45.844C123.884 45.9817 123.684 46.1347 123.484 46.28C123.415 46.3335 123.346 46.3871 123.277 46.4406C123.146 46.5477 123.015 46.6471 122.885 46.7542C122.808 46.8231 122.731 46.8919 122.654 46.9531C122.539 47.0602 122.416 47.1596 122.3 47.2667C122.224 47.3432 122.139 47.412 122.062 47.4885C121.947 47.5956 121.832 47.7103 121.724 47.8251C121.647 47.9016 121.57 47.9781 121.493 48.0622C121.378 48.1846 121.263 48.307 121.155 48.4293C121.086 48.5058 121.009 48.59 120.94 48.6665C120.817 48.8041 120.702 48.9495 120.579 49.0948C120.517 49.1637 120.463 49.2325 120.402 49.309C120.225 49.5308 120.056 49.7526 119.887 49.9897C119.849 50.0509 119.802 50.1121 119.764 50.1733C117.912 51.466 115.667 53.5006 115.667 53.5006C115.667 53.5006 116.528 53.7836 117.589 53.9519C116.566 56.0095 115.867 57.7764 115.867 57.7764C115.867 57.7764 116.628 58.5336 117.865 59.8416C117.604 60.2088 117.35 60.5912 117.104 60.989C125.598 54.5026 134.653 50.9994 140.871 49.1942Z" fill="#7A354F"/>
<path d="M124.906 101.689C125.813 98.561 124.276 94.2853 126.013 94.3235C127.75 94.3694 127.435 101.001 127.435 101.001L124.906 101.689Z" fill="#DDDBCE"/>
<path d="M127.343 101.521C128.903 98.7138 128.342 94.1627 130.018 94.6522C131.693 95.1417 129.948 101.506 129.948 101.506L127.343 101.521Z" fill="#DDDBCE"/>
<path d="M130.21 101.766C132.231 99.3336 132.477 94.7442 134.038 95.5703C135.606 96.3888 132.769 102.286 132.769 102.286L130.21 101.766Z" fill="#DDDBCE"/>
<path d="M170.487 102.095C174.414 102.217 174.545 102.378 174.66 103.51C174.776 104.642 172.124 108.321 171.632 107.961C171.14 107.594 171.57 105.131 171.962 104.726C171.962 104.726 169.726 105.782 169.449 104.642C169.172 103.51 170.487 102.095 170.487 102.095Z" fill="#DDDBCE"/>
<path d="M175.867 105.667C174.245 105.965 173.423 104.887 174.022 104.084C174.622 103.28 176.167 103.166 176.467 103.923C176.759 104.68 176.636 105.522 175.867 105.667Z" fill="#DDDBCE"/>
<path d="M174.845 108.351C173.192 108.397 172.677 107.242 173.461 106.562C174.245 105.881 175.782 106.003 175.875 106.768C175.967 107.533 175.636 108.328 174.845 108.351Z" fill="#DDDBCE"/>
<path d="M173.799 110.493C172.016 110.524 171.355 109.338 172.154 108.65C172.946 107.962 174.614 108.099 174.783 108.887C174.945 109.675 174.653 110.478 173.799 110.493Z" fill="#DDDBCE"/>
</g>
<defs>
<clipPath id="clip0">
<rect width="140" height="148" fill="white" transform="translate(73 21)"/>
</clipPath>
</defs>
</svg>
