<svg width="1440" height="1024" viewBox="0 0 1440 1024" fill="none" xmlns="http://www.w3.org/2000/svg">
<g clip-path="url(#clip0)">
<rect width="1440" height="1024" fill="#FFFCF4"/>
<path opacity="0.6" d="M66.0275 664.897C145.885 778.59 254.151 897.988 378.234 835.482C467.967 790.281 421.838 675.636 493.991 605.714C549.613 551.811 629.61 576.208 666.708 508.215C728.226 395.466 744.451 267.044 661.316 169.138C600.073 97.0133 407.461 82.6338 314.903 62.9919C192.281 36.9698 111.223 130.114 44.8045 236.425C-43.9632 378.509 -30.2674 527.803 66.0275 664.897Z" fill="#FFF2CC"/>
<path opacity="0.6" d="M1336.67 312.015C1364.6 267.066 1387.9 211.468 1330.97 178.402C1289.81 154.489 1253.13 187.984 1205.94 173.919C1169.57 163.077 1152.19 125.699 1111.05 106.519C1051.9 78.9431 980.04 122.815 960.113 178.223C941.399 230.257 990.237 311.941 1013.46 334.077C1049.72 368.644 1101.16 378.704 1162.19 385.201C1243.76 393.884 1302.99 366.217 1336.67 312.015Z" fill="#E0EAF3"/>
<path opacity="0.6" d="M486.283 1036.92C461.012 990.422 440.988 933.565 499.739 903.862C542.225 882.382 576.893 917.951 624.816 906.651C661.76 897.941 681.285 861.637 723.469 844.879C784.116 820.786 853.308 868.759 869.982 925.231C885.64 978.265 832.139 1056.97 807.671 1077.72C769.461 1110.12 717.525 1117.18 656.22 1120.12C574.285 1124.05 516.756 1092.99 486.283 1036.92Z" fill="#F9D7DB"/>
<path opacity="0.6" d="M1338.65 974.085C1230.13 1041.69 1037.43 1007.83 969.82 899.315C902.209 790.8 1007.41 637.894 1115.92 570.284C1224.44 502.673 1405.37 540.338 1472.98 648.853C1540.59 757.368 1447.16 906.474 1338.65 974.085Z" fill="#F1F8DB"/>
</g>
<defs>
<clipPath id="clip0">
<rect width="1440" height="1024" fill="white"/>
</clipPath>
</defs>
</svg>
